%TF.GenerationSoftware,KiCad,Pcbnew,8.0.2*%
%TF.CreationDate,2024-07-16T14:45:12-07:00*%
%TF.ProjectId,ptn,70746e2e-6b69-4636-9164-5f7063625858,1*%
%TF.SameCoordinates,Original*%
%TF.FileFunction,Soldermask,Bot*%
%TF.FilePolarity,Negative*%
%FSLAX46Y46*%
G04 Gerber Fmt 4.6, Leading zero omitted, Abs format (unit mm)*
G04 Created by KiCad (PCBNEW 8.0.2) date 2024-07-16 14:45:12*
%MOMM*%
%LPD*%
G01*
G04 APERTURE LIST*
%ADD10C,8.600000*%
%ADD11R,1.700000X1.700000*%
%ADD12O,1.700000X1.700000*%
%ADD13C,1.950000*%
G04 APERTURE END LIST*
D10*
%TO.C,H3*%
X80000000Y-134000000D03*
%TD*%
D11*
%TO.C,J4*%
X164000000Y-81460000D03*
D12*
X164000000Y-84000000D03*
%TD*%
D11*
%TO.C,J3*%
X151345000Y-60800000D03*
D12*
X151345000Y-63340000D03*
X151345000Y-65879999D03*
X151345000Y-68420000D03*
X151345000Y-70960000D03*
X151345000Y-73500000D03*
X153885000Y-73500000D03*
X153885000Y-70960000D03*
X153885000Y-68420000D03*
X153885000Y-65880000D03*
X153885000Y-63340000D03*
X153885000Y-60800000D03*
%TD*%
D13*
%TO.C,J1*%
X79990000Y-69590000D03*
X79990000Y-74590000D03*
X79990000Y-79590000D03*
X79990000Y-84590000D03*
%TD*%
D10*
%TO.C,H1*%
X80000000Y-50000000D03*
%TD*%
D11*
%TO.C,J10*%
X131310000Y-51230000D03*
D12*
X133850000Y-51230000D03*
X136389999Y-51230000D03*
X136390000Y-48690000D03*
X133850000Y-48690000D03*
X131310000Y-48690000D03*
%TD*%
D10*
%TO.C,H4*%
X164000000Y-134000000D03*
%TD*%
D12*
%TO.C,J2*%
X165240000Y-70950000D03*
X165240000Y-68410000D03*
X165240000Y-65870000D03*
X165240000Y-63330000D03*
X162700000Y-63330000D03*
X162700000Y-65870001D03*
X162700000Y-68410000D03*
D11*
X162700000Y-70950000D03*
%TD*%
%TO.C,J5*%
X80000000Y-94796000D03*
D12*
X80000000Y-97336000D03*
X80000000Y-99876000D03*
X80000000Y-102416000D03*
X80000000Y-104956000D03*
%TD*%
D11*
%TO.C,J6*%
X78725000Y-109375000D03*
D12*
X78725000Y-111915000D03*
X78725000Y-114454999D03*
X78725000Y-116995000D03*
X78725000Y-119535000D03*
X78725000Y-122075000D03*
X78725000Y-124615000D03*
X81265000Y-124615000D03*
X81265000Y-122075000D03*
X81265000Y-119535000D03*
X81265000Y-116995000D03*
X81265000Y-114455000D03*
X81265000Y-111915000D03*
X81265000Y-109375000D03*
%TD*%
D11*
%TO.C,J11*%
X154870000Y-49980000D03*
D12*
X152330000Y-49980000D03*
X149790001Y-49980000D03*
X147250000Y-49980000D03*
%TD*%
D11*
%TO.C,J8*%
X164000000Y-91550000D03*
D12*
X164000000Y-89010000D03*
%TD*%
D10*
%TO.C,H2*%
X164000000Y-50000000D03*
%TD*%
D11*
%TO.C,J7*%
X97430000Y-48690000D03*
D12*
X94890000Y-48690000D03*
X94890000Y-51230000D03*
X97430000Y-51230000D03*
%TD*%
M02*
