%TF.GenerationSoftware,KiCad,Pcbnew,8.0.2*%
%TF.CreationDate,2024-07-16T14:45:12-07:00*%
%TF.ProjectId,ptn,70746e2e-6b69-4636-9164-5f7063625858,1*%
%TF.SameCoordinates,Original*%
%TF.FileFunction,Legend,Bot*%
%TF.FilePolarity,Positive*%
%FSLAX46Y46*%
G04 Gerber Fmt 4.6, Leading zero omitted, Abs format (unit mm)*
G04 Created by KiCad (PCBNEW 8.0.2) date 2024-07-16 14:45:12*
%MOMM*%
%LPD*%
G01*
G04 APERTURE LIST*
%ADD10C,0.100000*%
%ADD11C,0.000000*%
G04 APERTURE END LIST*
D10*
X146556115Y-133652531D02*
X146556115Y-132652531D01*
X146556115Y-132652531D02*
X146175163Y-132652531D01*
X146175163Y-132652531D02*
X146079925Y-132700150D01*
X146079925Y-132700150D02*
X146032306Y-132747769D01*
X146032306Y-132747769D02*
X145984687Y-132843007D01*
X145984687Y-132843007D02*
X145984687Y-132985864D01*
X145984687Y-132985864D02*
X146032306Y-133081102D01*
X146032306Y-133081102D02*
X146079925Y-133128721D01*
X146079925Y-133128721D02*
X146175163Y-133176340D01*
X146175163Y-133176340D02*
X146556115Y-133176340D01*
X145413258Y-133652531D02*
X145508496Y-133604912D01*
X145508496Y-133604912D02*
X145556115Y-133557292D01*
X145556115Y-133557292D02*
X145603734Y-133462054D01*
X145603734Y-133462054D02*
X145603734Y-133176340D01*
X145603734Y-133176340D02*
X145556115Y-133081102D01*
X145556115Y-133081102D02*
X145508496Y-133033483D01*
X145508496Y-133033483D02*
X145413258Y-132985864D01*
X145413258Y-132985864D02*
X145270401Y-132985864D01*
X145270401Y-132985864D02*
X145175163Y-133033483D01*
X145175163Y-133033483D02*
X145127544Y-133081102D01*
X145127544Y-133081102D02*
X145079925Y-133176340D01*
X145079925Y-133176340D02*
X145079925Y-133462054D01*
X145079925Y-133462054D02*
X145127544Y-133557292D01*
X145127544Y-133557292D02*
X145175163Y-133604912D01*
X145175163Y-133604912D02*
X145270401Y-133652531D01*
X145270401Y-133652531D02*
X145413258Y-133652531D01*
X144746591Y-132985864D02*
X144556115Y-133652531D01*
X144556115Y-133652531D02*
X144365639Y-133176340D01*
X144365639Y-133176340D02*
X144175163Y-133652531D01*
X144175163Y-133652531D02*
X143984687Y-132985864D01*
X143222782Y-133604912D02*
X143318020Y-133652531D01*
X143318020Y-133652531D02*
X143508496Y-133652531D01*
X143508496Y-133652531D02*
X143603734Y-133604912D01*
X143603734Y-133604912D02*
X143651353Y-133509673D01*
X143651353Y-133509673D02*
X143651353Y-133128721D01*
X143651353Y-133128721D02*
X143603734Y-133033483D01*
X143603734Y-133033483D02*
X143508496Y-132985864D01*
X143508496Y-132985864D02*
X143318020Y-132985864D01*
X143318020Y-132985864D02*
X143222782Y-133033483D01*
X143222782Y-133033483D02*
X143175163Y-133128721D01*
X143175163Y-133128721D02*
X143175163Y-133223959D01*
X143175163Y-133223959D02*
X143651353Y-133319197D01*
X142746591Y-133652531D02*
X142746591Y-132985864D01*
X142746591Y-133176340D02*
X142698972Y-133081102D01*
X142698972Y-133081102D02*
X142651353Y-133033483D01*
X142651353Y-133033483D02*
X142556115Y-132985864D01*
X142556115Y-132985864D02*
X142460877Y-132985864D01*
X141508495Y-132652531D02*
X140937067Y-132652531D01*
X141222781Y-133652531D02*
X141222781Y-132652531D01*
X140603733Y-133652531D02*
X140603733Y-132985864D01*
X140603733Y-133176340D02*
X140556114Y-133081102D01*
X140556114Y-133081102D02*
X140508495Y-133033483D01*
X140508495Y-133033483D02*
X140413257Y-132985864D01*
X140413257Y-132985864D02*
X140318019Y-132985864D01*
X139556114Y-133652531D02*
X139556114Y-133128721D01*
X139556114Y-133128721D02*
X139603733Y-133033483D01*
X139603733Y-133033483D02*
X139698971Y-132985864D01*
X139698971Y-132985864D02*
X139889447Y-132985864D01*
X139889447Y-132985864D02*
X139984685Y-133033483D01*
X139556114Y-133604912D02*
X139651352Y-133652531D01*
X139651352Y-133652531D02*
X139889447Y-133652531D01*
X139889447Y-133652531D02*
X139984685Y-133604912D01*
X139984685Y-133604912D02*
X140032304Y-133509673D01*
X140032304Y-133509673D02*
X140032304Y-133414435D01*
X140032304Y-133414435D02*
X139984685Y-133319197D01*
X139984685Y-133319197D02*
X139889447Y-133271578D01*
X139889447Y-133271578D02*
X139651352Y-133271578D01*
X139651352Y-133271578D02*
X139556114Y-133223959D01*
X139079923Y-132985864D02*
X139079923Y-133652531D01*
X139079923Y-133081102D02*
X139032304Y-133033483D01*
X139032304Y-133033483D02*
X138937066Y-132985864D01*
X138937066Y-132985864D02*
X138794209Y-132985864D01*
X138794209Y-132985864D02*
X138698971Y-133033483D01*
X138698971Y-133033483D02*
X138651352Y-133128721D01*
X138651352Y-133128721D02*
X138651352Y-133652531D01*
X138222780Y-133604912D02*
X138127542Y-133652531D01*
X138127542Y-133652531D02*
X137937066Y-133652531D01*
X137937066Y-133652531D02*
X137841828Y-133604912D01*
X137841828Y-133604912D02*
X137794209Y-133509673D01*
X137794209Y-133509673D02*
X137794209Y-133462054D01*
X137794209Y-133462054D02*
X137841828Y-133366816D01*
X137841828Y-133366816D02*
X137937066Y-133319197D01*
X137937066Y-133319197D02*
X138079923Y-133319197D01*
X138079923Y-133319197D02*
X138175161Y-133271578D01*
X138175161Y-133271578D02*
X138222780Y-133176340D01*
X138222780Y-133176340D02*
X138222780Y-133128721D01*
X138222780Y-133128721D02*
X138175161Y-133033483D01*
X138175161Y-133033483D02*
X138079923Y-132985864D01*
X138079923Y-132985864D02*
X137937066Y-132985864D01*
X137937066Y-132985864D02*
X137841828Y-133033483D01*
X137365637Y-133652531D02*
X137365637Y-132985864D01*
X137365637Y-133081102D02*
X137318018Y-133033483D01*
X137318018Y-133033483D02*
X137222780Y-132985864D01*
X137222780Y-132985864D02*
X137079923Y-132985864D01*
X137079923Y-132985864D02*
X136984685Y-133033483D01*
X136984685Y-133033483D02*
X136937066Y-133128721D01*
X136937066Y-133128721D02*
X136937066Y-133652531D01*
X136937066Y-133128721D02*
X136889447Y-133033483D01*
X136889447Y-133033483D02*
X136794209Y-132985864D01*
X136794209Y-132985864D02*
X136651352Y-132985864D01*
X136651352Y-132985864D02*
X136556113Y-133033483D01*
X136556113Y-133033483D02*
X136508494Y-133128721D01*
X136508494Y-133128721D02*
X136508494Y-133652531D01*
X136032304Y-133652531D02*
X136032304Y-132985864D01*
X136032304Y-132652531D02*
X136079923Y-132700150D01*
X136079923Y-132700150D02*
X136032304Y-132747769D01*
X136032304Y-132747769D02*
X135984685Y-132700150D01*
X135984685Y-132700150D02*
X136032304Y-132652531D01*
X136032304Y-132652531D02*
X136032304Y-132747769D01*
X135698971Y-132985864D02*
X135318019Y-132985864D01*
X135556114Y-132652531D02*
X135556114Y-133509673D01*
X135556114Y-133509673D02*
X135508495Y-133604912D01*
X135508495Y-133604912D02*
X135413257Y-133652531D01*
X135413257Y-133652531D02*
X135318019Y-133652531D01*
X135127542Y-132985864D02*
X134746590Y-132985864D01*
X134984685Y-132652531D02*
X134984685Y-133509673D01*
X134984685Y-133509673D02*
X134937066Y-133604912D01*
X134937066Y-133604912D02*
X134841828Y-133652531D01*
X134841828Y-133652531D02*
X134746590Y-133652531D01*
X134032304Y-133604912D02*
X134127542Y-133652531D01*
X134127542Y-133652531D02*
X134318018Y-133652531D01*
X134318018Y-133652531D02*
X134413256Y-133604912D01*
X134413256Y-133604912D02*
X134460875Y-133509673D01*
X134460875Y-133509673D02*
X134460875Y-133128721D01*
X134460875Y-133128721D02*
X134413256Y-133033483D01*
X134413256Y-133033483D02*
X134318018Y-132985864D01*
X134318018Y-132985864D02*
X134127542Y-132985864D01*
X134127542Y-132985864D02*
X134032304Y-133033483D01*
X134032304Y-133033483D02*
X133984685Y-133128721D01*
X133984685Y-133128721D02*
X133984685Y-133223959D01*
X133984685Y-133223959D02*
X134460875Y-133319197D01*
X133556113Y-133652531D02*
X133556113Y-132985864D01*
X133556113Y-133176340D02*
X133508494Y-133081102D01*
X133508494Y-133081102D02*
X133460875Y-133033483D01*
X133460875Y-133033483D02*
X133365637Y-132985864D01*
X133365637Y-132985864D02*
X133270399Y-132985864D01*
X132175160Y-133652531D02*
X132175160Y-132652531D01*
X132175160Y-132652531D02*
X131603732Y-133652531D01*
X131603732Y-133652531D02*
X131603732Y-132652531D01*
X130984684Y-133652531D02*
X131079922Y-133604912D01*
X131079922Y-133604912D02*
X131127541Y-133557292D01*
X131127541Y-133557292D02*
X131175160Y-133462054D01*
X131175160Y-133462054D02*
X131175160Y-133176340D01*
X131175160Y-133176340D02*
X131127541Y-133081102D01*
X131127541Y-133081102D02*
X131079922Y-133033483D01*
X131079922Y-133033483D02*
X130984684Y-132985864D01*
X130984684Y-132985864D02*
X130841827Y-132985864D01*
X130841827Y-132985864D02*
X130746589Y-133033483D01*
X130746589Y-133033483D02*
X130698970Y-133081102D01*
X130698970Y-133081102D02*
X130651351Y-133176340D01*
X130651351Y-133176340D02*
X130651351Y-133462054D01*
X130651351Y-133462054D02*
X130698970Y-133557292D01*
X130698970Y-133557292D02*
X130746589Y-133604912D01*
X130746589Y-133604912D02*
X130841827Y-133652531D01*
X130841827Y-133652531D02*
X130984684Y-133652531D01*
X129794208Y-133652531D02*
X129794208Y-132652531D01*
X129794208Y-133604912D02*
X129889446Y-133652531D01*
X129889446Y-133652531D02*
X130079922Y-133652531D01*
X130079922Y-133652531D02*
X130175160Y-133604912D01*
X130175160Y-133604912D02*
X130222779Y-133557292D01*
X130222779Y-133557292D02*
X130270398Y-133462054D01*
X130270398Y-133462054D02*
X130270398Y-133176340D01*
X130270398Y-133176340D02*
X130222779Y-133081102D01*
X130222779Y-133081102D02*
X130175160Y-133033483D01*
X130175160Y-133033483D02*
X130079922Y-132985864D01*
X130079922Y-132985864D02*
X129889446Y-132985864D01*
X129889446Y-132985864D02*
X129794208Y-133033483D01*
X128937065Y-133604912D02*
X129032303Y-133652531D01*
X129032303Y-133652531D02*
X129222779Y-133652531D01*
X129222779Y-133652531D02*
X129318017Y-133604912D01*
X129318017Y-133604912D02*
X129365636Y-133509673D01*
X129365636Y-133509673D02*
X129365636Y-133128721D01*
X129365636Y-133128721D02*
X129318017Y-133033483D01*
X129318017Y-133033483D02*
X129222779Y-132985864D01*
X129222779Y-132985864D02*
X129032303Y-132985864D01*
X129032303Y-132985864D02*
X128937065Y-133033483D01*
X128937065Y-133033483D02*
X128889446Y-133128721D01*
X128889446Y-133128721D02*
X128889446Y-133223959D01*
X128889446Y-133223959D02*
X129365636Y-133319197D01*
X146603734Y-134976760D02*
X146127544Y-134976760D01*
X146698972Y-135262475D02*
X146365639Y-134262475D01*
X146365639Y-134262475D02*
X146032306Y-135262475D01*
X145698972Y-135262475D02*
X145698972Y-134595808D01*
X145698972Y-134786284D02*
X145651353Y-134691046D01*
X145651353Y-134691046D02*
X145603734Y-134643427D01*
X145603734Y-134643427D02*
X145508496Y-134595808D01*
X145508496Y-134595808D02*
X145413258Y-134595808D01*
X144651353Y-135262475D02*
X144651353Y-134262475D01*
X144651353Y-135214856D02*
X144746591Y-135262475D01*
X144746591Y-135262475D02*
X144937067Y-135262475D01*
X144937067Y-135262475D02*
X145032305Y-135214856D01*
X145032305Y-135214856D02*
X145079924Y-135167236D01*
X145079924Y-135167236D02*
X145127543Y-135071998D01*
X145127543Y-135071998D02*
X145127543Y-134786284D01*
X145127543Y-134786284D02*
X145079924Y-134691046D01*
X145079924Y-134691046D02*
X145032305Y-134643427D01*
X145032305Y-134643427D02*
X144937067Y-134595808D01*
X144937067Y-134595808D02*
X144746591Y-134595808D01*
X144746591Y-134595808D02*
X144651353Y-134643427D01*
X143746591Y-135262475D02*
X143746591Y-134738665D01*
X143746591Y-134738665D02*
X143794210Y-134643427D01*
X143794210Y-134643427D02*
X143889448Y-134595808D01*
X143889448Y-134595808D02*
X144079924Y-134595808D01*
X144079924Y-134595808D02*
X144175162Y-134643427D01*
X143746591Y-135214856D02*
X143841829Y-135262475D01*
X143841829Y-135262475D02*
X144079924Y-135262475D01*
X144079924Y-135262475D02*
X144175162Y-135214856D01*
X144175162Y-135214856D02*
X144222781Y-135119617D01*
X144222781Y-135119617D02*
X144222781Y-135024379D01*
X144222781Y-135024379D02*
X144175162Y-134929141D01*
X144175162Y-134929141D02*
X144079924Y-134881522D01*
X144079924Y-134881522D02*
X143841829Y-134881522D01*
X143841829Y-134881522D02*
X143746591Y-134833903D01*
X143365638Y-134595808D02*
X143127543Y-135262475D01*
X143127543Y-135262475D02*
X142889448Y-134595808D01*
X142079924Y-135262475D02*
X142079924Y-134738665D01*
X142079924Y-134738665D02*
X142127543Y-134643427D01*
X142127543Y-134643427D02*
X142222781Y-134595808D01*
X142222781Y-134595808D02*
X142413257Y-134595808D01*
X142413257Y-134595808D02*
X142508495Y-134643427D01*
X142079924Y-135214856D02*
X142175162Y-135262475D01*
X142175162Y-135262475D02*
X142413257Y-135262475D01*
X142413257Y-135262475D02*
X142508495Y-135214856D01*
X142508495Y-135214856D02*
X142556114Y-135119617D01*
X142556114Y-135119617D02*
X142556114Y-135024379D01*
X142556114Y-135024379D02*
X142508495Y-134929141D01*
X142508495Y-134929141D02*
X142413257Y-134881522D01*
X142413257Y-134881522D02*
X142175162Y-134881522D01*
X142175162Y-134881522D02*
X142079924Y-134833903D01*
X141603733Y-134595808D02*
X141603733Y-135262475D01*
X141603733Y-134691046D02*
X141556114Y-134643427D01*
X141556114Y-134643427D02*
X141460876Y-134595808D01*
X141460876Y-134595808D02*
X141318019Y-134595808D01*
X141318019Y-134595808D02*
X141222781Y-134643427D01*
X141222781Y-134643427D02*
X141175162Y-134738665D01*
X141175162Y-134738665D02*
X141175162Y-135262475D01*
X139937066Y-135262475D02*
X139937066Y-134262475D01*
X139937066Y-134262475D02*
X139556114Y-134262475D01*
X139556114Y-134262475D02*
X139460876Y-134310094D01*
X139460876Y-134310094D02*
X139413257Y-134357713D01*
X139413257Y-134357713D02*
X139365638Y-134452951D01*
X139365638Y-134452951D02*
X139365638Y-134595808D01*
X139365638Y-134595808D02*
X139413257Y-134691046D01*
X139413257Y-134691046D02*
X139460876Y-134738665D01*
X139460876Y-134738665D02*
X139556114Y-134786284D01*
X139556114Y-134786284D02*
X139937066Y-134786284D01*
X138794209Y-135262475D02*
X138889447Y-135214856D01*
X138889447Y-135214856D02*
X138937066Y-135167236D01*
X138937066Y-135167236D02*
X138984685Y-135071998D01*
X138984685Y-135071998D02*
X138984685Y-134786284D01*
X138984685Y-134786284D02*
X138937066Y-134691046D01*
X138937066Y-134691046D02*
X138889447Y-134643427D01*
X138889447Y-134643427D02*
X138794209Y-134595808D01*
X138794209Y-134595808D02*
X138651352Y-134595808D01*
X138651352Y-134595808D02*
X138556114Y-134643427D01*
X138556114Y-134643427D02*
X138508495Y-134691046D01*
X138508495Y-134691046D02*
X138460876Y-134786284D01*
X138460876Y-134786284D02*
X138460876Y-135071998D01*
X138460876Y-135071998D02*
X138508495Y-135167236D01*
X138508495Y-135167236D02*
X138556114Y-135214856D01*
X138556114Y-135214856D02*
X138651352Y-135262475D01*
X138651352Y-135262475D02*
X138794209Y-135262475D01*
X137603733Y-134595808D02*
X137603733Y-135262475D01*
X138032304Y-134595808D02*
X138032304Y-135119617D01*
X138032304Y-135119617D02*
X137984685Y-135214856D01*
X137984685Y-135214856D02*
X137889447Y-135262475D01*
X137889447Y-135262475D02*
X137746590Y-135262475D01*
X137746590Y-135262475D02*
X137651352Y-135214856D01*
X137651352Y-135214856D02*
X137603733Y-135167236D01*
X137127542Y-135262475D02*
X137127542Y-134595808D01*
X137127542Y-134786284D02*
X137079923Y-134691046D01*
X137079923Y-134691046D02*
X137032304Y-134643427D01*
X137032304Y-134643427D02*
X136937066Y-134595808D01*
X136937066Y-134595808D02*
X136841828Y-134595808D01*
X136508494Y-135262475D02*
X136508494Y-134262475D01*
X136413256Y-134881522D02*
X136127542Y-135262475D01*
X136127542Y-134595808D02*
X136508494Y-134976760D01*
X135318018Y-135214856D02*
X135413256Y-135262475D01*
X135413256Y-135262475D02*
X135603732Y-135262475D01*
X135603732Y-135262475D02*
X135698970Y-135214856D01*
X135698970Y-135214856D02*
X135746589Y-135119617D01*
X135746589Y-135119617D02*
X135746589Y-134738665D01*
X135746589Y-134738665D02*
X135698970Y-134643427D01*
X135698970Y-134643427D02*
X135603732Y-134595808D01*
X135603732Y-134595808D02*
X135413256Y-134595808D01*
X135413256Y-134595808D02*
X135318018Y-134643427D01*
X135318018Y-134643427D02*
X135270399Y-134738665D01*
X135270399Y-134738665D02*
X135270399Y-134833903D01*
X135270399Y-134833903D02*
X135746589Y-134929141D01*
X134841827Y-135262475D02*
X134841827Y-134595808D01*
X134841827Y-134786284D02*
X134794208Y-134691046D01*
X134794208Y-134691046D02*
X134746589Y-134643427D01*
X134746589Y-134643427D02*
X134651351Y-134595808D01*
X134651351Y-134595808D02*
X134556113Y-134595808D01*
X133794208Y-135262475D02*
X133794208Y-134738665D01*
X133794208Y-134738665D02*
X133841827Y-134643427D01*
X133841827Y-134643427D02*
X133937065Y-134595808D01*
X133937065Y-134595808D02*
X134127541Y-134595808D01*
X134127541Y-134595808D02*
X134222779Y-134643427D01*
X133794208Y-135214856D02*
X133889446Y-135262475D01*
X133889446Y-135262475D02*
X134127541Y-135262475D01*
X134127541Y-135262475D02*
X134222779Y-135214856D01*
X134222779Y-135214856D02*
X134270398Y-135119617D01*
X134270398Y-135119617D02*
X134270398Y-135024379D01*
X134270398Y-135024379D02*
X134222779Y-134929141D01*
X134222779Y-134929141D02*
X134127541Y-134881522D01*
X134127541Y-134881522D02*
X133889446Y-134881522D01*
X133889446Y-134881522D02*
X133794208Y-134833903D01*
X133318017Y-135262475D02*
X133318017Y-134595808D01*
X133318017Y-134691046D02*
X133270398Y-134643427D01*
X133270398Y-134643427D02*
X133175160Y-134595808D01*
X133175160Y-134595808D02*
X133032303Y-134595808D01*
X133032303Y-134595808D02*
X132937065Y-134643427D01*
X132937065Y-134643427D02*
X132889446Y-134738665D01*
X132889446Y-134738665D02*
X132889446Y-135262475D01*
X132889446Y-134738665D02*
X132841827Y-134643427D01*
X132841827Y-134643427D02*
X132746589Y-134595808D01*
X132746589Y-134595808D02*
X132603732Y-134595808D01*
X132603732Y-134595808D02*
X132508493Y-134643427D01*
X132508493Y-134643427D02*
X132460874Y-134738665D01*
X132460874Y-134738665D02*
X132460874Y-135262475D01*
X131556113Y-135262475D02*
X131556113Y-134738665D01*
X131556113Y-134738665D02*
X131603732Y-134643427D01*
X131603732Y-134643427D02*
X131698970Y-134595808D01*
X131698970Y-134595808D02*
X131889446Y-134595808D01*
X131889446Y-134595808D02*
X131984684Y-134643427D01*
X131556113Y-135214856D02*
X131651351Y-135262475D01*
X131651351Y-135262475D02*
X131889446Y-135262475D01*
X131889446Y-135262475D02*
X131984684Y-135214856D01*
X131984684Y-135214856D02*
X132032303Y-135119617D01*
X132032303Y-135119617D02*
X132032303Y-135024379D01*
X132032303Y-135024379D02*
X131984684Y-134929141D01*
X131984684Y-134929141D02*
X131889446Y-134881522D01*
X131889446Y-134881522D02*
X131651351Y-134881522D01*
X131651351Y-134881522D02*
X131556113Y-134833903D01*
X131222779Y-134595808D02*
X130841827Y-134595808D01*
X131079922Y-134262475D02*
X131079922Y-135119617D01*
X131079922Y-135119617D02*
X131032303Y-135214856D01*
X131032303Y-135214856D02*
X130937065Y-135262475D01*
X130937065Y-135262475D02*
X130841827Y-135262475D01*
X130508493Y-135262475D02*
X130508493Y-134595808D01*
X130508493Y-134262475D02*
X130556112Y-134310094D01*
X130556112Y-134310094D02*
X130508493Y-134357713D01*
X130508493Y-134357713D02*
X130460874Y-134310094D01*
X130460874Y-134310094D02*
X130508493Y-134262475D01*
X130508493Y-134262475D02*
X130508493Y-134357713D01*
X146603734Y-135967657D02*
X146556115Y-135920038D01*
X146556115Y-135920038D02*
X146460877Y-135872419D01*
X146460877Y-135872419D02*
X146222782Y-135872419D01*
X146222782Y-135872419D02*
X146127544Y-135920038D01*
X146127544Y-135920038D02*
X146079925Y-135967657D01*
X146079925Y-135967657D02*
X146032306Y-136062895D01*
X146032306Y-136062895D02*
X146032306Y-136158133D01*
X146032306Y-136158133D02*
X146079925Y-136300990D01*
X146079925Y-136300990D02*
X146651353Y-136872419D01*
X146651353Y-136872419D02*
X146032306Y-136872419D01*
X145413258Y-135872419D02*
X145318020Y-135872419D01*
X145318020Y-135872419D02*
X145222782Y-135920038D01*
X145222782Y-135920038D02*
X145175163Y-135967657D01*
X145175163Y-135967657D02*
X145127544Y-136062895D01*
X145127544Y-136062895D02*
X145079925Y-136253371D01*
X145079925Y-136253371D02*
X145079925Y-136491466D01*
X145079925Y-136491466D02*
X145127544Y-136681942D01*
X145127544Y-136681942D02*
X145175163Y-136777180D01*
X145175163Y-136777180D02*
X145222782Y-136824800D01*
X145222782Y-136824800D02*
X145318020Y-136872419D01*
X145318020Y-136872419D02*
X145413258Y-136872419D01*
X145413258Y-136872419D02*
X145508496Y-136824800D01*
X145508496Y-136824800D02*
X145556115Y-136777180D01*
X145556115Y-136777180D02*
X145603734Y-136681942D01*
X145603734Y-136681942D02*
X145651353Y-136491466D01*
X145651353Y-136491466D02*
X145651353Y-136253371D01*
X145651353Y-136253371D02*
X145603734Y-136062895D01*
X145603734Y-136062895D02*
X145556115Y-135967657D01*
X145556115Y-135967657D02*
X145508496Y-135920038D01*
X145508496Y-135920038D02*
X145413258Y-135872419D01*
X144698972Y-135967657D02*
X144651353Y-135920038D01*
X144651353Y-135920038D02*
X144556115Y-135872419D01*
X144556115Y-135872419D02*
X144318020Y-135872419D01*
X144318020Y-135872419D02*
X144222782Y-135920038D01*
X144222782Y-135920038D02*
X144175163Y-135967657D01*
X144175163Y-135967657D02*
X144127544Y-136062895D01*
X144127544Y-136062895D02*
X144127544Y-136158133D01*
X144127544Y-136158133D02*
X144175163Y-136300990D01*
X144175163Y-136300990D02*
X144746591Y-136872419D01*
X144746591Y-136872419D02*
X144127544Y-136872419D01*
X143270401Y-136205752D02*
X143270401Y-136872419D01*
X143508496Y-135824800D02*
X143746591Y-136539085D01*
X143746591Y-136539085D02*
X143127544Y-136539085D01*
X142746591Y-136491466D02*
X141984687Y-136491466D01*
X141318020Y-135872419D02*
X141222782Y-135872419D01*
X141222782Y-135872419D02*
X141127544Y-135920038D01*
X141127544Y-135920038D02*
X141079925Y-135967657D01*
X141079925Y-135967657D02*
X141032306Y-136062895D01*
X141032306Y-136062895D02*
X140984687Y-136253371D01*
X140984687Y-136253371D02*
X140984687Y-136491466D01*
X140984687Y-136491466D02*
X141032306Y-136681942D01*
X141032306Y-136681942D02*
X141079925Y-136777180D01*
X141079925Y-136777180D02*
X141127544Y-136824800D01*
X141127544Y-136824800D02*
X141222782Y-136872419D01*
X141222782Y-136872419D02*
X141318020Y-136872419D01*
X141318020Y-136872419D02*
X141413258Y-136824800D01*
X141413258Y-136824800D02*
X141460877Y-136777180D01*
X141460877Y-136777180D02*
X141508496Y-136681942D01*
X141508496Y-136681942D02*
X141556115Y-136491466D01*
X141556115Y-136491466D02*
X141556115Y-136253371D01*
X141556115Y-136253371D02*
X141508496Y-136062895D01*
X141508496Y-136062895D02*
X141460877Y-135967657D01*
X141460877Y-135967657D02*
X141413258Y-135920038D01*
X141413258Y-135920038D02*
X141318020Y-135872419D01*
X140651353Y-135872419D02*
X139984687Y-135872419D01*
X139984687Y-135872419D02*
X140413258Y-136872419D01*
D11*
%TO.C,G\u002A\u002A\u002A*%
G36*
X156375462Y-130265944D02*
G01*
X156706964Y-130585485D01*
X156870179Y-130762766D01*
X157178386Y-131147671D01*
X157438538Y-131550795D01*
X157655497Y-131980154D01*
X157834122Y-132443763D01*
X157871295Y-132557019D01*
X157934546Y-132763373D01*
X157982858Y-132948292D01*
X158018154Y-133124593D01*
X158042360Y-133305096D01*
X158057398Y-133502619D01*
X158065192Y-133729981D01*
X158067666Y-134000000D01*
X158067681Y-134010204D01*
X158067378Y-134223838D01*
X158067373Y-134227124D01*
X158065316Y-134399628D01*
X158060813Y-134538420D01*
X158053165Y-134654206D01*
X158041673Y-134757693D01*
X158025641Y-134859585D01*
X158004369Y-134970589D01*
X157976875Y-135098116D01*
X157833702Y-135603782D01*
X157642474Y-136084904D01*
X157405772Y-136538842D01*
X157126179Y-136962957D01*
X156806275Y-137354609D01*
X156448645Y-137711160D01*
X156123095Y-137975402D01*
X156055868Y-138029969D01*
X155630527Y-138308398D01*
X155175203Y-138543807D01*
X154692480Y-138733557D01*
X154184938Y-138875008D01*
X154088989Y-138895058D01*
X153909742Y-138927100D01*
X153729533Y-138953806D01*
X153575744Y-138970869D01*
X153428217Y-138982447D01*
X153265385Y-138992660D01*
X153127598Y-138996755D01*
X152997536Y-138994767D01*
X152857882Y-138986732D01*
X152691318Y-138972684D01*
X152608989Y-138964492D01*
X152083202Y-138881061D01*
X151577443Y-138746666D01*
X151094293Y-138562940D01*
X150636331Y-138331518D01*
X150206136Y-138054036D01*
X150095633Y-137965072D01*
X150246163Y-137965072D01*
X150255619Y-137979295D01*
X150304850Y-138020163D01*
X150388245Y-138078498D01*
X150496881Y-138148606D01*
X150621831Y-138224793D01*
X150754170Y-138301365D01*
X150884973Y-138372627D01*
X151019916Y-138439727D01*
X151352097Y-138580066D01*
X151708946Y-138701360D01*
X152069656Y-138796971D01*
X152413419Y-138860261D01*
X152424242Y-138861723D01*
X152561372Y-138878205D01*
X152718954Y-138894430D01*
X152865005Y-138907082D01*
X153108167Y-138925392D01*
X153108167Y-138823745D01*
X153106924Y-138771152D01*
X153096731Y-138626990D01*
X153078030Y-138453003D01*
X153052961Y-138265883D01*
X153023661Y-138082324D01*
X152992269Y-137919018D01*
X152940176Y-137700262D01*
X152803854Y-137267881D01*
X152622007Y-136840889D01*
X152575739Y-136748136D01*
X152506640Y-136618258D01*
X152431296Y-136483839D01*
X152355093Y-136353816D01*
X152283417Y-136237128D01*
X152221653Y-136142713D01*
X152175185Y-136079509D01*
X152149399Y-136056455D01*
X152140018Y-136059885D01*
X152091174Y-136084783D01*
X152011792Y-136128501D01*
X151913408Y-136184769D01*
X151626386Y-136326109D01*
X151301705Y-136437499D01*
X151221354Y-136453975D01*
X150971991Y-136505107D01*
X150731494Y-136537127D01*
X150724975Y-136537995D01*
X150706730Y-136721021D01*
X150685121Y-136877894D01*
X150627253Y-137135495D01*
X150545539Y-137388772D01*
X150445763Y-137620767D01*
X150333711Y-137814521D01*
X150298162Y-137868196D01*
X150260596Y-137931261D01*
X150246163Y-137965072D01*
X150095633Y-137965072D01*
X149806287Y-137732126D01*
X149439364Y-137367424D01*
X149107946Y-136961564D01*
X148814612Y-136516180D01*
X148747195Y-136397896D01*
X148739670Y-136382383D01*
X148818871Y-136382383D01*
X149028165Y-136698795D01*
X149266376Y-137032177D01*
X149565442Y-137382616D01*
X149893473Y-137697908D01*
X149895784Y-137699921D01*
X149994406Y-137784821D01*
X150077307Y-137854265D01*
X150135843Y-137901139D01*
X150161368Y-137918331D01*
X150184514Y-137896343D01*
X150226568Y-137836022D01*
X150280350Y-137748645D01*
X150338919Y-137645498D01*
X150395334Y-137537866D01*
X150420999Y-137482905D01*
X150487520Y-137308994D01*
X150547444Y-137110737D01*
X150594412Y-136910744D01*
X150622067Y-136731623D01*
X150641232Y-136537127D01*
X150436571Y-136518360D01*
X150161407Y-136476138D01*
X149871523Y-136399139D01*
X149595835Y-136294545D01*
X149354018Y-136168712D01*
X149293609Y-136132558D01*
X149230787Y-136097714D01*
X149199685Y-136084245D01*
X149188271Y-136089404D01*
X149143818Y-136121977D01*
X149081995Y-136174602D01*
X149056103Y-136197451D01*
X148972648Y-136267403D01*
X148900117Y-136323671D01*
X148818871Y-136382383D01*
X148739670Y-136382383D01*
X148529794Y-135949746D01*
X148360472Y-135479708D01*
X148251917Y-135040240D01*
X148333718Y-135040240D01*
X148342473Y-135097702D01*
X148349096Y-135132459D01*
X148379893Y-135255058D01*
X148425819Y-135408985D01*
X148482011Y-135579815D01*
X148543603Y-135753127D01*
X148605730Y-135914499D01*
X148663527Y-136049507D01*
X148687804Y-136100608D01*
X148735278Y-136192006D01*
X148773804Y-136255187D01*
X148796772Y-136278774D01*
X148801330Y-136278150D01*
X148846005Y-136255677D01*
X148912675Y-136209886D01*
X148985503Y-136153018D01*
X149048649Y-136097314D01*
X149086275Y-136055016D01*
X149090943Y-136027039D01*
X149077776Y-136000891D01*
X149250704Y-136000891D01*
X149287753Y-136027039D01*
X149324457Y-136052943D01*
X149434946Y-136121350D01*
X149602890Y-136205577D01*
X149790679Y-136283557D01*
X149979210Y-136346719D01*
X149993399Y-136350758D01*
X150139054Y-136386378D01*
X150294899Y-136416358D01*
X150429527Y-136434573D01*
X150643631Y-136453975D01*
X150625725Y-136262162D01*
X150609583Y-136134395D01*
X150577453Y-135960883D01*
X150537085Y-135796442D01*
X150493615Y-135664309D01*
X150482795Y-135638446D01*
X150461246Y-135609546D01*
X150566584Y-135609546D01*
X150595873Y-135698871D01*
X150629718Y-135829306D01*
X150662168Y-135977185D01*
X150688978Y-136123068D01*
X150705904Y-136247513D01*
X150725414Y-136445514D01*
X150812141Y-136442245D01*
X150850134Y-136440200D01*
X151069783Y-136409677D01*
X151309575Y-136349891D01*
X151550675Y-136266285D01*
X151774250Y-136164298D01*
X151900336Y-136097337D01*
X151990536Y-136045685D01*
X152043733Y-136007304D01*
X152053831Y-135993436D01*
X152216291Y-135993436D01*
X152373028Y-136226423D01*
X152392851Y-136256175D01*
X152629440Y-136662114D01*
X152827973Y-137102707D01*
X152985799Y-137570194D01*
X153100266Y-138056819D01*
X153168722Y-138554820D01*
X153192639Y-138823745D01*
X153201095Y-138918818D01*
X153286633Y-138915125D01*
X153512201Y-138899575D01*
X153970513Y-138834809D01*
X154428082Y-138728316D01*
X154869549Y-138584022D01*
X155279556Y-138405851D01*
X155325936Y-138382447D01*
X155474708Y-138303677D01*
X155620144Y-138221737D01*
X155752994Y-138142284D01*
X155864009Y-138070973D01*
X155943939Y-138013461D01*
X155983534Y-137975402D01*
X155980815Y-137948329D01*
X155946507Y-137882829D01*
X155882292Y-137787538D01*
X155792953Y-137668178D01*
X155683274Y-137530468D01*
X155558040Y-137380129D01*
X155422035Y-137222880D01*
X155280043Y-137064442D01*
X155136848Y-136910534D01*
X154997234Y-136766878D01*
X154865986Y-136639194D01*
X154634149Y-136428954D01*
X154353812Y-136190418D01*
X154070430Y-135964161D01*
X153802916Y-135765722D01*
X153706969Y-135699547D01*
X153583111Y-135617450D01*
X153448631Y-135530911D01*
X153311683Y-135444922D01*
X153180422Y-135364475D01*
X153063005Y-135294561D01*
X152967585Y-135240174D01*
X152902317Y-135206304D01*
X152875358Y-135197943D01*
X152874942Y-135198467D01*
X152854870Y-135228531D01*
X152814131Y-135291875D01*
X152761024Y-135375601D01*
X152723136Y-135430820D01*
X152639599Y-135538436D01*
X152539182Y-135656502D01*
X152436076Y-135767889D01*
X152233111Y-135976175D01*
X152216291Y-135993436D01*
X152053831Y-135993436D01*
X152066399Y-135976175D01*
X152065005Y-135946280D01*
X152046025Y-135911603D01*
X152018925Y-135874519D01*
X151945912Y-135787755D01*
X151847214Y-135679576D01*
X151732545Y-135560020D01*
X151611620Y-135439128D01*
X151494153Y-135326938D01*
X151389860Y-135233490D01*
X151186105Y-135059366D01*
X151038409Y-135207062D01*
X150953086Y-135285280D01*
X150832741Y-135381930D01*
X150719925Y-135460174D01*
X150701936Y-135471386D01*
X150627381Y-135522796D01*
X150614735Y-135531516D01*
X150571567Y-135575670D01*
X150566584Y-135609546D01*
X150461246Y-135609546D01*
X150460989Y-135609202D01*
X150424145Y-135607901D01*
X150353631Y-135629973D01*
X150328798Y-135638204D01*
X150173115Y-135674009D01*
X150104376Y-135689818D01*
X149863616Y-135710998D01*
X149635086Y-135699000D01*
X149615486Y-135696310D01*
X149519621Y-135684007D01*
X149451357Y-135676661D01*
X149424395Y-135675780D01*
X149411758Y-135699099D01*
X149379825Y-135758721D01*
X149335867Y-135841091D01*
X149250704Y-136000891D01*
X149077776Y-136000891D01*
X149069799Y-135985049D01*
X149016607Y-135922777D01*
X148925940Y-135832696D01*
X148822750Y-135728229D01*
X148593926Y-135448781D01*
X148408762Y-135148553D01*
X148386539Y-135106053D01*
X148351227Y-135040945D01*
X148335128Y-135020164D01*
X148333718Y-135040240D01*
X148251917Y-135040240D01*
X148238011Y-134983942D01*
X148234327Y-134958752D01*
X148404609Y-134958752D01*
X148467583Y-135083807D01*
X148553910Y-135241826D01*
X148708690Y-135470193D01*
X148900820Y-135694094D01*
X148947373Y-135743317D01*
X149041042Y-135839283D01*
X149107805Y-135897737D01*
X149155407Y-135921034D01*
X149191591Y-135911530D01*
X149224102Y-135871580D01*
X149260683Y-135803539D01*
X149289580Y-135740088D01*
X149310984Y-135674009D01*
X149310074Y-135640407D01*
X149297498Y-135632146D01*
X149241971Y-135604976D01*
X149164163Y-135572622D01*
X149146212Y-135563624D01*
X149454027Y-135563624D01*
X149482518Y-135594435D01*
X149484078Y-135595006D01*
X149540331Y-135605849D01*
X149633593Y-135615494D01*
X149746203Y-135622999D01*
X149860498Y-135627423D01*
X149958812Y-135627824D01*
X150023485Y-135623262D01*
X150072193Y-135613281D01*
X150162800Y-135592367D01*
X150265683Y-135566938D01*
X150438407Y-135522796D01*
X150366575Y-135379724D01*
X150311375Y-135279714D01*
X150231248Y-135152208D01*
X150143670Y-135026011D01*
X150059776Y-134917071D01*
X149990698Y-134841334D01*
X149924104Y-134779496D01*
X149789688Y-134875062D01*
X149731275Y-134913976D01*
X149639230Y-134967073D01*
X149565966Y-135000102D01*
X149476661Y-135029576D01*
X149477601Y-135211219D01*
X149477700Y-135230378D01*
X149475607Y-135341173D01*
X149469072Y-135439987D01*
X149459515Y-135504706D01*
X149454027Y-135563624D01*
X149146212Y-135563624D01*
X148973508Y-135477058D01*
X148770181Y-135330252D01*
X148574842Y-135143608D01*
X148404609Y-134958752D01*
X148234327Y-134958752D01*
X148202313Y-134739820D01*
X148393139Y-134739820D01*
X148427727Y-134805135D01*
X148497051Y-134913472D01*
X148535786Y-134968353D01*
X148695008Y-135151655D01*
X148880858Y-135314421D01*
X149074673Y-135439647D01*
X149162639Y-135484407D01*
X149267893Y-135530745D01*
X149333974Y-135547670D01*
X149364905Y-135536524D01*
X149379510Y-135491107D01*
X149393148Y-135406301D01*
X149402174Y-135305960D01*
X149404753Y-135211219D01*
X149399051Y-135143211D01*
X149381088Y-135061427D01*
X149139540Y-135051775D01*
X149058488Y-135046347D01*
X148839560Y-135003885D01*
X148651178Y-134919734D01*
X148485493Y-134790759D01*
X148428206Y-134738609D01*
X148393296Y-134717615D01*
X148393139Y-134739820D01*
X148202313Y-134739820D01*
X148161191Y-134458612D01*
X148148626Y-134328024D01*
X148136941Y-134175872D01*
X148134079Y-134094337D01*
X148217139Y-134094337D01*
X148224607Y-134137758D01*
X148244839Y-134217384D01*
X148273361Y-134315119D01*
X148275499Y-134321928D01*
X148358199Y-134501743D01*
X148481035Y-134665004D01*
X148633260Y-134801972D01*
X148804130Y-134902910D01*
X148982897Y-134958079D01*
X149007914Y-134962116D01*
X149110509Y-134977705D01*
X149178705Y-134985020D01*
X149229554Y-134985307D01*
X149280104Y-134979814D01*
X149317664Y-134972135D01*
X149346448Y-134952410D01*
X149349331Y-134913075D01*
X149326180Y-134844345D01*
X149276868Y-134736433D01*
X149266021Y-134714281D01*
X149128781Y-134499785D01*
X148953269Y-134322511D01*
X148745138Y-134187162D01*
X148722418Y-134178588D01*
X148952481Y-134178588D01*
X148959228Y-134201567D01*
X149003883Y-134254536D01*
X149088648Y-134340518D01*
X149119363Y-134371896D01*
X149213798Y-134482996D01*
X149300910Y-134605091D01*
X149372857Y-134725457D01*
X149421793Y-134831374D01*
X149439874Y-134910120D01*
X149440463Y-134913075D01*
X149442469Y-134923141D01*
X149474633Y-134943564D01*
X149511864Y-134934428D01*
X149587918Y-134900915D01*
X149675713Y-134852820D01*
X149756223Y-134800799D01*
X149810416Y-134755511D01*
X149828056Y-134734913D01*
X149839409Y-134708490D01*
X149837316Y-134703957D01*
X150000470Y-134703957D01*
X150002806Y-134708490D01*
X150018407Y-134738757D01*
X150064313Y-134800602D01*
X150129655Y-134877826D01*
X150141353Y-134891228D01*
X150225318Y-134998858D01*
X150313634Y-135127525D01*
X150389003Y-135252252D01*
X150415780Y-135300193D01*
X150466843Y-135388022D01*
X150505065Y-135448885D01*
X150523703Y-135471791D01*
X150545400Y-135466896D01*
X150609762Y-135434118D01*
X150696309Y-135378019D01*
X150792678Y-135307392D01*
X150886503Y-135231028D01*
X150965419Y-135157720D01*
X151115339Y-135004436D01*
X151088195Y-134986806D01*
X151247254Y-134986806D01*
X151261216Y-135004436D01*
X151285571Y-135035188D01*
X151367755Y-135106273D01*
X151430440Y-135159757D01*
X151534137Y-135255497D01*
X151654979Y-135372399D01*
X151781782Y-135499242D01*
X151903364Y-135624803D01*
X152008542Y-135737859D01*
X152086133Y-135827188D01*
X152104520Y-135849342D01*
X152148085Y-135898070D01*
X152170714Y-135917505D01*
X152190057Y-135906308D01*
X152240635Y-135860173D01*
X152311762Y-135786855D01*
X152395205Y-135695612D01*
X152482730Y-135595702D01*
X152566102Y-135496381D01*
X152637087Y-135406908D01*
X152687452Y-135336540D01*
X152722054Y-135282589D01*
X152764165Y-135211970D01*
X152780654Y-135169497D01*
X152774967Y-135143459D01*
X152750552Y-135122144D01*
X152750415Y-135122049D01*
X152737318Y-135114536D01*
X152920078Y-135114536D01*
X152979385Y-135149730D01*
X153006642Y-135165883D01*
X153012748Y-135169497D01*
X153079297Y-135208889D01*
X153177781Y-135267153D01*
X153288802Y-135332809D01*
X153419376Y-135411976D01*
X153876511Y-135718632D01*
X154331583Y-136067495D01*
X154774068Y-136449115D01*
X155193440Y-136854042D01*
X155579174Y-137272826D01*
X155920748Y-137696017D01*
X155949449Y-137733642D01*
X156014891Y-137813884D01*
X156066438Y-137869492D01*
X156094866Y-137890182D01*
X156123533Y-137875738D01*
X156185888Y-137828764D01*
X156271832Y-137756539D01*
X156373049Y-137666625D01*
X156481224Y-137566585D01*
X156588042Y-137463980D01*
X156685189Y-137366372D01*
X156764349Y-137281324D01*
X156930475Y-137083785D01*
X157236369Y-136657879D01*
X157492277Y-136208754D01*
X157697447Y-135738597D01*
X157851129Y-135249600D01*
X157952571Y-134743950D01*
X158001023Y-134223838D01*
X157995734Y-133691452D01*
X157976682Y-133464660D01*
X157894510Y-132959340D01*
X157758898Y-132467264D01*
X157570727Y-131990829D01*
X157330879Y-131532428D01*
X157040234Y-131094458D01*
X156935896Y-130961902D01*
X156798582Y-130802524D01*
X156647441Y-130638714D01*
X156494190Y-130482752D01*
X156350548Y-130346920D01*
X156228232Y-130243496D01*
X156075510Y-130125671D01*
X156016144Y-130207857D01*
X155876735Y-130394245D01*
X155514753Y-130829659D01*
X155110288Y-131256984D01*
X154672434Y-131667964D01*
X154210281Y-132054342D01*
X153732921Y-132407863D01*
X153249447Y-132720270D01*
X153112192Y-132803912D01*
X153016729Y-132866462D01*
X152998339Y-132880750D01*
X152958541Y-132911672D01*
X152931784Y-132944086D01*
X152930614Y-132968250D01*
X152994539Y-133132672D01*
X153057547Y-133338849D01*
X153108685Y-133552602D01*
X153141272Y-133749163D01*
X153146912Y-133802260D01*
X153151303Y-134008912D01*
X153154196Y-134145090D01*
X153109954Y-134489272D01*
X153013331Y-134842114D01*
X152920078Y-135114536D01*
X152737318Y-135114536D01*
X152694647Y-135090059D01*
X152597833Y-135041607D01*
X152470298Y-134981333D01*
X152322361Y-134913873D01*
X152164346Y-134843867D01*
X152006575Y-134775951D01*
X151859370Y-134714765D01*
X151733052Y-134664945D01*
X151455639Y-134559861D01*
X151365981Y-134741184D01*
X151363010Y-134747180D01*
X151315146Y-134840651D01*
X151274168Y-134915441D01*
X151248661Y-134955838D01*
X151248639Y-134955864D01*
X151247254Y-134986806D01*
X151088195Y-134986806D01*
X150882049Y-134852915D01*
X150775738Y-134786702D01*
X150651428Y-134713959D01*
X150522152Y-134641911D01*
X150398431Y-134576145D01*
X150290785Y-134522250D01*
X150209733Y-134485815D01*
X150165796Y-134472429D01*
X150160820Y-134474139D01*
X150128607Y-134505775D01*
X150083436Y-134565016D01*
X150036950Y-134635688D01*
X150000793Y-134701620D01*
X150000470Y-134703957D01*
X149837316Y-134703957D01*
X149825936Y-134679307D01*
X149781323Y-134636864D01*
X149699256Y-134570663D01*
X149697180Y-134569024D01*
X149600593Y-134501256D01*
X149473951Y-134423703D01*
X149332475Y-134344548D01*
X149191384Y-134271972D01*
X149065900Y-134214158D01*
X148971241Y-134179289D01*
X148952481Y-134178588D01*
X148722418Y-134178588D01*
X148706911Y-134172736D01*
X149232981Y-134172736D01*
X149237789Y-134186629D01*
X149287664Y-134218283D01*
X149380754Y-134267911D01*
X149494906Y-134332575D01*
X149629855Y-134419636D01*
X149745018Y-134504125D01*
X149763579Y-134519024D01*
X149841368Y-134580098D01*
X149898767Y-134622982D01*
X149924467Y-134639168D01*
X149932662Y-134634970D01*
X149964692Y-134598946D01*
X150003965Y-134542389D01*
X150037240Y-134485298D01*
X150051275Y-134447669D01*
X150043520Y-134430756D01*
X149994393Y-134397109D01*
X149897911Y-134356138D01*
X149868339Y-134346177D01*
X150195520Y-134346177D01*
X150195819Y-134375414D01*
X150217057Y-134387579D01*
X150278712Y-134420598D01*
X150330193Y-134447669D01*
X150370452Y-134468839D01*
X150482019Y-134526874D01*
X150556979Y-134566681D01*
X150704103Y-134649176D01*
X150846197Y-134733605D01*
X150960792Y-134806832D01*
X151161667Y-134942916D01*
X151230031Y-134825780D01*
X151270630Y-134751340D01*
X151313543Y-134662670D01*
X151345113Y-134587121D01*
X151357401Y-134542360D01*
X151352907Y-134537433D01*
X151307391Y-134517401D01*
X151219538Y-134487797D01*
X151097661Y-134450937D01*
X150950072Y-134409139D01*
X150785085Y-134364720D01*
X150611012Y-134319998D01*
X150436167Y-134277290D01*
X150268861Y-134238913D01*
X150234465Y-134244864D01*
X150229249Y-134254309D01*
X150204981Y-134298254D01*
X150195520Y-134346177D01*
X149868339Y-134346177D01*
X149751650Y-134306871D01*
X149553184Y-134248339D01*
X149507475Y-134235532D01*
X149365973Y-134197398D01*
X149275092Y-134176396D01*
X149232981Y-134172736D01*
X148706911Y-134172736D01*
X148547288Y-134112497D01*
X149452726Y-134112497D01*
X149473731Y-134123382D01*
X149537353Y-134147700D01*
X149634682Y-134182179D01*
X149756809Y-134223545D01*
X149770948Y-134228242D01*
X149895050Y-134269284D01*
X149997123Y-134302726D01*
X150066937Y-134325235D01*
X150094262Y-134333479D01*
X150098499Y-134332209D01*
X150114939Y-134301779D01*
X150122266Y-134254309D01*
X150114713Y-134221398D01*
X150093220Y-134213984D01*
X150026922Y-134199326D01*
X149929679Y-134180977D01*
X149815049Y-134161174D01*
X149786198Y-134156543D01*
X150245804Y-134156543D01*
X150433386Y-134192967D01*
X150518501Y-134211329D01*
X150652459Y-134243624D01*
X150804191Y-134282784D01*
X150954447Y-134323971D01*
X150959337Y-134325357D01*
X151091161Y-134362838D01*
X151206137Y-134395690D01*
X151292052Y-134420414D01*
X151336696Y-134433510D01*
X151368188Y-134434979D01*
X151406171Y-134397922D01*
X151409807Y-134385667D01*
X151418358Y-134319874D01*
X151423851Y-134219588D01*
X151426402Y-134097669D01*
X151426126Y-133966981D01*
X151423141Y-133840382D01*
X151417561Y-133730735D01*
X151409505Y-133650900D01*
X151399086Y-133613739D01*
X151387936Y-133608815D01*
X151324689Y-133611720D01*
X151210204Y-133635511D01*
X151044657Y-133680157D01*
X150932086Y-133711672D01*
X150766772Y-133755404D01*
X150609128Y-133794572D01*
X150481910Y-133823384D01*
X150245804Y-133872456D01*
X150245804Y-134014500D01*
X150245804Y-134014995D01*
X150245804Y-134156543D01*
X149786198Y-134156543D01*
X149696587Y-134142159D01*
X149587852Y-134126169D01*
X149502401Y-134115445D01*
X149453791Y-134112226D01*
X149452726Y-134112497D01*
X148547288Y-134112497D01*
X148510042Y-134098441D01*
X148401236Y-134072863D01*
X148296529Y-134057831D01*
X148236379Y-134065006D01*
X148217139Y-134094337D01*
X148134079Y-134094337D01*
X148132319Y-134044217D01*
X148132931Y-134011507D01*
X149370540Y-134011507D01*
X149401054Y-134019460D01*
X149474875Y-134032384D01*
X149582900Y-134048778D01*
X149716029Y-134067144D01*
X149747715Y-134071365D01*
X149884749Y-134090418D01*
X150000959Y-134107822D01*
X150084905Y-134121804D01*
X150125150Y-134130589D01*
X150143670Y-134130150D01*
X150158195Y-134095896D01*
X150162434Y-134014995D01*
X150162356Y-133996535D01*
X150158054Y-133926967D01*
X150143547Y-133898667D01*
X150113802Y-133899704D01*
X150069886Y-133908635D01*
X149982801Y-133922790D01*
X149865810Y-133940055D01*
X149731690Y-133958465D01*
X149730979Y-133958559D01*
X149599595Y-133976282D01*
X149487983Y-133991944D01*
X149407924Y-134003852D01*
X149371202Y-134010311D01*
X149370540Y-134011507D01*
X148132931Y-134011507D01*
X148134153Y-133946141D01*
X148224397Y-133946141D01*
X148242451Y-133967752D01*
X148292302Y-133970381D01*
X148386471Y-133961510D01*
X148574275Y-133912326D01*
X148607696Y-133897413D01*
X149508348Y-133897413D01*
X149512186Y-133907149D01*
X149568353Y-133904547D01*
X149677585Y-133890144D01*
X149840616Y-133864476D01*
X149974345Y-133840563D01*
X150064565Y-133817955D01*
X150112943Y-133794071D01*
X150126320Y-133765484D01*
X150111536Y-133728766D01*
X150103834Y-133721758D01*
X150069717Y-133717435D01*
X150005462Y-133728672D01*
X149903852Y-133757004D01*
X149757666Y-133803963D01*
X149654722Y-133838786D01*
X149556105Y-133874805D01*
X149508348Y-133897413D01*
X148607696Y-133897413D01*
X148693575Y-133859092D01*
X148932493Y-133859092D01*
X148957430Y-133854917D01*
X148991975Y-133843615D01*
X149239757Y-133843615D01*
X149246488Y-133854494D01*
X149302103Y-133847072D01*
X149407844Y-133821471D01*
X149564951Y-133777811D01*
X149670079Y-133746821D01*
X149829558Y-133695939D01*
X149844584Y-133690448D01*
X150190650Y-133690448D01*
X150193467Y-133720866D01*
X150219506Y-133765484D01*
X150224786Y-133774531D01*
X150287489Y-133783715D01*
X150303274Y-133780714D01*
X150424971Y-133754904D01*
X150567299Y-133721123D01*
X150720926Y-133682000D01*
X150876522Y-133640164D01*
X151024754Y-133598243D01*
X151156289Y-133558867D01*
X151181387Y-133550731D01*
X151482456Y-133550731D01*
X151496351Y-133643363D01*
X151499712Y-133674042D01*
X151505124Y-133764654D01*
X151508856Y-133883806D01*
X151510246Y-134013895D01*
X151509837Y-134083543D01*
X151509534Y-134097669D01*
X151507114Y-134210575D01*
X151502398Y-134317569D01*
X151496351Y-134386756D01*
X151482456Y-134481717D01*
X151642422Y-134542360D01*
X151802040Y-134602871D01*
X151934714Y-134655406D01*
X152115256Y-134731384D01*
X152300220Y-134813095D01*
X152465316Y-134890021D01*
X152502130Y-134907740D01*
X152625023Y-134965944D01*
X152727426Y-135013022D01*
X152799532Y-135044528D01*
X152831536Y-135056017D01*
X152839913Y-135050946D01*
X152867278Y-135005727D01*
X152902909Y-134922697D01*
X152942675Y-134812901D01*
X152982444Y-134687384D01*
X153018087Y-134557192D01*
X153044550Y-134405144D01*
X153060047Y-134216190D01*
X153064540Y-134008912D01*
X153058117Y-133801407D01*
X153040863Y-133611770D01*
X153012864Y-133458096D01*
X153007929Y-133439355D01*
X152976115Y-133330948D01*
X152937889Y-133214992D01*
X152898716Y-133106722D01*
X152864056Y-133021374D01*
X152839372Y-132974184D01*
X152836504Y-132973885D01*
X152797411Y-132987086D01*
X152720374Y-133019520D01*
X152614761Y-133067123D01*
X152489937Y-133125829D01*
X152357541Y-133187601D01*
X152170134Y-133271335D01*
X151981043Y-133352482D01*
X151815935Y-133419844D01*
X151656810Y-133482299D01*
X151482456Y-133550731D01*
X151181387Y-133550731D01*
X151261797Y-133524665D01*
X151331945Y-133498266D01*
X151357401Y-133482299D01*
X151355798Y-133473910D01*
X151336325Y-133425424D01*
X151301015Y-133352124D01*
X151257820Y-133269006D01*
X151214689Y-133191069D01*
X151179572Y-133133308D01*
X151160421Y-133110722D01*
X151134899Y-133122306D01*
X151071203Y-133158277D01*
X150980058Y-133212809D01*
X150871626Y-133279945D01*
X150792140Y-133328748D01*
X150649275Y-133412195D01*
X150510236Y-133488944D01*
X150396303Y-133547035D01*
X150307298Y-133593005D01*
X150292777Y-133600505D01*
X150216545Y-133652144D01*
X150190650Y-133690448D01*
X149844584Y-133690448D01*
X149949492Y-133652110D01*
X150025018Y-133617183D01*
X150051275Y-133593005D01*
X150044207Y-133572665D01*
X150016650Y-133521226D01*
X149979403Y-133460481D01*
X149944529Y-133409817D01*
X149924093Y-133388621D01*
X149921798Y-133389447D01*
X149888382Y-133412188D01*
X149825696Y-133459763D01*
X149745018Y-133523664D01*
X149641192Y-133600352D01*
X149506739Y-133687990D01*
X149380754Y-133759879D01*
X149367990Y-133766473D01*
X149280671Y-133814315D01*
X149239757Y-133843615D01*
X148991975Y-133843615D01*
X149051024Y-133824296D01*
X149173207Y-133770558D01*
X149311676Y-133700181D01*
X149454127Y-133619645D01*
X149588258Y-133535428D01*
X149701766Y-133454008D01*
X149864816Y-133325896D01*
X149990177Y-133325896D01*
X150066104Y-133440628D01*
X150093697Y-133479497D01*
X150140938Y-133533735D01*
X150173075Y-133554764D01*
X150197904Y-133547860D01*
X150266791Y-133517644D01*
X150365468Y-133468625D01*
X150483384Y-133406515D01*
X150609991Y-133337027D01*
X150734740Y-133265872D01*
X150847082Y-133198762D01*
X150936467Y-133141410D01*
X151097113Y-133032205D01*
X151226025Y-133032205D01*
X151336023Y-133245151D01*
X151357024Y-133285731D01*
X151403472Y-133374894D01*
X151436731Y-133437881D01*
X151450684Y-133463067D01*
X151469565Y-133461186D01*
X151532539Y-133441089D01*
X151631216Y-133404350D01*
X151757180Y-133354521D01*
X151902014Y-133295154D01*
X152057301Y-133229801D01*
X152214626Y-133162013D01*
X152365572Y-133095342D01*
X152501722Y-133033340D01*
X152614659Y-132979559D01*
X152695968Y-132937550D01*
X152797883Y-132880750D01*
X152695968Y-132713631D01*
X152661971Y-132662471D01*
X152580399Y-132555108D01*
X152481397Y-132437383D01*
X152379365Y-132326890D01*
X152164677Y-132107268D01*
X152001358Y-132296358D01*
X151981815Y-132318727D01*
X151877628Y-132432247D01*
X151755737Y-132558022D01*
X151627125Y-132685345D01*
X151502777Y-132803508D01*
X151393676Y-132901803D01*
X151310806Y-132969524D01*
X151240648Y-133021394D01*
X151226025Y-133032205D01*
X151097113Y-133032205D01*
X151113017Y-133021394D01*
X150992047Y-132898088D01*
X150947518Y-132856150D01*
X150867286Y-132788983D01*
X150775631Y-132718532D01*
X150683431Y-132652505D01*
X150601562Y-132598612D01*
X150540900Y-132564563D01*
X150512324Y-132558067D01*
X150502173Y-132574739D01*
X150472666Y-132629782D01*
X150432750Y-132707768D01*
X150415085Y-132741189D01*
X150328253Y-132881277D01*
X150205179Y-133053454D01*
X150049150Y-133253046D01*
X149991166Y-133324674D01*
X149990177Y-133325896D01*
X149864816Y-133325896D01*
X149866371Y-133324674D01*
X149799296Y-133270360D01*
X149788228Y-133261892D01*
X149726621Y-133221519D01*
X149645884Y-133174416D01*
X149562599Y-133129605D01*
X149493348Y-133096103D01*
X149454715Y-133082932D01*
X149449347Y-133085302D01*
X149449052Y-133086309D01*
X149439874Y-133117669D01*
X149437753Y-133140006D01*
X149408655Y-133228709D01*
X149351593Y-133340347D01*
X149274464Y-133462072D01*
X149185162Y-133581036D01*
X149091585Y-133684392D01*
X149049228Y-133726464D01*
X148982879Y-133795180D01*
X148941428Y-133842178D01*
X148932493Y-133859092D01*
X148693575Y-133859092D01*
X148764428Y-133827476D01*
X148940353Y-133715053D01*
X149085475Y-133583151D01*
X149112502Y-133550754D01*
X149178761Y-133457335D01*
X149244377Y-133349359D01*
X149301263Y-133241647D01*
X149341334Y-133149023D01*
X149356504Y-133086309D01*
X149351080Y-133071644D01*
X149320066Y-133059346D01*
X149253052Y-133056016D01*
X149140450Y-133060509D01*
X149082753Y-133064514D01*
X148963890Y-133080901D01*
X148862361Y-133112108D01*
X148750881Y-133165488D01*
X148566596Y-133290774D01*
X148410675Y-133456973D01*
X148297514Y-133651893D01*
X148232671Y-133867997D01*
X148228980Y-133889819D01*
X148224397Y-133946141D01*
X148134153Y-133946141D01*
X148134751Y-133914150D01*
X148144227Y-133766763D01*
X148160738Y-133583151D01*
X148187998Y-133354806D01*
X148195113Y-133318070D01*
X148394400Y-133318070D01*
X148422776Y-133304696D01*
X148482905Y-133247833D01*
X148542099Y-133197618D01*
X148636936Y-133133845D01*
X148740589Y-133076262D01*
X148795751Y-133050282D01*
X148900630Y-133011224D01*
X149009991Y-132988902D01*
X149149295Y-132977138D01*
X149256869Y-132970862D01*
X149329039Y-132962666D01*
X149368801Y-132948642D01*
X149388086Y-132924412D01*
X149398827Y-132885599D01*
X149402416Y-132862795D01*
X149405105Y-132783335D01*
X149399924Y-132687980D01*
X149388774Y-132594601D01*
X149373560Y-132521063D01*
X149356184Y-132485237D01*
X149346860Y-132484878D01*
X149296057Y-132500481D01*
X149214070Y-132534711D01*
X149113363Y-132582572D01*
X148889383Y-132719385D01*
X148667448Y-132913844D01*
X148481760Y-133145878D01*
X148433000Y-133222924D01*
X148397800Y-133290098D01*
X148394400Y-133318070D01*
X148195113Y-133318070D01*
X148246037Y-133055142D01*
X148419549Y-133055142D01*
X148420212Y-133054938D01*
X148444538Y-133031931D01*
X148494044Y-132978248D01*
X148558896Y-132904520D01*
X148592123Y-132868242D01*
X148704315Y-132764091D01*
X148837918Y-132658758D01*
X148978090Y-132562688D01*
X149109989Y-132486328D01*
X149155136Y-132467152D01*
X149452811Y-132467152D01*
X149457347Y-132509909D01*
X149458782Y-132514973D01*
X149468063Y-132577089D01*
X149475259Y-132673478D01*
X149478842Y-132783335D01*
X149478914Y-132785537D01*
X149481581Y-133002256D01*
X149605845Y-133057887D01*
X149636561Y-133072381D01*
X149736208Y-133126803D01*
X149819363Y-133181595D01*
X149838980Y-133196330D01*
X149893247Y-133234409D01*
X149921132Y-133249671D01*
X149935796Y-133241686D01*
X149980394Y-133198686D01*
X150042585Y-133128084D01*
X150113269Y-133040865D01*
X150183340Y-132948010D01*
X150243697Y-132860502D01*
X150261786Y-132832130D01*
X150329467Y-132717929D01*
X150379507Y-132620255D01*
X150407284Y-132548862D01*
X150408175Y-132513501D01*
X150384672Y-132503393D01*
X150320410Y-132483205D01*
X150231856Y-132458812D01*
X150117619Y-132437489D01*
X150092690Y-132435037D01*
X150563924Y-132435037D01*
X150567312Y-132472642D01*
X150603421Y-132509156D01*
X150610871Y-132513501D01*
X150681894Y-132554923D01*
X150701557Y-132565921D01*
X150792076Y-132626707D01*
X150897342Y-132708721D01*
X150998399Y-132797442D01*
X151182161Y-132970485D01*
X151304519Y-132869166D01*
X151509774Y-132687725D01*
X151723167Y-132478332D01*
X151919857Y-132265021D01*
X152087413Y-132072384D01*
X152042716Y-132035640D01*
X152218928Y-132035640D01*
X152233573Y-132052603D01*
X152252073Y-132072384D01*
X152279844Y-132102077D01*
X152350207Y-132175876D01*
X152436921Y-132265826D01*
X152500248Y-132333555D01*
X152603176Y-132452297D01*
X152694671Y-132567564D01*
X152760417Y-132661832D01*
X152766521Y-132671677D01*
X152819469Y-132753231D01*
X152861097Y-132810914D01*
X152882850Y-132832780D01*
X152895494Y-132828524D01*
X152950130Y-132800164D01*
X153037775Y-132749810D01*
X153149614Y-132682896D01*
X153276829Y-132604857D01*
X153410606Y-132521128D01*
X153542128Y-132437142D01*
X153662578Y-132358335D01*
X153763142Y-132290140D01*
X153763706Y-132289748D01*
X154178848Y-131980747D01*
X154591351Y-131636179D01*
X154983885Y-131271314D01*
X155339121Y-130901422D01*
X155407898Y-130824273D01*
X155545402Y-130665273D01*
X155671661Y-130513153D01*
X155782330Y-130373630D01*
X155873059Y-130252420D01*
X155939502Y-130155239D01*
X155977313Y-130087805D01*
X155982142Y-130055834D01*
X155969317Y-130045699D01*
X155915745Y-130007984D01*
X155833491Y-129952519D01*
X155734316Y-129887303D01*
X155647327Y-129832367D01*
X155249502Y-129616359D01*
X154821316Y-129435477D01*
X154375408Y-129293883D01*
X153924422Y-129195741D01*
X153480997Y-129145213D01*
X153200764Y-129128909D01*
X153192271Y-129221226D01*
X153167940Y-129485687D01*
X153101011Y-129968530D01*
X152984316Y-130463425D01*
X152822453Y-130938315D01*
X152617760Y-131386395D01*
X152372574Y-131800865D01*
X152328803Y-131866477D01*
X152272147Y-131952183D01*
X152233323Y-132011930D01*
X152218928Y-132035640D01*
X152042716Y-132035640D01*
X152021149Y-132017911D01*
X151967666Y-131978485D01*
X151823622Y-131895478D01*
X151645160Y-131813893D01*
X151446288Y-131738771D01*
X151241014Y-131675154D01*
X151043345Y-131628084D01*
X150867289Y-131602603D01*
X150724551Y-131591041D01*
X150705472Y-131784659D01*
X150690154Y-131901469D01*
X150641515Y-132142640D01*
X150565285Y-132429868D01*
X150563924Y-132435037D01*
X150092690Y-132435037D01*
X149963970Y-132422376D01*
X149799696Y-132416152D01*
X149646482Y-132419597D01*
X149526015Y-132433487D01*
X149484010Y-132443931D01*
X149452811Y-132467152D01*
X149155136Y-132467152D01*
X149218773Y-132440122D01*
X149244733Y-132431655D01*
X149304757Y-132405158D01*
X149328736Y-132382861D01*
X149322658Y-132361014D01*
X149297062Y-132300083D01*
X149258264Y-132219476D01*
X149187793Y-132080407D01*
X149065454Y-132180654D01*
X149047583Y-132195579D01*
X148888802Y-132349996D01*
X148729150Y-132540276D01*
X148580970Y-132750518D01*
X148456607Y-132964825D01*
X148448976Y-132979945D01*
X148424632Y-133033497D01*
X148419549Y-133055142D01*
X148246037Y-133055142D01*
X148258464Y-132990980D01*
X148334190Y-132990980D01*
X148335411Y-132993709D01*
X148354449Y-132980801D01*
X148389930Y-132928927D01*
X148435315Y-132847372D01*
X148440807Y-132836813D01*
X148589685Y-132592634D01*
X148770403Y-132360626D01*
X148966149Y-132162481D01*
X149121727Y-132025535D01*
X149251718Y-132025535D01*
X149338163Y-132190371D01*
X149424609Y-132355207D01*
X149730994Y-132340312D01*
X149807053Y-132337182D01*
X149965764Y-132336436D01*
X150092657Y-132346585D01*
X150204119Y-132368611D01*
X150257540Y-132382861D01*
X150282001Y-132389386D01*
X150365631Y-132413176D01*
X150415519Y-132429233D01*
X150415601Y-132429265D01*
X150457050Y-132424193D01*
X150491415Y-132368790D01*
X150523705Y-132275971D01*
X150566964Y-132113891D01*
X150602626Y-131937198D01*
X150625331Y-131769867D01*
X150642843Y-131582294D01*
X150465166Y-131598474D01*
X150411667Y-131603965D01*
X150055321Y-131671441D01*
X149703832Y-131790608D01*
X149366649Y-131958370D01*
X149269333Y-132015241D01*
X149251718Y-132025535D01*
X149121727Y-132025535D01*
X149133422Y-132015241D01*
X149057392Y-131935761D01*
X149035046Y-131913358D01*
X148954667Y-131844878D01*
X148875687Y-131792477D01*
X148810874Y-131763760D01*
X148772994Y-131766334D01*
X148768039Y-131772195D01*
X148735094Y-131828768D01*
X148689595Y-131925154D01*
X148635823Y-132050741D01*
X148578057Y-132194914D01*
X148520578Y-132347059D01*
X148467665Y-132496562D01*
X148423598Y-132632809D01*
X148386536Y-132760031D01*
X148357214Y-132870337D01*
X148338784Y-132951253D01*
X148334190Y-132990980D01*
X148258464Y-132990980D01*
X148284789Y-132855063D01*
X148429500Y-132369166D01*
X148619526Y-131902348D01*
X148751496Y-131651429D01*
X148827140Y-131651429D01*
X148904251Y-131706900D01*
X148935949Y-131730933D01*
X149013676Y-131794760D01*
X149094055Y-131865402D01*
X149206749Y-131968432D01*
X149288585Y-131912856D01*
X149402536Y-131842603D01*
X149622000Y-131734291D01*
X149861527Y-131642899D01*
X150101106Y-131575659D01*
X150320724Y-131539804D01*
X150424989Y-131530379D01*
X150525858Y-131518506D01*
X150587787Y-131504004D01*
X150620269Y-131482756D01*
X150632797Y-131450646D01*
X150634863Y-131403556D01*
X150630362Y-131327136D01*
X150610142Y-131186222D01*
X150577303Y-131025328D01*
X150535854Y-130863361D01*
X150489802Y-130719228D01*
X150489552Y-130718543D01*
X150441498Y-130599909D01*
X150383243Y-130475319D01*
X150321096Y-130356229D01*
X150261365Y-130254093D01*
X150210359Y-130180366D01*
X150174387Y-130146503D01*
X150172446Y-130145821D01*
X150142986Y-130146808D01*
X150099999Y-130168015D01*
X150038527Y-130213449D01*
X149953611Y-130287119D01*
X149840294Y-130393034D01*
X149693619Y-130535201D01*
X149453509Y-130785936D01*
X149181565Y-131114855D01*
X148953822Y-131445956D01*
X148827140Y-131651429D01*
X148751496Y-131651429D01*
X148852261Y-131459841D01*
X149125098Y-131046879D01*
X149435432Y-130668694D01*
X149780656Y-130330517D01*
X149896438Y-130229298D01*
X150000869Y-130138203D01*
X150074130Y-130074702D01*
X150080768Y-130069041D01*
X150245804Y-130069041D01*
X150252666Y-130085466D01*
X150283616Y-130137655D01*
X150331053Y-130209404D01*
X150443854Y-130401308D01*
X150555074Y-130660650D01*
X150641613Y-130947908D01*
X150698663Y-131249487D01*
X150719278Y-131403556D01*
X150733896Y-131512801D01*
X150941436Y-131533078D01*
X150961636Y-131535216D01*
X151160313Y-131569352D01*
X151210246Y-131582294D01*
X151378273Y-131625845D01*
X151591011Y-131697510D01*
X151774027Y-131777165D01*
X151839927Y-131812009D01*
X151945881Y-131872445D01*
X152030796Y-131925832D01*
X152134498Y-131996756D01*
X152201373Y-131907623D01*
X152237565Y-131858308D01*
X152430069Y-131558777D01*
X152607807Y-131220373D01*
X152764764Y-130856781D01*
X152894924Y-130481686D01*
X152992269Y-130108771D01*
X153012970Y-130004494D01*
X153041624Y-129835725D01*
X153067577Y-129656881D01*
X153088723Y-129484095D01*
X153102955Y-129333499D01*
X153108167Y-129221226D01*
X153108167Y-129136761D01*
X152906690Y-129137270D01*
X152758700Y-129141552D01*
X152404472Y-129178550D01*
X152030875Y-129250669D01*
X151651188Y-129354513D01*
X151278690Y-129486686D01*
X150926657Y-129643791D01*
X150881070Y-129667191D01*
X150770527Y-129727637D01*
X150650471Y-129797132D01*
X150530567Y-129869639D01*
X150420483Y-129939121D01*
X150329883Y-129999540D01*
X150268435Y-130044859D01*
X150245804Y-130069041D01*
X150080768Y-130069041D01*
X150122002Y-130033875D01*
X150150266Y-130010803D01*
X150164701Y-130000568D01*
X150171088Y-129998249D01*
X150184028Y-129991493D01*
X150235184Y-129960031D01*
X150315418Y-129908747D01*
X150414471Y-129844137D01*
X150665178Y-129690570D01*
X151115375Y-129465259D01*
X151589871Y-129287073D01*
X152082958Y-129157693D01*
X152588925Y-129078802D01*
X153102063Y-129052084D01*
X153397682Y-129059359D01*
X153886695Y-129107334D01*
X154355508Y-129201944D01*
X154813354Y-129345266D01*
X155269467Y-129539376D01*
X155273230Y-129541186D01*
X155672127Y-129753641D01*
X156035027Y-129991945D01*
X156114407Y-130055834D01*
X156375462Y-130265944D01*
G37*
%TD*%
M02*
