%TF.GenerationSoftware,KiCad,Pcbnew,8.0.2*%
%TF.CreationDate,2024-07-16T14:45:12-07:00*%
%TF.ProjectId,ptn,70746e2e-6b69-4636-9164-5f7063625858,1*%
%TF.SameCoordinates,Original*%
%TF.FileFunction,Soldermask,Top*%
%TF.FilePolarity,Negative*%
%FSLAX46Y46*%
G04 Gerber Fmt 4.6, Leading zero omitted, Abs format (unit mm)*
G04 Created by KiCad (PCBNEW 8.0.2) date 2024-07-16 14:45:12*
%MOMM*%
%LPD*%
G01*
G04 APERTURE LIST*
G04 Aperture macros list*
%AMRoundRect*
0 Rectangle with rounded corners*
0 $1 Rounding radius*
0 $2 $3 $4 $5 $6 $7 $8 $9 X,Y pos of 4 corners*
0 Add a 4 corners polygon primitive as box body*
4,1,4,$2,$3,$4,$5,$6,$7,$8,$9,$2,$3,0*
0 Add four circle primitives for the rounded corners*
1,1,$1+$1,$2,$3*
1,1,$1+$1,$4,$5*
1,1,$1+$1,$6,$7*
1,1,$1+$1,$8,$9*
0 Add four rect primitives between the rounded corners*
20,1,$1+$1,$2,$3,$4,$5,0*
20,1,$1+$1,$4,$5,$6,$7,0*
20,1,$1+$1,$6,$7,$8,$9,0*
20,1,$1+$1,$8,$9,$2,$3,0*%
G04 Aperture macros list end*
%ADD10RoundRect,0.147500X-0.147500X-0.172500X0.147500X-0.172500X0.147500X0.172500X-0.147500X0.172500X0*%
%ADD11RoundRect,0.140000X-0.140000X-0.170000X0.140000X-0.170000X0.140000X0.170000X-0.140000X0.170000X0*%
%ADD12RoundRect,0.135000X0.185000X-0.135000X0.185000X0.135000X-0.185000X0.135000X-0.185000X-0.135000X0*%
%ADD13RoundRect,0.135000X-0.185000X0.135000X-0.185000X-0.135000X0.185000X-0.135000X0.185000X0.135000X0*%
%ADD14RoundRect,0.140000X0.170000X-0.140000X0.170000X0.140000X-0.170000X0.140000X-0.170000X-0.140000X0*%
%ADD15RoundRect,0.200000X0.200000X0.275000X-0.200000X0.275000X-0.200000X-0.275000X0.200000X-0.275000X0*%
%ADD16RoundRect,0.135000X0.135000X0.185000X-0.135000X0.185000X-0.135000X-0.185000X0.135000X-0.185000X0*%
%ADD17RoundRect,0.140000X0.140000X0.170000X-0.140000X0.170000X-0.140000X-0.170000X0.140000X-0.170000X0*%
%ADD18C,8.600000*%
%ADD19R,2.500000X1.500000*%
%ADD20R,7.000000X7.000000*%
%ADD21R,1.700000X1.700000*%
%ADD22O,1.700000X1.700000*%
%ADD23RoundRect,0.218750X0.256250X-0.218750X0.256250X0.218750X-0.256250X0.218750X-0.256250X-0.218750X0*%
%ADD24RoundRect,0.225000X-0.225000X-0.250000X0.225000X-0.250000X0.225000X0.250000X-0.225000X0.250000X0*%
%ADD25RoundRect,0.225000X-0.250000X0.225000X-0.250000X-0.225000X0.250000X-0.225000X0.250000X0.225000X0*%
%ADD26RoundRect,0.140000X-0.170000X0.140000X-0.170000X-0.140000X0.170000X-0.140000X0.170000X0.140000X0*%
%ADD27RoundRect,0.225000X0.250000X-0.225000X0.250000X0.225000X-0.250000X0.225000X-0.250000X-0.225000X0*%
%ADD28RoundRect,0.147500X-0.172500X0.147500X-0.172500X-0.147500X0.172500X-0.147500X0.172500X0.147500X0*%
%ADD29R,1.250000X0.600000*%
%ADD30R,0.775000X0.875000*%
%ADD31C,1.950000*%
%ADD32RoundRect,0.200000X0.275000X-0.200000X0.275000X0.200000X-0.275000X0.200000X-0.275000X-0.200000X0*%
%ADD33RoundRect,0.250000X-0.475000X0.250000X-0.475000X-0.250000X0.475000X-0.250000X0.475000X0.250000X0*%
%ADD34R,3.250000X3.250000*%
%ADD35R,0.800000X0.300000*%
%ADD36R,0.300000X0.800000*%
%ADD37RoundRect,0.250000X0.250000X0.475000X-0.250000X0.475000X-0.250000X-0.475000X0.250000X-0.475000X0*%
%ADD38RoundRect,0.218750X0.218750X0.256250X-0.218750X0.256250X-0.218750X-0.256250X0.218750X-0.256250X0*%
%ADD39R,1.100000X1.000000*%
%ADD40RoundRect,0.200000X-0.200000X-0.275000X0.200000X-0.275000X0.200000X0.275000X-0.200000X0.275000X0*%
%ADD41RoundRect,0.150000X0.825000X0.150000X-0.825000X0.150000X-0.825000X-0.150000X0.825000X-0.150000X0*%
%ADD42R,1.600000X1.400000*%
%ADD43RoundRect,0.200000X-0.275000X0.200000X-0.275000X-0.200000X0.275000X-0.200000X0.275000X0.200000X0*%
%ADD44R,5.080000X2.413000*%
%ADD45R,5.080000X2.286000*%
%ADD46RoundRect,0.075000X-0.662500X-0.075000X0.662500X-0.075000X0.662500X0.075000X-0.662500X0.075000X0*%
%ADD47RoundRect,0.075000X-0.075000X-0.662500X0.075000X-0.662500X0.075000X0.662500X-0.075000X0.662500X0*%
%ADD48RoundRect,0.225000X0.225000X0.250000X-0.225000X0.250000X-0.225000X-0.250000X0.225000X-0.250000X0*%
%ADD49RoundRect,0.218750X-0.256250X0.218750X-0.256250X-0.218750X0.256250X-0.218750X0.256250X0.218750X0*%
%ADD50R,0.750000X0.300000*%
%ADD51R,0.300000X0.750000*%
%ADD52RoundRect,0.135000X-0.135000X-0.185000X0.135000X-0.185000X0.135000X0.185000X-0.135000X0.185000X0*%
%ADD53RoundRect,0.218750X-0.218750X-0.256250X0.218750X-0.256250X0.218750X0.256250X-0.218750X0.256250X0*%
%ADD54RoundRect,0.375000X0.375000X-0.625000X0.375000X0.625000X-0.375000X0.625000X-0.375000X-0.625000X0*%
%ADD55RoundRect,0.500000X1.400000X-0.500000X1.400000X0.500000X-1.400000X0.500000X-1.400000X-0.500000X0*%
%ADD56R,1.400000X2.000000*%
%ADD57RoundRect,0.250000X0.475000X-0.250000X0.475000X0.250000X-0.475000X0.250000X-0.475000X-0.250000X0*%
G04 APERTURE END LIST*
D10*
%TO.C,L2*%
X140390000Y-116550000D03*
X141360000Y-116550000D03*
%TD*%
D11*
%TO.C,C23*%
X140370000Y-111830000D03*
X139410000Y-111830000D03*
%TD*%
%TO.C,C20*%
X140370000Y-110840000D03*
X139410000Y-110840000D03*
%TD*%
%TO.C,C16*%
X140370000Y-109850000D03*
X139410000Y-109850000D03*
%TD*%
D12*
%TO.C,R11*%
X137140000Y-112400001D03*
X137140000Y-113419999D03*
%TD*%
D13*
%TO.C,R10*%
X135990000Y-114420000D03*
X135990000Y-115439998D03*
%TD*%
D14*
%TO.C,C13*%
X134990000Y-114469998D03*
X134990000Y-115429998D03*
%TD*%
D15*
%TO.C,R26*%
X143280000Y-58200000D03*
X144930000Y-58200000D03*
%TD*%
D16*
%TO.C,R22*%
X148620000Y-110364000D03*
X149640000Y-110364000D03*
%TD*%
D17*
%TO.C,C37*%
X129300000Y-111510000D03*
X128340000Y-111510000D03*
%TD*%
D18*
%TO.C,H3*%
X80000000Y-134000000D03*
%TD*%
D19*
%TO.C,IC2*%
X106490000Y-77570000D03*
D20*
X113340000Y-79870000D03*
D19*
X106490000Y-82170000D03*
%TD*%
D11*
%TO.C,C43*%
X148640000Y-112430000D03*
X149600000Y-112430000D03*
%TD*%
D21*
%TO.C,J4*%
X164000000Y-81460000D03*
D22*
X164000000Y-84000000D03*
%TD*%
D15*
%TO.C,R13*%
X106550000Y-58800000D03*
X108200000Y-58800000D03*
%TD*%
D14*
%TO.C,C46*%
X153830000Y-117490000D03*
X153830000Y-116530000D03*
%TD*%
D23*
%TO.C,L6*%
X155150000Y-116537500D03*
X155150000Y-114962500D03*
%TD*%
D24*
%TO.C,C36*%
X122700000Y-116550000D03*
X124250000Y-116550000D03*
%TD*%
D25*
%TO.C,C1*%
X97866000Y-103495001D03*
X97866000Y-105045001D03*
%TD*%
D26*
%TO.C,C65*%
X119443000Y-65425000D03*
X119443000Y-66385000D03*
%TD*%
D27*
%TO.C,C8*%
X132676000Y-109744000D03*
X132676000Y-108194000D03*
%TD*%
D21*
%TO.C,J3*%
X151345000Y-60800000D03*
D22*
X151345000Y-63340000D03*
X151345000Y-65879999D03*
X151345000Y-68420000D03*
X151345000Y-70960000D03*
X151345000Y-73500000D03*
X153885000Y-73500000D03*
X153885000Y-70960000D03*
X153885000Y-68420000D03*
X153885000Y-65880000D03*
X153885000Y-63340000D03*
X153885000Y-60800000D03*
%TD*%
D11*
%TO.C,C54*%
X116030000Y-56970000D03*
X116990000Y-56970000D03*
%TD*%
D17*
%TO.C,C58*%
X124750000Y-59750000D03*
X123790000Y-59750000D03*
%TD*%
D28*
%TO.C,L5*%
X144340000Y-116535000D03*
X144340000Y-117505000D03*
%TD*%
D29*
%TO.C,IC1*%
X99600000Y-103790000D03*
X99600001Y-104740000D03*
X99600000Y-105690000D03*
X102100000Y-105690000D03*
X102100000Y-103790000D03*
%TD*%
D30*
%TO.C,Y2*%
X116291000Y-64109000D03*
X116291000Y-65383000D03*
X117265000Y-65383000D03*
X117265000Y-64109000D03*
%TD*%
D31*
%TO.C,J1*%
X79990000Y-69590000D03*
X79990000Y-74590000D03*
X79990000Y-79590000D03*
X79990000Y-84590000D03*
%TD*%
D32*
%TO.C,R9*%
X89545000Y-71190000D03*
X89545000Y-72840000D03*
%TD*%
D33*
%TO.C,C10*%
X104265499Y-64220001D03*
X104265499Y-66119999D03*
%TD*%
D34*
%TO.C,U3*%
X131418000Y-116304000D03*
D35*
X129018000Y-118054000D03*
X129018000Y-117554000D03*
X129018000Y-117054000D03*
X129018000Y-116554000D03*
X129018000Y-116054000D03*
X129018000Y-115554000D03*
X129018000Y-115054000D03*
X129018000Y-114554000D03*
D36*
X129668000Y-113904000D03*
X130168000Y-113904000D03*
X130668000Y-113904000D03*
X131168000Y-113904000D03*
X131668000Y-113904000D03*
X132168000Y-113904000D03*
X132668000Y-113904000D03*
X133168000Y-113904000D03*
D35*
X133818000Y-114554000D03*
X133818000Y-115054000D03*
X133818000Y-115554000D03*
X133818000Y-116054000D03*
X133818000Y-116554000D03*
X133818000Y-117054000D03*
X133818000Y-117554000D03*
X133818000Y-118054000D03*
D36*
X133168000Y-118704000D03*
X132668000Y-118704000D03*
X132168000Y-118704000D03*
X131668000Y-118704000D03*
X131168000Y-118704000D03*
X130668000Y-118704000D03*
X130168000Y-118704000D03*
X129668000Y-118704000D03*
%TD*%
D11*
%TO.C,C60*%
X129660000Y-71500000D03*
X130620000Y-71500000D03*
%TD*%
D37*
%TO.C,C56*%
X125189999Y-57850000D03*
X123290001Y-57850000D03*
%TD*%
D10*
%TO.C,L4*%
X142325000Y-116560000D03*
X143295000Y-116560000D03*
%TD*%
D17*
%TO.C,C38*%
X129301000Y-112499000D03*
X128341000Y-112499000D03*
%TD*%
D38*
%TO.C,D3*%
X111225002Y-58800000D03*
X109650000Y-58800000D03*
%TD*%
D14*
%TO.C,C59*%
X133250000Y-63730000D03*
X133250000Y-62770000D03*
%TD*%
D26*
%TO.C,C33*%
X136210000Y-118710000D03*
X136210000Y-119670000D03*
%TD*%
D14*
%TO.C,C50*%
X156470000Y-117500000D03*
X156470000Y-116540000D03*
%TD*%
D18*
%TO.C,H1*%
X80000000Y-50000000D03*
%TD*%
D26*
%TO.C,C63*%
X119430000Y-63520000D03*
X119430000Y-64480000D03*
%TD*%
D39*
%TO.C,Y1*%
X115304000Y-118033000D03*
X117204000Y-118033000D03*
X117204000Y-116533000D03*
X115304000Y-116533000D03*
%TD*%
D11*
%TO.C,C49*%
X155170000Y-113580000D03*
X156130000Y-113580000D03*
%TD*%
D26*
%TO.C,C61*%
X121280000Y-66300000D03*
X121280000Y-67260000D03*
%TD*%
D40*
%TO.C,R4*%
X128335000Y-124940000D03*
X129985000Y-124940000D03*
%TD*%
D41*
%TO.C,U1*%
X96695000Y-73825000D03*
X96695000Y-72555000D03*
X96695000Y-71285000D03*
X96695000Y-70015000D03*
X91745000Y-70015000D03*
X91745000Y-71285000D03*
X91745000Y-72555000D03*
X91745000Y-73825000D03*
%TD*%
D13*
%TO.C,R21*%
X143930000Y-110190000D03*
X143930000Y-109170000D03*
%TD*%
D25*
%TO.C,C17*%
X103855000Y-98032000D03*
X103855000Y-99582000D03*
%TD*%
D11*
%TO.C,C21*%
X115520000Y-113440000D03*
X116480000Y-113440000D03*
%TD*%
D13*
%TO.C,R23*%
X150602000Y-113397000D03*
X150602000Y-112377000D03*
%TD*%
D27*
%TO.C,C3*%
X132676000Y-105134000D03*
X132676000Y-106684000D03*
%TD*%
D42*
%TO.C,SW1*%
X109000000Y-47750000D03*
X117000000Y-47750000D03*
X109000000Y-52250000D03*
X117000000Y-52250000D03*
%TD*%
D43*
%TO.C,R7*%
X135796000Y-108144000D03*
X135796000Y-109794000D03*
%TD*%
D11*
%TO.C,C18*%
X115511000Y-114455000D03*
X116471000Y-114455000D03*
%TD*%
%TO.C,C47*%
X155160000Y-110368000D03*
X156120000Y-110368000D03*
%TD*%
D21*
%TO.C,J10*%
X131310000Y-51230000D03*
D22*
X133850000Y-51230000D03*
X136389999Y-51230000D03*
X136390000Y-48690000D03*
X133850000Y-48690000D03*
X131310000Y-48690000D03*
%TD*%
D18*
%TO.C,H4*%
X164000000Y-134000000D03*
%TD*%
D26*
%TO.C,C31*%
X135200000Y-118710000D03*
X135200000Y-119670000D03*
%TD*%
D11*
%TO.C,C28*%
X132310000Y-111530000D03*
X133270000Y-111530000D03*
%TD*%
%TO.C,C26*%
X132180000Y-120740000D03*
X133140000Y-120740000D03*
%TD*%
D43*
%TO.C,R6*%
X134236000Y-109794000D03*
X134236000Y-108144000D03*
%TD*%
D32*
%TO.C,R1*%
X89560000Y-76490000D03*
X89560000Y-74840000D03*
%TD*%
D14*
%TO.C,C19*%
X136040000Y-113220000D03*
X136040000Y-112260000D03*
%TD*%
D38*
%TO.C,D4*%
X148134004Y-58195000D03*
X146559002Y-58195000D03*
%TD*%
D44*
%TO.C,J9*%
X168600000Y-120911500D03*
D45*
X168600000Y-116530000D03*
D44*
X168600000Y-112148500D03*
%TD*%
D11*
%TO.C,C48*%
X155150000Y-111470000D03*
X156110000Y-111470000D03*
%TD*%
D37*
%TO.C,C2*%
X109892499Y-70660000D03*
X107992501Y-70660000D03*
%TD*%
D22*
%TO.C,J2*%
X165240000Y-70950000D03*
X165240000Y-68410000D03*
X165240000Y-65870000D03*
X165240000Y-63330000D03*
X162700000Y-63330000D03*
X162700000Y-65870001D03*
X162700000Y-68410000D03*
D21*
X162700000Y-70950000D03*
%TD*%
D11*
%TO.C,C55*%
X160590000Y-116540000D03*
X161550000Y-116540000D03*
%TD*%
D26*
%TO.C,C41*%
X147330000Y-116520000D03*
X147330000Y-117480000D03*
%TD*%
D46*
%TO.C,U4*%
X123087500Y-63000000D03*
X123087500Y-63500000D03*
X123087500Y-64000000D03*
X123087500Y-64500001D03*
X123087500Y-65000000D03*
X123087500Y-65500000D03*
X123087500Y-66000000D03*
X123087500Y-66500000D03*
X123087500Y-66999999D03*
X123087500Y-67500000D03*
X123087500Y-68000000D03*
X123087500Y-68500000D03*
D47*
X124500000Y-69912500D03*
X125000000Y-69912500D03*
X125500000Y-69912500D03*
X126000001Y-69912500D03*
X126500000Y-69912500D03*
X127000000Y-69912500D03*
X127500000Y-69912500D03*
X128000000Y-69912500D03*
X128499999Y-69912500D03*
X129000000Y-69912500D03*
X129500000Y-69912500D03*
X130000000Y-69912500D03*
D46*
X131412500Y-68500000D03*
X131412500Y-68000000D03*
X131412500Y-67500000D03*
X131412500Y-66999999D03*
X131412500Y-66500000D03*
X131412500Y-66000000D03*
X131412500Y-65500000D03*
X131412500Y-65000000D03*
X131412500Y-64500001D03*
X131412500Y-64000000D03*
X131412500Y-63500000D03*
X131412500Y-63000000D03*
D47*
X130000000Y-61587500D03*
X129500000Y-61587500D03*
X129000000Y-61587500D03*
X128499999Y-61587500D03*
X128000000Y-61587500D03*
X127500000Y-61587500D03*
X127000000Y-61587500D03*
X126500000Y-61587500D03*
X126000001Y-61587500D03*
X125500000Y-61587500D03*
X125000000Y-61587500D03*
X124500000Y-61587500D03*
%TD*%
D14*
%TO.C,C22*%
X126750000Y-115800000D03*
X126750000Y-114840000D03*
%TD*%
D21*
%TO.C,J5*%
X80000000Y-94796000D03*
D22*
X80000000Y-97336000D03*
X80000000Y-99876000D03*
X80000000Y-102416000D03*
X80000000Y-104956000D03*
%TD*%
D27*
%TO.C,C6*%
X134236000Y-106684000D03*
X134236000Y-105134000D03*
%TD*%
D24*
%TO.C,C35*%
X119684000Y-116549000D03*
X121234000Y-116549000D03*
%TD*%
D21*
%TO.C,J6*%
X78725000Y-109375000D03*
D22*
X78725000Y-111915000D03*
X78725000Y-114454999D03*
X78725000Y-116995000D03*
X78725000Y-119535000D03*
X78725000Y-122075000D03*
X78725000Y-124615000D03*
X81265000Y-124615000D03*
X81265000Y-122075000D03*
X81265000Y-119535000D03*
X81265000Y-116995000D03*
X81265000Y-114455000D03*
X81265000Y-111915000D03*
X81265000Y-109375000D03*
%TD*%
D48*
%TO.C,C62*%
X122075000Y-70270000D03*
X120525000Y-70270000D03*
%TD*%
D25*
%TO.C,C11*%
X97894000Y-97994000D03*
X97894000Y-99544000D03*
%TD*%
D37*
%TO.C,C12*%
X109919000Y-74105000D03*
X108019000Y-74105000D03*
%TD*%
D14*
%TO.C,C40*%
X145394000Y-113355000D03*
X145394000Y-112395000D03*
%TD*%
D17*
%TO.C,C32*%
X129767000Y-110301000D03*
X128807000Y-110301000D03*
%TD*%
D12*
%TO.C,R20*%
X142328000Y-109174000D03*
X142328000Y-110194000D03*
%TD*%
D32*
%TO.C,R3*%
X131116000Y-109794000D03*
X131116000Y-108144000D03*
%TD*%
D11*
%TO.C,C29*%
X132180000Y-121760000D03*
X133140000Y-121760000D03*
%TD*%
D25*
%TO.C,C9*%
X103866000Y-103424002D03*
X103866000Y-104974002D03*
%TD*%
D11*
%TO.C,C44*%
X149640000Y-111420000D03*
X150600000Y-111420000D03*
%TD*%
D21*
%TO.C,J11*%
X154870000Y-49980000D03*
D22*
X152330000Y-49980000D03*
X149790001Y-49980000D03*
X147250000Y-49980000D03*
%TD*%
D21*
%TO.C,J8*%
X164000000Y-91550000D03*
D22*
X164000000Y-89010000D03*
%TD*%
D11*
%TO.C,C4*%
X139440000Y-116550000D03*
X138480000Y-116550000D03*
%TD*%
D14*
%TO.C,C27*%
X127680000Y-118770000D03*
X127680000Y-117810000D03*
%TD*%
D18*
%TO.C,H2*%
X164000000Y-50000000D03*
%TD*%
D49*
%TO.C,FB1*%
X118970000Y-70278499D03*
X118970000Y-71853501D03*
%TD*%
D26*
%TO.C,C57*%
X121410000Y-61480000D03*
X121410000Y-62440000D03*
%TD*%
D43*
%TO.C,R14*%
X112251000Y-118090000D03*
X112251000Y-116440000D03*
%TD*%
D50*
%TO.C,IC4*%
X148550000Y-115263000D03*
X148550000Y-115763000D03*
X148550000Y-116263000D03*
X148550000Y-116763000D03*
D51*
X149300000Y-117513000D03*
X149800000Y-117513000D03*
X150300000Y-117513000D03*
X150800000Y-117513000D03*
D50*
X151550000Y-116763000D03*
X151550000Y-116263000D03*
X151550000Y-115763000D03*
X151550000Y-115263000D03*
D51*
X150800000Y-114513000D03*
X150300000Y-114513000D03*
X149800000Y-114513000D03*
X149300000Y-114513000D03*
D21*
X150050000Y-116013000D03*
%TD*%
D14*
%TO.C,C30*%
X126670000Y-118770000D03*
X126670000Y-117810000D03*
%TD*%
%TO.C,C15*%
X135040000Y-113220000D03*
X135040000Y-112260000D03*
%TD*%
D29*
%TO.C,IC3*%
X99616000Y-98366000D03*
X99616000Y-99316000D03*
X99616000Y-100266000D03*
X102116000Y-100266000D03*
X102116000Y-98366000D03*
%TD*%
D32*
%TO.C,R27*%
X133850000Y-53925000D03*
X133850000Y-55575000D03*
%TD*%
D52*
%TO.C,R24*%
X153400000Y-109120000D03*
X152380000Y-109120000D03*
%TD*%
D17*
%TO.C,C34*%
X129755000Y-109327000D03*
X128795000Y-109327000D03*
%TD*%
D40*
%TO.C,R12*%
X113450000Y-85800000D03*
X111800000Y-85800000D03*
%TD*%
D53*
%TO.C,D2*%
X108791998Y-85800000D03*
X110367000Y-85800000D03*
%TD*%
D26*
%TO.C,C42*%
X146500000Y-111100000D03*
X146500000Y-112060000D03*
%TD*%
D48*
%TO.C,C64*%
X122070000Y-71850000D03*
X120520000Y-71850000D03*
%TD*%
D14*
%TO.C,C51*%
X157500000Y-117500000D03*
X157500000Y-116540000D03*
%TD*%
D43*
%TO.C,R28*%
X128010000Y-50985000D03*
X128010000Y-49335000D03*
%TD*%
D11*
%TO.C,C39*%
X145360000Y-116550000D03*
X146320000Y-116550000D03*
%TD*%
D14*
%TO.C,C52*%
X158540000Y-117500000D03*
X158540000Y-116540000D03*
%TD*%
D54*
%TO.C,U2*%
X106800000Y-68100000D03*
X109100000Y-68099999D03*
D55*
X109100000Y-61800001D03*
D54*
X111400000Y-68100000D03*
%TD*%
D14*
%TO.C,C53*%
X159580000Y-117500000D03*
X159580000Y-116540000D03*
%TD*%
%TO.C,C45*%
X152773000Y-117487000D03*
X152773000Y-116527000D03*
%TD*%
D16*
%TO.C,R25*%
X154130000Y-112517000D03*
X155150000Y-112517000D03*
%TD*%
D14*
%TO.C,C24*%
X125724306Y-115797892D03*
X125724306Y-114837892D03*
%TD*%
D56*
%TO.C,D1*%
X96430000Y-80770000D03*
X92030000Y-80770000D03*
%TD*%
D57*
%TO.C,C7*%
X103039000Y-80770000D03*
X103039000Y-78870000D03*
%TD*%
D21*
%TO.C,J7*%
X97430000Y-48690000D03*
D22*
X94890000Y-48690000D03*
X94890000Y-51230000D03*
X97430000Y-51230000D03*
%TD*%
D11*
%TO.C,C25*%
X132312000Y-112550000D03*
X133272000Y-112550000D03*
%TD*%
D43*
%TO.C,R5*%
X135796000Y-105084000D03*
X135796000Y-106734000D03*
%TD*%
D13*
%TO.C,R2*%
X136950000Y-115530000D03*
X136950000Y-116550000D03*
%TD*%
D40*
%TO.C,R15*%
X95155000Y-113190000D03*
X96805000Y-113190000D03*
%TD*%
%TO.C,R16*%
X95170000Y-126920000D03*
X96820000Y-126920000D03*
%TD*%
D15*
%TO.C,R17*%
X96820000Y-118280000D03*
X95170000Y-118280000D03*
%TD*%
%TO.C,R18*%
X96825000Y-120820000D03*
X95175000Y-120820000D03*
%TD*%
%TO.C,R19*%
X96815000Y-123330000D03*
X95165000Y-123330000D03*
%TD*%
M02*
