%TF.GenerationSoftware,KiCad,Pcbnew,8.0.2*%
%TF.CreationDate,2024-07-16T14:45:12-07:00*%
%TF.ProjectId,ptn,70746e2e-6b69-4636-9164-5f7063625858,1*%
%TF.SameCoordinates,Original*%
%TF.FileFunction,Copper,L1,Top*%
%TF.FilePolarity,Positive*%
%FSLAX46Y46*%
G04 Gerber Fmt 4.6, Leading zero omitted, Abs format (unit mm)*
G04 Created by KiCad (PCBNEW 8.0.2) date 2024-07-16 14:45:12*
%MOMM*%
%LPD*%
G01*
G04 APERTURE LIST*
G04 Aperture macros list*
%AMRoundRect*
0 Rectangle with rounded corners*
0 $1 Rounding radius*
0 $2 $3 $4 $5 $6 $7 $8 $9 X,Y pos of 4 corners*
0 Add a 4 corners polygon primitive as box body*
4,1,4,$2,$3,$4,$5,$6,$7,$8,$9,$2,$3,0*
0 Add four circle primitives for the rounded corners*
1,1,$1+$1,$2,$3*
1,1,$1+$1,$4,$5*
1,1,$1+$1,$6,$7*
1,1,$1+$1,$8,$9*
0 Add four rect primitives between the rounded corners*
20,1,$1+$1,$2,$3,$4,$5,0*
20,1,$1+$1,$4,$5,$6,$7,0*
20,1,$1+$1,$6,$7,$8,$9,0*
20,1,$1+$1,$8,$9,$2,$3,0*%
G04 Aperture macros list end*
%TA.AperFunction,SMDPad,CuDef*%
%ADD10RoundRect,0.147500X-0.147500X-0.172500X0.147500X-0.172500X0.147500X0.172500X-0.147500X0.172500X0*%
%TD*%
%TA.AperFunction,SMDPad,CuDef*%
%ADD11RoundRect,0.140000X-0.140000X-0.170000X0.140000X-0.170000X0.140000X0.170000X-0.140000X0.170000X0*%
%TD*%
%TA.AperFunction,SMDPad,CuDef*%
%ADD12RoundRect,0.135000X0.185000X-0.135000X0.185000X0.135000X-0.185000X0.135000X-0.185000X-0.135000X0*%
%TD*%
%TA.AperFunction,SMDPad,CuDef*%
%ADD13RoundRect,0.135000X-0.185000X0.135000X-0.185000X-0.135000X0.185000X-0.135000X0.185000X0.135000X0*%
%TD*%
%TA.AperFunction,SMDPad,CuDef*%
%ADD14RoundRect,0.140000X0.170000X-0.140000X0.170000X0.140000X-0.170000X0.140000X-0.170000X-0.140000X0*%
%TD*%
%TA.AperFunction,SMDPad,CuDef*%
%ADD15RoundRect,0.200000X0.200000X0.275000X-0.200000X0.275000X-0.200000X-0.275000X0.200000X-0.275000X0*%
%TD*%
%TA.AperFunction,SMDPad,CuDef*%
%ADD16RoundRect,0.135000X0.135000X0.185000X-0.135000X0.185000X-0.135000X-0.185000X0.135000X-0.185000X0*%
%TD*%
%TA.AperFunction,SMDPad,CuDef*%
%ADD17RoundRect,0.140000X0.140000X0.170000X-0.140000X0.170000X-0.140000X-0.170000X0.140000X-0.170000X0*%
%TD*%
%TA.AperFunction,ComponentPad*%
%ADD18C,8.600000*%
%TD*%
%TA.AperFunction,SMDPad,CuDef*%
%ADD19R,2.500000X1.500000*%
%TD*%
%TA.AperFunction,SMDPad,CuDef*%
%ADD20R,7.000000X7.000000*%
%TD*%
%TA.AperFunction,ComponentPad*%
%ADD21R,1.700000X1.700000*%
%TD*%
%TA.AperFunction,ComponentPad*%
%ADD22O,1.700000X1.700000*%
%TD*%
%TA.AperFunction,SMDPad,CuDef*%
%ADD23RoundRect,0.218750X0.256250X-0.218750X0.256250X0.218750X-0.256250X0.218750X-0.256250X-0.218750X0*%
%TD*%
%TA.AperFunction,SMDPad,CuDef*%
%ADD24RoundRect,0.225000X-0.225000X-0.250000X0.225000X-0.250000X0.225000X0.250000X-0.225000X0.250000X0*%
%TD*%
%TA.AperFunction,SMDPad,CuDef*%
%ADD25RoundRect,0.225000X-0.250000X0.225000X-0.250000X-0.225000X0.250000X-0.225000X0.250000X0.225000X0*%
%TD*%
%TA.AperFunction,SMDPad,CuDef*%
%ADD26RoundRect,0.140000X-0.170000X0.140000X-0.170000X-0.140000X0.170000X-0.140000X0.170000X0.140000X0*%
%TD*%
%TA.AperFunction,SMDPad,CuDef*%
%ADD27RoundRect,0.225000X0.250000X-0.225000X0.250000X0.225000X-0.250000X0.225000X-0.250000X-0.225000X0*%
%TD*%
%TA.AperFunction,SMDPad,CuDef*%
%ADD28RoundRect,0.147500X-0.172500X0.147500X-0.172500X-0.147500X0.172500X-0.147500X0.172500X0.147500X0*%
%TD*%
%TA.AperFunction,SMDPad,CuDef*%
%ADD29R,1.250000X0.600000*%
%TD*%
%TA.AperFunction,SMDPad,CuDef*%
%ADD30R,0.775000X0.875000*%
%TD*%
%TA.AperFunction,ComponentPad*%
%ADD31C,1.950000*%
%TD*%
%TA.AperFunction,SMDPad,CuDef*%
%ADD32RoundRect,0.200000X0.275000X-0.200000X0.275000X0.200000X-0.275000X0.200000X-0.275000X-0.200000X0*%
%TD*%
%TA.AperFunction,SMDPad,CuDef*%
%ADD33RoundRect,0.250000X-0.475000X0.250000X-0.475000X-0.250000X0.475000X-0.250000X0.475000X0.250000X0*%
%TD*%
%TA.AperFunction,SMDPad,CuDef*%
%ADD34R,3.250000X3.250000*%
%TD*%
%TA.AperFunction,SMDPad,CuDef*%
%ADD35R,0.800000X0.300000*%
%TD*%
%TA.AperFunction,SMDPad,CuDef*%
%ADD36R,0.300000X0.800000*%
%TD*%
%TA.AperFunction,SMDPad,CuDef*%
%ADD37RoundRect,0.250000X0.250000X0.475000X-0.250000X0.475000X-0.250000X-0.475000X0.250000X-0.475000X0*%
%TD*%
%TA.AperFunction,SMDPad,CuDef*%
%ADD38RoundRect,0.218750X0.218750X0.256250X-0.218750X0.256250X-0.218750X-0.256250X0.218750X-0.256250X0*%
%TD*%
%TA.AperFunction,SMDPad,CuDef*%
%ADD39R,1.100000X1.000000*%
%TD*%
%TA.AperFunction,SMDPad,CuDef*%
%ADD40RoundRect,0.200000X-0.200000X-0.275000X0.200000X-0.275000X0.200000X0.275000X-0.200000X0.275000X0*%
%TD*%
%TA.AperFunction,SMDPad,CuDef*%
%ADD41RoundRect,0.150000X0.825000X0.150000X-0.825000X0.150000X-0.825000X-0.150000X0.825000X-0.150000X0*%
%TD*%
%TA.AperFunction,SMDPad,CuDef*%
%ADD42R,1.600000X1.400000*%
%TD*%
%TA.AperFunction,SMDPad,CuDef*%
%ADD43RoundRect,0.200000X-0.275000X0.200000X-0.275000X-0.200000X0.275000X-0.200000X0.275000X0.200000X0*%
%TD*%
%TA.AperFunction,SMDPad,CuDef*%
%ADD44R,5.080000X2.413000*%
%TD*%
%TA.AperFunction,SMDPad,CuDef*%
%ADD45R,5.080000X2.286000*%
%TD*%
%TA.AperFunction,SMDPad,CuDef*%
%ADD46RoundRect,0.075000X-0.662500X-0.075000X0.662500X-0.075000X0.662500X0.075000X-0.662500X0.075000X0*%
%TD*%
%TA.AperFunction,SMDPad,CuDef*%
%ADD47RoundRect,0.075000X-0.075000X-0.662500X0.075000X-0.662500X0.075000X0.662500X-0.075000X0.662500X0*%
%TD*%
%TA.AperFunction,SMDPad,CuDef*%
%ADD48RoundRect,0.225000X0.225000X0.250000X-0.225000X0.250000X-0.225000X-0.250000X0.225000X-0.250000X0*%
%TD*%
%TA.AperFunction,SMDPad,CuDef*%
%ADD49RoundRect,0.218750X-0.256250X0.218750X-0.256250X-0.218750X0.256250X-0.218750X0.256250X0.218750X0*%
%TD*%
%TA.AperFunction,SMDPad,CuDef*%
%ADD50R,0.750000X0.300000*%
%TD*%
%TA.AperFunction,SMDPad,CuDef*%
%ADD51R,0.300000X0.750000*%
%TD*%
%TA.AperFunction,SMDPad,CuDef*%
%ADD52R,1.700000X1.700000*%
%TD*%
%TA.AperFunction,SMDPad,CuDef*%
%ADD53RoundRect,0.135000X-0.135000X-0.185000X0.135000X-0.185000X0.135000X0.185000X-0.135000X0.185000X0*%
%TD*%
%TA.AperFunction,SMDPad,CuDef*%
%ADD54RoundRect,0.218750X-0.218750X-0.256250X0.218750X-0.256250X0.218750X0.256250X-0.218750X0.256250X0*%
%TD*%
%TA.AperFunction,SMDPad,CuDef*%
%ADD55RoundRect,0.375000X0.375000X-0.625000X0.375000X0.625000X-0.375000X0.625000X-0.375000X-0.625000X0*%
%TD*%
%TA.AperFunction,SMDPad,CuDef*%
%ADD56RoundRect,0.500000X1.400000X-0.500000X1.400000X0.500000X-1.400000X0.500000X-1.400000X-0.500000X0*%
%TD*%
%TA.AperFunction,SMDPad,CuDef*%
%ADD57R,1.400000X2.000000*%
%TD*%
%TA.AperFunction,SMDPad,CuDef*%
%ADD58RoundRect,0.250000X0.475000X-0.250000X0.475000X0.250000X-0.475000X0.250000X-0.475000X-0.250000X0*%
%TD*%
%TA.AperFunction,ViaPad*%
%ADD59C,0.700000*%
%TD*%
%TA.AperFunction,ViaPad*%
%ADD60C,0.900000*%
%TD*%
%TA.AperFunction,ViaPad*%
%ADD61C,1.400000*%
%TD*%
%TA.AperFunction,ViaPad*%
%ADD62C,0.600000*%
%TD*%
%TA.AperFunction,Conductor*%
%ADD63C,0.900000*%
%TD*%
%TA.AperFunction,Conductor*%
%ADD64C,0.300000*%
%TD*%
%TA.AperFunction,Conductor*%
%ADD65C,0.500000*%
%TD*%
%TA.AperFunction,Conductor*%
%ADD66C,1.000000*%
%TD*%
%TA.AperFunction,Conductor*%
%ADD67C,0.200000*%
%TD*%
%TA.AperFunction,Conductor*%
%ADD68C,0.400000*%
%TD*%
G04 APERTURE END LIST*
D10*
%TO.P,L2,1,1*%
%TO.N,Net-(C4-Pad2)*%
X140390000Y-116550000D03*
%TO.P,L2,2,2*%
%TO.N,GRF5509_RFIN*%
X141360000Y-116550000D03*
%TD*%
D11*
%TO.P,C23,2*%
%TO.N,GND*%
X140370000Y-111830000D03*
%TO.P,C23,1*%
%TO.N,+3.3VA_VOUT*%
X139410000Y-111830000D03*
%TD*%
%TO.P,C20,2*%
%TO.N,GND*%
X140370000Y-110840000D03*
%TO.P,C20,1*%
%TO.N,+3.3VA_VOUT*%
X139410000Y-110840000D03*
%TD*%
%TO.P,C16,2*%
%TO.N,GND*%
X140370000Y-109850000D03*
%TO.P,C16,1*%
%TO.N,+3.3VA_VOUT*%
X139410000Y-109850000D03*
%TD*%
D12*
%TO.P,R11,2*%
%TO.N,GND*%
X137140000Y-112400001D03*
%TO.P,R11,1*%
%TO.N,Net-(C13-Pad2)*%
X137140000Y-113419999D03*
%TD*%
D13*
%TO.P,R10,1*%
%TO.N,+3.3VA_VOUT*%
X135990000Y-114420000D03*
%TO.P,R10,2*%
%TO.N,ADF4351_RFOUTA-*%
X135990000Y-115439998D03*
%TD*%
D14*
%TO.P,C13,2*%
%TO.N,Net-(C13-Pad2)*%
X134990000Y-114469998D03*
%TO.P,C13,1*%
%TO.N,ADF4351_RFOUTA-*%
X134990000Y-115429998D03*
%TD*%
D15*
%TO.P,R26,2*%
%TO.N,/STM32_USER_LED*%
X143280000Y-58200000D03*
%TO.P,R26,1*%
%TO.N,Net-(D4-A)*%
X144930000Y-58200000D03*
%TD*%
D16*
%TO.P,R22,2*%
%TO.N,Net-(IC4-GND{slash}NC_8)*%
X148620000Y-110364000D03*
%TO.P,R22,1*%
%TO.N,GND*%
X149640000Y-110364000D03*
%TD*%
D17*
%TO.P,C37,1*%
%TO.N,ADF4351_VREF*%
X129300000Y-111510000D03*
%TO.P,C37,2*%
%TO.N,GND*%
X128340000Y-111510000D03*
%TD*%
D18*
%TO.P,H3,1,1*%
%TO.N,GND*%
X80000000Y-134000000D03*
%TD*%
D19*
%TO.P,IC2,1,GND*%
%TO.N,GND*%
X106490000Y-77570000D03*
D20*
%TO.P,IC2,2,OUTPUT*%
%TO.N,+5V*%
X113340000Y-79870000D03*
D19*
%TO.P,IC2,3,INPUT*%
%TO.N,+12V*%
X106490000Y-82170000D03*
%TD*%
D11*
%TO.P,C43,1*%
%TO.N,Net-(IC4-GND{slash}NC_8)*%
X148640000Y-112430000D03*
%TO.P,C43,2*%
%TO.N,GND*%
X149600000Y-112430000D03*
%TD*%
D21*
%TO.P,J4,1,Pin_1*%
%TO.N,STM32_ADC1_IN0*%
X164000000Y-81460000D03*
D22*
%TO.P,J4,2,Pin_2*%
%TO.N,GND*%
X164000000Y-84000000D03*
%TD*%
D15*
%TO.P,R13,2*%
%TO.N,+3.3V*%
X106550000Y-58800000D03*
%TO.P,R13,1*%
%TO.N,Net-(D3-A)*%
X108200000Y-58800000D03*
%TD*%
D14*
%TO.P,C46,1*%
%TO.N,GND*%
X153830000Y-117490000D03*
%TO.P,C46,2*%
%TO.N,Net-(IC4-RF_OUT{slash}VCC2_1)*%
X153830000Y-116530000D03*
%TD*%
D23*
%TO.P,L6,1,1*%
%TO.N,Net-(IC4-RF_OUT{slash}VCC2_1)*%
X155150000Y-116537500D03*
%TO.P,L6,2,2*%
%TO.N,+5V*%
X155150000Y-114962500D03*
%TD*%
D24*
%TO.P,C36,1*%
%TO.N,Net-(C35-Pad2)*%
X122700000Y-116550000D03*
%TO.P,C36,2*%
%TO.N,ADF4351_REFIN*%
X124250000Y-116550000D03*
%TD*%
D25*
%TO.P,C1,1*%
%TO.N,+5V*%
X97866000Y-103495001D03*
%TO.P,C1,2*%
%TO.N,GND*%
X97866000Y-105045001D03*
%TD*%
D26*
%TO.P,C65,1*%
%TO.N,GND*%
X119443000Y-65425000D03*
%TO.P,C65,2*%
%TO.N,STM32_HSE_OUT*%
X119443000Y-66385000D03*
%TD*%
D27*
%TO.P,C8,1*%
%TO.N,ADF4351_VTUNE*%
X132676000Y-109744000D03*
%TO.P,C8,2*%
%TO.N,GND*%
X132676000Y-108194000D03*
%TD*%
D21*
%TO.P,J3,1,Pin_1*%
%TO.N,NRF24L01P_IRQ*%
X151345000Y-60800000D03*
D22*
%TO.P,J3,2,Pin_2*%
%TO.N,STM32_NRF_CE*%
X151345000Y-63340000D03*
%TO.P,J3,3,Pin_3*%
%TO.N,STM32_SPI2_MOSI*%
X151345000Y-65879999D03*
%TO.P,J3,4,Pin_4*%
%TO.N,STM32_SPI2_MISO*%
X151345000Y-68420000D03*
%TO.P,J3,5,Pin_5*%
%TO.N,STM32_SPI2_SCK*%
X151345000Y-70960000D03*
%TO.P,J3,6,Pin_6*%
%TO.N,STM32_SPI2_SSN*%
X151345000Y-73500000D03*
%TO.P,J3,7,Pin_7*%
%TO.N,NRF24L01P_SSN*%
X153885000Y-73500000D03*
%TO.P,J3,8,Pin_8*%
%TO.N,NRF24L01P_SCK*%
X153885000Y-70960000D03*
%TO.P,J3,9,Pin_9*%
%TO.N,NRF24L01P_MISO*%
X153885000Y-68420000D03*
%TO.P,J3,10,Pin_10*%
%TO.N,NRF24L01P_MOSI*%
X153885000Y-65880000D03*
%TO.P,J3,11,Pin_11*%
%TO.N,NRF24L01P_CE*%
X153885000Y-63340000D03*
%TO.P,J3,12,Pin_12*%
%TO.N,NRF24L01P_IRQ*%
X153885000Y-60800000D03*
%TD*%
D11*
%TO.P,C54,1*%
%TO.N,GND*%
X116030000Y-56970000D03*
%TO.P,C54,2*%
%TO.N,STM32_NRST*%
X116990000Y-56970000D03*
%TD*%
D17*
%TO.P,C58,1*%
%TO.N,GND*%
X124750000Y-59750000D03*
%TO.P,C58,2*%
%TO.N,+3.3V*%
X123790000Y-59750000D03*
%TD*%
D28*
%TO.P,L5,1,1*%
%TO.N,Net-(C39-Pad1)*%
X144340000Y-116535000D03*
%TO.P,L5,2,2*%
%TO.N,GND*%
X144340000Y-117505000D03*
%TD*%
D29*
%TO.P,IC1,1,VIN*%
%TO.N,+5V*%
X99600000Y-103790000D03*
%TO.P,IC1,2,GND*%
%TO.N,GND*%
X99600001Y-104740000D03*
%TO.P,IC1,3,EN*%
%TO.N,+5V*%
X99600000Y-105690000D03*
%TO.P,IC1,4,NC*%
%TO.N,unconnected-(IC1-NC-Pad4)*%
X102100000Y-105690000D03*
%TO.P,IC1,5,VOUT*%
%TO.N,+3.3VA*%
X102100000Y-103790000D03*
%TD*%
D30*
%TO.P,Y2,1,1*%
%TO.N,STM32_HSE_IN*%
X116291000Y-64109000D03*
%TO.P,Y2,2,2*%
%TO.N,GND*%
X116291000Y-65383000D03*
%TO.P,Y2,3,3*%
%TO.N,STM32_HSE_OUT*%
X117265000Y-65383000D03*
%TO.P,Y2,4,4*%
%TO.N,GND*%
X117265000Y-64109000D03*
%TD*%
D31*
%TO.P,J1,1,1*%
%TO.N,CANL*%
X79990000Y-69590000D03*
%TO.P,J1,2,2*%
%TO.N,CANH*%
X79990000Y-74590000D03*
%TO.P,J1,3,3*%
%TO.N,/12V_IN*%
X79990000Y-79590000D03*
%TO.P,J1,4,4*%
%TO.N,GND*%
X79990000Y-84590000D03*
%TD*%
D32*
%TO.P,R9,2*%
%TO.N,CANL*%
X89545000Y-71190000D03*
%TO.P,R9,1*%
%TO.N,CANH*%
X89545000Y-72840000D03*
%TD*%
D33*
%TO.P,C10,1*%
%TO.N,+3.3V*%
X104265499Y-64220001D03*
%TO.P,C10,2*%
%TO.N,GND*%
X104265499Y-66119999D03*
%TD*%
D34*
%TO.P,U3,33,EP*%
%TO.N,GND*%
X131418000Y-116304000D03*
D35*
%TO.P,U3,32,SDVDD*%
%TO.N,+3.3VA*%
X129018000Y-118054000D03*
%TO.P,U3,31,SDGND*%
%TO.N,GND*%
X129018000Y-117554000D03*
%TO.P,U3,30,MUXOUT*%
%TO.N,ADF4351_MUXOUT*%
X129018000Y-117054000D03*
%TO.P,U3,29,REFIN*%
%TO.N,ADF4351_REFIN*%
X129018000Y-116554000D03*
%TO.P,U3,28,DVDD*%
%TO.N,+3.3VA*%
X129018000Y-116054000D03*
%TO.P,U3,27,DGND*%
%TO.N,GND*%
X129018000Y-115554000D03*
%TO.P,U3,26,PDB_RF*%
%TO.N,ADF4351_PDBRF*%
X129018000Y-115054000D03*
%TO.P,U3,25,LD*%
%TO.N,ADF4351_LD*%
X129018000Y-114554000D03*
D36*
%TO.P,U3,24,VREF*%
%TO.N,ADF4351_VREF*%
X129668000Y-113904000D03*
%TO.P,U3,23,VCOM*%
%TO.N,ADF4351_VCOM*%
X130168000Y-113904000D03*
%TO.P,U3,22,RSET*%
%TO.N,Net-(U3-RSET)*%
X130668000Y-113904000D03*
%TO.P,U3,21,AGNDVCO*%
%TO.N,GND*%
X131168000Y-113904000D03*
%TO.P,U3,20,VTUNE*%
%TO.N,ADF4351_VTUNE*%
X131668000Y-113904000D03*
%TO.P,U3,19,TEMP*%
%TO.N,ADF4351_TEMP*%
X132168000Y-113904000D03*
%TO.P,U3,18,AGNDVCO*%
%TO.N,GND*%
X132668000Y-113904000D03*
%TO.P,U3,17,VVCO*%
%TO.N,+3.3VA*%
X133168000Y-113904000D03*
D35*
%TO.P,U3,16,VVCO*%
X133818000Y-114554000D03*
%TO.P,U3,15,RF_OUT_B-*%
%TO.N,unconnected-(U3-RF_OUT_B--Pad15)*%
X133818000Y-115054000D03*
%TO.P,U3,14,RF_OUT_B+*%
%TO.N,unconnected-(U3-RF_OUT_B+-Pad14)*%
X133818000Y-115554000D03*
%TO.P,U3,13,RF_OUT_A-*%
%TO.N,ADF4351_RFOUTA-*%
X133818000Y-116054000D03*
%TO.P,U3,12,RF_OUT_A+*%
%TO.N,ADF4351_RFOUTA+*%
X133818000Y-116554000D03*
%TO.P,U3,11,AGNDVCO*%
%TO.N,GND*%
X133818000Y-117054000D03*
%TO.P,U3,10,AVDD*%
%TO.N,+3.3VA*%
X133818000Y-117554000D03*
%TO.P,U3,9,AGND*%
%TO.N,GND*%
X133818000Y-118054000D03*
D36*
%TO.P,U3,8,CPGND*%
X133168000Y-118704000D03*
%TO.P,U3,7,CPout*%
%TO.N,ADF4351_CPOUT*%
X132668000Y-118704000D03*
%TO.P,U3,6,Vp*%
%TO.N,+3.3VA*%
X132168000Y-118704000D03*
%TO.P,U3,5,SW*%
%TO.N,ADF4351_SW*%
X131668000Y-118704000D03*
%TO.P,U3,4,CE*%
%TO.N,ADF4351_CE*%
X131168000Y-118704000D03*
%TO.P,U3,3,LE*%
%TO.N,ADF4351_SSN*%
X130668000Y-118704000D03*
%TO.P,U3,2,DATA*%
%TO.N,ADF4351_MOSI*%
X130168000Y-118704000D03*
%TO.P,U3,1,CLK*%
%TO.N,ADF4351_SCK*%
X129668000Y-118704000D03*
%TD*%
D11*
%TO.P,C60,1*%
%TO.N,GND*%
X129660000Y-71500000D03*
%TO.P,C60,2*%
%TO.N,+3.3V*%
X130620000Y-71500000D03*
%TD*%
D37*
%TO.P,C56,1*%
%TO.N,GND*%
X125189999Y-57850000D03*
%TO.P,C56,2*%
%TO.N,+3.3V*%
X123290001Y-57850000D03*
%TD*%
D10*
%TO.P,L4,1,1*%
%TO.N,GRF5509_RFIN*%
X142325000Y-116560000D03*
%TO.P,L4,2,2*%
%TO.N,Net-(C39-Pad1)*%
X143295000Y-116560000D03*
%TD*%
D17*
%TO.P,C38,1*%
%TO.N,ADF4351_VREF*%
X129301000Y-112499000D03*
%TO.P,C38,2*%
%TO.N,GND*%
X128341000Y-112499000D03*
%TD*%
D38*
%TO.P,D3,1,K*%
%TO.N,GND*%
X111225002Y-58800000D03*
%TO.P,D3,2,A*%
%TO.N,Net-(D3-A)*%
X109650000Y-58800000D03*
%TD*%
D14*
%TO.P,C59,1*%
%TO.N,GND*%
X133250000Y-63730000D03*
%TO.P,C59,2*%
%TO.N,+3.3V*%
X133250000Y-62770000D03*
%TD*%
D26*
%TO.P,C33,1*%
%TO.N,+3.3VA*%
X136210000Y-118710000D03*
%TO.P,C33,2*%
%TO.N,GND*%
X136210000Y-119670000D03*
%TD*%
D14*
%TO.P,C50,1*%
%TO.N,GND*%
X156470000Y-117500000D03*
%TO.P,C50,2*%
%TO.N,Net-(IC4-RF_OUT{slash}VCC2_1)*%
X156470000Y-116540000D03*
%TD*%
D18*
%TO.P,H1,1,1*%
%TO.N,GND*%
X80000000Y-50000000D03*
%TD*%
D26*
%TO.P,C63,1*%
%TO.N,GND*%
X119430000Y-63520000D03*
%TO.P,C63,2*%
%TO.N,STM32_HSE_IN*%
X119430000Y-64480000D03*
%TD*%
D39*
%TO.P,Y1,1,OE*%
%TO.N,Net-(Y1-OE)*%
X115304000Y-118033000D03*
%TO.P,Y1,2,GND*%
%TO.N,GND*%
X117204000Y-118033000D03*
%TO.P,Y1,3,OUT*%
%TO.N,Net-(Y1-OUT)*%
X117204000Y-116533000D03*
%TO.P,Y1,4,VDD*%
%TO.N,+3.3VA*%
X115304000Y-116533000D03*
%TD*%
D11*
%TO.P,C49,1*%
%TO.N,+5V*%
X155170000Y-113580000D03*
%TO.P,C49,2*%
%TO.N,GND*%
X156130000Y-113580000D03*
%TD*%
D26*
%TO.P,C61,1*%
%TO.N,GND*%
X121280000Y-66300000D03*
%TO.P,C61,2*%
%TO.N,VDDA*%
X121280000Y-67260000D03*
%TD*%
D40*
%TO.P,R4,1*%
%TO.N,ADF4351_SW*%
X128335000Y-124940000D03*
%TO.P,R4,2*%
%TO.N,Net-(R4-Pad2)*%
X129985000Y-124940000D03*
%TD*%
D41*
%TO.P,U1,1,TXD*%
%TO.N,MCP2551_CANTX*%
X96695000Y-73825000D03*
%TO.P,U1,2,VSS*%
%TO.N,GND*%
X96695000Y-72555000D03*
%TO.P,U1,3,VDD*%
%TO.N,+5V*%
X96695000Y-71285000D03*
%TO.P,U1,4,RXD*%
%TO.N,MCP2551_CANRX*%
X96695000Y-70015000D03*
%TO.P,U1,5,Vref*%
%TO.N,unconnected-(U1-Vref-Pad5)*%
X91745000Y-70015000D03*
%TO.P,U1,6,CANL*%
%TO.N,CANL*%
X91745000Y-71285000D03*
%TO.P,U1,7,CANH*%
%TO.N,CANH*%
X91745000Y-72555000D03*
%TO.P,U1,8,Rs*%
%TO.N,Net-(U1-Rs)*%
X91745000Y-73825000D03*
%TD*%
D13*
%TO.P,R21,2*%
%TO.N,/GRF5509_VEN2*%
X143930000Y-110190000D03*
%TO.P,R21,1*%
%TO.N,+5V*%
X143930000Y-109170000D03*
%TD*%
D25*
%TO.P,C17,1*%
%TO.N,+3.3VA_VOUT*%
X103855000Y-98032000D03*
%TO.P,C17,2*%
%TO.N,GND*%
X103855000Y-99582000D03*
%TD*%
D11*
%TO.P,C21,1*%
%TO.N,+3.3VA*%
X115520000Y-113440000D03*
%TO.P,C21,2*%
%TO.N,GND*%
X116480000Y-113440000D03*
%TD*%
D13*
%TO.P,R23,2*%
%TO.N,Net-(IC4-VCC1)*%
X150602000Y-113397000D03*
%TO.P,R23,1*%
%TO.N,+5V*%
X150602000Y-112377000D03*
%TD*%
D27*
%TO.P,C3,2*%
%TO.N,GND*%
X132676000Y-105134000D03*
%TO.P,C3,1*%
%TO.N,ADF4351_CPOUT*%
X132676000Y-106684000D03*
%TD*%
D42*
%TO.P,SW1,1,1*%
%TO.N,GND*%
X109000000Y-47750000D03*
X117000000Y-47750000D03*
%TO.P,SW1,2,2*%
%TO.N,STM32_NRST*%
X109000000Y-52250000D03*
X117000000Y-52250000D03*
%TD*%
D43*
%TO.P,R7,1*%
%TO.N,Net-(R4-Pad2)*%
X135796000Y-108144000D03*
%TO.P,R7,2*%
%TO.N,GND*%
X135796000Y-109794000D03*
%TD*%
D11*
%TO.P,C18,1*%
%TO.N,+3.3VA*%
X115511000Y-114455000D03*
%TO.P,C18,2*%
%TO.N,GND*%
X116471000Y-114455000D03*
%TD*%
%TO.P,C47,1*%
%TO.N,+5V*%
X155160000Y-110368000D03*
%TO.P,C47,2*%
%TO.N,GND*%
X156120000Y-110368000D03*
%TD*%
D21*
%TO.P,J10,1,Pin_1*%
%TO.N,+3.3V*%
X131310000Y-51230000D03*
D22*
%TO.P,J10,2,Pin_2*%
%TO.N,Net-(J10-Pin_2)*%
X133850000Y-51230000D03*
%TO.P,J10,3,Pin_3*%
%TO.N,GND*%
X136389999Y-51230000D03*
%TO.P,J10,4,Pin_4*%
X136390000Y-48690000D03*
%TO.P,J10,5,Pin_5*%
%TO.N,Net-(J10-Pin_5)*%
X133850000Y-48690000D03*
%TO.P,J10,6,Pin_6*%
%TO.N,+3.3V*%
X131310000Y-48690000D03*
%TD*%
D18*
%TO.P,H4,1,1*%
%TO.N,GND*%
X164000000Y-134000000D03*
%TD*%
D26*
%TO.P,C31,1*%
%TO.N,+3.3VA*%
X135200000Y-118710000D03*
%TO.P,C31,2*%
%TO.N,GND*%
X135200000Y-119670000D03*
%TD*%
D11*
%TO.P,C28,1*%
%TO.N,ADF4351_TEMP*%
X132310000Y-111530000D03*
%TO.P,C28,2*%
%TO.N,GND*%
X133270000Y-111530000D03*
%TD*%
%TO.P,C26,1*%
%TO.N,+3.3VA*%
X132180000Y-120740000D03*
%TO.P,C26,2*%
%TO.N,GND*%
X133140000Y-120740000D03*
%TD*%
D43*
%TO.P,R6,2*%
%TO.N,ADF4351_VTUNE*%
X134236000Y-109794000D03*
%TO.P,R6,1*%
%TO.N,ADF4351_CPOUT*%
X134236000Y-108144000D03*
%TD*%
D32*
%TO.P,R1,1*%
%TO.N,GND*%
X89560000Y-76490000D03*
%TO.P,R1,2*%
%TO.N,Net-(U1-Rs)*%
X89560000Y-74840000D03*
%TD*%
D14*
%TO.P,C19,1*%
%TO.N,+3.3VA*%
X136040000Y-113220000D03*
%TO.P,C19,2*%
%TO.N,GND*%
X136040000Y-112260000D03*
%TD*%
D38*
%TO.P,D4,1,K*%
%TO.N,GND*%
X148134004Y-58195000D03*
%TO.P,D4,2,A*%
%TO.N,Net-(D4-A)*%
X146559002Y-58195000D03*
%TD*%
D44*
%TO.P,J9,1,1*%
%TO.N,GND*%
X168600000Y-120911500D03*
D45*
%TO.P,J9,2,2*%
%TO.N,/GRF5509_RFOUT*%
X168600000Y-116530000D03*
D44*
%TO.P,J9,3,3*%
%TO.N,GND*%
X168600000Y-112148500D03*
%TD*%
D11*
%TO.P,C48,1*%
%TO.N,+5V*%
X155150000Y-111470000D03*
%TO.P,C48,2*%
%TO.N,GND*%
X156110000Y-111470000D03*
%TD*%
D37*
%TO.P,C2,1*%
%TO.N,+5V*%
X109892499Y-70660000D03*
%TO.P,C2,2*%
%TO.N,GND*%
X107992501Y-70660000D03*
%TD*%
D22*
%TO.P,J2,1,Pin_1*%
%TO.N,NRF24L01P_IRQ*%
X165240000Y-70950000D03*
%TO.P,J2,2,Pin_2*%
%TO.N,NRF24L01P_MOSI*%
X165240000Y-68410000D03*
%TO.P,J2,3,Pin_3*%
%TO.N,NRF24L01P_SSN*%
X165240000Y-65870000D03*
%TO.P,J2,4,Pin_4*%
%TO.N,+3.3V*%
X165240000Y-63330000D03*
%TO.P,J2,5,Pin_5*%
%TO.N,GND*%
X162700000Y-63330000D03*
%TO.P,J2,6,Pin_6*%
%TO.N,NRF24L01P_CE*%
X162700000Y-65870001D03*
%TO.P,J2,7,Pin_7*%
%TO.N,NRF24L01P_SCK*%
X162700000Y-68410000D03*
D21*
%TO.P,J2,8,Pin_8*%
%TO.N,NRF24L01P_MISO*%
X162700000Y-70950000D03*
%TD*%
D11*
%TO.P,C55,1*%
%TO.N,Net-(IC4-RF_OUT{slash}VCC2_1)*%
X160590000Y-116540000D03*
%TO.P,C55,2*%
%TO.N,/GRF5509_RFOUT*%
X161550000Y-116540000D03*
%TD*%
D26*
%TO.P,C41,1*%
%TO.N,Net-(IC4-RF_IN_1)*%
X147330000Y-116520000D03*
%TO.P,C41,2*%
%TO.N,GND*%
X147330000Y-117480000D03*
%TD*%
D46*
%TO.P,U4,1,VBAT*%
%TO.N,+3.3V*%
X123087500Y-63000000D03*
%TO.P,U4,2,PC13*%
%TO.N,unconnected-(U4-PC13-Pad2)*%
X123087500Y-63500000D03*
%TO.P,U4,3,PC14*%
%TO.N,unconnected-(U4-PC14-Pad3)*%
X123087500Y-64000000D03*
%TO.P,U4,4,PC15*%
%TO.N,unconnected-(U4-PC15-Pad4)*%
X123087500Y-64500001D03*
%TO.P,U4,5,PD0*%
%TO.N,STM32_HSE_IN*%
X123087500Y-65000000D03*
%TO.P,U4,6,PD1*%
%TO.N,STM32_HSE_OUT*%
X123087500Y-65500000D03*
%TO.P,U4,7,NRST*%
%TO.N,STM32_NRST*%
X123087500Y-66000000D03*
%TO.P,U4,8,VSSA*%
%TO.N,GND*%
X123087500Y-66500000D03*
%TO.P,U4,9,VDDA*%
%TO.N,VDDA*%
X123087500Y-66999999D03*
%TO.P,U4,10,PA0*%
%TO.N,STM32_ADC1_IN0*%
X123087500Y-67500000D03*
%TO.P,U4,11,PA1*%
%TO.N,unconnected-(U4-PA1-Pad11)*%
X123087500Y-68000000D03*
%TO.P,U4,12,PA2*%
%TO.N,STM32_ADF_MUXOUT*%
X123087500Y-68500000D03*
D47*
%TO.P,U4,13,PA3*%
%TO.N,STM32_ADF_CE*%
X124500000Y-69912500D03*
%TO.P,U4,14,PA4*%
%TO.N,STM32_SPI1_SSN*%
X125000000Y-69912500D03*
%TO.P,U4,15,PA5*%
%TO.N,STM32_SPI1_SCK*%
X125500000Y-69912500D03*
%TO.P,U4,16,PA6*%
%TO.N,/STM32_SPI1_MISO*%
X126000001Y-69912500D03*
%TO.P,U4,17,PA7*%
%TO.N,STM32_SPI1_MOSI*%
X126500000Y-69912500D03*
%TO.P,U4,18,PB0*%
%TO.N,STM32_ADF_PDBRF*%
X127000000Y-69912500D03*
%TO.P,U4,19,PB1*%
%TO.N,STM32_ADF_LD*%
X127500000Y-69912500D03*
%TO.P,U4,20,PB2*%
%TO.N,STM32_BOOT1*%
X128000000Y-69912500D03*
%TO.P,U4,21,PB10*%
%TO.N,STM32_USART3_TX*%
X128499999Y-69912500D03*
%TO.P,U4,22,PB11*%
%TO.N,STM32_USART3_RX*%
X129000000Y-69912500D03*
%TO.P,U4,23,VSS*%
%TO.N,GND*%
X129500000Y-69912500D03*
%TO.P,U4,24,VDD*%
%TO.N,+3.3V*%
X130000000Y-69912500D03*
D46*
%TO.P,U4,25,PB12*%
%TO.N,STM32_SPI2_SSN*%
X131412500Y-68500000D03*
%TO.P,U4,26,PB13*%
%TO.N,STM32_SPI2_SCK*%
X131412500Y-68000000D03*
%TO.P,U4,27,PB14*%
%TO.N,STM32_SPI2_MISO*%
X131412500Y-67500000D03*
%TO.P,U4,28,PB15*%
%TO.N,STM32_SPI2_MOSI*%
X131412500Y-66999999D03*
%TO.P,U4,29,PA8*%
%TO.N,STM32_NRF_CE*%
X131412500Y-66500000D03*
%TO.P,U4,30,PA9*%
%TO.N,NRF24L01P_IRQ*%
X131412500Y-66000000D03*
%TO.P,U4,31,PA10*%
%TO.N,/STM32_USER_LED*%
X131412500Y-65500000D03*
%TO.P,U4,32,PA11*%
%TO.N,unconnected-(U4-PA11-Pad32)*%
X131412500Y-65000000D03*
%TO.P,U4,33,PA12*%
%TO.N,unconnected-(U4-PA12-Pad33)*%
X131412500Y-64500001D03*
%TO.P,U4,34,PA13*%
%TO.N,SWDIO*%
X131412500Y-64000000D03*
%TO.P,U4,35,VSS*%
%TO.N,GND*%
X131412500Y-63500000D03*
%TO.P,U4,36,VDD*%
%TO.N,+3.3V*%
X131412500Y-63000000D03*
D47*
%TO.P,U4,37,PA14*%
%TO.N,SWCLK*%
X130000000Y-61587500D03*
%TO.P,U4,38,PA15*%
%TO.N,unconnected-(U4-PA15-Pad38)*%
X129500000Y-61587500D03*
%TO.P,U4,39,PB3*%
%TO.N,unconnected-(U4-PB3-Pad39)*%
X129000000Y-61587500D03*
%TO.P,U4,40,PB4*%
%TO.N,unconnected-(U4-PB4-Pad40)*%
X128499999Y-61587500D03*
%TO.P,U4,41,PB5*%
%TO.N,unconnected-(U4-PB5-Pad41)*%
X128000000Y-61587500D03*
%TO.P,U4,42,PB6*%
%TO.N,unconnected-(U4-PB6-Pad42)*%
X127500000Y-61587500D03*
%TO.P,U4,43,PB7*%
%TO.N,unconnected-(U4-PB7-Pad43)*%
X127000000Y-61587500D03*
%TO.P,U4,44,BOOT0*%
%TO.N,STM32_BOOT0*%
X126500000Y-61587500D03*
%TO.P,U4,45,PB8*%
%TO.N,STM32_CANRX*%
X126000001Y-61587500D03*
%TO.P,U4,46,PB9*%
%TO.N,STM32_CANTX*%
X125500000Y-61587500D03*
%TO.P,U4,47,VSS*%
%TO.N,GND*%
X125000000Y-61587500D03*
%TO.P,U4,48,VDD*%
%TO.N,+3.3V*%
X124500000Y-61587500D03*
%TD*%
D14*
%TO.P,C22,1*%
%TO.N,+3.3VA*%
X126750000Y-115800000D03*
%TO.P,C22,2*%
%TO.N,GND*%
X126750000Y-114840000D03*
%TD*%
D21*
%TO.P,J5,1,Pin_1*%
%TO.N,+5V*%
X80000000Y-94796000D03*
D22*
%TO.P,J5,2,Pin_2*%
%TO.N,+3.3V*%
X80000000Y-97336000D03*
%TO.P,J5,3,Pin_3*%
%TO.N,+3.3VA_VOUT*%
X80000000Y-99876000D03*
%TO.P,J5,4,Pin_4*%
%TO.N,+3.3VA*%
X80000000Y-102416000D03*
%TO.P,J5,5,Pin_5*%
%TO.N,GND*%
X80000000Y-104956000D03*
%TD*%
D27*
%TO.P,C6,1*%
%TO.N,ADF4351_CPOUT*%
X134236000Y-106684000D03*
%TO.P,C6,2*%
%TO.N,Net-(C6-Pad2)*%
X134236000Y-105134000D03*
%TD*%
D24*
%TO.P,C35,1*%
%TO.N,Net-(Y1-OUT)*%
X119684000Y-116549000D03*
%TO.P,C35,2*%
%TO.N,Net-(C35-Pad2)*%
X121234000Y-116549000D03*
%TD*%
D21*
%TO.P,J6,1,Pin_1*%
%TO.N,STM32_ADF_LD*%
X78725000Y-109375000D03*
D22*
%TO.P,J6,2,Pin_2*%
%TO.N,STM32_ADF_PDBRF*%
X78725000Y-111915000D03*
%TO.P,J6,3,Pin_3*%
%TO.N,STM32_ADF_MUXOUT*%
X78725000Y-114454999D03*
%TO.P,J6,4,Pin_4*%
%TO.N,STM32_SPI1_SCK*%
X78725000Y-116995000D03*
%TO.P,J6,5,Pin_5*%
%TO.N,STM32_SPI1_MOSI*%
X78725000Y-119535000D03*
%TO.P,J6,6,Pin_6*%
%TO.N,STM32_SPI1_SSN*%
X78725000Y-122075000D03*
%TO.P,J6,7,Pin_7*%
%TO.N,STM32_ADF_CE*%
X78725000Y-124615000D03*
%TO.P,J6,8,Pin_8*%
%TO.N,ADF4351_CE*%
X81265000Y-124615000D03*
%TO.P,J6,9,Pin_9*%
%TO.N,ADF4351_SSN*%
X81265000Y-122075000D03*
%TO.P,J6,10,Pin_10*%
%TO.N,ADF4351_MOSI*%
X81265000Y-119535000D03*
%TO.P,J6,11,Pin_11*%
%TO.N,ADF4351_SCK*%
X81265000Y-116995000D03*
%TO.P,J6,12,Pin_12*%
%TO.N,ADF4351_MUXOUT*%
X81265000Y-114455000D03*
%TO.P,J6,13,Pin_13*%
%TO.N,ADF4351_PDBRF*%
X81265000Y-111915000D03*
%TO.P,J6,14,Pin_14*%
%TO.N,ADF4351_LD*%
X81265000Y-109375000D03*
%TD*%
D48*
%TO.P,C62,1*%
%TO.N,GND*%
X122075000Y-70270000D03*
%TO.P,C62,2*%
%TO.N,VDDA*%
X120525000Y-70270000D03*
%TD*%
D25*
%TO.P,C11,1*%
%TO.N,+5V*%
X97894000Y-97994000D03*
%TO.P,C11,2*%
%TO.N,GND*%
X97894000Y-99544000D03*
%TD*%
D37*
%TO.P,C12,1*%
%TO.N,+5V*%
X109919000Y-74105000D03*
%TO.P,C12,2*%
%TO.N,GND*%
X108019000Y-74105000D03*
%TD*%
D14*
%TO.P,C40,1*%
%TO.N,/GRF5509_VEN1*%
X145394000Y-113355000D03*
%TO.P,C40,2*%
%TO.N,GND*%
X145394000Y-112395000D03*
%TD*%
D17*
%TO.P,C32,1*%
%TO.N,ADF4351_VCOM*%
X129767000Y-110301000D03*
%TO.P,C32,2*%
%TO.N,GND*%
X128807000Y-110301000D03*
%TD*%
D12*
%TO.P,R20,2*%
%TO.N,+5V*%
X142328000Y-109174000D03*
%TO.P,R20,1*%
%TO.N,/GRF5509_VEN1*%
X142328000Y-110194000D03*
%TD*%
D32*
%TO.P,R3,1*%
%TO.N,Net-(U3-RSET)*%
X131116000Y-109794000D03*
%TO.P,R3,2*%
%TO.N,GND*%
X131116000Y-108144000D03*
%TD*%
D11*
%TO.P,C29,1*%
%TO.N,+3.3VA*%
X132180000Y-121760000D03*
%TO.P,C29,2*%
%TO.N,GND*%
X133140000Y-121760000D03*
%TD*%
D25*
%TO.P,C9,1*%
%TO.N,+3.3VA*%
X103866000Y-103424002D03*
%TO.P,C9,2*%
%TO.N,GND*%
X103866000Y-104974002D03*
%TD*%
D11*
%TO.P,C44,1*%
%TO.N,GND*%
X149640000Y-111420000D03*
%TO.P,C44,2*%
%TO.N,+5V*%
X150600000Y-111420000D03*
%TD*%
D21*
%TO.P,J11,1,Pin_1*%
%TO.N,+3.3V*%
X154870000Y-49980000D03*
D22*
%TO.P,J11,2,Pin_2*%
%TO.N,SWDIO*%
X152330000Y-49980000D03*
%TO.P,J11,3,Pin_3*%
%TO.N,SWCLK*%
X149790001Y-49980000D03*
%TO.P,J11,4,Pin_4*%
%TO.N,GND*%
X147250000Y-49980000D03*
%TD*%
D21*
%TO.P,J8,1,Pin_1*%
%TO.N,STM32_USART3_TX*%
X164000000Y-91550000D03*
D22*
%TO.P,J8,2,Pin_2*%
%TO.N,STM32_USART3_RX*%
X164000000Y-89010000D03*
%TD*%
D11*
%TO.P,C4,2*%
%TO.N,Net-(C4-Pad2)*%
X139440000Y-116550000D03*
%TO.P,C4,1*%
%TO.N,ADF4351_RFOUTA+*%
X138480000Y-116550000D03*
%TD*%
D14*
%TO.P,C27,1*%
%TO.N,+3.3VA*%
X127680000Y-118770000D03*
%TO.P,C27,2*%
%TO.N,GND*%
X127680000Y-117810000D03*
%TD*%
D18*
%TO.P,H2,1,1*%
%TO.N,GND*%
X164000000Y-50000000D03*
%TD*%
D49*
%TO.P,FB1,1*%
%TO.N,VDDA*%
X118970000Y-70278499D03*
%TO.P,FB1,2*%
%TO.N,+3.3V*%
X118970000Y-71853501D03*
%TD*%
D26*
%TO.P,C57,1*%
%TO.N,GND*%
X121410000Y-61480000D03*
%TO.P,C57,2*%
%TO.N,+3.3V*%
X121410000Y-62440000D03*
%TD*%
D43*
%TO.P,R14,2*%
%TO.N,Net-(Y1-OE)*%
X112251000Y-118090000D03*
%TO.P,R14,1*%
%TO.N,+3.3VA*%
X112251000Y-116440000D03*
%TD*%
D50*
%TO.P,IC4,1,VEN1*%
%TO.N,/GRF5509_VEN1*%
X148550000Y-115263000D03*
%TO.P,IC4,2,GND/NC_1*%
%TO.N,GND*%
X148550000Y-115763000D03*
%TO.P,IC4,3,RF_IN_1*%
%TO.N,Net-(IC4-RF_IN_1)*%
X148550000Y-116263000D03*
%TO.P,IC4,4,RF_IN_2*%
X148550000Y-116763000D03*
D51*
%TO.P,IC4,5,GND/NC_2*%
%TO.N,GND*%
X149300000Y-117513000D03*
%TO.P,IC4,6,GND/NC_3*%
X149800000Y-117513000D03*
%TO.P,IC4,7,GND/NC_4*%
X150300000Y-117513000D03*
%TO.P,IC4,8,GND/NC_5*%
X150800000Y-117513000D03*
D50*
%TO.P,IC4,9,RF_OUT/VCC2_1*%
%TO.N,Net-(IC4-RF_OUT{slash}VCC2_1)*%
X151550000Y-116763000D03*
%TO.P,IC4,10,RF_OUT/VCC2_2*%
X151550000Y-116263000D03*
%TO.P,IC4,11,GND/NC_6*%
%TO.N,GND*%
X151550000Y-115763000D03*
%TO.P,IC4,12,BIAS*%
%TO.N,Net-(IC4-BIAS)*%
X151550000Y-115263000D03*
D51*
%TO.P,IC4,13,VCC1*%
%TO.N,Net-(IC4-VCC1)*%
X150800000Y-114513000D03*
%TO.P,IC4,14,GND/NC_7*%
%TO.N,GND*%
X150300000Y-114513000D03*
%TO.P,IC4,15,GND/NC_8*%
%TO.N,Net-(IC4-GND{slash}NC_8)*%
X149800000Y-114513000D03*
%TO.P,IC4,16,VEN2*%
%TO.N,/GRF5509_VEN2*%
X149300000Y-114513000D03*
D52*
%TO.P,IC4,17,GND*%
%TO.N,GND*%
X150050000Y-116013000D03*
%TD*%
D14*
%TO.P,C30,1*%
%TO.N,+3.3VA*%
X126670000Y-118770000D03*
%TO.P,C30,2*%
%TO.N,GND*%
X126670000Y-117810000D03*
%TD*%
%TO.P,C15,1*%
%TO.N,+3.3VA*%
X135040000Y-113220000D03*
%TO.P,C15,2*%
%TO.N,GND*%
X135040000Y-112260000D03*
%TD*%
D29*
%TO.P,IC3,1,VIN*%
%TO.N,+5V*%
X99616000Y-98366000D03*
%TO.P,IC3,2,GND*%
%TO.N,GND*%
X99616000Y-99316000D03*
%TO.P,IC3,3,EN*%
%TO.N,+5V*%
X99616000Y-100266000D03*
%TO.P,IC3,4,NC*%
%TO.N,unconnected-(IC3-NC-Pad4)*%
X102116000Y-100266000D03*
%TO.P,IC3,5,VOUT*%
%TO.N,+3.3VA_VOUT*%
X102116000Y-98366000D03*
%TD*%
D32*
%TO.P,R27,2*%
%TO.N,Net-(J10-Pin_2)*%
X133850000Y-53925000D03*
%TO.P,R27,1*%
%TO.N,STM32_BOOT0*%
X133850000Y-55575000D03*
%TD*%
D53*
%TO.P,R24,2*%
%TO.N,+5V*%
X153400000Y-109120000D03*
%TO.P,R24,1*%
X152380000Y-109120000D03*
%TD*%
D17*
%TO.P,C34,1*%
%TO.N,ADF4351_VCOM*%
X129755000Y-109327000D03*
%TO.P,C34,2*%
%TO.N,GND*%
X128795000Y-109327000D03*
%TD*%
D40*
%TO.P,R12,2*%
%TO.N,+5V*%
X113450000Y-85800000D03*
%TO.P,R12,1*%
%TO.N,Net-(D2-A)*%
X111800000Y-85800000D03*
%TD*%
D54*
%TO.P,D2,1,K*%
%TO.N,GND*%
X108791998Y-85800000D03*
%TO.P,D2,2,A*%
%TO.N,Net-(D2-A)*%
X110367000Y-85800000D03*
%TD*%
D26*
%TO.P,C42,1*%
%TO.N,/GRF5509_VEN2*%
X146500000Y-111100000D03*
%TO.P,C42,2*%
%TO.N,GND*%
X146500000Y-112060000D03*
%TD*%
D48*
%TO.P,C64,1*%
%TO.N,GND*%
X122070000Y-71850000D03*
%TO.P,C64,2*%
%TO.N,+3.3V*%
X120520000Y-71850000D03*
%TD*%
D14*
%TO.P,C51,1*%
%TO.N,GND*%
X157500000Y-117500000D03*
%TO.P,C51,2*%
%TO.N,Net-(IC4-RF_OUT{slash}VCC2_1)*%
X157500000Y-116540000D03*
%TD*%
D43*
%TO.P,R28,2*%
%TO.N,STM32_BOOT1*%
X128010000Y-50985000D03*
%TO.P,R28,1*%
%TO.N,Net-(J10-Pin_5)*%
X128010000Y-49335000D03*
%TD*%
D11*
%TO.P,C39,1*%
%TO.N,Net-(C39-Pad1)*%
X145360000Y-116550000D03*
%TO.P,C39,2*%
%TO.N,Net-(IC4-RF_IN_1)*%
X146320000Y-116550000D03*
%TD*%
D14*
%TO.P,C52,1*%
%TO.N,GND*%
X158540000Y-117500000D03*
%TO.P,C52,2*%
%TO.N,Net-(IC4-RF_OUT{slash}VCC2_1)*%
X158540000Y-116540000D03*
%TD*%
D55*
%TO.P,U2,1,GND*%
%TO.N,GND*%
X106800000Y-68100000D03*
%TO.P,U2,2,VO*%
%TO.N,+3.3V*%
X109100000Y-68099999D03*
D56*
X109100000Y-61800001D03*
D55*
%TO.P,U2,3,VI*%
%TO.N,+5V*%
X111400000Y-68100000D03*
%TD*%
D14*
%TO.P,C53,1*%
%TO.N,GND*%
X159580000Y-117500000D03*
%TO.P,C53,2*%
%TO.N,Net-(IC4-RF_OUT{slash}VCC2_1)*%
X159580000Y-116540000D03*
%TD*%
%TO.P,C45,1*%
%TO.N,GND*%
X152773000Y-117487000D03*
%TO.P,C45,2*%
%TO.N,Net-(IC4-RF_OUT{slash}VCC2_1)*%
X152773000Y-116527000D03*
%TD*%
D16*
%TO.P,R25,2*%
%TO.N,Net-(IC4-BIAS)*%
X154130000Y-112517000D03*
%TO.P,R25,1*%
%TO.N,+5V*%
X155150000Y-112517000D03*
%TD*%
D14*
%TO.P,C24,1*%
%TO.N,+3.3VA*%
X125724306Y-115797892D03*
%TO.P,C24,2*%
%TO.N,GND*%
X125724306Y-114837892D03*
%TD*%
D57*
%TO.P,D1,1,K*%
%TO.N,+12V*%
X96430000Y-80770000D03*
%TO.P,D1,2,A*%
%TO.N,/12V_IN*%
X92030000Y-80770000D03*
%TD*%
D58*
%TO.P,C7,1*%
%TO.N,+12V*%
X103039000Y-80770000D03*
%TO.P,C7,2*%
%TO.N,GND*%
X103039000Y-78870000D03*
%TD*%
D21*
%TO.P,J7,1,Pin_1*%
%TO.N,STM32_CANTX*%
X97430000Y-48690000D03*
D22*
%TO.P,J7,2,Pin_2*%
%TO.N,STM32_CANRX*%
X94890000Y-48690000D03*
%TO.P,J7,3,Pin_3*%
%TO.N,MCP2551_CANRX*%
X94890000Y-51230000D03*
%TO.P,J7,4,Pin_4*%
%TO.N,MCP2551_CANTX*%
X97430000Y-51230000D03*
%TD*%
D11*
%TO.P,C25,1*%
%TO.N,ADF4351_TEMP*%
X132312000Y-112550000D03*
%TO.P,C25,2*%
%TO.N,GND*%
X133272000Y-112550000D03*
%TD*%
D43*
%TO.P,R5,1*%
%TO.N,Net-(C6-Pad2)*%
X135796000Y-105084000D03*
%TO.P,R5,2*%
%TO.N,Net-(R4-Pad2)*%
X135796000Y-106734000D03*
%TD*%
D13*
%TO.P,R2,1*%
%TO.N,+3.3VA_VOUT*%
X136950000Y-115530000D03*
%TO.P,R2,2*%
%TO.N,ADF4351_RFOUTA+*%
X136950000Y-116550000D03*
%TD*%
D40*
%TO.P,R15,1*%
%TO.N,ADF4351_PDBRF*%
X95155000Y-113190000D03*
%TO.P,R15,2*%
%TO.N,+3.3VA*%
X96805000Y-113190000D03*
%TD*%
%TO.P,R16,1*%
%TO.N,ADF4351_CE*%
X95170000Y-126920000D03*
%TO.P,R16,2*%
%TO.N,+3.3VA*%
X96820000Y-126920000D03*
%TD*%
D15*
%TO.P,R17,1*%
%TO.N,GND*%
X96820000Y-118280000D03*
%TO.P,R17,2*%
%TO.N,ADF4351_SCK*%
X95170000Y-118280000D03*
%TD*%
%TO.P,R18,1*%
%TO.N,GND*%
X96825000Y-120820000D03*
%TO.P,R18,2*%
%TO.N,ADF4351_MOSI*%
X95175000Y-120820000D03*
%TD*%
%TO.P,R19,1*%
%TO.N,GND*%
X96815000Y-123330000D03*
%TO.P,R19,2*%
%TO.N,ADF4351_SSN*%
X95165000Y-123330000D03*
%TD*%
D59*
%TO.N,GND*%
X141220000Y-111820000D03*
X141220000Y-110850000D03*
X141220000Y-109850000D03*
X135790000Y-109024000D03*
X137590000Y-111290000D03*
X98070000Y-123380000D03*
X98070000Y-120820000D03*
X98070000Y-118290000D03*
D60*
%TO.N,+5V*%
X100780000Y-71280000D03*
D61*
X120160000Y-84460000D03*
X124062965Y-88212965D03*
D60*
X99320000Y-71280000D03*
D59*
%TO.N,GND*%
X159900000Y-117750000D03*
X145250000Y-117750000D03*
X154250000Y-104750000D03*
X154250000Y-110000000D03*
X102800000Y-104910000D03*
X89560000Y-77540000D03*
X156300000Y-115350000D03*
X152700000Y-117750000D03*
X170600000Y-107750000D03*
X170600000Y-104750000D03*
X158100000Y-117750000D03*
X161700000Y-115350000D03*
X166100000Y-110250000D03*
X102700000Y-77700000D03*
X165300000Y-117750000D03*
X151100000Y-122750000D03*
X103600000Y-77700000D03*
X167600000Y-111550000D03*
X168575000Y-112675000D03*
X110750000Y-121700000D03*
X167600000Y-120300000D03*
X123150000Y-71850000D03*
X170525000Y-111550000D03*
X116750000Y-110600000D03*
X117400000Y-113450000D03*
X107500000Y-76300000D03*
X144350000Y-117750000D03*
X126750000Y-126400000D03*
X150500000Y-118300000D03*
X141600000Y-122750000D03*
X149600000Y-118300000D03*
X151500000Y-110000000D03*
X168575000Y-120300000D03*
X122750000Y-110600000D03*
X161100000Y-107750000D03*
X160800000Y-117750000D03*
X156150000Y-126350000D03*
X159000000Y-117750000D03*
X99030000Y-72570000D03*
X154250000Y-107750000D03*
X127370000Y-112510000D03*
X166100000Y-122750000D03*
X166100000Y-118950000D03*
X161100000Y-122750000D03*
X156100000Y-107750000D03*
X148050000Y-104750000D03*
X103782499Y-67530000D03*
X142550000Y-117750000D03*
X146600000Y-122750000D03*
X125150000Y-107750000D03*
X138050000Y-115350000D03*
X101750000Y-99440000D03*
X115180000Y-56980000D03*
X156100000Y-104750000D03*
X159000000Y-115350000D03*
X110750000Y-110600000D03*
X147050000Y-117750000D03*
X143150000Y-110950000D03*
X143450000Y-115350000D03*
X164400000Y-117750000D03*
X162600000Y-117750000D03*
X164400000Y-115350000D03*
X170600000Y-122750000D03*
X116260000Y-66390000D03*
X106600000Y-74600000D03*
X124600000Y-66550000D03*
X137150000Y-117750000D03*
X141650000Y-126350000D03*
X170600000Y-110250000D03*
X151150000Y-126350000D03*
X162600000Y-115350000D03*
X139850000Y-117750000D03*
X156300000Y-117750000D03*
X130418000Y-116304000D03*
X116750000Y-126300000D03*
X118670000Y-47760000D03*
X158100000Y-115350000D03*
X97420000Y-100790000D03*
X166625000Y-111550000D03*
X144350000Y-115350000D03*
X140450000Y-104750000D03*
X170100000Y-118950000D03*
X168350000Y-110250000D03*
X168350000Y-122750000D03*
X127860000Y-110320000D03*
X141650000Y-115350000D03*
X154500000Y-117750000D03*
X147950000Y-117750000D03*
X161100000Y-104750000D03*
X169550000Y-112675000D03*
X149600000Y-115560000D03*
X139850000Y-115350000D03*
X104782499Y-68430000D03*
X145050000Y-104750000D03*
X157000000Y-111500000D03*
X140750000Y-117750000D03*
X149316504Y-58195000D03*
X106500000Y-76300000D03*
X104782499Y-67530000D03*
X167600000Y-112675000D03*
X166625000Y-112675000D03*
X163500000Y-117750000D03*
X120420000Y-65120000D03*
X122750000Y-118600000D03*
X170525000Y-120300000D03*
X118140000Y-64770000D03*
X103782499Y-68430000D03*
X153600000Y-117750000D03*
X125200000Y-63050000D03*
X161150000Y-126350000D03*
X168350000Y-113950000D03*
X140450000Y-107750000D03*
X138950000Y-117750000D03*
X170525000Y-112675000D03*
X97410000Y-106210000D03*
X153900000Y-115350000D03*
X131418000Y-117304000D03*
X138950000Y-115350000D03*
X156100000Y-112400000D03*
X156150000Y-109450000D03*
X125150000Y-104750000D03*
X143450000Y-117750000D03*
X145050000Y-107750000D03*
X133250000Y-110760000D03*
X110750000Y-107750000D03*
X98309999Y-106210000D03*
X132418000Y-116304000D03*
X118410000Y-118030000D03*
X133240000Y-64550000D03*
X166150000Y-126350000D03*
X104600000Y-77700000D03*
X145250000Y-115350000D03*
X120430000Y-61430000D03*
X160800000Y-115350000D03*
X130418000Y-115304000D03*
X105400000Y-76300000D03*
X166100000Y-113950000D03*
X156100000Y-122750000D03*
X153000000Y-115350000D03*
X148050000Y-107750000D03*
X106582499Y-70130000D03*
X122750000Y-121650000D03*
X159900000Y-115350000D03*
X117400000Y-114450000D03*
X106600000Y-73500000D03*
X131150000Y-104750000D03*
X122750000Y-126400000D03*
X132418000Y-115304000D03*
X169550000Y-120300000D03*
X100840000Y-104910000D03*
X154200000Y-113600000D03*
X100820000Y-99440000D03*
X125250000Y-110600000D03*
X136650000Y-126350000D03*
X147050000Y-115350000D03*
X150500000Y-116460000D03*
X166625000Y-121425000D03*
X102790000Y-99440000D03*
X107600000Y-85790000D03*
X119440000Y-62630000D03*
X98319999Y-100790000D03*
X157050000Y-113600000D03*
X154250000Y-111550000D03*
X157200000Y-117750000D03*
X131418000Y-116304000D03*
X151550000Y-104750000D03*
X170650000Y-126350000D03*
X140750000Y-115350000D03*
X169550000Y-121425000D03*
X138050000Y-117750000D03*
X133100000Y-126350000D03*
X156280000Y-114350000D03*
X110750000Y-114650000D03*
X146150000Y-115350000D03*
X116800000Y-104750000D03*
X170525000Y-121425000D03*
X168575000Y-111550000D03*
X151550000Y-107750000D03*
X151800000Y-117750000D03*
X161100000Y-110250000D03*
X110800000Y-104750000D03*
X112510000Y-58820000D03*
X151500000Y-114150000D03*
X133100000Y-122750000D03*
X166100000Y-104750000D03*
X150500000Y-117400000D03*
X152850000Y-112750000D03*
X122750000Y-107750000D03*
X146670000Y-112930000D03*
X166625000Y-120300000D03*
X142550000Y-115350000D03*
X129500000Y-68540000D03*
X166100000Y-107750000D03*
X161700000Y-117750000D03*
X165300000Y-115350000D03*
X130418000Y-117304000D03*
X151500000Y-111550000D03*
X122750000Y-114600000D03*
X146150000Y-117750000D03*
X155400000Y-117750000D03*
X101760000Y-104910000D03*
X167600000Y-121425000D03*
X110750000Y-126300000D03*
X146650000Y-126350000D03*
X169550000Y-111550000D03*
X149600000Y-116460000D03*
X157200000Y-115350000D03*
X122750000Y-104750000D03*
X123150000Y-70250000D03*
X150500000Y-115560000D03*
X110750000Y-118600000D03*
X157000000Y-110400000D03*
X136600000Y-122750000D03*
X126730000Y-121740000D03*
X168350000Y-118950000D03*
X149600000Y-117400000D03*
X141650000Y-117750000D03*
X106582499Y-71130000D03*
X163500000Y-115350000D03*
X132418000Y-117304000D03*
X170100000Y-113950000D03*
X131418000Y-115304000D03*
X116750000Y-107750000D03*
X116750000Y-121700000D03*
X168575000Y-121425000D03*
%TO.N,ADF4351_CPOUT*%
X132670000Y-119850000D03*
X134240000Y-108914000D03*
D60*
%TO.N,+3.3V*%
X116260000Y-55310000D03*
X133950000Y-71310000D03*
D59*
X102300000Y-70520000D03*
D60*
X129900000Y-55290000D03*
X99140000Y-79640000D03*
X125270000Y-55320000D03*
X163890000Y-60070000D03*
X134300000Y-59740000D03*
X89540000Y-96310000D03*
X99150000Y-81870000D03*
D59*
X102310000Y-72010000D03*
D60*
X134320000Y-64180000D03*
X131590000Y-56980000D03*
X89550000Y-87840000D03*
X117720000Y-55310000D03*
X134284877Y-69495123D03*
X132898812Y-72391188D03*
%TO.N,+3.3VA*%
X107790000Y-122500000D03*
D62*
X124140000Y-112850000D03*
D60*
X107790000Y-126330000D03*
X124810000Y-123060000D03*
X107770000Y-112650000D03*
X107760000Y-108630000D03*
X124810000Y-126320000D03*
D62*
X124140000Y-114590000D03*
D60*
%TO.N,+3.3VA_VOUT*%
X97660000Y-96260000D03*
X95660000Y-96250000D03*
D59*
%TO.N,NRF24L01P_MISO*%
X159060000Y-69080000D03*
X159980000Y-70040000D03*
%TO.N,STM32_ADF_MUXOUT*%
X127680000Y-73300000D03*
X125630000Y-68510000D03*
%TO.N,STM32_BOOT1*%
X128010000Y-58650000D03*
X128000000Y-63000000D03*
X128000000Y-65820000D03*
X127990000Y-67180000D03*
%TO.N,Net-(R4-Pad2)*%
X137130000Y-109100000D03*
X131410000Y-124960000D03*
%TD*%
D63*
%TO.N,GRF5509_RFIN*%
X141730000Y-116550000D02*
X141920000Y-116550000D01*
%TO.N,Net-(C4-Pad2)*%
X139790000Y-116540000D02*
X140070000Y-116540000D01*
D64*
%TO.N,GND*%
X141120000Y-111830000D02*
X141130000Y-111820000D01*
X140370000Y-111830000D02*
X141120000Y-111830000D01*
X141210000Y-110840000D02*
X141220000Y-110850000D01*
X140370000Y-110840000D02*
X141210000Y-110840000D01*
X140370000Y-109850000D02*
X141230000Y-109850000D01*
D65*
%TO.N,+3.3VA_VOUT*%
X138700000Y-111830000D02*
X138690000Y-111840000D01*
X138690000Y-111840000D02*
X138690000Y-113119534D01*
X138690000Y-110870000D02*
X138690000Y-111840000D01*
X139410000Y-111830000D02*
X138700000Y-111830000D01*
X139410000Y-110840000D02*
X138720000Y-110840000D01*
X138690000Y-109860000D02*
X138690000Y-110870000D01*
X138720000Y-110840000D02*
X138690000Y-110870000D01*
X138700000Y-109850000D02*
X138690000Y-109860000D01*
X139410000Y-109850000D02*
X138700000Y-109850000D01*
X138690000Y-100480000D02*
X138690000Y-109860000D01*
D64*
%TO.N,GND*%
X135796000Y-109030000D02*
X135790000Y-109024000D01*
X135796000Y-109794000D02*
X135796000Y-109030000D01*
X133270000Y-110780000D02*
X133270000Y-111530000D01*
X133250000Y-110760000D02*
X133270000Y-110780000D01*
D63*
%TO.N,ADF4351_RFOUTA+*%
X135030000Y-116550000D02*
X136570000Y-116550000D01*
D65*
%TO.N,ADF4351_RFOUTA-*%
X135980000Y-115429998D02*
X135990000Y-115439998D01*
X134990000Y-115429998D02*
X135980000Y-115429998D01*
%TO.N,+3.3VA_VOUT*%
X136609534Y-114420000D02*
X136999534Y-114810000D01*
X135990000Y-114420000D02*
X136609534Y-114420000D01*
D64*
%TO.N,ADF4351_RFOUTA-*%
X134365998Y-116054000D02*
X134990000Y-115429998D01*
X133818000Y-116054000D02*
X134365998Y-116054000D01*
%TO.N,Net-(C13-Pad2)*%
X136779999Y-113780000D02*
X137140000Y-113419999D01*
X134990000Y-114100000D02*
X135310000Y-113780000D01*
X134990000Y-114469998D02*
X134990000Y-114100000D01*
X135310000Y-113780000D02*
X136779999Y-113780000D01*
%TO.N,ADF4351_RFOUTA+*%
X135026000Y-116554000D02*
X135030000Y-116550000D01*
X133818000Y-116554000D02*
X135026000Y-116554000D01*
%TO.N,ADF4351_RFOUTA-*%
X134990000Y-115540000D02*
X134990000Y-115449998D01*
%TO.N,ADF4351_RFOUTA+*%
X136946000Y-116554000D02*
X136950000Y-116550000D01*
D65*
%TO.N,+3.3VA_VOUT*%
X136999534Y-114810000D02*
X136950000Y-114859534D01*
X136950000Y-114859534D02*
X136950000Y-115530000D01*
X138690000Y-113119534D02*
X136999534Y-114810000D01*
X136242000Y-98032000D02*
X138690000Y-100480000D01*
X107780000Y-98032000D02*
X136242000Y-98032000D01*
%TO.N,+3.3VA*%
X134747624Y-111240000D02*
X133980000Y-112007624D01*
X136330000Y-111240000D02*
X134747624Y-111240000D01*
X137870000Y-109700000D02*
X136330000Y-111240000D01*
X136270000Y-99600000D02*
X137870000Y-101200000D01*
X124180000Y-99600000D02*
X136270000Y-99600000D01*
X137870000Y-101200000D02*
X137870000Y-109700000D01*
X133980000Y-112007624D02*
X133980000Y-113750000D01*
D64*
%TO.N,Net-(R4-Pad2)*%
X136594000Y-108144000D02*
X135796000Y-108144000D01*
X137130000Y-109100000D02*
X137130000Y-108680000D01*
X137130000Y-108680000D02*
X136594000Y-108144000D01*
%TO.N,+3.3VA*%
X106440000Y-127510000D02*
X107800000Y-127510000D01*
X96820000Y-126920000D02*
X105850000Y-126920000D01*
X105850000Y-126920000D02*
X106440000Y-127510000D01*
D65*
X107800000Y-127510000D02*
X107800000Y-126950000D01*
X107800000Y-128050000D02*
X107800000Y-127510000D01*
D64*
X107770000Y-126920000D02*
X107800000Y-126950000D01*
%TO.N,GND*%
X98130000Y-123330000D02*
X98180000Y-123380000D01*
X96815000Y-123330000D02*
X98130000Y-123330000D01*
X96825000Y-120820000D02*
X98070000Y-120820000D01*
X98070000Y-118280000D02*
X98080000Y-118290000D01*
X96820000Y-118280000D02*
X98070000Y-118280000D01*
%TO.N,+3.3VA*%
X106010000Y-113190000D02*
X106810000Y-113990000D01*
X106810000Y-113990000D02*
X107770000Y-113990000D01*
X96805000Y-113190000D02*
X106010000Y-113190000D01*
D65*
X107770000Y-113990000D02*
X107770000Y-112650000D01*
X107770000Y-122480000D02*
X107770000Y-113990000D01*
D64*
%TO.N,ADF4351_CE*%
X94820000Y-126920000D02*
X93490000Y-125590000D01*
X93490000Y-125590000D02*
X82240000Y-125590000D01*
X95170000Y-126920000D02*
X94820000Y-126920000D01*
X125984336Y-125590000D02*
X93490000Y-125590000D01*
%TO.N,ADF4351_SSN*%
X92910000Y-122075000D02*
X81265000Y-122075000D01*
X102715000Y-122075000D02*
X92910000Y-122075000D01*
X95165000Y-123330000D02*
X94165000Y-123330000D01*
X94165000Y-123330000D02*
X92910000Y-122075000D01*
%TO.N,ADF4351_MOSI*%
X93975000Y-120820000D02*
X92690000Y-119535000D01*
X95175000Y-120820000D02*
X93975000Y-120820000D01*
X101055000Y-119535000D02*
X92690000Y-119535000D01*
X92690000Y-119535000D02*
X81265000Y-119535000D01*
%TO.N,ADF4351_SCK*%
X94145000Y-118280000D02*
X92860000Y-116995000D01*
X95170000Y-118280000D02*
X94145000Y-118280000D01*
X92860000Y-116995000D02*
X81265000Y-116995000D01*
X99325000Y-116995000D02*
X92860000Y-116995000D01*
%TO.N,ADF4351_PDBRF*%
X95155000Y-113190000D02*
X93865000Y-113190000D01*
X93865000Y-113190000D02*
X92590000Y-111915000D01*
X92590000Y-111915000D02*
X81265000Y-111915000D01*
X121565000Y-111915000D02*
X92590000Y-111915000D01*
%TO.N,ADF4351_SSN*%
X105630000Y-124990000D02*
X102715000Y-122075000D01*
X130668000Y-120298224D02*
X125976224Y-124990000D01*
X130668000Y-118704000D02*
X130668000Y-120298224D01*
X125976224Y-124990000D02*
X105630000Y-124990000D01*
%TO.N,ADF4351_MOSI*%
X105900000Y-124380000D02*
X101055000Y-119535000D01*
X130168000Y-120190112D02*
X125978112Y-124380000D01*
X130168000Y-118704000D02*
X130168000Y-120190112D01*
X125978112Y-124380000D02*
X105900000Y-124380000D01*
%TO.N,ADF4351_SCK*%
X106120000Y-123790000D02*
X99325000Y-116995000D01*
X125960000Y-123790000D02*
X106120000Y-123790000D01*
X129668000Y-120082000D02*
X125960000Y-123790000D01*
X129668000Y-118704000D02*
X129668000Y-120082000D01*
%TO.N,ADF4351_MUXOUT*%
X106280000Y-123230000D02*
X97505000Y-114455000D01*
X97505000Y-114455000D02*
X81265000Y-114455000D01*
X119820000Y-123230000D02*
X106280000Y-123230000D01*
X125996000Y-117054000D02*
X119820000Y-123230000D01*
X129018000Y-117054000D02*
X125996000Y-117054000D01*
D65*
%TO.N,+5V*%
X99040000Y-105930001D02*
X99040000Y-106930001D01*
D66*
X155120000Y-95550000D02*
X154330000Y-94760000D01*
D65*
X97894000Y-97994000D02*
X96710000Y-97994000D01*
X99280000Y-105690001D02*
X99040000Y-105930001D01*
X96745000Y-103495001D02*
X96680000Y-103430001D01*
D66*
X109919000Y-74105000D02*
X117815000Y-74105000D01*
D65*
X98840000Y-107130001D02*
X96940000Y-107130001D01*
X96690000Y-94796000D02*
X96680000Y-94806000D01*
D66*
X120150000Y-84470000D02*
X120160000Y-84460000D01*
X118890000Y-84470000D02*
X120150000Y-84470000D01*
X118890000Y-84470000D02*
X117560000Y-85800000D01*
D65*
X96680000Y-106870001D02*
X96680000Y-103430001D01*
D66*
X124062965Y-88212965D02*
X124050000Y-88225930D01*
X80000000Y-94796000D02*
X80006000Y-94790000D01*
X125340000Y-94760000D02*
X124060000Y-93480000D01*
D65*
X96700000Y-71280000D02*
X96695000Y-71285000D01*
X155120000Y-95550000D02*
X155160000Y-95590000D01*
X155150000Y-112517000D02*
X155150000Y-111470000D01*
X152380000Y-109120000D02*
X150600000Y-109120000D01*
X109919000Y-72989000D02*
X109919000Y-74105000D01*
D66*
X117560000Y-85800000D02*
X113450000Y-85800000D01*
D65*
X143930000Y-109170000D02*
X143930000Y-94830000D01*
X155150000Y-111470000D02*
X155150000Y-110378000D01*
X96680000Y-103430001D02*
X96680000Y-101282000D01*
X99040000Y-106930001D02*
X98840000Y-107130001D01*
D66*
X80000000Y-94796000D02*
X96690000Y-94796000D01*
D65*
X153400000Y-109120000D02*
X155160000Y-109120000D01*
X155150000Y-113600000D02*
X155170000Y-113580000D01*
D66*
X122744000Y-94796000D02*
X124060000Y-93480000D01*
D65*
X96680000Y-101262000D02*
X96680000Y-94806000D01*
X155160000Y-110368000D02*
X155160000Y-109120000D01*
D66*
X124050000Y-93470000D02*
X124060000Y-93480000D01*
D65*
X99049999Y-100610001D02*
X99049999Y-101450001D01*
X150602000Y-111422000D02*
X150600000Y-111420000D01*
D66*
X118890000Y-75180000D02*
X118890000Y-84470000D01*
D65*
X98814000Y-101686000D02*
X96684000Y-101686000D01*
X105930000Y-72670000D02*
X109600000Y-72670000D01*
D66*
X154330000Y-94760000D02*
X125340000Y-94760000D01*
D65*
X96940000Y-107130001D02*
X96680000Y-106870001D01*
D66*
X96690000Y-94796000D02*
X122744000Y-94796000D01*
D65*
X155160000Y-95590000D02*
X155160000Y-109120000D01*
X99320000Y-71280000D02*
X96700000Y-71280000D01*
X99049999Y-101450001D02*
X98814000Y-101686000D01*
X150602000Y-112377000D02*
X150602000Y-111422000D01*
X99394000Y-100266000D02*
X99049999Y-100610001D01*
X109600000Y-72670000D02*
X109919000Y-72989000D01*
X96710000Y-97994000D02*
X96690000Y-97974000D01*
X155170000Y-113580000D02*
X155170000Y-112537000D01*
X97866000Y-103495001D02*
X96745000Y-103495001D01*
X155170000Y-112537000D02*
X155150000Y-112517000D01*
X150600000Y-109120000D02*
X150600000Y-94770000D01*
X142328000Y-109174000D02*
X142328000Y-94828000D01*
D66*
X124050000Y-88225930D02*
X124050000Y-93470000D01*
X117815000Y-74105000D02*
X118890000Y-75180000D01*
D65*
X99600000Y-105690001D02*
X99280000Y-105690001D01*
X150600000Y-111420000D02*
X150600000Y-109120000D01*
X100780000Y-71280000D02*
X104540000Y-71280000D01*
X99616000Y-100266000D02*
X99394000Y-100266000D01*
X155150000Y-114962500D02*
X155150000Y-113600000D01*
X155150000Y-110378000D02*
X155160000Y-110368000D01*
X104540000Y-71280000D02*
X105930000Y-72670000D01*
D64*
%TO.N,GND*%
X129500000Y-68540000D02*
X129500000Y-69912500D01*
X132168000Y-117054000D02*
X131418000Y-116304000D01*
X132462000Y-115260000D02*
X132462000Y-115260000D01*
X116030000Y-56970000D02*
X115190000Y-56970000D01*
X132400000Y-63500000D02*
X132630000Y-63730000D01*
D65*
X128795000Y-109327000D02*
X128795000Y-110289000D01*
D64*
X133140000Y-120740000D02*
X133300000Y-120580000D01*
D67*
X149800000Y-115763000D02*
X150050000Y-116013000D01*
D65*
X133270000Y-111530000D02*
X133270000Y-112548000D01*
D64*
X119430000Y-63520000D02*
X119430000Y-62640000D01*
D65*
X128795000Y-110289000D02*
X128807000Y-110301000D01*
D67*
X150800000Y-116763000D02*
X150050000Y-116013000D01*
D64*
X130168000Y-117554000D02*
X131418000Y-116304000D01*
X125000000Y-62850000D02*
X125000000Y-61587500D01*
X132462000Y-115260000D02*
X131850000Y-115260000D01*
X133818000Y-118054000D02*
X133168000Y-118054000D01*
D65*
X118660000Y-47750000D02*
X118670000Y-47760000D01*
D64*
X128466000Y-117554000D02*
X128210000Y-117810000D01*
X119443000Y-65425000D02*
X120115000Y-65425000D01*
X133168000Y-119457045D02*
X133168000Y-118704000D01*
X128341000Y-112499000D02*
X127381000Y-112499000D01*
X132620000Y-115260000D02*
X132462000Y-115260000D01*
X146930000Y-50009999D02*
X146920001Y-50000000D01*
D65*
X126670000Y-117810000D02*
X127680000Y-117810000D01*
D67*
X149300000Y-116763000D02*
X150050000Y-116013000D01*
X150300000Y-115763000D02*
X150050000Y-116013000D01*
D65*
X133270000Y-112548000D02*
X133272000Y-112550000D01*
D64*
X121410000Y-61480000D02*
X120480000Y-61480000D01*
X124550000Y-66500000D02*
X124600000Y-66550000D01*
X120480000Y-61480000D02*
X120430000Y-61430000D01*
D65*
X135040000Y-112260000D02*
X136040000Y-112260000D01*
X109000000Y-47750000D02*
X117000000Y-47750000D01*
D64*
X129018000Y-115554000D02*
X129976000Y-115554000D01*
X108791998Y-85800000D02*
X107610000Y-85800000D01*
X129500000Y-70940000D02*
X129660000Y-71100000D01*
X121810000Y-66300000D02*
X122010000Y-66500000D01*
D67*
X150300000Y-116263000D02*
X150050000Y-116013000D01*
D64*
X129660000Y-71100000D02*
X129660000Y-71500000D01*
X131116000Y-108144000D02*
X132626000Y-108144000D01*
X132668000Y-113154000D02*
X132668000Y-113904000D01*
X99015000Y-72555000D02*
X99030000Y-72570000D01*
D65*
X125724306Y-114837892D02*
X126747892Y-114837892D01*
D64*
X127381000Y-112499000D02*
X127370000Y-112510000D01*
X124750000Y-60470000D02*
X124750000Y-59750000D01*
X119430000Y-62640000D02*
X119440000Y-62630000D01*
D65*
X111225002Y-58800000D02*
X112490000Y-58800000D01*
D64*
X128210000Y-117810000D02*
X127680000Y-117810000D01*
D65*
X128340000Y-111510000D02*
X128340000Y-112498000D01*
D64*
X134314000Y-118054000D02*
X134510000Y-118250000D01*
X134510000Y-118980000D02*
X135200000Y-119670000D01*
X131168000Y-115172000D02*
X131060000Y-115280000D01*
X132626000Y-108144000D02*
X132676000Y-108194000D01*
X131168000Y-113904000D02*
X131168000Y-115172000D01*
X133818000Y-117054000D02*
X132168000Y-117054000D01*
X107610000Y-85800000D02*
X107600000Y-85790000D01*
X122010000Y-66500000D02*
X123087500Y-66500000D01*
X125000000Y-60720000D02*
X124750000Y-60470000D01*
D67*
X150300000Y-117513000D02*
X150300000Y-116263000D01*
D64*
X131850000Y-115260000D02*
X131850000Y-115872000D01*
D65*
X116291000Y-65383000D02*
X116291000Y-66359000D01*
D64*
X127630000Y-114840000D02*
X126750000Y-114840000D01*
D67*
X149800000Y-116263000D02*
X150050000Y-116013000D01*
D64*
X127879000Y-110301000D02*
X127860000Y-110320000D01*
X123087500Y-66500000D02*
X124550000Y-66500000D01*
D67*
X149300000Y-117513000D02*
X149300000Y-116763000D01*
D64*
X131168000Y-115388000D02*
X131168000Y-116054000D01*
D65*
X116291000Y-66359000D02*
X116260000Y-66390000D01*
X118140000Y-64770000D02*
X117479000Y-64109000D01*
D64*
X133300000Y-119589045D02*
X133168000Y-119457045D01*
X132668000Y-113904000D02*
X132668000Y-115054000D01*
D67*
X148550000Y-115763000D02*
X149800000Y-115763000D01*
D64*
X89560000Y-76490000D02*
X89560000Y-77540000D01*
X128807000Y-110301000D02*
X127879000Y-110301000D01*
D65*
X128340000Y-112498000D02*
X128341000Y-112499000D01*
D64*
X131168000Y-116054000D02*
X131418000Y-116304000D01*
X133168000Y-118704000D02*
X133168000Y-118054000D01*
X132620000Y-115102000D02*
X132620000Y-115260000D01*
X132630000Y-63730000D02*
X133250000Y-63730000D01*
D65*
X122075000Y-70270000D02*
X123130000Y-70270000D01*
D64*
X132668000Y-115054000D02*
X132620000Y-115102000D01*
D67*
X150800000Y-117513000D02*
X150800000Y-116763000D01*
D64*
X128344000Y-115554000D02*
X127630000Y-114840000D01*
D67*
X150300000Y-114513000D02*
X150300000Y-115763000D01*
D64*
X131850000Y-115872000D02*
X131418000Y-116304000D01*
X120115000Y-65425000D02*
X120420000Y-65120000D01*
X115190000Y-56970000D02*
X115180000Y-56980000D01*
X130668000Y-115554000D02*
X131418000Y-116304000D01*
X129976000Y-115554000D02*
X130270000Y-115260000D01*
X148134005Y-58195000D02*
X149316504Y-58195000D01*
X96695000Y-72555000D02*
X99015000Y-72555000D01*
X133818000Y-118054000D02*
X134314000Y-118054000D01*
X125200000Y-63050000D02*
X125000000Y-62850000D01*
X133168000Y-118054000D02*
X131418000Y-116304000D01*
X130270000Y-115260000D02*
X130564000Y-115554000D01*
D65*
X122070000Y-71850000D02*
X123150000Y-71850000D01*
X125189999Y-57850000D02*
X125189999Y-58800001D01*
X126747892Y-114837892D02*
X126750000Y-114840000D01*
D64*
X129018000Y-117554000D02*
X128466000Y-117554000D01*
D65*
X112490000Y-58800000D02*
X112510000Y-58820000D01*
D64*
X129500000Y-69912500D02*
X129500000Y-70940000D01*
X131412500Y-63500000D02*
X132400000Y-63500000D01*
X129018000Y-115554000D02*
X128344000Y-115554000D01*
X133272000Y-112550000D02*
X132668000Y-113154000D01*
D65*
X124750000Y-59240000D02*
X124750000Y-59750000D01*
X135200000Y-119670000D02*
X136210000Y-119670000D01*
D64*
X121280000Y-66300000D02*
X121810000Y-66300000D01*
D65*
X123130000Y-70270000D02*
X123150000Y-70250000D01*
D64*
X133300000Y-120580000D02*
X133300000Y-119589045D01*
X134510000Y-118250000D02*
X134510000Y-118980000D01*
X125000000Y-61587500D02*
X125000000Y-60720000D01*
X129018000Y-117554000D02*
X130168000Y-117554000D01*
D65*
X117479000Y-64109000D02*
X117265000Y-64109000D01*
D64*
X133240000Y-64550000D02*
X133250000Y-64540000D01*
D65*
X133140000Y-120740000D02*
X133140000Y-121760000D01*
D64*
X131060000Y-115280000D02*
X131168000Y-115388000D01*
D67*
X151550000Y-115763000D02*
X150300000Y-115763000D01*
D65*
X117000000Y-47750000D02*
X118660000Y-47750000D01*
D64*
X130564000Y-115554000D02*
X130668000Y-115554000D01*
D67*
X149800000Y-117513000D02*
X149800000Y-116263000D01*
D65*
X125189999Y-58800001D02*
X124750000Y-59240000D01*
D64*
X133250000Y-64540000D02*
X133250000Y-63730000D01*
%TO.N,ADF4351_CPOUT*%
X132668000Y-119848000D02*
X132670000Y-119850000D01*
X134246000Y-108134000D02*
X134236000Y-108144000D01*
X132668000Y-118704000D02*
X132668000Y-119848000D01*
X134240000Y-108148000D02*
X134236000Y-108144000D01*
D65*
X134239000Y-106692000D02*
X134243000Y-106688000D01*
X134243000Y-108137000D02*
X134231000Y-108149000D01*
D64*
X134240000Y-108914000D02*
X134240000Y-108148000D01*
X132676000Y-106684000D02*
X134236000Y-106684000D01*
X134236000Y-106684000D02*
X134236000Y-108144000D01*
%TO.N,Net-(C6-Pad2)*%
X135746000Y-105134000D02*
X135796000Y-105084000D01*
X134236000Y-105134000D02*
X135746000Y-105134000D01*
D65*
X135739000Y-105138000D02*
X135788000Y-105089000D01*
D66*
%TO.N,+12V*%
X96430000Y-80770000D02*
X103039000Y-80770000D01*
D65*
X103029000Y-80760000D02*
X103039000Y-80770000D01*
D63*
%TO.N,ADF4351_RFOUTA+*%
X137450000Y-116540000D02*
X138090000Y-116540000D01*
D64*
%TO.N,ADF4351_VTUNE*%
X131668000Y-110752000D02*
X131668000Y-113904000D01*
X132676000Y-109744000D02*
X134186000Y-109744000D01*
X134186000Y-109744000D02*
X134236000Y-109794000D01*
D65*
X132729000Y-109799000D02*
X132670000Y-109740000D01*
D64*
X132676000Y-109744000D02*
X131668000Y-110752000D01*
D65*
%TO.N,+3.3V*%
X118970000Y-71853501D02*
X120516499Y-71853501D01*
X134300000Y-59740000D02*
X133250000Y-60790000D01*
X102790000Y-61110000D02*
X102280000Y-61620000D01*
X160230000Y-56380000D02*
X162840000Y-58990000D01*
X129900000Y-55290000D02*
X131310000Y-53880000D01*
X91420000Y-84700000D02*
X97720000Y-84700000D01*
X104265499Y-58830000D02*
X104265499Y-56934501D01*
D64*
X131412500Y-63000000D02*
X132380000Y-63000000D01*
D65*
X163890000Y-60040000D02*
X163890000Y-60070000D01*
X131511188Y-72391188D02*
X130620000Y-71500000D01*
X112170000Y-55310000D02*
X116260000Y-55310000D01*
X131590000Y-56980000D02*
X129900000Y-55290000D01*
X99150000Y-83270000D02*
X99150000Y-81870000D01*
X133250000Y-60790000D02*
X133250000Y-62770000D01*
X104265499Y-61110000D02*
X104265499Y-58830000D01*
D64*
X124500000Y-60927107D02*
X123790000Y-60217107D01*
X132380000Y-63000000D02*
X132610000Y-62770000D01*
X123087500Y-63000000D02*
X121560000Y-63000000D01*
D65*
X102280000Y-61620000D02*
X102280000Y-61690000D01*
X105890000Y-55310000D02*
X112170000Y-55310000D01*
X117720000Y-55310000D02*
X117730000Y-55320000D01*
D64*
X123790000Y-60217107D02*
X123790000Y-59750000D01*
D65*
X123290001Y-57850000D02*
X123290001Y-58700001D01*
X148050000Y-56380000D02*
X151170000Y-56380000D01*
X88514000Y-97336000D02*
X80000000Y-97336000D01*
X125270000Y-55320000D02*
X120760001Y-55320000D01*
X112170000Y-55310000D02*
X113770000Y-56910000D01*
X123290001Y-58700001D02*
X123790000Y-59200000D01*
D64*
X121410000Y-62850000D02*
X121410000Y-62440000D01*
D65*
X113770000Y-56910000D02*
X113770000Y-60460000D01*
X102310000Y-72450000D02*
X99530000Y-75230000D01*
X134284877Y-69495123D02*
X134284877Y-70975123D01*
X106550000Y-58800000D02*
X104295499Y-58800000D01*
X151170000Y-56380000D02*
X154870000Y-52680000D01*
D64*
X130620000Y-71330000D02*
X130620000Y-71500000D01*
D65*
X89550000Y-86570000D02*
X91420000Y-84700000D01*
X99530000Y-75230000D02*
X99140000Y-75620000D01*
X104295499Y-58800000D02*
X104265499Y-58830000D01*
X113770000Y-70640000D02*
X114983501Y-71853501D01*
X117730000Y-55320000D02*
X120760001Y-55320000D01*
X104265499Y-56934501D02*
X105890000Y-55310000D01*
X114983501Y-71853501D02*
X118970000Y-71853501D01*
X120760001Y-55320000D02*
X123290001Y-57850000D01*
X131310000Y-53880000D02*
X131310000Y-51230000D01*
D64*
X130000000Y-69912500D02*
X130000000Y-70710000D01*
D65*
X120516499Y-71853501D02*
X120520000Y-71850000D01*
X113770000Y-60460000D02*
X118427624Y-60460000D01*
X148050000Y-56380000D02*
X160230000Y-56380000D01*
X102280000Y-70500000D02*
X102300000Y-70520000D01*
X99140000Y-75620000D02*
X99140000Y-79640000D01*
X97720000Y-84700000D02*
X99150000Y-83270000D01*
X104265499Y-64220001D02*
X104265499Y-61110000D01*
X104265499Y-61110000D02*
X102790000Y-61110000D01*
X102310000Y-72010000D02*
X102310000Y-72450000D01*
X89550000Y-87840000D02*
X89550000Y-86570000D01*
X131310000Y-48690000D02*
X131310000Y-51230000D01*
D64*
X121560000Y-63000000D02*
X121410000Y-62850000D01*
D65*
X134300000Y-64160000D02*
X134320000Y-64180000D01*
D64*
X124500000Y-61587500D02*
X124500000Y-60927107D01*
X130000000Y-70710000D02*
X130620000Y-71330000D01*
D65*
X132898812Y-72391188D02*
X131511188Y-72391188D01*
X134300000Y-59740000D02*
X134300000Y-64160000D01*
X134300000Y-59740000D02*
X137660000Y-56380000D01*
X102280000Y-61690000D02*
X102280000Y-70500000D01*
X89540000Y-96310000D02*
X88514000Y-97336000D01*
X154870000Y-52680000D02*
X154870000Y-49980000D01*
X120407624Y-62440000D02*
X121410000Y-62440000D01*
X118427624Y-60460000D02*
X120407624Y-62440000D01*
X134284877Y-70975123D02*
X133950000Y-71310000D01*
X123790000Y-59200000D02*
X123790000Y-59750000D01*
X137660000Y-56380000D02*
X148050000Y-56380000D01*
X113770000Y-60460000D02*
X113770000Y-70640000D01*
D64*
X132610000Y-62770000D02*
X133250000Y-62770000D01*
D65*
X162840000Y-58990000D02*
X163890000Y-60040000D01*
%TO.N,+3.3VA*%
X107760000Y-108630000D02*
X107760000Y-107860000D01*
X113073000Y-116533000D02*
X115304000Y-116533000D01*
X105950000Y-99600000D02*
X107840000Y-99600000D01*
X126670000Y-118770000D02*
X127680000Y-118770000D01*
X136519999Y-118710000D02*
X138300000Y-120490001D01*
D64*
X132180000Y-120740000D02*
X132040000Y-120600000D01*
D65*
X115520000Y-113440000D02*
X115520000Y-114446000D01*
X124140000Y-112850000D02*
X124140000Y-99640000D01*
X115304000Y-115246000D02*
X115304000Y-116533000D01*
D64*
X133818000Y-117554000D02*
X134518000Y-117554000D01*
D65*
X85444000Y-107860000D02*
X80000000Y-102416000D01*
X124800000Y-129860000D02*
X111660000Y-129860000D01*
X124800000Y-126330000D02*
X124800000Y-129860000D01*
D64*
X129018000Y-116054000D02*
X128184000Y-116054000D01*
D65*
X135170000Y-129860000D02*
X132200000Y-129860000D01*
X138300000Y-120490001D02*
X138300000Y-126730000D01*
X124810000Y-123060000D02*
X124810000Y-119870000D01*
D64*
X128616000Y-118054000D02*
X127900000Y-118770000D01*
D65*
X103866000Y-101684000D02*
X105950000Y-99600000D01*
X124810000Y-119870000D02*
X125910000Y-118770000D01*
D64*
X128184000Y-116054000D02*
X127930000Y-115800000D01*
D65*
X138300000Y-126730000D02*
X135170000Y-129860000D01*
X112980000Y-116440000D02*
X113073000Y-116533000D01*
X126747892Y-115797892D02*
X126750000Y-115800000D01*
D64*
X132040000Y-119589045D02*
X132168000Y-119461045D01*
D65*
X125347892Y-115797892D02*
X124140000Y-114590000D01*
X115520000Y-114446000D02*
X115511000Y-114455000D01*
D64*
X129018000Y-118054000D02*
X128616000Y-118054000D01*
D65*
X125910000Y-118770000D02*
X126670000Y-118770000D01*
X132200000Y-129860000D02*
X124800000Y-129860000D01*
X132180000Y-129840000D02*
X132200000Y-129860000D01*
X124810000Y-126320000D02*
X124800000Y-126330000D01*
D64*
X135200000Y-118236000D02*
X135200000Y-118710000D01*
D65*
X112251000Y-116440000D02*
X112980000Y-116440000D01*
X107760000Y-108630000D02*
X107760000Y-99680000D01*
X107840000Y-99600000D02*
X124180000Y-99600000D01*
X103866000Y-103424002D02*
X103866000Y-101684000D01*
X132180000Y-121760000D02*
X132180000Y-129840000D01*
X125724306Y-115797892D02*
X126747892Y-115797892D01*
X115511000Y-115039000D02*
X115304000Y-115246000D01*
X115511000Y-114455000D02*
X115511000Y-115039000D01*
D64*
X127930000Y-115800000D02*
X126750000Y-115800000D01*
X127900000Y-118770000D02*
X127680000Y-118770000D01*
D65*
X125724306Y-115797892D02*
X125347892Y-115797892D01*
X109610000Y-129860000D02*
X107800000Y-128050000D01*
X107760000Y-107860000D02*
X85444000Y-107860000D01*
X124140000Y-99640000D02*
X124180000Y-99600000D01*
X107760000Y-99680000D02*
X107840000Y-99600000D01*
X136210000Y-118710000D02*
X136519999Y-118710000D01*
D64*
X134518000Y-117554000D02*
X135200000Y-118236000D01*
D65*
X132180000Y-120740000D02*
X132180000Y-121760000D01*
D64*
X132168000Y-119461045D02*
X132168000Y-118704000D01*
D65*
X111660000Y-129860000D02*
X109610000Y-129860000D01*
X135040000Y-113220000D02*
X136040000Y-113220000D01*
D64*
X132040000Y-120600000D02*
X132040000Y-119589045D01*
D65*
X135200000Y-118710000D02*
X136210000Y-118710000D01*
%TO.N,ADF4351_TEMP*%
X132310000Y-112548000D02*
X132312000Y-112550000D01*
D64*
X132312000Y-112550000D02*
X132168000Y-112694000D01*
D65*
X132310000Y-111530000D02*
X132310000Y-112548000D01*
D64*
X132168000Y-112694000D02*
X132168000Y-113904000D01*
D65*
%TO.N,ADF4351_VCOM*%
X129755000Y-109327000D02*
X129755000Y-110289000D01*
D64*
X129767000Y-110301000D02*
X129767000Y-110667000D01*
X129767000Y-110667000D02*
X130168000Y-111068000D01*
X130168000Y-111068000D02*
X130168000Y-113904000D01*
D65*
X129755000Y-110289000D02*
X129767000Y-110301000D01*
%TO.N,+3.3VA_VOUT*%
X94190000Y-96250000D02*
X90564000Y-99876000D01*
X97660000Y-96260000D02*
X107010000Y-96260000D01*
X107010000Y-96260000D02*
X107780000Y-97030000D01*
X107780000Y-97030000D02*
X107780000Y-98032000D01*
X95660000Y-96250000D02*
X94190000Y-96250000D01*
X107780000Y-98032000D02*
X103855000Y-98032000D01*
X90564000Y-99876000D02*
X80000000Y-99876000D01*
D64*
%TO.N,Net-(Y1-OUT)*%
X117220000Y-116549000D02*
X117204000Y-116533000D01*
X119684000Y-116549000D02*
X117220000Y-116549000D01*
%TO.N,ADF4351_REFIN*%
X124254000Y-116554000D02*
X124250000Y-116550000D01*
X129018000Y-116554000D02*
X124254000Y-116554000D01*
%TO.N,ADF4351_VREF*%
X129668000Y-113258000D02*
X129668000Y-113904000D01*
X129301000Y-112499000D02*
X129301000Y-112891000D01*
D65*
X129300000Y-111510000D02*
X129300000Y-112498000D01*
X129300000Y-112498000D02*
X129301000Y-112499000D01*
D64*
X129301000Y-112891000D02*
X129668000Y-113258000D01*
D65*
%TO.N,Net-(IC4-RF_IN_1)*%
X147300000Y-116550000D02*
X147330000Y-116520000D01*
D63*
X146640000Y-116540000D02*
X148360000Y-116540000D01*
D64*
%TO.N,/GRF5509_VEN1*%
X147983000Y-115263000D02*
X146075000Y-113355000D01*
X148550000Y-115263000D02*
X147983000Y-115263000D01*
X143485000Y-113355000D02*
X142328000Y-112198000D01*
X146075000Y-113355000D02*
X145394000Y-113355000D01*
X142328000Y-110194000D02*
X142328000Y-112198000D01*
X145394000Y-113355000D02*
X143485000Y-113355000D01*
%TO.N,/GRF5509_VEN2*%
X143930000Y-110690000D02*
X143930000Y-110190000D01*
X144340000Y-111100000D02*
X143930000Y-110690000D01*
X147050000Y-111100000D02*
X146500000Y-111100000D01*
X148980000Y-113410000D02*
X148080000Y-113410000D01*
X149300000Y-114513000D02*
X149300000Y-113730000D01*
X147390000Y-111440000D02*
X147050000Y-111100000D01*
X148080000Y-113410000D02*
X147390000Y-112720000D01*
X147390000Y-112720000D02*
X147390000Y-111440000D01*
X149300000Y-113730000D02*
X148980000Y-113410000D01*
X146500000Y-111100000D02*
X144340000Y-111100000D01*
%TO.N,STM32_NRST*%
X120990000Y-59490000D02*
X118010000Y-59490000D01*
X116990000Y-58470000D02*
X116990000Y-56970000D01*
X116990000Y-56970000D02*
X116990000Y-52260000D01*
X124370000Y-62870000D02*
X120990000Y-59490000D01*
X116990000Y-52260000D02*
X117000000Y-52250000D01*
X123087500Y-66000000D02*
X124130000Y-66000000D01*
X124370000Y-65760000D02*
X124370000Y-62870000D01*
X118010000Y-59490000D02*
X116990000Y-58470000D01*
X117000000Y-52250000D02*
X109000000Y-52250000D01*
X124130000Y-66000000D02*
X124370000Y-65760000D01*
%TO.N,Net-(IC4-GND{slash}NC_8)*%
X148640000Y-112840000D02*
X148640000Y-112430000D01*
X149800000Y-114513000D02*
X149800000Y-113621888D01*
X149800000Y-113621888D02*
X149158112Y-112980000D01*
X148640000Y-110384000D02*
X148620000Y-110364000D01*
X148780000Y-112980000D02*
X148640000Y-112840000D01*
X148640000Y-112430000D02*
X148640000Y-110384000D01*
X149158112Y-112980000D02*
X148780000Y-112980000D01*
D63*
%TO.N,/GRF5509_RFOUT*%
X168590000Y-116540000D02*
X161870000Y-116540000D01*
X169021500Y-116540000D02*
X169030000Y-116531500D01*
X168590000Y-116540000D02*
X168600000Y-116530000D01*
D65*
%TO.N,VDDA*%
X121280000Y-68520000D02*
X120525000Y-69275000D01*
D64*
X121280000Y-67260000D02*
X121830000Y-67260000D01*
D65*
X121280000Y-67260000D02*
X121280000Y-68520000D01*
X120516501Y-70278499D02*
X120525000Y-70270000D01*
X118970000Y-70278499D02*
X120516501Y-70278499D01*
D64*
X122090001Y-66999999D02*
X123087500Y-66999999D01*
X121830000Y-67260000D02*
X122090001Y-66999999D01*
D65*
X120525000Y-69275000D02*
X120525000Y-70270000D01*
D64*
%TO.N,STM32_HSE_IN*%
X116570000Y-63100000D02*
X116291000Y-63379000D01*
X121530000Y-64480000D02*
X119430000Y-64480000D01*
X116291000Y-63379000D02*
X116291000Y-64109000D01*
X122050001Y-65000001D02*
X121530000Y-64480000D01*
X118910000Y-64480000D02*
X117530000Y-63100000D01*
X123087500Y-65000000D02*
X122590000Y-65000001D01*
X117530000Y-63100000D02*
X116570000Y-63100000D01*
X119430000Y-64480000D02*
X118910000Y-64480000D01*
X122590000Y-65000001D02*
X122050001Y-65000001D01*
%TO.N,STM32_HSE_OUT*%
X119443000Y-66385000D02*
X118855000Y-66385000D01*
X118855000Y-66385000D02*
X117853000Y-65383000D01*
X117853000Y-65383000D02*
X117265000Y-65383000D01*
X120055000Y-66385000D02*
X119443000Y-66385000D01*
X120940000Y-65500000D02*
X120055000Y-66385000D01*
X123087500Y-65500000D02*
X120940000Y-65500000D01*
D66*
%TO.N,/12V_IN*%
X86570000Y-80770000D02*
X92030000Y-80770000D01*
X85390000Y-79590000D02*
X86570000Y-80770000D01*
X79990000Y-79590000D02*
X85390000Y-79590000D01*
D64*
%TO.N,Net-(D2-A)*%
X110367000Y-85800000D02*
X111800000Y-85800000D01*
D65*
%TO.N,Net-(D3-A)*%
X108200000Y-58800000D02*
X109650000Y-58800000D01*
D64*
%TO.N,Net-(D4-A)*%
X144930000Y-58200000D02*
X146554002Y-58200000D01*
X146554002Y-58200000D02*
X146559002Y-58195000D01*
D65*
%TO.N,Net-(IC4-RF_OUT{slash}VCC2_1)*%
X152776000Y-116530000D02*
X152773000Y-116527000D01*
D63*
X160230000Y-116540000D02*
X151660000Y-116540000D01*
D65*
X155152500Y-116540000D02*
X155150000Y-116537500D01*
X153837500Y-116537500D02*
X153830000Y-116530000D01*
D64*
%TO.N,CANL*%
X91745000Y-71285000D02*
X90655000Y-71285000D01*
X90655000Y-71285000D02*
X90560000Y-71190000D01*
X90560000Y-71190000D02*
X89545000Y-71190000D01*
X86770000Y-71190000D02*
X89545000Y-71190000D01*
X85170000Y-69590000D02*
X86770000Y-71190000D01*
X79990000Y-69590000D02*
X85170000Y-69590000D01*
%TO.N,CANH*%
X87040000Y-72840000D02*
X89545000Y-72840000D01*
X85290000Y-74590000D02*
X87040000Y-72840000D01*
X91745000Y-72555000D02*
X90715000Y-72555000D01*
X79990000Y-74590000D02*
X85290000Y-74590000D01*
X90430000Y-72840000D02*
X89545000Y-72840000D01*
X90715000Y-72555000D02*
X90430000Y-72840000D01*
%TO.N,MCP2551_CANRX*%
X95365000Y-70015000D02*
X96695000Y-70015000D01*
X94890000Y-69540000D02*
X95365000Y-70015000D01*
X94890000Y-51230000D02*
X94890000Y-69540000D01*
%TO.N,NRF24L01P_SSN*%
X164630000Y-69690000D02*
X165891888Y-69690000D01*
X163990000Y-70330000D02*
X164630000Y-69690000D01*
X166530000Y-69051888D02*
X166530000Y-67160000D01*
X162820000Y-73500000D02*
X163990000Y-72330000D01*
X153885000Y-73500000D02*
X162820000Y-73500000D01*
X165891888Y-69690000D02*
X166530000Y-69051888D01*
X166530000Y-67160000D02*
X165240000Y-65870000D01*
X163990000Y-72330000D02*
X163990000Y-70330000D01*
%TO.N,MCP2551_CANTX*%
X100050000Y-53850000D02*
X100050000Y-72870000D01*
X100050000Y-72870000D02*
X99095000Y-73825000D01*
X99095000Y-73825000D02*
X96695000Y-73825000D01*
X97430000Y-51230000D02*
X100050000Y-53850000D01*
%TO.N,NRF24L01P_MISO*%
X160890000Y-70950000D02*
X162700000Y-70950000D01*
X158400000Y-68420000D02*
X159060000Y-69080000D01*
X153885000Y-68420000D02*
X158400000Y-68420000D01*
X159980000Y-70040000D02*
X160890000Y-70950000D01*
%TO.N,STM32_ADC1_IN0*%
X130250000Y-67560000D02*
X130250000Y-68710000D01*
X130250000Y-68710000D02*
X143000000Y-81460000D01*
X126450000Y-66550000D02*
X129240000Y-66550000D01*
X123087500Y-67500000D02*
X125500000Y-67500000D01*
X129240000Y-66550000D02*
X130250000Y-67560000D01*
X143000000Y-81460000D02*
X164000000Y-81460000D01*
X125500000Y-67500000D02*
X126450000Y-66550000D01*
%TO.N,NRF24L01P_IRQ*%
X134760000Y-66000000D02*
X139960000Y-60800000D01*
X131412500Y-66000000D02*
X134760000Y-66000000D01*
X139960000Y-60800000D02*
X151345000Y-60800000D01*
X166000000Y-60800000D02*
X167050000Y-61850000D01*
X153885000Y-60800000D02*
X166000000Y-60800000D01*
X167050000Y-69140000D02*
X165240000Y-70950000D01*
X151345000Y-60800000D02*
X153885000Y-60800000D01*
X167050000Y-61850000D02*
X167050000Y-69140000D01*
%TO.N,NRF24L01P_MOSI*%
X157060000Y-67250000D02*
X164080000Y-67250000D01*
X164080000Y-67250000D02*
X165240000Y-68410000D01*
X155690000Y-65880000D02*
X157060000Y-67250000D01*
X153885000Y-65880000D02*
X155690000Y-65880000D01*
%TO.N,NRF24L01P_SCK*%
X153885000Y-70960000D02*
X158110000Y-70960000D01*
X160660000Y-68410000D02*
X162700000Y-68410000D01*
X158110000Y-70960000D02*
X160660000Y-68410000D01*
%TO.N,ADF4351_PDBRF*%
X129018000Y-115054000D02*
X128484000Y-115054000D01*
X128484000Y-115054000D02*
X127440000Y-114010000D01*
X127440000Y-114010000D02*
X123660000Y-114010000D01*
X123660000Y-114010000D02*
X121565000Y-111915000D01*
%TO.N,ADF4351_LD*%
X123950000Y-113520000D02*
X119805000Y-109375000D01*
X128664000Y-114554000D02*
X127630000Y-113520000D01*
X129018000Y-114554000D02*
X128664000Y-114554000D01*
X127630000Y-113520000D02*
X123950000Y-113520000D01*
X119805000Y-109375000D02*
X81265000Y-109375000D01*
%TO.N,NRF24L01P_CE*%
X153885000Y-63340000D02*
X155610000Y-63340000D01*
X158140001Y-65870001D02*
X162700000Y-65870001D01*
X155610000Y-63340000D02*
X158140001Y-65870001D01*
%TO.N,ADF4351_CE*%
X82240000Y-125590000D02*
X81265000Y-124615000D01*
X131168000Y-118704000D02*
X131168000Y-120406336D01*
X131168000Y-120406336D02*
X125984336Y-125590000D01*
%TO.N,SWCLK*%
X130000000Y-60790000D02*
X130840000Y-59950000D01*
X130840000Y-59950000D02*
X131870000Y-59950000D01*
X130000000Y-61587500D02*
X130000000Y-60790000D01*
X131870000Y-59950000D02*
X137080000Y-54740000D01*
X149790001Y-52919999D02*
X149790001Y-49980000D01*
X147970000Y-54740000D02*
X149790001Y-52919999D01*
X137080000Y-54740000D02*
X147970000Y-54740000D01*
%TO.N,SWDIO*%
X130325000Y-62585000D02*
X137390000Y-55520000D01*
X130325000Y-63753120D02*
X130325000Y-62585000D01*
X137390000Y-55520000D02*
X149200000Y-55520000D01*
X152330000Y-52390000D02*
X152330000Y-49980000D01*
X131229999Y-64000001D02*
X130571881Y-64000001D01*
X149200000Y-55520000D02*
X152330000Y-52390000D01*
X131412500Y-64000000D02*
X131229999Y-64000001D01*
X130571881Y-64000001D02*
X130325000Y-63753120D01*
%TO.N,STM32_SPI1_SCK*%
X125500000Y-75070000D02*
X122380000Y-78190000D01*
X74460000Y-92340000D02*
X74460000Y-115160000D01*
X125500000Y-69912500D02*
X125500000Y-75070000D01*
X122380000Y-85320000D02*
X118020000Y-89680000D01*
X76295000Y-116995000D02*
X78725000Y-116995000D01*
X122380000Y-78190000D02*
X122380000Y-85320000D01*
X74460000Y-115160000D02*
X76295000Y-116995000D01*
X118020000Y-89680000D02*
X77120000Y-89680000D01*
X77120000Y-89680000D02*
X74460000Y-92340000D01*
%TO.N,STM32_SPI1_MOSI*%
X79990000Y-118270000D02*
X78725000Y-119535000D01*
X118250000Y-90150000D02*
X77330000Y-90150000D01*
X125990000Y-75280000D02*
X122890000Y-78380000D01*
X125990000Y-72020000D02*
X125990000Y-75280000D01*
X77000000Y-115730000D02*
X79370000Y-115730000D01*
X122890000Y-85510000D02*
X118250000Y-90150000D01*
X74970000Y-92510000D02*
X74970000Y-113700000D01*
X77330000Y-90150000D02*
X74970000Y-92510000D01*
X126500000Y-71510000D02*
X125990000Y-72020000D01*
X126500000Y-69912500D02*
X126500000Y-71510000D01*
X79990000Y-116350000D02*
X79990000Y-118270000D01*
X79370000Y-115730000D02*
X79990000Y-116350000D01*
X74970000Y-113700000D02*
X77000000Y-115730000D01*
X122890000Y-78380000D02*
X122890000Y-85510000D01*
%TO.N,STM32_SPI1_SSN*%
X121790000Y-85070000D02*
X117780000Y-89080000D01*
X76075000Y-122075000D02*
X78725000Y-122075000D01*
X73820000Y-119820000D02*
X76075000Y-122075000D01*
X76800000Y-89080000D02*
X73820000Y-92060000D01*
X117780000Y-89080000D02*
X76800000Y-89080000D01*
X125000000Y-74800000D02*
X121790000Y-78010000D01*
X121790000Y-78010000D02*
X121790000Y-85070000D01*
X73820000Y-92060000D02*
X73820000Y-119820000D01*
X125000000Y-69912500D02*
X125000000Y-74800000D01*
%TO.N,STM32_ADF_CE*%
X73300000Y-91860000D02*
X73300000Y-122570000D01*
X121260000Y-84870000D02*
X117560000Y-88570000D01*
X124500000Y-69912500D02*
X124500000Y-74580000D01*
X117560000Y-88570000D02*
X76590000Y-88570000D01*
X76590000Y-88570000D02*
X73300000Y-91860000D01*
X73300000Y-122570000D02*
X75345000Y-124615000D01*
X124500000Y-74580000D02*
X121260000Y-77820000D01*
X121260000Y-77820000D02*
X121260000Y-84870000D01*
X75345000Y-124615000D02*
X78725000Y-124615000D01*
%TO.N,STM32_ADF_PDBRF*%
X118490000Y-90750000D02*
X77650000Y-90750000D01*
X127000000Y-71730000D02*
X126510000Y-72220000D01*
X75590000Y-110990000D02*
X76515000Y-111915000D01*
X75590000Y-92810000D02*
X75590000Y-110990000D01*
X127000000Y-69912500D02*
X127000000Y-71730000D01*
X77650000Y-90750000D02*
X75590000Y-92810000D01*
X123470000Y-78630000D02*
X123470000Y-85770000D01*
X123470000Y-85770000D02*
X118490000Y-90750000D01*
X76515000Y-111915000D02*
X78725000Y-111915000D01*
X126510000Y-72220000D02*
X126510000Y-75590000D01*
X126510000Y-75590000D02*
X123470000Y-78630000D01*
%TO.N,STM32_SPI2_SCK*%
X137960000Y-70960000D02*
X151345000Y-70960000D01*
X131412500Y-68000000D02*
X135000000Y-68000000D01*
X135000000Y-68000000D02*
X137960000Y-70960000D01*
%TO.N,STM32_SPI2_MISO*%
X131412500Y-67500000D02*
X135320000Y-67500000D01*
X136240000Y-68420000D02*
X151345000Y-68420000D01*
X135320000Y-67500000D02*
X136240000Y-68420000D01*
%TO.N,STM32_SPI2_MOSI*%
X131412500Y-66999999D02*
X135370001Y-66999999D01*
X136490001Y-65879999D02*
X151345000Y-65879999D01*
X135370001Y-66999999D02*
X136490001Y-65879999D01*
%TO.N,STM32_SPI2_SSN*%
X139710000Y-73500000D02*
X151345000Y-73500000D01*
X131412500Y-68500000D02*
X134710000Y-68500000D01*
X134710000Y-68500000D02*
X139710000Y-73500000D01*
%TO.N,STM32_NRF_CE*%
X135060000Y-66500000D02*
X138220000Y-63340000D01*
X131412500Y-66500000D02*
X135060000Y-66500000D01*
X138220000Y-63340000D02*
X151345000Y-63340000D01*
%TO.N,STM32_CANTX*%
X125500000Y-61587500D02*
X125500000Y-60130000D01*
X125500000Y-60130000D02*
X126400000Y-59230000D01*
X101810000Y-50110000D02*
X100390000Y-48690000D01*
X126400000Y-59230000D02*
X126400000Y-52660000D01*
X123850000Y-50110000D02*
X101810000Y-50110000D01*
X126400000Y-52660000D02*
X123850000Y-50110000D01*
X100390000Y-48690000D02*
X97430000Y-48690000D01*
%TO.N,STM32_CANRX*%
X124060000Y-49560000D02*
X103860000Y-49560000D01*
X95860000Y-45860000D02*
X94890000Y-46830000D01*
X126920000Y-59410000D02*
X126920000Y-52420000D01*
X126000001Y-61587500D02*
X126000001Y-60329999D01*
X94890000Y-46830000D02*
X94890000Y-48690000D01*
X126000001Y-60329999D02*
X126920000Y-59410000D01*
X126920000Y-52420000D02*
X124060000Y-49560000D01*
X100160000Y-45860000D02*
X95860000Y-45860000D01*
X103860000Y-49560000D02*
X100160000Y-45860000D01*
D65*
%TO.N,Net-(Y1-OE)*%
X113100000Y-118090000D02*
X113157000Y-118033000D01*
X113157000Y-118033000D02*
X115304000Y-118033000D01*
X112251000Y-118090000D02*
X113100000Y-118090000D01*
D64*
%TO.N,/STM32_USER_LED*%
X131412500Y-65500000D02*
X134520000Y-65500000D01*
X134520000Y-65500000D02*
X141820000Y-58200000D01*
X141820000Y-58200000D02*
X143280000Y-58200000D01*
%TO.N,STM32_BOOT0*%
X130830000Y-59520000D02*
X133850000Y-56500000D01*
X126500000Y-61587500D02*
X126500000Y-60746880D01*
X133850000Y-56500000D02*
X133850000Y-55575000D01*
X126500000Y-60746880D02*
X127726880Y-59520000D01*
X127726880Y-59520000D02*
X130830000Y-59520000D01*
%TO.N,Net-(J10-Pin_5)*%
X129150000Y-46170000D02*
X132840000Y-46170000D01*
X128010000Y-49335000D02*
X128010000Y-47310000D01*
X132840000Y-46170000D02*
X133850000Y-47180000D01*
X128010000Y-47310000D02*
X129150000Y-46170000D01*
X133850000Y-47180000D02*
X133850000Y-48690000D01*
%TO.N,STM32_USART3_RX*%
X129000000Y-80840000D02*
X137170000Y-89010000D01*
X137170000Y-89010000D02*
X164000000Y-89010000D01*
X129000000Y-69912500D02*
X129000000Y-80840000D01*
%TO.N,STM32_USART3_TX*%
X139020000Y-91550000D02*
X164000000Y-91550000D01*
X128499999Y-69912500D02*
X128499999Y-81029999D01*
X128499999Y-81029999D02*
X139020000Y-91550000D01*
%TO.N,STM32_ADF_LD*%
X76250000Y-93050000D02*
X76250000Y-108620000D01*
X127040000Y-75830000D02*
X124020000Y-78850000D01*
X76250000Y-108620000D02*
X77005000Y-109375000D01*
X118700000Y-91350000D02*
X77950000Y-91350000D01*
X77005000Y-109375000D02*
X78725000Y-109375000D01*
X124020000Y-86030000D02*
X118700000Y-91350000D01*
X124020000Y-78850000D02*
X124020000Y-86030000D01*
X127500000Y-71990000D02*
X127040000Y-72450000D01*
X77950000Y-91350000D02*
X76250000Y-93050000D01*
X127500000Y-69912500D02*
X127500000Y-71990000D01*
X127040000Y-72450000D02*
X127040000Y-75830000D01*
%TO.N,STM32_ADF_MUXOUT*%
X127680000Y-76010000D02*
X124580000Y-79110000D01*
X127680000Y-73300000D02*
X127680000Y-76010000D01*
X124580000Y-79110000D02*
X124580000Y-86310000D01*
X76860000Y-93330000D02*
X76860000Y-105930000D01*
X79130000Y-107200000D02*
X80010000Y-108080000D01*
X80010000Y-108080000D02*
X80010000Y-113169999D01*
X76860000Y-105930000D02*
X78130000Y-107200000D01*
X78230000Y-91960000D02*
X76860000Y-93330000D01*
X78130000Y-107200000D02*
X79130000Y-107200000D01*
X123087500Y-68500000D02*
X125620000Y-68500000D01*
X118930000Y-91960000D02*
X78230000Y-91960000D01*
X124580000Y-86310000D02*
X118930000Y-91960000D01*
X125620000Y-68500000D02*
X125630000Y-68510000D01*
X80010000Y-113169999D02*
X78725000Y-114454999D01*
%TO.N,Net-(J10-Pin_2)*%
X133850000Y-53925000D02*
X133850000Y-51230000D01*
%TO.N,Net-(U1-Rs)*%
X89930000Y-73825000D02*
X89560000Y-74195000D01*
X89560000Y-74195000D02*
X89560000Y-74840000D01*
X91745000Y-73825000D02*
X89930000Y-73825000D01*
%TO.N,Net-(U3-RSET)*%
X130668000Y-110242000D02*
X130668000Y-113904000D01*
X131116000Y-109794000D02*
X130668000Y-110242000D01*
%TO.N,Net-(IC4-VCC1)*%
X150800000Y-114513000D02*
X150800000Y-113595000D01*
X150800000Y-113595000D02*
X150602000Y-113397000D01*
D68*
%TO.N,Net-(IC4-BIAS)*%
X151550000Y-115263000D02*
X151550000Y-115097000D01*
X151550000Y-115097000D02*
X154130000Y-112517000D01*
D64*
%TO.N,STM32_BOOT1*%
X128000000Y-65820000D02*
X128000000Y-63000000D01*
X128000000Y-69912500D02*
X128000000Y-67190000D01*
X128010000Y-58650000D02*
X128010000Y-50985000D01*
X128000000Y-67190000D02*
X127990000Y-67180000D01*
%TO.N,Net-(C35-Pad2)*%
X122700000Y-116550000D02*
X121235000Y-116550000D01*
X121235000Y-116550000D02*
X121234000Y-116549000D01*
D65*
%TO.N,Net-(C39-Pad1)*%
X145345000Y-116535000D02*
X145360000Y-116550000D01*
X144335000Y-116540000D02*
X144340000Y-116535000D01*
D63*
X143740000Y-116540000D02*
X144910000Y-116540000D01*
D64*
%TO.N,ADF4351_SW*%
X131668000Y-119272000D02*
X131598000Y-119342000D01*
X131598000Y-120792000D02*
X128335000Y-124055000D01*
X131668000Y-118704000D02*
X131668000Y-119272000D01*
X131598000Y-119342000D02*
X131598000Y-120792000D01*
X128335000Y-124055000D02*
X128335000Y-124940000D01*
%TO.N,Net-(R4-Pad2)*%
X131390000Y-124940000D02*
X131410000Y-124960000D01*
X135796000Y-106734000D02*
X135796000Y-108144000D01*
X129985000Y-124940000D02*
X131390000Y-124940000D01*
D65*
%TO.N,+3.3VA*%
X107770000Y-113440000D02*
X107770000Y-112650000D01*
X115520000Y-113440000D02*
X107770000Y-113440000D01*
X107790000Y-122500000D02*
X107770000Y-122480000D01*
X107800000Y-126340000D02*
X107790000Y-126330000D01*
X107800000Y-126950000D02*
X107800000Y-126340000D01*
%TD*%
%TA.AperFunction,Conductor*%
%TO.N,+5V*%
G36*
X98515039Y-102849686D02*
G01*
X98547200Y-102879601D01*
X98809999Y-103230001D01*
X98810000Y-103230001D01*
X100158638Y-103230001D01*
X100225677Y-103249686D01*
X100246319Y-103266320D01*
X100373681Y-103393682D01*
X100407166Y-103455005D01*
X100410000Y-103481363D01*
X100410000Y-104060500D01*
X100390315Y-104127539D01*
X100337511Y-104173294D01*
X100286000Y-104184500D01*
X98915861Y-104184500D01*
X98848822Y-104164815D01*
X98828180Y-104148181D01*
X98810000Y-104130001D01*
X97561362Y-104130001D01*
X97494323Y-104110316D01*
X97473681Y-104093682D01*
X97246319Y-103866320D01*
X97212834Y-103804997D01*
X97210000Y-103778639D01*
X97210000Y-103181363D01*
X97229685Y-103114324D01*
X97246319Y-103093682D01*
X97473681Y-102866320D01*
X97535004Y-102832835D01*
X97561362Y-102830001D01*
X98448000Y-102830001D01*
X98515039Y-102849686D01*
G37*
%TD.AperFunction*%
%TD*%
%TA.AperFunction,Conductor*%
%TO.N,+3.3VA*%
G36*
X115708447Y-112999685D02*
G01*
X115725655Y-113013014D01*
X115859747Y-113137173D01*
X115895564Y-113197163D01*
X115899500Y-113228159D01*
X115899500Y-113663070D01*
X115902289Y-113692814D01*
X115902291Y-113692826D01*
X115946147Y-113818156D01*
X115948630Y-113822854D01*
X115962995Y-113880217D01*
X115963546Y-113999697D01*
X115944170Y-114066827D01*
X115939324Y-114073893D01*
X115937150Y-114076838D01*
X115937145Y-114076848D01*
X115893291Y-114202173D01*
X115893289Y-114202185D01*
X115890500Y-114231929D01*
X115890500Y-114678070D01*
X115893289Y-114707814D01*
X115893291Y-114707826D01*
X115937147Y-114833155D01*
X115943536Y-114841812D01*
X115967506Y-114907442D01*
X115967763Y-114914872D01*
X115970000Y-115400000D01*
X116081131Y-115677828D01*
X116090000Y-115723879D01*
X116090000Y-116816753D01*
X116070315Y-116883792D01*
X116063106Y-116893866D01*
X115857234Y-117153113D01*
X115800128Y-117193371D01*
X115760128Y-117200000D01*
X111832211Y-117200000D01*
X111765172Y-117180315D01*
X111732809Y-117150130D01*
X111356041Y-116644919D01*
X111331743Y-116579411D01*
X111331518Y-116566478D01*
X111358375Y-115796563D01*
X111380385Y-115730254D01*
X111391882Y-115716033D01*
X113923265Y-113019137D01*
X113983498Y-112983728D01*
X114013677Y-112980000D01*
X115641408Y-112980000D01*
X115708447Y-112999685D01*
G37*
%TD.AperFunction*%
%TD*%
%TA.AperFunction,Conductor*%
%TO.N,GND*%
G36*
X124145609Y-125960185D02*
G01*
X124191364Y-126012989D01*
X124201308Y-126082147D01*
X124194512Y-126108471D01*
X124173762Y-126163181D01*
X124154722Y-126319999D01*
X124154722Y-126320000D01*
X124173762Y-126476818D01*
X124229780Y-126624523D01*
X124229781Y-126624524D01*
X124323778Y-126760703D01*
X124322324Y-126761706D01*
X124348035Y-126816396D01*
X124349500Y-126835400D01*
X124349500Y-126876000D01*
X124329815Y-126943039D01*
X124277011Y-126988794D01*
X124225500Y-127000000D01*
X110124000Y-127000000D01*
X110056961Y-126980315D01*
X110011206Y-126927511D01*
X110000000Y-126876000D01*
X110000000Y-126064500D01*
X110019685Y-125997461D01*
X110072489Y-125951706D01*
X110124000Y-125940500D01*
X124078570Y-125940500D01*
X124145609Y-125960185D01*
G37*
%TD.AperFunction*%
%TA.AperFunction,Conductor*%
G36*
X131627388Y-121360807D02*
G01*
X131683321Y-121402679D01*
X131707738Y-121468143D01*
X131706993Y-121493172D01*
X131699500Y-121550095D01*
X131699500Y-121969894D01*
X131706029Y-122019491D01*
X131717881Y-122044906D01*
X131729500Y-122097313D01*
X131729500Y-124310906D01*
X131709815Y-124377945D01*
X131657011Y-124423700D01*
X131587853Y-124433644D01*
X131558051Y-124425468D01*
X131553709Y-124423670D01*
X131481854Y-124414210D01*
X131410001Y-124404750D01*
X131409999Y-124404750D01*
X131266291Y-124423670D01*
X131266287Y-124423671D01*
X131132377Y-124479137D01*
X131090501Y-124511270D01*
X131021943Y-124563876D01*
X130956775Y-124589070D01*
X130946458Y-124589500D01*
X130672010Y-124589500D01*
X130604971Y-124569815D01*
X130561526Y-124521796D01*
X130536426Y-124472537D01*
X130513050Y-124426658D01*
X130513047Y-124426655D01*
X130513045Y-124426652D01*
X130423347Y-124336954D01*
X130423344Y-124336952D01*
X130423342Y-124336950D01*
X130332450Y-124290638D01*
X130310301Y-124279352D01*
X130216524Y-124264500D01*
X129753482Y-124264500D01*
X129672519Y-124277323D01*
X129659696Y-124279354D01*
X129546658Y-124336950D01*
X129546657Y-124336951D01*
X129546652Y-124336954D01*
X129456954Y-124426652D01*
X129456951Y-124426657D01*
X129456950Y-124426658D01*
X129437751Y-124464337D01*
X129399352Y-124539698D01*
X129384500Y-124633475D01*
X129384500Y-125246517D01*
X129387172Y-125263386D01*
X129399354Y-125340304D01*
X129456950Y-125453342D01*
X129456952Y-125453344D01*
X129456954Y-125453347D01*
X129546652Y-125543045D01*
X129546654Y-125543046D01*
X129546658Y-125543050D01*
X129659694Y-125600645D01*
X129659698Y-125600647D01*
X129753475Y-125615499D01*
X129753481Y-125615500D01*
X130216518Y-125615499D01*
X130310304Y-125600646D01*
X130423342Y-125543050D01*
X130513050Y-125453342D01*
X130544592Y-125391436D01*
X130561526Y-125358204D01*
X130609500Y-125307409D01*
X130672010Y-125290500D01*
X130908562Y-125290500D01*
X130975601Y-125310185D01*
X131006937Y-125339013D01*
X131017379Y-125352622D01*
X131046267Y-125374788D01*
X131132375Y-125440861D01*
X131266291Y-125496330D01*
X131393280Y-125513048D01*
X131409999Y-125515250D01*
X131410000Y-125515250D01*
X131410001Y-125515250D01*
X131424977Y-125513278D01*
X131553709Y-125496330D01*
X131558043Y-125494534D01*
X131627509Y-125487062D01*
X131689991Y-125518333D01*
X131725646Y-125578420D01*
X131729500Y-125609093D01*
X131729500Y-126876000D01*
X131709815Y-126943039D01*
X131657011Y-126988794D01*
X131605500Y-127000000D01*
X125374500Y-127000000D01*
X125307461Y-126980315D01*
X125261706Y-126927511D01*
X125250500Y-126876000D01*
X125250500Y-126854618D01*
X125270185Y-126787579D01*
X125292274Y-126761801D01*
X125300483Y-126754530D01*
X125390220Y-126624523D01*
X125446237Y-126476818D01*
X125465278Y-126320000D01*
X125446237Y-126163182D01*
X125425488Y-126108471D01*
X125420121Y-126038808D01*
X125453268Y-125977302D01*
X125514407Y-125943480D01*
X125541430Y-125940500D01*
X126030478Y-125940500D01*
X126030480Y-125940500D01*
X126119624Y-125916614D01*
X126199548Y-125870470D01*
X127522821Y-124547196D01*
X127584142Y-124513713D01*
X127653834Y-124518697D01*
X127709767Y-124560569D01*
X127734184Y-124626033D01*
X127734500Y-124634879D01*
X127734500Y-125246517D01*
X127737172Y-125263386D01*
X127749354Y-125340304D01*
X127806950Y-125453342D01*
X127806952Y-125453344D01*
X127806954Y-125453347D01*
X127896652Y-125543045D01*
X127896654Y-125543046D01*
X127896658Y-125543050D01*
X128009694Y-125600645D01*
X128009698Y-125600647D01*
X128103475Y-125615499D01*
X128103481Y-125615500D01*
X128566518Y-125615499D01*
X128660304Y-125600646D01*
X128773342Y-125543050D01*
X128863050Y-125453342D01*
X128920646Y-125340304D01*
X128920646Y-125340302D01*
X128920647Y-125340301D01*
X128931282Y-125273147D01*
X128935500Y-125246519D01*
X128935499Y-124633482D01*
X128920646Y-124539696D01*
X128863050Y-124426658D01*
X128863046Y-124426654D01*
X128863045Y-124426652D01*
X128773347Y-124336954D01*
X128773343Y-124336951D01*
X128773342Y-124336950D01*
X128773340Y-124336949D01*
X128765450Y-124331217D01*
X128766803Y-124329353D01*
X128725816Y-124290638D01*
X128709024Y-124222816D01*
X128731565Y-124156682D01*
X128745223Y-124140458D01*
X131496375Y-121389306D01*
X131557696Y-121355823D01*
X131627388Y-121360807D01*
G37*
%TD.AperFunction*%
%TA.AperFunction,Conductor*%
G36*
X135070711Y-108391964D02*
G01*
X135122187Y-108439208D01*
X135133930Y-108464922D01*
X135135352Y-108469298D01*
X135135353Y-108469300D01*
X135135354Y-108469304D01*
X135192950Y-108582342D01*
X135192952Y-108582344D01*
X135192954Y-108582347D01*
X135282652Y-108672045D01*
X135282654Y-108672046D01*
X135282658Y-108672050D01*
X135395694Y-108729645D01*
X135395698Y-108729647D01*
X135489475Y-108744499D01*
X135489481Y-108744500D01*
X136102518Y-108744499D01*
X136196304Y-108729646D01*
X136309342Y-108672050D01*
X136380175Y-108601216D01*
X136441496Y-108567733D01*
X136511188Y-108572717D01*
X136555536Y-108601218D01*
X136628546Y-108674228D01*
X136662031Y-108735551D01*
X136657047Y-108805243D01*
X136650319Y-108819524D01*
X136593671Y-108956287D01*
X136593670Y-108956291D01*
X136574750Y-109099999D01*
X136574750Y-109100000D01*
X136593670Y-109243708D01*
X136593671Y-109243712D01*
X136649137Y-109377622D01*
X136649138Y-109377624D01*
X136649139Y-109377625D01*
X136737379Y-109492621D01*
X136852375Y-109580861D01*
X136852376Y-109580861D01*
X136852377Y-109580862D01*
X136875677Y-109590513D01*
X136986291Y-109636330D01*
X137011176Y-109639606D01*
X137075069Y-109667870D01*
X137113541Y-109726193D01*
X137114374Y-109796058D01*
X137082670Y-109850225D01*
X136179716Y-110753181D01*
X136118393Y-110786666D01*
X136092035Y-110789500D01*
X134688315Y-110789500D01*
X134573738Y-110820201D01*
X134559366Y-110828499D01*
X134515188Y-110854005D01*
X134471011Y-110879510D01*
X134471008Y-110879512D01*
X133619513Y-111731007D01*
X133619509Y-111731013D01*
X133560201Y-111833736D01*
X133560200Y-111833741D01*
X133529500Y-111948315D01*
X133529500Y-113090500D01*
X133509815Y-113157539D01*
X133457011Y-113203294D01*
X133405500Y-113214500D01*
X133142492Y-113214500D01*
X133098813Y-113219197D01*
X133047325Y-113230397D01*
X133037127Y-113232890D01*
X133037124Y-113232891D01*
X132956416Y-113275899D01*
X132956413Y-113275901D01*
X132903604Y-113321660D01*
X132885655Y-113339246D01*
X132881413Y-113346831D01*
X132876299Y-113355180D01*
X132829132Y-113425769D01*
X132829131Y-113425770D01*
X132817500Y-113484247D01*
X132817500Y-113503832D01*
X132816238Y-113521478D01*
X132813000Y-113543998D01*
X132813000Y-114355670D01*
X132815382Y-114386870D01*
X132815384Y-114386881D01*
X132821099Y-114424086D01*
X132821101Y-114424092D01*
X132853508Y-114507295D01*
X132892404Y-114565333D01*
X132892408Y-114565338D01*
X132931543Y-114608786D01*
X132931548Y-114608791D01*
X132943959Y-114619134D01*
X132953854Y-114626874D01*
X132953952Y-114626951D01*
X132966299Y-114636009D01*
X133029957Y-114667490D01*
X133090950Y-114685399D01*
X133149727Y-114723174D01*
X133157298Y-114733413D01*
X133157503Y-114733267D01*
X133189829Y-114778337D01*
X133192011Y-114781007D01*
X133219193Y-114845372D01*
X133217843Y-114878162D01*
X133218097Y-114878187D01*
X133217660Y-114882617D01*
X133217618Y-114883655D01*
X133217500Y-114884247D01*
X133217500Y-114884252D01*
X133217500Y-115223748D01*
X133221011Y-115241399D01*
X133228651Y-115279810D01*
X133228651Y-115328190D01*
X133218987Y-115376776D01*
X133217500Y-115384252D01*
X133217500Y-115723748D01*
X133219034Y-115731461D01*
X133228651Y-115779810D01*
X133228651Y-115828190D01*
X133220372Y-115869815D01*
X133217500Y-115884252D01*
X133217500Y-116223748D01*
X133221011Y-116241399D01*
X133228651Y-116279810D01*
X133228651Y-116328190D01*
X133217500Y-116384252D01*
X133217500Y-116723752D01*
X133229131Y-116782229D01*
X133229132Y-116782230D01*
X133273447Y-116848552D01*
X133339769Y-116892867D01*
X133339770Y-116892868D01*
X133398247Y-116904499D01*
X133398250Y-116904500D01*
X133398252Y-116904500D01*
X133771856Y-116904500D01*
X134418241Y-116904500D01*
X134485280Y-116924185D01*
X134521343Y-116959609D01*
X134524724Y-116964669D01*
X134524727Y-116964673D01*
X134551873Y-116991819D01*
X134585358Y-117053142D01*
X134580374Y-117122834D01*
X134538502Y-117178767D01*
X134473038Y-117203184D01*
X134464192Y-117203500D01*
X133398247Y-117203500D01*
X133339770Y-117215131D01*
X133339769Y-117215132D01*
X133273447Y-117259447D01*
X133229132Y-117325769D01*
X133229131Y-117325770D01*
X133217500Y-117384247D01*
X133217500Y-117723752D01*
X133229131Y-117782229D01*
X133229132Y-117782230D01*
X133273447Y-117848552D01*
X133339769Y-117892867D01*
X133339770Y-117892868D01*
X133398247Y-117904499D01*
X133398250Y-117904500D01*
X133398252Y-117904500D01*
X133771856Y-117904500D01*
X134321456Y-117904500D01*
X134388495Y-117924185D01*
X134409137Y-117940819D01*
X134715028Y-118246710D01*
X134748513Y-118308033D01*
X134743529Y-118377725D01*
X134739729Y-118386795D01*
X134696027Y-118480512D01*
X134696027Y-118480513D01*
X134689500Y-118530097D01*
X134689500Y-118889894D01*
X134689501Y-118889900D01*
X134696028Y-118939487D01*
X134696029Y-118939489D01*
X134696029Y-118939490D01*
X134746776Y-119048316D01*
X134831684Y-119133224D01*
X134940513Y-119183972D01*
X134990099Y-119190500D01*
X135409900Y-119190499D01*
X135459487Y-119183972D01*
X135484908Y-119172117D01*
X135537313Y-119160500D01*
X135872687Y-119160500D01*
X135925091Y-119172117D01*
X135950513Y-119183972D01*
X136000099Y-119190500D01*
X136312033Y-119190499D01*
X136379072Y-119210183D01*
X136399714Y-119226818D01*
X137813181Y-120640285D01*
X137846666Y-120701608D01*
X137849500Y-120727966D01*
X137849500Y-126492035D01*
X137829815Y-126559074D01*
X137813181Y-126579716D01*
X137429216Y-126963681D01*
X137367893Y-126997166D01*
X137341535Y-127000000D01*
X132754500Y-127000000D01*
X132687461Y-126980315D01*
X132641706Y-126927511D01*
X132630500Y-126876000D01*
X132630500Y-122097312D01*
X132642118Y-122044907D01*
X132653972Y-122019487D01*
X132660500Y-121969901D01*
X132660499Y-121550100D01*
X132653972Y-121500513D01*
X132653969Y-121500507D01*
X132653969Y-121500505D01*
X132642118Y-121475090D01*
X132630500Y-121422686D01*
X132630500Y-121077312D01*
X132642118Y-121024907D01*
X132653972Y-120999487D01*
X132660500Y-120949901D01*
X132660499Y-120530100D01*
X132660499Y-120530096D01*
X132660234Y-120526054D01*
X132661559Y-120525967D01*
X132671453Y-120462513D01*
X132717832Y-120410256D01*
X132767442Y-120392421D01*
X132813709Y-120386330D01*
X132947625Y-120330861D01*
X133062621Y-120242621D01*
X133150861Y-120127625D01*
X133206330Y-119993709D01*
X133225250Y-119850000D01*
X133206330Y-119706291D01*
X133150861Y-119572375D01*
X133062621Y-119457379D01*
X133062619Y-119457377D01*
X133062615Y-119457372D01*
X133056871Y-119451628D01*
X133058882Y-119449617D01*
X133025806Y-119404308D01*
X133018500Y-119362373D01*
X133018500Y-118284249D01*
X133018499Y-118284247D01*
X133006868Y-118225770D01*
X133006867Y-118225769D01*
X132962552Y-118159447D01*
X132896230Y-118115132D01*
X132896229Y-118115131D01*
X132837752Y-118103500D01*
X132837748Y-118103500D01*
X132498252Y-118103500D01*
X132442190Y-118114651D01*
X132393810Y-118114651D01*
X132337748Y-118103500D01*
X131998252Y-118103500D01*
X131942190Y-118114651D01*
X131893810Y-118114651D01*
X131837748Y-118103500D01*
X131498252Y-118103500D01*
X131442190Y-118114651D01*
X131393810Y-118114651D01*
X131337748Y-118103500D01*
X130998252Y-118103500D01*
X130942190Y-118114651D01*
X130893810Y-118114651D01*
X130837748Y-118103500D01*
X130498252Y-118103500D01*
X130442190Y-118114651D01*
X130393810Y-118114651D01*
X130337748Y-118103500D01*
X129998252Y-118103500D01*
X129942190Y-118114651D01*
X129893810Y-118114651D01*
X129837748Y-118103500D01*
X129742500Y-118103500D01*
X129675461Y-118083815D01*
X129629706Y-118031011D01*
X129618500Y-117979500D01*
X129618500Y-117884249D01*
X129618499Y-117884247D01*
X129606868Y-117825770D01*
X129606867Y-117825769D01*
X129562552Y-117759447D01*
X129496230Y-117715132D01*
X129496229Y-117715131D01*
X129437752Y-117703500D01*
X129437748Y-117703500D01*
X129064144Y-117703500D01*
X128569856Y-117703500D01*
X128480712Y-117727386D01*
X128480709Y-117727387D01*
X128400791Y-117773527D01*
X128400786Y-117773531D01*
X127921135Y-118253181D01*
X127859812Y-118286666D01*
X127833454Y-118289500D01*
X127470105Y-118289500D01*
X127454386Y-118291569D01*
X127420513Y-118296028D01*
X127420511Y-118296029D01*
X127420509Y-118296029D01*
X127395092Y-118307882D01*
X127342687Y-118319500D01*
X127007313Y-118319500D01*
X126954908Y-118307882D01*
X126929489Y-118296029D01*
X126929487Y-118296028D01*
X126929485Y-118296027D01*
X126929483Y-118296027D01*
X126879901Y-118289500D01*
X126460105Y-118289500D01*
X126444386Y-118291569D01*
X126410513Y-118296028D01*
X126410511Y-118296029D01*
X126410509Y-118296029D01*
X126385092Y-118307882D01*
X126332687Y-118319500D01*
X125850691Y-118319500D01*
X125760325Y-118343713D01*
X125760324Y-118343712D01*
X125736116Y-118350199D01*
X125736113Y-118350200D01*
X125633386Y-118409511D01*
X125633383Y-118409513D01*
X124449513Y-119593383D01*
X124449509Y-119593389D01*
X124390200Y-119696113D01*
X124385218Y-119714710D01*
X124385218Y-119714712D01*
X124359500Y-119810692D01*
X124359500Y-122534240D01*
X124339815Y-122601279D01*
X124324153Y-122619556D01*
X124324491Y-122619856D01*
X124319515Y-122625472D01*
X124229781Y-122755475D01*
X124229780Y-122755476D01*
X124173762Y-122903181D01*
X124154722Y-123059999D01*
X124154722Y-123060000D01*
X124173762Y-123216818D01*
X124194512Y-123271529D01*
X124199879Y-123341192D01*
X124166732Y-123402698D01*
X124105593Y-123436520D01*
X124078570Y-123439500D01*
X120405544Y-123439500D01*
X120338505Y-123419815D01*
X120292750Y-123367011D01*
X120282806Y-123297853D01*
X120311831Y-123234297D01*
X120317863Y-123227819D01*
X126104863Y-117440819D01*
X126166186Y-117407334D01*
X126192544Y-117404500D01*
X129437750Y-117404500D01*
X129437751Y-117404499D01*
X129452568Y-117401552D01*
X129496229Y-117392868D01*
X129496229Y-117392867D01*
X129496231Y-117392867D01*
X129562552Y-117348552D01*
X129606867Y-117282231D01*
X129606867Y-117282229D01*
X129606868Y-117282229D01*
X129617776Y-117227386D01*
X129618500Y-117223748D01*
X129618500Y-116884252D01*
X129618500Y-116884249D01*
X129607349Y-116828192D01*
X129607349Y-116779808D01*
X129618500Y-116723750D01*
X129618500Y-116384249D01*
X129607349Y-116328192D01*
X129607349Y-116279808D01*
X129618500Y-116223750D01*
X129618500Y-115884249D01*
X129618499Y-115884247D01*
X129606868Y-115825770D01*
X129606867Y-115825769D01*
X129562552Y-115759447D01*
X129496230Y-115715132D01*
X129496229Y-115715131D01*
X129437752Y-115703500D01*
X129437748Y-115703500D01*
X129064144Y-115703500D01*
X128380543Y-115703500D01*
X128313504Y-115683815D01*
X128292867Y-115667185D01*
X128204548Y-115578866D01*
X128171065Y-115517544D01*
X128174454Y-115470144D01*
X128130614Y-115486496D01*
X128073777Y-115474131D01*
X128072798Y-115476497D01*
X128065290Y-115473387D01*
X128065288Y-115473386D01*
X127976144Y-115449500D01*
X127976143Y-115449500D01*
X127242402Y-115449500D01*
X127175363Y-115429815D01*
X127154721Y-115413181D01*
X127118316Y-115376776D01*
X127097881Y-115367247D01*
X127009487Y-115326028D01*
X127009485Y-115326027D01*
X127009486Y-115326027D01*
X126959901Y-115319500D01*
X126540105Y-115319500D01*
X126490511Y-115326028D01*
X126477660Y-115332021D01*
X126469611Y-115335774D01*
X126417208Y-115347392D01*
X126061619Y-115347392D01*
X126009214Y-115335774D01*
X125983795Y-115323921D01*
X125983793Y-115323920D01*
X125983791Y-115323919D01*
X125983789Y-115323919D01*
X125934208Y-115317392D01*
X125555857Y-115317392D01*
X125488818Y-115297707D01*
X125468176Y-115281073D01*
X124759284Y-114572181D01*
X124725799Y-114510858D01*
X124730783Y-114441166D01*
X124772655Y-114385233D01*
X124838119Y-114360816D01*
X124846965Y-114360500D01*
X127243456Y-114360500D01*
X127310495Y-114380185D01*
X127331137Y-114396819D01*
X128209449Y-115275131D01*
X128242934Y-115336454D01*
X128239544Y-115383854D01*
X128283386Y-115367503D01*
X128340222Y-115379867D01*
X128341202Y-115377503D01*
X128348705Y-115380610D01*
X128348712Y-115380614D01*
X128437856Y-115404500D01*
X128437858Y-115404500D01*
X129437750Y-115404500D01*
X129437751Y-115404499D01*
X129452568Y-115401552D01*
X129496229Y-115392868D01*
X129496229Y-115392867D01*
X129496231Y-115392867D01*
X129562552Y-115348552D01*
X129606867Y-115282231D01*
X129606867Y-115282229D01*
X129606868Y-115282229D01*
X129615552Y-115238568D01*
X129618500Y-115223748D01*
X129618500Y-114884252D01*
X129618500Y-114884249D01*
X129607349Y-114828192D01*
X129607349Y-114779808D01*
X129618500Y-114723750D01*
X129618500Y-114628500D01*
X129638185Y-114561461D01*
X129690989Y-114515706D01*
X129742500Y-114504500D01*
X129837750Y-114504500D01*
X129893808Y-114493349D01*
X129942192Y-114493349D01*
X129998249Y-114504500D01*
X129998252Y-114504500D01*
X130337750Y-114504500D01*
X130393808Y-114493349D01*
X130442192Y-114493349D01*
X130498249Y-114504500D01*
X130498252Y-114504500D01*
X130837750Y-114504500D01*
X130837751Y-114504499D01*
X130852568Y-114501552D01*
X130896229Y-114492868D01*
X130896229Y-114492867D01*
X130896231Y-114492867D01*
X130962552Y-114448552D01*
X131006867Y-114382231D01*
X131006867Y-114382229D01*
X131006868Y-114382229D01*
X131018499Y-114323752D01*
X131018500Y-114323750D01*
X131018500Y-110518499D01*
X131038185Y-110451460D01*
X131090989Y-110405705D01*
X131142500Y-110394499D01*
X131254906Y-110394499D01*
X131321945Y-110414184D01*
X131367700Y-110466988D01*
X131377644Y-110536146D01*
X131362294Y-110580497D01*
X131354854Y-110593384D01*
X131341386Y-110616710D01*
X131341386Y-110616711D01*
X131317500Y-110705856D01*
X131317500Y-114323752D01*
X131329131Y-114382229D01*
X131329132Y-114382230D01*
X131373447Y-114448552D01*
X131439769Y-114492867D01*
X131439770Y-114492868D01*
X131498247Y-114504499D01*
X131498250Y-114504500D01*
X131498252Y-114504500D01*
X131837750Y-114504500D01*
X131893808Y-114493349D01*
X131942192Y-114493349D01*
X131998249Y-114504500D01*
X131998252Y-114504500D01*
X132337750Y-114504500D01*
X132337751Y-114504499D01*
X132352568Y-114501552D01*
X132396229Y-114492868D01*
X132396229Y-114492867D01*
X132396231Y-114492867D01*
X132462552Y-114448552D01*
X132506867Y-114382231D01*
X132506867Y-114382229D01*
X132506868Y-114382229D01*
X132518499Y-114323752D01*
X132518500Y-114323750D01*
X132518500Y-113143687D01*
X132538185Y-113076648D01*
X132590096Y-113031305D01*
X132650316Y-113003224D01*
X132735224Y-112918316D01*
X132785972Y-112809487D01*
X132792500Y-112759901D01*
X132792499Y-112340100D01*
X132785972Y-112290513D01*
X132783488Y-112285185D01*
X132772118Y-112260801D01*
X132760500Y-112208397D01*
X132760500Y-111867312D01*
X132772118Y-111814907D01*
X132775659Y-111807313D01*
X132783972Y-111789487D01*
X132790500Y-111739901D01*
X132790499Y-111320100D01*
X132783972Y-111270513D01*
X132733224Y-111161684D01*
X132648316Y-111076776D01*
X132539487Y-111026028D01*
X132539485Y-111026027D01*
X132539486Y-111026027D01*
X132489902Y-111019500D01*
X132195542Y-111019500D01*
X132128503Y-110999815D01*
X132082748Y-110947011D01*
X132072804Y-110877853D01*
X132101829Y-110814297D01*
X132107847Y-110807833D01*
X132484862Y-110430819D01*
X132546185Y-110397334D01*
X132572543Y-110394500D01*
X132959493Y-110394500D01*
X133059121Y-110378720D01*
X133059121Y-110378719D01*
X133059126Y-110378719D01*
X133179220Y-110317528D01*
X133274528Y-110222220D01*
X133287961Y-110195856D01*
X133305108Y-110162205D01*
X133353082Y-110111409D01*
X133415592Y-110094500D01*
X133486728Y-110094500D01*
X133553767Y-110114185D01*
X133597212Y-110162204D01*
X133632949Y-110232340D01*
X133632954Y-110232347D01*
X133722652Y-110322045D01*
X133722654Y-110322046D01*
X133722658Y-110322050D01*
X133813460Y-110368316D01*
X133835698Y-110379647D01*
X133929475Y-110394499D01*
X133929481Y-110394500D01*
X134542518Y-110394499D01*
X134636304Y-110379646D01*
X134749342Y-110322050D01*
X134839050Y-110232342D01*
X134896646Y-110119304D01*
X134896646Y-110119302D01*
X134896647Y-110119301D01*
X134910440Y-110032210D01*
X134911500Y-110025519D01*
X134911499Y-109562482D01*
X134896646Y-109468696D01*
X134839050Y-109355658D01*
X134839046Y-109355654D01*
X134839045Y-109355652D01*
X134766020Y-109282627D01*
X134732535Y-109221304D01*
X134737519Y-109151612D01*
X134739124Y-109147531D01*
X134776330Y-109057709D01*
X134795250Y-108914000D01*
X134776330Y-108770291D01*
X134771357Y-108758286D01*
X134763888Y-108688821D01*
X134795161Y-108626341D01*
X134798211Y-108623180D01*
X134839050Y-108582342D01*
X134896646Y-108469304D01*
X134896647Y-108469298D01*
X134898069Y-108464924D01*
X134937506Y-108407249D01*
X135001865Y-108380050D01*
X135070711Y-108391964D01*
G37*
%TD.AperFunction*%
%TA.AperFunction,Conductor*%
G36*
X141820539Y-104019685D02*
G01*
X141866294Y-104072489D01*
X141877500Y-104124000D01*
X141877500Y-108787016D01*
X141865882Y-108839421D01*
X141813931Y-108950828D01*
X141807500Y-108999683D01*
X141807500Y-109348316D01*
X141813931Y-109397171D01*
X141863935Y-109504404D01*
X141955267Y-109595736D01*
X141952443Y-109598559D01*
X141983183Y-109637042D01*
X141990352Y-109706542D01*
X141958808Y-109768886D01*
X141955101Y-109772098D01*
X141955267Y-109772264D01*
X141863935Y-109863595D01*
X141813931Y-109970828D01*
X141807500Y-110019683D01*
X141807500Y-110368316D01*
X141813931Y-110417171D01*
X141863935Y-110524404D01*
X141941181Y-110601650D01*
X141974666Y-110662973D01*
X141977500Y-110689331D01*
X141977500Y-112244144D01*
X141991050Y-112294713D01*
X142001385Y-112333286D01*
X142047527Y-112413208D01*
X142047529Y-112413211D01*
X142047530Y-112413212D01*
X143269788Y-113635470D01*
X143330462Y-113670500D01*
X143349712Y-113681614D01*
X143438856Y-113705500D01*
X144901598Y-113705500D01*
X144968637Y-113725185D01*
X144989279Y-113741819D01*
X145025684Y-113778224D01*
X145134513Y-113828972D01*
X145184099Y-113835500D01*
X145603900Y-113835499D01*
X145653487Y-113828972D01*
X145762316Y-113778224D01*
X145794748Y-113745792D01*
X145856071Y-113712307D01*
X145925763Y-113717291D01*
X145970110Y-113745792D01*
X147767787Y-115543469D01*
X147841702Y-115586144D01*
X147847712Y-115589614D01*
X147936856Y-115613500D01*
X147936858Y-115613500D01*
X148944750Y-115613500D01*
X148944751Y-115613499D01*
X148959568Y-115610552D01*
X149003229Y-115601868D01*
X149003229Y-115601867D01*
X149003231Y-115601867D01*
X149069552Y-115557552D01*
X149113867Y-115491231D01*
X149113867Y-115491229D01*
X149113868Y-115491229D01*
X149125499Y-115432752D01*
X149125500Y-115432750D01*
X149125500Y-115212500D01*
X149145185Y-115145461D01*
X149197989Y-115099706D01*
X149249500Y-115088500D01*
X149469750Y-115088500D01*
X149525808Y-115077349D01*
X149574192Y-115077349D01*
X149630249Y-115088500D01*
X149630252Y-115088500D01*
X149969750Y-115088500D01*
X149969751Y-115088499D01*
X149984568Y-115085552D01*
X150028229Y-115076868D01*
X150028229Y-115076867D01*
X150028231Y-115076867D01*
X150094552Y-115032552D01*
X150138867Y-114966231D01*
X150138867Y-114966229D01*
X150138868Y-114966229D01*
X150150499Y-114907752D01*
X150150500Y-114907750D01*
X150150500Y-113972553D01*
X150170185Y-113905514D01*
X150222989Y-113859759D01*
X150292147Y-113849815D01*
X150326905Y-113860171D01*
X150328827Y-113861068D01*
X150341682Y-113862760D01*
X150405577Y-113891022D01*
X150444051Y-113949345D01*
X150449500Y-113985699D01*
X150449500Y-114907752D01*
X150461131Y-114966229D01*
X150461132Y-114966230D01*
X150505447Y-115032552D01*
X150571769Y-115076867D01*
X150571770Y-115076868D01*
X150630247Y-115088499D01*
X150630250Y-115088500D01*
X150850500Y-115088500D01*
X150917539Y-115108185D01*
X150963294Y-115160989D01*
X150974500Y-115212500D01*
X150974500Y-115432752D01*
X150986131Y-115491229D01*
X150986132Y-115491230D01*
X151030447Y-115557552D01*
X151096769Y-115601867D01*
X151096770Y-115601868D01*
X151155247Y-115613499D01*
X151155250Y-115613500D01*
X151155252Y-115613500D01*
X151322858Y-115613500D01*
X151384857Y-115630112D01*
X151395413Y-115636207D01*
X151497273Y-115663500D01*
X151497275Y-115663500D01*
X151505123Y-115665603D01*
X151504676Y-115667268D01*
X151559583Y-115691557D01*
X151585904Y-115731461D01*
X151607444Y-115684297D01*
X151666222Y-115646523D01*
X151669044Y-115645730D01*
X151704587Y-115636207D01*
X151715142Y-115630112D01*
X151777142Y-115613500D01*
X151944750Y-115613500D01*
X151944751Y-115613499D01*
X151959568Y-115610552D01*
X152003229Y-115601868D01*
X152003229Y-115601867D01*
X152003231Y-115601867D01*
X152069552Y-115557552D01*
X152113867Y-115491231D01*
X152113867Y-115491229D01*
X152113868Y-115491229D01*
X152125499Y-115432752D01*
X152125500Y-115432750D01*
X152125500Y-115139254D01*
X152145185Y-115072215D01*
X152161819Y-115051573D01*
X154139574Y-113073819D01*
X154200897Y-113040334D01*
X154227255Y-113037500D01*
X154304317Y-113037500D01*
X154320601Y-113035356D01*
X154353173Y-113031068D01*
X154460404Y-112981065D01*
X154507819Y-112933650D01*
X154569142Y-112900165D01*
X154638834Y-112905149D01*
X154694767Y-112947021D01*
X154719184Y-113012485D01*
X154719500Y-113021331D01*
X154719500Y-113242686D01*
X154707882Y-113295090D01*
X154696030Y-113320506D01*
X154696027Y-113320516D01*
X154689500Y-113370098D01*
X154689500Y-113789894D01*
X154690895Y-113800489D01*
X154696028Y-113839487D01*
X154696028Y-113839488D01*
X154697267Y-113848895D01*
X154696626Y-113848979D01*
X154699500Y-113869101D01*
X154699500Y-114297018D01*
X154679815Y-114364057D01*
X154648387Y-114397335D01*
X154644247Y-114400342D01*
X154550346Y-114494243D01*
X154550343Y-114494248D01*
X154550342Y-114494249D01*
X154539409Y-114515706D01*
X154490047Y-114612582D01*
X154474500Y-114710748D01*
X154474500Y-115214251D01*
X154490047Y-115312417D01*
X154502295Y-115336454D01*
X154550342Y-115430751D01*
X154550344Y-115430753D01*
X154550346Y-115430756D01*
X154644243Y-115524653D01*
X154644245Y-115524654D01*
X154644249Y-115524658D01*
X154762580Y-115584951D01*
X154762581Y-115584951D01*
X154762583Y-115584952D01*
X154762582Y-115584952D01*
X154860749Y-115600500D01*
X154860754Y-115600500D01*
X155439251Y-115600500D01*
X155537417Y-115584952D01*
X155537418Y-115584951D01*
X155537420Y-115584951D01*
X155655751Y-115524658D01*
X155749658Y-115430751D01*
X155809951Y-115312420D01*
X155809951Y-115312418D01*
X155809952Y-115312417D01*
X155825500Y-115214251D01*
X155825500Y-114710748D01*
X155809952Y-114612582D01*
X155798445Y-114589998D01*
X155749658Y-114494249D01*
X155749654Y-114494245D01*
X155749653Y-114494243D01*
X155655752Y-114400342D01*
X155651613Y-114397335D01*
X155608948Y-114342005D01*
X155600500Y-114297018D01*
X155600500Y-113960202D01*
X155612118Y-113907797D01*
X155615668Y-113900184D01*
X155643972Y-113839487D01*
X155650500Y-113789901D01*
X155650499Y-113370100D01*
X155643972Y-113320513D01*
X155643969Y-113320506D01*
X155643969Y-113320505D01*
X155632118Y-113295090D01*
X155620500Y-113242686D01*
X155620500Y-112292683D01*
X155618892Y-112280469D01*
X155614068Y-112243827D01*
X155612117Y-112239644D01*
X155600500Y-112187240D01*
X155600500Y-111807312D01*
X155612118Y-111754907D01*
X155623972Y-111729487D01*
X155630500Y-111679901D01*
X155630499Y-111260100D01*
X155623972Y-111210513D01*
X155623969Y-111210506D01*
X155623969Y-111210505D01*
X155612118Y-111185090D01*
X155600500Y-111132686D01*
X155600500Y-110726757D01*
X155612118Y-110674352D01*
X155633972Y-110627487D01*
X155640500Y-110577901D01*
X155640499Y-110158100D01*
X155633972Y-110108513D01*
X155633969Y-110108506D01*
X155633969Y-110108505D01*
X155622118Y-110083090D01*
X155610500Y-110030686D01*
X155610500Y-104124000D01*
X155630185Y-104056961D01*
X155682989Y-104011206D01*
X155734500Y-104000000D01*
X171375500Y-104000000D01*
X171442539Y-104019685D01*
X171488294Y-104072489D01*
X171499500Y-104124000D01*
X171499500Y-115158033D01*
X171479815Y-115225072D01*
X171427011Y-115270827D01*
X171357853Y-115280771D01*
X171294297Y-115251746D01*
X171287819Y-115245714D01*
X171284553Y-115242448D01*
X171218230Y-115198132D01*
X171218229Y-115198131D01*
X171159752Y-115186500D01*
X171159748Y-115186500D01*
X166040252Y-115186500D01*
X166040247Y-115186500D01*
X165981770Y-115198131D01*
X165981769Y-115198132D01*
X165915447Y-115242447D01*
X165871132Y-115308769D01*
X165871131Y-115308770D01*
X165859500Y-115367247D01*
X165859500Y-115765500D01*
X165839815Y-115832539D01*
X165787011Y-115878294D01*
X165735500Y-115889500D01*
X161804941Y-115889500D01*
X161794763Y-115890000D01*
X160305237Y-115890000D01*
X160295059Y-115889500D01*
X160294069Y-115889500D01*
X151701157Y-115889500D01*
X151634118Y-115869815D01*
X151595467Y-115825209D01*
X151561815Y-115878969D01*
X151503699Y-115907846D01*
X151492290Y-115910116D01*
X151468093Y-115912500D01*
X151155247Y-115912500D01*
X151096770Y-115924131D01*
X151096769Y-115924132D01*
X151030447Y-115968447D01*
X150986132Y-116034769D01*
X150986131Y-116034770D01*
X150974500Y-116093247D01*
X150974500Y-116093252D01*
X150974500Y-116432748D01*
X150978011Y-116450399D01*
X150985651Y-116488810D01*
X150985651Y-116537190D01*
X150974500Y-116593252D01*
X150974500Y-116932752D01*
X150986131Y-116991229D01*
X150986132Y-116991230D01*
X151030447Y-117057552D01*
X151096769Y-117101867D01*
X151096770Y-117101868D01*
X151155247Y-117113499D01*
X151155250Y-117113500D01*
X151155252Y-117113500D01*
X151320050Y-117113500D01*
X151367502Y-117122938D01*
X151470256Y-117165501D01*
X151470260Y-117165501D01*
X151470261Y-117165502D01*
X151595928Y-117190500D01*
X151595931Y-117190500D01*
X160295059Y-117190500D01*
X160305237Y-117190000D01*
X161794763Y-117190000D01*
X161804941Y-117190500D01*
X161805931Y-117190500D01*
X165735500Y-117190500D01*
X165802539Y-117210185D01*
X165848294Y-117262989D01*
X165859500Y-117314500D01*
X165859500Y-117692752D01*
X165871131Y-117751229D01*
X165871132Y-117751230D01*
X165915447Y-117817552D01*
X165981769Y-117861867D01*
X165981770Y-117861868D01*
X166040247Y-117873499D01*
X166040250Y-117873500D01*
X166040252Y-117873500D01*
X171159750Y-117873500D01*
X171159751Y-117873499D01*
X171174568Y-117870552D01*
X171218229Y-117861868D01*
X171218229Y-117861867D01*
X171218231Y-117861867D01*
X171284552Y-117817552D01*
X171284553Y-117817551D01*
X171287819Y-117814286D01*
X171349142Y-117780801D01*
X171418834Y-117785785D01*
X171474767Y-117827657D01*
X171499184Y-117893121D01*
X171499500Y-117901967D01*
X171499500Y-126876000D01*
X171479815Y-126943039D01*
X171427011Y-126988794D01*
X171375500Y-127000000D01*
X138855645Y-127000000D01*
X138788606Y-126980315D01*
X138742851Y-126927511D01*
X138732907Y-126858353D01*
X138735867Y-126843916D01*
X138750500Y-126789309D01*
X138750500Y-120430692D01*
X138719799Y-120316115D01*
X138708885Y-120297212D01*
X138660490Y-120213388D01*
X136796613Y-118349511D01*
X136693886Y-118290201D01*
X136663816Y-118282144D01*
X136663813Y-118282143D01*
X136628097Y-118272573D01*
X136579308Y-118259500D01*
X136579307Y-118259500D01*
X136547313Y-118259500D01*
X136494908Y-118247882D01*
X136469489Y-118236029D01*
X136469487Y-118236028D01*
X136469485Y-118236027D01*
X136469483Y-118236027D01*
X136419901Y-118229500D01*
X136000105Y-118229500D01*
X135984386Y-118231569D01*
X135950513Y-118236028D01*
X135950511Y-118236029D01*
X135950509Y-118236029D01*
X135925092Y-118247882D01*
X135872687Y-118259500D01*
X135664310Y-118259500D01*
X135597271Y-118239815D01*
X135551516Y-118187011D01*
X135544535Y-118167593D01*
X135526616Y-118100718D01*
X135526615Y-118100715D01*
X135526614Y-118100712D01*
X135526286Y-118100144D01*
X135526281Y-118100135D01*
X135480472Y-118020791D01*
X135480468Y-118020786D01*
X134871830Y-117412148D01*
X134838345Y-117350825D01*
X134843329Y-117281133D01*
X134885201Y-117225200D01*
X134950665Y-117200783D01*
X134959839Y-117200915D01*
X134959839Y-117200500D01*
X136634070Y-117200500D01*
X136674876Y-117192383D01*
X136699068Y-117190000D01*
X137374763Y-117190000D01*
X137384941Y-117190500D01*
X137385931Y-117190500D01*
X138155059Y-117190500D01*
X138165237Y-117190000D01*
X139714763Y-117190000D01*
X139724941Y-117190500D01*
X139725931Y-117190500D01*
X140135059Y-117190500D01*
X140145237Y-117190000D01*
X141600932Y-117190000D01*
X141625124Y-117192383D01*
X141665929Y-117200500D01*
X141665931Y-117200500D01*
X141984070Y-117200500D01*
X142024876Y-117192383D01*
X142049068Y-117190000D01*
X143664763Y-117190000D01*
X143674941Y-117190500D01*
X143675931Y-117190500D01*
X144975059Y-117190500D01*
X144985237Y-117190000D01*
X146564763Y-117190000D01*
X146574941Y-117190500D01*
X146575931Y-117190500D01*
X148424071Y-117190500D01*
X148508615Y-117173682D01*
X148549744Y-117165501D01*
X148652497Y-117122938D01*
X148699950Y-117113500D01*
X148944750Y-117113500D01*
X148944751Y-117113499D01*
X148963837Y-117109703D01*
X149003229Y-117101868D01*
X149003229Y-117101867D01*
X149003231Y-117101867D01*
X149069552Y-117057552D01*
X149113867Y-116991231D01*
X149113867Y-116991229D01*
X149113868Y-116991229D01*
X149125499Y-116932752D01*
X149125500Y-116932750D01*
X149125500Y-116593249D01*
X149114349Y-116537192D01*
X149114349Y-116488808D01*
X149125500Y-116432750D01*
X149125500Y-116093249D01*
X149125499Y-116093247D01*
X149113868Y-116034770D01*
X149113867Y-116034769D01*
X149069552Y-115968447D01*
X149003230Y-115924132D01*
X149003229Y-115924131D01*
X148944752Y-115912500D01*
X148944748Y-115912500D01*
X148551907Y-115912500D01*
X148527715Y-115910117D01*
X148424071Y-115889500D01*
X148424069Y-115889500D01*
X146575931Y-115889500D01*
X146574941Y-115889500D01*
X146564763Y-115890000D01*
X144985237Y-115890000D01*
X144975059Y-115889500D01*
X144974069Y-115889500D01*
X143675931Y-115889500D01*
X143674941Y-115889500D01*
X143664763Y-115890000D01*
X140145237Y-115890000D01*
X140135059Y-115889500D01*
X140134069Y-115889500D01*
X139725931Y-115889500D01*
X139724941Y-115889500D01*
X139714763Y-115890000D01*
X138165237Y-115890000D01*
X138155059Y-115889500D01*
X138154069Y-115889500D01*
X137587515Y-115889500D01*
X137520476Y-115869815D01*
X137474721Y-115817011D01*
X137464576Y-115749315D01*
X137470500Y-115704316D01*
X137470500Y-115355683D01*
X137466318Y-115323919D01*
X137464068Y-115306827D01*
X137414065Y-115199596D01*
X137414064Y-115199595D01*
X137412118Y-115195421D01*
X137400500Y-115143016D01*
X137400500Y-115097499D01*
X137420185Y-115030460D01*
X137436819Y-115009818D01*
X138243137Y-114203500D01*
X139050489Y-113396148D01*
X139109799Y-113293421D01*
X139123711Y-113241500D01*
X139140500Y-113178843D01*
X139140500Y-112464499D01*
X139160185Y-112397460D01*
X139212989Y-112351705D01*
X139264495Y-112340499D01*
X139589900Y-112340499D01*
X139639487Y-112333972D01*
X139748316Y-112283224D01*
X139833224Y-112198316D01*
X139883972Y-112089487D01*
X139890500Y-112039901D01*
X139890499Y-111620100D01*
X139883972Y-111570513D01*
X139833224Y-111461684D01*
X139794221Y-111422681D01*
X139760736Y-111361358D01*
X139765720Y-111291666D01*
X139794221Y-111247319D01*
X139833224Y-111208316D01*
X139883972Y-111099487D01*
X139890500Y-111049901D01*
X139890499Y-110630100D01*
X139883972Y-110580513D01*
X139833224Y-110471684D01*
X139794221Y-110432681D01*
X139760736Y-110371358D01*
X139765720Y-110301666D01*
X139794221Y-110257319D01*
X139833224Y-110218316D01*
X139883972Y-110109487D01*
X139890500Y-110059901D01*
X139890499Y-109640100D01*
X139883972Y-109590513D01*
X139833224Y-109481684D01*
X139748316Y-109396776D01*
X139639487Y-109346028D01*
X139639485Y-109346027D01*
X139639486Y-109346027D01*
X139589902Y-109339500D01*
X139264500Y-109339500D01*
X139197461Y-109319815D01*
X139151706Y-109267011D01*
X139140500Y-109215500D01*
X139140500Y-104124000D01*
X139160185Y-104056961D01*
X139212989Y-104011206D01*
X139264500Y-104000000D01*
X141753500Y-104000000D01*
X141820539Y-104019685D01*
G37*
%TD.AperFunction*%
%TA.AperFunction,Conductor*%
G36*
X129260539Y-118424185D02*
G01*
X129306294Y-118476989D01*
X129317500Y-118528500D01*
X129317500Y-119885456D01*
X129297815Y-119952495D01*
X129281181Y-119973137D01*
X125851137Y-123403181D01*
X125789814Y-123436666D01*
X125763456Y-123439500D01*
X125541430Y-123439500D01*
X125474391Y-123419815D01*
X125428636Y-123367011D01*
X125418692Y-123297853D01*
X125425488Y-123271529D01*
X125446237Y-123216818D01*
X125465278Y-123060000D01*
X125465278Y-123059999D01*
X125446237Y-122903181D01*
X125409764Y-122807011D01*
X125390220Y-122755477D01*
X125300483Y-122625470D01*
X125300479Y-122625466D01*
X125295509Y-122619856D01*
X125296953Y-122618576D01*
X125265145Y-122567860D01*
X125260500Y-122534240D01*
X125260500Y-120107965D01*
X125280185Y-120040926D01*
X125296819Y-120020284D01*
X126060284Y-119256819D01*
X126121607Y-119223334D01*
X126147965Y-119220500D01*
X126332687Y-119220500D01*
X126385091Y-119232117D01*
X126410513Y-119243972D01*
X126460099Y-119250500D01*
X126879900Y-119250499D01*
X126929487Y-119243972D01*
X126954908Y-119232117D01*
X127007313Y-119220500D01*
X127342687Y-119220500D01*
X127395091Y-119232117D01*
X127420513Y-119243972D01*
X127470099Y-119250500D01*
X127889900Y-119250499D01*
X127939487Y-119243972D01*
X128048316Y-119193224D01*
X128133224Y-119108316D01*
X128183972Y-118999487D01*
X128183971Y-118999487D01*
X128187982Y-118990888D01*
X128190107Y-118991878D01*
X128213756Y-118951924D01*
X128724863Y-118440819D01*
X128786186Y-118407334D01*
X128812544Y-118404500D01*
X129193500Y-118404500D01*
X129260539Y-118424185D01*
G37*
%TD.AperFunction*%
%TA.AperFunction,Conductor*%
G36*
X121435495Y-112285185D02*
G01*
X121456137Y-112301819D01*
X122420433Y-113266114D01*
X123379531Y-114225212D01*
X123444788Y-114290469D01*
X123444791Y-114290470D01*
X123444794Y-114290473D01*
X123524706Y-114336611D01*
X123524708Y-114336612D01*
X123524709Y-114336612D01*
X123524712Y-114336614D01*
X123559059Y-114345817D01*
X123618717Y-114382180D01*
X123649247Y-114445027D01*
X123649702Y-114483237D01*
X123634353Y-114589998D01*
X123634353Y-114589999D01*
X123654834Y-114732456D01*
X123698556Y-114828192D01*
X123714623Y-114863373D01*
X123808872Y-114972143D01*
X123808874Y-114972144D01*
X123808876Y-114972146D01*
X123929941Y-115049950D01*
X123929944Y-115049952D01*
X123929946Y-115049952D01*
X123929947Y-115049953D01*
X123946158Y-115054712D01*
X123998906Y-115086009D01*
X124575716Y-115662819D01*
X124609201Y-115724142D01*
X124604217Y-115793834D01*
X124562345Y-115849767D01*
X124496881Y-115874184D01*
X124488035Y-115874500D01*
X123991507Y-115874500D01*
X123891878Y-115890279D01*
X123771778Y-115951473D01*
X123771774Y-115951476D01*
X123676476Y-116046774D01*
X123676473Y-116046778D01*
X123676472Y-116046780D01*
X123615789Y-116165878D01*
X123615279Y-116166878D01*
X123599500Y-116266506D01*
X123599500Y-116833493D01*
X123615279Y-116933121D01*
X123615280Y-116933124D01*
X123615281Y-116933126D01*
X123676472Y-117053220D01*
X123676473Y-117053221D01*
X123676476Y-117053225D01*
X123771774Y-117148523D01*
X123771778Y-117148526D01*
X123771780Y-117148528D01*
X123891874Y-117209719D01*
X123891876Y-117209719D01*
X123891878Y-117209720D01*
X123991507Y-117225500D01*
X123991512Y-117225500D01*
X124508493Y-117225500D01*
X124608121Y-117209720D01*
X124608121Y-117209719D01*
X124608126Y-117209719D01*
X124728220Y-117148528D01*
X124823528Y-117053220D01*
X124864807Y-116972204D01*
X124912782Y-116921409D01*
X124975292Y-116904500D01*
X125350456Y-116904500D01*
X125417495Y-116924185D01*
X125463250Y-116976989D01*
X125473194Y-117046147D01*
X125444169Y-117109703D01*
X125438137Y-117116181D01*
X119711137Y-122843181D01*
X119649814Y-122876666D01*
X119623456Y-122879500D01*
X110124000Y-122879500D01*
X110056961Y-122859815D01*
X110011206Y-122807011D01*
X110000000Y-122755500D01*
X110000000Y-114014500D01*
X110019685Y-113947461D01*
X110072489Y-113901706D01*
X110124000Y-113890500D01*
X112399927Y-113890500D01*
X112466966Y-113910185D01*
X112512721Y-113962989D01*
X112522665Y-114032147D01*
X112493640Y-114095703D01*
X112490339Y-114099363D01*
X111169127Y-115506962D01*
X111154314Y-115523960D01*
X111142811Y-115538189D01*
X111142808Y-115538193D01*
X111090443Y-115634005D01*
X111090440Y-115634012D01*
X111068430Y-115700317D01*
X111068430Y-115700318D01*
X111053061Y-115785908D01*
X111026203Y-116555850D01*
X111026064Y-116571792D01*
X111026288Y-116584723D01*
X111026289Y-116584731D01*
X111045310Y-116685646D01*
X111045313Y-116685658D01*
X111069608Y-116751157D01*
X111069609Y-116751159D01*
X111069610Y-116751161D01*
X111111144Y-116827554D01*
X111370630Y-117175501D01*
X111487906Y-117332757D01*
X111487915Y-117332769D01*
X111524436Y-117373538D01*
X111556798Y-117403722D01*
X111579025Y-117422554D01*
X111624326Y-117445588D01*
X111675162Y-117493519D01*
X111692015Y-117561326D01*
X111669533Y-117627480D01*
X111655808Y-117643798D01*
X111647955Y-117651650D01*
X111647951Y-117651657D01*
X111590352Y-117764698D01*
X111575500Y-117858475D01*
X111575500Y-118321517D01*
X111585839Y-118386795D01*
X111590354Y-118415304D01*
X111647950Y-118528342D01*
X111647952Y-118528344D01*
X111647954Y-118528347D01*
X111737652Y-118618045D01*
X111737654Y-118618046D01*
X111737658Y-118618050D01*
X111850694Y-118675645D01*
X111850698Y-118675647D01*
X111944475Y-118690499D01*
X111944481Y-118690500D01*
X112557518Y-118690499D01*
X112651304Y-118675646D01*
X112764342Y-118618050D01*
X112805572Y-118576820D01*
X112866895Y-118543334D01*
X112893254Y-118540500D01*
X113159308Y-118540500D01*
X113159309Y-118540500D01*
X113249673Y-118516286D01*
X113273887Y-118509799D01*
X113290664Y-118500113D01*
X113352663Y-118483500D01*
X114437961Y-118483500D01*
X114505000Y-118503185D01*
X114550755Y-118555989D01*
X114559578Y-118583308D01*
X114565132Y-118611229D01*
X114565132Y-118611230D01*
X114609447Y-118677552D01*
X114675769Y-118721867D01*
X114675770Y-118721868D01*
X114734247Y-118733499D01*
X114734250Y-118733500D01*
X114734252Y-118733500D01*
X115873750Y-118733500D01*
X115873751Y-118733499D01*
X115888568Y-118730552D01*
X115932229Y-118721868D01*
X115932229Y-118721867D01*
X115932231Y-118721867D01*
X115998552Y-118677552D01*
X116042867Y-118611231D01*
X116042867Y-118611229D01*
X116042868Y-118611229D01*
X116054499Y-118552752D01*
X116054500Y-118552750D01*
X116054500Y-117513249D01*
X116054499Y-117513247D01*
X116046024Y-117470637D01*
X116052251Y-117401046D01*
X116082498Y-117356298D01*
X116096475Y-117343098D01*
X116275074Y-117118194D01*
X116332178Y-117077938D01*
X116401983Y-117074944D01*
X116462326Y-117110166D01*
X116475279Y-117126417D01*
X116509446Y-117177551D01*
X116575769Y-117221867D01*
X116575770Y-117221868D01*
X116634247Y-117233499D01*
X116634250Y-117233500D01*
X116634252Y-117233500D01*
X117773750Y-117233500D01*
X117773751Y-117233499D01*
X117788568Y-117230552D01*
X117832229Y-117221868D01*
X117832229Y-117221867D01*
X117832231Y-117221867D01*
X117898552Y-117177552D01*
X117942867Y-117111231D01*
X117942867Y-117111229D01*
X117942868Y-117111229D01*
X117954406Y-117053220D01*
X117954500Y-117052748D01*
X117954500Y-117023500D01*
X117974185Y-116956461D01*
X118026989Y-116910706D01*
X118078500Y-116899500D01*
X118956670Y-116899500D01*
X119023709Y-116919185D01*
X119067154Y-116967204D01*
X119110472Y-117052220D01*
X119110474Y-117052222D01*
X119110476Y-117052225D01*
X119205774Y-117147523D01*
X119205778Y-117147526D01*
X119205780Y-117147528D01*
X119325874Y-117208719D01*
X119325876Y-117208719D01*
X119325878Y-117208720D01*
X119425507Y-117224500D01*
X119425512Y-117224500D01*
X119942493Y-117224500D01*
X120042121Y-117208720D01*
X120042121Y-117208719D01*
X120042126Y-117208719D01*
X120162220Y-117147528D01*
X120257528Y-117052220D01*
X120318719Y-116932126D01*
X120319977Y-116924185D01*
X120334500Y-116832493D01*
X120334500Y-116265506D01*
X120583500Y-116265506D01*
X120583500Y-116832493D01*
X120599279Y-116932121D01*
X120599280Y-116932124D01*
X120599281Y-116932126D01*
X120657378Y-117046147D01*
X120660473Y-117052221D01*
X120660476Y-117052225D01*
X120755774Y-117147523D01*
X120755778Y-117147526D01*
X120755780Y-117147528D01*
X120875874Y-117208719D01*
X120875876Y-117208719D01*
X120875878Y-117208720D01*
X120975507Y-117224500D01*
X120975512Y-117224500D01*
X121492493Y-117224500D01*
X121592121Y-117208720D01*
X121592121Y-117208719D01*
X121592126Y-117208719D01*
X121712220Y-117147528D01*
X121807528Y-117052220D01*
X121850336Y-116968203D01*
X121898309Y-116917409D01*
X121960820Y-116900500D01*
X121972670Y-116900500D01*
X122039709Y-116920185D01*
X122083154Y-116968204D01*
X122126472Y-117053220D01*
X122126474Y-117053222D01*
X122126476Y-117053225D01*
X122221774Y-117148523D01*
X122221778Y-117148526D01*
X122221780Y-117148528D01*
X122341874Y-117209719D01*
X122341876Y-117209719D01*
X122341878Y-117209720D01*
X122441507Y-117225500D01*
X122441512Y-117225500D01*
X122958493Y-117225500D01*
X123058121Y-117209720D01*
X123058121Y-117209719D01*
X123058126Y-117209719D01*
X123178220Y-117148528D01*
X123273528Y-117053220D01*
X123334719Y-116933126D01*
X123334779Y-116932748D01*
X123350500Y-116833493D01*
X123350500Y-116266506D01*
X123334720Y-116166878D01*
X123334719Y-116166876D01*
X123334719Y-116166874D01*
X123273528Y-116046780D01*
X123273526Y-116046778D01*
X123273523Y-116046774D01*
X123178225Y-115951476D01*
X123178221Y-115951473D01*
X123178220Y-115951472D01*
X123058126Y-115890281D01*
X123058124Y-115890280D01*
X123058121Y-115890279D01*
X122958493Y-115874500D01*
X122958488Y-115874500D01*
X122441512Y-115874500D01*
X122441507Y-115874500D01*
X122341878Y-115890279D01*
X122221778Y-115951473D01*
X122221774Y-115951476D01*
X122126476Y-116046774D01*
X122126474Y-116046778D01*
X122126472Y-116046780D01*
X122083155Y-116131795D01*
X122035180Y-116182591D01*
X121972670Y-116199500D01*
X121961839Y-116199500D01*
X121894800Y-116179815D01*
X121851355Y-116131797D01*
X121807528Y-116045780D01*
X121807526Y-116045778D01*
X121807523Y-116045774D01*
X121712225Y-115950476D01*
X121712221Y-115950473D01*
X121712220Y-115950472D01*
X121592126Y-115889281D01*
X121592124Y-115889280D01*
X121592121Y-115889279D01*
X121492493Y-115873500D01*
X121492488Y-115873500D01*
X120975512Y-115873500D01*
X120975507Y-115873500D01*
X120875878Y-115889279D01*
X120755778Y-115950473D01*
X120755774Y-115950476D01*
X120660476Y-116045774D01*
X120660473Y-116045778D01*
X120599279Y-116165878D01*
X120583500Y-116265506D01*
X120334500Y-116265506D01*
X120318720Y-116165878D01*
X120318719Y-116165876D01*
X120318719Y-116165874D01*
X120257528Y-116045780D01*
X120257526Y-116045778D01*
X120257523Y-116045774D01*
X120162225Y-115950476D01*
X120162221Y-115950473D01*
X120162220Y-115950472D01*
X120042126Y-115889281D01*
X120042124Y-115889280D01*
X120042121Y-115889279D01*
X119942493Y-115873500D01*
X119942488Y-115873500D01*
X119425512Y-115873500D01*
X119425507Y-115873500D01*
X119325878Y-115889279D01*
X119205778Y-115950473D01*
X119205774Y-115950476D01*
X119110476Y-116045774D01*
X119110474Y-116045778D01*
X119110472Y-116045780D01*
X119067155Y-116130795D01*
X119019180Y-116181591D01*
X118956670Y-116198500D01*
X118078500Y-116198500D01*
X118011461Y-116178815D01*
X117965706Y-116126011D01*
X117954500Y-116074500D01*
X117954500Y-116013249D01*
X117954499Y-116013247D01*
X117942868Y-115954770D01*
X117942867Y-115954769D01*
X117898552Y-115888447D01*
X117832230Y-115844132D01*
X117832229Y-115844131D01*
X117773752Y-115832500D01*
X117773748Y-115832500D01*
X116634252Y-115832500D01*
X116634247Y-115832500D01*
X116575770Y-115844131D01*
X116566951Y-115847785D01*
X116497482Y-115855253D01*
X116435003Y-115823977D01*
X116399351Y-115763888D01*
X116395500Y-115733223D01*
X116395500Y-115723880D01*
X116393252Y-115700321D01*
X116389987Y-115666104D01*
X116381118Y-115620053D01*
X116364781Y-115564368D01*
X116283987Y-115362384D01*
X116275120Y-115316904D01*
X116273260Y-114913463D01*
X116273080Y-114904311D01*
X116272823Y-114896881D01*
X116254466Y-114802636D01*
X116230496Y-114737006D01*
X116225539Y-114727779D01*
X116217736Y-114710060D01*
X116202957Y-114667825D01*
X116196000Y-114626874D01*
X116196000Y-114283124D01*
X116202959Y-114242169D01*
X116216490Y-114203500D01*
X116223890Y-114182352D01*
X116228791Y-114170388D01*
X116237688Y-114151546D01*
X116257064Y-114084416D01*
X116269043Y-113998288D01*
X116268492Y-113878808D01*
X116259344Y-113806004D01*
X116247121Y-113757194D01*
X116247261Y-113753712D01*
X116211959Y-113652827D01*
X116205000Y-113611871D01*
X116205000Y-113228168D01*
X116205000Y-113228159D01*
X116202566Y-113189674D01*
X116198630Y-113158678D01*
X116196730Y-113145885D01*
X116162898Y-113054185D01*
X116157873Y-113040564D01*
X116157871Y-113040561D01*
X116157869Y-113040554D01*
X116122052Y-112980564D01*
X116067306Y-112913009D01*
X116067299Y-112913002D01*
X116067292Y-112912995D01*
X115933225Y-112788860D01*
X115933222Y-112788857D01*
X115933214Y-112788850D01*
X115923107Y-112780285D01*
X115912735Y-112771494D01*
X115904348Y-112764998D01*
X115895525Y-112758164D01*
X115894595Y-112757447D01*
X115894591Y-112757445D01*
X115894590Y-112757444D01*
X115794517Y-112706560D01*
X115727486Y-112686877D01*
X115727480Y-112686876D01*
X115641408Y-112674500D01*
X114013677Y-112674500D01*
X114013665Y-112674500D01*
X113976230Y-112676804D01*
X113976221Y-112676805D01*
X113946035Y-112680533D01*
X113934270Y-112682220D01*
X113934269Y-112682220D01*
X113828676Y-112720364D01*
X113768443Y-112755773D01*
X113700515Y-112810060D01*
X113568824Y-112950363D01*
X113508591Y-112985772D01*
X113478412Y-112989500D01*
X110124000Y-112989500D01*
X110056961Y-112969815D01*
X110011206Y-112917011D01*
X110000000Y-112865500D01*
X110000000Y-112389500D01*
X110019685Y-112322461D01*
X110072489Y-112276706D01*
X110124000Y-112265500D01*
X121368456Y-112265500D01*
X121435495Y-112285185D01*
G37*
%TD.AperFunction*%
%TA.AperFunction,Conductor*%
G36*
X143422539Y-104019685D02*
G01*
X143468294Y-104072489D01*
X143479500Y-104124000D01*
X143479500Y-108783016D01*
X143467882Y-108835421D01*
X143415931Y-108946828D01*
X143409500Y-108995683D01*
X143409500Y-109344316D01*
X143415931Y-109393171D01*
X143465935Y-109500404D01*
X143557267Y-109591736D01*
X143554443Y-109594559D01*
X143585183Y-109633042D01*
X143592352Y-109702542D01*
X143560808Y-109764886D01*
X143557101Y-109768098D01*
X143557267Y-109768264D01*
X143465935Y-109859595D01*
X143415931Y-109966828D01*
X143409500Y-110015683D01*
X143409500Y-110364316D01*
X143415931Y-110413171D01*
X143465935Y-110520404D01*
X143543181Y-110597650D01*
X143576666Y-110658973D01*
X143579500Y-110685331D01*
X143579500Y-110736143D01*
X143599465Y-110810658D01*
X143599474Y-110810688D01*
X143599475Y-110810691D01*
X143601843Y-110819530D01*
X143603386Y-110825288D01*
X143649527Y-110905208D01*
X143649529Y-110905211D01*
X143649530Y-110905212D01*
X144124788Y-111380470D01*
X144204712Y-111426614D01*
X144293856Y-111450500D01*
X144293857Y-111450500D01*
X144386144Y-111450500D01*
X146007598Y-111450500D01*
X146074637Y-111470185D01*
X146095279Y-111486819D01*
X146131684Y-111523224D01*
X146240513Y-111573972D01*
X146290099Y-111580500D01*
X146709900Y-111580499D01*
X146759487Y-111573972D01*
X146863097Y-111525657D01*
X146932172Y-111515166D01*
X146995956Y-111543685D01*
X147034196Y-111602162D01*
X147039500Y-111638040D01*
X147039500Y-112766144D01*
X147040446Y-112769673D01*
X147059566Y-112841035D01*
X147059577Y-112841071D01*
X147063386Y-112855288D01*
X147109527Y-112935208D01*
X147109529Y-112935211D01*
X147109530Y-112935212D01*
X147799531Y-113625212D01*
X147864788Y-113690469D01*
X147864791Y-113690470D01*
X147864794Y-113690473D01*
X147944706Y-113736611D01*
X147944707Y-113736611D01*
X147944712Y-113736614D01*
X148033856Y-113760500D01*
X148783455Y-113760500D01*
X148850494Y-113780185D01*
X148871135Y-113796818D01*
X148913180Y-113838862D01*
X148946666Y-113900184D01*
X148949500Y-113926544D01*
X148949500Y-114788500D01*
X148929815Y-114855539D01*
X148877011Y-114901294D01*
X148825500Y-114912500D01*
X148179544Y-114912500D01*
X148112505Y-114892815D01*
X148091863Y-114876181D01*
X146290213Y-113074531D01*
X146290208Y-113074527D01*
X146210290Y-113028387D01*
X146210285Y-113028385D01*
X146202455Y-113026287D01*
X146202454Y-113026286D01*
X146139357Y-113009380D01*
X146121144Y-113004500D01*
X146121143Y-113004500D01*
X145886402Y-113004500D01*
X145819363Y-112984815D01*
X145798721Y-112968181D01*
X145762316Y-112931776D01*
X145730652Y-112917011D01*
X145653487Y-112881028D01*
X145653485Y-112881027D01*
X145653486Y-112881027D01*
X145603901Y-112874500D01*
X145184105Y-112874500D01*
X145168386Y-112876569D01*
X145134513Y-112881028D01*
X145134511Y-112881029D01*
X145134509Y-112881029D01*
X145025683Y-112931776D01*
X144989279Y-112968181D01*
X144927956Y-113001666D01*
X144901598Y-113004500D01*
X143681544Y-113004500D01*
X143614505Y-112984815D01*
X143593863Y-112968181D01*
X142714819Y-112089137D01*
X142681334Y-112027814D01*
X142678500Y-112001456D01*
X142678500Y-110689331D01*
X142698185Y-110622292D01*
X142714819Y-110601650D01*
X142738575Y-110577894D01*
X142792065Y-110524404D01*
X142842068Y-110417173D01*
X142848500Y-110368316D01*
X142848500Y-110019684D01*
X142847973Y-110015684D01*
X142842068Y-109970828D01*
X142840203Y-109966828D01*
X142792065Y-109863596D01*
X142708404Y-109779935D01*
X142700733Y-109772264D01*
X142703561Y-109769435D01*
X142672843Y-109731023D01*
X142665635Y-109661526D01*
X142697143Y-109599165D01*
X142700903Y-109595906D01*
X142700733Y-109595736D01*
X142733988Y-109562481D01*
X142792065Y-109504404D01*
X142842068Y-109397173D01*
X142848500Y-109348316D01*
X142848500Y-108999684D01*
X142847973Y-108995684D01*
X142842068Y-108950828D01*
X142840202Y-108946827D01*
X142792065Y-108843596D01*
X142792064Y-108843595D01*
X142790118Y-108839421D01*
X142778500Y-108787016D01*
X142778500Y-104124000D01*
X142798185Y-104056961D01*
X142850989Y-104011206D01*
X142902500Y-104000000D01*
X143355500Y-104000000D01*
X143422539Y-104019685D01*
G37*
%TD.AperFunction*%
%TA.AperFunction,Conductor*%
G36*
X152974835Y-109489143D02*
G01*
X152978093Y-109492903D01*
X152978264Y-109492733D01*
X152985935Y-109500404D01*
X153069596Y-109584065D01*
X153176827Y-109634068D01*
X153225683Y-109640500D01*
X153225684Y-109640500D01*
X153574317Y-109640500D01*
X153592789Y-109638068D01*
X153623173Y-109634068D01*
X153730404Y-109584065D01*
X153730404Y-109584064D01*
X153734579Y-109582118D01*
X153786984Y-109570500D01*
X154585500Y-109570500D01*
X154652539Y-109590185D01*
X154698294Y-109642989D01*
X154709500Y-109694500D01*
X154709500Y-110030686D01*
X154697882Y-110083090D01*
X154686030Y-110108506D01*
X154686027Y-110108516D01*
X154679500Y-110158098D01*
X154679500Y-110577894D01*
X154682101Y-110597650D01*
X154686028Y-110627487D01*
X154687882Y-110631464D01*
X154699500Y-110683867D01*
X154699500Y-111132686D01*
X154687882Y-111185090D01*
X154676030Y-111210506D01*
X154676027Y-111210516D01*
X154669500Y-111260098D01*
X154669500Y-111679894D01*
X154669501Y-111679900D01*
X154674766Y-111719901D01*
X154676029Y-111729491D01*
X154687881Y-111754906D01*
X154699500Y-111807313D01*
X154699500Y-111992669D01*
X154679815Y-112059708D01*
X154627011Y-112105463D01*
X154557853Y-112115407D01*
X154494297Y-112086382D01*
X154487819Y-112080350D01*
X154460404Y-112052935D01*
X154460153Y-112052818D01*
X154353173Y-112002932D01*
X154353171Y-112002931D01*
X154353172Y-112002931D01*
X154304317Y-111996500D01*
X154304316Y-111996500D01*
X153955684Y-111996500D01*
X153955683Y-111996500D01*
X153906828Y-112002931D01*
X153799595Y-112052935D01*
X153715935Y-112136595D01*
X153665931Y-112243828D01*
X153659500Y-112292683D01*
X153659500Y-112369745D01*
X153639815Y-112436784D01*
X153623181Y-112457426D01*
X151362181Y-114718426D01*
X151300858Y-114751911D01*
X151231166Y-114746927D01*
X151175233Y-114705055D01*
X151150816Y-114639591D01*
X151150500Y-114630745D01*
X151150500Y-113548858D01*
X151150500Y-113548856D01*
X151126724Y-113460123D01*
X151122500Y-113428035D01*
X151122500Y-113222683D01*
X151116068Y-113173828D01*
X151114050Y-113169500D01*
X151066065Y-113066596D01*
X150982404Y-112982935D01*
X150974733Y-112975264D01*
X150977561Y-112972435D01*
X150946843Y-112934023D01*
X150939635Y-112864526D01*
X150971143Y-112802165D01*
X150974903Y-112798906D01*
X150974733Y-112798736D01*
X151020312Y-112753157D01*
X151066065Y-112707404D01*
X151116068Y-112600173D01*
X151122500Y-112551316D01*
X151122500Y-112202684D01*
X151116068Y-112153827D01*
X151066065Y-112046596D01*
X151066064Y-112046595D01*
X151064118Y-112042421D01*
X151052500Y-111990016D01*
X151052500Y-111753023D01*
X151064118Y-111700618D01*
X151064505Y-111699788D01*
X151073972Y-111679487D01*
X151080500Y-111629901D01*
X151080499Y-111210100D01*
X151073972Y-111160513D01*
X151073969Y-111160506D01*
X151073969Y-111160505D01*
X151062118Y-111135090D01*
X151050500Y-111082686D01*
X151050500Y-109694500D01*
X151070185Y-109627461D01*
X151122989Y-109581706D01*
X151174500Y-109570500D01*
X151993016Y-109570500D01*
X152045421Y-109582118D01*
X152049595Y-109584064D01*
X152049596Y-109584065D01*
X152156827Y-109634068D01*
X152205683Y-109640500D01*
X152205684Y-109640500D01*
X152554317Y-109640500D01*
X152572789Y-109638068D01*
X152603173Y-109634068D01*
X152710404Y-109584065D01*
X152794065Y-109500404D01*
X152794065Y-109500403D01*
X152801736Y-109492733D01*
X152804564Y-109495561D01*
X152842977Y-109464843D01*
X152912474Y-109457635D01*
X152974835Y-109489143D01*
G37*
%TD.AperFunction*%
%TA.AperFunction,Conductor*%
G36*
X137362539Y-104019685D02*
G01*
X137408294Y-104072489D01*
X137419500Y-104124000D01*
X137419500Y-108174456D01*
X137399815Y-108241495D01*
X137347011Y-108287250D01*
X137277853Y-108297194D01*
X137214297Y-108268169D01*
X137207819Y-108262137D01*
X136809213Y-107863531D01*
X136809208Y-107863527D01*
X136729290Y-107817387D01*
X136729289Y-107817386D01*
X136729288Y-107817386D01*
X136640144Y-107793500D01*
X136640143Y-107793500D01*
X136519795Y-107793500D01*
X136452756Y-107773815D01*
X136409311Y-107725796D01*
X136407412Y-107722071D01*
X136399050Y-107705658D01*
X136399047Y-107705655D01*
X136399045Y-107705652D01*
X136309347Y-107615954D01*
X136309343Y-107615951D01*
X136309342Y-107615950D01*
X136306137Y-107614317D01*
X136214204Y-107567474D01*
X136163409Y-107519500D01*
X136146500Y-107456990D01*
X136146500Y-107421009D01*
X136166185Y-107353970D01*
X136214202Y-107310526D01*
X136309342Y-107262050D01*
X136399050Y-107172342D01*
X136456646Y-107059304D01*
X136456646Y-107059302D01*
X136456647Y-107059301D01*
X136471499Y-106965524D01*
X136471500Y-106965519D01*
X136471499Y-106502482D01*
X136456646Y-106408696D01*
X136399050Y-106295658D01*
X136399046Y-106295654D01*
X136399045Y-106295652D01*
X136309347Y-106205954D01*
X136309344Y-106205952D01*
X136309342Y-106205950D01*
X136232517Y-106166805D01*
X136196301Y-106148352D01*
X136102524Y-106133500D01*
X135489482Y-106133500D01*
X135408519Y-106146323D01*
X135395696Y-106148354D01*
X135282658Y-106205950D01*
X135282657Y-106205951D01*
X135282652Y-106205954D01*
X135192954Y-106295652D01*
X135192949Y-106295659D01*
X135135808Y-106407802D01*
X135087833Y-106458598D01*
X135020012Y-106475392D01*
X134953877Y-106452854D01*
X134910426Y-106398138D01*
X134902851Y-106370907D01*
X134895719Y-106325874D01*
X134834528Y-106205780D01*
X134834526Y-106205778D01*
X134834523Y-106205774D01*
X134739225Y-106110476D01*
X134739221Y-106110473D01*
X134739220Y-106110472D01*
X134619126Y-106049281D01*
X134619124Y-106049280D01*
X134619121Y-106049279D01*
X134519493Y-106033500D01*
X134519488Y-106033500D01*
X133952512Y-106033500D01*
X133952507Y-106033500D01*
X133852878Y-106049279D01*
X133732778Y-106110473D01*
X133732774Y-106110476D01*
X133637476Y-106205774D01*
X133637469Y-106205783D01*
X133606892Y-106265795D01*
X133558918Y-106316591D01*
X133496408Y-106333500D01*
X133415592Y-106333500D01*
X133348553Y-106313815D01*
X133305108Y-106265795D01*
X133274530Y-106205783D01*
X133274523Y-106205774D01*
X133179225Y-106110476D01*
X133179221Y-106110473D01*
X133179220Y-106110472D01*
X133059126Y-106049281D01*
X133059124Y-106049280D01*
X133059121Y-106049279D01*
X132959493Y-106033500D01*
X132959488Y-106033500D01*
X132392512Y-106033500D01*
X132392507Y-106033500D01*
X132292878Y-106049279D01*
X132172778Y-106110473D01*
X132172774Y-106110476D01*
X132077476Y-106205774D01*
X132077473Y-106205778D01*
X132016279Y-106325878D01*
X132000500Y-106425506D01*
X132000500Y-106942493D01*
X132016279Y-107042121D01*
X132016280Y-107042124D01*
X132016281Y-107042126D01*
X132025034Y-107059304D01*
X132077473Y-107162221D01*
X132077476Y-107162225D01*
X132172774Y-107257523D01*
X132172778Y-107257526D01*
X132172780Y-107257528D01*
X132292874Y-107318719D01*
X132292876Y-107318719D01*
X132292878Y-107318720D01*
X132392507Y-107334500D01*
X132392512Y-107334500D01*
X132959493Y-107334500D01*
X133059121Y-107318720D01*
X133059121Y-107318719D01*
X133059126Y-107318719D01*
X133179220Y-107257528D01*
X133274528Y-107162220D01*
X133275912Y-107159503D01*
X133305108Y-107102205D01*
X133353082Y-107051409D01*
X133415592Y-107034500D01*
X133496408Y-107034500D01*
X133563447Y-107054185D01*
X133606892Y-107102205D01*
X133637469Y-107162216D01*
X133637476Y-107162225D01*
X133732774Y-107257523D01*
X133732777Y-107257525D01*
X133732780Y-107257528D01*
X133817795Y-107300845D01*
X133868590Y-107348818D01*
X133885500Y-107411329D01*
X133885500Y-107456990D01*
X133865815Y-107524029D01*
X133817796Y-107567474D01*
X133722659Y-107615949D01*
X133722652Y-107615954D01*
X133632954Y-107705652D01*
X133632951Y-107705657D01*
X133632950Y-107705658D01*
X133622689Y-107725796D01*
X133575352Y-107818698D01*
X133560500Y-107912475D01*
X133560500Y-108375517D01*
X133565526Y-108407249D01*
X133575354Y-108469304D01*
X133632950Y-108582342D01*
X133632952Y-108582344D01*
X133632953Y-108582346D01*
X133679417Y-108628809D01*
X133712903Y-108690132D01*
X133707919Y-108759823D01*
X133706300Y-108763938D01*
X133703671Y-108770285D01*
X133703670Y-108770286D01*
X133684750Y-108913999D01*
X133684750Y-108914000D01*
X133703670Y-109057708D01*
X133703671Y-109057712D01*
X133738516Y-109141837D01*
X133745985Y-109211307D01*
X133714709Y-109273786D01*
X133711637Y-109276970D01*
X133631427Y-109357181D01*
X133570104Y-109390666D01*
X133543745Y-109393500D01*
X133415592Y-109393500D01*
X133348553Y-109373815D01*
X133305108Y-109325795D01*
X133274530Y-109265783D01*
X133274523Y-109265774D01*
X133179225Y-109170476D01*
X133179221Y-109170473D01*
X133179220Y-109170472D01*
X133059126Y-109109281D01*
X133059124Y-109109280D01*
X133059121Y-109109279D01*
X132959493Y-109093500D01*
X132959488Y-109093500D01*
X132392512Y-109093500D01*
X132392507Y-109093500D01*
X132292878Y-109109279D01*
X132172778Y-109170473D01*
X132172774Y-109170476D01*
X132077476Y-109265774D01*
X132077473Y-109265778D01*
X132016279Y-109385877D01*
X132009147Y-109430907D01*
X131979216Y-109494041D01*
X131919904Y-109530972D01*
X131850041Y-109529972D01*
X131791809Y-109491361D01*
X131776193Y-109467807D01*
X131719050Y-109355658D01*
X131719047Y-109355655D01*
X131719045Y-109355652D01*
X131629347Y-109265954D01*
X131629344Y-109265952D01*
X131629342Y-109265950D01*
X131522100Y-109211307D01*
X131516301Y-109208352D01*
X131422524Y-109193500D01*
X130809482Y-109193500D01*
X130728519Y-109206323D01*
X130715696Y-109208354D01*
X130602658Y-109265950D01*
X130602657Y-109265951D01*
X130602652Y-109265954D01*
X130512954Y-109355652D01*
X130512949Y-109355659D01*
X130469983Y-109439983D01*
X130422008Y-109490779D01*
X130354187Y-109507573D01*
X130288052Y-109485035D01*
X130244601Y-109430319D01*
X130235499Y-109383690D01*
X130235499Y-109117100D01*
X130228972Y-109067513D01*
X130178224Y-108958684D01*
X130093316Y-108873776D01*
X129984487Y-108823028D01*
X129984485Y-108823027D01*
X129984486Y-108823027D01*
X129934902Y-108816500D01*
X129575105Y-108816500D01*
X129559386Y-108818569D01*
X129525513Y-108823028D01*
X129525511Y-108823029D01*
X129525509Y-108823029D01*
X129416683Y-108873776D01*
X129331776Y-108958683D01*
X129281027Y-109067514D01*
X129274500Y-109117098D01*
X129274500Y-109536894D01*
X129274501Y-109536900D01*
X129280709Y-109584065D01*
X129281029Y-109586491D01*
X129292881Y-109611906D01*
X129304500Y-109664313D01*
X129304500Y-109989420D01*
X129295014Y-110032210D01*
X129295683Y-110032405D01*
X129293027Y-110041516D01*
X129286500Y-110091098D01*
X129286500Y-110510894D01*
X129286501Y-110510900D01*
X129293028Y-110560487D01*
X129293029Y-110560489D01*
X129293029Y-110560490D01*
X129343776Y-110669316D01*
X129403582Y-110729122D01*
X129435673Y-110784699D01*
X129436960Y-110789501D01*
X129440386Y-110802288D01*
X129445239Y-110810694D01*
X129446860Y-110813501D01*
X129463331Y-110881401D01*
X129440479Y-110947428D01*
X129385557Y-110990618D01*
X129339473Y-110999500D01*
X129120105Y-110999500D01*
X129104386Y-111001569D01*
X129070513Y-111006028D01*
X129070511Y-111006029D01*
X129070509Y-111006029D01*
X128961683Y-111056776D01*
X128876776Y-111141683D01*
X128826027Y-111250514D01*
X128819500Y-111300098D01*
X128819500Y-111719894D01*
X128826029Y-111769491D01*
X128837881Y-111794906D01*
X128849500Y-111847313D01*
X128849500Y-112163831D01*
X128837882Y-112216236D01*
X128827029Y-112239509D01*
X128827027Y-112239516D01*
X128820500Y-112289098D01*
X128820500Y-112708894D01*
X128820501Y-112708900D01*
X128827028Y-112758487D01*
X128827029Y-112758489D01*
X128827029Y-112758490D01*
X128877776Y-112867316D01*
X128928065Y-112917605D01*
X128960159Y-112973192D01*
X128969888Y-113009500D01*
X128969887Y-113009500D01*
X128969888Y-113009502D01*
X128974385Y-113026286D01*
X129020527Y-113106208D01*
X129020529Y-113106211D01*
X129020530Y-113106212D01*
X129163127Y-113248809D01*
X129281181Y-113366862D01*
X129314666Y-113428185D01*
X129317500Y-113454543D01*
X129317500Y-114079500D01*
X129297815Y-114146539D01*
X129245011Y-114192294D01*
X129193500Y-114203500D01*
X128860544Y-114203500D01*
X128793505Y-114183815D01*
X128772863Y-114167181D01*
X127845213Y-113239531D01*
X127845208Y-113239527D01*
X127765289Y-113193386D01*
X127761347Y-113192330D01*
X127754517Y-113190500D01*
X127754516Y-113190499D01*
X127692296Y-113173828D01*
X127676144Y-113169500D01*
X127676143Y-113169500D01*
X124737260Y-113169500D01*
X124670221Y-113149815D01*
X124624466Y-113097011D01*
X124614522Y-113027853D01*
X124624464Y-112993991D01*
X124625165Y-112992457D01*
X124645647Y-112850000D01*
X124625925Y-112712826D01*
X124625165Y-112707542D01*
X124625164Y-112707541D01*
X124625101Y-112707404D01*
X124613601Y-112682221D01*
X124601706Y-112656174D01*
X124590500Y-112604663D01*
X124590500Y-104875506D01*
X133560500Y-104875506D01*
X133560500Y-105392493D01*
X133576279Y-105492121D01*
X133576280Y-105492124D01*
X133576281Y-105492126D01*
X133637470Y-105612216D01*
X133637473Y-105612221D01*
X133637476Y-105612225D01*
X133732774Y-105707523D01*
X133732778Y-105707526D01*
X133732780Y-105707528D01*
X133852874Y-105768719D01*
X133852876Y-105768719D01*
X133852878Y-105768720D01*
X133952507Y-105784500D01*
X133952512Y-105784500D01*
X134519493Y-105784500D01*
X134619121Y-105768720D01*
X134619121Y-105768719D01*
X134619126Y-105768719D01*
X134739220Y-105707528D01*
X134834528Y-105612220D01*
X134835912Y-105609503D01*
X134865108Y-105552205D01*
X134913082Y-105501409D01*
X134975592Y-105484500D01*
X135103745Y-105484500D01*
X135170784Y-105504185D01*
X135191426Y-105520819D01*
X135282652Y-105612045D01*
X135282654Y-105612046D01*
X135282658Y-105612050D01*
X135395694Y-105669645D01*
X135395698Y-105669647D01*
X135489475Y-105684499D01*
X135489481Y-105684500D01*
X136102518Y-105684499D01*
X136196304Y-105669646D01*
X136309342Y-105612050D01*
X136399050Y-105522342D01*
X136456646Y-105409304D01*
X136456646Y-105409302D01*
X136456647Y-105409301D01*
X136471499Y-105315524D01*
X136471500Y-105315519D01*
X136471499Y-104852482D01*
X136456646Y-104758696D01*
X136399050Y-104645658D01*
X136399046Y-104645654D01*
X136399045Y-104645652D01*
X136309347Y-104555954D01*
X136309344Y-104555952D01*
X136309342Y-104555950D01*
X136232517Y-104516805D01*
X136196301Y-104498352D01*
X136102524Y-104483500D01*
X135489482Y-104483500D01*
X135408519Y-104496323D01*
X135395696Y-104498354D01*
X135282658Y-104555950D01*
X135282657Y-104555951D01*
X135282652Y-104555954D01*
X135192954Y-104645652D01*
X135192951Y-104645657D01*
X135192950Y-104645658D01*
X135157212Y-104715796D01*
X135109239Y-104766591D01*
X135046729Y-104783500D01*
X134975592Y-104783500D01*
X134908553Y-104763815D01*
X134865108Y-104715795D01*
X134834530Y-104655783D01*
X134834523Y-104655774D01*
X134739225Y-104560476D01*
X134739221Y-104560473D01*
X134739220Y-104560472D01*
X134619126Y-104499281D01*
X134619124Y-104499280D01*
X134619121Y-104499279D01*
X134519493Y-104483500D01*
X134519488Y-104483500D01*
X133952512Y-104483500D01*
X133952507Y-104483500D01*
X133852878Y-104499279D01*
X133732778Y-104560473D01*
X133732774Y-104560476D01*
X133637476Y-104655774D01*
X133637473Y-104655778D01*
X133576279Y-104775878D01*
X133560500Y-104875506D01*
X124590500Y-104875506D01*
X124590500Y-104124000D01*
X124610185Y-104056961D01*
X124662989Y-104011206D01*
X124714500Y-104000000D01*
X137295500Y-104000000D01*
X137362539Y-104019685D01*
G37*
%TD.AperFunction*%
%TA.AperFunction,Conductor*%
G36*
X138158834Y-110150783D02*
G01*
X138214767Y-110192655D01*
X138239184Y-110258119D01*
X138239500Y-110266965D01*
X138239500Y-112881569D01*
X138219815Y-112948608D01*
X138203181Y-112969250D01*
X137869274Y-113303156D01*
X137807951Y-113336641D01*
X137738259Y-113331657D01*
X137682326Y-113289785D01*
X137658654Y-113231659D01*
X137656131Y-113212494D01*
X137654068Y-113196826D01*
X137604065Y-113089595D01*
X137520404Y-113005934D01*
X137413173Y-112955931D01*
X137413171Y-112955930D01*
X137413172Y-112955930D01*
X137364317Y-112949499D01*
X137364316Y-112949499D01*
X136915684Y-112949499D01*
X136915683Y-112949499D01*
X136866827Y-112955930D01*
X136866826Y-112955930D01*
X136788116Y-112992634D01*
X136719039Y-113003126D01*
X136655255Y-112974606D01*
X136626882Y-112939682D01*
X136612871Y-112914022D01*
X136612866Y-112914015D01*
X136577828Y-112867211D01*
X136577825Y-112867208D01*
X136577818Y-112867198D01*
X136511629Y-112801009D01*
X136511628Y-112801008D01*
X136511624Y-112801004D01*
X136495283Y-112786325D01*
X136495269Y-112786313D01*
X136474620Y-112769672D01*
X136403575Y-112732509D01*
X136336543Y-112712826D01*
X136335894Y-112712732D01*
X136278638Y-112704500D01*
X134726164Y-112704500D01*
X134726153Y-112704500D01*
X134711634Y-112705014D01*
X134694133Y-112706255D01*
X134694119Y-112706257D01*
X134623525Y-112724207D01*
X134605873Y-112732243D01*
X134536702Y-112742101D01*
X134473182Y-112712998D01*
X134435480Y-112654173D01*
X134430500Y-112619385D01*
X134430500Y-112245589D01*
X134450185Y-112178550D01*
X134466819Y-112157908D01*
X134897908Y-111726819D01*
X134959231Y-111693334D01*
X134985589Y-111690500D01*
X136389307Y-111690500D01*
X136389309Y-111690500D01*
X136464444Y-111670367D01*
X136480323Y-111666113D01*
X136480324Y-111666112D01*
X136503887Y-111659799D01*
X136606614Y-111600489D01*
X138027819Y-110179284D01*
X138089142Y-110145799D01*
X138158834Y-110150783D01*
G37*
%TD.AperFunction*%
%TA.AperFunction,Conductor*%
G36*
X150092539Y-104019685D02*
G01*
X150138294Y-104072489D01*
X150149500Y-104124000D01*
X150149500Y-111082686D01*
X150137882Y-111135090D01*
X150126030Y-111160506D01*
X150126027Y-111160516D01*
X150119500Y-111210098D01*
X150119500Y-111629894D01*
X150120572Y-111638040D01*
X150126028Y-111679487D01*
X150126029Y-111679490D01*
X150126030Y-111679493D01*
X150139881Y-111709195D01*
X150151500Y-111761601D01*
X150151500Y-111990016D01*
X150139882Y-112042421D01*
X150087931Y-112153828D01*
X150081500Y-112202683D01*
X150081500Y-112551316D01*
X150087931Y-112600171D01*
X150137935Y-112707404D01*
X150229267Y-112798736D01*
X150226443Y-112801559D01*
X150257183Y-112840042D01*
X150264352Y-112909542D01*
X150232808Y-112971886D01*
X150229101Y-112975098D01*
X150229267Y-112975264D01*
X150137935Y-113066595D01*
X150086351Y-113177218D01*
X150040179Y-113229657D01*
X149972985Y-113248809D01*
X149906104Y-113228593D01*
X149886288Y-113212494D01*
X149373325Y-112699531D01*
X149373320Y-112699527D01*
X149293402Y-112653387D01*
X149293401Y-112653386D01*
X149243069Y-112639900D01*
X149212403Y-112631683D01*
X149152745Y-112595319D01*
X149122216Y-112532472D01*
X149120499Y-112511917D01*
X149120499Y-112220100D01*
X149113972Y-112170513D01*
X149063224Y-112061684D01*
X149026819Y-112025279D01*
X148993334Y-111963956D01*
X148990500Y-111937598D01*
X148990500Y-110839331D01*
X149010185Y-110772292D01*
X149026819Y-110751650D01*
X149028969Y-110749500D01*
X149034065Y-110744404D01*
X149084068Y-110637173D01*
X149090500Y-110588316D01*
X149090500Y-110139684D01*
X149084068Y-110090827D01*
X149034065Y-109983596D01*
X148950404Y-109899935D01*
X148843173Y-109849932D01*
X148843171Y-109849931D01*
X148843172Y-109849931D01*
X148794317Y-109843500D01*
X148794316Y-109843500D01*
X148445684Y-109843500D01*
X148445683Y-109843500D01*
X148396828Y-109849931D01*
X148289595Y-109899935D01*
X148205935Y-109983595D01*
X148155931Y-110090828D01*
X148149500Y-110139683D01*
X148149500Y-110588316D01*
X148155931Y-110637171D01*
X148205935Y-110744404D01*
X148253181Y-110791650D01*
X148286666Y-110852973D01*
X148289500Y-110879331D01*
X148289500Y-111937598D01*
X148269815Y-112004637D01*
X148253181Y-112025279D01*
X148216776Y-112061683D01*
X148166027Y-112170514D01*
X148159500Y-112220098D01*
X148159500Y-112639895D01*
X148159501Y-112639900D01*
X148165071Y-112682220D01*
X148165479Y-112685313D01*
X148154711Y-112754348D01*
X148108329Y-112806603D01*
X148041060Y-112825486D01*
X147974260Y-112805003D01*
X147954858Y-112789176D01*
X147776819Y-112611137D01*
X147743334Y-112549814D01*
X147740500Y-112523456D01*
X147740500Y-111393858D01*
X147740500Y-111393856D01*
X147716614Y-111304712D01*
X147713951Y-111300100D01*
X147690858Y-111260101D01*
X147690856Y-111260099D01*
X147690855Y-111260098D01*
X147670470Y-111224788D01*
X147265212Y-110819530D01*
X147265211Y-110819529D01*
X147265208Y-110819527D01*
X147185290Y-110773387D01*
X147185289Y-110773386D01*
X147185288Y-110773386D01*
X147096144Y-110749500D01*
X147096143Y-110749500D01*
X146992402Y-110749500D01*
X146925363Y-110729815D01*
X146904721Y-110713181D01*
X146868316Y-110676776D01*
X146783387Y-110637173D01*
X146759487Y-110626028D01*
X146759485Y-110626027D01*
X146759486Y-110626027D01*
X146709901Y-110619500D01*
X146290105Y-110619500D01*
X146274386Y-110621569D01*
X146240513Y-110626028D01*
X146240511Y-110626029D01*
X146240509Y-110626029D01*
X146131683Y-110676776D01*
X146095279Y-110713181D01*
X146033956Y-110746666D01*
X146007598Y-110749500D01*
X144536544Y-110749500D01*
X144469505Y-110729815D01*
X144448863Y-110713181D01*
X144410813Y-110675131D01*
X144377328Y-110613808D01*
X144382312Y-110544116D01*
X144389583Y-110530284D01*
X144389480Y-110530236D01*
X144398496Y-110510901D01*
X144444068Y-110413173D01*
X144450500Y-110364316D01*
X144450500Y-110015684D01*
X144444068Y-109966827D01*
X144394065Y-109859596D01*
X144310404Y-109775935D01*
X144302733Y-109768264D01*
X144305561Y-109765435D01*
X144274843Y-109727023D01*
X144267635Y-109657526D01*
X144299143Y-109595165D01*
X144302903Y-109591906D01*
X144302733Y-109591736D01*
X144331988Y-109562481D01*
X144394065Y-109500404D01*
X144444068Y-109393173D01*
X144450500Y-109344316D01*
X144450500Y-108995684D01*
X144444068Y-108946827D01*
X144394065Y-108839596D01*
X144394064Y-108839595D01*
X144392118Y-108835421D01*
X144380500Y-108783016D01*
X144380500Y-104124000D01*
X144400185Y-104056961D01*
X144452989Y-104011206D01*
X144504500Y-104000000D01*
X150025500Y-104000000D01*
X150092539Y-104019685D01*
G37*
%TD.AperFunction*%
%TA.AperFunction,Conductor*%
G36*
X123632539Y-104019685D02*
G01*
X123678294Y-104072489D01*
X123689500Y-104124000D01*
X123689500Y-112464456D01*
X123669815Y-112531495D01*
X123617011Y-112577250D01*
X123547853Y-112587194D01*
X123484297Y-112558169D01*
X123477819Y-112552137D01*
X120020213Y-109094531D01*
X120020208Y-109094527D01*
X119940290Y-109048387D01*
X119940289Y-109048386D01*
X119940288Y-109048386D01*
X119851144Y-109024500D01*
X110124000Y-109024500D01*
X110056961Y-109004815D01*
X110011206Y-108952011D01*
X110000000Y-108900500D01*
X110000000Y-104124000D01*
X110019685Y-104056961D01*
X110072489Y-104011206D01*
X110124000Y-104000000D01*
X123565500Y-104000000D01*
X123632539Y-104019685D01*
G37*
%TD.AperFunction*%
%TA.AperFunction,Conductor*%
G36*
X119675495Y-109745185D02*
G01*
X119696137Y-109761819D01*
X121287137Y-111352819D01*
X121320622Y-111414142D01*
X121315638Y-111483834D01*
X121273766Y-111539767D01*
X121208302Y-111564184D01*
X121199456Y-111564500D01*
X110124000Y-111564500D01*
X110056961Y-111544815D01*
X110011206Y-111492011D01*
X110000000Y-111440500D01*
X110000000Y-109849500D01*
X110019685Y-109782461D01*
X110072489Y-109736706D01*
X110124000Y-109725500D01*
X119608456Y-109725500D01*
X119675495Y-109745185D01*
G37*
%TD.AperFunction*%
%TA.AperFunction,Conductor*%
G36*
X154652539Y-104019685D02*
G01*
X154698294Y-104072489D01*
X154709500Y-104124000D01*
X154709500Y-108545500D01*
X154689815Y-108612539D01*
X154637011Y-108658294D01*
X154585500Y-108669500D01*
X153786984Y-108669500D01*
X153734579Y-108657882D01*
X153730404Y-108655935D01*
X153623173Y-108605932D01*
X153623171Y-108605931D01*
X153623172Y-108605931D01*
X153574317Y-108599500D01*
X153574316Y-108599500D01*
X153225684Y-108599500D01*
X153225683Y-108599500D01*
X153176828Y-108605931D01*
X153069595Y-108655935D01*
X152978264Y-108747267D01*
X152975440Y-108744443D01*
X152936958Y-108775183D01*
X152867458Y-108782352D01*
X152805114Y-108750808D01*
X152801901Y-108747101D01*
X152801736Y-108747267D01*
X152710404Y-108655935D01*
X152697280Y-108649815D01*
X152603173Y-108605932D01*
X152603171Y-108605931D01*
X152603172Y-108605931D01*
X152554317Y-108599500D01*
X152554316Y-108599500D01*
X152205684Y-108599500D01*
X152205683Y-108599500D01*
X152156828Y-108605931D01*
X152045421Y-108657882D01*
X151993016Y-108669500D01*
X151174500Y-108669500D01*
X151107461Y-108649815D01*
X151061706Y-108597011D01*
X151050500Y-108545500D01*
X151050500Y-104124000D01*
X151070185Y-104056961D01*
X151122989Y-104011206D01*
X151174500Y-104000000D01*
X154585500Y-104000000D01*
X154652539Y-104019685D01*
G37*
%TD.AperFunction*%
%TD*%
%TA.AperFunction,Conductor*%
%TO.N,+3.3VA*%
G36*
X136345677Y-112929685D02*
G01*
X136366319Y-112946319D01*
X136432508Y-113012508D01*
X136465993Y-113073831D01*
X136468795Y-113103006D01*
X136464129Y-113308317D01*
X136442926Y-113374892D01*
X136389096Y-113419436D01*
X136340161Y-113429500D01*
X135263856Y-113429500D01*
X135174712Y-113453386D01*
X135174711Y-113453386D01*
X135174709Y-113453387D01*
X135174706Y-113453388D01*
X135094794Y-113499526D01*
X135094785Y-113499533D01*
X134990638Y-113603681D01*
X134929315Y-113637166D01*
X134902957Y-113640000D01*
X134739999Y-113640000D01*
X134285320Y-114631201D01*
X134239476Y-114683928D01*
X134172612Y-114703500D01*
X133449501Y-114703500D01*
X133382462Y-114683815D01*
X133340470Y-114638560D01*
X133260000Y-114490000D01*
X133154894Y-114490000D01*
X133087855Y-114470315D01*
X133075508Y-114461257D01*
X133063114Y-114450928D01*
X133024217Y-114392887D01*
X133018500Y-114355671D01*
X133018500Y-113544000D01*
X133038185Y-113476961D01*
X133090989Y-113431206D01*
X133142500Y-113420000D01*
X134089999Y-113420000D01*
X134090000Y-113420000D01*
X134645074Y-112940189D01*
X134708664Y-112911241D01*
X134726164Y-112910000D01*
X136278638Y-112910000D01*
X136345677Y-112929685D01*
G37*
%TD.AperFunction*%
%TD*%
%TA.AperFunction,Conductor*%
%TO.N,+3.3VA_VOUT*%
G36*
X104343791Y-97399685D02*
G01*
X104389546Y-97452489D01*
X104391518Y-97457044D01*
X104440768Y-97577435D01*
X104450000Y-97624383D01*
X104450000Y-98466940D01*
X104430315Y-98533979D01*
X104411619Y-98556636D01*
X104266128Y-98695514D01*
X104204043Y-98727564D01*
X104180055Y-98729817D01*
X101563546Y-98720232D01*
X101496579Y-98700302D01*
X101451018Y-98647331D01*
X101440000Y-98596233D01*
X101440000Y-98104402D01*
X101459685Y-98037363D01*
X101512489Y-97991608D01*
X101564771Y-97980404D01*
X103100000Y-97990000D01*
X103190000Y-97880000D01*
X103190000Y-97589036D01*
X103209685Y-97521997D01*
X103223537Y-97504227D01*
X103303258Y-97419190D01*
X103363470Y-97383747D01*
X103393721Y-97380000D01*
X104276752Y-97380000D01*
X104343791Y-97399685D01*
G37*
%TD.AperFunction*%
%TD*%
%TA.AperFunction,Conductor*%
%TO.N,+3.3V*%
G36*
X110763271Y-60269684D02*
G01*
X110789552Y-60292345D01*
X111421819Y-61014938D01*
X111451150Y-61078352D01*
X111452499Y-61096592D01*
X111452499Y-63189731D01*
X111432814Y-63256770D01*
X111405109Y-63287234D01*
X110052499Y-64349999D01*
X110052499Y-68998638D01*
X110032814Y-69065677D01*
X110016180Y-69086319D01*
X109688819Y-69413681D01*
X109627496Y-69447166D01*
X109601138Y-69450000D01*
X108503862Y-69450000D01*
X108436823Y-69430315D01*
X108416181Y-69413681D01*
X108188819Y-69186319D01*
X108155334Y-69124996D01*
X108152500Y-69098638D01*
X108152500Y-65450000D01*
X108152499Y-65449999D01*
X107452500Y-65050000D01*
X103692238Y-65050000D01*
X103625199Y-65030315D01*
X103620164Y-65026903D01*
X103004426Y-64587090D01*
X102961316Y-64532106D01*
X102952500Y-64486187D01*
X102952500Y-63816362D01*
X102972185Y-63749323D01*
X103007715Y-63713189D01*
X103521263Y-63370824D01*
X103587960Y-63350017D01*
X103589930Y-63349999D01*
X105752500Y-63349999D01*
X106552500Y-62549999D01*
X106552500Y-61197144D01*
X106572185Y-61130105D01*
X106583816Y-61114768D01*
X107315505Y-60291617D01*
X107374756Y-60254590D01*
X107408184Y-60249999D01*
X110696232Y-60249999D01*
X110763271Y-60269684D01*
G37*
%TD.AperFunction*%
%TD*%
%TA.AperFunction,Conductor*%
%TO.N,GND*%
G36*
X104237897Y-104409685D02*
G01*
X104283327Y-104461782D01*
X104368469Y-104645164D01*
X104380000Y-104697382D01*
X104380000Y-105302416D01*
X104360315Y-105369455D01*
X104348170Y-105385366D01*
X104326945Y-105408950D01*
X104267467Y-105445613D01*
X104234775Y-105450000D01*
X103342543Y-105450000D01*
X103275504Y-105430315D01*
X103242825Y-105399705D01*
X103232227Y-105385366D01*
X103110000Y-105220000D01*
X103109999Y-105220000D01*
X102869083Y-105220000D01*
X102815188Y-105204174D01*
X102814513Y-105205806D01*
X102803229Y-105201131D01*
X102744752Y-105189500D01*
X102744748Y-105189500D01*
X101455252Y-105189500D01*
X101455247Y-105189500D01*
X101396770Y-105201131D01*
X101385487Y-105205806D01*
X101384673Y-105203841D01*
X101333129Y-105219980D01*
X101330917Y-105220000D01*
X100369083Y-105220000D01*
X100315188Y-105204174D01*
X100314513Y-105205806D01*
X100303229Y-105201131D01*
X100244752Y-105189500D01*
X100244748Y-105189500D01*
X98955252Y-105189500D01*
X98955247Y-105189500D01*
X98896770Y-105201131D01*
X98896769Y-105201132D01*
X98830447Y-105245447D01*
X98786132Y-105311769D01*
X98786132Y-105311770D01*
X98781283Y-105336148D01*
X98774636Y-105352220D01*
X98775320Y-105352427D01*
X98770000Y-105369999D01*
X98770000Y-105511536D01*
X98750315Y-105578575D01*
X98733681Y-105599217D01*
X98679513Y-105653384D01*
X98679509Y-105653390D01*
X98620201Y-105756113D01*
X98620200Y-105756118D01*
X98589500Y-105870692D01*
X98589500Y-106546000D01*
X98569815Y-106613039D01*
X98517011Y-106658794D01*
X98465500Y-106670000D01*
X97370094Y-106670000D01*
X97303055Y-106650315D01*
X97283964Y-106635206D01*
X97168370Y-106523598D01*
X97133815Y-106462871D01*
X97130500Y-106434392D01*
X97130500Y-104738365D01*
X97150185Y-104671326D01*
X97185259Y-104635498D01*
X97396379Y-104493398D01*
X97518606Y-104411131D01*
X97585212Y-104390028D01*
X97587844Y-104390000D01*
X104170858Y-104390000D01*
X104237897Y-104409685D01*
G37*
%TD.AperFunction*%
%TD*%
%TA.AperFunction,Conductor*%
%TO.N,+3.3VA*%
G36*
X104333791Y-102849685D02*
G01*
X104379546Y-102902489D01*
X104381518Y-102907044D01*
X104430768Y-103027435D01*
X104440000Y-103074383D01*
X104440000Y-103916940D01*
X104420315Y-103983979D01*
X104401619Y-104006636D01*
X104256128Y-104145514D01*
X104194043Y-104177564D01*
X104170055Y-104179817D01*
X101553546Y-104170232D01*
X101486579Y-104150302D01*
X101441018Y-104097331D01*
X101430000Y-104046233D01*
X101430000Y-103554402D01*
X101449685Y-103487363D01*
X101502489Y-103441608D01*
X101554771Y-103430404D01*
X103090000Y-103440000D01*
X103180000Y-103330000D01*
X103180000Y-103039036D01*
X103199685Y-102971997D01*
X103213537Y-102954227D01*
X103293258Y-102869190D01*
X103353470Y-102833747D01*
X103383721Y-102830000D01*
X104266752Y-102830000D01*
X104333791Y-102849685D01*
G37*
%TD.AperFunction*%
%TD*%
%TA.AperFunction,Conductor*%
%TO.N,GND*%
G36*
X108704140Y-73240185D02*
G01*
X108749895Y-73292989D01*
X108761093Y-73345942D01*
X108700627Y-78546010D01*
X108680164Y-78612816D01*
X108660046Y-78636321D01*
X107635472Y-79567753D01*
X107572626Y-79598283D01*
X107552061Y-79600000D01*
X102351362Y-79600000D01*
X102284323Y-79580315D01*
X102263681Y-79563681D01*
X102036319Y-79336319D01*
X102002834Y-79274996D01*
X102000000Y-79248638D01*
X102000000Y-77751362D01*
X102019685Y-77684323D01*
X102036319Y-77663681D01*
X102463681Y-77236319D01*
X102525004Y-77202834D01*
X102551362Y-77200000D01*
X104299999Y-77200000D01*
X104300000Y-77200000D01*
X104800000Y-76800000D01*
X104800000Y-76059597D01*
X104819685Y-75992558D01*
X104846536Y-75962771D01*
X105266035Y-75627172D01*
X105330681Y-75600664D01*
X105343497Y-75600000D01*
X105700001Y-75600000D01*
X105700000Y-75599999D01*
X106000000Y-75100000D01*
X106000000Y-73344500D01*
X106019685Y-73277461D01*
X106072489Y-73231706D01*
X106124000Y-73220500D01*
X108637101Y-73220500D01*
X108704140Y-73240185D01*
G37*
%TD.AperFunction*%
%TA.AperFunction,Conductor*%
G36*
X105215677Y-65419685D02*
G01*
X105236319Y-65436319D01*
X105463681Y-65663681D01*
X105497166Y-65725004D01*
X105500000Y-65751362D01*
X105500000Y-66600000D01*
X105800000Y-66900000D01*
X107448638Y-66900000D01*
X107515677Y-66919685D01*
X107536319Y-66936319D01*
X107763681Y-67163681D01*
X107797166Y-67225004D01*
X107800000Y-67251362D01*
X107800000Y-69500000D01*
X108100000Y-69700000D01*
X108274940Y-69700000D01*
X108331139Y-69713467D01*
X108350751Y-69723439D01*
X108417790Y-69743124D01*
X108503862Y-69755500D01*
X108504138Y-69755500D01*
X108504226Y-69755525D01*
X108508281Y-69755816D01*
X108508217Y-69756698D01*
X108571177Y-69775185D01*
X108591819Y-69791819D01*
X108763081Y-69963081D01*
X108796566Y-70024404D01*
X108799392Y-70052204D01*
X108781473Y-71593317D01*
X108777790Y-71910113D01*
X108776780Y-71996942D01*
X108756317Y-72063748D01*
X108702985Y-72108886D01*
X108652788Y-72119500D01*
X106209387Y-72119500D01*
X106142348Y-72099815D01*
X106121706Y-72083181D01*
X106036319Y-71997794D01*
X106002834Y-71936471D01*
X106000000Y-71910113D01*
X106000000Y-70099999D01*
X105100000Y-69100000D01*
X103751362Y-69100000D01*
X103684323Y-69080315D01*
X103663681Y-69063681D01*
X103036319Y-68436319D01*
X103002834Y-68374996D01*
X103000000Y-68348638D01*
X103000000Y-65851362D01*
X103019685Y-65784323D01*
X103036319Y-65763681D01*
X103363681Y-65436319D01*
X103425004Y-65402834D01*
X103451362Y-65400000D01*
X105148638Y-65400000D01*
X105215677Y-65419685D01*
G37*
%TD.AperFunction*%
%TD*%
%TA.AperFunction,Conductor*%
%TO.N,+12V*%
G36*
X104075677Y-80009685D02*
G01*
X104096319Y-80026319D01*
X105060000Y-80990000D01*
X107758638Y-80990000D01*
X107825677Y-81009685D01*
X107846319Y-81026319D01*
X108273681Y-81453681D01*
X108307166Y-81515004D01*
X108310000Y-81541362D01*
X108310000Y-82938638D01*
X108290315Y-83005677D01*
X108273681Y-83026319D01*
X107846319Y-83453681D01*
X107784996Y-83487166D01*
X107758638Y-83490000D01*
X104886636Y-83490000D01*
X104819597Y-83470315D01*
X104775727Y-83421454D01*
X104060001Y-81990001D01*
X104060000Y-81990000D01*
X104059999Y-81990000D01*
X102611362Y-81990000D01*
X102544323Y-81970315D01*
X102523681Y-81953681D01*
X102096319Y-81526319D01*
X102062834Y-81464996D01*
X102060000Y-81438638D01*
X102060000Y-80541362D01*
X102079685Y-80474323D01*
X102096319Y-80453681D01*
X102523681Y-80026319D01*
X102585004Y-79992834D01*
X102611362Y-79990000D01*
X104008638Y-79990000D01*
X104075677Y-80009685D01*
G37*
%TD.AperFunction*%
%TD*%
%TA.AperFunction,Conductor*%
%TO.N,+5V*%
G36*
X98485039Y-97479685D02*
G01*
X98517200Y-97509600D01*
X98779999Y-97860000D01*
X98780000Y-97860000D01*
X100128638Y-97860000D01*
X100195677Y-97879685D01*
X100216319Y-97896319D01*
X100343681Y-98023681D01*
X100377166Y-98085004D01*
X100380000Y-98111362D01*
X100380000Y-98650500D01*
X100360315Y-98717539D01*
X100307511Y-98763294D01*
X100256000Y-98774500D01*
X98839671Y-98774500D01*
X98792218Y-98765061D01*
X98780000Y-98760000D01*
X97531362Y-98760000D01*
X97464323Y-98740315D01*
X97443681Y-98723681D01*
X97216319Y-98496319D01*
X97182834Y-98434996D01*
X97180000Y-98408638D01*
X97180000Y-97811362D01*
X97199685Y-97744323D01*
X97216319Y-97723681D01*
X97443681Y-97496319D01*
X97505004Y-97462834D01*
X97531362Y-97460000D01*
X98418000Y-97460000D01*
X98485039Y-97479685D01*
G37*
%TD.AperFunction*%
%TD*%
%TA.AperFunction,Conductor*%
%TO.N,+5V*%
G36*
X112115677Y-66819685D02*
G01*
X112136319Y-66836319D01*
X112363681Y-67063681D01*
X112397166Y-67125004D01*
X112400000Y-67151362D01*
X112400000Y-70071780D01*
X112387789Y-70125439D01*
X111200000Y-72600001D01*
X111200000Y-74300001D01*
X111199999Y-74300001D01*
X112299999Y-75699999D01*
X112300000Y-75700000D01*
X116853408Y-75700000D01*
X116920447Y-75719685D01*
X116935063Y-75730680D01*
X117657655Y-76362948D01*
X117695145Y-76421908D01*
X117700000Y-76456268D01*
X117700000Y-83253407D01*
X117680315Y-83320446D01*
X117669320Y-83335062D01*
X117037052Y-84057655D01*
X116978092Y-84095145D01*
X116943732Y-84100000D01*
X109956268Y-84100000D01*
X109889229Y-84080315D01*
X109862948Y-84057655D01*
X109230680Y-83335062D01*
X109201349Y-83271647D01*
X109200000Y-83253407D01*
X109200000Y-69951362D01*
X109219685Y-69884323D01*
X109236319Y-69863681D01*
X109308181Y-69791819D01*
X109369504Y-69758334D01*
X109395862Y-69755500D01*
X109601139Y-69755500D01*
X109603059Y-69755397D01*
X109633797Y-69753749D01*
X109660155Y-69750915D01*
X109667160Y-69750080D01*
X109773907Y-69715297D01*
X109774143Y-69715167D01*
X109774299Y-69715128D01*
X109779165Y-69713028D01*
X109779498Y-69713801D01*
X109833570Y-69700000D01*
X110000000Y-69700000D01*
X110300000Y-69400000D01*
X110300000Y-69232475D01*
X110313469Y-69176271D01*
X110325938Y-69151749D01*
X110345623Y-69084710D01*
X110357999Y-68998638D01*
X110357999Y-67093363D01*
X110377684Y-67026324D01*
X110394318Y-67005682D01*
X110563681Y-66836319D01*
X110625004Y-66802834D01*
X110651362Y-66800000D01*
X112048638Y-66800000D01*
X112115677Y-66819685D01*
G37*
%TD.AperFunction*%
%TD*%
%TA.AperFunction,Conductor*%
%TO.N,GND*%
G36*
X104237897Y-98999685D02*
G01*
X104283327Y-99051782D01*
X104368469Y-99235164D01*
X104380000Y-99287382D01*
X104380000Y-99892416D01*
X104360315Y-99959455D01*
X104348170Y-99975366D01*
X104326945Y-99998950D01*
X104267467Y-100035613D01*
X104234775Y-100040000D01*
X103342543Y-100040000D01*
X103275504Y-100020315D01*
X103242825Y-99989705D01*
X103232227Y-99975366D01*
X103110000Y-99810000D01*
X103109999Y-99810000D01*
X102906035Y-99810000D01*
X102838996Y-99790315D01*
X102837144Y-99789102D01*
X102819230Y-99777132D01*
X102819229Y-99777131D01*
X102760752Y-99765500D01*
X102760748Y-99765500D01*
X101471252Y-99765500D01*
X101471247Y-99765500D01*
X101412770Y-99777131D01*
X101412769Y-99777132D01*
X101394856Y-99789102D01*
X101328179Y-99809980D01*
X101325965Y-99810000D01*
X100406035Y-99810000D01*
X100338996Y-99790315D01*
X100337144Y-99789102D01*
X100319230Y-99777132D01*
X100319229Y-99777131D01*
X100260752Y-99765500D01*
X100260748Y-99765500D01*
X98971252Y-99765500D01*
X98971247Y-99765500D01*
X98912770Y-99777131D01*
X98912769Y-99777132D01*
X98846447Y-99821447D01*
X98802133Y-99887767D01*
X98800119Y-99897896D01*
X98781678Y-99942483D01*
X98770000Y-99960000D01*
X98770000Y-100201535D01*
X98750315Y-100268574D01*
X98733681Y-100289216D01*
X98689512Y-100333384D01*
X98689510Y-100333387D01*
X98630199Y-100436114D01*
X98629188Y-100439890D01*
X98599499Y-100550692D01*
X98599499Y-101111500D01*
X98579814Y-101178539D01*
X98527010Y-101224294D01*
X98475499Y-101235500D01*
X97344719Y-101235500D01*
X97277680Y-101215815D01*
X97258589Y-101200706D01*
X97168370Y-101113598D01*
X97133815Y-101052871D01*
X97130500Y-101024392D01*
X97130500Y-99328365D01*
X97150185Y-99261326D01*
X97185259Y-99225498D01*
X97396379Y-99083398D01*
X97518606Y-99001131D01*
X97585212Y-98980028D01*
X97587844Y-98980000D01*
X104170858Y-98980000D01*
X104237897Y-98999685D01*
G37*
%TD.AperFunction*%
%TD*%
M02*
