M48
; DRILL file {KiCad 8.0.2} date 2024-07-16T14:44:52-0700
; FORMAT={-:-/ absolute / metric / decimal}
; #@! TF.CreationDate,2024-07-16T14:44:52-07:00
; #@! TF.GenerationSoftware,Kicad,Pcbnew,8.0.2
; #@! TF.FileFunction,MixedPlating,1,2
FMAT,2
METRIC
; #@! TA.AperFunction,Plated,PTH,ViaDrill
T1C0.300
; #@! TA.AperFunction,Plated,PTH,ViaDrill
T2C0.400
; #@! TA.AperFunction,Plated,PTH,ViaDrill
T3C0.500
; #@! TA.AperFunction,Plated,PTH,ComponentDrill
T4C1.000
; #@! TA.AperFunction,Plated,PTH,ComponentDrill
T5C1.300
; #@! TA.AperFunction,Plated,PTH,ComponentDrill
T6C4.300
%
G90
G05
T1
X89.56Y-77.54
X97.41Y-106.21
X97.42Y-100.79
X98.07Y-118.29
X98.07Y-120.82
X98.07Y-123.38
X98.31Y-106.21
X98.32Y-100.79
X99.03Y-72.57
X100.82Y-99.44
X100.84Y-104.91
X101.75Y-99.44
X101.76Y-104.91
X102.3Y-70.52
X102.31Y-72.01
X102.7Y-77.7
X102.79Y-99.44
X102.8Y-104.91
X103.6Y-77.7
X103.782Y-67.53
X103.782Y-68.43
X104.6Y-77.7
X104.782Y-67.53
X104.782Y-68.43
X105.4Y-76.3
X106.5Y-76.3
X106.582Y-70.13
X106.582Y-71.13
X106.6Y-73.5
X106.6Y-74.6
X107.5Y-76.3
X107.6Y-85.79
X110.75Y-107.75
X110.75Y-110.6
X110.75Y-114.65
X110.75Y-118.6
X110.75Y-121.7
X110.75Y-126.3
X110.8Y-104.75
X112.51Y-58.82
X115.18Y-56.98
X116.26Y-66.39
X116.75Y-107.75
X116.75Y-110.6
X116.75Y-121.7
X116.75Y-126.3
X116.8Y-104.75
X117.4Y-113.45
X117.4Y-114.45
X118.14Y-64.77
X118.41Y-118.03
X118.67Y-47.76
X119.44Y-62.63
X120.42Y-65.12
X120.43Y-61.43
X122.75Y-104.75
X122.75Y-107.75
X122.75Y-110.6
X122.75Y-114.6
X122.75Y-118.6
X122.75Y-121.65
X122.75Y-126.4
X123.15Y-70.25
X123.15Y-71.85
X124.14Y-112.85
X124.14Y-114.59
X124.6Y-66.55
X125.15Y-104.75
X125.15Y-107.75
X125.2Y-63.05
X125.25Y-110.6
X125.63Y-68.51
X126.73Y-121.74
X126.75Y-126.4
X127.37Y-112.51
X127.68Y-73.3
X127.86Y-110.32
X127.99Y-67.18
X128.0Y-63.0
X128.0Y-65.82
X128.01Y-58.65
X129.5Y-68.54
X130.418Y-115.304
X130.418Y-116.304
X130.418Y-117.304
X131.15Y-104.75
X131.41Y-124.96
X131.418Y-115.304
X131.418Y-116.304
X131.418Y-117.304
X132.418Y-115.304
X132.418Y-116.304
X132.418Y-117.304
X132.67Y-119.85
X133.1Y-122.75
X133.1Y-126.35
X133.24Y-64.55
X133.25Y-110.76
X134.24Y-108.914
X135.79Y-109.024
X136.6Y-122.75
X136.65Y-126.35
X137.13Y-109.1
X137.15Y-117.75
X137.59Y-111.29
X138.05Y-115.35
X138.05Y-117.75
X138.95Y-115.35
X138.95Y-117.75
X139.85Y-115.35
X139.85Y-117.75
X140.45Y-104.75
X140.45Y-107.75
X140.75Y-115.35
X140.75Y-117.75
X141.22Y-109.85
X141.22Y-110.85
X141.22Y-111.82
X141.6Y-122.75
X141.65Y-115.35
X141.65Y-117.75
X141.65Y-126.35
X142.55Y-115.35
X142.55Y-117.75
X143.15Y-110.95
X143.45Y-115.35
X143.45Y-117.75
X144.35Y-115.35
X144.35Y-117.75
X145.05Y-104.75
X145.05Y-107.75
X145.25Y-115.35
X145.25Y-117.75
X146.15Y-115.35
X146.15Y-117.75
X146.6Y-122.75
X146.65Y-126.35
X146.67Y-112.93
X147.05Y-115.35
X147.05Y-117.75
X147.95Y-117.75
X148.05Y-104.75
X148.05Y-107.75
X149.317Y-58.195
X149.6Y-115.56
X149.6Y-116.46
X149.6Y-117.4
X149.6Y-118.3
X150.5Y-115.56
X150.5Y-116.46
X150.5Y-117.4
X150.5Y-118.3
X151.1Y-122.75
X151.15Y-126.35
X151.5Y-110.0
X151.5Y-111.55
X151.5Y-114.15
X151.55Y-104.75
X151.55Y-107.75
X151.8Y-117.75
X152.7Y-117.75
X152.85Y-112.75
X153.0Y-115.35
X153.6Y-117.75
X153.9Y-115.35
X154.2Y-113.6
X154.25Y-104.75
X154.25Y-107.75
X154.25Y-110.0
X154.25Y-111.55
X154.5Y-117.75
X155.4Y-117.75
X156.1Y-104.75
X156.1Y-107.75
X156.1Y-112.4
X156.1Y-122.75
X156.15Y-109.45
X156.15Y-126.35
X156.28Y-114.35
X156.3Y-115.35
X156.3Y-117.75
X157.0Y-110.4
X157.0Y-111.5
X157.05Y-113.6
X157.2Y-115.35
X157.2Y-117.75
X158.1Y-115.35
X158.1Y-117.75
X159.0Y-115.35
X159.0Y-117.75
X159.06Y-69.08
X159.9Y-115.35
X159.9Y-117.75
X159.98Y-70.04
X160.8Y-115.35
X160.8Y-117.75
X161.1Y-104.75
X161.1Y-107.75
X161.1Y-110.25
X161.1Y-122.75
X161.15Y-126.35
X161.7Y-115.35
X161.7Y-117.75
X162.6Y-115.35
X162.6Y-117.75
X163.5Y-115.35
X163.5Y-117.75
X164.4Y-115.35
X164.4Y-117.75
X165.3Y-115.35
X165.3Y-117.75
X166.1Y-104.75
X166.1Y-107.75
X166.1Y-110.25
X166.1Y-113.95
X166.1Y-118.95
X166.1Y-122.75
X166.15Y-126.35
X166.625Y-111.55
X166.625Y-112.675
X166.625Y-120.3
X166.625Y-121.425
X167.6Y-111.55
X167.6Y-112.675
X167.6Y-120.3
X167.6Y-121.425
X168.35Y-110.25
X168.35Y-113.95
X168.35Y-118.95
X168.35Y-122.75
X168.575Y-111.55
X168.575Y-112.675
X168.575Y-120.3
X168.575Y-121.425
X169.55Y-111.55
X169.55Y-112.675
X169.55Y-120.3
X169.55Y-121.425
X170.1Y-113.95
X170.1Y-118.95
X170.525Y-111.55
X170.525Y-112.675
X170.525Y-120.3
X170.525Y-121.425
X170.6Y-104.75
X170.6Y-107.75
X170.6Y-110.25
X170.6Y-122.75
X170.65Y-126.35
T2
X89.54Y-96.31
X89.55Y-87.84
X95.66Y-96.25
X97.66Y-96.26
X99.14Y-79.64
X99.15Y-81.87
X99.32Y-71.28
X100.78Y-71.28
X107.76Y-108.63
X107.77Y-112.65
X107.79Y-122.5
X107.79Y-126.33
X116.26Y-55.31
X117.72Y-55.31
X124.81Y-123.06
X124.81Y-126.32
X125.27Y-55.32
X129.9Y-55.29
X131.59Y-56.98
X132.899Y-72.391
X133.95Y-71.31
X134.285Y-69.495
X134.3Y-59.74
X134.32Y-64.18
X163.89Y-60.07
T3
X120.16Y-84.46
X124.063Y-88.213
T4
X78.725Y-109.375
X78.725Y-111.915
X78.725Y-114.455
X78.725Y-116.995
X78.725Y-119.535
X78.725Y-122.075
X78.725Y-124.615
X80.0Y-94.796
X80.0Y-97.336
X80.0Y-99.876
X80.0Y-102.416
X80.0Y-104.956
X81.265Y-109.375
X81.265Y-111.915
X81.265Y-114.455
X81.265Y-116.995
X81.265Y-119.535
X81.265Y-122.075
X81.265Y-124.615
X94.89Y-48.69
X94.89Y-51.23
X97.43Y-48.69
X97.43Y-51.23
X131.31Y-48.69
X131.31Y-51.23
X133.85Y-48.69
X133.85Y-51.23
X136.39Y-51.23
X136.39Y-48.69
X147.25Y-49.98
X149.79Y-49.98
X151.345Y-60.8
X151.345Y-63.34
X151.345Y-65.88
X151.345Y-68.42
X151.345Y-70.96
X151.345Y-73.5
X152.33Y-49.98
X153.885Y-60.8
X153.885Y-63.34
X153.885Y-65.88
X153.885Y-68.42
X153.885Y-70.96
X153.885Y-73.5
X154.87Y-49.98
X162.7Y-63.33
X162.7Y-65.87
X162.7Y-68.41
X162.7Y-70.95
X164.0Y-81.46
X164.0Y-84.0
X164.0Y-89.01
X164.0Y-91.55
X165.24Y-63.33
X165.24Y-65.87
X165.24Y-68.41
X165.24Y-70.95
T5
X79.99Y-69.59
X79.99Y-74.59
X79.99Y-79.59
X79.99Y-84.59
T6
X80.0Y-50.0
X80.0Y-134.0
X164.0Y-50.0
X164.0Y-134.0
M30
