%TF.GenerationSoftware,KiCad,Pcbnew,8.0.2*%
%TF.CreationDate,2024-06-06T20:45:53-07:00*%
%TF.ProjectId,tpms-sn-flex,74706d73-2d73-46e2-9d66-6c65782e6b69,rev?*%
%TF.SameCoordinates,Original*%
%TF.FileFunction,Copper,L1,Top*%
%TF.FilePolarity,Positive*%
%FSLAX46Y46*%
G04 Gerber Fmt 4.6, Leading zero omitted, Abs format (unit mm)*
G04 Created by KiCad (PCBNEW 8.0.2) date 2024-06-06 20:45:53*
%MOMM*%
%LPD*%
G01*
G04 APERTURE LIST*
G04 Aperture macros list*
%AMRoundRect*
0 Rectangle with rounded corners*
0 $1 Rounding radius*
0 $2 $3 $4 $5 $6 $7 $8 $9 X,Y pos of 4 corners*
0 Add a 4 corners polygon primitive as box body*
4,1,4,$2,$3,$4,$5,$6,$7,$8,$9,$2,$3,0*
0 Add four circle primitives for the rounded corners*
1,1,$1+$1,$2,$3*
1,1,$1+$1,$4,$5*
1,1,$1+$1,$6,$7*
1,1,$1+$1,$8,$9*
0 Add four rect primitives between the rounded corners*
20,1,$1+$1,$2,$3,$4,$5,0*
20,1,$1+$1,$4,$5,$6,$7,0*
20,1,$1+$1,$6,$7,$8,$9,0*
20,1,$1+$1,$8,$9,$2,$3,0*%
%AMRotRect*
0 Rectangle, with rotation*
0 The origin of the aperture is its center*
0 $1 length*
0 $2 width*
0 $3 Rotation angle, in degrees counterclockwise*
0 Add horizontal line*
21,1,$1,$2,0,0,$3*%
G04 Aperture macros list end*
%TA.AperFunction,ComponentPad*%
%ADD10C,4.400000*%
%TD*%
%TA.AperFunction,SMDPad,CuDef*%
%ADD11RoundRect,0.218750X-0.218750X-0.256250X0.218750X-0.256250X0.218750X0.256250X-0.218750X0.256250X0*%
%TD*%
%TA.AperFunction,SMDPad,CuDef*%
%ADD12RoundRect,0.218750X0.218750X0.256250X-0.218750X0.256250X-0.218750X-0.256250X0.218750X-0.256250X0*%
%TD*%
%TA.AperFunction,SMDPad,CuDef*%
%ADD13RoundRect,0.225000X0.335876X0.017678X0.017678X0.335876X-0.335876X-0.017678X-0.017678X-0.335876X0*%
%TD*%
%TA.AperFunction,SMDPad,CuDef*%
%ADD14RoundRect,0.225000X0.017678X-0.335876X0.335876X-0.017678X-0.017678X0.335876X-0.335876X0.017678X0*%
%TD*%
%TA.AperFunction,SMDPad,CuDef*%
%ADD15RoundRect,0.225000X-0.017678X0.335876X-0.335876X0.017678X0.017678X-0.335876X0.335876X-0.017678X0*%
%TD*%
%TA.AperFunction,SMDPad,CuDef*%
%ADD16RoundRect,0.225000X-0.335876X-0.017678X-0.017678X-0.335876X0.335876X0.017678X0.017678X0.335876X0*%
%TD*%
%TA.AperFunction,SMDPad,CuDef*%
%ADD17RotRect,0.279400X1.473200X45.000000*%
%TD*%
%TA.AperFunction,SMDPad,CuDef*%
%ADD18RotRect,0.279400X1.473200X315.000000*%
%TD*%
%TA.AperFunction,ComponentPad*%
%ADD19O,1.500000X2.200000*%
%TD*%
%TA.AperFunction,ComponentPad*%
%ADD20R,1.700000X1.700000*%
%TD*%
%TA.AperFunction,ComponentPad*%
%ADD21O,1.700000X1.700000*%
%TD*%
%TA.AperFunction,SMDPad,CuDef*%
%ADD22R,2.000000X2.000000*%
%TD*%
%TA.AperFunction,SMDPad,CuDef*%
%ADD23R,1.600000X1.400000*%
%TD*%
%TA.AperFunction,SMDPad,CuDef*%
%ADD24R,1.270000X1.905000*%
%TD*%
%TA.AperFunction,SMDPad,CuDef*%
%ADD25RoundRect,0.200000X0.200000X0.275000X-0.200000X0.275000X-0.200000X-0.275000X0.200000X-0.275000X0*%
%TD*%
%TA.AperFunction,SMDPad,CuDef*%
%ADD26RoundRect,0.200000X-0.275000X0.200000X-0.275000X-0.200000X0.275000X-0.200000X0.275000X0.200000X0*%
%TD*%
%TA.AperFunction,SMDPad,CuDef*%
%ADD27RoundRect,0.200000X-0.200000X-0.275000X0.200000X-0.275000X0.200000X0.275000X-0.200000X0.275000X0*%
%TD*%
%TA.AperFunction,SMDPad,CuDef*%
%ADD28R,2.286000X5.842000*%
%TD*%
%TA.AperFunction,SMDPad,CuDef*%
%ADD29R,2.413000X5.842000*%
%TD*%
%TA.AperFunction,ComponentPad*%
%ADD30C,2.775000*%
%TD*%
%TA.AperFunction,ComponentPad*%
%ADD31R,3.300000X3.300000*%
%TD*%
%TA.AperFunction,ComponentPad*%
%ADD32C,3.300000*%
%TD*%
%TA.AperFunction,ViaPad*%
%ADD33C,0.700000*%
%TD*%
%TA.AperFunction,ViaPad*%
%ADD34C,0.900000*%
%TD*%
%TA.AperFunction,ViaPad*%
%ADD35C,0.600000*%
%TD*%
%TA.AperFunction,Conductor*%
%ADD36C,1.250000*%
%TD*%
%TA.AperFunction,Conductor*%
%ADD37C,0.500000*%
%TD*%
%TA.AperFunction,Conductor*%
%ADD38C,0.200000*%
%TD*%
%TA.AperFunction,Conductor*%
%ADD39C,1.000000*%
%TD*%
%TA.AperFunction,Conductor*%
%ADD40C,0.300000*%
%TD*%
%TA.AperFunction,Conductor*%
%ADD41C,1.500000*%
%TD*%
%TA.AperFunction,Conductor*%
%ADD42C,1.270000*%
%TD*%
G04 APERTURE END LIST*
D10*
%TO.P,H4,1,1*%
%TO.N,GND*%
X123600000Y-140600000D03*
%TD*%
%TO.P,H3,1,1*%
%TO.N,GND*%
X123600000Y-84400000D03*
%TD*%
%TO.P,H2,1,1*%
%TO.N,GND*%
X44400000Y-140600000D03*
%TD*%
%TO.P,H1,1,1*%
%TO.N,GND*%
X44400000Y-84400000D03*
%TD*%
D11*
%TO.P,D2,1,K*%
%TO.N,Net-(D2-K)*%
X59212500Y-132400000D03*
%TO.P,D2,2,A*%
%TO.N,Net-(D2-A)*%
X60787500Y-132400000D03*
%TD*%
D12*
%TO.P,D1,1,K*%
%TO.N,Net-(D1-K)*%
X79587500Y-100200000D03*
%TO.P,D1,2,A*%
%TO.N,Net-(D1-A)*%
X78012500Y-100200000D03*
%TD*%
D13*
%TO.P,C8,1*%
%TO.N,/NRST*%
X65428008Y-111648008D03*
%TO.P,C8,2*%
%TO.N,GND*%
X64331992Y-110551992D03*
%TD*%
D14*
%TO.P,C7,1*%
%TO.N,VDD*%
X58861992Y-114608008D03*
%TO.P,C7,2*%
%TO.N,GND*%
X59958008Y-113511992D03*
%TD*%
D15*
%TO.P,C6,1*%
%TO.N,VDD*%
X67296016Y-126503984D03*
%TO.P,C6,2*%
%TO.N,GND*%
X66200000Y-127600000D03*
%TD*%
D16*
%TO.P,C5,1*%
%TO.N,VDD*%
X71851992Y-109851992D03*
%TO.P,C5,2*%
%TO.N,GND*%
X72948008Y-110948008D03*
%TD*%
D13*
%TO.P,C4,1*%
%TO.N,VDD*%
X66748008Y-110288008D03*
%TO.P,C4,2*%
%TO.N,GND*%
X65651992Y-109191992D03*
%TD*%
D14*
%TO.P,C3,1*%
%TO.N,VDD*%
X61693984Y-115196016D03*
%TO.P,C3,2*%
%TO.N,GND*%
X62790000Y-114100000D03*
%TD*%
D15*
%TO.P,C2,1*%
%TO.N,VDD*%
X77842462Y-120357538D03*
%TO.P,C2,2*%
%TO.N,GND*%
X76746446Y-121453554D03*
%TD*%
D13*
%TO.P,C1,1*%
%TO.N,VDD*%
X61698008Y-121548008D03*
%TO.P,C1,2*%
%TO.N,GND*%
X60601992Y-120451992D03*
%TD*%
D17*
%TO.P,U1,1,VBAT*%
%TO.N,VDD*%
X68273397Y-111570096D03*
%TO.P,U1,2,PC13*%
%TO.N,unconnected-(U1-PC13-Pad2)*%
X67919844Y-111923649D03*
%TO.P,U1,3,PC14-OSC32_IN*%
%TO.N,unconnected-(U1-PC14-OSC32_IN-Pad3)*%
X67566290Y-112277203D03*
%TO.P,U1,4,PC15-OSC32_OUT*%
%TO.N,unconnected-(U1-PC15-OSC32_OUT-Pad4)*%
X67212738Y-112630756D03*
%TO.P,U1,5,PF0-OSC_IN*%
%TO.N,unconnected-(U1-PF0-OSC_IN-Pad5)*%
X66859183Y-112984310D03*
%TO.P,U1,6,PF1-OSC_OUT*%
%TO.N,unconnected-(U1-PF1-OSC_OUT-Pad6)*%
X66505630Y-113337863D03*
%TO.P,U1,7,PF2-NRST*%
%TO.N,/NRST*%
X66152077Y-113691416D03*
%TO.P,U1,8,PC0*%
%TO.N,PSENSE_MINUS*%
X65798523Y-114044970D03*
%TO.P,U1,9,PC1*%
%TO.N,PSENSE_PLUS*%
X65444970Y-114398523D03*
%TO.P,U1,10,PC2*%
%TO.N,EXTRA_ADC_CHAN_1*%
X65091416Y-114752077D03*
%TO.P,U1,11,PC3*%
%TO.N,EXTRA_ADC_CHAN_2*%
X64737863Y-115105630D03*
%TO.P,U1,12,VSSA/VREF-*%
%TO.N,GND*%
X64384310Y-115459183D03*
%TO.P,U1,13,VDDA/VREF+*%
%TO.N,VDD*%
X64030756Y-115812738D03*
%TO.P,U1,14,PA0*%
%TO.N,unconnected-(U1-PA0-Pad14)*%
X63677203Y-116166290D03*
%TO.P,U1,15,PA1*%
%TO.N,unconnected-(U1-PA1-Pad15)*%
X63323649Y-116519844D03*
%TO.P,U1,16,PA2*%
%TO.N,unconnected-(U1-PA2-Pad16)*%
X62970096Y-116873397D03*
D18*
%TO.P,U1,17,PA3*%
%TO.N,P2110B_DOUT*%
X62970096Y-119526603D03*
%TO.P,U1,18,VSS*%
%TO.N,GND*%
X63323649Y-119880156D03*
%TO.P,U1,19,VDD*%
%TO.N,VDD*%
X63677203Y-120233710D03*
%TO.P,U1,20,PA4*%
%TO.N,NRF_IRQ*%
X64030756Y-120587262D03*
%TO.P,U1,21,PA5*%
%TO.N,NRF_SCK*%
X64384310Y-120940817D03*
%TO.P,U1,22,PA6*%
%TO.N,NRF_MISO*%
X64737863Y-121294370D03*
%TO.P,U1,23,PA7*%
%TO.N,NRF_MOSI*%
X65091416Y-121647923D03*
%TO.P,U1,24,PC4*%
%TO.N,unconnected-(U1-PC4-Pad24)*%
X65444970Y-122001477D03*
%TO.P,U1,25,PC5*%
%TO.N,NRF_CSN*%
X65798523Y-122355030D03*
%TO.P,U1,26,PB0*%
%TO.N,NRF_CE*%
X66152077Y-122708584D03*
%TO.P,U1,27,PB1*%
%TO.N,unconnected-(U1-PB1-Pad27)*%
X66505630Y-123062137D03*
%TO.P,U1,28,PB2*%
%TO.N,unconnected-(U1-PB2-Pad28)*%
X66859183Y-123415690D03*
%TO.P,U1,29,PB10*%
%TO.N,unconnected-(U1-PB10-Pad29)*%
X67212738Y-123769244D03*
%TO.P,U1,30,PB11*%
%TO.N,/USER_LED*%
X67566290Y-124122797D03*
%TO.P,U1,31,VSS*%
%TO.N,GND*%
X67919844Y-124476351D03*
%TO.P,U1,32,VDD*%
%TO.N,VDD*%
X68273397Y-124829904D03*
D17*
%TO.P,U1,33,PB12*%
%TO.N,unconnected-(U1-PB12-Pad33)*%
X70926603Y-124829904D03*
%TO.P,U1,34,PB13*%
%TO.N,unconnected-(U1-PB13-Pad34)*%
X71280156Y-124476351D03*
%TO.P,U1,35,PB14*%
%TO.N,P2110B_DSET*%
X71633710Y-124122797D03*
%TO.P,U1,36,PB15*%
%TO.N,P2110B_INT*%
X71987262Y-123769244D03*
%TO.P,U1,37,PC6*%
%TO.N,P2110B_RESET*%
X72340817Y-123415690D03*
%TO.P,U1,38,PC7*%
%TO.N,unconnected-(U1-PC7-Pad38)*%
X72694370Y-123062137D03*
%TO.P,U1,39,PC8*%
%TO.N,unconnected-(U1-PC8-Pad39)*%
X73047923Y-122708584D03*
%TO.P,U1,40,PC9*%
%TO.N,unconnected-(U1-PC9-Pad40)*%
X73401477Y-122355030D03*
%TO.P,U1,41,PA8*%
%TO.N,unconnected-(U1-PA8-Pad41)*%
X73755030Y-122001477D03*
%TO.P,U1,42,PA9*%
%TO.N,USART1_TX*%
X74108584Y-121647923D03*
%TO.P,U1,43,PA10*%
%TO.N,USART1_RX*%
X74462137Y-121294370D03*
%TO.P,U1,44,PA11[PA9]*%
%TO.N,unconnected-(U1-PA11[PA9]-Pad44)*%
X74815690Y-120940817D03*
%TO.P,U1,45,PA12[PA10]*%
%TO.N,unconnected-(U1-PA12[PA10]-Pad45)*%
X75169244Y-120587262D03*
%TO.P,U1,46,PA13*%
%TO.N,SWDIO*%
X75522797Y-120233710D03*
%TO.P,U1,47,VSS*%
%TO.N,GND*%
X75876351Y-119880156D03*
%TO.P,U1,48,VDD*%
%TO.N,VDD*%
X76229904Y-119526603D03*
D18*
%TO.P,U1,49,PA14*%
%TO.N,SWCLK*%
X76229904Y-116873397D03*
%TO.P,U1,50,PA15*%
%TO.N,unconnected-(U1-PA15-Pad50)*%
X75876351Y-116519844D03*
%TO.P,U1,51,PC10*%
%TO.N,unconnected-(U1-PC10-Pad51)*%
X75522797Y-116166290D03*
%TO.P,U1,52,PC11*%
%TO.N,unconnected-(U1-PC11-Pad52)*%
X75169244Y-115812738D03*
%TO.P,U1,53,PC12*%
%TO.N,unconnected-(U1-PC12-Pad53)*%
X74815690Y-115459183D03*
%TO.P,U1,54,PD2*%
%TO.N,unconnected-(U1-PD2-Pad54)*%
X74462137Y-115105630D03*
%TO.P,U1,55,PB3*%
%TO.N,unconnected-(U1-PB3-Pad55)*%
X74108584Y-114752077D03*
%TO.P,U1,56,PB4*%
%TO.N,unconnected-(U1-PB4-Pad56)*%
X73755030Y-114398523D03*
%TO.P,U1,57,PB5*%
%TO.N,unconnected-(U1-PB5-Pad57)*%
X73401477Y-114044970D03*
%TO.P,U1,58,PB6*%
%TO.N,unconnected-(U1-PB6-Pad58)*%
X73047923Y-113691416D03*
%TO.P,U1,59,PB7*%
%TO.N,unconnected-(U1-PB7-Pad59)*%
X72694370Y-113337863D03*
%TO.P,U1,60,PF3-BOOT0*%
%TO.N,/BOOT0*%
X72340817Y-112984310D03*
%TO.P,U1,61,PB8*%
%TO.N,unconnected-(U1-PB8-Pad61)*%
X71987262Y-112630756D03*
%TO.P,U1,62,PB9*%
%TO.N,unconnected-(U1-PB9-Pad62)*%
X71633710Y-112277203D03*
%TO.P,U1,63,VSS*%
%TO.N,GND*%
X71280156Y-111923649D03*
%TO.P,U1,64,VDD*%
%TO.N,VDD*%
X70926603Y-111570096D03*
%TD*%
D19*
%TO.P,J6,1,Pin_1*%
%TO.N,unconnected-(J6-Pin_1-Pad1)*%
X44040000Y-112660000D03*
%TO.P,J6,2,Pin_2*%
%TO.N,PSENSE_PLUS*%
X46580000Y-112660000D03*
%TO.P,J6,3,Pin_3*%
%TO.N,unconnected-(J6-Pin_3-Pad3)*%
X49120000Y-112660000D03*
%TO.P,J6,4,Pin_4*%
%TO.N,GND*%
X51660000Y-112660000D03*
%TO.P,J6,5,Pin_5*%
X51660000Y-105140000D03*
%TO.P,J6,6,Pin_6*%
%TO.N,PSENSE_MINUS*%
X49120000Y-105140000D03*
%TO.P,J6,7,Pin_7*%
%TO.N,unconnected-(J6-Pin_7-Pad7)*%
X46580000Y-105140000D03*
%TO.P,J6,8,Pin_8*%
%TO.N,VDD*%
X44040000Y-105140000D03*
%TD*%
D20*
%TO.P,JP1,1,A*%
%TO.N,VDD*%
X65950000Y-101040000D03*
D21*
%TO.P,JP1,2,C*%
%TO.N,Net-(JP1-C)*%
X63410000Y-101040000D03*
%TO.P,JP1,3,B*%
%TO.N,GND*%
X60870000Y-101040000D03*
%TD*%
D22*
%TO.P,TP8,1,1*%
%TO.N,/BOOT0*%
X71600000Y-105200000D03*
%TD*%
D23*
%TO.P,SW1,1,1*%
%TO.N,GND*%
X53100000Y-101050000D03*
X45100000Y-101050000D03*
%TO.P,SW1,2,2*%
%TO.N,/NRST*%
X53100000Y-96550000D03*
X45100000Y-96550000D03*
%TD*%
D24*
%TO.P,PS1,1,NC_1*%
%TO.N,unconnected-(PS1-NC_1-Pad1)*%
X106547000Y-135254000D03*
%TO.P,PS1,2,GND_1*%
%TO.N,GND*%
X108198000Y-135254000D03*
%TO.P,PS1,3,RFIN*%
%TO.N,/RFIN*%
X109849000Y-135254000D03*
%TO.P,PS1,4,GND_2*%
%TO.N,GND*%
X111500000Y-135254000D03*
%TO.P,PS1,5,DSET*%
%TO.N,Net-(JP9-B)*%
X113151000Y-135254000D03*
%TO.P,PS1,6,INT*%
%TO.N,Net-(JP6-B)*%
X114802000Y-135254000D03*
%TO.P,PS1,7,RESET*%
%TO.N,Net-(JP5-B)*%
X116453000Y-135254000D03*
%TO.P,PS1,8,VCAP*%
%TO.N,Net-(JP11-C)*%
X116453000Y-121284000D03*
%TO.P,PS1,9,NC_2*%
%TO.N,unconnected-(PS1-NC_2-Pad9)*%
X114802000Y-121284000D03*
%TO.P,PS1,10,VSET*%
%TO.N,/VSET*%
X113151000Y-121284000D03*
%TO.P,PS1,11,GND_3*%
%TO.N,GND*%
X111500000Y-121284000D03*
%TO.P,PS1,12,VOUT*%
%TO.N,/P2110B_VOUT*%
X109849000Y-121284000D03*
%TO.P,PS1,13,DOUT*%
%TO.N,Net-(JP10-A)*%
X108198000Y-121284000D03*
%TO.P,PS1,14,NC_3*%
%TO.N,unconnected-(PS1-NC_3-Pad14)*%
X106547000Y-121284000D03*
%TD*%
D20*
%TO.P,JP2,1,A*%
%TO.N,/VSET*%
X98400000Y-128775000D03*
D21*
%TO.P,JP2,2,B*%
%TO.N,unconnected-(JP2-B-Pad2)*%
X98400000Y-126235000D03*
%TD*%
D22*
%TO.P,TP4,1,1*%
%TO.N,EXTRA_ADC_CHAN_2*%
X55200000Y-119000000D03*
%TD*%
%TO.P,TP5,1,1*%
%TO.N,NRF_CE*%
X60000000Y-129200000D03*
%TD*%
%TO.P,TP14,1,1*%
%TO.N,NRF_CSN*%
X53200000Y-141400000D03*
%TD*%
D21*
%TO.P,JP9,2,B*%
%TO.N,Net-(JP9-B)*%
X75000000Y-140340000D03*
D20*
%TO.P,JP9,1,A*%
%TO.N,P2110B_DSET*%
X75000000Y-137800000D03*
%TD*%
D25*
%TO.P,R5,1*%
%TO.N,/USER_LED*%
X65025000Y-131700000D03*
%TO.P,R5,2*%
%TO.N,Net-(D2-A)*%
X63375000Y-131700000D03*
%TD*%
D22*
%TO.P,TP9,1,1*%
%TO.N,NRF_MISO*%
X70400000Y-140200000D03*
%TD*%
D25*
%TO.P,R1,2*%
%TO.N,Net-(JP1-C)*%
X62375000Y-105400000D03*
%TO.P,R1,1*%
%TO.N,/BOOT0*%
X64025000Y-105400000D03*
%TD*%
D26*
%TO.P,R2,1*%
%TO.N,Net-(JP3-A)*%
X94000000Y-133750000D03*
%TO.P,R2,2*%
%TO.N,/VSET*%
X94000000Y-135400000D03*
%TD*%
D27*
%TO.P,R4,1*%
%TO.N,VDD*%
X72525000Y-97800000D03*
%TO.P,R4,2*%
%TO.N,Net-(D1-A)*%
X74175000Y-97800000D03*
%TD*%
D20*
%TO.P,JP11,1,A*%
%TO.N,Net-(JP11-A)*%
X123400000Y-118725000D03*
D21*
%TO.P,JP11,2,C*%
%TO.N,Net-(JP11-C)*%
X123400000Y-121265000D03*
%TO.P,JP11,3,B*%
%TO.N,Net-(J5-Pin_2)*%
X123400000Y-123805000D03*
%TD*%
D22*
%TO.P,TP12,1,1*%
%TO.N,NRF_SCK*%
X52600000Y-127800000D03*
%TD*%
D20*
%TO.P,JP4,1,A*%
%TO.N,Net-(JP4-A)*%
X90700000Y-128800000D03*
D21*
%TO.P,JP4,2,B*%
%TO.N,/P2110B_VOUT*%
X90700000Y-126260000D03*
%TD*%
D20*
%TO.P,J2,1,Pin_1*%
%TO.N,GND*%
X50400000Y-90400000D03*
D21*
%TO.P,J2,2,Pin_2*%
%TO.N,SWCLK*%
X52940000Y-90400000D03*
%TO.P,J2,3,Pin_3*%
%TO.N,SWDIO*%
X55480000Y-90400000D03*
%TO.P,J2,4,Pin_4*%
%TO.N,+3.3V*%
X58020000Y-90400000D03*
%TD*%
D22*
%TO.P,TP2,1,1*%
%TO.N,PSENSE_PLUS*%
X49600000Y-116300000D03*
%TD*%
D25*
%TO.P,R6,1*%
%TO.N,Net-(J4-Pin_1)*%
X82525000Y-115950000D03*
%TO.P,R6,2*%
%TO.N,USART1_TX*%
X80875000Y-115950000D03*
%TD*%
D22*
%TO.P,TP11,1,1*%
%TO.N,USART1_TX*%
X81750000Y-119850000D03*
%TD*%
D20*
%TO.P,JP10,1,A*%
%TO.N,Net-(JP10-A)*%
X82600000Y-130000000D03*
D21*
%TO.P,JP10,2,B*%
%TO.N,P2110B_DOUT*%
X82600000Y-127460000D03*
%TD*%
D28*
%TO.P,J3,1,1*%
%TO.N,/RFIN*%
X109875000Y-141235600D03*
D29*
%TO.P,J3,2,2*%
%TO.N,GND*%
X114256500Y-141235600D03*
%TO.P,J3,3,3*%
X105493500Y-141235600D03*
%TD*%
D20*
%TO.P,JP6,1,A*%
%TO.N,P2110B_INT*%
X75000000Y-130200000D03*
D21*
%TO.P,JP6,2,B*%
%TO.N,Net-(JP6-B)*%
X75000000Y-132740000D03*
%TD*%
D22*
%TO.P,TP3,1,1*%
%TO.N,EXTRA_ADC_CHAN_1*%
X55225000Y-113750000D03*
%TD*%
D20*
%TO.P,J5,1,Pin_1*%
%TO.N,GND*%
X123375000Y-131050000D03*
D21*
%TO.P,J5,2,Pin_2*%
%TO.N,Net-(J5-Pin_2)*%
X123375000Y-128510000D03*
%TD*%
D26*
%TO.P,R3,1*%
%TO.N,Net-(JP4-A)*%
X90700000Y-133750000D03*
%TO.P,R3,2*%
%TO.N,/VSET*%
X90700000Y-135400000D03*
%TD*%
D20*
%TO.P,JP5,1,A*%
%TO.N,P2110B_RESET*%
X82600000Y-135200000D03*
D21*
%TO.P,JP5,2,B*%
%TO.N,Net-(JP5-B)*%
X82600000Y-137740000D03*
%TD*%
D20*
%TO.P,JP3,1,A*%
%TO.N,Net-(JP3-A)*%
X94500000Y-128800000D03*
D21*
%TO.P,JP3,2,B*%
%TO.N,/P2110B_VOUT*%
X94500000Y-126260000D03*
%TD*%
D30*
%TO.P,S1,1,1*%
%TO.N,+3.3V*%
X67800000Y-92351100D03*
%TO.P,S1,2,2*%
%TO.N,VDD*%
X72500000Y-92351100D03*
%TO.P,S1,3,3*%
%TO.N,/P2110B_VOUT*%
X77200000Y-92351100D03*
%TO.P,S1,MH1,MH1*%
%TO.N,unconnected-(S1-PadMH1)*%
X65895000Y-82821100D03*
%TO.P,S1,MH2,MH2*%
%TO.N,unconnected-(S1-PadMH2)*%
X79105000Y-82821100D03*
%TD*%
D22*
%TO.P,TP10,1,1*%
%TO.N,NRF_MOSI*%
X66400000Y-140200000D03*
%TD*%
%TO.P,TP6,1,1*%
%TO.N,NRF_IRQ*%
X45600000Y-121250000D03*
%TD*%
%TO.P,TP13,1,1*%
%TO.N,USART1_RX*%
X80900000Y-111050000D03*
%TD*%
D21*
%TO.P,JP8,2,B*%
%TO.N,Net-(D2-K)*%
X59800000Y-137235000D03*
D20*
%TO.P,JP8,1,A*%
%TO.N,GND*%
X59800000Y-139775000D03*
%TD*%
%TO.P,J4,1,Pin_1*%
%TO.N,Net-(J4-Pin_1)*%
X86400000Y-117825000D03*
D21*
%TO.P,J4,2,Pin_2*%
%TO.N,Net-(J4-Pin_2)*%
X86400000Y-115285000D03*
%TO.P,J4,3,Pin_3*%
%TO.N,GND*%
X86400000Y-112745000D03*
%TD*%
D22*
%TO.P,TP16,1,1*%
%TO.N,VDD*%
X58400000Y-83200000D03*
%TD*%
%TO.P,TP7,1,1*%
%TO.N,/NRST*%
X55200000Y-108400000D03*
%TD*%
D21*
%TO.P,JP7,2,B*%
%TO.N,Net-(D1-K)*%
X82135000Y-105500000D03*
D20*
%TO.P,JP7,1,A*%
%TO.N,GND*%
X84675000Y-105500000D03*
%TD*%
D22*
%TO.P,TP1,1,1*%
%TO.N,PSENSE_MINUS*%
X55200000Y-105000000D03*
%TD*%
%TO.P,TP15,1,1*%
%TO.N,/P2110B_VOUT*%
X89200000Y-83000000D03*
%TD*%
D31*
%TO.P,C11,1*%
%TO.N,Net-(JP11-A)*%
X101100000Y-99300000D03*
D32*
%TO.P,C11,2*%
%TO.N,GND*%
X111100000Y-99300000D03*
%TD*%
D25*
%TO.P,R7,1*%
%TO.N,Net-(J4-Pin_2)*%
X82525000Y-114200000D03*
%TO.P,R7,2*%
%TO.N,USART1_RX*%
X80875000Y-114200000D03*
%TD*%
D21*
%TO.P,J1,4,Pin_4*%
%TO.N,VDD*%
X43960000Y-134580000D03*
%TO.P,J1,5,Pin_5*%
%TO.N,GND*%
X46500000Y-134580000D03*
%TO.P,J1,3,Pin_3*%
%TO.N,NRF_CSN*%
X43960000Y-132040000D03*
%TO.P,J1,6,Pin_6*%
%TO.N,NRF_CE*%
X46500000Y-132040000D03*
%TO.P,J1,2,Pin_2*%
%TO.N,NRF_MOSI*%
X43960000Y-129500000D03*
%TO.P,J1,7,Pin_7*%
%TO.N,NRF_SCK*%
X46500000Y-129500000D03*
%TO.P,J1,1,Pin_1*%
%TO.N,NRF_IRQ*%
X43960000Y-126960000D03*
D20*
%TO.P,J1,8,Pin_8*%
%TO.N,NRF_MISO*%
X46500000Y-126960000D03*
%TD*%
D33*
%TO.N,Net-(JP10-A)*%
X92200000Y-120800000D03*
X89200000Y-120800000D03*
%TO.N,P2110B_DOUT*%
X59300000Y-119250000D03*
%TO.N,GND*%
X73750000Y-110250000D03*
X54800000Y-101050000D03*
X60770000Y-112720000D03*
D34*
X104750000Y-140700000D03*
D33*
X65400000Y-128400000D03*
X64760000Y-108370000D03*
X43300000Y-101000000D03*
D34*
X104750000Y-142100000D03*
X115000000Y-142100000D03*
X60890000Y-98750000D03*
X111500000Y-119204000D03*
D33*
X59510000Y-121100000D03*
X61890000Y-113280000D03*
D34*
X115000000Y-140700000D03*
D33*
X63490000Y-109670000D03*
X77600000Y-122307108D03*
D35*
%TO.N,VDD*%
X56700000Y-122800000D03*
X56700000Y-127300000D03*
%TD*%
D36*
%TO.N,/P2110B_VOUT*%
X86100000Y-86100000D02*
X89200000Y-83000000D01*
X86100000Y-87800000D02*
X86100000Y-86100000D01*
X81548900Y-92351100D02*
X86100000Y-87800000D01*
X77200000Y-92351100D02*
X81548900Y-92351100D01*
%TO.N,VDD*%
X61800000Y-83200000D02*
X58400000Y-83200000D01*
X65950000Y-87350000D02*
X61800000Y-83200000D01*
X72500000Y-92351100D02*
X72500000Y-89800000D01*
D37*
X45600000Y-91800000D02*
X47500000Y-91800000D01*
X45600000Y-89400000D02*
X45600000Y-91800000D01*
X51800000Y-83200000D02*
X45600000Y-89400000D01*
X58400000Y-83200000D02*
X51800000Y-83200000D01*
D36*
X72500000Y-89800000D02*
X70050000Y-87350000D01*
X70050000Y-87350000D02*
X65950000Y-87350000D01*
D38*
%TO.N,NRF_IRQ*%
X45600000Y-121250000D02*
X44000000Y-122850000D01*
X44000000Y-122850000D02*
X44000000Y-126920000D01*
X44000000Y-126920000D02*
X43960000Y-126960000D01*
%TO.N,NRF_CSN*%
X53200000Y-138400000D02*
X53200000Y-141400000D01*
X52100000Y-137300000D02*
X53200000Y-138400000D01*
X45000000Y-137300000D02*
X52100000Y-137300000D01*
X42810000Y-135110000D02*
X45000000Y-137300000D01*
X43960000Y-132040000D02*
X42810000Y-133190000D01*
X42810000Y-133190000D02*
X42810000Y-135110000D01*
%TO.N,NRF_SCK*%
X50900000Y-129500000D02*
X52600000Y-127800000D01*
X46500000Y-129500000D02*
X50900000Y-129500000D01*
D37*
%TO.N,Net-(JP9-B)*%
X97400000Y-141000000D02*
X75660000Y-141000000D01*
X75660000Y-141000000D02*
X75000000Y-140340000D01*
X105050000Y-133350000D02*
X97400000Y-141000000D01*
X112750000Y-133350000D02*
X105050000Y-133350000D01*
X113151000Y-133751000D02*
X112750000Y-133350000D01*
X113151000Y-135254000D02*
X113151000Y-133751000D01*
%TO.N,Net-(JP6-B)*%
X76085000Y-132740000D02*
X75000000Y-132740000D01*
X77600000Y-134255000D02*
X76085000Y-132740000D01*
X113300000Y-132100000D02*
X105100000Y-132100000D01*
X114800000Y-133600000D02*
X113300000Y-132100000D01*
X97000000Y-140200000D02*
X78600000Y-140200000D01*
X114800000Y-135252000D02*
X114800000Y-133600000D01*
X78600000Y-140200000D02*
X77600000Y-139200000D01*
X105100000Y-132100000D02*
X97000000Y-140200000D01*
X77600000Y-139200000D02*
X77600000Y-134255000D01*
X114802000Y-135254000D02*
X114800000Y-135252000D01*
D38*
%TO.N,/BOOT0*%
X71600000Y-107400000D02*
X71600000Y-105200000D01*
X70600000Y-107400000D02*
X71600000Y-107400000D01*
X65425000Y-106800000D02*
X64025000Y-105400000D01*
X68800000Y-107400000D02*
X68200000Y-106800000D01*
X68200000Y-106800000D02*
X65425000Y-106800000D01*
X70600000Y-107400000D02*
X68800000Y-107400000D01*
D39*
%TO.N,GND*%
X60890000Y-101020000D02*
X60870000Y-101040000D01*
X60890000Y-98750000D02*
X60890000Y-101020000D01*
D37*
%TO.N,VDD*%
X62890000Y-97640000D02*
X58140000Y-97640000D01*
X66000000Y-100750000D02*
X62890000Y-97640000D01*
X66000000Y-100990000D02*
X66000000Y-100750000D01*
X65950000Y-101040000D02*
X66000000Y-100990000D01*
X61270000Y-107470000D02*
X66770000Y-107470000D01*
X58000000Y-104200000D02*
X61270000Y-107470000D01*
X54451100Y-93951100D02*
X58000000Y-97500000D01*
X49651100Y-93951100D02*
X54451100Y-93951100D01*
X58000000Y-97500000D02*
X58000000Y-104200000D01*
X66770000Y-107470000D02*
X68150000Y-108850000D01*
X47500000Y-91800000D02*
X49651100Y-93951100D01*
D38*
%TO.N,SWCLK*%
X76795989Y-116307312D02*
X76229904Y-116873397D01*
X76795989Y-113195989D02*
X76795989Y-116307312D01*
X67330000Y-96980000D02*
X74800000Y-104450000D01*
X74800000Y-111200000D02*
X76795989Y-113195989D01*
X60580000Y-96980000D02*
X67330000Y-96980000D01*
X57001100Y-93401100D02*
X60580000Y-96980000D01*
X74800000Y-104450000D02*
X74800000Y-111200000D01*
X53601100Y-93401100D02*
X57001100Y-93401100D01*
X52950000Y-90410000D02*
X52950000Y-92750000D01*
X52940000Y-90400000D02*
X52950000Y-90410000D01*
X52950000Y-92750000D02*
X53601100Y-93401100D01*
%TO.N,SWDIO*%
X74956713Y-119667626D02*
X75522797Y-120233710D01*
X74956713Y-119333820D02*
X74956713Y-119667626D01*
X77200000Y-117090533D02*
X74956713Y-119333820D01*
X77200000Y-113034314D02*
X77200000Y-117090533D01*
X75200000Y-111034314D02*
X77200000Y-113034314D01*
X67530000Y-96580000D02*
X75200000Y-104250000D01*
X55891100Y-93001100D02*
X57166786Y-93001100D01*
X75200000Y-104250000D02*
X75200000Y-111034314D01*
X55490000Y-92600000D02*
X55891100Y-93001100D01*
X57166786Y-93001100D02*
X60745686Y-96580000D01*
X55490000Y-90410000D02*
X55490000Y-92600000D01*
X60745686Y-96580000D02*
X67530000Y-96580000D01*
X55480000Y-90400000D02*
X55490000Y-90410000D01*
D37*
%TO.N,VDD*%
X68150000Y-108886016D02*
X66748008Y-110288008D01*
X68150000Y-108850000D02*
X68150000Y-108886016D01*
%TO.N,GND*%
X65581992Y-109191992D02*
X64760000Y-108370000D01*
X65651992Y-109191992D02*
X65581992Y-109191992D01*
X64331992Y-110511992D02*
X63490000Y-109670000D01*
X64331992Y-110551992D02*
X64331992Y-110511992D01*
D38*
%TO.N,/NRST*%
X64771347Y-112304669D02*
X65428008Y-111648008D01*
X64765331Y-112304669D02*
X64771347Y-112304669D01*
X64765331Y-112304669D02*
X66152077Y-113691416D01*
X58860661Y-106400000D02*
X64765331Y-112304669D01*
X57200000Y-106400000D02*
X58860661Y-106400000D01*
X66151416Y-113691416D02*
X66152077Y-113691416D01*
%TO.N,VDD*%
X66748008Y-110288008D02*
X66991309Y-110288008D01*
X66991309Y-110288008D02*
X68273397Y-111570096D01*
D37*
X60273984Y-116020000D02*
X60870000Y-116020000D01*
X60870000Y-116020000D02*
X61693984Y-115196016D01*
X58861992Y-114608008D02*
X60273984Y-116020000D01*
%TO.N,GND*%
X61970000Y-113280000D02*
X62790000Y-114100000D01*
X61890000Y-113280000D02*
X61970000Y-113280000D01*
X61330000Y-112720000D02*
X61890000Y-113280000D01*
X60770000Y-112720000D02*
X61330000Y-112720000D01*
X59958008Y-113511992D02*
X59978008Y-113511992D01*
X59978008Y-113511992D02*
X60770000Y-112720000D01*
D38*
X63536652Y-114846652D02*
X63771779Y-114846652D01*
X62790000Y-114100000D02*
X63536652Y-114846652D01*
X63771779Y-114846652D02*
X64384310Y-115459183D01*
%TO.N,VDD*%
X63130867Y-115246652D02*
X63464670Y-115246652D01*
X62707519Y-115670000D02*
X63130867Y-115246652D01*
X62167968Y-115670000D02*
X62707519Y-115670000D01*
X63464670Y-115246652D02*
X64030756Y-115812738D01*
X61693984Y-115196016D02*
X62167968Y-115670000D01*
D37*
X57370000Y-116100000D02*
X58861992Y-114608008D01*
X53475000Y-116100000D02*
X57370000Y-116100000D01*
D38*
%TO.N,EXTRA_ADC_CHAN_1*%
X61819339Y-111480000D02*
X65091416Y-114752077D01*
X58720000Y-111480000D02*
X61819339Y-111480000D01*
X56450000Y-113750000D02*
X58720000Y-111480000D01*
X55225000Y-113750000D02*
X56450000Y-113750000D01*
%TO.N,NRF_CE*%
X55880000Y-126815686D02*
X56475686Y-126220000D01*
X55880000Y-129870000D02*
X55880000Y-126815686D01*
X53710000Y-132040000D02*
X55880000Y-129870000D01*
X56475686Y-126220000D02*
X60000000Y-126220000D01*
X46500000Y-132040000D02*
X53710000Y-132040000D01*
%TO.N,NRF_CSN*%
X62333553Y-125820000D02*
X65798523Y-122355030D01*
X55480000Y-126650000D02*
X56310000Y-125820000D01*
X48140000Y-131640000D02*
X53544314Y-131640000D01*
X55480000Y-129704314D02*
X55480000Y-126650000D01*
X45765685Y-130800000D02*
X47300000Y-130800000D01*
X44525685Y-132040000D02*
X45765685Y-130800000D01*
X47300000Y-130800000D02*
X48140000Y-131640000D01*
X53544314Y-131640000D02*
X55480000Y-129704314D01*
X43960000Y-132040000D02*
X44525685Y-132040000D01*
X56310000Y-125820000D02*
X62333553Y-125820000D01*
%TO.N,NRF_CE*%
X62640661Y-126220000D02*
X66152077Y-122708584D01*
X60000000Y-126220000D02*
X62640661Y-126220000D01*
X60000000Y-126700000D02*
X60000000Y-126220000D01*
%TO.N,P2110B_DOUT*%
X60506708Y-118936708D02*
X61572379Y-120002379D01*
X61572379Y-120002379D02*
X62494320Y-120002379D01*
X59613292Y-118936708D02*
X60506708Y-118936708D01*
X59300000Y-119250000D02*
X59613292Y-118936708D01*
D37*
%TO.N,GND*%
X59953984Y-121100000D02*
X60601992Y-120451992D01*
X59510000Y-121100000D02*
X59953984Y-121100000D01*
D38*
X62751813Y-120451992D02*
X63323649Y-119880156D01*
X60601992Y-120451992D02*
X62751813Y-120451992D01*
%TO.N,VDD*%
X63008921Y-120901992D02*
X63677203Y-120233710D01*
X62448008Y-120901992D02*
X63008921Y-120901992D01*
X61801992Y-121548008D02*
X62448008Y-120901992D01*
X61698008Y-121548008D02*
X61801992Y-121548008D01*
D37*
X60146016Y-123100000D02*
X61698008Y-121548008D01*
X59900000Y-123100000D02*
X60146016Y-123100000D01*
X56700000Y-121800000D02*
X58600000Y-121800000D01*
X58600000Y-121800000D02*
X59900000Y-123100000D01*
D38*
%TO.N,NRF_IRQ*%
X60668018Y-123950000D02*
X64030756Y-120587262D01*
X46644315Y-123950000D02*
X60668018Y-123950000D01*
X44797157Y-125797157D02*
X45184314Y-125410000D01*
X45184314Y-125410000D02*
X45184315Y-125410000D01*
X43960000Y-126960000D02*
X43960000Y-126634315D01*
X43960000Y-126634315D02*
X44797157Y-125797157D01*
X45184315Y-125410000D02*
X46644315Y-123950000D01*
%TO.N,NRF_SCK*%
X60925127Y-124400000D02*
X64384310Y-120940817D01*
X45350001Y-125810001D02*
X46760002Y-124400000D01*
X46760002Y-124400000D02*
X60925127Y-124400000D01*
X45350000Y-127400000D02*
X45350001Y-125810001D01*
X44400000Y-128350000D02*
X45350000Y-127400000D01*
X42900000Y-128350000D02*
X44400000Y-128350000D01*
X42500000Y-130250000D02*
X42500000Y-128750000D01*
X42500000Y-128750000D02*
X42900000Y-128350000D01*
X42900000Y-130650000D02*
X42500000Y-130250000D01*
X45350000Y-130650000D02*
X42900000Y-130650000D01*
X46500000Y-129500000D02*
X45350000Y-130650000D01*
%TO.N,NRF_MISO*%
X47700000Y-124800000D02*
X61232233Y-124800000D01*
X46500000Y-126000000D02*
X47700000Y-124800000D01*
X46500000Y-126960000D02*
X46500000Y-126000000D01*
X61232233Y-124800000D02*
X64737863Y-121294370D01*
%TO.N,NRF_MOSI*%
X61539339Y-125200000D02*
X65091416Y-121647923D01*
X49060000Y-125340000D02*
X49200000Y-125200000D01*
X49060000Y-126700000D02*
X49060000Y-125340000D01*
X47650000Y-128110000D02*
X49060000Y-126700000D01*
X49200000Y-125200000D02*
X61539339Y-125200000D01*
X45350000Y-128110000D02*
X47650000Y-128110000D01*
X43960000Y-129500000D02*
X45350000Y-128110000D01*
D40*
%TO.N,Net-(D1-A)*%
X75025000Y-100200000D02*
X78012500Y-100200000D01*
X74175000Y-99350000D02*
X75025000Y-100200000D01*
%TO.N,Net-(D1-K)*%
X79587500Y-104687500D02*
X79587500Y-100200000D01*
X80400000Y-105500000D02*
X79587500Y-104687500D01*
D36*
%TO.N,/P2110B_VOUT*%
X77200000Y-96400000D02*
X77200000Y-92351100D01*
X78600000Y-97800000D02*
X77200000Y-96400000D01*
X82648900Y-97800000D02*
X78600000Y-97800000D01*
X90700000Y-105851100D02*
X82648900Y-97800000D01*
X90700000Y-126260000D02*
X90700000Y-105851100D01*
D37*
%TO.N,GND*%
X65400000Y-128400000D02*
X66200000Y-127600000D01*
D38*
X65800000Y-126596195D02*
X67919844Y-124476351D01*
X66200000Y-127600000D02*
X65800000Y-127200000D01*
X65800000Y-127200000D02*
X65800000Y-126596195D01*
%TO.N,VDD*%
X67296016Y-125807285D02*
X68273397Y-124829904D01*
X67296016Y-126503984D02*
X67296016Y-125807285D01*
D37*
X68400000Y-127336828D02*
X67431586Y-126368414D01*
X68400000Y-128400000D02*
X68400000Y-127336828D01*
D38*
%TO.N,/USER_LED*%
X65025000Y-130425000D02*
X65025000Y-131700000D01*
X63600000Y-129000000D02*
X65025000Y-130425000D01*
X67551727Y-124122797D02*
X63600000Y-128074524D01*
X67566290Y-124122797D02*
X67551727Y-124122797D01*
X63600000Y-128074524D02*
X63600000Y-129000000D01*
D40*
%TO.N,Net-(D2-K)*%
X59800000Y-135000000D02*
X59800000Y-137235000D01*
X59212500Y-134412500D02*
X59800000Y-135000000D01*
X59212500Y-132400000D02*
X59212500Y-134412500D01*
D38*
%TO.N,Net-(D2-A)*%
X61487500Y-131700000D02*
X60787500Y-132400000D01*
X63375000Y-131700000D02*
X61487500Y-131700000D01*
D37*
%TO.N,GND*%
X77600000Y-122307108D02*
X76746446Y-121453554D01*
D38*
X76746446Y-120750251D02*
X75876351Y-119880156D01*
X76746446Y-121453554D02*
X76746446Y-120750251D01*
%TO.N,VDD*%
X77060839Y-120357538D02*
X76229904Y-119526603D01*
X77842462Y-120357538D02*
X77060839Y-120357538D01*
D39*
X77842462Y-118207538D02*
X77842462Y-120357538D01*
X78550000Y-117500000D02*
X77842462Y-118207538D01*
D37*
%TO.N,GND*%
X73750000Y-110250000D02*
X73051992Y-110948008D01*
D38*
X72255797Y-110948008D02*
X71280156Y-111923649D01*
D37*
X73051992Y-110948008D02*
X72948008Y-110948008D01*
D38*
X72948008Y-110948008D02*
X72255797Y-110948008D01*
%TO.N,VDD*%
X71851992Y-109851992D02*
X71851992Y-110644707D01*
X71851992Y-110644707D02*
X70926603Y-111570096D01*
%TO.N,/BOOT0*%
X72650000Y-107400000D02*
X70600000Y-107400000D01*
X74400000Y-109150000D02*
X72650000Y-107400000D01*
X74400000Y-110925127D02*
X74400000Y-109150000D01*
X72340817Y-112984310D02*
X74400000Y-110925127D01*
%TO.N,/NRST*%
X57200000Y-106175000D02*
X57200000Y-106400000D01*
D40*
%TO.N,Net-(D1-K)*%
X82135000Y-105500000D02*
X80400000Y-105500000D01*
D38*
%TO.N,EXTRA_ADC_CHAN_2*%
X65371715Y-115937752D02*
X65371715Y-115739482D01*
X63516432Y-117793035D02*
X65371715Y-115937752D01*
X58856965Y-117793035D02*
X63516432Y-117793035D01*
X55200000Y-119000000D02*
X57650000Y-119000000D01*
X65371715Y-115739482D02*
X64737863Y-115105630D01*
X57650000Y-119000000D02*
X58856965Y-117793035D01*
D41*
%TO.N,+3.3V*%
X63551100Y-92351100D02*
X67800000Y-92351100D01*
X61600000Y-90400000D02*
X63551100Y-92351100D01*
X58020000Y-90400000D02*
X61600000Y-90400000D01*
D40*
%TO.N,Net-(D1-A)*%
X74175000Y-99350000D02*
X74175000Y-97800000D01*
D38*
%TO.N,GND*%
X64384310Y-115459183D02*
X64362737Y-115459183D01*
%TO.N,PSENSE_MINUS*%
X55200000Y-105000000D02*
X55000000Y-105000000D01*
X55000000Y-105000000D02*
X53000000Y-107000000D01*
X53000000Y-107000000D02*
X50980000Y-107000000D01*
X50980000Y-107000000D02*
X49120000Y-105140000D01*
%TO.N,/NRST*%
X55200000Y-108175000D02*
X55200000Y-108400000D01*
%TO.N,PSENSE_MINUS*%
X49120000Y-108720000D02*
X49120000Y-105140000D01*
X50800000Y-110400000D02*
X49120000Y-108720000D01*
X62153553Y-110400000D02*
X50800000Y-110400000D01*
X65798523Y-114044970D02*
X62153553Y-110400000D01*
%TO.N,PSENSE_PLUS*%
X62046447Y-111000000D02*
X65444970Y-114398523D01*
X48240000Y-111000000D02*
X62046447Y-111000000D01*
X46580000Y-112660000D02*
X48240000Y-111000000D01*
D37*
%TO.N,Net-(JP5-B)*%
X83460000Y-138600000D02*
X82600000Y-137740000D01*
X96750000Y-138600000D02*
X83460000Y-138600000D01*
X114000000Y-130900000D02*
X104450000Y-130900000D01*
X104450000Y-130900000D02*
X96750000Y-138600000D01*
X116453000Y-133353000D02*
X114000000Y-130900000D01*
X116453000Y-135254000D02*
X116453000Y-133353000D01*
D38*
%TO.N,P2110B_RESET*%
X72906902Y-123981775D02*
X72340817Y-123415690D01*
X74181775Y-123981775D02*
X72906902Y-123981775D01*
X80200000Y-135200000D02*
X79000000Y-134000000D01*
X79000000Y-134000000D02*
X79000000Y-128800000D01*
X82600000Y-135200000D02*
X80200000Y-135200000D01*
X79000000Y-128800000D02*
X74181775Y-123981775D01*
D39*
%TO.N,VDD*%
X72525000Y-99453334D02*
X78550000Y-105478334D01*
X72525000Y-97800000D02*
X72525000Y-99453334D01*
X78550000Y-105478334D02*
X78550000Y-117500000D01*
D37*
%TO.N,Net-(JP10-A)*%
X86800000Y-128800000D02*
X85600000Y-130000000D01*
X86800000Y-123200000D02*
X86800000Y-128800000D01*
X89200000Y-120800000D02*
X86800000Y-123200000D01*
X85600000Y-130000000D02*
X82600000Y-130000000D01*
X108198000Y-120152000D02*
X108198000Y-121284000D01*
X95118500Y-119881500D02*
X107927500Y-119881500D01*
X107927500Y-119881500D02*
X108198000Y-120152000D01*
X92200000Y-120800000D02*
X94200000Y-120800000D01*
X94200000Y-120800000D02*
X95118500Y-119881500D01*
D38*
%TO.N,NRF_MOSI*%
X66400000Y-137900000D02*
X66400000Y-140200000D01*
X66950000Y-137350000D02*
X66400000Y-137900000D01*
X69250000Y-137350000D02*
X66950000Y-137350000D01*
%TO.N,NRF_MISO*%
X70400000Y-138100000D02*
X70400000Y-140200000D01*
X69650000Y-137350000D02*
X70400000Y-138100000D01*
X69650000Y-123609160D02*
X69650000Y-137350000D01*
X69570420Y-123529580D02*
X69650000Y-123609160D01*
X69570420Y-123529580D02*
X66676231Y-120635392D01*
X69650000Y-123609161D02*
X69570420Y-123529580D01*
%TO.N,NRF_MOSI*%
X65703947Y-121035392D02*
X65091416Y-121647923D01*
X66510545Y-121035392D02*
X65703947Y-121035392D01*
X69250000Y-123774847D02*
X66510545Y-121035392D01*
X69250000Y-137350000D02*
X69250000Y-123774847D01*
%TO.N,NRF_CE*%
X60000000Y-126700000D02*
X60000000Y-129500000D01*
D37*
%TO.N,PSENSE_PLUS*%
X46580000Y-115230000D02*
X46580000Y-112660000D01*
X47650000Y-116300000D02*
X46580000Y-115230000D01*
D42*
%TO.N,/RFIN*%
X109849000Y-141209600D02*
X109875000Y-141235600D01*
X109849000Y-135254000D02*
X109849000Y-141209600D01*
D39*
%TO.N,Net-(JP11-A)*%
X115825000Y-118725000D02*
X101100000Y-104000000D01*
X101100000Y-104000000D02*
X101100000Y-99300000D01*
X123400000Y-118725000D02*
X115825000Y-118725000D01*
D40*
%TO.N,P2110B_DOUT*%
X62494320Y-120002379D02*
X62970096Y-119526603D01*
D38*
%TO.N,P2110B_INT*%
X75000000Y-126781982D02*
X71987262Y-123769244D01*
X75000000Y-130200000D02*
X75000000Y-126781982D01*
%TO.N,P2110B_DSET*%
X72199794Y-124688881D02*
X71633710Y-124122797D01*
X72199794Y-134999794D02*
X72199794Y-124688881D01*
X75000000Y-137800000D02*
X72199794Y-134999794D01*
%TO.N,/NRST*%
X57200000Y-99050000D02*
X57200000Y-106175000D01*
X54700000Y-96550000D02*
X57200000Y-99050000D01*
X53100000Y-96550000D02*
X54700000Y-96550000D01*
D37*
%TO.N,VDD*%
X44040000Y-105140000D02*
X43980000Y-105200000D01*
D39*
%TO.N,GND*%
X45050000Y-101000000D02*
X45100000Y-101050000D01*
X43300000Y-101000000D02*
X45050000Y-101000000D01*
X54800000Y-101050000D02*
X53100000Y-101050000D01*
D38*
%TO.N,/NRST*%
X45100000Y-96550000D02*
X53100000Y-96550000D01*
D37*
%TO.N,PSENSE_PLUS*%
X49600000Y-116300000D02*
X47650000Y-116300000D01*
%TO.N,GND*%
X114738100Y-140754000D02*
X114256500Y-141235600D01*
D36*
X111500000Y-121284000D02*
X111500000Y-119204000D01*
D37*
X115274900Y-142254000D02*
X114256500Y-141235600D01*
X105011900Y-140754000D02*
X105493500Y-141235600D01*
D38*
%TO.N,USART1_RX*%
X78900000Y-123125000D02*
X76292767Y-123125000D01*
X80875000Y-111075000D02*
X80900000Y-111050000D01*
X80875000Y-114200000D02*
X79700000Y-115375000D01*
X76292767Y-123125000D02*
X74462137Y-121294370D01*
X80875000Y-114200000D02*
X80875000Y-111075000D01*
X79700000Y-122325000D02*
X78900000Y-123125000D01*
X79700000Y-115375000D02*
X79700000Y-122325000D01*
%TO.N,USART1_TX*%
X80875000Y-115950000D02*
X80875000Y-116775000D01*
X81750000Y-117650000D02*
X81750000Y-119850000D01*
X81750000Y-121950000D02*
X79950000Y-123750000D01*
X81750000Y-119850000D02*
X81750000Y-121950000D01*
X79950000Y-123750000D02*
X76210661Y-123750000D01*
X76210661Y-123750000D02*
X74108584Y-121647923D01*
X80875000Y-116775000D02*
X81750000Y-117650000D01*
%TO.N,SWDIO*%
X75522797Y-120317036D02*
X75522797Y-120233710D01*
D39*
%TO.N,VDD*%
X72500000Y-92351100D02*
X72500000Y-99275000D01*
X72475000Y-92376100D02*
X72500000Y-92351100D01*
D38*
X64009184Y-115812738D02*
X64030756Y-115812738D01*
D39*
%TO.N,Net-(JP3-A)*%
X94000000Y-133750000D02*
X94500000Y-133250000D01*
X94500000Y-133250000D02*
X94500000Y-128800000D01*
D36*
%TO.N,Net-(JP4-A)*%
X90700000Y-133750000D02*
X90700000Y-128800000D01*
D38*
%TO.N,Net-(J4-Pin_1)*%
X85325000Y-117825000D02*
X83450000Y-115950000D01*
X86400000Y-117825000D02*
X85325000Y-117825000D01*
X83450000Y-115950000D02*
X82525000Y-115950000D01*
%TO.N,Net-(J4-Pin_2)*%
X86400000Y-115285000D02*
X85315000Y-114200000D01*
X85315000Y-114200000D02*
X82525000Y-114200000D01*
D36*
%TO.N,/VSET*%
X97000000Y-135400000D02*
X94000000Y-135400000D01*
X94000000Y-135400000D02*
X90700000Y-135400000D01*
X98400000Y-134000000D02*
X97000000Y-135400000D01*
X111925000Y-128775000D02*
X113151000Y-127549000D01*
X98400000Y-128775000D02*
X111925000Y-128775000D01*
X113151000Y-127549000D02*
X113151000Y-121284000D01*
X98400000Y-128775000D02*
X98400000Y-134000000D01*
%TO.N,/P2110B_VOUT*%
X109849000Y-122870500D02*
X109119500Y-123600000D01*
X94500000Y-126260000D02*
X90700000Y-126260000D01*
X97160000Y-123600000D02*
X94500000Y-126260000D01*
X109849000Y-121284000D02*
X109849000Y-122870500D01*
X109119500Y-123600000D02*
X97160000Y-123600000D01*
%TO.N,Net-(J5-Pin_2)*%
X123375000Y-123805000D02*
X123400000Y-123780000D01*
X123375000Y-128510000D02*
X123375000Y-123805000D01*
%TO.N,Net-(JP11-C)*%
X116453000Y-121284000D02*
X123381000Y-121284000D01*
X123381000Y-121284000D02*
X123400000Y-121265000D01*
X123340000Y-121300000D02*
X123400000Y-121240000D01*
X116453000Y-121284000D02*
X116469000Y-121300000D01*
X123370000Y-121210000D02*
X123400000Y-121240000D01*
D38*
%TO.N,NRF_MISO*%
X66676231Y-120635392D02*
X65396841Y-120635392D01*
X70400000Y-140200000D02*
X69650000Y-139450000D01*
X65396841Y-120635392D02*
X64737863Y-121294370D01*
D37*
%TO.N,VDD*%
X68150000Y-108850000D02*
X70850000Y-108850000D01*
X70850000Y-108850000D02*
X71851992Y-109851992D01*
X56700000Y-127300000D02*
X56700000Y-133700000D01*
X56700000Y-133700000D02*
X56000000Y-134400000D01*
X52250000Y-120850000D02*
X53200000Y-121800000D01*
X53200000Y-121800000D02*
X56700000Y-121800000D01*
X52250000Y-118450000D02*
X52250000Y-120850000D01*
X45680000Y-136300000D02*
X43960000Y-134580000D01*
X53475000Y-116100000D02*
X52250000Y-117325000D01*
X52250000Y-117325000D02*
X52250000Y-118450000D01*
X56000000Y-134400000D02*
X54100000Y-136300000D01*
X56700000Y-121800000D02*
X56700000Y-122800000D01*
X54100000Y-136300000D02*
X45680000Y-136300000D01*
X63000000Y-143000000D02*
X56500000Y-143000000D01*
X56000000Y-142500000D02*
X56000000Y-134400000D01*
X63500000Y-142500000D02*
X63000000Y-143000000D01*
X66800000Y-130000000D02*
X66800000Y-134000000D01*
X68400000Y-128400000D02*
X66800000Y-130000000D01*
X66800000Y-134000000D02*
X63500000Y-137300000D01*
X63500000Y-137300000D02*
X63500000Y-142500000D01*
X56500000Y-143000000D02*
X56000000Y-142500000D01*
D38*
%TO.N,Net-(JP1-C)*%
X63375000Y-101075000D02*
X63410000Y-101040000D01*
X63375000Y-104400000D02*
X63375000Y-101075000D01*
X62375000Y-105400000D02*
X63375000Y-104400000D01*
D37*
%TO.N,VDD*%
X42110000Y-105140000D02*
X42100000Y-105150000D01*
X44040000Y-105140000D02*
X42110000Y-105140000D01*
X45450000Y-91800000D02*
X47500000Y-91800000D01*
X42100000Y-95150000D02*
X45450000Y-91800000D01*
X42100000Y-105150000D02*
X42100000Y-95150000D01*
X44350000Y-118450000D02*
X42100000Y-116200000D01*
X42100000Y-105150000D02*
X42100000Y-116200000D01*
X52250000Y-118450000D02*
X44350000Y-118450000D01*
D38*
%TO.N,/NRST*%
X57200000Y-106400000D02*
X55200000Y-108400000D01*
%TD*%
%TA.AperFunction,Conductor*%
%TO.N,GND*%
G36*
X108893039Y-134119685D02*
G01*
X108938794Y-134172489D01*
X108950000Y-134224000D01*
X108950000Y-137420562D01*
X108942730Y-137462397D01*
X108761584Y-137967835D01*
X108720435Y-138024303D01*
X108655291Y-138049560D01*
X108644854Y-138050000D01*
X108450000Y-138050000D01*
X108450000Y-144126000D01*
X108430315Y-144193039D01*
X108377511Y-144238794D01*
X108326000Y-144250000D01*
X104124000Y-144250000D01*
X104056961Y-144230315D01*
X104011206Y-144177511D01*
X104000000Y-144126000D01*
X104000000Y-136774000D01*
X104019685Y-136706961D01*
X104072489Y-136661206D01*
X104124000Y-136650000D01*
X107400000Y-136650000D01*
X107400000Y-134224000D01*
X107419685Y-134156961D01*
X107472489Y-134111206D01*
X107524000Y-134100000D01*
X108826000Y-134100000D01*
X108893039Y-134119685D01*
G37*
%TD.AperFunction*%
%TD*%
%TA.AperFunction,Conductor*%
%TO.N,GND*%
G36*
X112243039Y-134119685D02*
G01*
X112288794Y-134172489D01*
X112300000Y-134224000D01*
X112300000Y-136650000D01*
X115576000Y-136650000D01*
X115643039Y-136669685D01*
X115688794Y-136722489D01*
X115700000Y-136774000D01*
X115700000Y-144126000D01*
X115680315Y-144193039D01*
X115627511Y-144238794D01*
X115576000Y-144250000D01*
X111424000Y-144250000D01*
X111356961Y-144230315D01*
X111311206Y-144177511D01*
X111300000Y-144126000D01*
X111300000Y-138050000D01*
X111062747Y-138050000D01*
X110995708Y-138030315D01*
X110949953Y-137977511D01*
X110946515Y-137969198D01*
X110757768Y-137461336D01*
X110750000Y-137418138D01*
X110750000Y-134224000D01*
X110769685Y-134156961D01*
X110822489Y-134111206D01*
X110874000Y-134100000D01*
X112176000Y-134100000D01*
X112243039Y-134119685D01*
G37*
%TD.AperFunction*%
%TD*%
%TA.AperFunction,Conductor*%
%TO.N,NRF_IRQ*%
G36*
X44611512Y-120865631D02*
G01*
X44612732Y-120866104D01*
X45595475Y-121247245D01*
X45601948Y-121253430D01*
X45601953Y-121253442D01*
X46035256Y-122238799D01*
X46035450Y-122247752D01*
X46029256Y-122254219D01*
X46028772Y-122254419D01*
X44102040Y-123000682D01*
X44097814Y-123001472D01*
X43916136Y-123001472D01*
X43907863Y-122998045D01*
X43904436Y-122989772D01*
X43905016Y-122986135D01*
X44144328Y-122254419D01*
X44596162Y-120872900D01*
X44601989Y-120866104D01*
X44610918Y-120865419D01*
X44611512Y-120865631D01*
G37*
%TD.AperFunction*%
%TD*%
%TA.AperFunction,Conductor*%
%TO.N,NRF_IRQ*%
G36*
X44100859Y-125271383D02*
G01*
X44103166Y-125274661D01*
X44740060Y-126623625D01*
X44740493Y-126632569D01*
X44734475Y-126639200D01*
X44733969Y-126639425D01*
X43964489Y-126959134D01*
X43955534Y-126959143D01*
X43955511Y-126959134D01*
X43186574Y-126639651D01*
X43180249Y-126633312D01*
X43180258Y-126624357D01*
X43180721Y-126623375D01*
X43896701Y-125274171D01*
X43903606Y-125268470D01*
X43907036Y-125267956D01*
X44092586Y-125267956D01*
X44100859Y-125271383D01*
G37*
%TD.AperFunction*%
%TD*%
%TA.AperFunction,Conductor*%
%TO.N,NRF_CSN*%
G36*
X53303062Y-139403427D02*
G01*
X53303486Y-139403873D01*
X54192578Y-140391753D01*
X54195565Y-140400195D01*
X54192158Y-140407849D01*
X53208277Y-141392714D01*
X53200006Y-141396145D01*
X53191731Y-141392722D01*
X53191723Y-141392714D01*
X52207841Y-140407849D01*
X52204418Y-140399574D01*
X52207420Y-140391755D01*
X53096514Y-139403872D01*
X53104596Y-139400016D01*
X53105211Y-139400000D01*
X53294789Y-139400000D01*
X53303062Y-139403427D01*
G37*
%TD.AperFunction*%
%TD*%
%TA.AperFunction,Conductor*%
%TO.N,NRF_CSN*%
G36*
X43186656Y-131719655D02*
G01*
X43955511Y-132037146D01*
X43961850Y-132043471D01*
X43961856Y-132043487D01*
X44280417Y-132813541D01*
X44280413Y-132822496D01*
X44274079Y-132828825D01*
X44273159Y-132829161D01*
X42911735Y-133263102D01*
X42908182Y-133263655D01*
X42725726Y-133263655D01*
X42717453Y-133260228D01*
X42714026Y-133251955D01*
X42714519Y-133248593D01*
X43170985Y-131727108D01*
X43176645Y-131720168D01*
X43185554Y-131719263D01*
X43186656Y-131719655D01*
G37*
%TD.AperFunction*%
%TD*%
%TA.AperFunction,Conductor*%
%TO.N,NRF_SCK*%
G36*
X51611405Y-127389610D02*
G01*
X52596515Y-127798140D01*
X52602844Y-127804475D01*
X52602850Y-127804488D01*
X53008718Y-128788845D01*
X53008703Y-128797800D01*
X53002361Y-128804122D01*
X53002026Y-128804254D01*
X50905774Y-129594037D01*
X50896824Y-129593747D01*
X50890700Y-129587213D01*
X50889949Y-129583088D01*
X50889949Y-129402000D01*
X50890614Y-129398112D01*
X51099867Y-128804254D01*
X51595894Y-127396532D01*
X51601876Y-127389869D01*
X51610817Y-127389386D01*
X51611405Y-127389610D01*
G37*
%TD.AperFunction*%
%TD*%
%TA.AperFunction,Conductor*%
%TO.N,NRF_SCK*%
G36*
X46835766Y-128719959D02*
G01*
X46836492Y-128720291D01*
X48193521Y-129396770D01*
X48199395Y-129403527D01*
X48200000Y-129407240D01*
X48200000Y-129592759D01*
X48196573Y-129601032D01*
X48193520Y-129603230D01*
X46836497Y-130279706D01*
X46827564Y-130280330D01*
X46820806Y-130274455D01*
X46820472Y-130273724D01*
X46500865Y-129504489D01*
X46500856Y-129495534D01*
X46500865Y-129495511D01*
X46820472Y-128726274D01*
X46826811Y-128719950D01*
X46835766Y-128719959D01*
G37*
%TD.AperFunction*%
%TD*%
%TA.AperFunction,Conductor*%
%TO.N,Net-(JP9-B)*%
G36*
X75608436Y-139748107D02*
G01*
X75609218Y-139748973D01*
X76423982Y-140746769D01*
X76426620Y-140754169D01*
X76426620Y-141237797D01*
X76423193Y-141246070D01*
X76414920Y-141249497D01*
X76414428Y-141249487D01*
X75011194Y-141190470D01*
X75003073Y-141186698D01*
X74999986Y-141178796D01*
X74999005Y-140344857D01*
X75002420Y-140336584D01*
X75591893Y-139748091D01*
X75600166Y-139744673D01*
X75608436Y-139748107D01*
G37*
%TD.AperFunction*%
%TD*%
%TA.AperFunction,Conductor*%
%TO.N,Net-(JP9-B)*%
G36*
X113274077Y-133524967D02*
G01*
X113275780Y-133527127D01*
X113746529Y-134295311D01*
X113747930Y-134304155D01*
X113746461Y-134307646D01*
X113161320Y-135239399D01*
X113154018Y-135244583D01*
X113145190Y-135243085D01*
X113141678Y-135239669D01*
X113089359Y-135161220D01*
X112521097Y-134309143D01*
X112519359Y-134300360D01*
X112522217Y-134294736D01*
X112914335Y-133868175D01*
X112914629Y-133867869D01*
X113257532Y-133524966D01*
X113265804Y-133521540D01*
X113274077Y-133524967D01*
G37*
%TD.AperFunction*%
%TD*%
%TA.AperFunction,Conductor*%
%TO.N,Net-(JP6-B)*%
G36*
X75609191Y-132145350D02*
G01*
X76362257Y-132735877D01*
X76686259Y-132989947D01*
X76690654Y-132997749D01*
X76688246Y-133006374D01*
X76687312Y-133007427D01*
X76345696Y-133349043D01*
X76339467Y-133352290D01*
X75013732Y-133587562D01*
X75004988Y-133585633D01*
X75000168Y-133578086D01*
X74999988Y-133576052D01*
X74999799Y-133349043D01*
X74999297Y-132744152D01*
X75002717Y-132735877D01*
X75002734Y-132735860D01*
X75593709Y-132146273D01*
X75601985Y-132142857D01*
X75609191Y-132145350D01*
G37*
%TD.AperFunction*%
%TD*%
%TA.AperFunction,Conductor*%
%TO.N,Net-(JP6-B)*%
G36*
X115051692Y-133669927D02*
G01*
X115053418Y-133672125D01*
X115431937Y-134295142D01*
X115433304Y-134303992D01*
X115431682Y-134307694D01*
X114811734Y-135240355D01*
X114804300Y-135245348D01*
X114795513Y-135243622D01*
X114792252Y-135240363D01*
X114171112Y-134307675D01*
X114169378Y-134298890D01*
X114170829Y-134295150D01*
X114546588Y-133672157D01*
X114553796Y-133666843D01*
X114556607Y-133666500D01*
X115043419Y-133666500D01*
X115051692Y-133669927D01*
G37*
%TD.AperFunction*%
%TD*%
%TA.AperFunction,Conductor*%
%TO.N,/BOOT0*%
G36*
X71608269Y-105207277D02*
G01*
X71608277Y-105207285D01*
X72592158Y-106192150D01*
X72595581Y-106200425D01*
X72592578Y-106208246D01*
X71703486Y-107196127D01*
X71695404Y-107199984D01*
X71694789Y-107200000D01*
X71505211Y-107200000D01*
X71496938Y-107196573D01*
X71496514Y-107196127D01*
X70607421Y-106208246D01*
X70604434Y-106199804D01*
X70607840Y-106192152D01*
X71591723Y-105207284D01*
X71599994Y-105203854D01*
X71608269Y-105207277D01*
G37*
%TD.AperFunction*%
%TD*%
%TA.AperFunction,Conductor*%
%TO.N,/BOOT0*%
G36*
X64423335Y-105238704D02*
G01*
X64429569Y-105244848D01*
X64746848Y-105976292D01*
X64746996Y-105985246D01*
X64744387Y-105989221D01*
X64613899Y-106119709D01*
X64605626Y-106123136D01*
X64601558Y-106122406D01*
X63943579Y-105878435D01*
X63937014Y-105872346D01*
X63936151Y-105865291D01*
X64023114Y-105405521D01*
X64028019Y-105398030D01*
X64030147Y-105396882D01*
X64414383Y-105238685D01*
X64423335Y-105238704D01*
G37*
%TD.AperFunction*%
%TD*%
%TA.AperFunction,Conductor*%
%TO.N,GND*%
G36*
X61388630Y-99347405D02*
G01*
X61391842Y-99353443D01*
X61717291Y-101026081D01*
X61715507Y-101034857D01*
X61708041Y-101039801D01*
X61705820Y-101040016D01*
X60872342Y-101040997D01*
X60867839Y-101040102D01*
X60093767Y-100718485D01*
X60087442Y-100712146D01*
X60086836Y-100705136D01*
X60387961Y-99353134D01*
X60393104Y-99345804D01*
X60399381Y-99343978D01*
X61380357Y-99343978D01*
X61388630Y-99347405D01*
G37*
%TD.AperFunction*%
%TD*%
%TA.AperFunction,Conductor*%
%TO.N,VDD*%
G36*
X65023501Y-99416643D02*
G01*
X65622815Y-99760896D01*
X66360328Y-100184532D01*
X66365795Y-100191624D01*
X66364995Y-100199848D01*
X65952854Y-101036347D01*
X65946124Y-101042254D01*
X65946101Y-101042261D01*
X65111680Y-101323920D01*
X65102745Y-101323320D01*
X65096853Y-101316577D01*
X65096681Y-101316023D01*
X64664029Y-99772323D01*
X64665096Y-99763435D01*
X64667018Y-99760900D01*
X65009403Y-99418515D01*
X65017675Y-99415089D01*
X65023501Y-99416643D01*
G37*
%TD.AperFunction*%
%TD*%
%TA.AperFunction,Conductor*%
%TO.N,SWCLK*%
G36*
X76886645Y-116235003D02*
G01*
X76890072Y-116243276D01*
X76889156Y-116247814D01*
X76818336Y-116416102D01*
X76814723Y-116420809D01*
X76288326Y-116829084D01*
X76279688Y-116831447D01*
X76271910Y-116827010D01*
X76269547Y-116818372D01*
X76271478Y-116813263D01*
X76650273Y-116256263D01*
X76654679Y-116252396D01*
X76693505Y-116232828D01*
X76698771Y-116231576D01*
X76878372Y-116231576D01*
X76886645Y-116235003D01*
G37*
%TD.AperFunction*%
%TD*%
%TA.AperFunction,Conductor*%
%TO.N,SWCLK*%
G36*
X52944484Y-90400863D02*
G01*
X53713785Y-90720497D01*
X53720110Y-90726836D01*
X53720101Y-90735791D01*
X53719794Y-90736467D01*
X53053215Y-92091476D01*
X53046489Y-92097386D01*
X53042717Y-92098011D01*
X52857189Y-92098011D01*
X52848916Y-92094584D01*
X52846752Y-92091598D01*
X52160401Y-90736533D01*
X52159719Y-90727604D01*
X52165551Y-90720809D01*
X52166330Y-90720449D01*
X52935511Y-90400864D01*
X52944466Y-90400856D01*
X52944484Y-90400863D01*
G37*
%TD.AperFunction*%
%TD*%
%TA.AperFunction,Conductor*%
%TO.N,SWDIO*%
G36*
X75059197Y-119593141D02*
G01*
X75098019Y-119612708D01*
X75102428Y-119616577D01*
X75284423Y-119884192D01*
X75481220Y-120173573D01*
X75483038Y-120182340D01*
X75478124Y-120189826D01*
X75469356Y-120191644D01*
X75464374Y-120189396D01*
X74937977Y-119781121D01*
X74934364Y-119776414D01*
X74863546Y-119608127D01*
X74863496Y-119599172D01*
X74869792Y-119592805D01*
X74874330Y-119591889D01*
X75053931Y-119591889D01*
X75059197Y-119593141D01*
G37*
%TD.AperFunction*%
%TD*%
%TA.AperFunction,Conductor*%
%TO.N,SWDIO*%
G36*
X55484484Y-90400863D02*
G01*
X56253785Y-90720497D01*
X56260110Y-90726836D01*
X56260101Y-90735791D01*
X56259794Y-90736467D01*
X55593215Y-92091476D01*
X55586489Y-92097386D01*
X55582717Y-92098011D01*
X55397189Y-92098011D01*
X55388916Y-92094584D01*
X55386752Y-92091598D01*
X54700401Y-90736533D01*
X54699719Y-90727604D01*
X54705551Y-90720809D01*
X54706330Y-90720449D01*
X55475511Y-90400864D01*
X55484466Y-90400856D01*
X55484484Y-90400863D01*
G37*
%TD.AperFunction*%
%TD*%
%TA.AperFunction,Conductor*%
%TO.N,VDD*%
G36*
X67231398Y-109463251D02*
G01*
X67572764Y-109804617D01*
X67576191Y-109812890D01*
X67574845Y-109818337D01*
X67295525Y-110349271D01*
X67288641Y-110354998D01*
X67283727Y-110355435D01*
X66756343Y-110289839D01*
X66748556Y-110285417D01*
X66746176Y-110279672D01*
X66680580Y-109752286D01*
X66682960Y-109743655D01*
X66686740Y-109740493D01*
X67217679Y-109461169D01*
X67226595Y-109460350D01*
X67231398Y-109463251D01*
G37*
%TD.AperFunction*%
%TD*%
%TA.AperFunction,Conductor*%
%TO.N,GND*%
G36*
X65164569Y-108416757D02*
G01*
X65700851Y-108635623D01*
X65707215Y-108641921D01*
X65708069Y-108647637D01*
X65653581Y-109184009D01*
X65649336Y-109191894D01*
X65644117Y-109194323D01*
X65116408Y-109294227D01*
X65107642Y-109292399D01*
X65104094Y-109288572D01*
X65048859Y-109192699D01*
X64808296Y-108775143D01*
X64807136Y-108766264D01*
X64810160Y-108761032D01*
X65151876Y-108419316D01*
X65160148Y-108415890D01*
X65164569Y-108416757D01*
G37*
%TD.AperFunction*%
%TD*%
%TA.AperFunction,Conductor*%
%TO.N,GND*%
G36*
X65014494Y-108132043D02*
G01*
X65015557Y-108133273D01*
X65425662Y-108680079D01*
X65427884Y-108688754D01*
X65424575Y-108695372D01*
X65085372Y-109034575D01*
X65077099Y-109038002D01*
X65070079Y-109035662D01*
X64523273Y-108625557D01*
X64518711Y-108617852D01*
X64520933Y-108609177D01*
X64521978Y-108607967D01*
X64759293Y-108369293D01*
X64997951Y-108131994D01*
X65006230Y-108128593D01*
X65014494Y-108132043D01*
G37*
%TD.AperFunction*%
%TD*%
%TA.AperFunction,Conductor*%
%TO.N,GND*%
G36*
X63900017Y-109722891D02*
G01*
X64428177Y-110004197D01*
X64433867Y-110011110D01*
X64434172Y-110016699D01*
X64334279Y-110544352D01*
X64329373Y-110551844D01*
X64324273Y-110553781D01*
X63790481Y-110622335D01*
X63781839Y-110619990D01*
X63778286Y-110615451D01*
X63750239Y-110551844D01*
X63542050Y-110079700D01*
X63541848Y-110070750D01*
X63544481Y-110066711D01*
X63886247Y-109724945D01*
X63894519Y-109721519D01*
X63900017Y-109722891D01*
G37*
%TD.AperFunction*%
%TD*%
%TA.AperFunction,Conductor*%
%TO.N,GND*%
G36*
X63744494Y-109432043D02*
G01*
X63745557Y-109433273D01*
X64155662Y-109980079D01*
X64157884Y-109988754D01*
X64154575Y-109995372D01*
X63815372Y-110334575D01*
X63807099Y-110338002D01*
X63800079Y-110335662D01*
X63253273Y-109925557D01*
X63248711Y-109917852D01*
X63250933Y-109909177D01*
X63251978Y-109907967D01*
X63489293Y-109669293D01*
X63727951Y-109431994D01*
X63736230Y-109428593D01*
X63744494Y-109432043D01*
G37*
%TD.AperFunction*%
%TD*%
%TA.AperFunction,Conductor*%
%TO.N,/NRST*%
G36*
X65419672Y-111646176D02*
G01*
X65427459Y-111650598D01*
X65429839Y-111656343D01*
X65495188Y-112181741D01*
X65492808Y-112190374D01*
X65486708Y-112194458D01*
X64851222Y-112370965D01*
X64842334Y-112369877D01*
X64839818Y-112367965D01*
X64708050Y-112236197D01*
X64704623Y-112227924D01*
X64705048Y-112224800D01*
X64881558Y-111589305D01*
X64887073Y-111582253D01*
X64894271Y-111580827D01*
X65419672Y-111646176D01*
G37*
%TD.AperFunction*%
%TD*%
%TA.AperFunction,Conductor*%
%TO.N,/NRST*%
G36*
X65610866Y-113005368D02*
G01*
X65727592Y-113070433D01*
X65731562Y-113074063D01*
X66117994Y-113641076D01*
X66119822Y-113649842D01*
X66114915Y-113657333D01*
X66106149Y-113659161D01*
X66101737Y-113657333D01*
X65534724Y-113270900D01*
X65531093Y-113266928D01*
X65466032Y-113150207D01*
X65464998Y-113141313D01*
X65467977Y-113136240D01*
X65596901Y-113007316D01*
X65605173Y-113003890D01*
X65610866Y-113005368D01*
G37*
%TD.AperFunction*%
%TD*%
%TA.AperFunction,Conductor*%
%TO.N,VDD*%
G36*
X67291980Y-110187672D02*
G01*
X67295769Y-110191940D01*
X67572806Y-110724434D01*
X67573585Y-110733355D01*
X67570700Y-110738107D01*
X67438997Y-110869810D01*
X67430724Y-110873237D01*
X67430182Y-110873224D01*
X66774294Y-110842796D01*
X66766188Y-110838990D01*
X66763141Y-110831449D01*
X66760424Y-110738107D01*
X66747591Y-110297277D01*
X66750776Y-110288910D01*
X66757107Y-110285444D01*
X67283214Y-110185844D01*
X67291980Y-110187672D01*
G37*
%TD.AperFunction*%
%TD*%
%TA.AperFunction,Conductor*%
%TO.N,VDD*%
G36*
X67732186Y-110884048D02*
G01*
X67848912Y-110949113D01*
X67852882Y-110952743D01*
X68239314Y-111519756D01*
X68241142Y-111528522D01*
X68236235Y-111536013D01*
X68227469Y-111537841D01*
X68223057Y-111536013D01*
X67656044Y-111149580D01*
X67652413Y-111145608D01*
X67587352Y-111028887D01*
X67586318Y-111019993D01*
X67589297Y-111014920D01*
X67718221Y-110885996D01*
X67726493Y-110882570D01*
X67732186Y-110884048D01*
G37*
%TD.AperFunction*%
%TD*%
%TA.AperFunction,Conductor*%
%TO.N,VDD*%
G36*
X61686380Y-115193954D02*
G01*
X61693993Y-115198667D01*
X61696045Y-115203620D01*
X61782465Y-115733926D01*
X61780413Y-115742643D01*
X61776025Y-115746334D01*
X61241857Y-116005552D01*
X61232918Y-116006081D01*
X61228476Y-116003299D01*
X60886700Y-115661523D01*
X60883273Y-115653250D01*
X60884445Y-115648146D01*
X61143665Y-115113973D01*
X61150359Y-115108028D01*
X61156068Y-115107535D01*
X61686380Y-115193954D01*
G37*
%TD.AperFunction*%
%TD*%
%TA.AperFunction,Conductor*%
%TO.N,VDD*%
G36*
X59406344Y-114542960D02*
G01*
X59409508Y-114546743D01*
X59442028Y-114608556D01*
X59688829Y-115077678D01*
X59689649Y-115086595D01*
X59686748Y-115091398D01*
X59345382Y-115432764D01*
X59337109Y-115436191D01*
X59331662Y-115434845D01*
X58800728Y-115155525D01*
X58795001Y-115148641D01*
X58794564Y-115143730D01*
X58860160Y-114616342D01*
X58864582Y-114608556D01*
X58870325Y-114606176D01*
X59397712Y-114540580D01*
X59406344Y-114542960D01*
G37*
%TD.AperFunction*%
%TD*%
%TA.AperFunction,Conductor*%
%TO.N,GND*%
G36*
X62320329Y-113273162D02*
G01*
X62851263Y-113552483D01*
X62856990Y-113559366D01*
X62857427Y-113564280D01*
X62791831Y-114091664D01*
X62787409Y-114099451D01*
X62781664Y-114101831D01*
X62254280Y-114167427D01*
X62245647Y-114165047D01*
X62242483Y-114161264D01*
X61963162Y-113630329D01*
X61962342Y-113621412D01*
X61965241Y-113616611D01*
X62306610Y-113275242D01*
X62314882Y-113271816D01*
X62320329Y-113273162D01*
G37*
%TD.AperFunction*%
%TD*%
%TA.AperFunction,Conductor*%
%TO.N,GND*%
G36*
X62145222Y-113041321D02*
G01*
X62145702Y-113041834D01*
X62586531Y-113541999D01*
X62589431Y-113550471D01*
X62586027Y-113558008D01*
X62246800Y-113897235D01*
X62238527Y-113900662D01*
X62232359Y-113898904D01*
X62042619Y-113781169D01*
X61764481Y-113608582D01*
X61759258Y-113601308D01*
X61759828Y-113594193D01*
X61888396Y-113281474D01*
X61890965Y-113277629D01*
X62128677Y-113041272D01*
X62136958Y-113037870D01*
X62145222Y-113041321D01*
G37*
%TD.AperFunction*%
%TD*%
%TA.AperFunction,Conductor*%
%TO.N,GND*%
G36*
X61579920Y-112614337D02*
G01*
X62126726Y-113024442D01*
X62131288Y-113032147D01*
X62129066Y-113040822D01*
X62128003Y-113042051D01*
X61890755Y-113280659D01*
X61890707Y-113280707D01*
X61652051Y-113518003D01*
X61643769Y-113521406D01*
X61635505Y-113517955D01*
X61634442Y-113516726D01*
X61224337Y-112969920D01*
X61222115Y-112961245D01*
X61225423Y-112954629D01*
X61564628Y-112615423D01*
X61572900Y-112611997D01*
X61579920Y-112614337D01*
G37*
%TD.AperFunction*%
%TD*%
%TA.AperFunction,Conductor*%
%TO.N,GND*%
G36*
X61588195Y-112636069D02*
G01*
X61594872Y-112642036D01*
X61595374Y-112650976D01*
X61592604Y-112655385D01*
X61254927Y-112993062D01*
X61248434Y-112996353D01*
X60783452Y-113067929D01*
X60774754Y-113065801D01*
X60770108Y-113058145D01*
X60769972Y-113056396D01*
X60769297Y-112721646D01*
X60770198Y-112717123D01*
X60899691Y-112406820D01*
X60906039Y-112400507D01*
X60914350Y-112400285D01*
X61588195Y-112636069D01*
G37*
%TD.AperFunction*%
%TD*%
%TA.AperFunction,Conductor*%
%TO.N,GND*%
G36*
X60433403Y-112714596D02*
G01*
X60775178Y-113056371D01*
X60778605Y-113064644D01*
X60777337Y-113069941D01*
X60506696Y-113602980D01*
X60499895Y-113608805D01*
X60494194Y-113609198D01*
X59965592Y-113514189D01*
X59958056Y-113509353D01*
X59956085Y-113504363D01*
X59878475Y-112972308D01*
X59880671Y-112963627D01*
X59885134Y-112960003D01*
X60420214Y-112712251D01*
X60429161Y-112711885D01*
X60433403Y-112714596D01*
G37*
%TD.AperFunction*%
%TD*%
%TA.AperFunction,Conductor*%
%TO.N,GND*%
G36*
X60530822Y-112480933D02*
G01*
X60532045Y-112481991D01*
X60770707Y-112719293D01*
X61008003Y-112957949D01*
X61011406Y-112966230D01*
X61007955Y-112974494D01*
X61006726Y-112975557D01*
X60459920Y-113385662D01*
X60451245Y-113387884D01*
X60444627Y-113384575D01*
X60105424Y-113045372D01*
X60101997Y-113037099D01*
X60104336Y-113030080D01*
X60514443Y-112483271D01*
X60522147Y-112478711D01*
X60530822Y-112480933D01*
G37*
%TD.AperFunction*%
%TD*%
%TA.AperFunction,Conductor*%
%TO.N,GND*%
G36*
X63332366Y-114035199D02*
G01*
X63336450Y-114041299D01*
X63512957Y-114676785D01*
X63511869Y-114685673D01*
X63509957Y-114688189D01*
X63378189Y-114819957D01*
X63369916Y-114823384D01*
X63366785Y-114822957D01*
X62731299Y-114646450D01*
X62724245Y-114640934D01*
X62722819Y-114633735D01*
X62788168Y-114108334D01*
X62792590Y-114100548D01*
X62798333Y-114098168D01*
X63323734Y-114032819D01*
X63332366Y-114035199D01*
G37*
%TD.AperFunction*%
%TD*%
%TA.AperFunction,Conductor*%
%TO.N,GND*%
G36*
X63778611Y-114754996D02*
G01*
X63955375Y-114842365D01*
X63959800Y-114846180D01*
X64088204Y-115031163D01*
X64349340Y-115407364D01*
X64351243Y-115416115D01*
X64346401Y-115423647D01*
X64337650Y-115425550D01*
X64333150Y-115423711D01*
X63769593Y-115040457D01*
X63764679Y-115032971D01*
X63764478Y-115031163D01*
X63761734Y-114946836D01*
X63761728Y-114946455D01*
X63761728Y-114765486D01*
X63765155Y-114757213D01*
X63773428Y-114753786D01*
X63778611Y-114754996D01*
G37*
%TD.AperFunction*%
%TD*%
%TA.AperFunction,Conductor*%
%TO.N,VDD*%
G36*
X63405173Y-115153484D02*
G01*
X63528350Y-115205319D01*
X63573462Y-115224303D01*
X63578169Y-115227916D01*
X63986443Y-115754315D01*
X63988806Y-115762953D01*
X63984369Y-115770731D01*
X63975731Y-115773094D01*
X63970619Y-115771161D01*
X63885019Y-115712948D01*
X63413622Y-115392368D01*
X63409754Y-115387960D01*
X63390188Y-115349135D01*
X63388936Y-115343870D01*
X63388936Y-115164269D01*
X63392363Y-115155996D01*
X63400636Y-115152569D01*
X63405173Y-115153484D01*
G37*
%TD.AperFunction*%
%TD*%
%TA.AperFunction,Conductor*%
%TO.N,VDD*%
G36*
X62237545Y-115131067D02*
G01*
X62241162Y-115135795D01*
X62421749Y-115567834D01*
X62422654Y-115572346D01*
X62422654Y-115758028D01*
X62419227Y-115766301D01*
X62410954Y-115769728D01*
X62410686Y-115769725D01*
X61736740Y-115754292D01*
X61728548Y-115750677D01*
X61725328Y-115743285D01*
X61693630Y-115206949D01*
X61696563Y-115198488D01*
X61703849Y-115194651D01*
X62228909Y-115128698D01*
X62237545Y-115131067D01*
G37*
%TD.AperFunction*%
%TD*%
%TA.AperFunction,Conductor*%
%TO.N,VDD*%
G36*
X58854388Y-114605946D02*
G01*
X58862001Y-114610659D01*
X58864053Y-114615612D01*
X58950473Y-115145918D01*
X58948421Y-115154635D01*
X58944033Y-115158326D01*
X58409865Y-115417544D01*
X58400926Y-115418073D01*
X58396484Y-115415291D01*
X58054708Y-115073515D01*
X58051281Y-115065242D01*
X58052453Y-115060138D01*
X58311673Y-114525965D01*
X58318367Y-114520020D01*
X58324076Y-114519527D01*
X58854388Y-114605946D01*
G37*
%TD.AperFunction*%
%TD*%
%TA.AperFunction,Conductor*%
%TO.N,EXTRA_ADC_CHAN_1*%
G36*
X64550205Y-114066029D02*
G01*
X64666931Y-114131094D01*
X64670901Y-114134724D01*
X65057333Y-114701737D01*
X65059161Y-114710503D01*
X65054254Y-114717994D01*
X65045488Y-114719822D01*
X65041076Y-114717994D01*
X64474063Y-114331561D01*
X64470432Y-114327589D01*
X64405371Y-114210868D01*
X64404337Y-114201974D01*
X64407316Y-114196901D01*
X64536240Y-114067977D01*
X64544512Y-114064551D01*
X64550205Y-114066029D01*
G37*
%TD.AperFunction*%
%TD*%
%TA.AperFunction,Conductor*%
%TO.N,EXTRA_ADC_CHAN_1*%
G36*
X56232677Y-112754168D02*
G01*
X56363689Y-112825295D01*
X56925806Y-113130472D01*
X56928495Y-113132480D01*
X57061803Y-113265788D01*
X57065230Y-113274061D01*
X57063141Y-113280734D01*
X56231862Y-114478003D01*
X56224328Y-114482844D01*
X56215578Y-114480941D01*
X56215312Y-114480750D01*
X55235249Y-113758777D01*
X55230620Y-113751111D01*
X55232768Y-113742418D01*
X55233908Y-113741091D01*
X56218823Y-112756176D01*
X56227095Y-112752750D01*
X56232677Y-112754168D01*
G37*
%TD.AperFunction*%
%TD*%
%TA.AperFunction,Conductor*%
%TO.N,NRF_CE*%
G36*
X46835766Y-131259959D02*
G01*
X46836497Y-131260293D01*
X47829459Y-131755285D01*
X47832512Y-131757483D01*
X47899540Y-131824511D01*
X47955489Y-131880460D01*
X47955490Y-131880461D01*
X47955492Y-131880462D01*
X48024008Y-131920020D01*
X48024012Y-131920022D01*
X48084285Y-131936171D01*
X48100435Y-131940499D01*
X48100436Y-131940500D01*
X48188300Y-131940500D01*
X48196573Y-131943927D01*
X48200000Y-131952200D01*
X48200000Y-132132759D01*
X48196573Y-132141032D01*
X48193520Y-132143230D01*
X46836497Y-132819706D01*
X46827564Y-132820330D01*
X46820806Y-132814455D01*
X46820472Y-132813724D01*
X46500865Y-132044489D01*
X46500856Y-132035534D01*
X46500865Y-132035511D01*
X46565286Y-131880462D01*
X46820472Y-131266274D01*
X46826811Y-131259950D01*
X46835766Y-131259959D01*
G37*
%TD.AperFunction*%
%TD*%
%TA.AperFunction,Conductor*%
%TO.N,NRF_CSN*%
G36*
X65764441Y-122392190D02*
G01*
X65766269Y-122400956D01*
X65764441Y-122405368D01*
X65378008Y-122972382D01*
X65374037Y-122976013D01*
X65257316Y-123041075D01*
X65248421Y-123042109D01*
X65243346Y-123039128D01*
X65114424Y-122910206D01*
X65110997Y-122901933D01*
X65112475Y-122896241D01*
X65177541Y-122779512D01*
X65181168Y-122775545D01*
X65748186Y-122389110D01*
X65756950Y-122387283D01*
X65764441Y-122392190D01*
G37*
%TD.AperFunction*%
%TD*%
%TA.AperFunction,Conductor*%
%TO.N,NRF_CSN*%
G36*
X45296429Y-131134391D02*
G01*
X45296802Y-131134748D01*
X45427970Y-131265916D01*
X45431397Y-131274189D01*
X45429593Y-131280431D01*
X44750553Y-132356948D01*
X44743241Y-132362117D01*
X44736191Y-132361520D01*
X43966533Y-132043696D01*
X43960194Y-132037371D01*
X43959299Y-132032874D01*
X43959990Y-131201183D01*
X43963424Y-131192915D01*
X43971173Y-131189506D01*
X45288013Y-131131332D01*
X45296429Y-131134391D01*
G37*
%TD.AperFunction*%
%TD*%
%TA.AperFunction,Conductor*%
%TO.N,NRF_CE*%
G36*
X66117995Y-122745744D02*
G01*
X66119823Y-122754510D01*
X66117995Y-122758922D01*
X65731562Y-123325936D01*
X65727591Y-123329567D01*
X65610870Y-123394629D01*
X65601975Y-123395663D01*
X65596900Y-123392682D01*
X65467978Y-123263760D01*
X65464551Y-123255487D01*
X65466029Y-123249795D01*
X65531095Y-123133066D01*
X65534722Y-123129099D01*
X66101740Y-122742664D01*
X66110504Y-122740837D01*
X66117995Y-122745744D01*
G37*
%TD.AperFunction*%
%TD*%
%TA.AperFunction,Conductor*%
%TO.N,P2110B_DOUT*%
G36*
X62886104Y-119428732D02*
G01*
X62963930Y-119518351D01*
X62966767Y-119526844D01*
X62963351Y-119534313D01*
X62450670Y-120044749D01*
X62445795Y-120047659D01*
X62279542Y-120097828D01*
X62270632Y-120096937D01*
X62264961Y-120090007D01*
X62264462Y-120086627D01*
X62264462Y-119908071D01*
X62267889Y-119899798D01*
X62268939Y-119898866D01*
X62870049Y-119427197D01*
X62878672Y-119424787D01*
X62886104Y-119428732D01*
G37*
%TD.AperFunction*%
%TD*%
%TA.AperFunction,Conductor*%
%TO.N,P2110B_DOUT*%
G36*
X59865840Y-118840643D02*
G01*
X59870159Y-118848487D01*
X59870230Y-118849778D01*
X59870230Y-119033018D01*
X59868113Y-119039730D01*
X59555468Y-119486091D01*
X59547915Y-119490902D01*
X59539173Y-119488962D01*
X59537629Y-119487669D01*
X59536045Y-119486091D01*
X59302456Y-119253442D01*
X59299013Y-119245179D01*
X59299970Y-118910442D01*
X59303421Y-118902179D01*
X59310376Y-118898848D01*
X59857241Y-118838149D01*
X59865840Y-118840643D01*
G37*
%TD.AperFunction*%
%TD*%
%TA.AperFunction,Conductor*%
%TO.N,GND*%
G36*
X60593959Y-120450857D02*
G01*
X60601741Y-120455288D01*
X60604112Y-120461026D01*
X60669390Y-120987454D01*
X60667007Y-120996086D01*
X60662916Y-120999406D01*
X59962242Y-121341773D01*
X59953304Y-121342326D01*
X59946593Y-121336398D01*
X59945405Y-121331261D01*
X59945405Y-120851395D01*
X59945733Y-120848644D01*
X60055785Y-120393723D01*
X60061060Y-120386491D01*
X60068611Y-120384868D01*
X60593959Y-120450857D01*
G37*
%TD.AperFunction*%
%TD*%
%TA.AperFunction,Conductor*%
%TO.N,GND*%
G36*
X59961603Y-120745561D02*
G01*
X59961748Y-120745704D01*
X60300220Y-121084176D01*
X60303647Y-121092449D01*
X60300220Y-121100722D01*
X60297100Y-121102953D01*
X59655101Y-121417882D01*
X59646164Y-121418449D01*
X59639444Y-121412531D01*
X59639159Y-121411904D01*
X59510198Y-121102877D01*
X59509297Y-121098352D01*
X59509976Y-120761471D01*
X59513420Y-120753208D01*
X59521471Y-120749800D01*
X59953272Y-120742279D01*
X59961603Y-120745561D01*
G37*
%TD.AperFunction*%
%TD*%
%TA.AperFunction,Conductor*%
%TO.N,GND*%
G36*
X63281063Y-119923946D02*
G01*
X63282881Y-119932714D01*
X63280681Y-119937634D01*
X62874590Y-120468517D01*
X62869918Y-120472157D01*
X62700532Y-120544975D01*
X62691578Y-120545094D01*
X62685162Y-120538847D01*
X62684211Y-120534226D01*
X62684211Y-120354233D01*
X62685040Y-120349908D01*
X62702685Y-120305558D01*
X62706974Y-120300212D01*
X63264810Y-119920849D01*
X63273577Y-119919032D01*
X63281063Y-119923946D01*
G37*
%TD.AperFunction*%
%TD*%
%TA.AperFunction,Conductor*%
%TO.N,GND*%
G36*
X60834006Y-120006564D02*
G01*
X61602413Y-120348900D01*
X61608576Y-120355397D01*
X61609352Y-120359587D01*
X61609352Y-120544261D01*
X61605925Y-120552534D01*
X61602240Y-120555024D01*
X60799241Y-120897364D01*
X60790287Y-120897456D01*
X60783890Y-120891189D01*
X60783852Y-120891099D01*
X60603039Y-120456907D01*
X60603022Y-120447952D01*
X60603346Y-120447234D01*
X60818760Y-120012059D01*
X60825501Y-120006166D01*
X60834006Y-120006564D01*
G37*
%TD.AperFunction*%
%TD*%
%TA.AperFunction,Conductor*%
%TO.N,VDD*%
G36*
X63643121Y-120270870D02*
G01*
X63644949Y-120279636D01*
X63643121Y-120284048D01*
X63256688Y-120851062D01*
X63252717Y-120854693D01*
X63135996Y-120919755D01*
X63127101Y-120920789D01*
X63122026Y-120917808D01*
X62993104Y-120788886D01*
X62989677Y-120780613D01*
X62991155Y-120774921D01*
X63056221Y-120658192D01*
X63059848Y-120654225D01*
X63626866Y-120267790D01*
X63635630Y-120265963D01*
X63643121Y-120270870D01*
G37*
%TD.AperFunction*%
%TD*%
%TA.AperFunction,Conductor*%
%TO.N,VDD*%
G36*
X62336088Y-120878205D02*
G01*
X62337695Y-120879548D01*
X62469387Y-121011240D01*
X62472814Y-121019513D01*
X62472020Y-121023750D01*
X62245059Y-121607934D01*
X62238869Y-121614405D01*
X62232709Y-121615308D01*
X61707900Y-121550033D01*
X61700113Y-121545611D01*
X61697650Y-121538040D01*
X61715376Y-120996575D01*
X61719072Y-120988421D01*
X61724983Y-120985447D01*
X62327336Y-120876308D01*
X62336088Y-120878205D01*
G37*
%TD.AperFunction*%
%TD*%
%TA.AperFunction,Conductor*%
%TO.N,VDD*%
G36*
X61689672Y-121546176D02*
G01*
X61697459Y-121550598D01*
X61699839Y-121556343D01*
X61765435Y-122083727D01*
X61763055Y-122092360D01*
X61759271Y-122095525D01*
X61228337Y-122374845D01*
X61219420Y-122375665D01*
X61214617Y-122372764D01*
X60873251Y-122031398D01*
X60869824Y-122023125D01*
X60871169Y-122017679D01*
X61150491Y-121486742D01*
X61157374Y-121481017D01*
X61162284Y-121480580D01*
X61689672Y-121546176D01*
G37*
%TD.AperFunction*%
%TD*%
%TA.AperFunction,Conductor*%
%TO.N,NRF_IRQ*%
G36*
X63996674Y-120624422D02*
G01*
X63998502Y-120633188D01*
X63996674Y-120637600D01*
X63610241Y-121204614D01*
X63606270Y-121208245D01*
X63489549Y-121273307D01*
X63480654Y-121274341D01*
X63475579Y-121271360D01*
X63346657Y-121142438D01*
X63343230Y-121134165D01*
X63344708Y-121128473D01*
X63409774Y-121011744D01*
X63413401Y-121007777D01*
X63980419Y-120621342D01*
X63989183Y-120619515D01*
X63996674Y-120624422D01*
G37*
%TD.AperFunction*%
%TD*%
%TA.AperFunction,Conductor*%
%TO.N,NRF_IRQ*%
G36*
X44902049Y-125562668D02*
G01*
X45033230Y-125693849D01*
X45036657Y-125702122D01*
X45036471Y-125704198D01*
X44811734Y-126950384D01*
X44806894Y-126957918D01*
X44800230Y-126960008D01*
X43967127Y-126960700D01*
X43958851Y-126957280D01*
X43956303Y-126953466D01*
X43638908Y-126184846D01*
X43638917Y-126175891D01*
X43644573Y-126169874D01*
X44888629Y-125560433D01*
X44897566Y-125559872D01*
X44902049Y-125562668D01*
G37*
%TD.AperFunction*%
%TD*%
%TA.AperFunction,Conductor*%
%TO.N,NRF_SCK*%
G36*
X64350228Y-120977977D02*
G01*
X64352056Y-120986743D01*
X64350228Y-120991155D01*
X63963795Y-121558169D01*
X63959824Y-121561800D01*
X63843103Y-121626862D01*
X63834208Y-121627896D01*
X63829133Y-121624915D01*
X63700211Y-121495993D01*
X63696784Y-121487720D01*
X63698262Y-121482028D01*
X63763328Y-121365299D01*
X63766955Y-121361332D01*
X64333973Y-120974897D01*
X64342737Y-120973070D01*
X64350228Y-120977977D01*
G37*
%TD.AperFunction*%
%TD*%
%TA.AperFunction,Conductor*%
%TO.N,NRF_SCK*%
G36*
X45726451Y-129179579D02*
G01*
X46496512Y-129498143D01*
X46502846Y-129504472D01*
X46502853Y-129504488D01*
X46820343Y-130273341D01*
X46820334Y-130282296D01*
X46813995Y-130288621D01*
X46812891Y-130289014D01*
X46112950Y-130499007D01*
X46109588Y-130499500D01*
X45726120Y-130499500D01*
X45649698Y-130519977D01*
X45588028Y-130555583D01*
X45588027Y-130555582D01*
X45581178Y-130559537D01*
X45581172Y-130559541D01*
X45441817Y-130698894D01*
X45436906Y-130701827D01*
X45291407Y-130745480D01*
X45282498Y-130744576D01*
X45276839Y-130737636D01*
X45276345Y-130734274D01*
X45276345Y-130551818D01*
X45276898Y-130548265D01*
X45292441Y-130499500D01*
X45710838Y-129186838D01*
X45716615Y-129179998D01*
X45725538Y-129179246D01*
X45726451Y-129179579D01*
G37*
%TD.AperFunction*%
%TD*%
%TA.AperFunction,Conductor*%
%TO.N,NRF_MISO*%
G36*
X46959335Y-125412818D02*
G01*
X47092470Y-125545953D01*
X47094846Y-125549379D01*
X47346639Y-126102616D01*
X47346947Y-126111566D01*
X47344263Y-126115736D01*
X46509110Y-126950889D01*
X46500837Y-126954316D01*
X46492564Y-126950889D01*
X46491281Y-126949367D01*
X45905167Y-126119810D01*
X45903192Y-126111076D01*
X45907972Y-126103503D01*
X45908189Y-126103353D01*
X46944565Y-125411360D01*
X46953348Y-125409617D01*
X46959335Y-125412818D01*
G37*
%TD.AperFunction*%
%TD*%
%TA.AperFunction,Conductor*%
%TO.N,NRF_MISO*%
G36*
X64703781Y-121331530D02*
G01*
X64705609Y-121340296D01*
X64703781Y-121344708D01*
X64317348Y-121911722D01*
X64313377Y-121915353D01*
X64196656Y-121980415D01*
X64187761Y-121981449D01*
X64182686Y-121978468D01*
X64053764Y-121849546D01*
X64050337Y-121841273D01*
X64051815Y-121835581D01*
X64116881Y-121718852D01*
X64120508Y-121714885D01*
X64687526Y-121328450D01*
X64696290Y-121326623D01*
X64703781Y-121331530D01*
G37*
%TD.AperFunction*%
%TD*%
%TA.AperFunction,Conductor*%
%TO.N,NRF_MOSI*%
G36*
X65057334Y-121685083D02*
G01*
X65059162Y-121693849D01*
X65057334Y-121698261D01*
X64670901Y-122265275D01*
X64666930Y-122268906D01*
X64550209Y-122333968D01*
X64541314Y-122335002D01*
X64536239Y-122332021D01*
X64407317Y-122203099D01*
X64403890Y-122194826D01*
X64405368Y-122189134D01*
X64470434Y-122072405D01*
X64474061Y-122068438D01*
X65041079Y-121682003D01*
X65049843Y-121680176D01*
X65057334Y-121685083D01*
G37*
%TD.AperFunction*%
%TD*%
%TA.AperFunction,Conductor*%
%TO.N,NRF_MOSI*%
G36*
X45093437Y-128230129D02*
G01*
X45096490Y-128232327D01*
X45227672Y-128363509D01*
X45231099Y-128371782D01*
X45230494Y-128375495D01*
X44749275Y-129813396D01*
X44743400Y-129820154D01*
X44734467Y-129820778D01*
X44733714Y-129820497D01*
X43963785Y-129502562D01*
X43957447Y-129496238D01*
X43639502Y-128726284D01*
X43639511Y-128717330D01*
X43645850Y-128711005D01*
X43646581Y-128710731D01*
X43824749Y-128651104D01*
X43828462Y-128650500D01*
X44439564Y-128650500D01*
X44439564Y-128650499D01*
X44477775Y-128640260D01*
X44515987Y-128630022D01*
X44515991Y-128630020D01*
X44538829Y-128616834D01*
X44584511Y-128590460D01*
X44640460Y-128534511D01*
X44873584Y-128301386D01*
X44878132Y-128298571D01*
X45084506Y-128229505D01*
X45093437Y-128230129D01*
G37*
%TD.AperFunction*%
%TD*%
%TA.AperFunction,Conductor*%
%TO.N,Net-(D1-A)*%
G36*
X77684858Y-99770374D02*
G01*
X78008061Y-100192891D01*
X78010366Y-100201545D01*
X78008061Y-100207109D01*
X77684858Y-100629625D01*
X77677110Y-100634114D01*
X77670077Y-100632849D01*
X77143712Y-100353299D01*
X77138013Y-100346392D01*
X77137500Y-100342966D01*
X77137500Y-100057033D01*
X77140927Y-100048760D01*
X77143707Y-100046702D01*
X77670080Y-99767149D01*
X77678991Y-99766296D01*
X77684858Y-99770374D01*
G37*
%TD.AperFunction*%
%TD*%
%TA.AperFunction,Conductor*%
%TO.N,Net-(D1-K)*%
G36*
X79594862Y-100204965D02*
G01*
X79908466Y-100459039D01*
X80001207Y-100534176D01*
X80005478Y-100542047D01*
X80004418Y-100548270D01*
X79740668Y-101105803D01*
X79734033Y-101111816D01*
X79730092Y-101112500D01*
X79444908Y-101112500D01*
X79436635Y-101109073D01*
X79434332Y-101105803D01*
X79170581Y-100548270D01*
X79170141Y-100539326D01*
X79173791Y-100534177D01*
X79580136Y-100204965D01*
X79588720Y-100202421D01*
X79594862Y-100204965D01*
G37*
%TD.AperFunction*%
%TD*%
%TA.AperFunction,Conductor*%
%TO.N,/P2110B_VOUT*%
G36*
X91323019Y-124563427D02*
G01*
X91326345Y-124570165D01*
X91548250Y-126246780D01*
X91545938Y-126255431D01*
X91538186Y-126259914D01*
X91536665Y-126260015D01*
X90700014Y-126260999D01*
X90699986Y-126260999D01*
X89863334Y-126260015D01*
X89855065Y-126256578D01*
X89851648Y-126248301D01*
X89851748Y-126246790D01*
X90073655Y-124570165D01*
X90078138Y-124562413D01*
X90085254Y-124560000D01*
X91314746Y-124560000D01*
X91323019Y-124563427D01*
G37*
%TD.AperFunction*%
%TD*%
%TA.AperFunction,Conductor*%
%TO.N,GND*%
G36*
X66192396Y-127597938D02*
G01*
X66200009Y-127602651D01*
X66202061Y-127607604D01*
X66288481Y-128137910D01*
X66286429Y-128146627D01*
X66282041Y-128150318D01*
X65747873Y-128409536D01*
X65738934Y-128410065D01*
X65734492Y-128407283D01*
X65392716Y-128065507D01*
X65389289Y-128057234D01*
X65390461Y-128052130D01*
X65649681Y-127517957D01*
X65656375Y-127512012D01*
X65662084Y-127511519D01*
X66192396Y-127597938D01*
G37*
%TD.AperFunction*%
%TD*%
%TA.AperFunction,Conductor*%
%TO.N,GND*%
G36*
X65725372Y-127735424D02*
G01*
X66064575Y-128074627D01*
X66068002Y-128082900D01*
X66065662Y-128089920D01*
X65655557Y-128636726D01*
X65647852Y-128641288D01*
X65639177Y-128639066D01*
X65637953Y-128638007D01*
X65399293Y-128400707D01*
X65161995Y-128162049D01*
X65158593Y-128153769D01*
X65162044Y-128145505D01*
X65163264Y-128144449D01*
X65710080Y-127734336D01*
X65718754Y-127732115D01*
X65725372Y-127735424D01*
G37*
%TD.AperFunction*%
%TD*%
%TA.AperFunction,Conductor*%
%TO.N,GND*%
G36*
X67885762Y-124513511D02*
G01*
X67887590Y-124522277D01*
X67885762Y-124526689D01*
X67499329Y-125093703D01*
X67495358Y-125097334D01*
X67378637Y-125162396D01*
X67369742Y-125163430D01*
X67364667Y-125160449D01*
X67235745Y-125031527D01*
X67232318Y-125023254D01*
X67233796Y-125017562D01*
X67298862Y-124900833D01*
X67302489Y-124896866D01*
X67869507Y-124510431D01*
X67878271Y-124508604D01*
X67885762Y-124513511D01*
G37*
%TD.AperFunction*%
%TD*%
%TA.AperFunction,Conductor*%
%TO.N,GND*%
G36*
X65902738Y-126842287D02*
G01*
X66261764Y-127052353D01*
X66267174Y-127059488D01*
X66267464Y-127063909D01*
X66201480Y-127589214D01*
X66197049Y-127596996D01*
X66188413Y-127599365D01*
X66188238Y-127599342D01*
X65661626Y-127525125D01*
X65653912Y-127520577D01*
X65651589Y-127512698D01*
X65699218Y-126851544D01*
X65703231Y-126843539D01*
X65710888Y-126840685D01*
X65896829Y-126840685D01*
X65902738Y-126842287D01*
G37*
%TD.AperFunction*%
%TD*%
%TA.AperFunction,Conductor*%
%TO.N,VDD*%
G36*
X68239315Y-124867064D02*
G01*
X68241143Y-124875830D01*
X68239315Y-124880242D01*
X67852882Y-125447256D01*
X67848911Y-125450887D01*
X67732190Y-125515949D01*
X67723295Y-125516983D01*
X67718220Y-125514002D01*
X67589298Y-125385080D01*
X67585871Y-125376807D01*
X67587349Y-125371115D01*
X67652415Y-125254386D01*
X67656042Y-125250419D01*
X68223060Y-124863984D01*
X68231824Y-124862157D01*
X68239315Y-124867064D01*
G37*
%TD.AperFunction*%
%TD*%
%TA.AperFunction,Conductor*%
%TO.N,VDD*%
G36*
X67453258Y-125525329D02*
G01*
X67454413Y-125526342D01*
X67584275Y-125656204D01*
X67587235Y-125661205D01*
X67788637Y-126352657D01*
X67787661Y-126361558D01*
X67780676Y-126367162D01*
X67780594Y-126367186D01*
X67300624Y-126503184D01*
X67291730Y-126502142D01*
X67290768Y-126501542D01*
X66908676Y-126236649D01*
X66903829Y-126229119D01*
X66905727Y-126220368D01*
X66906031Y-126219949D01*
X67436855Y-125527496D01*
X67444607Y-125523016D01*
X67453258Y-125525329D01*
G37*
%TD.AperFunction*%
%TD*%
%TA.AperFunction,Conductor*%
%TO.N,VDD*%
G36*
X67793182Y-126365502D02*
G01*
X67795853Y-126367546D01*
X67925800Y-126500718D01*
X68254364Y-126837439D01*
X68257689Y-126845753D01*
X68254263Y-126853883D01*
X67913491Y-127194655D01*
X67905218Y-127198082D01*
X67902538Y-127197771D01*
X67335162Y-127064284D01*
X67327894Y-127059054D01*
X67326160Y-127053550D01*
X67314507Y-126845711D01*
X67295833Y-126512627D01*
X67298792Y-126504176D01*
X67304317Y-126500719D01*
X67784290Y-126364465D01*
X67793182Y-126365502D01*
G37*
%TD.AperFunction*%
%TD*%
%TA.AperFunction,Conductor*%
%TO.N,/USER_LED*%
G36*
X65126318Y-130828427D02*
G01*
X65128323Y-130831109D01*
X65405403Y-131340426D01*
X65406346Y-131349331D01*
X65403029Y-131354644D01*
X65032904Y-131693758D01*
X65024489Y-131696820D01*
X65017096Y-131693758D01*
X64646970Y-131354644D01*
X64643185Y-131346528D01*
X64644596Y-131340426D01*
X64921677Y-130831109D01*
X64928641Y-130825479D01*
X64931955Y-130825000D01*
X65118045Y-130825000D01*
X65126318Y-130828427D01*
G37*
%TD.AperFunction*%
%TD*%
%TA.AperFunction,Conductor*%
%TO.N,/USER_LED*%
G36*
X67530575Y-124161070D02*
G01*
X67532403Y-124169836D01*
X67530500Y-124174357D01*
X67139684Y-124734055D01*
X67135676Y-124737638D01*
X67017759Y-124801692D01*
X67008853Y-124802630D01*
X67003901Y-124799684D01*
X66875373Y-124671156D01*
X66871946Y-124662883D01*
X66873845Y-124656492D01*
X66945376Y-124546824D01*
X66948583Y-124543552D01*
X67514319Y-124157990D01*
X67523084Y-124156163D01*
X67530575Y-124161070D01*
G37*
%TD.AperFunction*%
%TD*%
%TA.AperFunction,Conductor*%
%TO.N,Net-(D2-K)*%
G36*
X59950791Y-135538427D02*
G01*
X59953139Y-135541792D01*
X60580193Y-136898674D01*
X60580553Y-136907621D01*
X60574480Y-136914203D01*
X60574061Y-136914387D01*
X59804489Y-137234134D01*
X59795534Y-137234143D01*
X59795511Y-137234134D01*
X59025938Y-136914387D01*
X59019613Y-136908048D01*
X59019622Y-136899093D01*
X59019806Y-136898674D01*
X59646861Y-135541792D01*
X59653443Y-135535719D01*
X59657482Y-135535000D01*
X59942518Y-135535000D01*
X59950791Y-135538427D01*
G37*
%TD.AperFunction*%
%TD*%
%TA.AperFunction,Conductor*%
%TO.N,Net-(D2-K)*%
G36*
X59219862Y-132404965D02*
G01*
X59533466Y-132659039D01*
X59626207Y-132734176D01*
X59630478Y-132742047D01*
X59629418Y-132748270D01*
X59365668Y-133305803D01*
X59359033Y-133311816D01*
X59355092Y-133312500D01*
X59069908Y-133312500D01*
X59061635Y-133309073D01*
X59059332Y-133305803D01*
X58795581Y-132748270D01*
X58795141Y-132739326D01*
X58798791Y-132734177D01*
X59205136Y-132404965D01*
X59213720Y-132402421D01*
X59219862Y-132404965D01*
G37*
%TD.AperFunction*%
%TD*%
%TA.AperFunction,Conductor*%
%TO.N,Net-(D2-A)*%
G36*
X61416468Y-131634434D02*
G01*
X61419954Y-131636837D01*
X61550515Y-131767398D01*
X61553942Y-131775671D01*
X61553069Y-131780105D01*
X61229442Y-132570368D01*
X61223136Y-132576725D01*
X61214181Y-132576761D01*
X61214159Y-132576752D01*
X60791939Y-132402827D01*
X60785594Y-132396507D01*
X60785194Y-132395388D01*
X60646915Y-131935425D01*
X60647815Y-131926518D01*
X60653955Y-131921125D01*
X61407520Y-131634176D01*
X61416468Y-131634434D01*
G37*
%TD.AperFunction*%
%TD*%
%TA.AperFunction,Conductor*%
%TO.N,Net-(D2-A)*%
G36*
X63029384Y-131307671D02*
G01*
X63369155Y-131692253D01*
X63372065Y-131700722D01*
X63369155Y-131707747D01*
X63029384Y-132092328D01*
X63021338Y-132096259D01*
X63014102Y-132094300D01*
X62580186Y-131803475D01*
X62575222Y-131796022D01*
X62575000Y-131793756D01*
X62575000Y-131606243D01*
X62578427Y-131597970D01*
X62580186Y-131596524D01*
X63014104Y-131305698D01*
X63022882Y-131303940D01*
X63029384Y-131307671D01*
G37*
%TD.AperFunction*%
%TD*%
%TA.AperFunction,Conductor*%
%TO.N,GND*%
G36*
X77290798Y-121388506D02*
G01*
X77293962Y-121392289D01*
X77326482Y-121454102D01*
X77573283Y-121923224D01*
X77574103Y-121932141D01*
X77571202Y-121936944D01*
X77229836Y-122278310D01*
X77221563Y-122281737D01*
X77216116Y-122280391D01*
X76685182Y-122001071D01*
X76679455Y-121994187D01*
X76679018Y-121989276D01*
X76744614Y-121461888D01*
X76749036Y-121454102D01*
X76754779Y-121451722D01*
X77282166Y-121386126D01*
X77290798Y-121388506D01*
G37*
%TD.AperFunction*%
%TD*%
%TA.AperFunction,Conductor*%
%TO.N,GND*%
G36*
X77289920Y-121641445D02*
G01*
X77836726Y-122051550D01*
X77841288Y-122059255D01*
X77839066Y-122067930D01*
X77838003Y-122069159D01*
X77600755Y-122307767D01*
X77600707Y-122307815D01*
X77362051Y-122545111D01*
X77353769Y-122548514D01*
X77345505Y-122545063D01*
X77344442Y-122543834D01*
X76934337Y-121997028D01*
X76932115Y-121988353D01*
X76935423Y-121981737D01*
X77274628Y-121642531D01*
X77282900Y-121639105D01*
X77289920Y-121641445D01*
G37*
%TD.AperFunction*%
%TD*%
%TA.AperFunction,Conductor*%
%TO.N,GND*%
G36*
X75926687Y-119914236D02*
G01*
X76493703Y-120300670D01*
X76497334Y-120304641D01*
X76562396Y-120421363D01*
X76563430Y-120430257D01*
X76560449Y-120435332D01*
X76431527Y-120564254D01*
X76423254Y-120567681D01*
X76417559Y-120566201D01*
X76300836Y-120501139D01*
X76296865Y-120497508D01*
X76163777Y-120302228D01*
X75910431Y-119930493D01*
X75908604Y-119921728D01*
X75913511Y-119914237D01*
X75922277Y-119912409D01*
X75926687Y-119914236D01*
G37*
%TD.AperFunction*%
%TD*%
%TA.AperFunction,Conductor*%
%TO.N,GND*%
G36*
X76609016Y-120474225D02*
G01*
X76610203Y-120475614D01*
X76966686Y-120966197D01*
X77148203Y-121215996D01*
X77150294Y-121224703D01*
X77145616Y-121232339D01*
X77144429Y-121233097D01*
X76751667Y-121451747D01*
X76742772Y-121452777D01*
X76742253Y-121452616D01*
X76256301Y-121289524D01*
X76249548Y-121283643D01*
X76248870Y-121274901D01*
X76459874Y-120608679D01*
X76462752Y-120603943D01*
X76592471Y-120474224D01*
X76600743Y-120470798D01*
X76609016Y-120474225D01*
G37*
%TD.AperFunction*%
%TD*%
%TA.AperFunction,Conductor*%
%TO.N,VDD*%
G36*
X76280240Y-119560683D02*
G01*
X76847256Y-119947117D01*
X76850887Y-119951088D01*
X76915949Y-120067810D01*
X76916983Y-120076704D01*
X76914002Y-120081779D01*
X76785080Y-120210701D01*
X76776807Y-120214128D01*
X76771112Y-120212648D01*
X76654389Y-120147586D01*
X76650418Y-120143955D01*
X76517330Y-119948675D01*
X76263984Y-119576940D01*
X76262157Y-119568175D01*
X76267064Y-119560684D01*
X76275830Y-119558856D01*
X76280240Y-119560683D01*
G37*
%TD.AperFunction*%
%TD*%
%TA.AperFunction,Conductor*%
%TO.N,VDD*%
G36*
X77656032Y-119874649D02*
G01*
X77662125Y-119881147D01*
X77841316Y-120353362D01*
X77841047Y-120362313D01*
X77840771Y-120362885D01*
X77632229Y-120766412D01*
X77625386Y-120772188D01*
X77616463Y-120771434D01*
X77615534Y-120770898D01*
X76842763Y-120276469D01*
X76837641Y-120269124D01*
X76839214Y-120260308D01*
X76840791Y-120258346D01*
X76970137Y-120129000D01*
X76974300Y-120126320D01*
X77647082Y-119874341D01*
X77656032Y-119874649D01*
G37*
%TD.AperFunction*%
%TD*%
%TA.AperFunction,Conductor*%
%TO.N,GND*%
G36*
X73479092Y-110172123D02*
G01*
X73482746Y-110174599D01*
X73823983Y-110515836D01*
X73827410Y-110524109D01*
X73825365Y-110530717D01*
X73447736Y-111082483D01*
X73440236Y-111087375D01*
X73434886Y-111087130D01*
X72955008Y-110950903D01*
X72947985Y-110945347D01*
X72946555Y-110940741D01*
X72896873Y-110409694D01*
X72899514Y-110401138D01*
X72904184Y-110397739D01*
X73470139Y-110172005D01*
X73479092Y-110172123D01*
G37*
%TD.AperFunction*%
%TD*%
%TA.AperFunction,Conductor*%
%TO.N,GND*%
G36*
X73510822Y-110010933D02*
G01*
X73512045Y-110011991D01*
X73750707Y-110249293D01*
X73988003Y-110487949D01*
X73991406Y-110496230D01*
X73987955Y-110504494D01*
X73986726Y-110505557D01*
X73439920Y-110915662D01*
X73431245Y-110917884D01*
X73424627Y-110914575D01*
X73085424Y-110575372D01*
X73081997Y-110567099D01*
X73084336Y-110560080D01*
X73494443Y-110013271D01*
X73502147Y-110008711D01*
X73510822Y-110010933D01*
G37*
%TD.AperFunction*%
%TD*%
%TA.AperFunction,Conductor*%
%TO.N,GND*%
G36*
X71835332Y-111239550D02*
G01*
X71964254Y-111368472D01*
X71967681Y-111376745D01*
X71966201Y-111382442D01*
X71901139Y-111499163D01*
X71897508Y-111503134D01*
X71330494Y-111889567D01*
X71321728Y-111891395D01*
X71314237Y-111886488D01*
X71312409Y-111877722D01*
X71314235Y-111873313D01*
X71700671Y-111306294D01*
X71704638Y-111302667D01*
X71821365Y-111237602D01*
X71830257Y-111236569D01*
X71835332Y-111239550D01*
G37*
%TD.AperFunction*%
%TD*%
%TA.AperFunction,Conductor*%
%TO.N,GND*%
G36*
X72725312Y-110550345D02*
G01*
X72726102Y-110551566D01*
X72946187Y-110942807D01*
X72947257Y-110951697D01*
X72947105Y-110952197D01*
X72786720Y-111440027D01*
X72780880Y-111446816D01*
X72772160Y-111447554D01*
X72106439Y-111242417D01*
X72101611Y-111239509D01*
X71971846Y-111109744D01*
X71968419Y-111101471D01*
X71971846Y-111093198D01*
X71973149Y-111092075D01*
X72708949Y-110547894D01*
X72717637Y-110545731D01*
X72725312Y-110550345D01*
G37*
%TD.AperFunction*%
%TD*%
%TA.AperFunction,Conductor*%
%TO.N,VDD*%
G36*
X71856772Y-109853387D02*
G01*
X71857345Y-109853660D01*
X72262402Y-110060779D01*
X72268208Y-110067596D01*
X72267492Y-110076523D01*
X72266983Y-110077419D01*
X71778730Y-110854767D01*
X71771427Y-110859950D01*
X71762599Y-110858452D01*
X71760549Y-110856817D01*
X71631269Y-110727537D01*
X71628614Y-110723443D01*
X71381592Y-110077419D01*
X71370856Y-110049340D01*
X71371102Y-110040390D01*
X71377577Y-110034246D01*
X71847822Y-109853163D01*
X71856772Y-109853387D01*
G37*
%TD.AperFunction*%
%TD*%
%TA.AperFunction,Conductor*%
%TO.N,VDD*%
G36*
X71481779Y-110885997D02*
G01*
X71610701Y-111014919D01*
X71614128Y-111023192D01*
X71612648Y-111028889D01*
X71547586Y-111145610D01*
X71543955Y-111149581D01*
X70976941Y-111536014D01*
X70968175Y-111537842D01*
X70960684Y-111532935D01*
X70958856Y-111524169D01*
X70960682Y-111519760D01*
X71347118Y-110952741D01*
X71351085Y-110949114D01*
X71467812Y-110884049D01*
X71476704Y-110883016D01*
X71481779Y-110885997D01*
G37*
%TD.AperFunction*%
%TD*%
%TA.AperFunction,Conductor*%
%TO.N,/BOOT0*%
G36*
X72895993Y-112300211D02*
G01*
X73024915Y-112429133D01*
X73028342Y-112437406D01*
X73026862Y-112443103D01*
X72961800Y-112559824D01*
X72958169Y-112563795D01*
X72391155Y-112950228D01*
X72382389Y-112952056D01*
X72374898Y-112947149D01*
X72373070Y-112938383D01*
X72374896Y-112933974D01*
X72761332Y-112366955D01*
X72765299Y-112363328D01*
X72882026Y-112298263D01*
X72890918Y-112297230D01*
X72895993Y-112300211D01*
G37*
%TD.AperFunction*%
%TD*%
%TA.AperFunction,Conductor*%
%TO.N,Net-(D1-K)*%
G36*
X81814203Y-104725519D02*
G01*
X81814387Y-104725938D01*
X82134134Y-105495511D01*
X82134143Y-105504466D01*
X82134134Y-105504489D01*
X81814387Y-106274061D01*
X81808048Y-106280386D01*
X81799093Y-106280377D01*
X81798674Y-106280193D01*
X80441792Y-105653138D01*
X80435719Y-105646556D01*
X80435000Y-105642517D01*
X80435000Y-105357482D01*
X80438427Y-105349209D01*
X80441792Y-105346861D01*
X81798674Y-104719806D01*
X81807621Y-104719446D01*
X81814203Y-104725519D01*
G37*
%TD.AperFunction*%
%TD*%
%TA.AperFunction,Conductor*%
%TO.N,EXTRA_ADC_CHAN_2*%
G36*
X56208245Y-118007420D02*
G01*
X57196127Y-118896514D01*
X57199984Y-118904596D01*
X57200000Y-118905211D01*
X57200000Y-119094788D01*
X57196573Y-119103061D01*
X57196127Y-119103485D01*
X56208246Y-119992578D01*
X56199804Y-119995565D01*
X56192150Y-119992158D01*
X55207285Y-119008277D01*
X55203854Y-119000006D01*
X55207277Y-118991731D01*
X55207285Y-118991723D01*
X56192151Y-118007840D01*
X56200425Y-118004418D01*
X56208245Y-118007420D01*
G37*
%TD.AperFunction*%
%TD*%
%TA.AperFunction,Conductor*%
%TO.N,EXTRA_ADC_CHAN_2*%
G36*
X64788199Y-115139710D02*
G01*
X65355215Y-115526144D01*
X65358846Y-115530115D01*
X65423908Y-115646837D01*
X65424942Y-115655731D01*
X65421961Y-115660806D01*
X65293039Y-115789728D01*
X65284766Y-115793155D01*
X65279071Y-115791675D01*
X65162348Y-115726613D01*
X65158377Y-115722982D01*
X65025289Y-115527702D01*
X64771943Y-115155967D01*
X64770116Y-115147202D01*
X64775023Y-115139711D01*
X64783789Y-115137883D01*
X64788199Y-115139710D01*
G37*
%TD.AperFunction*%
%TD*%
%TA.AperFunction,Conductor*%
%TO.N,+3.3V*%
G36*
X66868495Y-91354144D02*
G01*
X66870287Y-91355706D01*
X67478565Y-92006257D01*
X67793528Y-92343109D01*
X67796675Y-92351493D01*
X67793528Y-92359091D01*
X66870290Y-93346490D01*
X66862137Y-93350192D01*
X66859761Y-93350030D01*
X65422217Y-93102771D01*
X65414644Y-93097991D01*
X65412500Y-93091240D01*
X65412500Y-91610959D01*
X65415927Y-91602686D01*
X65422215Y-91599428D01*
X66859762Y-91352169D01*
X66868495Y-91354144D01*
G37*
%TD.AperFunction*%
%TD*%
%TA.AperFunction,Conductor*%
%TO.N,+3.3V*%
G36*
X58032345Y-89550726D02*
G01*
X59708987Y-89649352D01*
X59717045Y-89653259D01*
X59720000Y-89661032D01*
X59720000Y-91138967D01*
X59716573Y-91147240D01*
X59708987Y-91150647D01*
X58032372Y-91249272D01*
X58023912Y-91246337D01*
X58020005Y-91238279D01*
X58019985Y-91237606D01*
X58019000Y-90400028D01*
X58019000Y-90400000D01*
X58019869Y-89661032D01*
X58019985Y-89562391D01*
X58023422Y-89554124D01*
X58031699Y-89550707D01*
X58032345Y-89550726D01*
G37*
%TD.AperFunction*%
%TD*%
%TA.AperFunction,Conductor*%
%TO.N,Net-(D1-A)*%
G36*
X74182902Y-97806240D02*
G01*
X74512200Y-98107947D01*
X74553547Y-98145830D01*
X74557332Y-98153946D01*
X74556318Y-98159245D01*
X74328100Y-98668088D01*
X74321588Y-98674234D01*
X74317425Y-98675000D01*
X74032575Y-98675000D01*
X74024302Y-98671573D01*
X74021900Y-98668088D01*
X73793681Y-98159245D01*
X73793422Y-98150294D01*
X73796450Y-98145832D01*
X74167097Y-97806240D01*
X74175511Y-97803179D01*
X74182902Y-97806240D01*
G37*
%TD.AperFunction*%
%TD*%
%TA.AperFunction,Conductor*%
%TO.N,PSENSE_MINUS*%
G36*
X49862553Y-104828914D02*
G01*
X49862814Y-104829569D01*
X50383991Y-106258118D01*
X50383608Y-106267065D01*
X50381273Y-106270401D01*
X50249373Y-106402301D01*
X50241100Y-106405728D01*
X50239201Y-106405573D01*
X49154498Y-106227162D01*
X49146891Y-106222438D01*
X49144700Y-106215893D01*
X49119478Y-105147159D01*
X49122709Y-105138809D01*
X49126508Y-105136155D01*
X49847160Y-104822848D01*
X49856112Y-104822693D01*
X49862553Y-104828914D01*
G37*
%TD.AperFunction*%
%TD*%
%TA.AperFunction,Conductor*%
%TO.N,PSENSE_MINUS*%
G36*
X49127377Y-105148475D02*
G01*
X49129081Y-105150179D01*
X49738885Y-105900871D01*
X49741442Y-105909453D01*
X49740311Y-105913395D01*
X49223210Y-106969036D01*
X49216493Y-106974958D01*
X49212703Y-106975589D01*
X49027297Y-106975589D01*
X49019024Y-106972162D01*
X49016790Y-106969036D01*
X48499688Y-105913395D01*
X48499126Y-105904458D01*
X48501111Y-105900875D01*
X49110919Y-105150178D01*
X49118795Y-105145918D01*
X49127377Y-105148475D01*
G37*
%TD.AperFunction*%
%TD*%
%TA.AperFunction,Conductor*%
%TO.N,PSENSE_MINUS*%
G36*
X65257312Y-113358922D02*
G01*
X65374038Y-113423987D01*
X65378008Y-113427617D01*
X65764440Y-113994630D01*
X65766268Y-114003396D01*
X65761361Y-114010887D01*
X65752595Y-114012715D01*
X65748183Y-114010887D01*
X65181170Y-113624454D01*
X65177539Y-113620482D01*
X65112478Y-113503761D01*
X65111444Y-113494867D01*
X65114423Y-113489794D01*
X65243347Y-113360870D01*
X65251619Y-113357444D01*
X65257312Y-113358922D01*
G37*
%TD.AperFunction*%
%TD*%
%TA.AperFunction,Conductor*%
%TO.N,PSENSE_PLUS*%
G36*
X64903759Y-113712475D02*
G01*
X65020485Y-113777540D01*
X65024455Y-113781170D01*
X65410887Y-114348183D01*
X65412715Y-114356949D01*
X65407808Y-114364440D01*
X65399042Y-114366268D01*
X65394630Y-114364440D01*
X64827617Y-113978007D01*
X64823986Y-113974035D01*
X64758925Y-113857314D01*
X64757891Y-113848420D01*
X64760870Y-113843347D01*
X64889794Y-113714423D01*
X64898066Y-113710997D01*
X64903759Y-113712475D01*
G37*
%TD.AperFunction*%
%TD*%
%TA.AperFunction,Conductor*%
%TO.N,PSENSE_PLUS*%
G36*
X47707921Y-111396465D02*
G01*
X47709373Y-111397698D01*
X47841297Y-111529622D01*
X47844724Y-111537895D01*
X47844032Y-111541859D01*
X47333495Y-112959779D01*
X47327468Y-112966402D01*
X47318523Y-112966823D01*
X47318010Y-112966625D01*
X46586702Y-112663775D01*
X46580370Y-112657443D01*
X46579482Y-112652689D01*
X46604700Y-111584106D01*
X46608321Y-111575916D01*
X46614497Y-111572837D01*
X47699202Y-111394426D01*
X47707921Y-111396465D01*
G37*
%TD.AperFunction*%
%TD*%
%TA.AperFunction,Conductor*%
%TO.N,Net-(JP5-B)*%
G36*
X83384915Y-137418585D02*
G01*
X83390478Y-137423394D01*
X83942122Y-138347228D01*
X83943777Y-138353226D01*
X83943777Y-138835819D01*
X83940350Y-138844092D01*
X83932077Y-138847519D01*
X83929854Y-138847306D01*
X82609465Y-138591831D01*
X82601994Y-138586895D01*
X82599988Y-138580360D01*
X82599009Y-137747830D01*
X82602426Y-137739554D01*
X82606233Y-137737007D01*
X83375962Y-137418581D01*
X83384915Y-137418585D01*
G37*
%TD.AperFunction*%
%TD*%
%TA.AperFunction,Conductor*%
%TO.N,Net-(JP5-B)*%
G36*
X116704684Y-133669927D02*
G01*
X116706416Y-133672134D01*
X117084143Y-134295140D01*
X117085502Y-134303991D01*
X117083876Y-134307691D01*
X116462738Y-135240377D01*
X116455300Y-135245364D01*
X116446515Y-135243630D01*
X116443262Y-135240377D01*
X115822123Y-134307691D01*
X115820389Y-134298906D01*
X115821856Y-134295140D01*
X116199584Y-133672134D01*
X116206804Y-133666836D01*
X116209589Y-133666500D01*
X116696411Y-133666500D01*
X116704684Y-133669927D01*
G37*
%TD.AperFunction*%
%TD*%
%TA.AperFunction,Conductor*%
%TO.N,P2110B_RESET*%
G36*
X72400953Y-123457266D02*
G01*
X72957949Y-123836058D01*
X72961818Y-123840467D01*
X72981386Y-123879290D01*
X72982638Y-123884556D01*
X72982638Y-124064157D01*
X72979211Y-124072430D01*
X72970938Y-124075857D01*
X72966400Y-124074941D01*
X72798110Y-124004122D01*
X72793403Y-124000509D01*
X72385129Y-123474112D01*
X72382766Y-123465474D01*
X72387203Y-123457696D01*
X72395841Y-123455333D01*
X72400953Y-123457266D01*
G37*
%TD.AperFunction*%
%TD*%
%TA.AperFunction,Conductor*%
%TO.N,P2110B_RESET*%
G36*
X81757770Y-134357761D02*
G01*
X82399632Y-134998868D01*
X82592712Y-135191722D01*
X82596144Y-135199993D01*
X82592722Y-135208268D01*
X82592712Y-135208278D01*
X81757772Y-136042237D01*
X81749497Y-136045659D01*
X81741763Y-136042732D01*
X80903959Y-135303493D01*
X80900023Y-135295450D01*
X80900000Y-135294720D01*
X80900000Y-135105279D01*
X80903427Y-135097006D01*
X80903945Y-135096518D01*
X81741764Y-134357266D01*
X81750234Y-134354363D01*
X81757770Y-134357761D01*
G37*
%TD.AperFunction*%
%TD*%
%TA.AperFunction,Conductor*%
%TO.N,Net-(JP10-A)*%
G36*
X88960822Y-120560933D02*
G01*
X88962045Y-120561991D01*
X89200707Y-120799293D01*
X89438003Y-121037949D01*
X89441406Y-121046230D01*
X89437955Y-121054494D01*
X89436726Y-121055557D01*
X88889920Y-121465662D01*
X88881245Y-121467884D01*
X88874627Y-121464575D01*
X88535424Y-121125372D01*
X88531997Y-121117099D01*
X88534336Y-121110080D01*
X88944443Y-120563271D01*
X88952147Y-120558711D01*
X88960822Y-120560933D01*
G37*
%TD.AperFunction*%
%TD*%
%TA.AperFunction,Conductor*%
%TO.N,Net-(JP10-A)*%
G36*
X83458044Y-129155678D02*
G01*
X84295047Y-129746504D01*
X84299830Y-129754074D01*
X84300000Y-129756062D01*
X84300000Y-130243937D01*
X84296573Y-130252210D01*
X84295047Y-130253496D01*
X83458046Y-130844320D01*
X83449311Y-130846291D01*
X83443031Y-130843039D01*
X82852794Y-130253496D01*
X82607286Y-130008276D01*
X82603855Y-130000007D01*
X82607276Y-129991733D01*
X83443032Y-129156959D01*
X83451306Y-129153538D01*
X83458044Y-129155678D01*
G37*
%TD.AperFunction*%
%TD*%
%TA.AperFunction,Conductor*%
%TO.N,Net-(JP10-A)*%
G36*
X108112048Y-119713499D02*
G01*
X108112521Y-119714000D01*
X108656033Y-120325655D01*
X108658967Y-120334116D01*
X108657813Y-120338535D01*
X108207628Y-121266321D01*
X108200934Y-121272268D01*
X108191994Y-121271739D01*
X108187368Y-121267705D01*
X108186445Y-121266321D01*
X107567393Y-120338088D01*
X107565655Y-120329304D01*
X107567483Y-120324974D01*
X107750120Y-120059156D01*
X107751480Y-120057521D01*
X108095503Y-119713498D01*
X108103775Y-119710072D01*
X108112048Y-119713499D01*
G37*
%TD.AperFunction*%
%TD*%
%TA.AperFunction,Conductor*%
%TO.N,Net-(JP10-A)*%
G36*
X92213311Y-120451901D02*
G01*
X92889955Y-120548565D01*
X92897660Y-120553127D01*
X92900000Y-120560147D01*
X92900000Y-121039853D01*
X92896573Y-121048126D01*
X92889955Y-121051435D01*
X92213316Y-121148097D01*
X92204641Y-121145875D01*
X92200079Y-121138170D01*
X92199961Y-121136556D01*
X92199000Y-120800000D01*
X92199961Y-120463449D01*
X92203412Y-120455187D01*
X92211694Y-120451784D01*
X92213311Y-120451901D01*
G37*
%TD.AperFunction*%
%TD*%
%TA.AperFunction,Conductor*%
%TO.N,NRF_MOSI*%
G36*
X66503062Y-138203427D02*
G01*
X66503486Y-138203873D01*
X67392578Y-139191753D01*
X67395565Y-139200195D01*
X67392158Y-139207849D01*
X66408277Y-140192714D01*
X66400006Y-140196145D01*
X66391731Y-140192722D01*
X66391723Y-140192714D01*
X65407841Y-139207849D01*
X65404418Y-139199574D01*
X65407420Y-139191755D01*
X66296514Y-138203872D01*
X66304596Y-138200016D01*
X66305211Y-138200000D01*
X66494789Y-138200000D01*
X66503062Y-138203427D01*
G37*
%TD.AperFunction*%
%TD*%
%TA.AperFunction,Conductor*%
%TO.N,NRF_MISO*%
G36*
X70503062Y-138203427D02*
G01*
X70503486Y-138203873D01*
X71392578Y-139191753D01*
X71395565Y-139200195D01*
X71392158Y-139207849D01*
X70408277Y-140192714D01*
X70400006Y-140196145D01*
X70391731Y-140192722D01*
X70391723Y-140192714D01*
X69407841Y-139207849D01*
X69404418Y-139199574D01*
X69407420Y-139191755D01*
X70296514Y-138203872D01*
X70304596Y-138200016D01*
X70305211Y-138200000D01*
X70494789Y-138200000D01*
X70503062Y-138203427D01*
G37*
%TD.AperFunction*%
%TD*%
%TA.AperFunction,Conductor*%
%TO.N,NRF_MOSI*%
G36*
X65712787Y-120949041D02*
G01*
X65713998Y-120954225D01*
X65713998Y-121135195D01*
X65713992Y-121135576D01*
X65711247Y-121219903D01*
X65707553Y-121228060D01*
X65706132Y-121229197D01*
X65142575Y-121612451D01*
X65133807Y-121614269D01*
X65126321Y-121609355D01*
X65124503Y-121600587D01*
X65126384Y-121596106D01*
X65515926Y-121034918D01*
X65520347Y-121031106D01*
X65697116Y-120943735D01*
X65706049Y-120943143D01*
X65712787Y-120949041D01*
G37*
%TD.AperFunction*%
%TD*%
%TA.AperFunction,Conductor*%
%TO.N,NRF_CE*%
G36*
X60103062Y-127203427D02*
G01*
X60103486Y-127203873D01*
X60992578Y-128191753D01*
X60995565Y-128200195D01*
X60992158Y-128207849D01*
X60008277Y-129192714D01*
X60000006Y-129196145D01*
X59991731Y-129192722D01*
X59991723Y-129192714D01*
X59007841Y-128207849D01*
X59004418Y-128199574D01*
X59007420Y-128191755D01*
X59896514Y-127203872D01*
X59904596Y-127200016D01*
X59905211Y-127200000D01*
X60094789Y-127200000D01*
X60103062Y-127203427D01*
G37*
%TD.AperFunction*%
%TD*%
%TA.AperFunction,Conductor*%
%TO.N,PSENSE_PLUS*%
G36*
X46586551Y-112663429D02*
G01*
X47308034Y-113151210D01*
X47312968Y-113158683D01*
X47312480Y-113164891D01*
X46832796Y-114487877D01*
X46826755Y-114494487D01*
X46821797Y-114495589D01*
X46338203Y-114495589D01*
X46329930Y-114492162D01*
X46327204Y-114487877D01*
X45847519Y-113164891D01*
X45847920Y-113155945D01*
X45851963Y-113151212D01*
X46573447Y-112663429D01*
X46582220Y-112661636D01*
X46586551Y-112663429D01*
G37*
%TD.AperFunction*%
%TD*%
%TA.AperFunction,Conductor*%
%TO.N,/RFIN*%
G36*
X110484139Y-137318027D02*
G01*
X110486833Y-137322224D01*
X110854209Y-138310722D01*
X110854334Y-138318521D01*
X109885877Y-141204188D01*
X109879996Y-141210940D01*
X109871062Y-141211557D01*
X109864310Y-141205676D01*
X109863738Y-141204319D01*
X109863692Y-141204188D01*
X108856969Y-138318504D01*
X108857001Y-138310707D01*
X109211221Y-137322352D01*
X109217238Y-137315721D01*
X109222235Y-137314600D01*
X110475866Y-137314600D01*
X110484139Y-137318027D01*
G37*
%TD.AperFunction*%
%TD*%
%TA.AperFunction,Conductor*%
%TO.N,Net-(JP11-A)*%
G36*
X101106061Y-99311575D02*
G01*
X101110007Y-99315521D01*
X102096655Y-100944479D01*
X102098010Y-100953330D01*
X102097113Y-100955772D01*
X101603234Y-101943532D01*
X101596469Y-101949400D01*
X101592769Y-101950000D01*
X100607231Y-101950000D01*
X100598958Y-101946573D01*
X100596766Y-101943532D01*
X100102886Y-100955772D01*
X100102251Y-100946840D01*
X100103344Y-100944479D01*
X101089993Y-99315521D01*
X101097210Y-99310220D01*
X101106061Y-99311575D01*
G37*
%TD.AperFunction*%
%TD*%
%TA.AperFunction,Conductor*%
%TO.N,Net-(JP11-A)*%
G36*
X122551747Y-117877986D02*
G01*
X122555513Y-117880506D01*
X122897424Y-118222016D01*
X123392712Y-118716722D01*
X123396144Y-118724993D01*
X123392722Y-118733268D01*
X123392712Y-118733278D01*
X122555515Y-119569491D01*
X122547240Y-119572913D01*
X122542792Y-119572032D01*
X121707245Y-119227983D01*
X121700900Y-119221664D01*
X121700000Y-119217164D01*
X121700000Y-118232835D01*
X121703427Y-118224562D01*
X121707242Y-118222017D01*
X122542794Y-117877967D01*
X122551747Y-117877986D01*
G37*
%TD.AperFunction*%
%TD*%
%TA.AperFunction,Conductor*%
%TO.N,P2110B_INT*%
G36*
X72037598Y-123803324D02*
G01*
X72604614Y-124189758D01*
X72608245Y-124193729D01*
X72673307Y-124310451D01*
X72674341Y-124319345D01*
X72671360Y-124324420D01*
X72542438Y-124453342D01*
X72534165Y-124456769D01*
X72528470Y-124455289D01*
X72411747Y-124390227D01*
X72407776Y-124386596D01*
X72274688Y-124191316D01*
X72021342Y-123819581D01*
X72019515Y-123810816D01*
X72024422Y-123803325D01*
X72033188Y-123801497D01*
X72037598Y-123803324D01*
G37*
%TD.AperFunction*%
%TD*%
%TA.AperFunction,Conductor*%
%TO.N,P2110B_INT*%
G36*
X75102993Y-128503427D02*
G01*
X75103493Y-128503959D01*
X75842732Y-129341763D01*
X75845636Y-129350234D01*
X75842237Y-129357772D01*
X75008278Y-130192712D01*
X75000007Y-130196144D01*
X74991732Y-130192722D01*
X74991722Y-130192712D01*
X74798868Y-129999632D01*
X74157761Y-129357770D01*
X74154340Y-129349497D01*
X74157266Y-129341764D01*
X74896507Y-128503959D01*
X74904550Y-128500023D01*
X74905280Y-128500000D01*
X75094720Y-128500000D01*
X75102993Y-128503427D01*
G37*
%TD.AperFunction*%
%TD*%
%TA.AperFunction,Conductor*%
%TO.N,P2110B_DSET*%
G36*
X71692132Y-124167110D02*
G01*
X72218528Y-124575384D01*
X72222141Y-124580091D01*
X72273462Y-124702045D01*
X72289404Y-124739929D01*
X72292961Y-124748380D01*
X72293011Y-124757334D01*
X72286715Y-124763702D01*
X72282177Y-124764618D01*
X72102576Y-124764618D01*
X72097310Y-124763366D01*
X72058487Y-124743798D01*
X72054078Y-124739929D01*
X71945378Y-124580091D01*
X71675285Y-124182932D01*
X71673468Y-124174166D01*
X71678382Y-124166680D01*
X71687150Y-124164862D01*
X71692132Y-124167110D01*
G37*
%TD.AperFunction*%
%TD*%
%TA.AperFunction,Conductor*%
%TO.N,P2110B_DSET*%
G36*
X73626775Y-136281004D02*
G01*
X75340932Y-136945676D01*
X75347407Y-136951862D01*
X75347611Y-136960815D01*
X75347516Y-136961052D01*
X75002562Y-137796215D01*
X74996236Y-137802553D01*
X74996215Y-137802562D01*
X74161052Y-138147516D01*
X74152097Y-138147507D01*
X74145771Y-138141169D01*
X74145692Y-138140972D01*
X73481005Y-136426777D01*
X73481209Y-136417827D01*
X73483638Y-136414280D01*
X73614278Y-136283640D01*
X73622550Y-136280214D01*
X73626775Y-136281004D01*
G37*
%TD.AperFunction*%
%TD*%
%TA.AperFunction,Conductor*%
%TO.N,/NRST*%
G36*
X53907688Y-95856590D02*
G01*
X54104324Y-96025134D01*
X54595914Y-96446498D01*
X54599966Y-96454483D01*
X54600000Y-96455380D01*
X54600000Y-96644619D01*
X54596573Y-96652892D01*
X54595914Y-96653502D01*
X53907688Y-97243409D01*
X53899177Y-97246192D01*
X53892375Y-97243336D01*
X53109081Y-96558810D01*
X53105106Y-96550786D01*
X53107970Y-96542301D01*
X53109081Y-96541190D01*
X53208299Y-96454483D01*
X53892376Y-95856662D01*
X53900859Y-95853799D01*
X53907688Y-95856590D01*
G37*
%TD.AperFunction*%
%TD*%
%TA.AperFunction,Conductor*%
%TO.N,GND*%
G36*
X44303072Y-100352845D02*
G01*
X44304412Y-100353856D01*
X45090724Y-101041020D01*
X45094699Y-101049043D01*
X45091835Y-101057528D01*
X45090556Y-101058783D01*
X44304942Y-101719549D01*
X44296405Y-101722252D01*
X44293849Y-101721740D01*
X43608138Y-101502600D01*
X43601301Y-101496817D01*
X43600000Y-101491455D01*
X43600000Y-100509458D01*
X43603427Y-100501185D01*
X43609247Y-100498018D01*
X44294266Y-100351228D01*
X44303072Y-100352845D01*
G37*
%TD.AperFunction*%
%TD*%
%TA.AperFunction,Conductor*%
%TO.N,GND*%
G36*
X53906114Y-100351747D02*
G01*
X54591514Y-100547575D01*
X54598528Y-100553143D01*
X54600000Y-100558825D01*
X54600000Y-101541174D01*
X54596573Y-101549447D01*
X54591514Y-101552424D01*
X53906120Y-101748251D01*
X53897224Y-101747229D01*
X53895207Y-101745811D01*
X53109081Y-101058810D01*
X53105106Y-101050786D01*
X53107970Y-101042301D01*
X53109081Y-101041190D01*
X53895208Y-100354187D01*
X53903691Y-100351324D01*
X53906114Y-100351747D01*
G37*
%TD.AperFunction*%
%TD*%
%TA.AperFunction,Conductor*%
%TO.N,/NRST*%
G36*
X52307624Y-95856663D02*
G01*
X53090918Y-96541190D01*
X53094893Y-96549215D01*
X53092029Y-96557699D01*
X53090918Y-96558810D01*
X52307624Y-97243336D01*
X52299139Y-97246200D01*
X52292311Y-97243409D01*
X51604086Y-96653502D01*
X51600034Y-96645516D01*
X51600000Y-96644619D01*
X51600000Y-96455380D01*
X51603427Y-96447107D01*
X51604075Y-96446506D01*
X52292312Y-95856589D01*
X52300822Y-95853807D01*
X52307624Y-95856663D01*
G37*
%TD.AperFunction*%
%TD*%
%TA.AperFunction,Conductor*%
%TO.N,/NRST*%
G36*
X45907688Y-95856590D02*
G01*
X46104324Y-96025134D01*
X46595914Y-96446498D01*
X46599966Y-96454483D01*
X46600000Y-96455380D01*
X46600000Y-96644619D01*
X46596573Y-96652892D01*
X46595914Y-96653502D01*
X45907688Y-97243409D01*
X45899177Y-97246192D01*
X45892375Y-97243336D01*
X45109081Y-96558810D01*
X45105106Y-96550786D01*
X45107970Y-96542301D01*
X45109081Y-96541190D01*
X45208299Y-96454483D01*
X45892376Y-95856662D01*
X45900859Y-95853799D01*
X45907688Y-95856590D01*
G37*
%TD.AperFunction*%
%TD*%
%TA.AperFunction,Conductor*%
%TO.N,PSENSE_PLUS*%
G36*
X48608166Y-115308166D02*
G01*
X49592355Y-116292355D01*
X49595782Y-116300628D01*
X49592355Y-116308901D01*
X49592277Y-116308979D01*
X48607052Y-117275780D01*
X48598747Y-117279128D01*
X48591996Y-117276906D01*
X47448983Y-116449467D01*
X47444291Y-116441840D01*
X47446367Y-116433129D01*
X47447565Y-116431723D01*
X47791421Y-116087868D01*
X48591729Y-115308058D01*
X48600045Y-115304740D01*
X48608166Y-115308166D01*
G37*
%TD.AperFunction*%
%TD*%
%TA.AperFunction,Conductor*%
%TO.N,GND*%
G36*
X115000707Y-140699293D02*
G01*
X115172208Y-141115746D01*
X114457108Y-141388545D01*
X114103555Y-141034992D01*
X114681802Y-140381802D01*
X115000707Y-140699293D01*
G37*
%TD.AperFunction*%
%TD*%
%TA.AperFunction,Conductor*%
%TO.N,GND*%
G36*
X115318198Y-141781802D02*
G01*
X115000707Y-142100707D01*
X114584254Y-142272208D01*
X114259302Y-141591955D01*
X114612855Y-141238402D01*
X115318198Y-141781802D01*
G37*
%TD.AperFunction*%
%TD*%
%TA.AperFunction,Conductor*%
%TO.N,GND*%
G36*
X105646445Y-141034992D02*
G01*
X105292892Y-141388545D01*
X104577792Y-141115746D01*
X104749293Y-140699293D01*
X105068198Y-140381802D01*
X105646445Y-141034992D01*
G37*
%TD.AperFunction*%
%TD*%
%TA.AperFunction,Conductor*%
%TO.N,USART1_RX*%
G36*
X80485616Y-114038685D02*
G01*
X80869844Y-114196879D01*
X80876189Y-114203197D01*
X80876885Y-114205523D01*
X80963849Y-114665291D01*
X80962020Y-114674056D01*
X80956421Y-114678435D01*
X80298441Y-114922406D01*
X80289492Y-114922069D01*
X80286100Y-114919709D01*
X80155612Y-114789221D01*
X80152185Y-114780948D01*
X80153149Y-114776298D01*
X80470431Y-114044847D01*
X80476866Y-114038623D01*
X80485616Y-114038685D01*
G37*
%TD.AperFunction*%
%TD*%
%TA.AperFunction,Conductor*%
%TO.N,USART1_RX*%
G36*
X74512473Y-121328450D02*
G01*
X75079489Y-121714884D01*
X75083120Y-121718855D01*
X75148182Y-121835577D01*
X75149216Y-121844471D01*
X75146235Y-121849546D01*
X75017313Y-121978468D01*
X75009040Y-121981895D01*
X75003345Y-121980415D01*
X74886622Y-121915353D01*
X74882651Y-121911722D01*
X74749563Y-121716442D01*
X74496217Y-121344707D01*
X74494390Y-121335942D01*
X74499297Y-121328451D01*
X74508063Y-121326623D01*
X74512473Y-121328450D01*
G37*
%TD.AperFunction*%
%TD*%
%TA.AperFunction,Conductor*%
%TO.N,USART1_RX*%
G36*
X80976318Y-113328427D02*
G01*
X80978323Y-113331109D01*
X81255403Y-113840426D01*
X81256346Y-113849331D01*
X81253029Y-113854644D01*
X80882904Y-114193758D01*
X80874489Y-114196820D01*
X80867096Y-114193758D01*
X80496970Y-113854644D01*
X80493185Y-113846528D01*
X80494596Y-113840426D01*
X80771677Y-113331109D01*
X80778641Y-113325479D01*
X80781955Y-113325000D01*
X80968045Y-113325000D01*
X80976318Y-113328427D01*
G37*
%TD.AperFunction*%
%TD*%
%TA.AperFunction,Conductor*%
%TO.N,USART1_RX*%
G36*
X80908216Y-111057329D02*
G01*
X80908276Y-111057389D01*
X81879775Y-112042097D01*
X81883146Y-112050392D01*
X81880088Y-112058200D01*
X80978480Y-113046187D01*
X80970372Y-113049988D01*
X80969838Y-113050000D01*
X80780309Y-113050000D01*
X80772036Y-113046573D01*
X80771504Y-113046005D01*
X79907204Y-112058233D01*
X79904335Y-112049750D01*
X79907730Y-112042261D01*
X80891672Y-111057336D01*
X80899941Y-111053906D01*
X80908216Y-111057329D01*
G37*
%TD.AperFunction*%
%TD*%
%TA.AperFunction,Conductor*%
%TO.N,USART1_TX*%
G36*
X80882199Y-115956518D02*
G01*
X81252522Y-116294909D01*
X81256318Y-116303019D01*
X81254502Y-116309826D01*
X80981754Y-116738562D01*
X80980155Y-116740555D01*
X80850217Y-116870493D01*
X80841944Y-116873920D01*
X80833671Y-116870493D01*
X80831924Y-116868261D01*
X80754376Y-116739645D01*
X80495164Y-116309731D01*
X80493828Y-116300878D01*
X80497277Y-116295068D01*
X80866400Y-115956531D01*
X80874812Y-115953466D01*
X80882199Y-115956518D01*
G37*
%TD.AperFunction*%
%TD*%
%TA.AperFunction,Conductor*%
%TO.N,USART1_TX*%
G36*
X81853062Y-117853427D02*
G01*
X81853486Y-117853873D01*
X82742578Y-118841753D01*
X82745565Y-118850195D01*
X82742158Y-118857849D01*
X81758277Y-119842714D01*
X81750006Y-119846145D01*
X81741731Y-119842722D01*
X81741723Y-119842714D01*
X80757841Y-118857849D01*
X80754418Y-118849574D01*
X80757420Y-118841755D01*
X81646514Y-117853872D01*
X81654596Y-117850016D01*
X81655211Y-117850000D01*
X81844789Y-117850000D01*
X81853062Y-117853427D01*
G37*
%TD.AperFunction*%
%TD*%
%TA.AperFunction,Conductor*%
%TO.N,USART1_TX*%
G36*
X81758269Y-119857277D02*
G01*
X81758277Y-119857285D01*
X82742158Y-120842150D01*
X82745581Y-120850425D01*
X82742578Y-120858246D01*
X81853486Y-121846127D01*
X81845404Y-121849984D01*
X81844789Y-121850000D01*
X81655211Y-121850000D01*
X81646938Y-121846573D01*
X81646514Y-121846127D01*
X80757421Y-120858246D01*
X80754434Y-120849804D01*
X80757840Y-120842152D01*
X81741723Y-119857284D01*
X81749994Y-119853854D01*
X81758269Y-119857277D01*
G37*
%TD.AperFunction*%
%TD*%
%TA.AperFunction,Conductor*%
%TO.N,USART1_TX*%
G36*
X74158920Y-121682003D02*
G01*
X74725936Y-122068437D01*
X74729567Y-122072408D01*
X74794629Y-122189130D01*
X74795663Y-122198024D01*
X74792682Y-122203099D01*
X74663760Y-122332021D01*
X74655487Y-122335448D01*
X74649792Y-122333968D01*
X74533069Y-122268906D01*
X74529098Y-122265275D01*
X74396010Y-122069995D01*
X74142664Y-121698260D01*
X74140837Y-121689495D01*
X74145744Y-121682004D01*
X74154510Y-121680176D01*
X74158920Y-121682003D01*
G37*
%TD.AperFunction*%
%TD*%
%TA.AperFunction,Conductor*%
%TO.N,Net-(JP3-A)*%
G36*
X94508266Y-128807276D02*
G01*
X95344491Y-129644484D01*
X95347913Y-129652759D01*
X95347032Y-129657207D01*
X95002983Y-130492755D01*
X94996664Y-130499100D01*
X94992164Y-130500000D01*
X94007836Y-130500000D01*
X93999563Y-130496573D01*
X93997017Y-130492755D01*
X93898717Y-130254027D01*
X93652967Y-129657205D01*
X93652986Y-129648252D01*
X93655504Y-129644488D01*
X94491723Y-128807286D01*
X94499993Y-128803855D01*
X94508266Y-128807276D01*
G37*
%TD.AperFunction*%
%TD*%
%TA.AperFunction,Conductor*%
%TO.N,Net-(JP4-A)*%
G36*
X90708266Y-128807276D02*
G01*
X91172603Y-129272159D01*
X91545246Y-129645241D01*
X91548668Y-129653516D01*
X91548278Y-129656503D01*
X91327305Y-130491294D01*
X91321876Y-130498415D01*
X91315995Y-130500000D01*
X90084005Y-130500000D01*
X90075732Y-130496573D01*
X90072695Y-130491294D01*
X89851721Y-129656503D01*
X89852916Y-129647628D01*
X89854753Y-129645241D01*
X90691723Y-128807286D01*
X90699993Y-128803855D01*
X90708266Y-128807276D01*
G37*
%TD.AperFunction*%
%TD*%
%TA.AperFunction,Conductor*%
%TO.N,Net-(J4-Pin_1)*%
G36*
X85556291Y-116981291D02*
G01*
X86391162Y-117816162D01*
X86394589Y-117824435D01*
X86391162Y-117832708D01*
X86389904Y-117833799D01*
X85559474Y-118455901D01*
X85550798Y-118458118D01*
X85543095Y-118453552D01*
X85543013Y-118453441D01*
X84818261Y-117461859D01*
X84816146Y-117453158D01*
X84819432Y-117446684D01*
X84952646Y-117313470D01*
X84955148Y-117311567D01*
X85542257Y-116979380D01*
X85551144Y-116978289D01*
X85556291Y-116981291D01*
G37*
%TD.AperFunction*%
%TD*%
%TA.AperFunction,Conductor*%
%TO.N,Net-(J4-Pin_1)*%
G36*
X82885895Y-115555698D02*
G01*
X83319814Y-115846524D01*
X83324778Y-115853977D01*
X83325000Y-115856243D01*
X83325000Y-116043756D01*
X83321573Y-116052029D01*
X83319814Y-116053475D01*
X82885897Y-116344300D01*
X82877117Y-116346059D01*
X82870615Y-116342328D01*
X82530844Y-115957747D01*
X82527934Y-115949278D01*
X82530844Y-115942253D01*
X82870616Y-115557670D01*
X82878661Y-115553740D01*
X82885895Y-115555698D01*
G37*
%TD.AperFunction*%
%TD*%
%TA.AperFunction,Conductor*%
%TO.N,Net-(J4-Pin_2)*%
G36*
X85163995Y-114103696D02*
G01*
X86174488Y-114359998D01*
X86712187Y-114496381D01*
X86719363Y-114501737D01*
X86720651Y-114510599D01*
X86720124Y-114512188D01*
X86402853Y-115280511D01*
X86396528Y-115286850D01*
X86396512Y-115286856D01*
X85626079Y-115605574D01*
X85617124Y-115605570D01*
X85610795Y-115599236D01*
X85610591Y-115598705D01*
X85150096Y-114301900D01*
X85149421Y-114297985D01*
X85149421Y-114115038D01*
X85152848Y-114106765D01*
X85161121Y-114103338D01*
X85163995Y-114103696D01*
G37*
%TD.AperFunction*%
%TD*%
%TA.AperFunction,Conductor*%
%TO.N,Net-(J4-Pin_2)*%
G36*
X82885895Y-113805698D02*
G01*
X83319814Y-114096524D01*
X83324778Y-114103977D01*
X83325000Y-114106243D01*
X83325000Y-114293756D01*
X83321573Y-114302029D01*
X83319814Y-114303475D01*
X82885897Y-114594300D01*
X82877117Y-114596059D01*
X82870615Y-114592328D01*
X82530844Y-114207747D01*
X82527934Y-114199278D01*
X82530844Y-114192253D01*
X82870616Y-113807670D01*
X82878661Y-113803740D01*
X82885895Y-113805698D01*
G37*
%TD.AperFunction*%
%TD*%
%TA.AperFunction,Conductor*%
%TO.N,/VSET*%
G36*
X99256500Y-127926720D02*
G01*
X100091294Y-128147695D01*
X100098415Y-128153124D01*
X100100000Y-128159005D01*
X100100000Y-129390994D01*
X100096573Y-129399267D01*
X100091294Y-129402304D01*
X99256503Y-129623278D01*
X99247628Y-129622083D01*
X99245241Y-129620246D01*
X98872159Y-129247603D01*
X98407286Y-128783276D01*
X98403855Y-128775007D01*
X98407276Y-128766733D01*
X99245241Y-127929752D01*
X99253516Y-127926331D01*
X99256500Y-127926720D01*
G37*
%TD.AperFunction*%
%TD*%
%TA.AperFunction,Conductor*%
%TO.N,/VSET*%
G36*
X98408266Y-128782276D02*
G01*
X98872603Y-129247159D01*
X99245246Y-129620241D01*
X99248668Y-129628516D01*
X99248278Y-129631503D01*
X99027305Y-130466294D01*
X99021876Y-130473415D01*
X99015995Y-130475000D01*
X97784005Y-130475000D01*
X97775732Y-130471573D01*
X97772695Y-130466294D01*
X97551721Y-129631503D01*
X97552916Y-129622628D01*
X97554753Y-129620241D01*
X98391723Y-128782286D01*
X98399993Y-128778855D01*
X98408266Y-128782276D01*
G37*
%TD.AperFunction*%
%TD*%
%TA.AperFunction,Conductor*%
%TO.N,/P2110B_VOUT*%
G36*
X90713210Y-125411748D02*
G01*
X92389836Y-125633654D01*
X92397587Y-125638137D01*
X92400000Y-125645253D01*
X92400000Y-126874746D01*
X92396573Y-126883019D01*
X92389835Y-126886345D01*
X90713219Y-127108250D01*
X90704568Y-127105938D01*
X90700085Y-127098186D01*
X90699984Y-127096665D01*
X90699000Y-126260028D01*
X90699000Y-126260000D01*
X90699723Y-125645253D01*
X90699984Y-125423333D01*
X90703421Y-125415065D01*
X90711698Y-125411648D01*
X90713210Y-125411748D01*
G37*
%TD.AperFunction*%
%TD*%
%TA.AperFunction,Conductor*%
%TO.N,/P2110B_VOUT*%
G36*
X94495431Y-125414061D02*
G01*
X94499914Y-125421813D01*
X94500015Y-125423334D01*
X94501000Y-126260000D01*
X94501000Y-126260028D01*
X94500015Y-127096665D01*
X94496578Y-127104934D01*
X94488301Y-127108351D01*
X94486780Y-127108250D01*
X92810165Y-126886345D01*
X92802413Y-126881862D01*
X92800000Y-126874746D01*
X92800000Y-125645253D01*
X92803427Y-125636980D01*
X92810163Y-125633654D01*
X94486781Y-125411749D01*
X94495431Y-125414061D01*
G37*
%TD.AperFunction*%
%TD*%
%TA.AperFunction,Conductor*%
%TO.N,/P2110B_VOUT*%
G36*
X95267390Y-124623227D02*
G01*
X96136772Y-125492609D01*
X96140199Y-125500882D01*
X96137786Y-125507998D01*
X95109151Y-126850456D01*
X95101399Y-126854939D01*
X95092748Y-126852627D01*
X95091601Y-126851623D01*
X94499293Y-126260707D01*
X94499273Y-126260687D01*
X93908376Y-125668398D01*
X93904959Y-125660121D01*
X93908396Y-125651852D01*
X93909532Y-125650857D01*
X95252001Y-124622212D01*
X95260652Y-124619901D01*
X95267390Y-124623227D01*
G37*
%TD.AperFunction*%
%TD*%
%TA.AperFunction,Conductor*%
%TO.N,Net-(J5-Pin_2)*%
G36*
X124236463Y-123804984D02*
G01*
X124244732Y-123808421D01*
X124248149Y-123816698D01*
X124248024Y-123818391D01*
X124030875Y-125290688D01*
X124001524Y-125489698D01*
X124001474Y-125490034D01*
X123996876Y-125497719D01*
X123989899Y-125500027D01*
X122760400Y-125500027D01*
X122752127Y-125496600D01*
X122748781Y-125489698D01*
X122551540Y-123818055D01*
X122553973Y-123809437D01*
X122561788Y-123805065D01*
X122563135Y-123804984D01*
X123400000Y-123804000D01*
X124236463Y-123804984D01*
G37*
%TD.AperFunction*%
%TD*%
%TA.AperFunction,Conductor*%
%TO.N,Net-(J5-Pin_2)*%
G36*
X123998019Y-126813427D02*
G01*
X124001345Y-126820165D01*
X124223250Y-128496780D01*
X124220938Y-128505431D01*
X124213186Y-128509914D01*
X124211665Y-128510015D01*
X123375014Y-128510999D01*
X123374986Y-128510999D01*
X122538334Y-128510015D01*
X122530065Y-128506578D01*
X122526648Y-128498301D01*
X122526748Y-128496790D01*
X122748655Y-126820165D01*
X122753138Y-126812413D01*
X122760254Y-126810000D01*
X123989746Y-126810000D01*
X123998019Y-126813427D01*
G37*
%TD.AperFunction*%
%TD*%
%TA.AperFunction,Conductor*%
%TO.N,Net-(JP11-C)*%
G36*
X123395326Y-120419134D02*
G01*
X123399896Y-120426835D01*
X123400015Y-120428487D01*
X123401000Y-121265000D01*
X123401000Y-121265028D01*
X123400015Y-122101808D01*
X123396578Y-122110077D01*
X123388301Y-122113494D01*
X123386904Y-122113409D01*
X121714068Y-121910249D01*
X121706269Y-121905849D01*
X121703779Y-121898634D01*
X121703779Y-120669137D01*
X121707206Y-120660864D01*
X121713811Y-120657556D01*
X123386650Y-120416920D01*
X123395326Y-120419134D01*
G37*
%TD.AperFunction*%
%TD*%
%TA.AperFunction,Conductor*%
%TO.N,NRF_MISO*%
G36*
X65293039Y-120610271D02*
G01*
X65421961Y-120739193D01*
X65425388Y-120747466D01*
X65423908Y-120753163D01*
X65358846Y-120869884D01*
X65355215Y-120873855D01*
X64788201Y-121260288D01*
X64779435Y-121262116D01*
X64771944Y-121257209D01*
X64770116Y-121248443D01*
X64771942Y-121244034D01*
X65158378Y-120677015D01*
X65162345Y-120673388D01*
X65279072Y-120608323D01*
X65287964Y-120607290D01*
X65293039Y-120610271D01*
G37*
%TD.AperFunction*%
%TD*%
%TA.AperFunction,Conductor*%
%TO.N,VDD*%
G36*
X71399862Y-109042454D02*
G01*
X71934032Y-109301672D01*
X71939979Y-109308367D01*
X71940472Y-109314080D01*
X71854053Y-109844387D01*
X71849340Y-109852001D01*
X71844387Y-109854053D01*
X71314080Y-109940472D01*
X71305363Y-109938420D01*
X71301672Y-109934032D01*
X71042454Y-109399863D01*
X71041926Y-109390926D01*
X71044706Y-109386486D01*
X71386485Y-109044707D01*
X71394757Y-109041281D01*
X71399862Y-109042454D01*
G37*
%TD.AperFunction*%
%TD*%
%TA.AperFunction,Conductor*%
%TO.N,VDD*%
G36*
X56987327Y-127299957D02*
G01*
X56995588Y-127303411D01*
X56998987Y-127311696D01*
X56998947Y-127312629D01*
X56950894Y-127889272D01*
X56946792Y-127897232D01*
X56939234Y-127900000D01*
X56460766Y-127900000D01*
X56452493Y-127896573D01*
X56449106Y-127889272D01*
X56401052Y-127312629D01*
X56403780Y-127304099D01*
X56411740Y-127299997D01*
X56412653Y-127299957D01*
X56700000Y-127299000D01*
X56987327Y-127299957D01*
G37*
%TD.AperFunction*%
%TD*%
%TA.AperFunction,Conductor*%
%TO.N,VDD*%
G36*
X44743678Y-134259094D02*
G01*
X44749900Y-134265192D01*
X45335639Y-135597981D01*
X45335831Y-135606933D01*
X45333201Y-135610961D01*
X44990961Y-135953201D01*
X44982688Y-135956628D01*
X44977981Y-135955639D01*
X43645192Y-135369900D01*
X43638996Y-135363434D01*
X43639084Y-135354725D01*
X43957438Y-134583783D01*
X43963759Y-134577448D01*
X44734725Y-134259085D01*
X44743678Y-134259094D01*
G37*
%TD.AperFunction*%
%TD*%
%TA.AperFunction,Conductor*%
%TO.N,VDD*%
G36*
X56947507Y-122203427D02*
G01*
X56950894Y-122210728D01*
X56998947Y-122787370D01*
X56996219Y-122795900D01*
X56988259Y-122800002D01*
X56987326Y-122800042D01*
X56700039Y-122800999D01*
X56699961Y-122800999D01*
X56412673Y-122800042D01*
X56404411Y-122796588D01*
X56401012Y-122788303D01*
X56401052Y-122787370D01*
X56449106Y-122210728D01*
X56453208Y-122202768D01*
X56460766Y-122200000D01*
X56939234Y-122200000D01*
X56947507Y-122203427D01*
G37*
%TD.AperFunction*%
%TD*%
%TA.AperFunction,Conductor*%
%TO.N,Net-(JP1-C)*%
G36*
X63414484Y-101040863D02*
G01*
X64183464Y-101360364D01*
X64189788Y-101366702D01*
X64189779Y-101375657D01*
X64189326Y-101376620D01*
X63478290Y-102726790D01*
X63471403Y-102732513D01*
X63467938Y-102733038D01*
X63282393Y-102733038D01*
X63274120Y-102729611D01*
X63271826Y-102726362D01*
X63200872Y-102577128D01*
X62629982Y-101376388D01*
X62629526Y-101367447D01*
X62635526Y-101360799D01*
X62636044Y-101360568D01*
X63405511Y-101040864D01*
X63414466Y-101040856D01*
X63414484Y-101040863D01*
G37*
%TD.AperFunction*%
%TD*%
%TA.AperFunction,Conductor*%
%TO.N,Net-(JP1-C)*%
G36*
X62960507Y-104677930D02*
G01*
X62963899Y-104680290D01*
X63094387Y-104810778D01*
X63097814Y-104819051D01*
X63096848Y-104823707D01*
X62779569Y-105555151D01*
X62773133Y-105561377D01*
X62764381Y-105561314D01*
X62380156Y-105403121D01*
X62373810Y-105396802D01*
X62373114Y-105394476D01*
X62286151Y-104934708D01*
X62287980Y-104925943D01*
X62293576Y-104921565D01*
X62951560Y-104677593D01*
X62960507Y-104677930D01*
G37*
%TD.AperFunction*%
%TD*%
%TA.AperFunction,Conductor*%
%TO.N,VDD*%
G36*
X43415810Y-104397506D02*
G01*
X44034654Y-105132464D01*
X44037361Y-105141000D01*
X44034654Y-105147536D01*
X43415810Y-105882493D01*
X43407860Y-105886614D01*
X43400997Y-105885082D01*
X42551797Y-105393379D01*
X42546355Y-105386268D01*
X42545960Y-105383254D01*
X42545960Y-104896745D01*
X42549387Y-104888472D01*
X42551797Y-104886620D01*
X43400998Y-104394916D01*
X43409874Y-104393737D01*
X43415810Y-104397506D01*
G37*
%TD.AperFunction*%
%TD*%
%TA.AperFunction,Conductor*%
%TO.N,/NRST*%
G36*
X56838272Y-106625135D02*
G01*
X56841744Y-106627531D01*
X56972468Y-106758255D01*
X56975895Y-106766528D01*
X56975134Y-106770677D01*
X56204272Y-108802949D01*
X56198134Y-108809469D01*
X56189184Y-108809739D01*
X56188865Y-108809613D01*
X55203782Y-108402562D01*
X55197446Y-108396238D01*
X54790386Y-107411132D01*
X54790393Y-107402179D01*
X54796731Y-107395853D01*
X54797021Y-107395738D01*
X56829325Y-106624865D01*
X56838272Y-106625135D01*
G37*
%TD.AperFunction*%
%TD*%
%TA.AperFunction,Conductor*%
%TO.N,VDD*%
G36*
X59407047Y-82202642D02*
G01*
X60392408Y-82572153D01*
X60398951Y-82578267D01*
X60400000Y-82583108D01*
X60400000Y-83816892D01*
X60396573Y-83825165D01*
X60392408Y-83827847D01*
X59407049Y-84197356D01*
X59398099Y-84197052D01*
X59394674Y-84194679D01*
X58407284Y-83208276D01*
X58403854Y-83200006D01*
X58407277Y-83191731D01*
X58407285Y-83191723D01*
X59394674Y-82205319D01*
X59402947Y-82201898D01*
X59407047Y-82202642D01*
G37*
%TD.AperFunction*%
%TD*%
%TA.AperFunction,Conductor*%
%TO.N,VDD*%
G36*
X73124259Y-89988106D02*
G01*
X73127299Y-89993395D01*
X73498229Y-91399748D01*
X73497025Y-91408622D01*
X73494955Y-91411233D01*
X72508039Y-92344498D01*
X72499673Y-92347692D01*
X72491961Y-92344498D01*
X71505044Y-91411233D01*
X71501388Y-91403059D01*
X71501769Y-91399755D01*
X71872701Y-89993394D01*
X71878124Y-89986270D01*
X71884014Y-89984679D01*
X73115986Y-89984679D01*
X73124259Y-89988106D01*
G37*
%TD.AperFunction*%
%TD*%
%TA.AperFunction,Conductor*%
%TO.N,VDD*%
G36*
X57407175Y-82207168D02*
G01*
X58392714Y-83191723D01*
X58396145Y-83199994D01*
X58392722Y-83208269D01*
X58392714Y-83208277D01*
X57407175Y-84192831D01*
X57398900Y-84196254D01*
X57391886Y-84193914D01*
X56404680Y-83453510D01*
X56400118Y-83445805D01*
X56400000Y-83444150D01*
X56400000Y-82955850D01*
X56403427Y-82947577D01*
X56404680Y-82946490D01*
X57391887Y-82206084D01*
X57400561Y-82203863D01*
X57407175Y-82207168D01*
G37*
%TD.AperFunction*%
%TD*%
%TA.AperFunction,Conductor*%
%TO.N,VDD*%
G36*
X72508037Y-92357700D02*
G01*
X73475049Y-93272142D01*
X73494482Y-93290518D01*
X73498138Y-93298692D01*
X73497480Y-93302901D01*
X73002749Y-94709703D01*
X72996772Y-94716370D01*
X72991712Y-94717521D01*
X72008288Y-94717521D01*
X72000015Y-94714094D01*
X71997251Y-94709703D01*
X71832073Y-94240010D01*
X71502519Y-93302899D01*
X71503007Y-93293959D01*
X71505514Y-93290520D01*
X72491962Y-92357700D01*
X72500327Y-92354507D01*
X72508037Y-92357700D01*
G37*
%TD.AperFunction*%
%TD*%
%TA.AperFunction,Conductor*%
%TO.N,/P2110B_VOUT*%
G36*
X88208764Y-82589407D02*
G01*
X89196218Y-82997438D01*
X89202553Y-83003761D01*
X89202562Y-83003782D01*
X89610591Y-83991232D01*
X89610584Y-84000187D01*
X89606385Y-84005356D01*
X87942848Y-85143564D01*
X87934085Y-85145408D01*
X87927968Y-85142181D01*
X87057818Y-84272031D01*
X87054391Y-84263758D01*
X87056435Y-84257151D01*
X87228716Y-84005356D01*
X88194644Y-82593612D01*
X88202143Y-82588721D01*
X88208764Y-82589407D01*
G37*
%TD.AperFunction*%
%TD*%
%TA.AperFunction,Conductor*%
%TO.N,/P2110B_VOUT*%
G36*
X78140744Y-91352834D02*
G01*
X79578724Y-91723835D01*
X79585878Y-91729220D01*
X79587500Y-91735164D01*
X79587500Y-92967035D01*
X79584073Y-92975308D01*
X79578723Y-92978364D01*
X78140745Y-93349364D01*
X78131878Y-93348113D01*
X78129276Y-93346026D01*
X77785504Y-92978364D01*
X77206470Y-92359089D01*
X77203324Y-92350707D01*
X77206470Y-92343110D01*
X78129277Y-91356172D01*
X78137429Y-91352471D01*
X78140744Y-91352834D01*
G37*
%TD.AperFunction*%
%TD*%
%TA.AperFunction,Conductor*%
%TO.N,/P2110B_VOUT*%
G36*
X77208037Y-92357700D02*
G01*
X78194955Y-93290965D01*
X78198611Y-93299139D01*
X78198229Y-93302450D01*
X77827299Y-94708805D01*
X77821876Y-94715930D01*
X77815986Y-94717521D01*
X76584014Y-94717521D01*
X76575741Y-94714094D01*
X76572701Y-94708805D01*
X76201770Y-93302447D01*
X76202974Y-93293576D01*
X76205040Y-93290969D01*
X77191962Y-92357700D01*
X77200327Y-92354507D01*
X77208037Y-92357700D01*
G37*
%TD.AperFunction*%
%TD*%
%TA.AperFunction,Conductor*%
%TO.N,PSENSE_MINUS*%
G36*
X54211003Y-104553783D02*
G01*
X54835706Y-104834989D01*
X55196277Y-104997299D01*
X55202414Y-105003820D01*
X55202421Y-105003839D01*
X55573704Y-105988123D01*
X55573418Y-105997073D01*
X55566886Y-106003199D01*
X55565983Y-106003499D01*
X53570228Y-106575916D01*
X53561330Y-106574902D01*
X53558729Y-106572942D01*
X53427700Y-106441913D01*
X53424273Y-106433640D01*
X53425154Y-106429185D01*
X54195397Y-104559998D01*
X54201717Y-104553657D01*
X54210672Y-104553640D01*
X54211003Y-104553783D01*
G37*
%TD.AperFunction*%
%TD*%
M02*
