%TF.GenerationSoftware,KiCad,Pcbnew,8.0.2*%
%TF.CreationDate,2024-06-06T20:45:53-07:00*%
%TF.ProjectId,tpms-sn-flex,74706d73-2d73-46e2-9d66-6c65782e6b69,rev?*%
%TF.SameCoordinates,Original*%
%TF.FileFunction,Soldermask,Top*%
%TF.FilePolarity,Negative*%
%FSLAX46Y46*%
G04 Gerber Fmt 4.6, Leading zero omitted, Abs format (unit mm)*
G04 Created by KiCad (PCBNEW 8.0.2) date 2024-06-06 20:45:53*
%MOMM*%
%LPD*%
G01*
G04 APERTURE LIST*
G04 Aperture macros list*
%AMRoundRect*
0 Rectangle with rounded corners*
0 $1 Rounding radius*
0 $2 $3 $4 $5 $6 $7 $8 $9 X,Y pos of 4 corners*
0 Add a 4 corners polygon primitive as box body*
4,1,4,$2,$3,$4,$5,$6,$7,$8,$9,$2,$3,0*
0 Add four circle primitives for the rounded corners*
1,1,$1+$1,$2,$3*
1,1,$1+$1,$4,$5*
1,1,$1+$1,$6,$7*
1,1,$1+$1,$8,$9*
0 Add four rect primitives between the rounded corners*
20,1,$1+$1,$2,$3,$4,$5,0*
20,1,$1+$1,$4,$5,$6,$7,0*
20,1,$1+$1,$6,$7,$8,$9,0*
20,1,$1+$1,$8,$9,$2,$3,0*%
%AMRotRect*
0 Rectangle, with rotation*
0 The origin of the aperture is its center*
0 $1 length*
0 $2 width*
0 $3 Rotation angle, in degrees counterclockwise*
0 Add horizontal line*
21,1,$1,$2,0,0,$3*%
G04 Aperture macros list end*
%ADD10C,4.400000*%
%ADD11RoundRect,0.218750X-0.218750X-0.256250X0.218750X-0.256250X0.218750X0.256250X-0.218750X0.256250X0*%
%ADD12RoundRect,0.218750X0.218750X0.256250X-0.218750X0.256250X-0.218750X-0.256250X0.218750X-0.256250X0*%
%ADD13RoundRect,0.225000X0.335876X0.017678X0.017678X0.335876X-0.335876X-0.017678X-0.017678X-0.335876X0*%
%ADD14RoundRect,0.225000X0.017678X-0.335876X0.335876X-0.017678X-0.017678X0.335876X-0.335876X0.017678X0*%
%ADD15RoundRect,0.225000X-0.017678X0.335876X-0.335876X0.017678X0.017678X-0.335876X0.335876X-0.017678X0*%
%ADD16RoundRect,0.225000X-0.335876X-0.017678X-0.017678X-0.335876X0.335876X0.017678X0.017678X0.335876X0*%
%ADD17RotRect,0.279400X1.473200X45.000000*%
%ADD18RotRect,0.279400X1.473200X315.000000*%
%ADD19O,1.500000X2.200000*%
%ADD20R,1.700000X1.700000*%
%ADD21O,1.700000X1.700000*%
%ADD22R,2.000000X2.000000*%
%ADD23R,1.600000X1.400000*%
%ADD24R,1.270000X1.905000*%
%ADD25RoundRect,0.200000X0.200000X0.275000X-0.200000X0.275000X-0.200000X-0.275000X0.200000X-0.275000X0*%
%ADD26RoundRect,0.200000X-0.275000X0.200000X-0.275000X-0.200000X0.275000X-0.200000X0.275000X0.200000X0*%
%ADD27RoundRect,0.200000X-0.200000X-0.275000X0.200000X-0.275000X0.200000X0.275000X-0.200000X0.275000X0*%
%ADD28R,2.286000X5.842000*%
%ADD29R,2.413000X5.842000*%
%ADD30C,2.775000*%
%ADD31R,3.300000X3.300000*%
%ADD32C,3.300000*%
G04 APERTURE END LIST*
D10*
%TO.C,H4*%
X123600000Y-140600000D03*
%TD*%
%TO.C,H3*%
X123600000Y-84400000D03*
%TD*%
%TO.C,H2*%
X44400000Y-140600000D03*
%TD*%
%TO.C,H1*%
X44400000Y-84400000D03*
%TD*%
D11*
%TO.C,D2*%
X59212500Y-132400000D03*
X60787500Y-132400000D03*
%TD*%
D12*
%TO.C,D1*%
X79587500Y-100200000D03*
X78012500Y-100200000D03*
%TD*%
D13*
%TO.C,C8*%
X65428008Y-111648008D03*
X64331992Y-110551992D03*
%TD*%
D14*
%TO.C,C7*%
X58861992Y-114608008D03*
X59958008Y-113511992D03*
%TD*%
D15*
%TO.C,C6*%
X67296016Y-126503984D03*
X66200000Y-127600000D03*
%TD*%
D16*
%TO.C,C5*%
X71851992Y-109851992D03*
X72948008Y-110948008D03*
%TD*%
D13*
%TO.C,C4*%
X66748008Y-110288008D03*
X65651992Y-109191992D03*
%TD*%
D14*
%TO.C,C3*%
X61693984Y-115196016D03*
X62790000Y-114100000D03*
%TD*%
D15*
%TO.C,C2*%
X77842462Y-120357538D03*
X76746446Y-121453554D03*
%TD*%
D13*
%TO.C,C1*%
X61698008Y-121548008D03*
X60601992Y-120451992D03*
%TD*%
D17*
%TO.C,U1*%
X68273397Y-111570096D03*
X67919844Y-111923649D03*
X67566290Y-112277203D03*
X67212738Y-112630756D03*
X66859183Y-112984310D03*
X66505630Y-113337863D03*
X66152077Y-113691416D03*
X65798523Y-114044970D03*
X65444970Y-114398523D03*
X65091416Y-114752077D03*
X64737863Y-115105630D03*
X64384310Y-115459183D03*
X64030756Y-115812738D03*
X63677203Y-116166290D03*
X63323649Y-116519844D03*
X62970096Y-116873397D03*
D18*
X62970096Y-119526603D03*
X63323649Y-119880156D03*
X63677203Y-120233710D03*
X64030756Y-120587262D03*
X64384310Y-120940817D03*
X64737863Y-121294370D03*
X65091416Y-121647923D03*
X65444970Y-122001477D03*
X65798523Y-122355030D03*
X66152077Y-122708584D03*
X66505630Y-123062137D03*
X66859183Y-123415690D03*
X67212738Y-123769244D03*
X67566290Y-124122797D03*
X67919844Y-124476351D03*
X68273397Y-124829904D03*
D17*
X70926603Y-124829904D03*
X71280156Y-124476351D03*
X71633710Y-124122797D03*
X71987262Y-123769244D03*
X72340817Y-123415690D03*
X72694370Y-123062137D03*
X73047923Y-122708584D03*
X73401477Y-122355030D03*
X73755030Y-122001477D03*
X74108584Y-121647923D03*
X74462137Y-121294370D03*
X74815690Y-120940817D03*
X75169244Y-120587262D03*
X75522797Y-120233710D03*
X75876351Y-119880156D03*
X76229904Y-119526603D03*
D18*
X76229904Y-116873397D03*
X75876351Y-116519844D03*
X75522797Y-116166290D03*
X75169244Y-115812738D03*
X74815690Y-115459183D03*
X74462137Y-115105630D03*
X74108584Y-114752077D03*
X73755030Y-114398523D03*
X73401477Y-114044970D03*
X73047923Y-113691416D03*
X72694370Y-113337863D03*
X72340817Y-112984310D03*
X71987262Y-112630756D03*
X71633710Y-112277203D03*
X71280156Y-111923649D03*
X70926603Y-111570096D03*
%TD*%
D19*
%TO.C,J6*%
X44040000Y-112660000D03*
X46580000Y-112660000D03*
X49120000Y-112660000D03*
X51660000Y-112660000D03*
X51660000Y-105140000D03*
X49120000Y-105140000D03*
X46580000Y-105140000D03*
X44040000Y-105140000D03*
%TD*%
D20*
%TO.C,JP1*%
X65950000Y-101040000D03*
D21*
X63410000Y-101040000D03*
X60870000Y-101040000D03*
%TD*%
D22*
%TO.C,TP8*%
X71600000Y-105200000D03*
%TD*%
D23*
%TO.C,SW1*%
X53100000Y-101050000D03*
X45100000Y-101050000D03*
X53100000Y-96550000D03*
X45100000Y-96550000D03*
%TD*%
D24*
%TO.C,PS1*%
X106547000Y-135254000D03*
X108198000Y-135254000D03*
X109849000Y-135254000D03*
X111500000Y-135254000D03*
X113151000Y-135254000D03*
X114802000Y-135254000D03*
X116453000Y-135254000D03*
X116453000Y-121284000D03*
X114802000Y-121284000D03*
X113151000Y-121284000D03*
X111500000Y-121284000D03*
X109849000Y-121284000D03*
X108198000Y-121284000D03*
X106547000Y-121284000D03*
%TD*%
D20*
%TO.C,JP2*%
X98400000Y-128775000D03*
D21*
X98400000Y-126235000D03*
%TD*%
D22*
%TO.C,TP4*%
X55200000Y-119000000D03*
%TD*%
%TO.C,TP5*%
X60000000Y-129200000D03*
%TD*%
%TO.C,TP14*%
X53200000Y-141400000D03*
%TD*%
D21*
%TO.C,JP9*%
X75000000Y-140340000D03*
D20*
X75000000Y-137800000D03*
%TD*%
D25*
%TO.C,R5*%
X65025000Y-131700000D03*
X63375000Y-131700000D03*
%TD*%
D22*
%TO.C,TP9*%
X70400000Y-140200000D03*
%TD*%
D25*
%TO.C,R1*%
X62375000Y-105400000D03*
X64025000Y-105400000D03*
%TD*%
D26*
%TO.C,R2*%
X94000000Y-133750000D03*
X94000000Y-135400000D03*
%TD*%
D27*
%TO.C,R4*%
X72525000Y-97800000D03*
X74175000Y-97800000D03*
%TD*%
D20*
%TO.C,JP11*%
X123400000Y-118725000D03*
D21*
X123400000Y-121265000D03*
X123400000Y-123805000D03*
%TD*%
D22*
%TO.C,TP12*%
X52600000Y-127800000D03*
%TD*%
D20*
%TO.C,JP4*%
X90700000Y-128800000D03*
D21*
X90700000Y-126260000D03*
%TD*%
D20*
%TO.C,J2*%
X50400000Y-90400000D03*
D21*
X52940000Y-90400000D03*
X55480000Y-90400000D03*
X58020000Y-90400000D03*
%TD*%
D22*
%TO.C,TP2*%
X49600000Y-116300000D03*
%TD*%
D25*
%TO.C,R6*%
X82525000Y-115950000D03*
X80875000Y-115950000D03*
%TD*%
D22*
%TO.C,TP11*%
X81750000Y-119850000D03*
%TD*%
D20*
%TO.C,JP10*%
X82600000Y-130000000D03*
D21*
X82600000Y-127460000D03*
%TD*%
D28*
%TO.C,J3*%
X109875000Y-141235600D03*
D29*
X114256500Y-141235600D03*
X105493500Y-141235600D03*
%TD*%
D20*
%TO.C,JP6*%
X75000000Y-130200000D03*
D21*
X75000000Y-132740000D03*
%TD*%
D22*
%TO.C,TP3*%
X55225000Y-113750000D03*
%TD*%
D20*
%TO.C,J5*%
X123375000Y-131050000D03*
D21*
X123375000Y-128510000D03*
%TD*%
D26*
%TO.C,R3*%
X90700000Y-133750000D03*
X90700000Y-135400000D03*
%TD*%
D20*
%TO.C,JP5*%
X82600000Y-135200000D03*
D21*
X82600000Y-137740000D03*
%TD*%
D20*
%TO.C,JP3*%
X94500000Y-128800000D03*
D21*
X94500000Y-126260000D03*
%TD*%
D30*
%TO.C,S1*%
X67800000Y-92351100D03*
X72500000Y-92351100D03*
X77200000Y-92351100D03*
X65895000Y-82821100D03*
X79105000Y-82821100D03*
%TD*%
D22*
%TO.C,TP10*%
X66400000Y-140200000D03*
%TD*%
%TO.C,TP6*%
X45600000Y-121250000D03*
%TD*%
%TO.C,TP13*%
X80900000Y-111050000D03*
%TD*%
D21*
%TO.C,JP8*%
X59800000Y-137235000D03*
D20*
X59800000Y-139775000D03*
%TD*%
%TO.C,J4*%
X86400000Y-117825000D03*
D21*
X86400000Y-115285000D03*
X86400000Y-112745000D03*
%TD*%
D22*
%TO.C,TP16*%
X58400000Y-83200000D03*
%TD*%
%TO.C,TP7*%
X55200000Y-108400000D03*
%TD*%
D21*
%TO.C,JP7*%
X82135000Y-105500000D03*
D20*
X84675000Y-105500000D03*
%TD*%
D22*
%TO.C,TP1*%
X55200000Y-105000000D03*
%TD*%
%TO.C,TP15*%
X89200000Y-83000000D03*
%TD*%
D31*
%TO.C,C11*%
X101100000Y-99300000D03*
D32*
X111100000Y-99300000D03*
%TD*%
D25*
%TO.C,R7*%
X82525000Y-114200000D03*
X80875000Y-114200000D03*
%TD*%
D21*
%TO.C,J1*%
X43960000Y-134580000D03*
X46500000Y-134580000D03*
X43960000Y-132040000D03*
X46500000Y-132040000D03*
X43960000Y-129500000D03*
X46500000Y-129500000D03*
X43960000Y-126960000D03*
D20*
X46500000Y-126960000D03*
%TD*%
M02*
