%TF.GenerationSoftware,KiCad,Pcbnew,8.0.2*%
%TF.CreationDate,2024-06-06T20:45:53-07:00*%
%TF.ProjectId,tpms-sn-flex,74706d73-2d73-46e2-9d66-6c65782e6b69,rev?*%
%TF.SameCoordinates,Original*%
%TF.FileFunction,Legend,Top*%
%TF.FilePolarity,Positive*%
%FSLAX46Y46*%
G04 Gerber Fmt 4.6, Leading zero omitted, Abs format (unit mm)*
G04 Created by KiCad (PCBNEW 8.0.2) date 2024-06-06 20:45:53*
%MOMM*%
%LPD*%
G01*
G04 APERTURE LIST*
%ADD10C,0.150000*%
%ADD11C,0.100000*%
%ADD12C,0.120000*%
%ADD13C,0.152400*%
%ADD14C,0.000000*%
%ADD15C,0.200000*%
%ADD16C,0.300000*%
G04 APERTURE END LIST*
D10*
X125736779Y-128288866D02*
X126498684Y-128288866D01*
X126117731Y-128669819D02*
X126117731Y-127907914D01*
X57836779Y-127119819D02*
X57836779Y-126119819D01*
X57836779Y-126119819D02*
X58408207Y-127119819D01*
X58408207Y-127119819D02*
X58408207Y-126119819D01*
X59455826Y-127119819D02*
X59122493Y-126643628D01*
X58884398Y-127119819D02*
X58884398Y-126119819D01*
X58884398Y-126119819D02*
X59265350Y-126119819D01*
X59265350Y-126119819D02*
X59360588Y-126167438D01*
X59360588Y-126167438D02*
X59408207Y-126215057D01*
X59408207Y-126215057D02*
X59455826Y-126310295D01*
X59455826Y-126310295D02*
X59455826Y-126453152D01*
X59455826Y-126453152D02*
X59408207Y-126548390D01*
X59408207Y-126548390D02*
X59360588Y-126596009D01*
X59360588Y-126596009D02*
X59265350Y-126643628D01*
X59265350Y-126643628D02*
X58884398Y-126643628D01*
X60217731Y-126596009D02*
X59884398Y-126596009D01*
X59884398Y-127119819D02*
X59884398Y-126119819D01*
X59884398Y-126119819D02*
X60360588Y-126119819D01*
X60503446Y-127215057D02*
X61265350Y-127215057D01*
X62074874Y-127024580D02*
X62027255Y-127072200D01*
X62027255Y-127072200D02*
X61884398Y-127119819D01*
X61884398Y-127119819D02*
X61789160Y-127119819D01*
X61789160Y-127119819D02*
X61646303Y-127072200D01*
X61646303Y-127072200D02*
X61551065Y-126976961D01*
X61551065Y-126976961D02*
X61503446Y-126881723D01*
X61503446Y-126881723D02*
X61455827Y-126691247D01*
X61455827Y-126691247D02*
X61455827Y-126548390D01*
X61455827Y-126548390D02*
X61503446Y-126357914D01*
X61503446Y-126357914D02*
X61551065Y-126262676D01*
X61551065Y-126262676D02*
X61646303Y-126167438D01*
X61646303Y-126167438D02*
X61789160Y-126119819D01*
X61789160Y-126119819D02*
X61884398Y-126119819D01*
X61884398Y-126119819D02*
X62027255Y-126167438D01*
X62027255Y-126167438D02*
X62074874Y-126215057D01*
X62503446Y-126596009D02*
X62836779Y-126596009D01*
X62979636Y-127119819D02*
X62503446Y-127119819D01*
X62503446Y-127119819D02*
X62503446Y-126119819D01*
X62503446Y-126119819D02*
X62979636Y-126119819D01*
X52289160Y-121584104D02*
X52765350Y-121584104D01*
X52193922Y-121869819D02*
X52527255Y-120869819D01*
X52527255Y-120869819D02*
X52860588Y-121869819D01*
X53193922Y-121869819D02*
X53193922Y-120869819D01*
X53193922Y-120869819D02*
X53432017Y-120869819D01*
X53432017Y-120869819D02*
X53574874Y-120917438D01*
X53574874Y-120917438D02*
X53670112Y-121012676D01*
X53670112Y-121012676D02*
X53717731Y-121107914D01*
X53717731Y-121107914D02*
X53765350Y-121298390D01*
X53765350Y-121298390D02*
X53765350Y-121441247D01*
X53765350Y-121441247D02*
X53717731Y-121631723D01*
X53717731Y-121631723D02*
X53670112Y-121726961D01*
X53670112Y-121726961D02*
X53574874Y-121822200D01*
X53574874Y-121822200D02*
X53432017Y-121869819D01*
X53432017Y-121869819D02*
X53193922Y-121869819D01*
X54765350Y-121774580D02*
X54717731Y-121822200D01*
X54717731Y-121822200D02*
X54574874Y-121869819D01*
X54574874Y-121869819D02*
X54479636Y-121869819D01*
X54479636Y-121869819D02*
X54336779Y-121822200D01*
X54336779Y-121822200D02*
X54241541Y-121726961D01*
X54241541Y-121726961D02*
X54193922Y-121631723D01*
X54193922Y-121631723D02*
X54146303Y-121441247D01*
X54146303Y-121441247D02*
X54146303Y-121298390D01*
X54146303Y-121298390D02*
X54193922Y-121107914D01*
X54193922Y-121107914D02*
X54241541Y-121012676D01*
X54241541Y-121012676D02*
X54336779Y-120917438D01*
X54336779Y-120917438D02*
X54479636Y-120869819D01*
X54479636Y-120869819D02*
X54574874Y-120869819D01*
X54574874Y-120869819D02*
X54717731Y-120917438D01*
X54717731Y-120917438D02*
X54765350Y-120965057D01*
X54955827Y-121965057D02*
X55717731Y-121965057D01*
X56527255Y-121774580D02*
X56479636Y-121822200D01*
X56479636Y-121822200D02*
X56336779Y-121869819D01*
X56336779Y-121869819D02*
X56241541Y-121869819D01*
X56241541Y-121869819D02*
X56098684Y-121822200D01*
X56098684Y-121822200D02*
X56003446Y-121726961D01*
X56003446Y-121726961D02*
X55955827Y-121631723D01*
X55955827Y-121631723D02*
X55908208Y-121441247D01*
X55908208Y-121441247D02*
X55908208Y-121298390D01*
X55908208Y-121298390D02*
X55955827Y-121107914D01*
X55955827Y-121107914D02*
X56003446Y-121012676D01*
X56003446Y-121012676D02*
X56098684Y-120917438D01*
X56098684Y-120917438D02*
X56241541Y-120869819D01*
X56241541Y-120869819D02*
X56336779Y-120869819D01*
X56336779Y-120869819D02*
X56479636Y-120917438D01*
X56479636Y-120917438D02*
X56527255Y-120965057D01*
X56955827Y-121869819D02*
X56955827Y-120869819D01*
X56955827Y-121346009D02*
X57527255Y-121346009D01*
X57527255Y-121869819D02*
X57527255Y-120869819D01*
X57955827Y-120965057D02*
X58003446Y-120917438D01*
X58003446Y-120917438D02*
X58098684Y-120869819D01*
X58098684Y-120869819D02*
X58336779Y-120869819D01*
X58336779Y-120869819D02*
X58432017Y-120917438D01*
X58432017Y-120917438D02*
X58479636Y-120965057D01*
X58479636Y-120965057D02*
X58527255Y-121060295D01*
X58527255Y-121060295D02*
X58527255Y-121155533D01*
X58527255Y-121155533D02*
X58479636Y-121298390D01*
X58479636Y-121298390D02*
X57908208Y-121869819D01*
X57908208Y-121869819D02*
X58527255Y-121869819D01*
X52539160Y-116584104D02*
X53015350Y-116584104D01*
X52443922Y-116869819D02*
X52777255Y-115869819D01*
X52777255Y-115869819D02*
X53110588Y-116869819D01*
X53443922Y-116869819D02*
X53443922Y-115869819D01*
X53443922Y-115869819D02*
X53682017Y-115869819D01*
X53682017Y-115869819D02*
X53824874Y-115917438D01*
X53824874Y-115917438D02*
X53920112Y-116012676D01*
X53920112Y-116012676D02*
X53967731Y-116107914D01*
X53967731Y-116107914D02*
X54015350Y-116298390D01*
X54015350Y-116298390D02*
X54015350Y-116441247D01*
X54015350Y-116441247D02*
X53967731Y-116631723D01*
X53967731Y-116631723D02*
X53920112Y-116726961D01*
X53920112Y-116726961D02*
X53824874Y-116822200D01*
X53824874Y-116822200D02*
X53682017Y-116869819D01*
X53682017Y-116869819D02*
X53443922Y-116869819D01*
X55015350Y-116774580D02*
X54967731Y-116822200D01*
X54967731Y-116822200D02*
X54824874Y-116869819D01*
X54824874Y-116869819D02*
X54729636Y-116869819D01*
X54729636Y-116869819D02*
X54586779Y-116822200D01*
X54586779Y-116822200D02*
X54491541Y-116726961D01*
X54491541Y-116726961D02*
X54443922Y-116631723D01*
X54443922Y-116631723D02*
X54396303Y-116441247D01*
X54396303Y-116441247D02*
X54396303Y-116298390D01*
X54396303Y-116298390D02*
X54443922Y-116107914D01*
X54443922Y-116107914D02*
X54491541Y-116012676D01*
X54491541Y-116012676D02*
X54586779Y-115917438D01*
X54586779Y-115917438D02*
X54729636Y-115869819D01*
X54729636Y-115869819D02*
X54824874Y-115869819D01*
X54824874Y-115869819D02*
X54967731Y-115917438D01*
X54967731Y-115917438D02*
X55015350Y-115965057D01*
X55205827Y-116965057D02*
X55967731Y-116965057D01*
X56777255Y-116774580D02*
X56729636Y-116822200D01*
X56729636Y-116822200D02*
X56586779Y-116869819D01*
X56586779Y-116869819D02*
X56491541Y-116869819D01*
X56491541Y-116869819D02*
X56348684Y-116822200D01*
X56348684Y-116822200D02*
X56253446Y-116726961D01*
X56253446Y-116726961D02*
X56205827Y-116631723D01*
X56205827Y-116631723D02*
X56158208Y-116441247D01*
X56158208Y-116441247D02*
X56158208Y-116298390D01*
X56158208Y-116298390D02*
X56205827Y-116107914D01*
X56205827Y-116107914D02*
X56253446Y-116012676D01*
X56253446Y-116012676D02*
X56348684Y-115917438D01*
X56348684Y-115917438D02*
X56491541Y-115869819D01*
X56491541Y-115869819D02*
X56586779Y-115869819D01*
X56586779Y-115869819D02*
X56729636Y-115917438D01*
X56729636Y-115917438D02*
X56777255Y-115965057D01*
X57205827Y-116869819D02*
X57205827Y-115869819D01*
X57205827Y-116346009D02*
X57777255Y-116346009D01*
X57777255Y-116869819D02*
X57777255Y-115869819D01*
X58777255Y-116869819D02*
X58205827Y-116869819D01*
X58491541Y-116869819D02*
X58491541Y-115869819D01*
X58491541Y-115869819D02*
X58396303Y-116012676D01*
X58396303Y-116012676D02*
X58301065Y-116107914D01*
X58301065Y-116107914D02*
X58205827Y-116155533D01*
X58269819Y-107263220D02*
X57269819Y-107263220D01*
X57269819Y-107263220D02*
X57269819Y-106882268D01*
X57269819Y-106882268D02*
X57317438Y-106787030D01*
X57317438Y-106787030D02*
X57365057Y-106739411D01*
X57365057Y-106739411D02*
X57460295Y-106691792D01*
X57460295Y-106691792D02*
X57603152Y-106691792D01*
X57603152Y-106691792D02*
X57698390Y-106739411D01*
X57698390Y-106739411D02*
X57746009Y-106787030D01*
X57746009Y-106787030D02*
X57793628Y-106882268D01*
X57793628Y-106882268D02*
X57793628Y-107263220D01*
X58222200Y-106310839D02*
X58269819Y-106167982D01*
X58269819Y-106167982D02*
X58269819Y-105929887D01*
X58269819Y-105929887D02*
X58222200Y-105834649D01*
X58222200Y-105834649D02*
X58174580Y-105787030D01*
X58174580Y-105787030D02*
X58079342Y-105739411D01*
X58079342Y-105739411D02*
X57984104Y-105739411D01*
X57984104Y-105739411D02*
X57888866Y-105787030D01*
X57888866Y-105787030D02*
X57841247Y-105834649D01*
X57841247Y-105834649D02*
X57793628Y-105929887D01*
X57793628Y-105929887D02*
X57746009Y-106120363D01*
X57746009Y-106120363D02*
X57698390Y-106215601D01*
X57698390Y-106215601D02*
X57650771Y-106263220D01*
X57650771Y-106263220D02*
X57555533Y-106310839D01*
X57555533Y-106310839D02*
X57460295Y-106310839D01*
X57460295Y-106310839D02*
X57365057Y-106263220D01*
X57365057Y-106263220D02*
X57317438Y-106215601D01*
X57317438Y-106215601D02*
X57269819Y-106120363D01*
X57269819Y-106120363D02*
X57269819Y-105882268D01*
X57269819Y-105882268D02*
X57317438Y-105739411D01*
X57746009Y-105310839D02*
X57746009Y-104977506D01*
X58269819Y-104834649D02*
X58269819Y-105310839D01*
X58269819Y-105310839D02*
X57269819Y-105310839D01*
X57269819Y-105310839D02*
X57269819Y-104834649D01*
X58269819Y-104406077D02*
X57269819Y-104406077D01*
X57269819Y-104406077D02*
X58269819Y-103834649D01*
X58269819Y-103834649D02*
X57269819Y-103834649D01*
X58222200Y-103406077D02*
X58269819Y-103263220D01*
X58269819Y-103263220D02*
X58269819Y-103025125D01*
X58269819Y-103025125D02*
X58222200Y-102929887D01*
X58222200Y-102929887D02*
X58174580Y-102882268D01*
X58174580Y-102882268D02*
X58079342Y-102834649D01*
X58079342Y-102834649D02*
X57984104Y-102834649D01*
X57984104Y-102834649D02*
X57888866Y-102882268D01*
X57888866Y-102882268D02*
X57841247Y-102929887D01*
X57841247Y-102929887D02*
X57793628Y-103025125D01*
X57793628Y-103025125D02*
X57746009Y-103215601D01*
X57746009Y-103215601D02*
X57698390Y-103310839D01*
X57698390Y-103310839D02*
X57650771Y-103358458D01*
X57650771Y-103358458D02*
X57555533Y-103406077D01*
X57555533Y-103406077D02*
X57460295Y-103406077D01*
X57460295Y-103406077D02*
X57365057Y-103358458D01*
X57365057Y-103358458D02*
X57317438Y-103310839D01*
X57317438Y-103310839D02*
X57269819Y-103215601D01*
X57269819Y-103215601D02*
X57269819Y-102977506D01*
X57269819Y-102977506D02*
X57317438Y-102834649D01*
X57746009Y-102406077D02*
X57746009Y-102072744D01*
X58269819Y-101929887D02*
X58269819Y-102406077D01*
X58269819Y-102406077D02*
X57269819Y-102406077D01*
X57269819Y-102406077D02*
X57269819Y-101929887D01*
X57888866Y-101501315D02*
X57888866Y-100739411D01*
X53736779Y-111469819D02*
X53736779Y-110469819D01*
X53736779Y-110469819D02*
X54308207Y-111469819D01*
X54308207Y-111469819D02*
X54308207Y-110469819D01*
X55355826Y-111469819D02*
X55022493Y-110993628D01*
X54784398Y-111469819D02*
X54784398Y-110469819D01*
X54784398Y-110469819D02*
X55165350Y-110469819D01*
X55165350Y-110469819D02*
X55260588Y-110517438D01*
X55260588Y-110517438D02*
X55308207Y-110565057D01*
X55308207Y-110565057D02*
X55355826Y-110660295D01*
X55355826Y-110660295D02*
X55355826Y-110803152D01*
X55355826Y-110803152D02*
X55308207Y-110898390D01*
X55308207Y-110898390D02*
X55260588Y-110946009D01*
X55260588Y-110946009D02*
X55165350Y-110993628D01*
X55165350Y-110993628D02*
X54784398Y-110993628D01*
X55736779Y-111422200D02*
X55879636Y-111469819D01*
X55879636Y-111469819D02*
X56117731Y-111469819D01*
X56117731Y-111469819D02*
X56212969Y-111422200D01*
X56212969Y-111422200D02*
X56260588Y-111374580D01*
X56260588Y-111374580D02*
X56308207Y-111279342D01*
X56308207Y-111279342D02*
X56308207Y-111184104D01*
X56308207Y-111184104D02*
X56260588Y-111088866D01*
X56260588Y-111088866D02*
X56212969Y-111041247D01*
X56212969Y-111041247D02*
X56117731Y-110993628D01*
X56117731Y-110993628D02*
X55927255Y-110946009D01*
X55927255Y-110946009D02*
X55832017Y-110898390D01*
X55832017Y-110898390D02*
X55784398Y-110850771D01*
X55784398Y-110850771D02*
X55736779Y-110755533D01*
X55736779Y-110755533D02*
X55736779Y-110660295D01*
X55736779Y-110660295D02*
X55784398Y-110565057D01*
X55784398Y-110565057D02*
X55832017Y-110517438D01*
X55832017Y-110517438D02*
X55927255Y-110469819D01*
X55927255Y-110469819D02*
X56165350Y-110469819D01*
X56165350Y-110469819D02*
X56308207Y-110517438D01*
X56593922Y-110469819D02*
X57165350Y-110469819D01*
X56879636Y-111469819D02*
X56879636Y-110469819D01*
X41136779Y-116869819D02*
X41136779Y-115869819D01*
X41136779Y-115869819D02*
X41517731Y-115869819D01*
X41517731Y-115869819D02*
X41612969Y-115917438D01*
X41612969Y-115917438D02*
X41660588Y-115965057D01*
X41660588Y-115965057D02*
X41708207Y-116060295D01*
X41708207Y-116060295D02*
X41708207Y-116203152D01*
X41708207Y-116203152D02*
X41660588Y-116298390D01*
X41660588Y-116298390D02*
X41612969Y-116346009D01*
X41612969Y-116346009D02*
X41517731Y-116393628D01*
X41517731Y-116393628D02*
X41136779Y-116393628D01*
X42089160Y-116822200D02*
X42232017Y-116869819D01*
X42232017Y-116869819D02*
X42470112Y-116869819D01*
X42470112Y-116869819D02*
X42565350Y-116822200D01*
X42565350Y-116822200D02*
X42612969Y-116774580D01*
X42612969Y-116774580D02*
X42660588Y-116679342D01*
X42660588Y-116679342D02*
X42660588Y-116584104D01*
X42660588Y-116584104D02*
X42612969Y-116488866D01*
X42612969Y-116488866D02*
X42565350Y-116441247D01*
X42565350Y-116441247D02*
X42470112Y-116393628D01*
X42470112Y-116393628D02*
X42279636Y-116346009D01*
X42279636Y-116346009D02*
X42184398Y-116298390D01*
X42184398Y-116298390D02*
X42136779Y-116250771D01*
X42136779Y-116250771D02*
X42089160Y-116155533D01*
X42089160Y-116155533D02*
X42089160Y-116060295D01*
X42089160Y-116060295D02*
X42136779Y-115965057D01*
X42136779Y-115965057D02*
X42184398Y-115917438D01*
X42184398Y-115917438D02*
X42279636Y-115869819D01*
X42279636Y-115869819D02*
X42517731Y-115869819D01*
X42517731Y-115869819D02*
X42660588Y-115917438D01*
X43089160Y-116346009D02*
X43422493Y-116346009D01*
X43565350Y-116869819D02*
X43089160Y-116869819D01*
X43089160Y-116869819D02*
X43089160Y-115869819D01*
X43089160Y-115869819D02*
X43565350Y-115869819D01*
X43993922Y-116869819D02*
X43993922Y-115869819D01*
X43993922Y-115869819D02*
X44565350Y-116869819D01*
X44565350Y-116869819D02*
X44565350Y-115869819D01*
X44993922Y-116822200D02*
X45136779Y-116869819D01*
X45136779Y-116869819D02*
X45374874Y-116869819D01*
X45374874Y-116869819D02*
X45470112Y-116822200D01*
X45470112Y-116822200D02*
X45517731Y-116774580D01*
X45517731Y-116774580D02*
X45565350Y-116679342D01*
X45565350Y-116679342D02*
X45565350Y-116584104D01*
X45565350Y-116584104D02*
X45517731Y-116488866D01*
X45517731Y-116488866D02*
X45470112Y-116441247D01*
X45470112Y-116441247D02*
X45374874Y-116393628D01*
X45374874Y-116393628D02*
X45184398Y-116346009D01*
X45184398Y-116346009D02*
X45089160Y-116298390D01*
X45089160Y-116298390D02*
X45041541Y-116250771D01*
X45041541Y-116250771D02*
X44993922Y-116155533D01*
X44993922Y-116155533D02*
X44993922Y-116060295D01*
X44993922Y-116060295D02*
X45041541Y-115965057D01*
X45041541Y-115965057D02*
X45089160Y-115917438D01*
X45089160Y-115917438D02*
X45184398Y-115869819D01*
X45184398Y-115869819D02*
X45422493Y-115869819D01*
X45422493Y-115869819D02*
X45565350Y-115917438D01*
X45993922Y-116346009D02*
X46327255Y-116346009D01*
X46470112Y-116869819D02*
X45993922Y-116869819D01*
X45993922Y-116869819D02*
X45993922Y-115869819D01*
X45993922Y-115869819D02*
X46470112Y-115869819D01*
X46898684Y-116488866D02*
X47660589Y-116488866D01*
X47279636Y-116869819D02*
X47279636Y-116107914D01*
X79728573Y-141845342D02*
X80357145Y-141845342D01*
X80042859Y-143045342D02*
X80042859Y-141845342D01*
X81247621Y-143045342D02*
X80723811Y-143045342D01*
X80723811Y-143045342D02*
X80723811Y-141845342D01*
X81614287Y-142588200D02*
X82452383Y-142588200D01*
X83133335Y-142359628D02*
X83028573Y-142302485D01*
X83028573Y-142302485D02*
X82976192Y-142245342D01*
X82976192Y-142245342D02*
X82923811Y-142131057D01*
X82923811Y-142131057D02*
X82923811Y-142073914D01*
X82923811Y-142073914D02*
X82976192Y-141959628D01*
X82976192Y-141959628D02*
X83028573Y-141902485D01*
X83028573Y-141902485D02*
X83133335Y-141845342D01*
X83133335Y-141845342D02*
X83342859Y-141845342D01*
X83342859Y-141845342D02*
X83447621Y-141902485D01*
X83447621Y-141902485D02*
X83500002Y-141959628D01*
X83500002Y-141959628D02*
X83552383Y-142073914D01*
X83552383Y-142073914D02*
X83552383Y-142131057D01*
X83552383Y-142131057D02*
X83500002Y-142245342D01*
X83500002Y-142245342D02*
X83447621Y-142302485D01*
X83447621Y-142302485D02*
X83342859Y-142359628D01*
X83342859Y-142359628D02*
X83133335Y-142359628D01*
X83133335Y-142359628D02*
X83028573Y-142416771D01*
X83028573Y-142416771D02*
X82976192Y-142473914D01*
X82976192Y-142473914D02*
X82923811Y-142588200D01*
X82923811Y-142588200D02*
X82923811Y-142816771D01*
X82923811Y-142816771D02*
X82976192Y-142931057D01*
X82976192Y-142931057D02*
X83028573Y-142988200D01*
X83028573Y-142988200D02*
X83133335Y-143045342D01*
X83133335Y-143045342D02*
X83342859Y-143045342D01*
X83342859Y-143045342D02*
X83447621Y-142988200D01*
X83447621Y-142988200D02*
X83500002Y-142931057D01*
X83500002Y-142931057D02*
X83552383Y-142816771D01*
X83552383Y-142816771D02*
X83552383Y-142588200D01*
X83552383Y-142588200D02*
X83500002Y-142473914D01*
X83500002Y-142473914D02*
X83447621Y-142416771D01*
X83447621Y-142416771D02*
X83342859Y-142359628D01*
X84600002Y-143045342D02*
X83971430Y-143045342D01*
X84285716Y-143045342D02*
X84285716Y-141845342D01*
X84285716Y-141845342D02*
X84180954Y-142016771D01*
X84180954Y-142016771D02*
X84076192Y-142131057D01*
X84076192Y-142131057D02*
X83971430Y-142188200D01*
X85857144Y-142988200D02*
X86014287Y-143045342D01*
X86014287Y-143045342D02*
X86276192Y-143045342D01*
X86276192Y-143045342D02*
X86380954Y-142988200D01*
X86380954Y-142988200D02*
X86433335Y-142931057D01*
X86433335Y-142931057D02*
X86485716Y-142816771D01*
X86485716Y-142816771D02*
X86485716Y-142702485D01*
X86485716Y-142702485D02*
X86433335Y-142588200D01*
X86433335Y-142588200D02*
X86380954Y-142531057D01*
X86380954Y-142531057D02*
X86276192Y-142473914D01*
X86276192Y-142473914D02*
X86066668Y-142416771D01*
X86066668Y-142416771D02*
X85961906Y-142359628D01*
X85961906Y-142359628D02*
X85909525Y-142302485D01*
X85909525Y-142302485D02*
X85857144Y-142188200D01*
X85857144Y-142188200D02*
X85857144Y-142073914D01*
X85857144Y-142073914D02*
X85909525Y-141959628D01*
X85909525Y-141959628D02*
X85961906Y-141902485D01*
X85961906Y-141902485D02*
X86066668Y-141845342D01*
X86066668Y-141845342D02*
X86328573Y-141845342D01*
X86328573Y-141845342D02*
X86485716Y-141902485D01*
X87376192Y-142988200D02*
X87271430Y-143045342D01*
X87271430Y-143045342D02*
X87061906Y-143045342D01*
X87061906Y-143045342D02*
X86957144Y-142988200D01*
X86957144Y-142988200D02*
X86904763Y-142873914D01*
X86904763Y-142873914D02*
X86904763Y-142416771D01*
X86904763Y-142416771D02*
X86957144Y-142302485D01*
X86957144Y-142302485D02*
X87061906Y-142245342D01*
X87061906Y-142245342D02*
X87271430Y-142245342D01*
X87271430Y-142245342D02*
X87376192Y-142302485D01*
X87376192Y-142302485D02*
X87428573Y-142416771D01*
X87428573Y-142416771D02*
X87428573Y-142531057D01*
X87428573Y-142531057D02*
X86904763Y-142645342D01*
X87900001Y-142245342D02*
X87900001Y-143045342D01*
X87900001Y-142359628D02*
X87952382Y-142302485D01*
X87952382Y-142302485D02*
X88057144Y-142245342D01*
X88057144Y-142245342D02*
X88214287Y-142245342D01*
X88214287Y-142245342D02*
X88319049Y-142302485D01*
X88319049Y-142302485D02*
X88371430Y-142416771D01*
X88371430Y-142416771D02*
X88371430Y-143045342D01*
X88842858Y-142988200D02*
X88947620Y-143045342D01*
X88947620Y-143045342D02*
X89157144Y-143045342D01*
X89157144Y-143045342D02*
X89261906Y-142988200D01*
X89261906Y-142988200D02*
X89314287Y-142873914D01*
X89314287Y-142873914D02*
X89314287Y-142816771D01*
X89314287Y-142816771D02*
X89261906Y-142702485D01*
X89261906Y-142702485D02*
X89157144Y-142645342D01*
X89157144Y-142645342D02*
X89000001Y-142645342D01*
X89000001Y-142645342D02*
X88895239Y-142588200D01*
X88895239Y-142588200D02*
X88842858Y-142473914D01*
X88842858Y-142473914D02*
X88842858Y-142416771D01*
X88842858Y-142416771D02*
X88895239Y-142302485D01*
X88895239Y-142302485D02*
X89000001Y-142245342D01*
X89000001Y-142245342D02*
X89157144Y-142245342D01*
X89157144Y-142245342D02*
X89261906Y-142302485D01*
X89942858Y-143045342D02*
X89838096Y-142988200D01*
X89838096Y-142988200D02*
X89785715Y-142931057D01*
X89785715Y-142931057D02*
X89733334Y-142816771D01*
X89733334Y-142816771D02*
X89733334Y-142473914D01*
X89733334Y-142473914D02*
X89785715Y-142359628D01*
X89785715Y-142359628D02*
X89838096Y-142302485D01*
X89838096Y-142302485D02*
X89942858Y-142245342D01*
X89942858Y-142245342D02*
X90100001Y-142245342D01*
X90100001Y-142245342D02*
X90204763Y-142302485D01*
X90204763Y-142302485D02*
X90257144Y-142359628D01*
X90257144Y-142359628D02*
X90309525Y-142473914D01*
X90309525Y-142473914D02*
X90309525Y-142816771D01*
X90309525Y-142816771D02*
X90257144Y-142931057D01*
X90257144Y-142931057D02*
X90204763Y-142988200D01*
X90204763Y-142988200D02*
X90100001Y-143045342D01*
X90100001Y-143045342D02*
X89942858Y-143045342D01*
X90780953Y-143045342D02*
X90780953Y-142245342D01*
X90780953Y-142473914D02*
X90833334Y-142359628D01*
X90833334Y-142359628D02*
X90885715Y-142302485D01*
X90885715Y-142302485D02*
X90990477Y-142245342D01*
X90990477Y-142245342D02*
X91095239Y-142245342D01*
X92300000Y-143045342D02*
X92300000Y-141845342D01*
X92300000Y-141845342D02*
X92928572Y-143045342D01*
X92928572Y-143045342D02*
X92928572Y-141845342D01*
X93609524Y-143045342D02*
X93504762Y-142988200D01*
X93504762Y-142988200D02*
X93452381Y-142931057D01*
X93452381Y-142931057D02*
X93400000Y-142816771D01*
X93400000Y-142816771D02*
X93400000Y-142473914D01*
X93400000Y-142473914D02*
X93452381Y-142359628D01*
X93452381Y-142359628D02*
X93504762Y-142302485D01*
X93504762Y-142302485D02*
X93609524Y-142245342D01*
X93609524Y-142245342D02*
X93766667Y-142245342D01*
X93766667Y-142245342D02*
X93871429Y-142302485D01*
X93871429Y-142302485D02*
X93923810Y-142359628D01*
X93923810Y-142359628D02*
X93976191Y-142473914D01*
X93976191Y-142473914D02*
X93976191Y-142816771D01*
X93976191Y-142816771D02*
X93923810Y-142931057D01*
X93923810Y-142931057D02*
X93871429Y-142988200D01*
X93871429Y-142988200D02*
X93766667Y-143045342D01*
X93766667Y-143045342D02*
X93609524Y-143045342D01*
X94919048Y-143045342D02*
X94919048Y-141845342D01*
X94919048Y-142988200D02*
X94814286Y-143045342D01*
X94814286Y-143045342D02*
X94604762Y-143045342D01*
X94604762Y-143045342D02*
X94500000Y-142988200D01*
X94500000Y-142988200D02*
X94447619Y-142931057D01*
X94447619Y-142931057D02*
X94395238Y-142816771D01*
X94395238Y-142816771D02*
X94395238Y-142473914D01*
X94395238Y-142473914D02*
X94447619Y-142359628D01*
X94447619Y-142359628D02*
X94500000Y-142302485D01*
X94500000Y-142302485D02*
X94604762Y-142245342D01*
X94604762Y-142245342D02*
X94814286Y-142245342D01*
X94814286Y-142245342D02*
X94919048Y-142302485D01*
X95861905Y-142988200D02*
X95757143Y-143045342D01*
X95757143Y-143045342D02*
X95547619Y-143045342D01*
X95547619Y-143045342D02*
X95442857Y-142988200D01*
X95442857Y-142988200D02*
X95390476Y-142873914D01*
X95390476Y-142873914D02*
X95390476Y-142416771D01*
X95390476Y-142416771D02*
X95442857Y-142302485D01*
X95442857Y-142302485D02*
X95547619Y-142245342D01*
X95547619Y-142245342D02*
X95757143Y-142245342D01*
X95757143Y-142245342D02*
X95861905Y-142302485D01*
X95861905Y-142302485D02*
X95914286Y-142416771D01*
X95914286Y-142416771D02*
X95914286Y-142531057D01*
X95914286Y-142531057D02*
X95390476Y-142645342D01*
X97538095Y-143502485D02*
X97485714Y-143445342D01*
X97485714Y-143445342D02*
X97380952Y-143273914D01*
X97380952Y-143273914D02*
X97328571Y-143159628D01*
X97328571Y-143159628D02*
X97276190Y-142988200D01*
X97276190Y-142988200D02*
X97223809Y-142702485D01*
X97223809Y-142702485D02*
X97223809Y-142473914D01*
X97223809Y-142473914D02*
X97276190Y-142188200D01*
X97276190Y-142188200D02*
X97328571Y-142016771D01*
X97328571Y-142016771D02*
X97380952Y-141902485D01*
X97380952Y-141902485D02*
X97485714Y-141731057D01*
X97485714Y-141731057D02*
X97538095Y-141673914D01*
X97957142Y-143045342D02*
X97957142Y-142245342D01*
X97957142Y-142473914D02*
X98009523Y-142359628D01*
X98009523Y-142359628D02*
X98061904Y-142302485D01*
X98061904Y-142302485D02*
X98166666Y-142245342D01*
X98166666Y-142245342D02*
X98271428Y-142245342D01*
X99057142Y-142988200D02*
X98952380Y-143045342D01*
X98952380Y-143045342D02*
X98742856Y-143045342D01*
X98742856Y-143045342D02*
X98638094Y-142988200D01*
X98638094Y-142988200D02*
X98585713Y-142873914D01*
X98585713Y-142873914D02*
X98585713Y-142416771D01*
X98585713Y-142416771D02*
X98638094Y-142302485D01*
X98638094Y-142302485D02*
X98742856Y-142245342D01*
X98742856Y-142245342D02*
X98952380Y-142245342D01*
X98952380Y-142245342D02*
X99057142Y-142302485D01*
X99057142Y-142302485D02*
X99109523Y-142416771D01*
X99109523Y-142416771D02*
X99109523Y-142531057D01*
X99109523Y-142531057D02*
X98585713Y-142645342D01*
X99476189Y-142245342D02*
X99738094Y-143045342D01*
X99738094Y-143045342D02*
X99999999Y-142245342D01*
X101833332Y-143045342D02*
X101204760Y-143045342D01*
X101519046Y-143045342D02*
X101519046Y-141845342D01*
X101519046Y-141845342D02*
X101414284Y-142016771D01*
X101414284Y-142016771D02*
X101309522Y-142131057D01*
X101309522Y-142131057D02*
X101204760Y-142188200D01*
X102199998Y-143502485D02*
X102252379Y-143445342D01*
X102252379Y-143445342D02*
X102357141Y-143273914D01*
X102357141Y-143273914D02*
X102409522Y-143159628D01*
X102409522Y-143159628D02*
X102461903Y-142988200D01*
X102461903Y-142988200D02*
X102514284Y-142702485D01*
X102514284Y-142702485D02*
X102514284Y-142473914D01*
X102514284Y-142473914D02*
X102461903Y-142188200D01*
X102461903Y-142188200D02*
X102409522Y-142016771D01*
X102409522Y-142016771D02*
X102357141Y-141902485D01*
X102357141Y-141902485D02*
X102252379Y-141731057D01*
X102252379Y-141731057D02*
X102199998Y-141673914D01*
X97241541Y-131069819D02*
X97860588Y-131069819D01*
X97860588Y-131069819D02*
X97527255Y-131450771D01*
X97527255Y-131450771D02*
X97670112Y-131450771D01*
X97670112Y-131450771D02*
X97765350Y-131498390D01*
X97765350Y-131498390D02*
X97812969Y-131546009D01*
X97812969Y-131546009D02*
X97860588Y-131641247D01*
X97860588Y-131641247D02*
X97860588Y-131879342D01*
X97860588Y-131879342D02*
X97812969Y-131974580D01*
X97812969Y-131974580D02*
X97765350Y-132022200D01*
X97765350Y-132022200D02*
X97670112Y-132069819D01*
X97670112Y-132069819D02*
X97384398Y-132069819D01*
X97384398Y-132069819D02*
X97289160Y-132022200D01*
X97289160Y-132022200D02*
X97241541Y-131974580D01*
X98146303Y-131069819D02*
X98479636Y-132069819D01*
X98479636Y-132069819D02*
X98812969Y-131069819D01*
X99051065Y-131069819D02*
X99670112Y-131069819D01*
X99670112Y-131069819D02*
X99336779Y-131450771D01*
X99336779Y-131450771D02*
X99479636Y-131450771D01*
X99479636Y-131450771D02*
X99574874Y-131498390D01*
X99574874Y-131498390D02*
X99622493Y-131546009D01*
X99622493Y-131546009D02*
X99670112Y-131641247D01*
X99670112Y-131641247D02*
X99670112Y-131879342D01*
X99670112Y-131879342D02*
X99622493Y-131974580D01*
X99622493Y-131974580D02*
X99574874Y-132022200D01*
X99574874Y-132022200D02*
X99479636Y-132069819D01*
X99479636Y-132069819D02*
X99193922Y-132069819D01*
X99193922Y-132069819D02*
X99098684Y-132022200D01*
X99098684Y-132022200D02*
X99051065Y-131974580D01*
X93289160Y-131165057D02*
X93336779Y-131117438D01*
X93336779Y-131117438D02*
X93432017Y-131069819D01*
X93432017Y-131069819D02*
X93670112Y-131069819D01*
X93670112Y-131069819D02*
X93765350Y-131117438D01*
X93765350Y-131117438D02*
X93812969Y-131165057D01*
X93812969Y-131165057D02*
X93860588Y-131260295D01*
X93860588Y-131260295D02*
X93860588Y-131355533D01*
X93860588Y-131355533D02*
X93812969Y-131498390D01*
X93812969Y-131498390D02*
X93241541Y-132069819D01*
X93241541Y-132069819D02*
X93860588Y-132069819D01*
X94146303Y-131069819D02*
X94479636Y-132069819D01*
X94479636Y-132069819D02*
X94812969Y-131069819D01*
X95622493Y-131069819D02*
X95146303Y-131069819D01*
X95146303Y-131069819D02*
X95098684Y-131546009D01*
X95098684Y-131546009D02*
X95146303Y-131498390D01*
X95146303Y-131498390D02*
X95241541Y-131450771D01*
X95241541Y-131450771D02*
X95479636Y-131450771D01*
X95479636Y-131450771D02*
X95574874Y-131498390D01*
X95574874Y-131498390D02*
X95622493Y-131546009D01*
X95622493Y-131546009D02*
X95670112Y-131641247D01*
X95670112Y-131641247D02*
X95670112Y-131879342D01*
X95670112Y-131879342D02*
X95622493Y-131974580D01*
X95622493Y-131974580D02*
X95574874Y-132022200D01*
X95574874Y-132022200D02*
X95479636Y-132069819D01*
X95479636Y-132069819D02*
X95241541Y-132069819D01*
X95241541Y-132069819D02*
X95146303Y-132022200D01*
X95146303Y-132022200D02*
X95098684Y-131974580D01*
X89289160Y-131215057D02*
X89336779Y-131167438D01*
X89336779Y-131167438D02*
X89432017Y-131119819D01*
X89432017Y-131119819D02*
X89670112Y-131119819D01*
X89670112Y-131119819D02*
X89765350Y-131167438D01*
X89765350Y-131167438D02*
X89812969Y-131215057D01*
X89812969Y-131215057D02*
X89860588Y-131310295D01*
X89860588Y-131310295D02*
X89860588Y-131405533D01*
X89860588Y-131405533D02*
X89812969Y-131548390D01*
X89812969Y-131548390D02*
X89241541Y-132119819D01*
X89241541Y-132119819D02*
X89860588Y-132119819D01*
X90146303Y-131119819D02*
X90479636Y-132119819D01*
X90479636Y-132119819D02*
X90812969Y-131119819D01*
X91336779Y-131119819D02*
X91432017Y-131119819D01*
X91432017Y-131119819D02*
X91527255Y-131167438D01*
X91527255Y-131167438D02*
X91574874Y-131215057D01*
X91574874Y-131215057D02*
X91622493Y-131310295D01*
X91622493Y-131310295D02*
X91670112Y-131500771D01*
X91670112Y-131500771D02*
X91670112Y-131738866D01*
X91670112Y-131738866D02*
X91622493Y-131929342D01*
X91622493Y-131929342D02*
X91574874Y-132024580D01*
X91574874Y-132024580D02*
X91527255Y-132072200D01*
X91527255Y-132072200D02*
X91432017Y-132119819D01*
X91432017Y-132119819D02*
X91336779Y-132119819D01*
X91336779Y-132119819D02*
X91241541Y-132072200D01*
X91241541Y-132072200D02*
X91193922Y-132024580D01*
X91193922Y-132024580D02*
X91146303Y-131929342D01*
X91146303Y-131929342D02*
X91098684Y-131738866D01*
X91098684Y-131738866D02*
X91098684Y-131500771D01*
X91098684Y-131500771D02*
X91146303Y-131310295D01*
X91146303Y-131310295D02*
X91193922Y-131215057D01*
X91193922Y-131215057D02*
X91241541Y-131167438D01*
X91241541Y-131167438D02*
X91336779Y-131119819D01*
X111759875Y-132297619D02*
X110759875Y-132297619D01*
X110759875Y-132297619D02*
X110759875Y-131916667D01*
X110759875Y-131916667D02*
X110807494Y-131821429D01*
X110807494Y-131821429D02*
X110855113Y-131773810D01*
X110855113Y-131773810D02*
X110950351Y-131726191D01*
X110950351Y-131726191D02*
X111093208Y-131726191D01*
X111093208Y-131726191D02*
X111188446Y-131773810D01*
X111188446Y-131773810D02*
X111236065Y-131821429D01*
X111236065Y-131821429D02*
X111283684Y-131916667D01*
X111283684Y-131916667D02*
X111283684Y-132297619D01*
X111759875Y-131154762D02*
X111712256Y-131250000D01*
X111712256Y-131250000D02*
X111664636Y-131297619D01*
X111664636Y-131297619D02*
X111569398Y-131345238D01*
X111569398Y-131345238D02*
X111283684Y-131345238D01*
X111283684Y-131345238D02*
X111188446Y-131297619D01*
X111188446Y-131297619D02*
X111140827Y-131250000D01*
X111140827Y-131250000D02*
X111093208Y-131154762D01*
X111093208Y-131154762D02*
X111093208Y-131011905D01*
X111093208Y-131011905D02*
X111140827Y-130916667D01*
X111140827Y-130916667D02*
X111188446Y-130869048D01*
X111188446Y-130869048D02*
X111283684Y-130821429D01*
X111283684Y-130821429D02*
X111569398Y-130821429D01*
X111569398Y-130821429D02*
X111664636Y-130869048D01*
X111664636Y-130869048D02*
X111712256Y-130916667D01*
X111712256Y-130916667D02*
X111759875Y-131011905D01*
X111759875Y-131011905D02*
X111759875Y-131154762D01*
X111093208Y-130488095D02*
X111759875Y-130297619D01*
X111759875Y-130297619D02*
X111283684Y-130107143D01*
X111283684Y-130107143D02*
X111759875Y-129916667D01*
X111759875Y-129916667D02*
X111093208Y-129726191D01*
X111712256Y-128964286D02*
X111759875Y-129059524D01*
X111759875Y-129059524D02*
X111759875Y-129250000D01*
X111759875Y-129250000D02*
X111712256Y-129345238D01*
X111712256Y-129345238D02*
X111617017Y-129392857D01*
X111617017Y-129392857D02*
X111236065Y-129392857D01*
X111236065Y-129392857D02*
X111140827Y-129345238D01*
X111140827Y-129345238D02*
X111093208Y-129250000D01*
X111093208Y-129250000D02*
X111093208Y-129059524D01*
X111093208Y-129059524D02*
X111140827Y-128964286D01*
X111140827Y-128964286D02*
X111236065Y-128916667D01*
X111236065Y-128916667D02*
X111331303Y-128916667D01*
X111331303Y-128916667D02*
X111426541Y-129392857D01*
X111759875Y-128488095D02*
X111093208Y-128488095D01*
X111283684Y-128488095D02*
X111188446Y-128440476D01*
X111188446Y-128440476D02*
X111140827Y-128392857D01*
X111140827Y-128392857D02*
X111093208Y-128297619D01*
X111093208Y-128297619D02*
X111093208Y-128202381D01*
X111712256Y-127440476D02*
X111759875Y-127535714D01*
X111759875Y-127535714D02*
X111759875Y-127726190D01*
X111759875Y-127726190D02*
X111712256Y-127821428D01*
X111712256Y-127821428D02*
X111664636Y-127869047D01*
X111664636Y-127869047D02*
X111569398Y-127916666D01*
X111569398Y-127916666D02*
X111283684Y-127916666D01*
X111283684Y-127916666D02*
X111188446Y-127869047D01*
X111188446Y-127869047D02*
X111140827Y-127821428D01*
X111140827Y-127821428D02*
X111093208Y-127726190D01*
X111093208Y-127726190D02*
X111093208Y-127535714D01*
X111093208Y-127535714D02*
X111140827Y-127440476D01*
X111759875Y-126583333D02*
X111236065Y-126583333D01*
X111236065Y-126583333D02*
X111140827Y-126630952D01*
X111140827Y-126630952D02*
X111093208Y-126726190D01*
X111093208Y-126726190D02*
X111093208Y-126916666D01*
X111093208Y-126916666D02*
X111140827Y-127011904D01*
X111712256Y-126583333D02*
X111759875Y-126678571D01*
X111759875Y-126678571D02*
X111759875Y-126916666D01*
X111759875Y-126916666D02*
X111712256Y-127011904D01*
X111712256Y-127011904D02*
X111617017Y-127059523D01*
X111617017Y-127059523D02*
X111521779Y-127059523D01*
X111521779Y-127059523D02*
X111426541Y-127011904D01*
X111426541Y-127011904D02*
X111378922Y-126916666D01*
X111378922Y-126916666D02*
X111378922Y-126678571D01*
X111378922Y-126678571D02*
X111331303Y-126583333D01*
X111712256Y-126154761D02*
X111759875Y-126059523D01*
X111759875Y-126059523D02*
X111759875Y-125869047D01*
X111759875Y-125869047D02*
X111712256Y-125773809D01*
X111712256Y-125773809D02*
X111617017Y-125726190D01*
X111617017Y-125726190D02*
X111569398Y-125726190D01*
X111569398Y-125726190D02*
X111474160Y-125773809D01*
X111474160Y-125773809D02*
X111426541Y-125869047D01*
X111426541Y-125869047D02*
X111426541Y-126011904D01*
X111426541Y-126011904D02*
X111378922Y-126107142D01*
X111378922Y-126107142D02*
X111283684Y-126154761D01*
X111283684Y-126154761D02*
X111236065Y-126154761D01*
X111236065Y-126154761D02*
X111140827Y-126107142D01*
X111140827Y-126107142D02*
X111093208Y-126011904D01*
X111093208Y-126011904D02*
X111093208Y-125869047D01*
X111093208Y-125869047D02*
X111140827Y-125773809D01*
X111093208Y-125440475D02*
X111093208Y-125059523D01*
X110759875Y-125297618D02*
X111617017Y-125297618D01*
X111617017Y-125297618D02*
X111712256Y-125249999D01*
X111712256Y-125249999D02*
X111759875Y-125154761D01*
X111759875Y-125154761D02*
X111759875Y-125059523D01*
X113369819Y-131369047D02*
X112369819Y-131369047D01*
X112369819Y-131369047D02*
X112369819Y-130988095D01*
X112369819Y-130988095D02*
X112417438Y-130892857D01*
X112417438Y-130892857D02*
X112465057Y-130845238D01*
X112465057Y-130845238D02*
X112560295Y-130797619D01*
X112560295Y-130797619D02*
X112703152Y-130797619D01*
X112703152Y-130797619D02*
X112798390Y-130845238D01*
X112798390Y-130845238D02*
X112846009Y-130892857D01*
X112846009Y-130892857D02*
X112893628Y-130988095D01*
X112893628Y-130988095D02*
X112893628Y-131369047D01*
X112465057Y-130416666D02*
X112417438Y-130369047D01*
X112417438Y-130369047D02*
X112369819Y-130273809D01*
X112369819Y-130273809D02*
X112369819Y-130035714D01*
X112369819Y-130035714D02*
X112417438Y-129940476D01*
X112417438Y-129940476D02*
X112465057Y-129892857D01*
X112465057Y-129892857D02*
X112560295Y-129845238D01*
X112560295Y-129845238D02*
X112655533Y-129845238D01*
X112655533Y-129845238D02*
X112798390Y-129892857D01*
X112798390Y-129892857D02*
X113369819Y-130464285D01*
X113369819Y-130464285D02*
X113369819Y-129845238D01*
X113369819Y-128892857D02*
X113369819Y-129464285D01*
X113369819Y-129178571D02*
X112369819Y-129178571D01*
X112369819Y-129178571D02*
X112512676Y-129273809D01*
X112512676Y-129273809D02*
X112607914Y-129369047D01*
X112607914Y-129369047D02*
X112655533Y-129464285D01*
X113369819Y-127940476D02*
X113369819Y-128511904D01*
X113369819Y-128226190D02*
X112369819Y-128226190D01*
X112369819Y-128226190D02*
X112512676Y-128321428D01*
X112512676Y-128321428D02*
X112607914Y-128416666D01*
X112607914Y-128416666D02*
X112655533Y-128511904D01*
X112369819Y-127321428D02*
X112369819Y-127226190D01*
X112369819Y-127226190D02*
X112417438Y-127130952D01*
X112417438Y-127130952D02*
X112465057Y-127083333D01*
X112465057Y-127083333D02*
X112560295Y-127035714D01*
X112560295Y-127035714D02*
X112750771Y-126988095D01*
X112750771Y-126988095D02*
X112988866Y-126988095D01*
X112988866Y-126988095D02*
X113179342Y-127035714D01*
X113179342Y-127035714D02*
X113274580Y-127083333D01*
X113274580Y-127083333D02*
X113322200Y-127130952D01*
X113322200Y-127130952D02*
X113369819Y-127226190D01*
X113369819Y-127226190D02*
X113369819Y-127321428D01*
X113369819Y-127321428D02*
X113322200Y-127416666D01*
X113322200Y-127416666D02*
X113274580Y-127464285D01*
X113274580Y-127464285D02*
X113179342Y-127511904D01*
X113179342Y-127511904D02*
X112988866Y-127559523D01*
X112988866Y-127559523D02*
X112750771Y-127559523D01*
X112750771Y-127559523D02*
X112560295Y-127511904D01*
X112560295Y-127511904D02*
X112465057Y-127464285D01*
X112465057Y-127464285D02*
X112417438Y-127416666D01*
X112417438Y-127416666D02*
X112369819Y-127321428D01*
X113369819Y-126559523D02*
X112369819Y-126559523D01*
X112750771Y-126559523D02*
X112703152Y-126464285D01*
X112703152Y-126464285D02*
X112703152Y-126273809D01*
X112703152Y-126273809D02*
X112750771Y-126178571D01*
X112750771Y-126178571D02*
X112798390Y-126130952D01*
X112798390Y-126130952D02*
X112893628Y-126083333D01*
X112893628Y-126083333D02*
X113179342Y-126083333D01*
X113179342Y-126083333D02*
X113274580Y-126130952D01*
X113274580Y-126130952D02*
X113322200Y-126178571D01*
X113322200Y-126178571D02*
X113369819Y-126273809D01*
X113369819Y-126273809D02*
X113369819Y-126464285D01*
X113369819Y-126464285D02*
X113322200Y-126559523D01*
X120086779Y-133619819D02*
X120086779Y-134429342D01*
X120086779Y-134429342D02*
X120134398Y-134524580D01*
X120134398Y-134524580D02*
X120182017Y-134572200D01*
X120182017Y-134572200D02*
X120277255Y-134619819D01*
X120277255Y-134619819D02*
X120467731Y-134619819D01*
X120467731Y-134619819D02*
X120562969Y-134572200D01*
X120562969Y-134572200D02*
X120610588Y-134524580D01*
X120610588Y-134524580D02*
X120658207Y-134429342D01*
X120658207Y-134429342D02*
X120658207Y-133619819D01*
X121086779Y-134572200D02*
X121229636Y-134619819D01*
X121229636Y-134619819D02*
X121467731Y-134619819D01*
X121467731Y-134619819D02*
X121562969Y-134572200D01*
X121562969Y-134572200D02*
X121610588Y-134524580D01*
X121610588Y-134524580D02*
X121658207Y-134429342D01*
X121658207Y-134429342D02*
X121658207Y-134334104D01*
X121658207Y-134334104D02*
X121610588Y-134238866D01*
X121610588Y-134238866D02*
X121562969Y-134191247D01*
X121562969Y-134191247D02*
X121467731Y-134143628D01*
X121467731Y-134143628D02*
X121277255Y-134096009D01*
X121277255Y-134096009D02*
X121182017Y-134048390D01*
X121182017Y-134048390D02*
X121134398Y-134000771D01*
X121134398Y-134000771D02*
X121086779Y-133905533D01*
X121086779Y-133905533D02*
X121086779Y-133810295D01*
X121086779Y-133810295D02*
X121134398Y-133715057D01*
X121134398Y-133715057D02*
X121182017Y-133667438D01*
X121182017Y-133667438D02*
X121277255Y-133619819D01*
X121277255Y-133619819D02*
X121515350Y-133619819D01*
X121515350Y-133619819D02*
X121658207Y-133667438D01*
X122086779Y-134096009D02*
X122420112Y-134096009D01*
X122562969Y-134619819D02*
X122086779Y-134619819D01*
X122086779Y-134619819D02*
X122086779Y-133619819D01*
X122086779Y-133619819D02*
X122562969Y-133619819D01*
X123562969Y-134619819D02*
X123229636Y-134143628D01*
X122991541Y-134619819D02*
X122991541Y-133619819D01*
X122991541Y-133619819D02*
X123372493Y-133619819D01*
X123372493Y-133619819D02*
X123467731Y-133667438D01*
X123467731Y-133667438D02*
X123515350Y-133715057D01*
X123515350Y-133715057D02*
X123562969Y-133810295D01*
X123562969Y-133810295D02*
X123562969Y-133953152D01*
X123562969Y-133953152D02*
X123515350Y-134048390D01*
X123515350Y-134048390D02*
X123467731Y-134096009D01*
X123467731Y-134096009D02*
X123372493Y-134143628D01*
X123372493Y-134143628D02*
X122991541Y-134143628D01*
X123753446Y-134715057D02*
X124515350Y-134715057D01*
X125324874Y-134524580D02*
X125277255Y-134572200D01*
X125277255Y-134572200D02*
X125134398Y-134619819D01*
X125134398Y-134619819D02*
X125039160Y-134619819D01*
X125039160Y-134619819D02*
X124896303Y-134572200D01*
X124896303Y-134572200D02*
X124801065Y-134476961D01*
X124801065Y-134476961D02*
X124753446Y-134381723D01*
X124753446Y-134381723D02*
X124705827Y-134191247D01*
X124705827Y-134191247D02*
X124705827Y-134048390D01*
X124705827Y-134048390D02*
X124753446Y-133857914D01*
X124753446Y-133857914D02*
X124801065Y-133762676D01*
X124801065Y-133762676D02*
X124896303Y-133667438D01*
X124896303Y-133667438D02*
X125039160Y-133619819D01*
X125039160Y-133619819D02*
X125134398Y-133619819D01*
X125134398Y-133619819D02*
X125277255Y-133667438D01*
X125277255Y-133667438D02*
X125324874Y-133715057D01*
X125705827Y-134334104D02*
X126182017Y-134334104D01*
X125610589Y-134619819D02*
X125943922Y-133619819D01*
X125943922Y-133619819D02*
X126277255Y-134619819D01*
X126610589Y-134619819D02*
X126610589Y-133619819D01*
X126610589Y-133619819D02*
X126991541Y-133619819D01*
X126991541Y-133619819D02*
X127086779Y-133667438D01*
X127086779Y-133667438D02*
X127134398Y-133715057D01*
X127134398Y-133715057D02*
X127182017Y-133810295D01*
X127182017Y-133810295D02*
X127182017Y-133953152D01*
X127182017Y-133953152D02*
X127134398Y-134048390D01*
X127134398Y-134048390D02*
X127086779Y-134096009D01*
X127086779Y-134096009D02*
X126991541Y-134143628D01*
X126991541Y-134143628D02*
X126610589Y-134143628D01*
X119619819Y-126663220D02*
X120429342Y-126663220D01*
X120429342Y-126663220D02*
X120524580Y-126615601D01*
X120524580Y-126615601D02*
X120572200Y-126567982D01*
X120572200Y-126567982D02*
X120619819Y-126472744D01*
X120619819Y-126472744D02*
X120619819Y-126282268D01*
X120619819Y-126282268D02*
X120572200Y-126187030D01*
X120572200Y-126187030D02*
X120524580Y-126139411D01*
X120524580Y-126139411D02*
X120429342Y-126091792D01*
X120429342Y-126091792D02*
X119619819Y-126091792D01*
X120572200Y-125663220D02*
X120619819Y-125520363D01*
X120619819Y-125520363D02*
X120619819Y-125282268D01*
X120619819Y-125282268D02*
X120572200Y-125187030D01*
X120572200Y-125187030D02*
X120524580Y-125139411D01*
X120524580Y-125139411D02*
X120429342Y-125091792D01*
X120429342Y-125091792D02*
X120334104Y-125091792D01*
X120334104Y-125091792D02*
X120238866Y-125139411D01*
X120238866Y-125139411D02*
X120191247Y-125187030D01*
X120191247Y-125187030D02*
X120143628Y-125282268D01*
X120143628Y-125282268D02*
X120096009Y-125472744D01*
X120096009Y-125472744D02*
X120048390Y-125567982D01*
X120048390Y-125567982D02*
X120000771Y-125615601D01*
X120000771Y-125615601D02*
X119905533Y-125663220D01*
X119905533Y-125663220D02*
X119810295Y-125663220D01*
X119810295Y-125663220D02*
X119715057Y-125615601D01*
X119715057Y-125615601D02*
X119667438Y-125567982D01*
X119667438Y-125567982D02*
X119619819Y-125472744D01*
X119619819Y-125472744D02*
X119619819Y-125234649D01*
X119619819Y-125234649D02*
X119667438Y-125091792D01*
X120096009Y-124663220D02*
X120096009Y-124329887D01*
X120619819Y-124187030D02*
X120619819Y-124663220D01*
X120619819Y-124663220D02*
X119619819Y-124663220D01*
X119619819Y-124663220D02*
X119619819Y-124187030D01*
X120619819Y-123187030D02*
X120143628Y-123520363D01*
X120619819Y-123758458D02*
X119619819Y-123758458D01*
X119619819Y-123758458D02*
X119619819Y-123377506D01*
X119619819Y-123377506D02*
X119667438Y-123282268D01*
X119667438Y-123282268D02*
X119715057Y-123234649D01*
X119715057Y-123234649D02*
X119810295Y-123187030D01*
X119810295Y-123187030D02*
X119953152Y-123187030D01*
X119953152Y-123187030D02*
X120048390Y-123234649D01*
X120048390Y-123234649D02*
X120096009Y-123282268D01*
X120096009Y-123282268D02*
X120143628Y-123377506D01*
X120143628Y-123377506D02*
X120143628Y-123758458D01*
X120619819Y-121413220D02*
X119619819Y-121413220D01*
X119619819Y-121413220D02*
X119619819Y-121175125D01*
X119619819Y-121175125D02*
X119667438Y-121032268D01*
X119667438Y-121032268D02*
X119762676Y-120937030D01*
X119762676Y-120937030D02*
X119857914Y-120889411D01*
X119857914Y-120889411D02*
X120048390Y-120841792D01*
X120048390Y-120841792D02*
X120191247Y-120841792D01*
X120191247Y-120841792D02*
X120381723Y-120889411D01*
X120381723Y-120889411D02*
X120476961Y-120937030D01*
X120476961Y-120937030D02*
X120572200Y-121032268D01*
X120572200Y-121032268D02*
X120619819Y-121175125D01*
X120619819Y-121175125D02*
X120619819Y-121413220D01*
X120096009Y-120413220D02*
X120096009Y-120079887D01*
X120619819Y-119937030D02*
X120619819Y-120413220D01*
X120619819Y-120413220D02*
X119619819Y-120413220D01*
X119619819Y-120413220D02*
X119619819Y-119937030D01*
X120096009Y-119175125D02*
X120096009Y-119508458D01*
X120619819Y-119508458D02*
X119619819Y-119508458D01*
X119619819Y-119508458D02*
X119619819Y-119032268D01*
X120334104Y-118698934D02*
X120334104Y-118222744D01*
X120619819Y-118794172D02*
X119619819Y-118460839D01*
X119619819Y-118460839D02*
X120619819Y-118127506D01*
X119619819Y-117794172D02*
X120429342Y-117794172D01*
X120429342Y-117794172D02*
X120524580Y-117746553D01*
X120524580Y-117746553D02*
X120572200Y-117698934D01*
X120572200Y-117698934D02*
X120619819Y-117603696D01*
X120619819Y-117603696D02*
X120619819Y-117413220D01*
X120619819Y-117413220D02*
X120572200Y-117317982D01*
X120572200Y-117317982D02*
X120524580Y-117270363D01*
X120524580Y-117270363D02*
X120429342Y-117222744D01*
X120429342Y-117222744D02*
X119619819Y-117222744D01*
X120619819Y-116270363D02*
X120619819Y-116746553D01*
X120619819Y-116746553D02*
X119619819Y-116746553D01*
X119619819Y-116079886D02*
X119619819Y-115508458D01*
X120619819Y-115794172D02*
X119619819Y-115794172D01*
X121108207Y-113924580D02*
X121060588Y-113972200D01*
X121060588Y-113972200D02*
X120917731Y-114019819D01*
X120917731Y-114019819D02*
X120822493Y-114019819D01*
X120822493Y-114019819D02*
X120679636Y-113972200D01*
X120679636Y-113972200D02*
X120584398Y-113876961D01*
X120584398Y-113876961D02*
X120536779Y-113781723D01*
X120536779Y-113781723D02*
X120489160Y-113591247D01*
X120489160Y-113591247D02*
X120489160Y-113448390D01*
X120489160Y-113448390D02*
X120536779Y-113257914D01*
X120536779Y-113257914D02*
X120584398Y-113162676D01*
X120584398Y-113162676D02*
X120679636Y-113067438D01*
X120679636Y-113067438D02*
X120822493Y-113019819D01*
X120822493Y-113019819D02*
X120917731Y-113019819D01*
X120917731Y-113019819D02*
X121060588Y-113067438D01*
X121060588Y-113067438D02*
X121108207Y-113115057D01*
X121489160Y-113734104D02*
X121965350Y-113734104D01*
X121393922Y-114019819D02*
X121727255Y-113019819D01*
X121727255Y-113019819D02*
X122060588Y-114019819D01*
X122393922Y-114019819D02*
X122393922Y-113019819D01*
X122393922Y-113019819D02*
X122774874Y-113019819D01*
X122774874Y-113019819D02*
X122870112Y-113067438D01*
X122870112Y-113067438D02*
X122917731Y-113115057D01*
X122917731Y-113115057D02*
X122965350Y-113210295D01*
X122965350Y-113210295D02*
X122965350Y-113353152D01*
X122965350Y-113353152D02*
X122917731Y-113448390D01*
X122917731Y-113448390D02*
X122870112Y-113496009D01*
X122870112Y-113496009D02*
X122774874Y-113543628D01*
X122774874Y-113543628D02*
X122393922Y-113543628D01*
X123155827Y-114115057D02*
X123917731Y-114115057D01*
X124108208Y-113972200D02*
X124251065Y-114019819D01*
X124251065Y-114019819D02*
X124489160Y-114019819D01*
X124489160Y-114019819D02*
X124584398Y-113972200D01*
X124584398Y-113972200D02*
X124632017Y-113924580D01*
X124632017Y-113924580D02*
X124679636Y-113829342D01*
X124679636Y-113829342D02*
X124679636Y-113734104D01*
X124679636Y-113734104D02*
X124632017Y-113638866D01*
X124632017Y-113638866D02*
X124584398Y-113591247D01*
X124584398Y-113591247D02*
X124489160Y-113543628D01*
X124489160Y-113543628D02*
X124298684Y-113496009D01*
X124298684Y-113496009D02*
X124203446Y-113448390D01*
X124203446Y-113448390D02*
X124155827Y-113400771D01*
X124155827Y-113400771D02*
X124108208Y-113305533D01*
X124108208Y-113305533D02*
X124108208Y-113210295D01*
X124108208Y-113210295D02*
X124155827Y-113115057D01*
X124155827Y-113115057D02*
X124203446Y-113067438D01*
X124203446Y-113067438D02*
X124298684Y-113019819D01*
X124298684Y-113019819D02*
X124536779Y-113019819D01*
X124536779Y-113019819D02*
X124679636Y-113067438D01*
X125108208Y-113496009D02*
X125441541Y-113496009D01*
X125584398Y-114019819D02*
X125108208Y-114019819D01*
X125108208Y-114019819D02*
X125108208Y-113019819D01*
X125108208Y-113019819D02*
X125584398Y-113019819D01*
X126489160Y-114019819D02*
X126012970Y-114019819D01*
X126012970Y-114019819D02*
X126012970Y-113019819D01*
X78069819Y-133263220D02*
X77069819Y-133263220D01*
X78069819Y-132787030D02*
X77069819Y-132787030D01*
X77069819Y-132787030D02*
X78069819Y-132215602D01*
X78069819Y-132215602D02*
X77069819Y-132215602D01*
X77069819Y-131882268D02*
X77069819Y-131310840D01*
X78069819Y-131596554D02*
X77069819Y-131596554D01*
X78165057Y-131215602D02*
X78165057Y-130453697D01*
X77546009Y-130215601D02*
X77546009Y-129882268D01*
X78069819Y-129739411D02*
X78069819Y-130215601D01*
X78069819Y-130215601D02*
X77069819Y-130215601D01*
X77069819Y-130215601D02*
X77069819Y-129739411D01*
X78069819Y-129310839D02*
X77069819Y-129310839D01*
X77069819Y-129310839D02*
X78069819Y-128739411D01*
X78069819Y-128739411D02*
X77069819Y-128739411D01*
X78069819Y-141913220D02*
X77069819Y-141913220D01*
X77069819Y-141913220D02*
X77069819Y-141675125D01*
X77069819Y-141675125D02*
X77117438Y-141532268D01*
X77117438Y-141532268D02*
X77212676Y-141437030D01*
X77212676Y-141437030D02*
X77307914Y-141389411D01*
X77307914Y-141389411D02*
X77498390Y-141341792D01*
X77498390Y-141341792D02*
X77641247Y-141341792D01*
X77641247Y-141341792D02*
X77831723Y-141389411D01*
X77831723Y-141389411D02*
X77926961Y-141437030D01*
X77926961Y-141437030D02*
X78022200Y-141532268D01*
X78022200Y-141532268D02*
X78069819Y-141675125D01*
X78069819Y-141675125D02*
X78069819Y-141913220D01*
X78022200Y-140960839D02*
X78069819Y-140817982D01*
X78069819Y-140817982D02*
X78069819Y-140579887D01*
X78069819Y-140579887D02*
X78022200Y-140484649D01*
X78022200Y-140484649D02*
X77974580Y-140437030D01*
X77974580Y-140437030D02*
X77879342Y-140389411D01*
X77879342Y-140389411D02*
X77784104Y-140389411D01*
X77784104Y-140389411D02*
X77688866Y-140437030D01*
X77688866Y-140437030D02*
X77641247Y-140484649D01*
X77641247Y-140484649D02*
X77593628Y-140579887D01*
X77593628Y-140579887D02*
X77546009Y-140770363D01*
X77546009Y-140770363D02*
X77498390Y-140865601D01*
X77498390Y-140865601D02*
X77450771Y-140913220D01*
X77450771Y-140913220D02*
X77355533Y-140960839D01*
X77355533Y-140960839D02*
X77260295Y-140960839D01*
X77260295Y-140960839D02*
X77165057Y-140913220D01*
X77165057Y-140913220D02*
X77117438Y-140865601D01*
X77117438Y-140865601D02*
X77069819Y-140770363D01*
X77069819Y-140770363D02*
X77069819Y-140532268D01*
X77069819Y-140532268D02*
X77117438Y-140389411D01*
X77546009Y-139960839D02*
X77546009Y-139627506D01*
X78069819Y-139484649D02*
X78069819Y-139960839D01*
X78069819Y-139960839D02*
X77069819Y-139960839D01*
X77069819Y-139960839D02*
X77069819Y-139484649D01*
X77069819Y-139198934D02*
X77069819Y-138627506D01*
X78069819Y-138913220D02*
X77069819Y-138913220D01*
X78165057Y-138532268D02*
X78165057Y-137770363D01*
X77546009Y-137532267D02*
X77546009Y-137198934D01*
X78069819Y-137056077D02*
X78069819Y-137532267D01*
X78069819Y-137532267D02*
X77069819Y-137532267D01*
X77069819Y-137532267D02*
X77069819Y-137056077D01*
X78069819Y-136627505D02*
X77069819Y-136627505D01*
X77069819Y-136627505D02*
X78069819Y-136056077D01*
X78069819Y-136056077D02*
X77069819Y-136056077D01*
X85769819Y-130563220D02*
X84769819Y-130563220D01*
X84769819Y-130563220D02*
X84769819Y-130325125D01*
X84769819Y-130325125D02*
X84817438Y-130182268D01*
X84817438Y-130182268D02*
X84912676Y-130087030D01*
X84912676Y-130087030D02*
X85007914Y-130039411D01*
X85007914Y-130039411D02*
X85198390Y-129991792D01*
X85198390Y-129991792D02*
X85341247Y-129991792D01*
X85341247Y-129991792D02*
X85531723Y-130039411D01*
X85531723Y-130039411D02*
X85626961Y-130087030D01*
X85626961Y-130087030D02*
X85722200Y-130182268D01*
X85722200Y-130182268D02*
X85769819Y-130325125D01*
X85769819Y-130325125D02*
X85769819Y-130563220D01*
X84769819Y-129372744D02*
X84769819Y-129182268D01*
X84769819Y-129182268D02*
X84817438Y-129087030D01*
X84817438Y-129087030D02*
X84912676Y-128991792D01*
X84912676Y-128991792D02*
X85103152Y-128944173D01*
X85103152Y-128944173D02*
X85436485Y-128944173D01*
X85436485Y-128944173D02*
X85626961Y-128991792D01*
X85626961Y-128991792D02*
X85722200Y-129087030D01*
X85722200Y-129087030D02*
X85769819Y-129182268D01*
X85769819Y-129182268D02*
X85769819Y-129372744D01*
X85769819Y-129372744D02*
X85722200Y-129467982D01*
X85722200Y-129467982D02*
X85626961Y-129563220D01*
X85626961Y-129563220D02*
X85436485Y-129610839D01*
X85436485Y-129610839D02*
X85103152Y-129610839D01*
X85103152Y-129610839D02*
X84912676Y-129563220D01*
X84912676Y-129563220D02*
X84817438Y-129467982D01*
X84817438Y-129467982D02*
X84769819Y-129372744D01*
X84769819Y-128515601D02*
X85579342Y-128515601D01*
X85579342Y-128515601D02*
X85674580Y-128467982D01*
X85674580Y-128467982D02*
X85722200Y-128420363D01*
X85722200Y-128420363D02*
X85769819Y-128325125D01*
X85769819Y-128325125D02*
X85769819Y-128134649D01*
X85769819Y-128134649D02*
X85722200Y-128039411D01*
X85722200Y-128039411D02*
X85674580Y-127991792D01*
X85674580Y-127991792D02*
X85579342Y-127944173D01*
X85579342Y-127944173D02*
X84769819Y-127944173D01*
X84769819Y-127610839D02*
X84769819Y-127039411D01*
X85769819Y-127325125D02*
X84769819Y-127325125D01*
X85865057Y-126944173D02*
X85865057Y-126182268D01*
X85246009Y-125944172D02*
X85246009Y-125610839D01*
X85769819Y-125467982D02*
X85769819Y-125944172D01*
X85769819Y-125944172D02*
X84769819Y-125944172D01*
X84769819Y-125944172D02*
X84769819Y-125467982D01*
X85769819Y-125039410D02*
X84769819Y-125039410D01*
X84769819Y-125039410D02*
X85769819Y-124467982D01*
X85769819Y-124467982D02*
X84769819Y-124467982D01*
X85769819Y-138691792D02*
X85293628Y-139025125D01*
X85769819Y-139263220D02*
X84769819Y-139263220D01*
X84769819Y-139263220D02*
X84769819Y-138882268D01*
X84769819Y-138882268D02*
X84817438Y-138787030D01*
X84817438Y-138787030D02*
X84865057Y-138739411D01*
X84865057Y-138739411D02*
X84960295Y-138691792D01*
X84960295Y-138691792D02*
X85103152Y-138691792D01*
X85103152Y-138691792D02*
X85198390Y-138739411D01*
X85198390Y-138739411D02*
X85246009Y-138787030D01*
X85246009Y-138787030D02*
X85293628Y-138882268D01*
X85293628Y-138882268D02*
X85293628Y-139263220D01*
X85246009Y-138263220D02*
X85246009Y-137929887D01*
X85769819Y-137787030D02*
X85769819Y-138263220D01*
X85769819Y-138263220D02*
X84769819Y-138263220D01*
X84769819Y-138263220D02*
X84769819Y-137787030D01*
X85722200Y-137406077D02*
X85769819Y-137263220D01*
X85769819Y-137263220D02*
X85769819Y-137025125D01*
X85769819Y-137025125D02*
X85722200Y-136929887D01*
X85722200Y-136929887D02*
X85674580Y-136882268D01*
X85674580Y-136882268D02*
X85579342Y-136834649D01*
X85579342Y-136834649D02*
X85484104Y-136834649D01*
X85484104Y-136834649D02*
X85388866Y-136882268D01*
X85388866Y-136882268D02*
X85341247Y-136929887D01*
X85341247Y-136929887D02*
X85293628Y-137025125D01*
X85293628Y-137025125D02*
X85246009Y-137215601D01*
X85246009Y-137215601D02*
X85198390Y-137310839D01*
X85198390Y-137310839D02*
X85150771Y-137358458D01*
X85150771Y-137358458D02*
X85055533Y-137406077D01*
X85055533Y-137406077D02*
X84960295Y-137406077D01*
X84960295Y-137406077D02*
X84865057Y-137358458D01*
X84865057Y-137358458D02*
X84817438Y-137310839D01*
X84817438Y-137310839D02*
X84769819Y-137215601D01*
X84769819Y-137215601D02*
X84769819Y-136977506D01*
X84769819Y-136977506D02*
X84817438Y-136834649D01*
X85246009Y-136406077D02*
X85246009Y-136072744D01*
X85769819Y-135929887D02*
X85769819Y-136406077D01*
X85769819Y-136406077D02*
X84769819Y-136406077D01*
X84769819Y-136406077D02*
X84769819Y-135929887D01*
X84769819Y-135644172D02*
X84769819Y-135072744D01*
X85769819Y-135358458D02*
X84769819Y-135358458D01*
X85865057Y-134977506D02*
X85865057Y-134215601D01*
X85246009Y-133977505D02*
X85246009Y-133644172D01*
X85769819Y-133501315D02*
X85769819Y-133977505D01*
X85769819Y-133977505D02*
X84769819Y-133977505D01*
X84769819Y-133977505D02*
X84769819Y-133501315D01*
X85769819Y-133072743D02*
X84769819Y-133072743D01*
X84769819Y-133072743D02*
X85769819Y-132501315D01*
X85769819Y-132501315D02*
X84769819Y-132501315D01*
X55336779Y-133869819D02*
X55336779Y-134679342D01*
X55336779Y-134679342D02*
X55384398Y-134774580D01*
X55384398Y-134774580D02*
X55432017Y-134822200D01*
X55432017Y-134822200D02*
X55527255Y-134869819D01*
X55527255Y-134869819D02*
X55717731Y-134869819D01*
X55717731Y-134869819D02*
X55812969Y-134822200D01*
X55812969Y-134822200D02*
X55860588Y-134774580D01*
X55860588Y-134774580D02*
X55908207Y-134679342D01*
X55908207Y-134679342D02*
X55908207Y-133869819D01*
X56336779Y-134822200D02*
X56479636Y-134869819D01*
X56479636Y-134869819D02*
X56717731Y-134869819D01*
X56717731Y-134869819D02*
X56812969Y-134822200D01*
X56812969Y-134822200D02*
X56860588Y-134774580D01*
X56860588Y-134774580D02*
X56908207Y-134679342D01*
X56908207Y-134679342D02*
X56908207Y-134584104D01*
X56908207Y-134584104D02*
X56860588Y-134488866D01*
X56860588Y-134488866D02*
X56812969Y-134441247D01*
X56812969Y-134441247D02*
X56717731Y-134393628D01*
X56717731Y-134393628D02*
X56527255Y-134346009D01*
X56527255Y-134346009D02*
X56432017Y-134298390D01*
X56432017Y-134298390D02*
X56384398Y-134250771D01*
X56384398Y-134250771D02*
X56336779Y-134155533D01*
X56336779Y-134155533D02*
X56336779Y-134060295D01*
X56336779Y-134060295D02*
X56384398Y-133965057D01*
X56384398Y-133965057D02*
X56432017Y-133917438D01*
X56432017Y-133917438D02*
X56527255Y-133869819D01*
X56527255Y-133869819D02*
X56765350Y-133869819D01*
X56765350Y-133869819D02*
X56908207Y-133917438D01*
X57336779Y-134346009D02*
X57670112Y-134346009D01*
X57812969Y-134869819D02*
X57336779Y-134869819D01*
X57336779Y-134869819D02*
X57336779Y-133869819D01*
X57336779Y-133869819D02*
X57812969Y-133869819D01*
X58812969Y-134869819D02*
X58479636Y-134393628D01*
X58241541Y-134869819D02*
X58241541Y-133869819D01*
X58241541Y-133869819D02*
X58622493Y-133869819D01*
X58622493Y-133869819D02*
X58717731Y-133917438D01*
X58717731Y-133917438D02*
X58765350Y-133965057D01*
X58765350Y-133965057D02*
X58812969Y-134060295D01*
X58812969Y-134060295D02*
X58812969Y-134203152D01*
X58812969Y-134203152D02*
X58765350Y-134298390D01*
X58765350Y-134298390D02*
X58717731Y-134346009D01*
X58717731Y-134346009D02*
X58622493Y-134393628D01*
X58622493Y-134393628D02*
X58241541Y-134393628D01*
X59003446Y-134965057D02*
X59765350Y-134965057D01*
X60479636Y-134869819D02*
X60003446Y-134869819D01*
X60003446Y-134869819D02*
X60003446Y-133869819D01*
X60812970Y-134346009D02*
X61146303Y-134346009D01*
X61289160Y-134869819D02*
X60812970Y-134869819D01*
X60812970Y-134869819D02*
X60812970Y-133869819D01*
X60812970Y-133869819D02*
X61289160Y-133869819D01*
X61717732Y-134869819D02*
X61717732Y-133869819D01*
X61717732Y-133869819D02*
X61955827Y-133869819D01*
X61955827Y-133869819D02*
X62098684Y-133917438D01*
X62098684Y-133917438D02*
X62193922Y-134012676D01*
X62193922Y-134012676D02*
X62241541Y-134107914D01*
X62241541Y-134107914D02*
X62289160Y-134298390D01*
X62289160Y-134298390D02*
X62289160Y-134441247D01*
X62289160Y-134441247D02*
X62241541Y-134631723D01*
X62241541Y-134631723D02*
X62193922Y-134726961D01*
X62193922Y-134726961D02*
X62098684Y-134822200D01*
X62098684Y-134822200D02*
X61955827Y-134869819D01*
X61955827Y-134869819D02*
X61717732Y-134869819D01*
X62479637Y-134965057D02*
X63241541Y-134965057D01*
X63479637Y-134346009D02*
X63812970Y-134346009D01*
X63955827Y-134869819D02*
X63479637Y-134869819D01*
X63479637Y-134869819D02*
X63479637Y-133869819D01*
X63479637Y-133869819D02*
X63955827Y-133869819D01*
X64384399Y-134869819D02*
X64384399Y-133869819D01*
X64384399Y-133869819D02*
X64955827Y-134869819D01*
X64955827Y-134869819D02*
X64955827Y-133869819D01*
X69086779Y-137869819D02*
X69086779Y-136869819D01*
X69086779Y-136869819D02*
X69420112Y-137584104D01*
X69420112Y-137584104D02*
X69753445Y-136869819D01*
X69753445Y-136869819D02*
X69753445Y-137869819D01*
X70229636Y-137869819D02*
X70229636Y-136869819D01*
X70658207Y-137822200D02*
X70801064Y-137869819D01*
X70801064Y-137869819D02*
X71039159Y-137869819D01*
X71039159Y-137869819D02*
X71134397Y-137822200D01*
X71134397Y-137822200D02*
X71182016Y-137774580D01*
X71182016Y-137774580D02*
X71229635Y-137679342D01*
X71229635Y-137679342D02*
X71229635Y-137584104D01*
X71229635Y-137584104D02*
X71182016Y-137488866D01*
X71182016Y-137488866D02*
X71134397Y-137441247D01*
X71134397Y-137441247D02*
X71039159Y-137393628D01*
X71039159Y-137393628D02*
X70848683Y-137346009D01*
X70848683Y-137346009D02*
X70753445Y-137298390D01*
X70753445Y-137298390D02*
X70705826Y-137250771D01*
X70705826Y-137250771D02*
X70658207Y-137155533D01*
X70658207Y-137155533D02*
X70658207Y-137060295D01*
X70658207Y-137060295D02*
X70705826Y-136965057D01*
X70705826Y-136965057D02*
X70753445Y-136917438D01*
X70753445Y-136917438D02*
X70848683Y-136869819D01*
X70848683Y-136869819D02*
X71086778Y-136869819D01*
X71086778Y-136869819D02*
X71229635Y-136917438D01*
X71848683Y-136869819D02*
X72039159Y-136869819D01*
X72039159Y-136869819D02*
X72134397Y-136917438D01*
X72134397Y-136917438D02*
X72229635Y-137012676D01*
X72229635Y-137012676D02*
X72277254Y-137203152D01*
X72277254Y-137203152D02*
X72277254Y-137536485D01*
X72277254Y-137536485D02*
X72229635Y-137726961D01*
X72229635Y-137726961D02*
X72134397Y-137822200D01*
X72134397Y-137822200D02*
X72039159Y-137869819D01*
X72039159Y-137869819D02*
X71848683Y-137869819D01*
X71848683Y-137869819D02*
X71753445Y-137822200D01*
X71753445Y-137822200D02*
X71658207Y-137726961D01*
X71658207Y-137726961D02*
X71610588Y-137536485D01*
X71610588Y-137536485D02*
X71610588Y-137203152D01*
X71610588Y-137203152D02*
X71658207Y-137012676D01*
X71658207Y-137012676D02*
X71753445Y-136917438D01*
X71753445Y-136917438D02*
X71848683Y-136869819D01*
X64836779Y-137869819D02*
X64836779Y-136869819D01*
X64836779Y-136869819D02*
X65170112Y-137584104D01*
X65170112Y-137584104D02*
X65503445Y-136869819D01*
X65503445Y-136869819D02*
X65503445Y-137869819D01*
X66170112Y-136869819D02*
X66360588Y-136869819D01*
X66360588Y-136869819D02*
X66455826Y-136917438D01*
X66455826Y-136917438D02*
X66551064Y-137012676D01*
X66551064Y-137012676D02*
X66598683Y-137203152D01*
X66598683Y-137203152D02*
X66598683Y-137536485D01*
X66598683Y-137536485D02*
X66551064Y-137726961D01*
X66551064Y-137726961D02*
X66455826Y-137822200D01*
X66455826Y-137822200D02*
X66360588Y-137869819D01*
X66360588Y-137869819D02*
X66170112Y-137869819D01*
X66170112Y-137869819D02*
X66074874Y-137822200D01*
X66074874Y-137822200D02*
X65979636Y-137726961D01*
X65979636Y-137726961D02*
X65932017Y-137536485D01*
X65932017Y-137536485D02*
X65932017Y-137203152D01*
X65932017Y-137203152D02*
X65979636Y-137012676D01*
X65979636Y-137012676D02*
X66074874Y-136917438D01*
X66074874Y-136917438D02*
X66170112Y-136869819D01*
X66979636Y-137822200D02*
X67122493Y-137869819D01*
X67122493Y-137869819D02*
X67360588Y-137869819D01*
X67360588Y-137869819D02*
X67455826Y-137822200D01*
X67455826Y-137822200D02*
X67503445Y-137774580D01*
X67503445Y-137774580D02*
X67551064Y-137679342D01*
X67551064Y-137679342D02*
X67551064Y-137584104D01*
X67551064Y-137584104D02*
X67503445Y-137488866D01*
X67503445Y-137488866D02*
X67455826Y-137441247D01*
X67455826Y-137441247D02*
X67360588Y-137393628D01*
X67360588Y-137393628D02*
X67170112Y-137346009D01*
X67170112Y-137346009D02*
X67074874Y-137298390D01*
X67074874Y-137298390D02*
X67027255Y-137250771D01*
X67027255Y-137250771D02*
X66979636Y-137155533D01*
X66979636Y-137155533D02*
X66979636Y-137060295D01*
X66979636Y-137060295D02*
X67027255Y-136965057D01*
X67027255Y-136965057D02*
X67074874Y-136917438D01*
X67074874Y-136917438D02*
X67170112Y-136869819D01*
X67170112Y-136869819D02*
X67408207Y-136869819D01*
X67408207Y-136869819D02*
X67551064Y-136917438D01*
X67979636Y-137869819D02*
X67979636Y-136869819D01*
X50336779Y-139269819D02*
X50336779Y-138269819D01*
X50336779Y-138269819D02*
X50908207Y-139269819D01*
X50908207Y-139269819D02*
X50908207Y-138269819D01*
X51955826Y-139269819D02*
X51622493Y-138793628D01*
X51384398Y-139269819D02*
X51384398Y-138269819D01*
X51384398Y-138269819D02*
X51765350Y-138269819D01*
X51765350Y-138269819D02*
X51860588Y-138317438D01*
X51860588Y-138317438D02*
X51908207Y-138365057D01*
X51908207Y-138365057D02*
X51955826Y-138460295D01*
X51955826Y-138460295D02*
X51955826Y-138603152D01*
X51955826Y-138603152D02*
X51908207Y-138698390D01*
X51908207Y-138698390D02*
X51860588Y-138746009D01*
X51860588Y-138746009D02*
X51765350Y-138793628D01*
X51765350Y-138793628D02*
X51384398Y-138793628D01*
X52717731Y-138746009D02*
X52384398Y-138746009D01*
X52384398Y-139269819D02*
X52384398Y-138269819D01*
X52384398Y-138269819D02*
X52860588Y-138269819D01*
X53003446Y-139365057D02*
X53765350Y-139365057D01*
X54574874Y-139174580D02*
X54527255Y-139222200D01*
X54527255Y-139222200D02*
X54384398Y-139269819D01*
X54384398Y-139269819D02*
X54289160Y-139269819D01*
X54289160Y-139269819D02*
X54146303Y-139222200D01*
X54146303Y-139222200D02*
X54051065Y-139126961D01*
X54051065Y-139126961D02*
X54003446Y-139031723D01*
X54003446Y-139031723D02*
X53955827Y-138841247D01*
X53955827Y-138841247D02*
X53955827Y-138698390D01*
X53955827Y-138698390D02*
X54003446Y-138507914D01*
X54003446Y-138507914D02*
X54051065Y-138412676D01*
X54051065Y-138412676D02*
X54146303Y-138317438D01*
X54146303Y-138317438D02*
X54289160Y-138269819D01*
X54289160Y-138269819D02*
X54384398Y-138269819D01*
X54384398Y-138269819D02*
X54527255Y-138317438D01*
X54527255Y-138317438D02*
X54574874Y-138365057D01*
X54955827Y-139222200D02*
X55098684Y-139269819D01*
X55098684Y-139269819D02*
X55336779Y-139269819D01*
X55336779Y-139269819D02*
X55432017Y-139222200D01*
X55432017Y-139222200D02*
X55479636Y-139174580D01*
X55479636Y-139174580D02*
X55527255Y-139079342D01*
X55527255Y-139079342D02*
X55527255Y-138984104D01*
X55527255Y-138984104D02*
X55479636Y-138888866D01*
X55479636Y-138888866D02*
X55432017Y-138841247D01*
X55432017Y-138841247D02*
X55336779Y-138793628D01*
X55336779Y-138793628D02*
X55146303Y-138746009D01*
X55146303Y-138746009D02*
X55051065Y-138698390D01*
X55051065Y-138698390D02*
X55003446Y-138650771D01*
X55003446Y-138650771D02*
X54955827Y-138555533D01*
X54955827Y-138555533D02*
X54955827Y-138460295D01*
X54955827Y-138460295D02*
X55003446Y-138365057D01*
X55003446Y-138365057D02*
X55051065Y-138317438D01*
X55051065Y-138317438D02*
X55146303Y-138269819D01*
X55146303Y-138269819D02*
X55384398Y-138269819D01*
X55384398Y-138269819D02*
X55527255Y-138317438D01*
X55955827Y-139269819D02*
X55955827Y-138269819D01*
X55955827Y-138269819D02*
X56527255Y-139269819D01*
X56527255Y-139269819D02*
X56527255Y-138269819D01*
X49736779Y-125669819D02*
X49736779Y-124669819D01*
X49736779Y-124669819D02*
X50308207Y-125669819D01*
X50308207Y-125669819D02*
X50308207Y-124669819D01*
X51355826Y-125669819D02*
X51022493Y-125193628D01*
X50784398Y-125669819D02*
X50784398Y-124669819D01*
X50784398Y-124669819D02*
X51165350Y-124669819D01*
X51165350Y-124669819D02*
X51260588Y-124717438D01*
X51260588Y-124717438D02*
X51308207Y-124765057D01*
X51308207Y-124765057D02*
X51355826Y-124860295D01*
X51355826Y-124860295D02*
X51355826Y-125003152D01*
X51355826Y-125003152D02*
X51308207Y-125098390D01*
X51308207Y-125098390D02*
X51260588Y-125146009D01*
X51260588Y-125146009D02*
X51165350Y-125193628D01*
X51165350Y-125193628D02*
X50784398Y-125193628D01*
X52117731Y-125146009D02*
X51784398Y-125146009D01*
X51784398Y-125669819D02*
X51784398Y-124669819D01*
X51784398Y-124669819D02*
X52260588Y-124669819D01*
X52403446Y-125765057D02*
X53165350Y-125765057D01*
X53355827Y-125622200D02*
X53498684Y-125669819D01*
X53498684Y-125669819D02*
X53736779Y-125669819D01*
X53736779Y-125669819D02*
X53832017Y-125622200D01*
X53832017Y-125622200D02*
X53879636Y-125574580D01*
X53879636Y-125574580D02*
X53927255Y-125479342D01*
X53927255Y-125479342D02*
X53927255Y-125384104D01*
X53927255Y-125384104D02*
X53879636Y-125288866D01*
X53879636Y-125288866D02*
X53832017Y-125241247D01*
X53832017Y-125241247D02*
X53736779Y-125193628D01*
X53736779Y-125193628D02*
X53546303Y-125146009D01*
X53546303Y-125146009D02*
X53451065Y-125098390D01*
X53451065Y-125098390D02*
X53403446Y-125050771D01*
X53403446Y-125050771D02*
X53355827Y-124955533D01*
X53355827Y-124955533D02*
X53355827Y-124860295D01*
X53355827Y-124860295D02*
X53403446Y-124765057D01*
X53403446Y-124765057D02*
X53451065Y-124717438D01*
X53451065Y-124717438D02*
X53546303Y-124669819D01*
X53546303Y-124669819D02*
X53784398Y-124669819D01*
X53784398Y-124669819D02*
X53927255Y-124717438D01*
X54927255Y-125574580D02*
X54879636Y-125622200D01*
X54879636Y-125622200D02*
X54736779Y-125669819D01*
X54736779Y-125669819D02*
X54641541Y-125669819D01*
X54641541Y-125669819D02*
X54498684Y-125622200D01*
X54498684Y-125622200D02*
X54403446Y-125526961D01*
X54403446Y-125526961D02*
X54355827Y-125431723D01*
X54355827Y-125431723D02*
X54308208Y-125241247D01*
X54308208Y-125241247D02*
X54308208Y-125098390D01*
X54308208Y-125098390D02*
X54355827Y-124907914D01*
X54355827Y-124907914D02*
X54403446Y-124812676D01*
X54403446Y-124812676D02*
X54498684Y-124717438D01*
X54498684Y-124717438D02*
X54641541Y-124669819D01*
X54641541Y-124669819D02*
X54736779Y-124669819D01*
X54736779Y-124669819D02*
X54879636Y-124717438D01*
X54879636Y-124717438D02*
X54927255Y-124765057D01*
X55355827Y-125669819D02*
X55355827Y-124669819D01*
X55927255Y-125669819D02*
X55498684Y-125098390D01*
X55927255Y-124669819D02*
X55355827Y-125241247D01*
X42136779Y-119119819D02*
X42136779Y-118119819D01*
X42136779Y-118119819D02*
X42708207Y-119119819D01*
X42708207Y-119119819D02*
X42708207Y-118119819D01*
X43755826Y-119119819D02*
X43422493Y-118643628D01*
X43184398Y-119119819D02*
X43184398Y-118119819D01*
X43184398Y-118119819D02*
X43565350Y-118119819D01*
X43565350Y-118119819D02*
X43660588Y-118167438D01*
X43660588Y-118167438D02*
X43708207Y-118215057D01*
X43708207Y-118215057D02*
X43755826Y-118310295D01*
X43755826Y-118310295D02*
X43755826Y-118453152D01*
X43755826Y-118453152D02*
X43708207Y-118548390D01*
X43708207Y-118548390D02*
X43660588Y-118596009D01*
X43660588Y-118596009D02*
X43565350Y-118643628D01*
X43565350Y-118643628D02*
X43184398Y-118643628D01*
X44517731Y-118596009D02*
X44184398Y-118596009D01*
X44184398Y-119119819D02*
X44184398Y-118119819D01*
X44184398Y-118119819D02*
X44660588Y-118119819D01*
X44803446Y-119215057D02*
X45565350Y-119215057D01*
X45803446Y-119119819D02*
X45803446Y-118119819D01*
X46851064Y-119119819D02*
X46517731Y-118643628D01*
X46279636Y-119119819D02*
X46279636Y-118119819D01*
X46279636Y-118119819D02*
X46660588Y-118119819D01*
X46660588Y-118119819D02*
X46755826Y-118167438D01*
X46755826Y-118167438D02*
X46803445Y-118215057D01*
X46803445Y-118215057D02*
X46851064Y-118310295D01*
X46851064Y-118310295D02*
X46851064Y-118453152D01*
X46851064Y-118453152D02*
X46803445Y-118548390D01*
X46803445Y-118548390D02*
X46755826Y-118596009D01*
X46755826Y-118596009D02*
X46660588Y-118643628D01*
X46660588Y-118643628D02*
X46279636Y-118643628D01*
X47946302Y-119215057D02*
X47851064Y-119167438D01*
X47851064Y-119167438D02*
X47755826Y-119072200D01*
X47755826Y-119072200D02*
X47612969Y-118929342D01*
X47612969Y-118929342D02*
X47517731Y-118881723D01*
X47517731Y-118881723D02*
X47422493Y-118881723D01*
X47470112Y-119119819D02*
X47374874Y-119072200D01*
X47374874Y-119072200D02*
X47279636Y-118976961D01*
X47279636Y-118976961D02*
X47232017Y-118786485D01*
X47232017Y-118786485D02*
X47232017Y-118453152D01*
X47232017Y-118453152D02*
X47279636Y-118262676D01*
X47279636Y-118262676D02*
X47374874Y-118167438D01*
X47374874Y-118167438D02*
X47470112Y-118119819D01*
X47470112Y-118119819D02*
X47660588Y-118119819D01*
X47660588Y-118119819D02*
X47755826Y-118167438D01*
X47755826Y-118167438D02*
X47851064Y-118262676D01*
X47851064Y-118262676D02*
X47898683Y-118453152D01*
X47898683Y-118453152D02*
X47898683Y-118786485D01*
X47898683Y-118786485D02*
X47851064Y-118976961D01*
X47851064Y-118976961D02*
X47755826Y-119072200D01*
X47755826Y-119072200D02*
X47660588Y-119119819D01*
X47660588Y-119119819D02*
X47470112Y-119119819D01*
X50596847Y-129936779D02*
X49930180Y-129936779D01*
X50501609Y-129936779D02*
X50549228Y-129984398D01*
X50549228Y-129984398D02*
X50596847Y-130079636D01*
X50596847Y-130079636D02*
X50596847Y-130222493D01*
X50596847Y-130222493D02*
X50549228Y-130317731D01*
X50549228Y-130317731D02*
X50453990Y-130365350D01*
X50453990Y-130365350D02*
X49930180Y-130365350D01*
X49930180Y-131412969D02*
X50406371Y-131079636D01*
X49930180Y-130841541D02*
X50930180Y-130841541D01*
X50930180Y-130841541D02*
X50930180Y-131222493D01*
X50930180Y-131222493D02*
X50882561Y-131317731D01*
X50882561Y-131317731D02*
X50834942Y-131365350D01*
X50834942Y-131365350D02*
X50739704Y-131412969D01*
X50739704Y-131412969D02*
X50596847Y-131412969D01*
X50596847Y-131412969D02*
X50501609Y-131365350D01*
X50501609Y-131365350D02*
X50453990Y-131317731D01*
X50453990Y-131317731D02*
X50406371Y-131222493D01*
X50406371Y-131222493D02*
X50406371Y-130841541D01*
X50453990Y-132174874D02*
X50453990Y-131841541D01*
X49930180Y-131841541D02*
X50930180Y-131841541D01*
X50930180Y-131841541D02*
X50930180Y-132317731D01*
X50834942Y-132651065D02*
X50882561Y-132698684D01*
X50882561Y-132698684D02*
X50930180Y-132793922D01*
X50930180Y-132793922D02*
X50930180Y-133032017D01*
X50930180Y-133032017D02*
X50882561Y-133127255D01*
X50882561Y-133127255D02*
X50834942Y-133174874D01*
X50834942Y-133174874D02*
X50739704Y-133222493D01*
X50739704Y-133222493D02*
X50644466Y-133222493D01*
X50644466Y-133222493D02*
X50501609Y-133174874D01*
X50501609Y-133174874D02*
X49930180Y-132603446D01*
X49930180Y-132603446D02*
X49930180Y-133222493D01*
X50596847Y-134079636D02*
X49930180Y-134079636D01*
X50977800Y-133841541D02*
X50263514Y-133603446D01*
X50263514Y-133603446D02*
X50263514Y-134222493D01*
X49930180Y-135079636D02*
X49930180Y-134603446D01*
X49930180Y-134603446D02*
X50930180Y-134603446D01*
X50930180Y-135603446D02*
X50930180Y-135698684D01*
X50930180Y-135698684D02*
X50882561Y-135793922D01*
X50882561Y-135793922D02*
X50834942Y-135841541D01*
X50834942Y-135841541D02*
X50739704Y-135889160D01*
X50739704Y-135889160D02*
X50549228Y-135936779D01*
X50549228Y-135936779D02*
X50311133Y-135936779D01*
X50311133Y-135936779D02*
X50120657Y-135889160D01*
X50120657Y-135889160D02*
X50025419Y-135841541D01*
X50025419Y-135841541D02*
X49977800Y-135793922D01*
X49977800Y-135793922D02*
X49930180Y-135698684D01*
X49930180Y-135698684D02*
X49930180Y-135603446D01*
X49930180Y-135603446D02*
X49977800Y-135508208D01*
X49977800Y-135508208D02*
X50025419Y-135460589D01*
X50025419Y-135460589D02*
X50120657Y-135412970D01*
X50120657Y-135412970D02*
X50311133Y-135365351D01*
X50311133Y-135365351D02*
X50549228Y-135365351D01*
X50549228Y-135365351D02*
X50739704Y-135412970D01*
X50739704Y-135412970D02*
X50834942Y-135460589D01*
X50834942Y-135460589D02*
X50882561Y-135508208D01*
X50882561Y-135508208D02*
X50930180Y-135603446D01*
X49930180Y-136889160D02*
X49930180Y-136317732D01*
X49930180Y-136603446D02*
X50930180Y-136603446D01*
X50930180Y-136603446D02*
X50787323Y-136508208D01*
X50787323Y-136508208D02*
X50692085Y-136412970D01*
X50692085Y-136412970D02*
X50644466Y-136317732D01*
X84836779Y-109369819D02*
X84836779Y-110179342D01*
X84836779Y-110179342D02*
X84884398Y-110274580D01*
X84884398Y-110274580D02*
X84932017Y-110322200D01*
X84932017Y-110322200D02*
X85027255Y-110369819D01*
X85027255Y-110369819D02*
X85217731Y-110369819D01*
X85217731Y-110369819D02*
X85312969Y-110322200D01*
X85312969Y-110322200D02*
X85360588Y-110274580D01*
X85360588Y-110274580D02*
X85408207Y-110179342D01*
X85408207Y-110179342D02*
X85408207Y-109369819D01*
X85836779Y-110084104D02*
X86312969Y-110084104D01*
X85741541Y-110369819D02*
X86074874Y-109369819D01*
X86074874Y-109369819D02*
X86408207Y-110369819D01*
X87312969Y-110369819D02*
X86979636Y-109893628D01*
X86741541Y-110369819D02*
X86741541Y-109369819D01*
X86741541Y-109369819D02*
X87122493Y-109369819D01*
X87122493Y-109369819D02*
X87217731Y-109417438D01*
X87217731Y-109417438D02*
X87265350Y-109465057D01*
X87265350Y-109465057D02*
X87312969Y-109560295D01*
X87312969Y-109560295D02*
X87312969Y-109703152D01*
X87312969Y-109703152D02*
X87265350Y-109798390D01*
X87265350Y-109798390D02*
X87217731Y-109846009D01*
X87217731Y-109846009D02*
X87122493Y-109893628D01*
X87122493Y-109893628D02*
X86741541Y-109893628D01*
X87598684Y-109369819D02*
X88170112Y-109369819D01*
X87884398Y-110369819D02*
X87884398Y-109369819D01*
X88693922Y-117119819D02*
X89265350Y-117119819D01*
X88979636Y-118119819D02*
X88979636Y-117119819D01*
X89503446Y-117119819D02*
X90170112Y-118119819D01*
X90170112Y-117119819D02*
X89503446Y-118119819D01*
X89408207Y-115619819D02*
X89074874Y-115143628D01*
X88836779Y-115619819D02*
X88836779Y-114619819D01*
X88836779Y-114619819D02*
X89217731Y-114619819D01*
X89217731Y-114619819D02*
X89312969Y-114667438D01*
X89312969Y-114667438D02*
X89360588Y-114715057D01*
X89360588Y-114715057D02*
X89408207Y-114810295D01*
X89408207Y-114810295D02*
X89408207Y-114953152D01*
X89408207Y-114953152D02*
X89360588Y-115048390D01*
X89360588Y-115048390D02*
X89312969Y-115096009D01*
X89312969Y-115096009D02*
X89217731Y-115143628D01*
X89217731Y-115143628D02*
X88836779Y-115143628D01*
X89741541Y-114619819D02*
X90408207Y-115619819D01*
X90408207Y-114619819D02*
X89741541Y-115619819D01*
X79086779Y-122119819D02*
X79086779Y-122929342D01*
X79086779Y-122929342D02*
X79134398Y-123024580D01*
X79134398Y-123024580D02*
X79182017Y-123072200D01*
X79182017Y-123072200D02*
X79277255Y-123119819D01*
X79277255Y-123119819D02*
X79467731Y-123119819D01*
X79467731Y-123119819D02*
X79562969Y-123072200D01*
X79562969Y-123072200D02*
X79610588Y-123024580D01*
X79610588Y-123024580D02*
X79658207Y-122929342D01*
X79658207Y-122929342D02*
X79658207Y-122119819D01*
X80086779Y-123072200D02*
X80229636Y-123119819D01*
X80229636Y-123119819D02*
X80467731Y-123119819D01*
X80467731Y-123119819D02*
X80562969Y-123072200D01*
X80562969Y-123072200D02*
X80610588Y-123024580D01*
X80610588Y-123024580D02*
X80658207Y-122929342D01*
X80658207Y-122929342D02*
X80658207Y-122834104D01*
X80658207Y-122834104D02*
X80610588Y-122738866D01*
X80610588Y-122738866D02*
X80562969Y-122691247D01*
X80562969Y-122691247D02*
X80467731Y-122643628D01*
X80467731Y-122643628D02*
X80277255Y-122596009D01*
X80277255Y-122596009D02*
X80182017Y-122548390D01*
X80182017Y-122548390D02*
X80134398Y-122500771D01*
X80134398Y-122500771D02*
X80086779Y-122405533D01*
X80086779Y-122405533D02*
X80086779Y-122310295D01*
X80086779Y-122310295D02*
X80134398Y-122215057D01*
X80134398Y-122215057D02*
X80182017Y-122167438D01*
X80182017Y-122167438D02*
X80277255Y-122119819D01*
X80277255Y-122119819D02*
X80515350Y-122119819D01*
X80515350Y-122119819D02*
X80658207Y-122167438D01*
X81039160Y-122834104D02*
X81515350Y-122834104D01*
X80943922Y-123119819D02*
X81277255Y-122119819D01*
X81277255Y-122119819D02*
X81610588Y-123119819D01*
X82515350Y-123119819D02*
X82182017Y-122643628D01*
X81943922Y-123119819D02*
X81943922Y-122119819D01*
X81943922Y-122119819D02*
X82324874Y-122119819D01*
X82324874Y-122119819D02*
X82420112Y-122167438D01*
X82420112Y-122167438D02*
X82467731Y-122215057D01*
X82467731Y-122215057D02*
X82515350Y-122310295D01*
X82515350Y-122310295D02*
X82515350Y-122453152D01*
X82515350Y-122453152D02*
X82467731Y-122548390D01*
X82467731Y-122548390D02*
X82420112Y-122596009D01*
X82420112Y-122596009D02*
X82324874Y-122643628D01*
X82324874Y-122643628D02*
X81943922Y-122643628D01*
X82801065Y-122119819D02*
X83372493Y-122119819D01*
X83086779Y-123119819D02*
X83086779Y-122119819D01*
X83467732Y-123215057D02*
X84229636Y-123215057D01*
X84324875Y-122119819D02*
X84896303Y-122119819D01*
X84610589Y-123119819D02*
X84610589Y-122119819D01*
X85134399Y-122119819D02*
X85801065Y-123119819D01*
X85801065Y-122119819D02*
X85134399Y-123119819D01*
X77586779Y-107869819D02*
X77586779Y-108679342D01*
X77586779Y-108679342D02*
X77634398Y-108774580D01*
X77634398Y-108774580D02*
X77682017Y-108822200D01*
X77682017Y-108822200D02*
X77777255Y-108869819D01*
X77777255Y-108869819D02*
X77967731Y-108869819D01*
X77967731Y-108869819D02*
X78062969Y-108822200D01*
X78062969Y-108822200D02*
X78110588Y-108774580D01*
X78110588Y-108774580D02*
X78158207Y-108679342D01*
X78158207Y-108679342D02*
X78158207Y-107869819D01*
X78586779Y-108822200D02*
X78729636Y-108869819D01*
X78729636Y-108869819D02*
X78967731Y-108869819D01*
X78967731Y-108869819D02*
X79062969Y-108822200D01*
X79062969Y-108822200D02*
X79110588Y-108774580D01*
X79110588Y-108774580D02*
X79158207Y-108679342D01*
X79158207Y-108679342D02*
X79158207Y-108584104D01*
X79158207Y-108584104D02*
X79110588Y-108488866D01*
X79110588Y-108488866D02*
X79062969Y-108441247D01*
X79062969Y-108441247D02*
X78967731Y-108393628D01*
X78967731Y-108393628D02*
X78777255Y-108346009D01*
X78777255Y-108346009D02*
X78682017Y-108298390D01*
X78682017Y-108298390D02*
X78634398Y-108250771D01*
X78634398Y-108250771D02*
X78586779Y-108155533D01*
X78586779Y-108155533D02*
X78586779Y-108060295D01*
X78586779Y-108060295D02*
X78634398Y-107965057D01*
X78634398Y-107965057D02*
X78682017Y-107917438D01*
X78682017Y-107917438D02*
X78777255Y-107869819D01*
X78777255Y-107869819D02*
X79015350Y-107869819D01*
X79015350Y-107869819D02*
X79158207Y-107917438D01*
X79539160Y-108584104D02*
X80015350Y-108584104D01*
X79443922Y-108869819D02*
X79777255Y-107869819D01*
X79777255Y-107869819D02*
X80110588Y-108869819D01*
X81015350Y-108869819D02*
X80682017Y-108393628D01*
X80443922Y-108869819D02*
X80443922Y-107869819D01*
X80443922Y-107869819D02*
X80824874Y-107869819D01*
X80824874Y-107869819D02*
X80920112Y-107917438D01*
X80920112Y-107917438D02*
X80967731Y-107965057D01*
X80967731Y-107965057D02*
X81015350Y-108060295D01*
X81015350Y-108060295D02*
X81015350Y-108203152D01*
X81015350Y-108203152D02*
X80967731Y-108298390D01*
X80967731Y-108298390D02*
X80920112Y-108346009D01*
X80920112Y-108346009D02*
X80824874Y-108393628D01*
X80824874Y-108393628D02*
X80443922Y-108393628D01*
X81301065Y-107869819D02*
X81872493Y-107869819D01*
X81586779Y-108869819D02*
X81586779Y-107869819D01*
X81967732Y-108965057D02*
X82729636Y-108965057D01*
X83539160Y-108869819D02*
X83205827Y-108393628D01*
X82967732Y-108869819D02*
X82967732Y-107869819D01*
X82967732Y-107869819D02*
X83348684Y-107869819D01*
X83348684Y-107869819D02*
X83443922Y-107917438D01*
X83443922Y-107917438D02*
X83491541Y-107965057D01*
X83491541Y-107965057D02*
X83539160Y-108060295D01*
X83539160Y-108060295D02*
X83539160Y-108203152D01*
X83539160Y-108203152D02*
X83491541Y-108298390D01*
X83491541Y-108298390D02*
X83443922Y-108346009D01*
X83443922Y-108346009D02*
X83348684Y-108393628D01*
X83348684Y-108393628D02*
X82967732Y-108393628D01*
X83872494Y-107869819D02*
X84539160Y-108869819D01*
X84539160Y-107869819D02*
X83872494Y-108869819D01*
X44889160Y-109222200D02*
X45032017Y-109269819D01*
X45032017Y-109269819D02*
X45270112Y-109269819D01*
X45270112Y-109269819D02*
X45365350Y-109222200D01*
X45365350Y-109222200D02*
X45412969Y-109174580D01*
X45412969Y-109174580D02*
X45460588Y-109079342D01*
X45460588Y-109079342D02*
X45460588Y-108984104D01*
X45460588Y-108984104D02*
X45412969Y-108888866D01*
X45412969Y-108888866D02*
X45365350Y-108841247D01*
X45365350Y-108841247D02*
X45270112Y-108793628D01*
X45270112Y-108793628D02*
X45079636Y-108746009D01*
X45079636Y-108746009D02*
X44984398Y-108698390D01*
X44984398Y-108698390D02*
X44936779Y-108650771D01*
X44936779Y-108650771D02*
X44889160Y-108555533D01*
X44889160Y-108555533D02*
X44889160Y-108460295D01*
X44889160Y-108460295D02*
X44936779Y-108365057D01*
X44936779Y-108365057D02*
X44984398Y-108317438D01*
X44984398Y-108317438D02*
X45079636Y-108269819D01*
X45079636Y-108269819D02*
X45317731Y-108269819D01*
X45317731Y-108269819D02*
X45460588Y-108317438D01*
X45889160Y-108746009D02*
X46222493Y-108746009D01*
X46365350Y-109269819D02*
X45889160Y-109269819D01*
X45889160Y-109269819D02*
X45889160Y-108269819D01*
X45889160Y-108269819D02*
X46365350Y-108269819D01*
X46793922Y-109269819D02*
X46793922Y-108269819D01*
X46793922Y-108269819D02*
X47365350Y-109269819D01*
X47365350Y-109269819D02*
X47365350Y-108269819D01*
X47793922Y-109222200D02*
X47936779Y-109269819D01*
X47936779Y-109269819D02*
X48174874Y-109269819D01*
X48174874Y-109269819D02*
X48270112Y-109222200D01*
X48270112Y-109222200D02*
X48317731Y-109174580D01*
X48317731Y-109174580D02*
X48365350Y-109079342D01*
X48365350Y-109079342D02*
X48365350Y-108984104D01*
X48365350Y-108984104D02*
X48317731Y-108888866D01*
X48317731Y-108888866D02*
X48270112Y-108841247D01*
X48270112Y-108841247D02*
X48174874Y-108793628D01*
X48174874Y-108793628D02*
X47984398Y-108746009D01*
X47984398Y-108746009D02*
X47889160Y-108698390D01*
X47889160Y-108698390D02*
X47841541Y-108650771D01*
X47841541Y-108650771D02*
X47793922Y-108555533D01*
X47793922Y-108555533D02*
X47793922Y-108460295D01*
X47793922Y-108460295D02*
X47841541Y-108365057D01*
X47841541Y-108365057D02*
X47889160Y-108317438D01*
X47889160Y-108317438D02*
X47984398Y-108269819D01*
X47984398Y-108269819D02*
X48222493Y-108269819D01*
X48222493Y-108269819D02*
X48365350Y-108317438D01*
X48984398Y-108269819D02*
X49174874Y-108269819D01*
X49174874Y-108269819D02*
X49270112Y-108317438D01*
X49270112Y-108317438D02*
X49365350Y-108412676D01*
X49365350Y-108412676D02*
X49412969Y-108603152D01*
X49412969Y-108603152D02*
X49412969Y-108936485D01*
X49412969Y-108936485D02*
X49365350Y-109126961D01*
X49365350Y-109126961D02*
X49270112Y-109222200D01*
X49270112Y-109222200D02*
X49174874Y-109269819D01*
X49174874Y-109269819D02*
X48984398Y-109269819D01*
X48984398Y-109269819D02*
X48889160Y-109222200D01*
X48889160Y-109222200D02*
X48793922Y-109126961D01*
X48793922Y-109126961D02*
X48746303Y-108936485D01*
X48746303Y-108936485D02*
X48746303Y-108603152D01*
X48746303Y-108603152D02*
X48793922Y-108412676D01*
X48793922Y-108412676D02*
X48889160Y-108317438D01*
X48889160Y-108317438D02*
X48984398Y-108269819D01*
X50412969Y-109269819D02*
X50079636Y-108793628D01*
X49841541Y-109269819D02*
X49841541Y-108269819D01*
X49841541Y-108269819D02*
X50222493Y-108269819D01*
X50222493Y-108269819D02*
X50317731Y-108317438D01*
X50317731Y-108317438D02*
X50365350Y-108365057D01*
X50365350Y-108365057D02*
X50412969Y-108460295D01*
X50412969Y-108460295D02*
X50412969Y-108603152D01*
X50412969Y-108603152D02*
X50365350Y-108698390D01*
X50365350Y-108698390D02*
X50317731Y-108746009D01*
X50317731Y-108746009D02*
X50222493Y-108793628D01*
X50222493Y-108793628D02*
X49841541Y-108793628D01*
X66500588Y-99229819D02*
X65929160Y-99229819D01*
X66214874Y-99229819D02*
X66214874Y-98229819D01*
X66214874Y-98229819D02*
X66119636Y-98372676D01*
X66119636Y-98372676D02*
X66024398Y-98467914D01*
X66024398Y-98467914D02*
X65929160Y-98515533D01*
X60612969Y-104269819D02*
X60136779Y-104269819D01*
X60136779Y-104269819D02*
X60136779Y-103269819D01*
X61136779Y-103269819D02*
X61327255Y-103269819D01*
X61327255Y-103269819D02*
X61422493Y-103317438D01*
X61422493Y-103317438D02*
X61517731Y-103412676D01*
X61517731Y-103412676D02*
X61565350Y-103603152D01*
X61565350Y-103603152D02*
X61565350Y-103936485D01*
X61565350Y-103936485D02*
X61517731Y-104126961D01*
X61517731Y-104126961D02*
X61422493Y-104222200D01*
X61422493Y-104222200D02*
X61327255Y-104269819D01*
X61327255Y-104269819D02*
X61136779Y-104269819D01*
X61136779Y-104269819D02*
X61041541Y-104222200D01*
X61041541Y-104222200D02*
X60946303Y-104126961D01*
X60946303Y-104126961D02*
X60898684Y-103936485D01*
X60898684Y-103936485D02*
X60898684Y-103603152D01*
X60898684Y-103603152D02*
X60946303Y-103412676D01*
X60946303Y-103412676D02*
X61041541Y-103317438D01*
X61041541Y-103317438D02*
X61136779Y-103269819D01*
X65272493Y-104583152D02*
X65034398Y-104583152D01*
X65034398Y-104583152D02*
X65034398Y-103154580D01*
X65034398Y-103154580D02*
X65272493Y-103154580D01*
X65653446Y-104249819D02*
X65653446Y-103249819D01*
X65653446Y-103726009D02*
X66224874Y-103726009D01*
X66224874Y-104249819D02*
X66224874Y-103249819D01*
X66701065Y-104249819D02*
X66701065Y-103249819D01*
X67082017Y-104583152D02*
X67320112Y-104583152D01*
X67320112Y-104583152D02*
X67320112Y-103154580D01*
X67320112Y-103154580D02*
X67082017Y-103154580D01*
X69670112Y-102746009D02*
X69812969Y-102793628D01*
X69812969Y-102793628D02*
X69860588Y-102841247D01*
X69860588Y-102841247D02*
X69908207Y-102936485D01*
X69908207Y-102936485D02*
X69908207Y-103079342D01*
X69908207Y-103079342D02*
X69860588Y-103174580D01*
X69860588Y-103174580D02*
X69812969Y-103222200D01*
X69812969Y-103222200D02*
X69717731Y-103269819D01*
X69717731Y-103269819D02*
X69336779Y-103269819D01*
X69336779Y-103269819D02*
X69336779Y-102269819D01*
X69336779Y-102269819D02*
X69670112Y-102269819D01*
X69670112Y-102269819D02*
X69765350Y-102317438D01*
X69765350Y-102317438D02*
X69812969Y-102365057D01*
X69812969Y-102365057D02*
X69860588Y-102460295D01*
X69860588Y-102460295D02*
X69860588Y-102555533D01*
X69860588Y-102555533D02*
X69812969Y-102650771D01*
X69812969Y-102650771D02*
X69765350Y-102698390D01*
X69765350Y-102698390D02*
X69670112Y-102746009D01*
X69670112Y-102746009D02*
X69336779Y-102746009D01*
X70527255Y-102269819D02*
X70717731Y-102269819D01*
X70717731Y-102269819D02*
X70812969Y-102317438D01*
X70812969Y-102317438D02*
X70908207Y-102412676D01*
X70908207Y-102412676D02*
X70955826Y-102603152D01*
X70955826Y-102603152D02*
X70955826Y-102936485D01*
X70955826Y-102936485D02*
X70908207Y-103126961D01*
X70908207Y-103126961D02*
X70812969Y-103222200D01*
X70812969Y-103222200D02*
X70717731Y-103269819D01*
X70717731Y-103269819D02*
X70527255Y-103269819D01*
X70527255Y-103269819D02*
X70432017Y-103222200D01*
X70432017Y-103222200D02*
X70336779Y-103126961D01*
X70336779Y-103126961D02*
X70289160Y-102936485D01*
X70289160Y-102936485D02*
X70289160Y-102603152D01*
X70289160Y-102603152D02*
X70336779Y-102412676D01*
X70336779Y-102412676D02*
X70432017Y-102317438D01*
X70432017Y-102317438D02*
X70527255Y-102269819D01*
X71574874Y-102269819D02*
X71765350Y-102269819D01*
X71765350Y-102269819D02*
X71860588Y-102317438D01*
X71860588Y-102317438D02*
X71955826Y-102412676D01*
X71955826Y-102412676D02*
X72003445Y-102603152D01*
X72003445Y-102603152D02*
X72003445Y-102936485D01*
X72003445Y-102936485D02*
X71955826Y-103126961D01*
X71955826Y-103126961D02*
X71860588Y-103222200D01*
X71860588Y-103222200D02*
X71765350Y-103269819D01*
X71765350Y-103269819D02*
X71574874Y-103269819D01*
X71574874Y-103269819D02*
X71479636Y-103222200D01*
X71479636Y-103222200D02*
X71384398Y-103126961D01*
X71384398Y-103126961D02*
X71336779Y-102936485D01*
X71336779Y-102936485D02*
X71336779Y-102603152D01*
X71336779Y-102603152D02*
X71384398Y-102412676D01*
X71384398Y-102412676D02*
X71479636Y-102317438D01*
X71479636Y-102317438D02*
X71574874Y-102269819D01*
X72289160Y-102269819D02*
X72860588Y-102269819D01*
X72574874Y-103269819D02*
X72574874Y-102269819D01*
X73384398Y-102269819D02*
X73479636Y-102269819D01*
X73479636Y-102269819D02*
X73574874Y-102317438D01*
X73574874Y-102317438D02*
X73622493Y-102365057D01*
X73622493Y-102365057D02*
X73670112Y-102460295D01*
X73670112Y-102460295D02*
X73717731Y-102650771D01*
X73717731Y-102650771D02*
X73717731Y-102888866D01*
X73717731Y-102888866D02*
X73670112Y-103079342D01*
X73670112Y-103079342D02*
X73622493Y-103174580D01*
X73622493Y-103174580D02*
X73574874Y-103222200D01*
X73574874Y-103222200D02*
X73479636Y-103269819D01*
X73479636Y-103269819D02*
X73384398Y-103269819D01*
X73384398Y-103269819D02*
X73289160Y-103222200D01*
X73289160Y-103222200D02*
X73241541Y-103174580D01*
X73241541Y-103174580D02*
X73193922Y-103079342D01*
X73193922Y-103079342D02*
X73146303Y-102888866D01*
X73146303Y-102888866D02*
X73146303Y-102650771D01*
X73146303Y-102650771D02*
X73193922Y-102460295D01*
X73193922Y-102460295D02*
X73241541Y-102365057D01*
X73241541Y-102365057D02*
X73289160Y-102317438D01*
X73289160Y-102317438D02*
X73384398Y-102269819D01*
X46136779Y-94669819D02*
X46136779Y-93669819D01*
X46136779Y-93669819D02*
X46708207Y-94669819D01*
X46708207Y-94669819D02*
X46708207Y-93669819D01*
X47755826Y-94669819D02*
X47422493Y-94193628D01*
X47184398Y-94669819D02*
X47184398Y-93669819D01*
X47184398Y-93669819D02*
X47565350Y-93669819D01*
X47565350Y-93669819D02*
X47660588Y-93717438D01*
X47660588Y-93717438D02*
X47708207Y-93765057D01*
X47708207Y-93765057D02*
X47755826Y-93860295D01*
X47755826Y-93860295D02*
X47755826Y-94003152D01*
X47755826Y-94003152D02*
X47708207Y-94098390D01*
X47708207Y-94098390D02*
X47660588Y-94146009D01*
X47660588Y-94146009D02*
X47565350Y-94193628D01*
X47565350Y-94193628D02*
X47184398Y-94193628D01*
X48136779Y-94622200D02*
X48279636Y-94669819D01*
X48279636Y-94669819D02*
X48517731Y-94669819D01*
X48517731Y-94669819D02*
X48612969Y-94622200D01*
X48612969Y-94622200D02*
X48660588Y-94574580D01*
X48660588Y-94574580D02*
X48708207Y-94479342D01*
X48708207Y-94479342D02*
X48708207Y-94384104D01*
X48708207Y-94384104D02*
X48660588Y-94288866D01*
X48660588Y-94288866D02*
X48612969Y-94241247D01*
X48612969Y-94241247D02*
X48517731Y-94193628D01*
X48517731Y-94193628D02*
X48327255Y-94146009D01*
X48327255Y-94146009D02*
X48232017Y-94098390D01*
X48232017Y-94098390D02*
X48184398Y-94050771D01*
X48184398Y-94050771D02*
X48136779Y-93955533D01*
X48136779Y-93955533D02*
X48136779Y-93860295D01*
X48136779Y-93860295D02*
X48184398Y-93765057D01*
X48184398Y-93765057D02*
X48232017Y-93717438D01*
X48232017Y-93717438D02*
X48327255Y-93669819D01*
X48327255Y-93669819D02*
X48565350Y-93669819D01*
X48565350Y-93669819D02*
X48708207Y-93717438D01*
X48993922Y-93669819D02*
X49565350Y-93669819D01*
X49279636Y-94669819D02*
X49279636Y-93669819D01*
X49660589Y-94765057D02*
X50422493Y-94765057D01*
X50612970Y-94622200D02*
X50755827Y-94669819D01*
X50755827Y-94669819D02*
X50993922Y-94669819D01*
X50993922Y-94669819D02*
X51089160Y-94622200D01*
X51089160Y-94622200D02*
X51136779Y-94574580D01*
X51136779Y-94574580D02*
X51184398Y-94479342D01*
X51184398Y-94479342D02*
X51184398Y-94384104D01*
X51184398Y-94384104D02*
X51136779Y-94288866D01*
X51136779Y-94288866D02*
X51089160Y-94241247D01*
X51089160Y-94241247D02*
X50993922Y-94193628D01*
X50993922Y-94193628D02*
X50803446Y-94146009D01*
X50803446Y-94146009D02*
X50708208Y-94098390D01*
X50708208Y-94098390D02*
X50660589Y-94050771D01*
X50660589Y-94050771D02*
X50612970Y-93955533D01*
X50612970Y-93955533D02*
X50612970Y-93860295D01*
X50612970Y-93860295D02*
X50660589Y-93765057D01*
X50660589Y-93765057D02*
X50708208Y-93717438D01*
X50708208Y-93717438D02*
X50803446Y-93669819D01*
X50803446Y-93669819D02*
X51041541Y-93669819D01*
X51041541Y-93669819D02*
X51184398Y-93717438D01*
X51517732Y-93669819D02*
X51755827Y-94669819D01*
X51755827Y-94669819D02*
X51946303Y-93955533D01*
X51946303Y-93955533D02*
X52136779Y-94669819D01*
X52136779Y-94669819D02*
X52374875Y-93669819D01*
X78336779Y-102869819D02*
X78336779Y-101869819D01*
X78336779Y-101869819D02*
X78717731Y-101869819D01*
X78717731Y-101869819D02*
X78812969Y-101917438D01*
X78812969Y-101917438D02*
X78860588Y-101965057D01*
X78860588Y-101965057D02*
X78908207Y-102060295D01*
X78908207Y-102060295D02*
X78908207Y-102203152D01*
X78908207Y-102203152D02*
X78860588Y-102298390D01*
X78860588Y-102298390D02*
X78812969Y-102346009D01*
X78812969Y-102346009D02*
X78717731Y-102393628D01*
X78717731Y-102393628D02*
X78336779Y-102393628D01*
X79241541Y-101869819D02*
X79479636Y-102869819D01*
X79479636Y-102869819D02*
X79670112Y-102155533D01*
X79670112Y-102155533D02*
X79860588Y-102869819D01*
X79860588Y-102869819D02*
X80098684Y-101869819D01*
X81051064Y-102869819D02*
X80717731Y-102393628D01*
X80479636Y-102869819D02*
X80479636Y-101869819D01*
X80479636Y-101869819D02*
X80860588Y-101869819D01*
X80860588Y-101869819D02*
X80955826Y-101917438D01*
X80955826Y-101917438D02*
X81003445Y-101965057D01*
X81003445Y-101965057D02*
X81051064Y-102060295D01*
X81051064Y-102060295D02*
X81051064Y-102203152D01*
X81051064Y-102203152D02*
X81003445Y-102298390D01*
X81003445Y-102298390D02*
X80955826Y-102346009D01*
X80955826Y-102346009D02*
X80860588Y-102393628D01*
X80860588Y-102393628D02*
X80479636Y-102393628D01*
X81241541Y-102965057D02*
X82003445Y-102965057D01*
X82717731Y-102869819D02*
X82241541Y-102869819D01*
X82241541Y-102869819D02*
X82241541Y-101869819D01*
X83051065Y-102346009D02*
X83384398Y-102346009D01*
X83527255Y-102869819D02*
X83051065Y-102869819D01*
X83051065Y-102869819D02*
X83051065Y-101869819D01*
X83051065Y-101869819D02*
X83527255Y-101869819D01*
X83955827Y-102869819D02*
X83955827Y-101869819D01*
X83955827Y-101869819D02*
X84193922Y-101869819D01*
X84193922Y-101869819D02*
X84336779Y-101917438D01*
X84336779Y-101917438D02*
X84432017Y-102012676D01*
X84432017Y-102012676D02*
X84479636Y-102107914D01*
X84479636Y-102107914D02*
X84527255Y-102298390D01*
X84527255Y-102298390D02*
X84527255Y-102441247D01*
X84527255Y-102441247D02*
X84479636Y-102631723D01*
X84479636Y-102631723D02*
X84432017Y-102726961D01*
X84432017Y-102726961D02*
X84336779Y-102822200D01*
X84336779Y-102822200D02*
X84193922Y-102869819D01*
X84193922Y-102869819D02*
X83955827Y-102869819D01*
X84717732Y-102965057D02*
X85479636Y-102965057D01*
X85717732Y-102346009D02*
X86051065Y-102346009D01*
X86193922Y-102869819D02*
X85717732Y-102869819D01*
X85717732Y-102869819D02*
X85717732Y-101869819D01*
X85717732Y-101869819D02*
X86193922Y-101869819D01*
X86622494Y-102869819D02*
X86622494Y-101869819D01*
X86622494Y-101869819D02*
X87193922Y-102869819D01*
X87193922Y-102869819D02*
X87193922Y-101869819D01*
X49917438Y-87539411D02*
X49869819Y-87634649D01*
X49869819Y-87634649D02*
X49869819Y-87777506D01*
X49869819Y-87777506D02*
X49917438Y-87920363D01*
X49917438Y-87920363D02*
X50012676Y-88015601D01*
X50012676Y-88015601D02*
X50107914Y-88063220D01*
X50107914Y-88063220D02*
X50298390Y-88110839D01*
X50298390Y-88110839D02*
X50441247Y-88110839D01*
X50441247Y-88110839D02*
X50631723Y-88063220D01*
X50631723Y-88063220D02*
X50726961Y-88015601D01*
X50726961Y-88015601D02*
X50822200Y-87920363D01*
X50822200Y-87920363D02*
X50869819Y-87777506D01*
X50869819Y-87777506D02*
X50869819Y-87682268D01*
X50869819Y-87682268D02*
X50822200Y-87539411D01*
X50822200Y-87539411D02*
X50774580Y-87491792D01*
X50774580Y-87491792D02*
X50441247Y-87491792D01*
X50441247Y-87491792D02*
X50441247Y-87682268D01*
X50869819Y-87063220D02*
X49869819Y-87063220D01*
X49869819Y-87063220D02*
X50869819Y-86491792D01*
X50869819Y-86491792D02*
X49869819Y-86491792D01*
X50869819Y-86015601D02*
X49869819Y-86015601D01*
X49869819Y-86015601D02*
X49869819Y-85777506D01*
X49869819Y-85777506D02*
X49917438Y-85634649D01*
X49917438Y-85634649D02*
X50012676Y-85539411D01*
X50012676Y-85539411D02*
X50107914Y-85491792D01*
X50107914Y-85491792D02*
X50298390Y-85444173D01*
X50298390Y-85444173D02*
X50441247Y-85444173D01*
X50441247Y-85444173D02*
X50631723Y-85491792D01*
X50631723Y-85491792D02*
X50726961Y-85539411D01*
X50726961Y-85539411D02*
X50822200Y-85634649D01*
X50822200Y-85634649D02*
X50869819Y-85777506D01*
X50869819Y-85777506D02*
X50869819Y-86015601D01*
X57369819Y-88158458D02*
X57369819Y-87539411D01*
X57369819Y-87539411D02*
X57750771Y-87872744D01*
X57750771Y-87872744D02*
X57750771Y-87729887D01*
X57750771Y-87729887D02*
X57798390Y-87634649D01*
X57798390Y-87634649D02*
X57846009Y-87587030D01*
X57846009Y-87587030D02*
X57941247Y-87539411D01*
X57941247Y-87539411D02*
X58179342Y-87539411D01*
X58179342Y-87539411D02*
X58274580Y-87587030D01*
X58274580Y-87587030D02*
X58322200Y-87634649D01*
X58322200Y-87634649D02*
X58369819Y-87729887D01*
X58369819Y-87729887D02*
X58369819Y-88015601D01*
X58369819Y-88015601D02*
X58322200Y-88110839D01*
X58322200Y-88110839D02*
X58274580Y-88158458D01*
X57369819Y-87253696D02*
X58369819Y-86920363D01*
X58369819Y-86920363D02*
X57369819Y-86587030D01*
X57369819Y-86348934D02*
X57369819Y-85729887D01*
X57369819Y-85729887D02*
X57750771Y-86063220D01*
X57750771Y-86063220D02*
X57750771Y-85920363D01*
X57750771Y-85920363D02*
X57798390Y-85825125D01*
X57798390Y-85825125D02*
X57846009Y-85777506D01*
X57846009Y-85777506D02*
X57941247Y-85729887D01*
X57941247Y-85729887D02*
X58179342Y-85729887D01*
X58179342Y-85729887D02*
X58274580Y-85777506D01*
X58274580Y-85777506D02*
X58322200Y-85825125D01*
X58322200Y-85825125D02*
X58369819Y-85920363D01*
X58369819Y-85920363D02*
X58369819Y-86206077D01*
X58369819Y-86206077D02*
X58322200Y-86301315D01*
X58322200Y-86301315D02*
X58274580Y-86348934D01*
X55672200Y-88110839D02*
X55719819Y-87967982D01*
X55719819Y-87967982D02*
X55719819Y-87729887D01*
X55719819Y-87729887D02*
X55672200Y-87634649D01*
X55672200Y-87634649D02*
X55624580Y-87587030D01*
X55624580Y-87587030D02*
X55529342Y-87539411D01*
X55529342Y-87539411D02*
X55434104Y-87539411D01*
X55434104Y-87539411D02*
X55338866Y-87587030D01*
X55338866Y-87587030D02*
X55291247Y-87634649D01*
X55291247Y-87634649D02*
X55243628Y-87729887D01*
X55243628Y-87729887D02*
X55196009Y-87920363D01*
X55196009Y-87920363D02*
X55148390Y-88015601D01*
X55148390Y-88015601D02*
X55100771Y-88063220D01*
X55100771Y-88063220D02*
X55005533Y-88110839D01*
X55005533Y-88110839D02*
X54910295Y-88110839D01*
X54910295Y-88110839D02*
X54815057Y-88063220D01*
X54815057Y-88063220D02*
X54767438Y-88015601D01*
X54767438Y-88015601D02*
X54719819Y-87920363D01*
X54719819Y-87920363D02*
X54719819Y-87682268D01*
X54719819Y-87682268D02*
X54767438Y-87539411D01*
X54719819Y-87206077D02*
X55719819Y-86967982D01*
X55719819Y-86967982D02*
X55005533Y-86777506D01*
X55005533Y-86777506D02*
X55719819Y-86587030D01*
X55719819Y-86587030D02*
X54719819Y-86348935D01*
X55719819Y-85967982D02*
X54719819Y-85967982D01*
X54719819Y-85967982D02*
X54719819Y-85729887D01*
X54719819Y-85729887D02*
X54767438Y-85587030D01*
X54767438Y-85587030D02*
X54862676Y-85491792D01*
X54862676Y-85491792D02*
X54957914Y-85444173D01*
X54957914Y-85444173D02*
X55148390Y-85396554D01*
X55148390Y-85396554D02*
X55291247Y-85396554D01*
X55291247Y-85396554D02*
X55481723Y-85444173D01*
X55481723Y-85444173D02*
X55576961Y-85491792D01*
X55576961Y-85491792D02*
X55672200Y-85587030D01*
X55672200Y-85587030D02*
X55719819Y-85729887D01*
X55719819Y-85729887D02*
X55719819Y-85967982D01*
X55719819Y-84967982D02*
X54719819Y-84967982D01*
X54719819Y-84301316D02*
X54719819Y-84110840D01*
X54719819Y-84110840D02*
X54767438Y-84015602D01*
X54767438Y-84015602D02*
X54862676Y-83920364D01*
X54862676Y-83920364D02*
X55053152Y-83872745D01*
X55053152Y-83872745D02*
X55386485Y-83872745D01*
X55386485Y-83872745D02*
X55576961Y-83920364D01*
X55576961Y-83920364D02*
X55672200Y-84015602D01*
X55672200Y-84015602D02*
X55719819Y-84110840D01*
X55719819Y-84110840D02*
X55719819Y-84301316D01*
X55719819Y-84301316D02*
X55672200Y-84396554D01*
X55672200Y-84396554D02*
X55576961Y-84491792D01*
X55576961Y-84491792D02*
X55386485Y-84539411D01*
X55386485Y-84539411D02*
X55053152Y-84539411D01*
X55053152Y-84539411D02*
X54862676Y-84491792D01*
X54862676Y-84491792D02*
X54767438Y-84396554D01*
X54767438Y-84396554D02*
X54719819Y-84301316D01*
X53222200Y-88110839D02*
X53269819Y-87967982D01*
X53269819Y-87967982D02*
X53269819Y-87729887D01*
X53269819Y-87729887D02*
X53222200Y-87634649D01*
X53222200Y-87634649D02*
X53174580Y-87587030D01*
X53174580Y-87587030D02*
X53079342Y-87539411D01*
X53079342Y-87539411D02*
X52984104Y-87539411D01*
X52984104Y-87539411D02*
X52888866Y-87587030D01*
X52888866Y-87587030D02*
X52841247Y-87634649D01*
X52841247Y-87634649D02*
X52793628Y-87729887D01*
X52793628Y-87729887D02*
X52746009Y-87920363D01*
X52746009Y-87920363D02*
X52698390Y-88015601D01*
X52698390Y-88015601D02*
X52650771Y-88063220D01*
X52650771Y-88063220D02*
X52555533Y-88110839D01*
X52555533Y-88110839D02*
X52460295Y-88110839D01*
X52460295Y-88110839D02*
X52365057Y-88063220D01*
X52365057Y-88063220D02*
X52317438Y-88015601D01*
X52317438Y-88015601D02*
X52269819Y-87920363D01*
X52269819Y-87920363D02*
X52269819Y-87682268D01*
X52269819Y-87682268D02*
X52317438Y-87539411D01*
X52269819Y-87206077D02*
X53269819Y-86967982D01*
X53269819Y-86967982D02*
X52555533Y-86777506D01*
X52555533Y-86777506D02*
X53269819Y-86587030D01*
X53269819Y-86587030D02*
X52269819Y-86348935D01*
X53269819Y-85967982D02*
X52269819Y-85967982D01*
X52269819Y-85967982D02*
X52269819Y-85729887D01*
X52269819Y-85729887D02*
X52317438Y-85587030D01*
X52317438Y-85587030D02*
X52412676Y-85491792D01*
X52412676Y-85491792D02*
X52507914Y-85444173D01*
X52507914Y-85444173D02*
X52698390Y-85396554D01*
X52698390Y-85396554D02*
X52841247Y-85396554D01*
X52841247Y-85396554D02*
X53031723Y-85444173D01*
X53031723Y-85444173D02*
X53126961Y-85491792D01*
X53126961Y-85491792D02*
X53222200Y-85587030D01*
X53222200Y-85587030D02*
X53269819Y-85729887D01*
X53269819Y-85729887D02*
X53269819Y-85967982D01*
X53174580Y-84396554D02*
X53222200Y-84444173D01*
X53222200Y-84444173D02*
X53269819Y-84587030D01*
X53269819Y-84587030D02*
X53269819Y-84682268D01*
X53269819Y-84682268D02*
X53222200Y-84825125D01*
X53222200Y-84825125D02*
X53126961Y-84920363D01*
X53126961Y-84920363D02*
X53031723Y-84967982D01*
X53031723Y-84967982D02*
X52841247Y-85015601D01*
X52841247Y-85015601D02*
X52698390Y-85015601D01*
X52698390Y-85015601D02*
X52507914Y-84967982D01*
X52507914Y-84967982D02*
X52412676Y-84920363D01*
X52412676Y-84920363D02*
X52317438Y-84825125D01*
X52317438Y-84825125D02*
X52269819Y-84682268D01*
X52269819Y-84682268D02*
X52269819Y-84587030D01*
X52269819Y-84587030D02*
X52317438Y-84444173D01*
X52317438Y-84444173D02*
X52365057Y-84396554D01*
X53269819Y-83491792D02*
X53269819Y-83967982D01*
X53269819Y-83967982D02*
X52269819Y-83967982D01*
X53269819Y-83158458D02*
X52269819Y-83158458D01*
X53269819Y-82587030D02*
X52698390Y-83015601D01*
X52269819Y-82587030D02*
X52841247Y-83158458D01*
X86469819Y-95663220D02*
X85469819Y-95663220D01*
X85469819Y-95663220D02*
X85469819Y-95282268D01*
X85469819Y-95282268D02*
X85517438Y-95187030D01*
X85517438Y-95187030D02*
X85565057Y-95139411D01*
X85565057Y-95139411D02*
X85660295Y-95091792D01*
X85660295Y-95091792D02*
X85803152Y-95091792D01*
X85803152Y-95091792D02*
X85898390Y-95139411D01*
X85898390Y-95139411D02*
X85946009Y-95187030D01*
X85946009Y-95187030D02*
X85993628Y-95282268D01*
X85993628Y-95282268D02*
X85993628Y-95663220D01*
X85565057Y-94710839D02*
X85517438Y-94663220D01*
X85517438Y-94663220D02*
X85469819Y-94567982D01*
X85469819Y-94567982D02*
X85469819Y-94329887D01*
X85469819Y-94329887D02*
X85517438Y-94234649D01*
X85517438Y-94234649D02*
X85565057Y-94187030D01*
X85565057Y-94187030D02*
X85660295Y-94139411D01*
X85660295Y-94139411D02*
X85755533Y-94139411D01*
X85755533Y-94139411D02*
X85898390Y-94187030D01*
X85898390Y-94187030D02*
X86469819Y-94758458D01*
X86469819Y-94758458D02*
X86469819Y-94139411D01*
X86469819Y-93187030D02*
X86469819Y-93758458D01*
X86469819Y-93472744D02*
X85469819Y-93472744D01*
X85469819Y-93472744D02*
X85612676Y-93567982D01*
X85612676Y-93567982D02*
X85707914Y-93663220D01*
X85707914Y-93663220D02*
X85755533Y-93758458D01*
X86469819Y-92234649D02*
X86469819Y-92806077D01*
X86469819Y-92520363D02*
X85469819Y-92520363D01*
X85469819Y-92520363D02*
X85612676Y-92615601D01*
X85612676Y-92615601D02*
X85707914Y-92710839D01*
X85707914Y-92710839D02*
X85755533Y-92806077D01*
X85469819Y-91615601D02*
X85469819Y-91520363D01*
X85469819Y-91520363D02*
X85517438Y-91425125D01*
X85517438Y-91425125D02*
X85565057Y-91377506D01*
X85565057Y-91377506D02*
X85660295Y-91329887D01*
X85660295Y-91329887D02*
X85850771Y-91282268D01*
X85850771Y-91282268D02*
X86088866Y-91282268D01*
X86088866Y-91282268D02*
X86279342Y-91329887D01*
X86279342Y-91329887D02*
X86374580Y-91377506D01*
X86374580Y-91377506D02*
X86422200Y-91425125D01*
X86422200Y-91425125D02*
X86469819Y-91520363D01*
X86469819Y-91520363D02*
X86469819Y-91615601D01*
X86469819Y-91615601D02*
X86422200Y-91710839D01*
X86422200Y-91710839D02*
X86374580Y-91758458D01*
X86374580Y-91758458D02*
X86279342Y-91806077D01*
X86279342Y-91806077D02*
X86088866Y-91853696D01*
X86088866Y-91853696D02*
X85850771Y-91853696D01*
X85850771Y-91853696D02*
X85660295Y-91806077D01*
X85660295Y-91806077D02*
X85565057Y-91758458D01*
X85565057Y-91758458D02*
X85517438Y-91710839D01*
X85517438Y-91710839D02*
X85469819Y-91615601D01*
X85946009Y-90520363D02*
X85993628Y-90377506D01*
X85993628Y-90377506D02*
X86041247Y-90329887D01*
X86041247Y-90329887D02*
X86136485Y-90282268D01*
X86136485Y-90282268D02*
X86279342Y-90282268D01*
X86279342Y-90282268D02*
X86374580Y-90329887D01*
X86374580Y-90329887D02*
X86422200Y-90377506D01*
X86422200Y-90377506D02*
X86469819Y-90472744D01*
X86469819Y-90472744D02*
X86469819Y-90853696D01*
X86469819Y-90853696D02*
X85469819Y-90853696D01*
X85469819Y-90853696D02*
X85469819Y-90520363D01*
X85469819Y-90520363D02*
X85517438Y-90425125D01*
X85517438Y-90425125D02*
X85565057Y-90377506D01*
X85565057Y-90377506D02*
X85660295Y-90329887D01*
X85660295Y-90329887D02*
X85755533Y-90329887D01*
X85755533Y-90329887D02*
X85850771Y-90377506D01*
X85850771Y-90377506D02*
X85898390Y-90425125D01*
X85898390Y-90425125D02*
X85946009Y-90520363D01*
X85946009Y-90520363D02*
X85946009Y-90853696D01*
X86565057Y-90091792D02*
X86565057Y-89329887D01*
X85469819Y-89234648D02*
X86469819Y-88901315D01*
X86469819Y-88901315D02*
X85469819Y-88567982D01*
X85469819Y-88044172D02*
X85469819Y-87853696D01*
X85469819Y-87853696D02*
X85517438Y-87758458D01*
X85517438Y-87758458D02*
X85612676Y-87663220D01*
X85612676Y-87663220D02*
X85803152Y-87615601D01*
X85803152Y-87615601D02*
X86136485Y-87615601D01*
X86136485Y-87615601D02*
X86326961Y-87663220D01*
X86326961Y-87663220D02*
X86422200Y-87758458D01*
X86422200Y-87758458D02*
X86469819Y-87853696D01*
X86469819Y-87853696D02*
X86469819Y-88044172D01*
X86469819Y-88044172D02*
X86422200Y-88139410D01*
X86422200Y-88139410D02*
X86326961Y-88234648D01*
X86326961Y-88234648D02*
X86136485Y-88282267D01*
X86136485Y-88282267D02*
X85803152Y-88282267D01*
X85803152Y-88282267D02*
X85612676Y-88234648D01*
X85612676Y-88234648D02*
X85517438Y-88139410D01*
X85517438Y-88139410D02*
X85469819Y-88044172D01*
X85469819Y-87187029D02*
X86279342Y-87187029D01*
X86279342Y-87187029D02*
X86374580Y-87139410D01*
X86374580Y-87139410D02*
X86422200Y-87091791D01*
X86422200Y-87091791D02*
X86469819Y-86996553D01*
X86469819Y-86996553D02*
X86469819Y-86806077D01*
X86469819Y-86806077D02*
X86422200Y-86710839D01*
X86422200Y-86710839D02*
X86374580Y-86663220D01*
X86374580Y-86663220D02*
X86279342Y-86615601D01*
X86279342Y-86615601D02*
X85469819Y-86615601D01*
X85469819Y-86282267D02*
X85469819Y-85710839D01*
X86469819Y-85996553D02*
X85469819Y-85996553D01*
X53793922Y-81269819D02*
X54127255Y-82269819D01*
X54127255Y-82269819D02*
X54460588Y-81269819D01*
X54793922Y-82269819D02*
X54793922Y-81269819D01*
X54793922Y-81269819D02*
X55032017Y-81269819D01*
X55032017Y-81269819D02*
X55174874Y-81317438D01*
X55174874Y-81317438D02*
X55270112Y-81412676D01*
X55270112Y-81412676D02*
X55317731Y-81507914D01*
X55317731Y-81507914D02*
X55365350Y-81698390D01*
X55365350Y-81698390D02*
X55365350Y-81841247D01*
X55365350Y-81841247D02*
X55317731Y-82031723D01*
X55317731Y-82031723D02*
X55270112Y-82126961D01*
X55270112Y-82126961D02*
X55174874Y-82222200D01*
X55174874Y-82222200D02*
X55032017Y-82269819D01*
X55032017Y-82269819D02*
X54793922Y-82269819D01*
X55793922Y-82269819D02*
X55793922Y-81269819D01*
X55793922Y-81269819D02*
X56032017Y-81269819D01*
X56032017Y-81269819D02*
X56174874Y-81317438D01*
X56174874Y-81317438D02*
X56270112Y-81412676D01*
X56270112Y-81412676D02*
X56317731Y-81507914D01*
X56317731Y-81507914D02*
X56365350Y-81698390D01*
X56365350Y-81698390D02*
X56365350Y-81841247D01*
X56365350Y-81841247D02*
X56317731Y-82031723D01*
X56317731Y-82031723D02*
X56270112Y-82126961D01*
X56270112Y-82126961D02*
X56174874Y-82222200D01*
X56174874Y-82222200D02*
X56032017Y-82269819D01*
X56032017Y-82269819D02*
X55793922Y-82269819D01*
D11*
X41250000Y-123750000D02*
X49000000Y-123750000D01*
X49000000Y-137750000D01*
X41250000Y-137750000D01*
X41250000Y-123750000D01*
D10*
X68076313Y-109541350D02*
X67907954Y-109709708D01*
X67806939Y-109474006D02*
X67907954Y-109709708D01*
X67907954Y-109709708D02*
X68143656Y-109810724D01*
X67672252Y-109743380D02*
X67907954Y-109709708D01*
X67907954Y-109709708D02*
X67874282Y-109945411D01*
X68076313Y-109541350D02*
X67907954Y-109709708D01*
X67806939Y-109474006D02*
X67907954Y-109709708D01*
X67907954Y-109709708D02*
X68143656Y-109810724D01*
X67672252Y-109743380D02*
X67907954Y-109709708D01*
X67907954Y-109709708D02*
X67874282Y-109945411D01*
X112414999Y-141780780D02*
X112414999Y-141542685D01*
X112653094Y-141637923D02*
X112414999Y-141542685D01*
X112414999Y-141542685D02*
X112176904Y-141637923D01*
X112557856Y-141352209D02*
X112414999Y-141542685D01*
X112414999Y-141542685D02*
X112272142Y-141352209D01*
X112415000Y-140690419D02*
X112415000Y-140928514D01*
X112176905Y-140833276D02*
X112415000Y-140928514D01*
X112415000Y-140928514D02*
X112653095Y-140833276D01*
X112272143Y-141118990D02*
X112415000Y-140928514D01*
X112415000Y-140928514D02*
X112557857Y-141118990D01*
D12*
%TO.C,D2*%
X58515000Y-131665000D02*
X58515000Y-133135000D01*
X58515000Y-133135000D02*
X60800000Y-133135000D01*
X60800000Y-131665000D02*
X58515000Y-131665000D01*
%TO.C,D1*%
X80285000Y-100935000D02*
X80285000Y-99465000D01*
X80285000Y-99465000D02*
X78000000Y-99465000D01*
X78000000Y-100935000D02*
X80285000Y-100935000D01*
%TO.C,C8*%
X64618781Y-111560030D02*
X64419970Y-111361219D01*
X65340030Y-110838781D02*
X65141219Y-110639970D01*
%TO.C,C7*%
X58949970Y-113798781D02*
X59148781Y-113599970D01*
X59671219Y-114520030D02*
X59870030Y-114321219D01*
%TO.C,C6*%
X67208038Y-127313211D02*
X67009227Y-127512022D01*
X66486789Y-126591962D02*
X66287978Y-126790773D01*
%TO.C,C5*%
X72661219Y-109939970D02*
X72860030Y-110138781D01*
X71939970Y-110661219D02*
X72138781Y-110860030D01*
%TO.C,C4*%
X65938781Y-110200030D02*
X65739970Y-110001219D01*
X66660030Y-109478781D02*
X66461219Y-109279970D01*
%TO.C,C3*%
X61781962Y-114386789D02*
X61980773Y-114187978D01*
X62503211Y-115108038D02*
X62702022Y-114909227D01*
%TO.C,C2*%
X77754484Y-121166765D02*
X77555673Y-121365576D01*
X77033235Y-120445516D02*
X76834424Y-120644327D01*
%TO.C,C1*%
X60888781Y-121460030D02*
X60689970Y-121261219D01*
X61610030Y-120738781D02*
X61411219Y-120539970D01*
D13*
%TO.C,U1*%
X62451716Y-118200000D02*
X63040142Y-118788426D01*
X63040142Y-117611574D02*
X62451716Y-118200000D01*
X69011574Y-124759858D02*
X69600000Y-125348284D01*
X69223058Y-111949742D02*
X69976942Y-111949742D01*
X69600000Y-111051716D02*
X69011574Y-111640142D01*
X69600000Y-125348284D02*
X70188426Y-124759858D01*
X70188426Y-111640142D02*
X69600000Y-111051716D01*
X76159858Y-118788426D02*
X76748284Y-118200000D01*
X76748284Y-118200000D02*
X76159858Y-117611574D01*
D14*
G36*
X63464999Y-121422426D02*
G01*
X63285394Y-121602031D01*
X63015987Y-121332624D01*
X63195592Y-121153019D01*
X63464999Y-121422426D01*
G37*
G36*
X64525660Y-113916914D02*
G01*
X64256252Y-114186321D01*
X64076647Y-114006716D01*
X64346054Y-113737308D01*
X64525660Y-113916914D01*
G37*
G36*
X67000534Y-124957961D02*
G01*
X66820929Y-125137566D01*
X66551521Y-124868158D01*
X66731126Y-124688553D01*
X67000534Y-124957961D01*
G37*
G36*
X73355586Y-112238949D02*
G01*
X73175981Y-112418554D01*
X72906573Y-112149147D01*
X73086179Y-111969541D01*
X73355586Y-112238949D01*
G37*
G36*
X74416246Y-123100391D02*
G01*
X74146838Y-123369799D01*
X73967233Y-123190194D01*
X74236641Y-122920786D01*
X74416246Y-123100391D01*
G37*
G36*
X76891120Y-115774483D02*
G01*
X76711515Y-115954088D01*
X76442107Y-115684680D01*
X76621712Y-115505075D01*
X76891120Y-115774483D01*
G37*
D12*
%TO.C,J6*%
X42940000Y-103640000D02*
X42940000Y-107146667D01*
X42940000Y-107146667D02*
X43300000Y-107146667D01*
X42940000Y-110653333D02*
X42940000Y-114160000D01*
X42940000Y-114160000D02*
X52760000Y-114160000D01*
X43300000Y-107146667D02*
X43300000Y-110653333D01*
X43300000Y-110653333D02*
X42940000Y-110653333D01*
X52760000Y-103640000D02*
X42940000Y-103640000D01*
X52760000Y-114160000D02*
X52760000Y-103640000D01*
%TO.C,JP1*%
X59540000Y-99710000D02*
X59540000Y-102370000D01*
X64680000Y-99710000D02*
X59540000Y-99710000D01*
X64680000Y-99710000D02*
X64680000Y-102370000D01*
X64680000Y-102370000D02*
X59540000Y-102370000D01*
X65950000Y-99710000D02*
X67280000Y-99710000D01*
X67280000Y-99710000D02*
X67280000Y-101040000D01*
%TO.C,TP8*%
X70400000Y-104000000D02*
X72800000Y-104000000D01*
X70400000Y-106400000D02*
X70400000Y-104000000D01*
X72800000Y-104000000D02*
X72800000Y-106400000D01*
X72800000Y-106400000D02*
X70400000Y-106400000D01*
%TO.C,SW1*%
X46000000Y-100100000D02*
X46000000Y-97500000D01*
X46100000Y-95550000D02*
X52100000Y-95550000D01*
X46200000Y-102050000D02*
X52000000Y-102050000D01*
X52200000Y-100100000D02*
X52200000Y-97500000D01*
X54200000Y-101100000D02*
X54200000Y-102100000D01*
X54200000Y-102100000D02*
X53200000Y-102100000D01*
D11*
%TO.C,PS1*%
X104769000Y-121269000D02*
X105500000Y-121269000D01*
X104769000Y-135254000D02*
X104769000Y-121269000D01*
X105500000Y-135269000D02*
X104769000Y-135254000D01*
D15*
X106400000Y-136969000D02*
X106400000Y-136969000D01*
X106600000Y-136969000D02*
X106600000Y-136969000D01*
D11*
X117500000Y-135269000D02*
X118231000Y-135269000D01*
X118231000Y-121284000D02*
X117500000Y-121284000D01*
X118231000Y-135269000D02*
X118231000Y-121284000D01*
D15*
X106400000Y-136969000D02*
G75*
G02*
X106600000Y-136969000I100000J0D01*
G01*
X106600000Y-136969000D02*
G75*
G02*
X106400000Y-136969000I-100000J0D01*
G01*
D12*
%TO.C,JP2*%
X97070000Y-127505000D02*
X97070000Y-124905000D01*
X99730000Y-124905000D02*
X97070000Y-124905000D01*
X99730000Y-127505000D02*
X97070000Y-127505000D01*
X99730000Y-127505000D02*
X99730000Y-124905000D01*
X99730000Y-128775000D02*
X99730000Y-130105000D01*
X99730000Y-130105000D02*
X98400000Y-130105000D01*
%TO.C,TP4*%
X54000000Y-117800000D02*
X56400000Y-117800000D01*
X54000000Y-120200000D02*
X54000000Y-117800000D01*
X56400000Y-117800000D02*
X56400000Y-120200000D01*
X56400000Y-120200000D02*
X54000000Y-120200000D01*
%TO.C,TP5*%
X58800000Y-128000000D02*
X61200000Y-128000000D01*
X58800000Y-130400000D02*
X58800000Y-128000000D01*
X61200000Y-128000000D02*
X61200000Y-130400000D01*
X61200000Y-130400000D02*
X58800000Y-130400000D01*
%TO.C,TP14*%
X52000000Y-140200000D02*
X54400000Y-140200000D01*
X52000000Y-142600000D02*
X52000000Y-140200000D01*
X54400000Y-140200000D02*
X54400000Y-142600000D01*
X54400000Y-142600000D02*
X52000000Y-142600000D01*
%TO.C,JP9*%
X76330000Y-139070000D02*
X76330000Y-141670000D01*
X73670000Y-141670000D02*
X76330000Y-141670000D01*
X73670000Y-139070000D02*
X76330000Y-139070000D01*
X73670000Y-139070000D02*
X73670000Y-141670000D01*
X73670000Y-137800000D02*
X73670000Y-136470000D01*
X73670000Y-136470000D02*
X75000000Y-136470000D01*
%TO.C,R5*%
X64437258Y-131177500D02*
X63962742Y-131177500D01*
X64437258Y-132222500D02*
X63962742Y-132222500D01*
%TO.C,TP9*%
X71600000Y-141400000D02*
X69200000Y-141400000D01*
X71600000Y-139000000D02*
X71600000Y-141400000D01*
X69200000Y-141400000D02*
X69200000Y-139000000D01*
X69200000Y-139000000D02*
X71600000Y-139000000D01*
%TO.C,R1*%
X63437258Y-105922500D02*
X62962742Y-105922500D01*
X63437258Y-104877500D02*
X62962742Y-104877500D01*
%TO.C,R2*%
X93477500Y-134337742D02*
X93477500Y-134812258D01*
X94522500Y-134337742D02*
X94522500Y-134812258D01*
%TO.C,R4*%
X73112742Y-97277500D02*
X73587258Y-97277500D01*
X73112742Y-98322500D02*
X73587258Y-98322500D01*
%TO.C,JP11*%
X122070000Y-117395000D02*
X123400000Y-117395000D01*
X122070000Y-118725000D02*
X122070000Y-117395000D01*
X122070000Y-119995000D02*
X122070000Y-125135000D01*
X122070000Y-119995000D02*
X124730000Y-119995000D01*
X122070000Y-125135000D02*
X124730000Y-125135000D01*
X124730000Y-119995000D02*
X124730000Y-125135000D01*
%TO.C,TP12*%
X53800000Y-129000000D02*
X51400000Y-129000000D01*
X53800000Y-126600000D02*
X53800000Y-129000000D01*
X51400000Y-129000000D02*
X51400000Y-126600000D01*
X51400000Y-126600000D02*
X53800000Y-126600000D01*
%TO.C,JP4*%
X89370000Y-127530000D02*
X89370000Y-124930000D01*
X92030000Y-124930000D02*
X89370000Y-124930000D01*
X92030000Y-127530000D02*
X89370000Y-127530000D01*
X92030000Y-127530000D02*
X92030000Y-124930000D01*
X92030000Y-128800000D02*
X92030000Y-130130000D01*
X92030000Y-130130000D02*
X90700000Y-130130000D01*
%TO.C,J2*%
X49070000Y-91730000D02*
X49070000Y-90400000D01*
X50400000Y-91730000D02*
X49070000Y-91730000D01*
X51670000Y-89070000D02*
X59350000Y-89070000D01*
X51670000Y-91730000D02*
X51670000Y-89070000D01*
X51670000Y-91730000D02*
X59350000Y-91730000D01*
X59350000Y-91730000D02*
X59350000Y-89070000D01*
%TO.C,TP2*%
X48400000Y-115100000D02*
X50800000Y-115100000D01*
X48400000Y-117500000D02*
X48400000Y-115100000D01*
X50800000Y-115100000D02*
X50800000Y-117500000D01*
X50800000Y-117500000D02*
X48400000Y-117500000D01*
%TO.C,R6*%
X81937258Y-115427500D02*
X81462742Y-115427500D01*
X81937258Y-116472500D02*
X81462742Y-116472500D01*
%TO.C,TP11*%
X80550000Y-118650000D02*
X82950000Y-118650000D01*
X80550000Y-121050000D02*
X80550000Y-118650000D01*
X82950000Y-118650000D02*
X82950000Y-121050000D01*
X82950000Y-121050000D02*
X80550000Y-121050000D01*
%TO.C,JP10*%
X81270000Y-128730000D02*
X81270000Y-126130000D01*
X83930000Y-126130000D02*
X81270000Y-126130000D01*
X83930000Y-128730000D02*
X81270000Y-128730000D01*
X83930000Y-128730000D02*
X83930000Y-126130000D01*
X83930000Y-130000000D02*
X83930000Y-131330000D01*
X83930000Y-131330000D02*
X82600000Y-131330000D01*
D13*
%TO.C,J3*%
X104883900Y-144489340D02*
X104883900Y-145934600D01*
X104883900Y-145680600D02*
X104883900Y-153935600D01*
X104883900Y-145934600D02*
X114866100Y-145934600D01*
X104883900Y-153935600D02*
X114866100Y-153935600D01*
X108399260Y-138873400D02*
X107032740Y-138873400D01*
X112717260Y-138873400D02*
X111350740Y-138873400D01*
X114866100Y-145680600D02*
X104883900Y-145680600D01*
X114866100Y-145934600D02*
X114866100Y-144489340D01*
X114866100Y-153935600D02*
X114866100Y-145680600D01*
D12*
%TO.C,JP6*%
X73670000Y-128870000D02*
X75000000Y-128870000D01*
X73670000Y-130200000D02*
X73670000Y-128870000D01*
X73670000Y-131470000D02*
X73670000Y-134070000D01*
X73670000Y-131470000D02*
X76330000Y-131470000D01*
X73670000Y-134070000D02*
X76330000Y-134070000D01*
X76330000Y-131470000D02*
X76330000Y-134070000D01*
%TO.C,TP3*%
X54025000Y-112550000D02*
X56425000Y-112550000D01*
X54025000Y-114950000D02*
X54025000Y-112550000D01*
X56425000Y-112550000D02*
X56425000Y-114950000D01*
X56425000Y-114950000D02*
X54025000Y-114950000D01*
%TO.C,J5*%
X122045000Y-129780000D02*
X122045000Y-127180000D01*
X122045000Y-132380000D02*
X122045000Y-131050000D01*
X123375000Y-132380000D02*
X122045000Y-132380000D01*
X124705000Y-127180000D02*
X122045000Y-127180000D01*
X124705000Y-129780000D02*
X122045000Y-129780000D01*
X124705000Y-129780000D02*
X124705000Y-127180000D01*
%TO.C,R3*%
X90177500Y-134337742D02*
X90177500Y-134812258D01*
X91222500Y-134337742D02*
X91222500Y-134812258D01*
%TO.C,JP5*%
X81270000Y-133870000D02*
X82600000Y-133870000D01*
X81270000Y-135200000D02*
X81270000Y-133870000D01*
X81270000Y-136470000D02*
X81270000Y-139070000D01*
X81270000Y-136470000D02*
X83930000Y-136470000D01*
X81270000Y-139070000D02*
X83930000Y-139070000D01*
X83930000Y-136470000D02*
X83930000Y-139070000D01*
%TO.C,JP3*%
X93170000Y-127530000D02*
X93170000Y-124930000D01*
X95830000Y-124930000D02*
X93170000Y-124930000D01*
X95830000Y-127530000D02*
X93170000Y-127530000D01*
X95830000Y-127530000D02*
X95830000Y-124930000D01*
X95830000Y-128800000D02*
X95830000Y-130130000D01*
X95830000Y-130130000D02*
X94500000Y-130130000D01*
D11*
%TO.C,S1*%
X62720000Y-82821100D02*
X63500000Y-82821100D01*
X62720000Y-89531100D02*
X62720000Y-82821100D01*
D16*
X66800000Y-95351100D02*
X66800000Y-95351100D01*
X66800000Y-95651100D02*
X66800000Y-95651100D01*
D11*
X70570000Y-78101100D02*
X70570000Y-82821100D01*
X74430000Y-78101100D02*
X70570000Y-78101100D01*
X74430000Y-82821100D02*
X74430000Y-78101100D01*
X76500000Y-82821100D02*
X68500000Y-82821100D01*
X81500000Y-82821100D02*
X82280000Y-82821100D01*
X82280000Y-82821100D02*
X82280000Y-89531100D01*
X82280000Y-89531100D02*
X62720000Y-89531100D01*
D16*
X66800000Y-95351100D02*
G75*
G02*
X66800000Y-95651100I0J-150000D01*
G01*
X66800000Y-95651100D02*
G75*
G02*
X66800000Y-95351100I0J150000D01*
G01*
D12*
%TO.C,TP10*%
X65200000Y-139000000D02*
X67600000Y-139000000D01*
X65200000Y-141400000D02*
X65200000Y-139000000D01*
X67600000Y-139000000D02*
X67600000Y-141400000D01*
X67600000Y-141400000D02*
X65200000Y-141400000D01*
%TO.C,TP6*%
X44400000Y-120050000D02*
X46800000Y-120050000D01*
X44400000Y-122450000D02*
X44400000Y-120050000D01*
X46800000Y-120050000D02*
X46800000Y-122450000D01*
X46800000Y-122450000D02*
X44400000Y-122450000D01*
%TO.C,TP13*%
X79700000Y-109850000D02*
X82100000Y-109850000D01*
X79700000Y-112250000D02*
X79700000Y-109850000D01*
X82100000Y-109850000D02*
X82100000Y-112250000D01*
X82100000Y-112250000D02*
X79700000Y-112250000D01*
%TO.C,JP8*%
X61130000Y-141105000D02*
X59800000Y-141105000D01*
X61130000Y-139775000D02*
X61130000Y-141105000D01*
X61130000Y-138505000D02*
X61130000Y-135905000D01*
X61130000Y-138505000D02*
X58470000Y-138505000D01*
X61130000Y-135905000D02*
X58470000Y-135905000D01*
X58470000Y-138505000D02*
X58470000Y-135905000D01*
%TO.C,J4*%
X85070000Y-116555000D02*
X85070000Y-111415000D01*
X87730000Y-111415000D02*
X85070000Y-111415000D01*
X87730000Y-116555000D02*
X85070000Y-116555000D01*
X87730000Y-116555000D02*
X87730000Y-111415000D01*
X87730000Y-117825000D02*
X87730000Y-119155000D01*
X87730000Y-119155000D02*
X86400000Y-119155000D01*
%TO.C,TP16*%
X59600000Y-84400000D02*
X57200000Y-84400000D01*
X59600000Y-82000000D02*
X59600000Y-84400000D01*
X57200000Y-84400000D02*
X57200000Y-82000000D01*
X57200000Y-82000000D02*
X59600000Y-82000000D01*
%TO.C,TP7*%
X54000000Y-107200000D02*
X56400000Y-107200000D01*
X54000000Y-109600000D02*
X54000000Y-107200000D01*
X56400000Y-107200000D02*
X56400000Y-109600000D01*
X56400000Y-109600000D02*
X54000000Y-109600000D01*
%TO.C,JP7*%
X86005000Y-104170000D02*
X86005000Y-105500000D01*
X84675000Y-104170000D02*
X86005000Y-104170000D01*
X83405000Y-106830000D02*
X80805000Y-106830000D01*
X83405000Y-104170000D02*
X83405000Y-106830000D01*
X83405000Y-104170000D02*
X80805000Y-104170000D01*
X80805000Y-104170000D02*
X80805000Y-106830000D01*
%TO.C,TP1*%
X54000000Y-103800000D02*
X56400000Y-103800000D01*
X54000000Y-106200000D02*
X54000000Y-103800000D01*
X56400000Y-103800000D02*
X56400000Y-106200000D01*
X56400000Y-106200000D02*
X54000000Y-106200000D01*
%TO.C,TP15*%
X88000000Y-81800000D02*
X90400000Y-81800000D01*
X88000000Y-84200000D02*
X88000000Y-81800000D01*
X90400000Y-81800000D02*
X90400000Y-84200000D01*
X90400000Y-84200000D02*
X88000000Y-84200000D01*
D15*
%TO.C,C11*%
X123850000Y-99300000D02*
G75*
G02*
X88350000Y-99300000I-17750000J0D01*
G01*
X88350000Y-99300000D02*
G75*
G02*
X123850000Y-99300000I17750000J0D01*
G01*
D12*
%TO.C,R7*%
X81937258Y-113677500D02*
X81462742Y-113677500D01*
X81937258Y-114722500D02*
X81462742Y-114722500D01*
%TO.C,J1*%
X47830000Y-128230000D02*
X47830000Y-135910000D01*
X47830000Y-125630000D02*
X47830000Y-126960000D01*
X46500000Y-125630000D02*
X47830000Y-125630000D01*
X45230000Y-128230000D02*
X47830000Y-128230000D01*
X45230000Y-125630000D02*
X45230000Y-128230000D01*
X42630000Y-135910000D02*
X47830000Y-135910000D01*
X42630000Y-125630000D02*
X45230000Y-125630000D01*
X42630000Y-125630000D02*
X42630000Y-135910000D01*
%TD*%
M02*
