%TF.GenerationSoftware,KiCad,Pcbnew,8.0.2*%
%TF.CreationDate,2024-07-16T02:54:12-07:00*%
%TF.ProjectId,sensor-node-rev-2,73656e73-6f72-42d6-9e6f-64652d726576,rev?*%
%TF.SameCoordinates,Original*%
%TF.FileFunction,Legend,Bot*%
%TF.FilePolarity,Positive*%
%FSLAX46Y46*%
G04 Gerber Fmt 4.6, Leading zero omitted, Abs format (unit mm)*
G04 Created by KiCad (PCBNEW 8.0.2) date 2024-07-16 02:54:12*
%MOMM*%
%LPD*%
G01*
G04 APERTURE LIST*
%ADD10C,0.150000*%
G04 APERTURE END LIST*
D10*
X119945057Y-104499160D02*
X119897438Y-104546779D01*
X119897438Y-104546779D02*
X119849819Y-104642017D01*
X119849819Y-104642017D02*
X119849819Y-104880112D01*
X119849819Y-104880112D02*
X119897438Y-104975350D01*
X119897438Y-104975350D02*
X119945057Y-105022969D01*
X119945057Y-105022969D02*
X120040295Y-105070588D01*
X120040295Y-105070588D02*
X120135533Y-105070588D01*
X120135533Y-105070588D02*
X120278390Y-105022969D01*
X120278390Y-105022969D02*
X120849819Y-104451541D01*
X120849819Y-104451541D02*
X120849819Y-105070588D01*
X119849819Y-105689636D02*
X119849819Y-105784874D01*
X119849819Y-105784874D02*
X119897438Y-105880112D01*
X119897438Y-105880112D02*
X119945057Y-105927731D01*
X119945057Y-105927731D02*
X120040295Y-105975350D01*
X120040295Y-105975350D02*
X120230771Y-106022969D01*
X120230771Y-106022969D02*
X120468866Y-106022969D01*
X120468866Y-106022969D02*
X120659342Y-105975350D01*
X120659342Y-105975350D02*
X120754580Y-105927731D01*
X120754580Y-105927731D02*
X120802200Y-105880112D01*
X120802200Y-105880112D02*
X120849819Y-105784874D01*
X120849819Y-105784874D02*
X120849819Y-105689636D01*
X120849819Y-105689636D02*
X120802200Y-105594398D01*
X120802200Y-105594398D02*
X120754580Y-105546779D01*
X120754580Y-105546779D02*
X120659342Y-105499160D01*
X120659342Y-105499160D02*
X120468866Y-105451541D01*
X120468866Y-105451541D02*
X120230771Y-105451541D01*
X120230771Y-105451541D02*
X120040295Y-105499160D01*
X120040295Y-105499160D02*
X119945057Y-105546779D01*
X119945057Y-105546779D02*
X119897438Y-105594398D01*
X119897438Y-105594398D02*
X119849819Y-105689636D01*
X119945057Y-106403922D02*
X119897438Y-106451541D01*
X119897438Y-106451541D02*
X119849819Y-106546779D01*
X119849819Y-106546779D02*
X119849819Y-106784874D01*
X119849819Y-106784874D02*
X119897438Y-106880112D01*
X119897438Y-106880112D02*
X119945057Y-106927731D01*
X119945057Y-106927731D02*
X120040295Y-106975350D01*
X120040295Y-106975350D02*
X120135533Y-106975350D01*
X120135533Y-106975350D02*
X120278390Y-106927731D01*
X120278390Y-106927731D02*
X120849819Y-106356303D01*
X120849819Y-106356303D02*
X120849819Y-106975350D01*
X120183152Y-107832493D02*
X120849819Y-107832493D01*
X119802200Y-107594398D02*
X120516485Y-107356303D01*
X120516485Y-107356303D02*
X120516485Y-107975350D01*
X120468866Y-108356303D02*
X120468866Y-109118208D01*
X119849819Y-109784874D02*
X119849819Y-109880112D01*
X119849819Y-109880112D02*
X119897438Y-109975350D01*
X119897438Y-109975350D02*
X119945057Y-110022969D01*
X119945057Y-110022969D02*
X120040295Y-110070588D01*
X120040295Y-110070588D02*
X120230771Y-110118207D01*
X120230771Y-110118207D02*
X120468866Y-110118207D01*
X120468866Y-110118207D02*
X120659342Y-110070588D01*
X120659342Y-110070588D02*
X120754580Y-110022969D01*
X120754580Y-110022969D02*
X120802200Y-109975350D01*
X120802200Y-109975350D02*
X120849819Y-109880112D01*
X120849819Y-109880112D02*
X120849819Y-109784874D01*
X120849819Y-109784874D02*
X120802200Y-109689636D01*
X120802200Y-109689636D02*
X120754580Y-109642017D01*
X120754580Y-109642017D02*
X120659342Y-109594398D01*
X120659342Y-109594398D02*
X120468866Y-109546779D01*
X120468866Y-109546779D02*
X120230771Y-109546779D01*
X120230771Y-109546779D02*
X120040295Y-109594398D01*
X120040295Y-109594398D02*
X119945057Y-109642017D01*
X119945057Y-109642017D02*
X119897438Y-109689636D01*
X119897438Y-109689636D02*
X119849819Y-109784874D01*
X119849819Y-110451541D02*
X119849819Y-111118207D01*
X119849819Y-111118207D02*
X120849819Y-110689636D01*
X119009819Y-104546779D02*
X118009819Y-104546779D01*
X118009819Y-104546779D02*
X118724104Y-104880112D01*
X118724104Y-104880112D02*
X118009819Y-105213445D01*
X118009819Y-105213445D02*
X119009819Y-105213445D01*
X119009819Y-105689636D02*
X118343152Y-105689636D01*
X118009819Y-105689636D02*
X118057438Y-105642017D01*
X118057438Y-105642017D02*
X118105057Y-105689636D01*
X118105057Y-105689636D02*
X118057438Y-105737255D01*
X118057438Y-105737255D02*
X118009819Y-105689636D01*
X118009819Y-105689636D02*
X118105057Y-105689636D01*
X119009819Y-106165826D02*
X118009819Y-106165826D01*
X119009819Y-106594397D02*
X118486009Y-106594397D01*
X118486009Y-106594397D02*
X118390771Y-106546778D01*
X118390771Y-106546778D02*
X118343152Y-106451540D01*
X118343152Y-106451540D02*
X118343152Y-106308683D01*
X118343152Y-106308683D02*
X118390771Y-106213445D01*
X118390771Y-106213445D02*
X118438390Y-106165826D01*
X119009819Y-107070588D02*
X118343152Y-107070588D01*
X118009819Y-107070588D02*
X118057438Y-107022969D01*
X118057438Y-107022969D02*
X118105057Y-107070588D01*
X118105057Y-107070588D02*
X118057438Y-107118207D01*
X118057438Y-107118207D02*
X118009819Y-107070588D01*
X118009819Y-107070588D02*
X118105057Y-107070588D01*
X119009819Y-107546778D02*
X118343152Y-107546778D01*
X118533628Y-107546778D02*
X118438390Y-107594397D01*
X118438390Y-107594397D02*
X118390771Y-107642016D01*
X118390771Y-107642016D02*
X118343152Y-107737254D01*
X118343152Y-107737254D02*
X118343152Y-107832492D01*
X119009819Y-108927731D02*
X118009819Y-108927731D01*
X118009819Y-108927731D02*
X119009819Y-109499159D01*
X119009819Y-109499159D02*
X118009819Y-109499159D01*
X119009819Y-109975350D02*
X118343152Y-109975350D01*
X118009819Y-109975350D02*
X118057438Y-109927731D01*
X118057438Y-109927731D02*
X118105057Y-109975350D01*
X118105057Y-109975350D02*
X118057438Y-110022969D01*
X118057438Y-110022969D02*
X118009819Y-109975350D01*
X118009819Y-109975350D02*
X118105057Y-109975350D01*
X119009819Y-110451540D02*
X118343152Y-110451540D01*
X118438390Y-110451540D02*
X118390771Y-110499159D01*
X118390771Y-110499159D02*
X118343152Y-110594397D01*
X118343152Y-110594397D02*
X118343152Y-110737254D01*
X118343152Y-110737254D02*
X118390771Y-110832492D01*
X118390771Y-110832492D02*
X118486009Y-110880111D01*
X118486009Y-110880111D02*
X119009819Y-110880111D01*
X118486009Y-110880111D02*
X118390771Y-110927730D01*
X118390771Y-110927730D02*
X118343152Y-111022968D01*
X118343152Y-111022968D02*
X118343152Y-111165825D01*
X118343152Y-111165825D02*
X118390771Y-111261064D01*
X118390771Y-111261064D02*
X118486009Y-111308683D01*
X118486009Y-111308683D02*
X119009819Y-111308683D01*
X118343152Y-112213444D02*
X119152676Y-112213444D01*
X119152676Y-112213444D02*
X119247914Y-112165825D01*
X119247914Y-112165825D02*
X119295533Y-112118206D01*
X119295533Y-112118206D02*
X119343152Y-112022968D01*
X119343152Y-112022968D02*
X119343152Y-111880111D01*
X119343152Y-111880111D02*
X119295533Y-111784873D01*
X118962200Y-112213444D02*
X119009819Y-112118206D01*
X119009819Y-112118206D02*
X119009819Y-111927730D01*
X119009819Y-111927730D02*
X118962200Y-111832492D01*
X118962200Y-111832492D02*
X118914580Y-111784873D01*
X118914580Y-111784873D02*
X118819342Y-111737254D01*
X118819342Y-111737254D02*
X118533628Y-111737254D01*
X118533628Y-111737254D02*
X118438390Y-111784873D01*
X118438390Y-111784873D02*
X118390771Y-111832492D01*
X118390771Y-111832492D02*
X118343152Y-111927730D01*
X118343152Y-111927730D02*
X118343152Y-112118206D01*
X118343152Y-112118206D02*
X118390771Y-112213444D01*
X119009819Y-113118206D02*
X118486009Y-113118206D01*
X118486009Y-113118206D02*
X118390771Y-113070587D01*
X118390771Y-113070587D02*
X118343152Y-112975349D01*
X118343152Y-112975349D02*
X118343152Y-112784873D01*
X118343152Y-112784873D02*
X118390771Y-112689635D01*
X118962200Y-113118206D02*
X119009819Y-113022968D01*
X119009819Y-113022968D02*
X119009819Y-112784873D01*
X119009819Y-112784873D02*
X118962200Y-112689635D01*
X118962200Y-112689635D02*
X118866961Y-112642016D01*
X118866961Y-112642016D02*
X118771723Y-112642016D01*
X118771723Y-112642016D02*
X118676485Y-112689635D01*
X118676485Y-112689635D02*
X118628866Y-112784873D01*
X118628866Y-112784873D02*
X118628866Y-113022968D01*
X118628866Y-113022968D02*
X118581247Y-113118206D01*
X119009819Y-114022968D02*
X118009819Y-114022968D01*
X118962200Y-114022968D02*
X119009819Y-113927730D01*
X119009819Y-113927730D02*
X119009819Y-113737254D01*
X119009819Y-113737254D02*
X118962200Y-113642016D01*
X118962200Y-113642016D02*
X118914580Y-113594397D01*
X118914580Y-113594397D02*
X118819342Y-113546778D01*
X118819342Y-113546778D02*
X118533628Y-113546778D01*
X118533628Y-113546778D02*
X118438390Y-113594397D01*
X118438390Y-113594397D02*
X118390771Y-113642016D01*
X118390771Y-113642016D02*
X118343152Y-113737254D01*
X118343152Y-113737254D02*
X118343152Y-113927730D01*
X118343152Y-113927730D02*
X118390771Y-114022968D01*
X118962200Y-114880111D02*
X119009819Y-114784873D01*
X119009819Y-114784873D02*
X119009819Y-114594397D01*
X119009819Y-114594397D02*
X118962200Y-114499159D01*
X118962200Y-114499159D02*
X118866961Y-114451540D01*
X118866961Y-114451540D02*
X118486009Y-114451540D01*
X118486009Y-114451540D02*
X118390771Y-114499159D01*
X118390771Y-114499159D02*
X118343152Y-114594397D01*
X118343152Y-114594397D02*
X118343152Y-114784873D01*
X118343152Y-114784873D02*
X118390771Y-114880111D01*
X118390771Y-114880111D02*
X118486009Y-114927730D01*
X118486009Y-114927730D02*
X118581247Y-114927730D01*
X118581247Y-114927730D02*
X118676485Y-114451540D01*
M02*
