M48
; DRILL file {KiCad 8.0.2} date 2024-07-16T02:54:06-0700
; FORMAT={-:-/ absolute / metric / decimal}
; #@! TF.CreationDate,2024-07-16T02:54:06-07:00
; #@! TF.GenerationSoftware,Kicad,Pcbnew,8.0.2
; #@! TF.FileFunction,Plated,1,2,PTH
FMAT,2
METRIC
; #@! TA.AperFunction,Plated,PTH,ViaDrill
T1C0.300
; #@! TA.AperFunction,Plated,PTH,ViaDrill
T2C0.400
; #@! TA.AperFunction,Plated,PTH,ComponentDrill
T3C1.000
; #@! TA.AperFunction,Plated,PTH,ComponentDrill
T4C2.200
%
G90
G05
T1
X75.47Y-110.28
X75.49Y-107.42
X75.5Y-102.8
X77.0Y-124.0
X77.2Y-105.2
X77.6Y-113.2
X78.07Y-109.24
X78.41Y-127.05
X78.8Y-114.2
X78.9Y-102.8
X79.4Y-116.0
X80.0Y-124.4
X80.48Y-123.04
X80.6Y-105.2
X81.23Y-102.39
X81.4Y-115.6
X81.42Y-103.41
X81.46Y-114.36
X81.84Y-128.24
X81.95Y-141.15
X82.025Y-127.275
X82.19Y-142.83
X82.75Y-110.7
X82.75Y-112.1
X84.15Y-110.7
X84.15Y-112.1
X84.49Y-120.28
X84.525Y-116.425
X84.972Y-126.603
X85.35Y-104.25
X85.9Y-102.8
X86.125Y-117.075
X86.3Y-132.3
X86.427Y-104.277
X87.0Y-139.0
X87.1Y-130.7
X87.7Y-124.4
X87.74Y-125.74
X87.87Y-131.39
X88.0Y-139.0
X88.0Y-140.0
X88.2Y-133.2
X89.15Y-117.825
X89.3Y-102.8
X89.575Y-131.37
X89.9Y-133.5
X90.1Y-122.65
X90.3Y-126.8
X90.8Y-105.6
X90.9Y-132.68
X91.1Y-142.5
X91.4Y-116.425
X92.0Y-125.0
X92.0Y-128.6
X92.03Y-114.68
X92.1Y-117.075
X92.26Y-110.82
X92.4Y-107.2
X92.7Y-102.8
X92.96Y-118.34
X93.8Y-126.8
X94.25Y-120.75
X95.5Y-121.0
X95.8Y-129.6
X95.8Y-131.0
X95.865Y-128.19
X96.1Y-102.8
X96.84Y-122.8
X96.84Y-125.0
X97.4Y-137.2
X97.5Y-127.5
X97.5Y-129.0
X98.7Y-138.2
X98.85Y-122.8
X98.85Y-131.15
X99.5Y-102.8
X99.82Y-134.22
X99.9Y-120.75
X100.0Y-127.5
X100.0Y-129.0
X100.07Y-132.41
X100.15Y-139.6
X100.2Y-122.45
X101.5Y-97.5
X101.5Y-100.9
X102.13Y-132.41
X102.56Y-109.46
X102.88Y-112.26
X107.5Y-128.5
X107.9Y-131.41
X109.1Y-126.9
X114.92Y-128.26
X115.71Y-123.89
X116.42Y-130.87
X116.88Y-128.8
X117.58Y-123.52
T2
X104.75Y-140.7
X104.75Y-142.1
X111.5Y-123.0
X115.0Y-140.7
X115.0Y-142.1
T3
X94.92Y-142.0
X97.46Y-142.0
X100.0Y-142.0
X105.0Y-100.5
X107.54Y-100.5
X110.08Y-100.5
X112.62Y-100.5
T4
X78.5Y-140.5
X118.5Y-100.5
X118.5Y-140.5
M30
