%TF.GenerationSoftware,KiCad,Pcbnew,8.0.2*%
%TF.CreationDate,2024-07-16T11:33:13-07:00*%
%TF.ProjectId,sensor-node-rev-2,73656e73-6f72-42d6-9e6f-64652d726576,rev?*%
%TF.SameCoordinates,Original*%
%TF.FileFunction,Legend,Bot*%
%TF.FilePolarity,Positive*%
%FSLAX46Y46*%
G04 Gerber Fmt 4.6, Leading zero omitted, Abs format (unit mm)*
G04 Created by KiCad (PCBNEW 8.0.2) date 2024-07-16 11:33:13*
%MOMM*%
%LPD*%
G01*
G04 APERTURE LIST*
%ADD10C,0.150000*%
%ADD11C,0.000000*%
G04 APERTURE END LIST*
D10*
X118971442Y-114980361D02*
X119019061Y-114932742D01*
X119019061Y-114932742D02*
X119066680Y-114837504D01*
X119066680Y-114837504D02*
X119066680Y-114599409D01*
X119066680Y-114599409D02*
X119019061Y-114504171D01*
X119019061Y-114504171D02*
X118971442Y-114456552D01*
X118971442Y-114456552D02*
X118876204Y-114408933D01*
X118876204Y-114408933D02*
X118780966Y-114408933D01*
X118780966Y-114408933D02*
X118638109Y-114456552D01*
X118638109Y-114456552D02*
X118066680Y-115027980D01*
X118066680Y-115027980D02*
X118066680Y-114408933D01*
X119066680Y-113789885D02*
X119066680Y-113694647D01*
X119066680Y-113694647D02*
X119019061Y-113599409D01*
X119019061Y-113599409D02*
X118971442Y-113551790D01*
X118971442Y-113551790D02*
X118876204Y-113504171D01*
X118876204Y-113504171D02*
X118685728Y-113456552D01*
X118685728Y-113456552D02*
X118447633Y-113456552D01*
X118447633Y-113456552D02*
X118257157Y-113504171D01*
X118257157Y-113504171D02*
X118161919Y-113551790D01*
X118161919Y-113551790D02*
X118114300Y-113599409D01*
X118114300Y-113599409D02*
X118066680Y-113694647D01*
X118066680Y-113694647D02*
X118066680Y-113789885D01*
X118066680Y-113789885D02*
X118114300Y-113885123D01*
X118114300Y-113885123D02*
X118161919Y-113932742D01*
X118161919Y-113932742D02*
X118257157Y-113980361D01*
X118257157Y-113980361D02*
X118447633Y-114027980D01*
X118447633Y-114027980D02*
X118685728Y-114027980D01*
X118685728Y-114027980D02*
X118876204Y-113980361D01*
X118876204Y-113980361D02*
X118971442Y-113932742D01*
X118971442Y-113932742D02*
X119019061Y-113885123D01*
X119019061Y-113885123D02*
X119066680Y-113789885D01*
X118971442Y-113075599D02*
X119019061Y-113027980D01*
X119019061Y-113027980D02*
X119066680Y-112932742D01*
X119066680Y-112932742D02*
X119066680Y-112694647D01*
X119066680Y-112694647D02*
X119019061Y-112599409D01*
X119019061Y-112599409D02*
X118971442Y-112551790D01*
X118971442Y-112551790D02*
X118876204Y-112504171D01*
X118876204Y-112504171D02*
X118780966Y-112504171D01*
X118780966Y-112504171D02*
X118638109Y-112551790D01*
X118638109Y-112551790D02*
X118066680Y-113123218D01*
X118066680Y-113123218D02*
X118066680Y-112504171D01*
X118733347Y-111647028D02*
X118066680Y-111647028D01*
X119114300Y-111885123D02*
X118400014Y-112123218D01*
X118400014Y-112123218D02*
X118400014Y-111504171D01*
X118447633Y-111123218D02*
X118447633Y-110361314D01*
X119066680Y-109694647D02*
X119066680Y-109599409D01*
X119066680Y-109599409D02*
X119019061Y-109504171D01*
X119019061Y-109504171D02*
X118971442Y-109456552D01*
X118971442Y-109456552D02*
X118876204Y-109408933D01*
X118876204Y-109408933D02*
X118685728Y-109361314D01*
X118685728Y-109361314D02*
X118447633Y-109361314D01*
X118447633Y-109361314D02*
X118257157Y-109408933D01*
X118257157Y-109408933D02*
X118161919Y-109456552D01*
X118161919Y-109456552D02*
X118114300Y-109504171D01*
X118114300Y-109504171D02*
X118066680Y-109599409D01*
X118066680Y-109599409D02*
X118066680Y-109694647D01*
X118066680Y-109694647D02*
X118114300Y-109789885D01*
X118114300Y-109789885D02*
X118161919Y-109837504D01*
X118161919Y-109837504D02*
X118257157Y-109885123D01*
X118257157Y-109885123D02*
X118447633Y-109932742D01*
X118447633Y-109932742D02*
X118685728Y-109932742D01*
X118685728Y-109932742D02*
X118876204Y-109885123D01*
X118876204Y-109885123D02*
X118971442Y-109837504D01*
X118971442Y-109837504D02*
X119019061Y-109789885D01*
X119019061Y-109789885D02*
X119066680Y-109694647D01*
X119066680Y-109027980D02*
X119066680Y-108361314D01*
X119066680Y-108361314D02*
X118066680Y-108789885D01*
X119906680Y-114932742D02*
X120906680Y-114932742D01*
X120906680Y-114932742D02*
X120192395Y-114599409D01*
X120192395Y-114599409D02*
X120906680Y-114266076D01*
X120906680Y-114266076D02*
X119906680Y-114266076D01*
X119906680Y-113789885D02*
X120573347Y-113789885D01*
X120906680Y-113789885D02*
X120859061Y-113837504D01*
X120859061Y-113837504D02*
X120811442Y-113789885D01*
X120811442Y-113789885D02*
X120859061Y-113742266D01*
X120859061Y-113742266D02*
X120906680Y-113789885D01*
X120906680Y-113789885D02*
X120811442Y-113789885D01*
X119906680Y-113313695D02*
X120906680Y-113313695D01*
X119906680Y-112885124D02*
X120430490Y-112885124D01*
X120430490Y-112885124D02*
X120525728Y-112932743D01*
X120525728Y-112932743D02*
X120573347Y-113027981D01*
X120573347Y-113027981D02*
X120573347Y-113170838D01*
X120573347Y-113170838D02*
X120525728Y-113266076D01*
X120525728Y-113266076D02*
X120478109Y-113313695D01*
X119906680Y-112408933D02*
X120573347Y-112408933D01*
X120906680Y-112408933D02*
X120859061Y-112456552D01*
X120859061Y-112456552D02*
X120811442Y-112408933D01*
X120811442Y-112408933D02*
X120859061Y-112361314D01*
X120859061Y-112361314D02*
X120906680Y-112408933D01*
X120906680Y-112408933D02*
X120811442Y-112408933D01*
X119906680Y-111932743D02*
X120573347Y-111932743D01*
X120382871Y-111932743D02*
X120478109Y-111885124D01*
X120478109Y-111885124D02*
X120525728Y-111837505D01*
X120525728Y-111837505D02*
X120573347Y-111742267D01*
X120573347Y-111742267D02*
X120573347Y-111647029D01*
X119906680Y-110551790D02*
X120906680Y-110551790D01*
X120906680Y-110551790D02*
X119906680Y-109980362D01*
X119906680Y-109980362D02*
X120906680Y-109980362D01*
X119906680Y-109504171D02*
X120573347Y-109504171D01*
X120906680Y-109504171D02*
X120859061Y-109551790D01*
X120859061Y-109551790D02*
X120811442Y-109504171D01*
X120811442Y-109504171D02*
X120859061Y-109456552D01*
X120859061Y-109456552D02*
X120906680Y-109504171D01*
X120906680Y-109504171D02*
X120811442Y-109504171D01*
X119906680Y-109027981D02*
X120573347Y-109027981D01*
X120478109Y-109027981D02*
X120525728Y-108980362D01*
X120525728Y-108980362D02*
X120573347Y-108885124D01*
X120573347Y-108885124D02*
X120573347Y-108742267D01*
X120573347Y-108742267D02*
X120525728Y-108647029D01*
X120525728Y-108647029D02*
X120430490Y-108599410D01*
X120430490Y-108599410D02*
X119906680Y-108599410D01*
X120430490Y-108599410D02*
X120525728Y-108551791D01*
X120525728Y-108551791D02*
X120573347Y-108456553D01*
X120573347Y-108456553D02*
X120573347Y-108313696D01*
X120573347Y-108313696D02*
X120525728Y-108218457D01*
X120525728Y-108218457D02*
X120430490Y-108170838D01*
X120430490Y-108170838D02*
X119906680Y-108170838D01*
X120573347Y-107266077D02*
X119763823Y-107266077D01*
X119763823Y-107266077D02*
X119668585Y-107313696D01*
X119668585Y-107313696D02*
X119620966Y-107361315D01*
X119620966Y-107361315D02*
X119573347Y-107456553D01*
X119573347Y-107456553D02*
X119573347Y-107599410D01*
X119573347Y-107599410D02*
X119620966Y-107694648D01*
X119954300Y-107266077D02*
X119906680Y-107361315D01*
X119906680Y-107361315D02*
X119906680Y-107551791D01*
X119906680Y-107551791D02*
X119954300Y-107647029D01*
X119954300Y-107647029D02*
X120001919Y-107694648D01*
X120001919Y-107694648D02*
X120097157Y-107742267D01*
X120097157Y-107742267D02*
X120382871Y-107742267D01*
X120382871Y-107742267D02*
X120478109Y-107694648D01*
X120478109Y-107694648D02*
X120525728Y-107647029D01*
X120525728Y-107647029D02*
X120573347Y-107551791D01*
X120573347Y-107551791D02*
X120573347Y-107361315D01*
X120573347Y-107361315D02*
X120525728Y-107266077D01*
X119906680Y-106361315D02*
X120430490Y-106361315D01*
X120430490Y-106361315D02*
X120525728Y-106408934D01*
X120525728Y-106408934D02*
X120573347Y-106504172D01*
X120573347Y-106504172D02*
X120573347Y-106694648D01*
X120573347Y-106694648D02*
X120525728Y-106789886D01*
X119954300Y-106361315D02*
X119906680Y-106456553D01*
X119906680Y-106456553D02*
X119906680Y-106694648D01*
X119906680Y-106694648D02*
X119954300Y-106789886D01*
X119954300Y-106789886D02*
X120049538Y-106837505D01*
X120049538Y-106837505D02*
X120144776Y-106837505D01*
X120144776Y-106837505D02*
X120240014Y-106789886D01*
X120240014Y-106789886D02*
X120287633Y-106694648D01*
X120287633Y-106694648D02*
X120287633Y-106456553D01*
X120287633Y-106456553D02*
X120335252Y-106361315D01*
X119906680Y-105456553D02*
X120906680Y-105456553D01*
X119954300Y-105456553D02*
X119906680Y-105551791D01*
X119906680Y-105551791D02*
X119906680Y-105742267D01*
X119906680Y-105742267D02*
X119954300Y-105837505D01*
X119954300Y-105837505D02*
X120001919Y-105885124D01*
X120001919Y-105885124D02*
X120097157Y-105932743D01*
X120097157Y-105932743D02*
X120382871Y-105932743D01*
X120382871Y-105932743D02*
X120478109Y-105885124D01*
X120478109Y-105885124D02*
X120525728Y-105837505D01*
X120525728Y-105837505D02*
X120573347Y-105742267D01*
X120573347Y-105742267D02*
X120573347Y-105551791D01*
X120573347Y-105551791D02*
X120525728Y-105456553D01*
X119954300Y-104599410D02*
X119906680Y-104694648D01*
X119906680Y-104694648D02*
X119906680Y-104885124D01*
X119906680Y-104885124D02*
X119954300Y-104980362D01*
X119954300Y-104980362D02*
X120049538Y-105027981D01*
X120049538Y-105027981D02*
X120430490Y-105027981D01*
X120430490Y-105027981D02*
X120525728Y-104980362D01*
X120525728Y-104980362D02*
X120573347Y-104885124D01*
X120573347Y-104885124D02*
X120573347Y-104694648D01*
X120573347Y-104694648D02*
X120525728Y-104599410D01*
X120525728Y-104599410D02*
X120430490Y-104551791D01*
X120430490Y-104551791D02*
X120335252Y-104551791D01*
X120335252Y-104551791D02*
X120240014Y-105027981D01*
D11*
%TO.C,G\u002A\u002A\u002A*%
G36*
X111863568Y-106274318D02*
G01*
X111864852Y-106276272D01*
X111893831Y-106290036D01*
X111951990Y-106306419D01*
X112028554Y-106322285D01*
X112071089Y-106330059D01*
X112174718Y-106352554D01*
X112248503Y-106376357D01*
X112301747Y-106405001D01*
X112343754Y-106442022D01*
X112376129Y-106494792D01*
X112385460Y-106580070D01*
X112383343Y-106587959D01*
X112358049Y-106682218D01*
X112338236Y-106719557D01*
X112284205Y-106772826D01*
X112201946Y-106809010D01*
X112084989Y-106831651D01*
X112037639Y-106838910D01*
X111985333Y-106853817D01*
X111972596Y-106870907D01*
X112004458Y-106943730D01*
X112039402Y-107029870D01*
X112068608Y-107113003D01*
X112092610Y-107197668D01*
X112111944Y-107288400D01*
X112127144Y-107389737D01*
X112138743Y-107506217D01*
X112147276Y-107642377D01*
X112153278Y-107802754D01*
X112157282Y-107991886D01*
X112159823Y-108214310D01*
X112161436Y-108474564D01*
X112162315Y-108652177D01*
X112163447Y-108840234D01*
X112164760Y-108992061D01*
X112166415Y-109111075D01*
X112168574Y-109200697D01*
X112171401Y-109264346D01*
X112175057Y-109305441D01*
X112179705Y-109327401D01*
X112185507Y-109333645D01*
X112192625Y-109327594D01*
X112201222Y-109312665D01*
X112212097Y-109292945D01*
X112282174Y-109201224D01*
X112369685Y-109127633D01*
X112461403Y-109083804D01*
X112501383Y-109074934D01*
X112596777Y-109063476D01*
X112707262Y-109058637D01*
X112818604Y-109060417D01*
X112916567Y-109068813D01*
X112986916Y-109083827D01*
X113034997Y-109104132D01*
X113151256Y-109179189D01*
X113256049Y-109281869D01*
X113338004Y-109401870D01*
X113384093Y-109507741D01*
X113408390Y-109563554D01*
X113464622Y-109755777D01*
X113501752Y-109961679D01*
X113516632Y-110167765D01*
X113516321Y-110179808D01*
X113512697Y-110320187D01*
X113489204Y-110482877D01*
X113443406Y-110616240D01*
X113373559Y-110724998D01*
X113277919Y-110813872D01*
X113210892Y-110863322D01*
X113578048Y-110851948D01*
X113856864Y-110852069D01*
X114106995Y-110872276D01*
X114328436Y-110914279D01*
X114525888Y-110979639D01*
X114704053Y-111069920D01*
X114867634Y-111186683D01*
X115021331Y-111331490D01*
X115136378Y-111465549D01*
X115284642Y-111688747D01*
X115399112Y-111934356D01*
X115480274Y-112203758D01*
X115528615Y-112498336D01*
X115544620Y-112819473D01*
X115543660Y-112844974D01*
X115536225Y-113042376D01*
X115505671Y-113269798D01*
X115461822Y-113431087D01*
X115453029Y-113463428D01*
X115378584Y-113622508D01*
X115282617Y-113746279D01*
X115165414Y-113833985D01*
X115132758Y-113848837D01*
X115027070Y-113872104D01*
X114908965Y-113871201D01*
X114794013Y-113847219D01*
X114697783Y-113801247D01*
X114631022Y-113746247D01*
X114543602Y-113639839D01*
X114467017Y-113499611D01*
X114426238Y-113393244D01*
X114635620Y-113393244D01*
X114675086Y-113469954D01*
X114678889Y-113477091D01*
X114724831Y-113546055D01*
X114778434Y-113607342D01*
X114816675Y-113637279D01*
X114907084Y-113674319D01*
X115003011Y-113677534D01*
X115091377Y-113645337D01*
X115123265Y-113621007D01*
X115171337Y-113570700D01*
X115211719Y-113514635D01*
X115236565Y-113464277D01*
X115238026Y-113431087D01*
X115237064Y-113429721D01*
X115205167Y-113409770D01*
X115146027Y-113387463D01*
X115073185Y-113366702D01*
X115000181Y-113351385D01*
X114940555Y-113345413D01*
X114907916Y-113347073D01*
X114834294Y-113355737D01*
X114754704Y-113369329D01*
X114635620Y-113393244D01*
X114426238Y-113393244D01*
X114398726Y-113321483D01*
X114330304Y-113112572D01*
X114281293Y-113184698D01*
X114258792Y-113212857D01*
X114178697Y-113279440D01*
X114075680Y-113335209D01*
X113963616Y-113373534D01*
X113856379Y-113387782D01*
X113847868Y-113387684D01*
X113722704Y-113366923D01*
X113598604Y-113314748D01*
X113492390Y-113238079D01*
X113487086Y-113232935D01*
X113422144Y-113142271D01*
X113379443Y-113030850D01*
X113606708Y-113030850D01*
X113607644Y-113066539D01*
X113647890Y-113109001D01*
X113725804Y-113156303D01*
X113741685Y-113163956D01*
X113804612Y-113187435D01*
X113854327Y-113196658D01*
X113913083Y-113185472D01*
X113986644Y-113157349D01*
X114055560Y-113120709D01*
X114101382Y-113083969D01*
X114105028Y-113079439D01*
X114115244Y-113056825D01*
X114098654Y-113038141D01*
X114048594Y-113014633D01*
X114044021Y-113012821D01*
X113980954Y-112997988D01*
X113897813Y-112990115D01*
X113807010Y-112988956D01*
X113720954Y-112994263D01*
X113652057Y-113005791D01*
X113612729Y-113023292D01*
X113606708Y-113030850D01*
X113379443Y-113030850D01*
X113373493Y-113015324D01*
X113340977Y-112851322D01*
X113324438Y-112649496D01*
X113324205Y-112571519D01*
X113516280Y-112571519D01*
X113521221Y-112681799D01*
X113527788Y-112755939D01*
X113535338Y-112813924D01*
X113545008Y-112843568D01*
X113559580Y-112852518D01*
X113581837Y-112848424D01*
X113620517Y-112839815D01*
X113702766Y-112829467D01*
X113800168Y-112823018D01*
X113898448Y-112820974D01*
X113983328Y-112823843D01*
X114040533Y-112832132D01*
X114046108Y-112833756D01*
X114105822Y-112852365D01*
X114149608Y-112867913D01*
X114175524Y-112874235D01*
X114193546Y-112861846D01*
X114206550Y-112822489D01*
X114218960Y-112748550D01*
X114219332Y-112745845D01*
X114217897Y-112658925D01*
X114197781Y-112551333D01*
X114163276Y-112437349D01*
X114118675Y-112331252D01*
X114068271Y-112247321D01*
X114052291Y-112226980D01*
X113987760Y-112161061D01*
X113917293Y-112121191D01*
X113829297Y-112102587D01*
X113712176Y-112100468D01*
X113683082Y-112101440D01*
X113542702Y-112106130D01*
X113524455Y-112303846D01*
X113522797Y-112323337D01*
X113516876Y-112443839D01*
X113516280Y-112571519D01*
X113324205Y-112571519D01*
X113323720Y-112409073D01*
X113331748Y-112116723D01*
X112859952Y-112116723D01*
X112388156Y-112116723D01*
X112387737Y-112280901D01*
X112384575Y-112397985D01*
X112366308Y-112587195D01*
X112333059Y-112754809D01*
X112298129Y-112858991D01*
X112286272Y-112894356D01*
X112227392Y-112999367D01*
X112199944Y-113029935D01*
X112117965Y-113092311D01*
X112015880Y-113145754D01*
X111908776Y-113183084D01*
X111811744Y-113197123D01*
X111781885Y-113196008D01*
X111706663Y-113185192D01*
X111649127Y-113166599D01*
X111590100Y-113136075D01*
X111552845Y-113256632D01*
X111519527Y-113340200D01*
X111488983Y-113416812D01*
X111404978Y-113548851D01*
X111304351Y-113646303D01*
X111189586Y-113706093D01*
X111189264Y-113706199D01*
X111118389Y-113718720D01*
X111020731Y-113722213D01*
X110910667Y-113717316D01*
X110802577Y-113704665D01*
X110710839Y-113684897D01*
X110663983Y-113668104D01*
X110549445Y-113604847D01*
X110445021Y-113519083D01*
X110366814Y-113423068D01*
X110360643Y-113412928D01*
X110330715Y-113356694D01*
X110318831Y-113320999D01*
X110537928Y-113320999D01*
X110555563Y-113352804D01*
X110574344Y-113376249D01*
X110645680Y-113431533D01*
X110744071Y-113478882D01*
X110858632Y-113512559D01*
X110865771Y-113514033D01*
X111001711Y-113531493D01*
X111109732Y-113521358D01*
X111194902Y-113482381D01*
X111262289Y-113413317D01*
X111289921Y-113373278D01*
X111303550Y-113340200D01*
X111288833Y-113317706D01*
X111243676Y-113292180D01*
X111240800Y-113290704D01*
X111115887Y-113246079D01*
X110970414Y-113230105D01*
X110800789Y-113242738D01*
X110603417Y-113283929D01*
X110584233Y-113289025D01*
X110545105Y-113303164D01*
X110537928Y-113320999D01*
X110318831Y-113320999D01*
X110312135Y-113300888D01*
X110301358Y-113231245D01*
X110294839Y-113133503D01*
X110293857Y-113109828D01*
X110293601Y-113014831D01*
X110300596Y-112920275D01*
X110316295Y-112819547D01*
X110342154Y-112706033D01*
X110379629Y-112573121D01*
X110430173Y-112414195D01*
X110495243Y-112222644D01*
X110507070Y-112188321D01*
X110639704Y-111767288D01*
X110745472Y-111354125D01*
X110829135Y-110930401D01*
X110855836Y-110766039D01*
X110897401Y-110468452D01*
X110928813Y-110182068D01*
X110949931Y-109911127D01*
X110960612Y-109659867D01*
X110960714Y-109432528D01*
X110950095Y-109233347D01*
X110928611Y-109066565D01*
X110896120Y-108936418D01*
X110892451Y-108926606D01*
X110849603Y-108851361D01*
X110791844Y-108787822D01*
X110733536Y-108726663D01*
X110687122Y-108631126D01*
X110679014Y-108526714D01*
X110709373Y-108419084D01*
X110778359Y-108313893D01*
X110839411Y-108233696D01*
X110905947Y-108103287D01*
X110944232Y-107954020D01*
X110957094Y-107777404D01*
X110957381Y-107725093D01*
X110955484Y-107655000D01*
X110946091Y-107601952D01*
X110923981Y-107560280D01*
X110883932Y-107524316D01*
X110820724Y-107488391D01*
X110729134Y-107446837D01*
X110603943Y-107393984D01*
X110577107Y-107382614D01*
X110411431Y-107306672D01*
X110283185Y-107235382D01*
X110188748Y-107165618D01*
X110124503Y-107094249D01*
X110086831Y-107018148D01*
X110072520Y-106936501D01*
X110276524Y-106936501D01*
X110310526Y-107004763D01*
X110385629Y-107068794D01*
X110432606Y-107094937D01*
X110508724Y-107132137D01*
X110603131Y-107175234D01*
X110705260Y-107219253D01*
X110855862Y-107285762D01*
X110970485Y-107346789D01*
X111053649Y-107407821D01*
X111110069Y-107474425D01*
X111144460Y-107552169D01*
X111161536Y-107646620D01*
X111166012Y-107763345D01*
X111155089Y-107915072D01*
X111123502Y-108070940D01*
X111074686Y-108215288D01*
X111012081Y-108338022D01*
X110939127Y-108429048D01*
X110915102Y-108455224D01*
X110884948Y-108523243D01*
X110896165Y-108592165D01*
X110948552Y-108657119D01*
X110994947Y-108701497D01*
X111042018Y-108764461D01*
X111078994Y-108841109D01*
X111106881Y-108936187D01*
X111126687Y-109054446D01*
X111139419Y-109200633D01*
X111146084Y-109379498D01*
X111147690Y-109595789D01*
X111136530Y-109997198D01*
X111085449Y-110574041D01*
X110993817Y-111147676D01*
X110862499Y-111713026D01*
X110692362Y-112265013D01*
X110669101Y-112332451D01*
X110600996Y-112539055D01*
X110547784Y-112716094D01*
X110509789Y-112862018D01*
X110487338Y-112975274D01*
X110480756Y-113054310D01*
X110490368Y-113097574D01*
X110516500Y-113103514D01*
X110528025Y-113099985D01*
X110578687Y-113088252D01*
X110654334Y-113073125D01*
X110743351Y-113056989D01*
X110817405Y-113045766D01*
X110982877Y-113035567D01*
X111130671Y-113051390D01*
X111272656Y-113094066D01*
X111313395Y-113109472D01*
X111361454Y-113125389D01*
X111382564Y-113129050D01*
X111384369Y-113125635D01*
X111392162Y-113089551D01*
X111401310Y-113023536D01*
X111410888Y-112937253D01*
X111414470Y-112899031D01*
X111604337Y-112899031D01*
X111607624Y-112906750D01*
X111637440Y-112933268D01*
X111688230Y-112963665D01*
X111698294Y-112968744D01*
X111763599Y-112996221D01*
X111818862Y-113002975D01*
X111879346Y-112988329D01*
X111960311Y-112951608D01*
X111999640Y-112930587D01*
X112054271Y-112890773D01*
X112067633Y-112858991D01*
X112040032Y-112835666D01*
X111971774Y-112821225D01*
X111863164Y-112816094D01*
X111824231Y-112817568D01*
X111744696Y-112828989D01*
X111674127Y-112848747D01*
X111623636Y-112873282D01*
X111604337Y-112899031D01*
X111414470Y-112899031D01*
X111419968Y-112840371D01*
X111427623Y-112742554D01*
X111432926Y-112653467D01*
X111434694Y-112591752D01*
X111625685Y-112591752D01*
X111626666Y-112660272D01*
X111632367Y-112695473D01*
X111646602Y-112706277D01*
X111673186Y-112701602D01*
X111698380Y-112695961D01*
X111762439Y-112685353D01*
X111837364Y-112675836D01*
X111919079Y-112672512D01*
X112044143Y-112694782D01*
X112071177Y-112703404D01*
X112120075Y-112713986D01*
X112143622Y-112711364D01*
X112149240Y-112693979D01*
X112159081Y-112640030D01*
X112169772Y-112561830D01*
X112180136Y-112470096D01*
X112188997Y-112375544D01*
X112195176Y-112288891D01*
X112197498Y-112220855D01*
X112197498Y-112101440D01*
X112086280Y-112088081D01*
X112010410Y-112080320D01*
X111888753Y-112075278D01*
X111798456Y-112082552D01*
X111744166Y-112101953D01*
X111718702Y-112138794D01*
X111692078Y-112207482D01*
X111666924Y-112297476D01*
X111645781Y-112398301D01*
X111631188Y-112499482D01*
X111625686Y-112590545D01*
X111625685Y-112591752D01*
X111434694Y-112591752D01*
X111434951Y-112582778D01*
X111435992Y-112539327D01*
X111447545Y-112414961D01*
X111469725Y-112287171D01*
X111499829Y-112167406D01*
X111535156Y-112067114D01*
X111573006Y-111997741D01*
X111605565Y-111959537D01*
X111641587Y-111930225D01*
X111686374Y-111909379D01*
X111745497Y-111896220D01*
X111824529Y-111889967D01*
X111929043Y-111889842D01*
X112064612Y-111895064D01*
X112236807Y-111904853D01*
X112396286Y-111913243D01*
X112672517Y-111921587D01*
X112973110Y-111923204D01*
X113306817Y-111918204D01*
X113924022Y-111903748D01*
X114035831Y-111959465D01*
X114048077Y-111965763D01*
X114134175Y-112023734D01*
X114209011Y-112102345D01*
X114274939Y-112205940D01*
X114334318Y-112338864D01*
X114389502Y-112505463D01*
X114442848Y-112710083D01*
X114451312Y-112745845D01*
X114470531Y-112827053D01*
X114502189Y-112959059D01*
X114526792Y-113056825D01*
X114527026Y-113057755D01*
X114546771Y-113127760D01*
X114563153Y-113173695D01*
X114577902Y-113200179D01*
X114592746Y-113211832D01*
X114609416Y-113213274D01*
X114629639Y-113209126D01*
X114646773Y-113205884D01*
X114708249Y-113198094D01*
X114792959Y-113190180D01*
X114887906Y-113183436D01*
X114903547Y-113182524D01*
X115003212Y-113178792D01*
X115076418Y-113181798D01*
X115136955Y-113192868D01*
X115198612Y-113213329D01*
X115308066Y-113255265D01*
X115321165Y-113210306D01*
X115330036Y-113165966D01*
X115339293Y-113078183D01*
X115345487Y-112967502D01*
X115348394Y-112844974D01*
X115347792Y-112721652D01*
X115343457Y-112608589D01*
X115335166Y-112516836D01*
X115329551Y-112476596D01*
X115280284Y-112220385D01*
X115210261Y-111995259D01*
X115116471Y-111794595D01*
X114995901Y-111611766D01*
X114845538Y-111440150D01*
X114714584Y-111321172D01*
X114577592Y-111227820D01*
X114424250Y-111155317D01*
X114241784Y-111096389D01*
X114200373Y-111085569D01*
X114140189Y-111072299D01*
X114079035Y-111063189D01*
X114008636Y-111057683D01*
X113920717Y-111055224D01*
X113807002Y-111055256D01*
X113659216Y-111057223D01*
X113481606Y-111060045D01*
X113258967Y-111063084D01*
X113071644Y-111064682D01*
X112915480Y-111064576D01*
X112786319Y-111062506D01*
X112680007Y-111058209D01*
X112592388Y-111051425D01*
X112519305Y-111041891D01*
X112456604Y-111029347D01*
X112400129Y-111013531D01*
X112345723Y-110994182D01*
X112289233Y-110971038D01*
X112248927Y-110951285D01*
X112143653Y-110878767D01*
X112048374Y-110786303D01*
X111978824Y-110688226D01*
X111970388Y-110672057D01*
X111955524Y-110638125D01*
X111945670Y-110600917D01*
X111940172Y-110552621D01*
X111938377Y-110485426D01*
X111939633Y-110391521D01*
X111943286Y-110263095D01*
X111944438Y-110218904D01*
X111946354Y-110111425D01*
X111948121Y-109969797D01*
X111949236Y-109849745D01*
X112271643Y-109849745D01*
X112272977Y-110067012D01*
X112273784Y-110119218D01*
X112288873Y-110331821D01*
X112322405Y-110511231D01*
X112373915Y-110654756D01*
X112391500Y-110689056D01*
X112423203Y-110732688D01*
X112466548Y-110760947D01*
X112536447Y-110785864D01*
X112607936Y-110805380D01*
X112734439Y-110821993D01*
X112851213Y-110808308D01*
X112972203Y-110763615D01*
X113041576Y-110728417D01*
X113153523Y-110654442D01*
X113233033Y-110569814D01*
X113284408Y-110467313D01*
X113311947Y-110339718D01*
X113319953Y-110179808D01*
X113319166Y-110143803D01*
X113312101Y-110047054D01*
X113299298Y-109944535D01*
X113282704Y-109848267D01*
X113264264Y-109770274D01*
X113245925Y-109722577D01*
X113245548Y-109722093D01*
X113219651Y-109719547D01*
X113164949Y-109727129D01*
X113092702Y-109743314D01*
X113014247Y-109766583D01*
X112968248Y-109788731D01*
X112957525Y-109809870D01*
X112957804Y-109810969D01*
X112963276Y-109848036D01*
X112969862Y-109913168D01*
X112976199Y-109992995D01*
X112980798Y-110069226D01*
X112977851Y-110120422D01*
X112960376Y-110143276D01*
X112922127Y-110145134D01*
X112856860Y-110133341D01*
X112814856Y-110120942D01*
X112794822Y-110095639D01*
X112790540Y-110043307D01*
X112787977Y-109996328D01*
X112777587Y-109928473D01*
X112762110Y-109868391D01*
X112744692Y-109827539D01*
X112728480Y-109817374D01*
X112712877Y-109821151D01*
X112661422Y-109827266D01*
X112584311Y-109833503D01*
X112491302Y-109838973D01*
X112271643Y-109849745D01*
X111949236Y-109849745D01*
X111949705Y-109799244D01*
X111951067Y-109605546D01*
X112313370Y-109605546D01*
X112315627Y-109640771D01*
X112321463Y-109646363D01*
X112346088Y-109653225D01*
X112393699Y-109655037D01*
X112470666Y-109651872D01*
X112583356Y-109643801D01*
X112626709Y-109639879D01*
X112664363Y-109631178D01*
X112675969Y-109612572D01*
X112671356Y-109576551D01*
X112670229Y-109570697D01*
X112669038Y-109533218D01*
X112689467Y-109508477D01*
X112740961Y-109483900D01*
X112822435Y-109450596D01*
X112854212Y-109523271D01*
X112860176Y-109536019D01*
X112886010Y-109575917D01*
X112907172Y-109587976D01*
X112927842Y-109581976D01*
X112980850Y-109568777D01*
X113050166Y-109552750D01*
X113104100Y-109538835D01*
X113153088Y-109521433D01*
X113171976Y-109507741D01*
X113169989Y-109498979D01*
X113145183Y-109460506D01*
X113099931Y-109409997D01*
X113044310Y-109357252D01*
X112988394Y-109312074D01*
X112942258Y-109284263D01*
X112940045Y-109283356D01*
X112863962Y-109264509D01*
X112763068Y-109255247D01*
X112653359Y-109256230D01*
X112550833Y-109268117D01*
X112491820Y-109288789D01*
X112420336Y-109344961D01*
X112414670Y-109352096D01*
X112381990Y-109406366D01*
X112351149Y-109475356D01*
X112326743Y-109546078D01*
X112313370Y-109605546D01*
X111951067Y-109605546D01*
X111951071Y-109604990D01*
X111952185Y-109392260D01*
X111953011Y-109166278D01*
X111953516Y-108932268D01*
X111953664Y-108695455D01*
X111953630Y-108587483D01*
X111953368Y-108338721D01*
X111952783Y-108127318D01*
X111951780Y-107949673D01*
X111950265Y-107802184D01*
X111948143Y-107681249D01*
X111945320Y-107583264D01*
X111941702Y-107504627D01*
X111937194Y-107441737D01*
X111931702Y-107390991D01*
X111925130Y-107348786D01*
X111917386Y-107311520D01*
X111862177Y-107124921D01*
X111777007Y-106944108D01*
X111667556Y-106797767D01*
X111532917Y-106685163D01*
X111372184Y-106605560D01*
X111184449Y-106558223D01*
X110968807Y-106542418D01*
X110803109Y-106550462D01*
X110636451Y-106582050D01*
X110498979Y-106638576D01*
X110387208Y-106721109D01*
X110331851Y-106780801D01*
X110283630Y-106862387D01*
X110276524Y-106936501D01*
X110072520Y-106936501D01*
X110072114Y-106934186D01*
X110069135Y-106902931D01*
X110053094Y-106866643D01*
X110015513Y-106850837D01*
X110002695Y-106848242D01*
X109859286Y-106810965D01*
X109755297Y-106766012D01*
X109688479Y-106712430D01*
X109679187Y-106700849D01*
X109647402Y-106650757D01*
X109634946Y-106612470D01*
X109636389Y-106603588D01*
X109877815Y-106603588D01*
X109930775Y-106624304D01*
X109937902Y-106626938D01*
X109998749Y-106644039D01*
X110068473Y-106657762D01*
X110106651Y-106662104D01*
X110148208Y-106657419D01*
X110188391Y-106634354D01*
X110242424Y-106586691D01*
X110284580Y-106546154D01*
X110308832Y-106517760D01*
X110307064Y-106505511D01*
X110293662Y-106504081D01*
X111627696Y-106504081D01*
X111642360Y-106517760D01*
X111653985Y-106528604D01*
X111710994Y-106571727D01*
X111741863Y-106593986D01*
X111801521Y-106629763D01*
X111854472Y-106645591D01*
X111917873Y-106647778D01*
X111996635Y-106644029D01*
X112086430Y-106634762D01*
X112144002Y-106620230D01*
X112175414Y-106599291D01*
X112182701Y-106587959D01*
X112175904Y-106567836D01*
X112133170Y-106548151D01*
X112076590Y-106533226D01*
X111991552Y-106517176D01*
X111893767Y-106502564D01*
X111796792Y-106491189D01*
X111714185Y-106484847D01*
X111659500Y-106485338D01*
X111652611Y-106486227D01*
X111628460Y-106492006D01*
X111627696Y-106504081D01*
X110293662Y-106504081D01*
X110282388Y-106502878D01*
X110215765Y-106508255D01*
X110121090Y-106524643D01*
X110025323Y-106547814D01*
X109948896Y-106573445D01*
X109877815Y-106603588D01*
X109636389Y-106603588D01*
X109641509Y-106572071D01*
X109684919Y-106500361D01*
X109767167Y-106436994D01*
X109886243Y-106383319D01*
X110040136Y-106340683D01*
X110110939Y-106325015D01*
X110165814Y-106309034D01*
X110198305Y-106289752D01*
X110213749Y-106267732D01*
X110439199Y-106267732D01*
X110445099Y-106279547D01*
X110476272Y-106286269D01*
X110502781Y-106284745D01*
X110566838Y-106282485D01*
X110661702Y-106279757D01*
X110781345Y-106276724D01*
X110919739Y-106273544D01*
X111070857Y-106270381D01*
X111628370Y-106259258D01*
X111568689Y-106202137D01*
X111550161Y-106185184D01*
X111462304Y-106123905D01*
X111356913Y-106081118D01*
X111226199Y-106054347D01*
X111062374Y-106041114D01*
X110976625Y-106039147D01*
X110817833Y-106046385D01*
X110690704Y-106070413D01*
X110589760Y-106112547D01*
X110509523Y-106174105D01*
X110488321Y-106196396D01*
X110453110Y-106239949D01*
X110439199Y-106267732D01*
X110213749Y-106267732D01*
X110218777Y-106260564D01*
X110237594Y-106214868D01*
X110253138Y-106179889D01*
X110322861Y-106076423D01*
X110417959Y-105984153D01*
X110526024Y-105915939D01*
X110658236Y-105868655D01*
X110825466Y-105837758D01*
X111005035Y-105828604D01*
X111186820Y-105840478D01*
X111360697Y-105872663D01*
X111516542Y-105924442D01*
X111644232Y-105995097D01*
X111656717Y-106004701D01*
X111717646Y-106063060D01*
X111779922Y-106136985D01*
X111832308Y-106212172D01*
X111855993Y-106259258D01*
X111863568Y-106274318D01*
G37*
G36*
X110768699Y-106940497D02*
G01*
X110860325Y-106960641D01*
X110920100Y-106975162D01*
X110989626Y-106986769D01*
X111045857Y-106986023D01*
X111105041Y-106973799D01*
X111157920Y-106961902D01*
X111222153Y-106959898D01*
X111255526Y-106982180D01*
X111261237Y-107029896D01*
X111250493Y-107065989D01*
X111220306Y-107090677D01*
X111159466Y-107111381D01*
X111135331Y-107117184D01*
X111039070Y-107128635D01*
X110938216Y-107125946D01*
X110842111Y-107111034D01*
X110760100Y-107085818D01*
X110701524Y-107052213D01*
X110675729Y-107012136D01*
X110673647Y-106991712D01*
X110680909Y-106954484D01*
X110710744Y-106937928D01*
X110768699Y-106940497D01*
G37*
G36*
X111268685Y-106701780D02*
G01*
X111297487Y-106736922D01*
X111300752Y-106767173D01*
X111285728Y-106811067D01*
X111268630Y-106827003D01*
X111233611Y-106841827D01*
X111197263Y-106827433D01*
X111170677Y-106786748D01*
X111169735Y-106736922D01*
X111185039Y-106711819D01*
X111225164Y-106693412D01*
X111268685Y-106701780D01*
G37*
G36*
X110760056Y-106727237D02*
G01*
X110773644Y-106766385D01*
X110755986Y-106811229D01*
X110729327Y-106832047D01*
X110683983Y-106832000D01*
X110643080Y-106794560D01*
X110632114Y-106759385D01*
X110655055Y-106722814D01*
X110682912Y-106704377D01*
X110726164Y-106703373D01*
X110760056Y-106727237D01*
G37*
%TD*%
M02*
