%TF.GenerationSoftware,KiCad,Pcbnew,8.0.2*%
%TF.CreationDate,2024-07-16T14:46:28-07:00*%
%TF.ProjectId,sensor-node-rev-2,73656e73-6f72-42d6-9e6f-64652d726576,rev?*%
%TF.SameCoordinates,Original*%
%TF.FileFunction,Copper,L1,Top*%
%TF.FilePolarity,Positive*%
%FSLAX46Y46*%
G04 Gerber Fmt 4.6, Leading zero omitted, Abs format (unit mm)*
G04 Created by KiCad (PCBNEW 8.0.2) date 2024-07-16 14:46:28*
%MOMM*%
%LPD*%
G01*
G04 APERTURE LIST*
G04 Aperture macros list*
%AMRoundRect*
0 Rectangle with rounded corners*
0 $1 Rounding radius*
0 $2 $3 $4 $5 $6 $7 $8 $9 X,Y pos of 4 corners*
0 Add a 4 corners polygon primitive as box body*
4,1,4,$2,$3,$4,$5,$6,$7,$8,$9,$2,$3,0*
0 Add four circle primitives for the rounded corners*
1,1,$1+$1,$2,$3*
1,1,$1+$1,$4,$5*
1,1,$1+$1,$6,$7*
1,1,$1+$1,$8,$9*
0 Add four rect primitives between the rounded corners*
20,1,$1+$1,$2,$3,$4,$5,0*
20,1,$1+$1,$4,$5,$6,$7,0*
20,1,$1+$1,$6,$7,$8,$9,0*
20,1,$1+$1,$8,$9,$2,$3,0*%
%AMRotRect*
0 Rectangle, with rotation*
0 The origin of the aperture is its center*
0 $1 length*
0 $2 width*
0 $3 Rotation angle, in degrees counterclockwise*
0 Add horizontal line*
21,1,$1,$2,0,0,$3*%
%AMFreePoly0*
4,1,19,0.500000,-0.750000,0.000000,-0.750000,0.000000,-0.744911,-0.071157,-0.744911,-0.207708,-0.704816,-0.327430,-0.627875,-0.420627,-0.520320,-0.479746,-0.390866,-0.500000,-0.250000,-0.500000,0.250000,-0.479746,0.390866,-0.420627,0.520320,-0.327430,0.627875,-0.207708,0.704816,-0.071157,0.744911,0.000000,0.744911,0.000000,0.750000,0.500000,0.750000,0.500000,-0.750000,0.500000,-0.750000,
$1*%
%AMFreePoly1*
4,1,19,0.000000,0.744911,0.071157,0.744911,0.207708,0.704816,0.327430,0.627875,0.420627,0.520320,0.479746,0.390866,0.500000,0.250000,0.500000,-0.250000,0.479746,-0.390866,0.420627,-0.520320,0.327430,-0.627875,0.207708,-0.704816,0.071157,-0.744911,0.000000,-0.744911,0.000000,-0.750000,-0.500000,-0.750000,-0.500000,0.750000,0.000000,0.750000,0.000000,0.744911,0.000000,0.744911,
$1*%
%AMFreePoly2*
4,1,42,2.449995,2.499318,4.449995,2.499318,4.450011,5.140000,7.150006,5.140000,7.149995,2.499318,9.149995,2.499318,9.150002,5.140000,11.849997,5.140000,11.849997,0.700004,11.349998,0.700004,11.349995,4.639318,9.650001,4.628901,9.650001,2.000001,6.650007,2.000001,6.649995,4.639318,4.949995,4.639318,4.950010,2.000001,1.949991,2.000001,1.949995,4.639318,0.249994,4.639518,
0.249994,0.200030,0.250000,0.200000,0.250000,-0.200000,0.246194,-0.219134,0.235355,-0.235355,0.219134,-0.246194,0.200000,-0.250000,0.000000,-0.250000,-0.200000,-0.250000,-0.219134,-0.246194,-0.235355,-0.235355,-0.246194,-0.219134,-0.250000,-0.200000,-0.250000,0.150018,-0.250005,0.150018,-0.250005,4.639518,-1.650002,4.639518,-1.650002,-0.249982,-2.550000,-0.249982,-2.550000,5.140000,
2.449990,5.140000,2.449995,2.499318,2.449995,2.499318,$1*%
%AMFreePoly3*
4,1,19,0.550000,-0.750000,0.000000,-0.750000,0.000000,-0.744911,-0.071157,-0.744911,-0.207708,-0.704816,-0.327430,-0.627875,-0.420627,-0.520320,-0.479746,-0.390866,-0.500000,-0.250000,-0.500000,0.250000,-0.479746,0.390866,-0.420627,0.520320,-0.327430,0.627875,-0.207708,0.704816,-0.071157,0.744911,0.000000,0.744911,0.000000,0.750000,0.550000,0.750000,0.550000,-0.750000,0.550000,-0.750000,
$1*%
%AMFreePoly4*
4,1,19,0.000000,0.744911,0.071157,0.744911,0.207708,0.704816,0.327430,0.627875,0.420627,0.520320,0.479746,0.390866,0.500000,0.250000,0.500000,-0.250000,0.479746,-0.390866,0.420627,-0.520320,0.327430,-0.627875,0.207708,-0.704816,0.071157,-0.744911,0.000000,-0.744911,0.000000,-0.750000,-0.550000,-0.750000,-0.550000,0.750000,0.000000,0.750000,0.000000,0.744911,0.000000,0.744911,
$1*%
G04 Aperture macros list end*
%TA.AperFunction,SMDPad,CuDef*%
%ADD10R,2.000000X2.000000*%
%TD*%
%TA.AperFunction,SMDPad,CuDef*%
%ADD11RoundRect,0.135000X0.185000X-0.135000X0.185000X0.135000X-0.185000X0.135000X-0.185000X-0.135000X0*%
%TD*%
%TA.AperFunction,SMDPad,CuDef*%
%ADD12RoundRect,0.140000X0.140000X0.170000X-0.140000X0.170000X-0.140000X-0.170000X0.140000X-0.170000X0*%
%TD*%
%TA.AperFunction,SMDPad,CuDef*%
%ADD13RoundRect,0.100000X-0.100000X0.225000X-0.100000X-0.225000X0.100000X-0.225000X0.100000X0.225000X0*%
%TD*%
%TA.AperFunction,SMDPad,CuDef*%
%ADD14R,1.270000X1.905000*%
%TD*%
%TA.AperFunction,SMDPad,CuDef*%
%ADD15FreePoly0,0.000000*%
%TD*%
%TA.AperFunction,SMDPad,CuDef*%
%ADD16FreePoly1,0.000000*%
%TD*%
%TA.AperFunction,SMDPad,CuDef*%
%ADD17R,1.500000X1.500000*%
%TD*%
%TA.AperFunction,SMDPad,CuDef*%
%ADD18RoundRect,0.135000X0.135000X0.185000X-0.135000X0.185000X-0.135000X-0.185000X0.135000X-0.185000X0*%
%TD*%
%TA.AperFunction,SMDPad,CuDef*%
%ADD19RoundRect,0.140000X-0.219203X-0.021213X-0.021213X-0.219203X0.219203X0.021213X0.021213X0.219203X0*%
%TD*%
%TA.AperFunction,SMDPad,CuDef*%
%ADD20RoundRect,0.140000X-0.170000X0.140000X-0.170000X-0.140000X0.170000X-0.140000X0.170000X0.140000X0*%
%TD*%
%TA.AperFunction,SMDPad,CuDef*%
%ADD21RotRect,0.300000X0.850000X135.000000*%
%TD*%
%TA.AperFunction,SMDPad,CuDef*%
%ADD22RotRect,0.300000X0.850000X45.000000*%
%TD*%
%TA.AperFunction,SMDPad,CuDef*%
%ADD23RotRect,3.700000X3.700000X45.000000*%
%TD*%
%TA.AperFunction,SMDPad,CuDef*%
%ADD24RoundRect,0.140000X0.170000X-0.140000X0.170000X0.140000X-0.170000X0.140000X-0.170000X-0.140000X0*%
%TD*%
%TA.AperFunction,SMDPad,CuDef*%
%ADD25RoundRect,0.140000X-0.021213X0.219203X-0.219203X0.021213X0.021213X-0.219203X0.219203X-0.021213X0*%
%TD*%
%TA.AperFunction,SMDPad,CuDef*%
%ADD26RoundRect,0.140000X0.219203X0.021213X0.021213X0.219203X-0.219203X-0.021213X-0.021213X-0.219203X0*%
%TD*%
%TA.AperFunction,SMDPad,CuDef*%
%ADD27R,1.250000X0.600000*%
%TD*%
%TA.AperFunction,SMDPad,CuDef*%
%ADD28R,1.000000X0.500000*%
%TD*%
%TA.AperFunction,SMDPad,CuDef*%
%ADD29RoundRect,0.062500X0.062500X-0.350000X0.062500X0.350000X-0.062500X0.350000X-0.062500X-0.350000X0*%
%TD*%
%TA.AperFunction,SMDPad,CuDef*%
%ADD30RoundRect,0.062500X0.350000X-0.062500X0.350000X0.062500X-0.350000X0.062500X-0.350000X-0.062500X0*%
%TD*%
%TA.AperFunction,HeatsinkPad*%
%ADD31R,2.500000X2.500000*%
%TD*%
%TA.AperFunction,SMDPad,CuDef*%
%ADD32RoundRect,0.147500X0.147500X0.172500X-0.147500X0.172500X-0.147500X-0.172500X0.147500X-0.172500X0*%
%TD*%
%TA.AperFunction,SMDPad,CuDef*%
%ADD33R,0.450000X1.450000*%
%TD*%
%TA.AperFunction,SMDPad,CuDef*%
%ADD34RoundRect,0.135000X-0.135000X-0.185000X0.135000X-0.185000X0.135000X0.185000X-0.135000X0.185000X0*%
%TD*%
%TA.AperFunction,SMDPad,CuDef*%
%ADD35R,1.150000X1.400000*%
%TD*%
%TA.AperFunction,SMDPad,CuDef*%
%ADD36RoundRect,0.050000X-0.400000X-0.200000X0.400000X-0.200000X0.400000X0.200000X-0.400000X0.200000X0*%
%TD*%
%TA.AperFunction,SMDPad,CuDef*%
%ADD37FreePoly2,0.000000*%
%TD*%
%TA.AperFunction,SMDPad,CuDef*%
%ADD38RoundRect,0.140000X-0.140000X-0.170000X0.140000X-0.170000X0.140000X0.170000X-0.140000X0.170000X0*%
%TD*%
%TA.AperFunction,SMDPad,CuDef*%
%ADD39RoundRect,0.147500X0.172500X-0.147500X0.172500X0.147500X-0.172500X0.147500X-0.172500X-0.147500X0*%
%TD*%
%TA.AperFunction,SMDPad,CuDef*%
%ADD40RoundRect,0.147500X-0.147500X-0.172500X0.147500X-0.172500X0.147500X0.172500X-0.147500X0.172500X0*%
%TD*%
%TA.AperFunction,SMDPad,CuDef*%
%ADD41R,2.300000X3.200000*%
%TD*%
%TA.AperFunction,SMDPad,CuDef*%
%ADD42RoundRect,0.135000X-0.185000X0.135000X-0.185000X-0.135000X0.185000X-0.135000X0.185000X0.135000X0*%
%TD*%
%TA.AperFunction,ComponentPad*%
%ADD43R,1.700000X1.700000*%
%TD*%
%TA.AperFunction,ComponentPad*%
%ADD44O,1.700000X1.700000*%
%TD*%
%TA.AperFunction,ComponentPad*%
%ADD45C,4.400000*%
%TD*%
%TA.AperFunction,SMDPad,CuDef*%
%ADD46R,2.286000X5.842000*%
%TD*%
%TA.AperFunction,SMDPad,CuDef*%
%ADD47R,2.413000X5.842000*%
%TD*%
%TA.AperFunction,SMDPad,CuDef*%
%ADD48FreePoly3,0.000000*%
%TD*%
%TA.AperFunction,SMDPad,CuDef*%
%ADD49R,1.000000X1.500000*%
%TD*%
%TA.AperFunction,SMDPad,CuDef*%
%ADD50FreePoly4,0.000000*%
%TD*%
%TA.AperFunction,SMDPad,CuDef*%
%ADD51R,1.600000X1.000000*%
%TD*%
%TA.AperFunction,SMDPad,CuDef*%
%ADD52R,1.450000X0.700000*%
%TD*%
%TA.AperFunction,ViaPad*%
%ADD53C,0.700000*%
%TD*%
%TA.AperFunction,ViaPad*%
%ADD54C,0.900000*%
%TD*%
%TA.AperFunction,Conductor*%
%ADD55C,0.500000*%
%TD*%
%TA.AperFunction,Conductor*%
%ADD56C,0.200000*%
%TD*%
%TA.AperFunction,Conductor*%
%ADD57C,0.300000*%
%TD*%
%TA.AperFunction,Conductor*%
%ADD58C,1.270000*%
%TD*%
%TA.AperFunction,Conductor*%
%ADD59C,1.250000*%
%TD*%
%TA.AperFunction,Conductor*%
%ADD60C,1.500000*%
%TD*%
G04 APERTURE END LIST*
D10*
%TO.P,TP18,1,1*%
%TO.N,VCAP*%
X120650000Y-121400000D03*
%TD*%
D11*
%TO.P,R11,1*%
%TO.N,VDD*%
X89900000Y-137410000D03*
%TO.P,R11,2*%
%TO.N,Net-(U4-+)*%
X89900000Y-136390000D03*
%TD*%
D12*
%TO.P,C10,1*%
%TO.N,Net-(U2-XC2)*%
X89180000Y-115100000D03*
%TO.P,C10,2*%
%TO.N,GND*%
X88220000Y-115100000D03*
%TD*%
D13*
%TO.P,U4,1,+*%
%TO.N,Net-(U4-+)*%
X88500000Y-134115000D03*
%TO.P,U4,2,V-*%
%TO.N,GND*%
X87850000Y-134115000D03*
%TO.P,U4,3,-*%
%TO.N,PSENSE_VREF*%
X87200000Y-134115000D03*
%TO.P,U4,4*%
X87200000Y-136015000D03*
%TO.P,U4,5,V+*%
%TO.N,VDD*%
X88500000Y-136015000D03*
%TD*%
D14*
%TO.P,PS1,1,NC_1*%
%TO.N,unconnected-(PS1-NC_1-Pad1)*%
X106577000Y-135254000D03*
%TO.P,PS1,2,GND_1*%
%TO.N,GND*%
X108228000Y-135254000D03*
%TO.P,PS1,3,RFIN*%
%TO.N,/RFIN*%
X109879000Y-135254000D03*
%TO.P,PS1,4,GND_2*%
%TO.N,GND*%
X111530000Y-135254000D03*
%TO.P,PS1,5,DSET*%
%TO.N,Net-(JP6-B)*%
X113181000Y-135254000D03*
%TO.P,PS1,6,INT*%
%TO.N,Net-(JP5-B)*%
X114832000Y-135254000D03*
%TO.P,PS1,7,RESET*%
%TO.N,P2110B_RESET*%
X116483000Y-135254000D03*
%TO.P,PS1,8,VCAP*%
%TO.N,VCAP*%
X116483000Y-121284000D03*
%TO.P,PS1,9,NC_2*%
%TO.N,unconnected-(PS1-NC_2-Pad9)*%
X114832000Y-121284000D03*
%TO.P,PS1,10,VSET*%
%TO.N,/VSET*%
X113181000Y-121284000D03*
%TO.P,PS1,11,GND_3*%
%TO.N,GND*%
X111530000Y-121284000D03*
%TO.P,PS1,12,VOUT*%
%TO.N,/P2110B_VOUT*%
X109879000Y-121284000D03*
%TO.P,PS1,13,DOUT*%
%TO.N,Net-(JP9-B)*%
X108228000Y-121284000D03*
%TO.P,PS1,14,NC_3*%
%TO.N,unconnected-(PS1-NC_3-Pad14)*%
X106577000Y-121284000D03*
%TD*%
D15*
%TO.P,JP9,1,A*%
%TO.N,P2110B_DOUT*%
X101550000Y-130300000D03*
D16*
%TO.P,JP9,2,B*%
%TO.N,Net-(JP9-B)*%
X102850000Y-130300000D03*
%TD*%
D10*
%TO.P,TP17,1,1*%
%TO.N,GND*%
X94720000Y-107110000D03*
%TD*%
D17*
%TO.P,TP11,1,1*%
%TO.N,PSENSE_MINUS*%
X76600000Y-136400000D03*
%TD*%
D18*
%TO.P,R13,1*%
%TO.N,Net-(IC2-RG_2)*%
X84710000Y-137445000D03*
%TO.P,R13,2*%
%TO.N,Net-(IC2-RG_1)*%
X83690000Y-137445000D03*
%TD*%
D17*
%TO.P,TP1,1,1*%
%TO.N,NRF_IRQ*%
X88050000Y-120030000D03*
%TD*%
D19*
%TO.P,C4,1*%
%TO.N,VDD*%
X95900589Y-125450589D03*
%TO.P,C4,2*%
%TO.N,GND*%
X96579411Y-126129411D03*
%TD*%
D18*
%TO.P,R5,1*%
%TO.N,/USER_LED*%
X82560000Y-122950000D03*
%TO.P,R5,2*%
%TO.N,Net-(D2-A)*%
X81540000Y-122950000D03*
%TD*%
D20*
%TO.P,C9,1*%
%TO.N,Net-(U2-DVDD)*%
X80250000Y-113390000D03*
%TO.P,C9,2*%
%TO.N,GND*%
X80250000Y-114350000D03*
%TD*%
D11*
%TO.P,R14,1*%
%TO.N,Net-(U4-+)*%
X89900000Y-135390000D03*
%TO.P,R14,2*%
%TO.N,GND*%
X89900000Y-134370000D03*
%TD*%
D21*
%TO.P,U1,1,VDD*%
%TO.N,VDD*%
X89030152Y-127294975D03*
%TO.P,U1,2,PC14-OSC32_IN*%
%TO.N,unconnected-(U1A-PC14-OSC32_IN-Pad2)*%
X89383705Y-127648528D03*
%TO.P,U1,3,PC15-OSC32_OUT*%
%TO.N,/USER_LED*%
X89737258Y-128002082D03*
%TO.P,U1,4,PF2-NRST*%
%TO.N,/NRST*%
X90090812Y-128355635D03*
%TO.P,U1,5,VDDA/VREF+*%
%TO.N,VDD*%
X90444365Y-128709188D03*
%TO.P,U1,6,PA0-CK_IN*%
%TO.N,PSENSE_OUT*%
X90797918Y-129062742D03*
%TO.P,U1,7,PA1*%
%TO.N,PSENSE_VREF*%
X91151472Y-129416295D03*
%TO.P,U1,8,PA2*%
%TO.N,unconnected-(U1A-PA2-Pad8)*%
X91505025Y-129769848D03*
D22*
%TO.P,U1,9,PA3*%
%TO.N,PSENSE_MINUS*%
X92494975Y-129769848D03*
%TO.P,U1,10,PA4*%
%TO.N,PSENSE_PLUS*%
X92848528Y-129416295D03*
%TO.P,U1,11,PA5*%
%TO.N,USART1_TX*%
X93202082Y-129062742D03*
%TO.P,U1,12,PA6*%
%TO.N,P2110B_DOUT*%
X93555635Y-128709188D03*
%TO.P,U1,13,PA7*%
%TO.N,USART1_RX*%
X93909188Y-128355635D03*
%TO.P,U1,14,PB0*%
%TO.N,unconnected-(U1A-PB0-Pad14)*%
X94262742Y-128002082D03*
%TO.P,U1,15,PB1*%
%TO.N,unconnected-(U1A-PB1-Pad15)*%
X94616295Y-127648528D03*
%TO.P,U1,16,VSS*%
%TO.N,GND*%
X94969848Y-127294975D03*
D21*
%TO.P,U1,17,VDD*%
%TO.N,VDD*%
X94969848Y-126305025D03*
%TO.P,U1,18,PA8*%
%TO.N,unconnected-(U1A-PA8-Pad18)*%
X94616295Y-125951472D03*
%TO.P,U1,19,PA9*%
%TO.N,P2110B_DSET*%
X94262742Y-125597918D03*
%TO.P,U1,20,PA10*%
%TO.N,P2110B_INT*%
X93909188Y-125244365D03*
%TO.P,U1,21,PA11[PA9]*%
%TO.N,P2110B_RESET*%
X93555635Y-124890812D03*
%TO.P,U1,22,PA12[PA10]*%
%TO.N,unconnected-(U1A-PA12[PA10]-Pad22)*%
X93202082Y-124537258D03*
%TO.P,U1,23,PA13*%
%TO.N,SWDIO*%
X92848528Y-124183705D03*
%TO.P,U1,24,PA14*%
%TO.N,SWCLK*%
X92494975Y-123830152D03*
D22*
%TO.P,U1,25,PA15*%
%TO.N,NRF_IRQ*%
X91505025Y-123830152D03*
%TO.P,U1,26,PB3*%
%TO.N,NRF_SCK*%
X91151472Y-124183705D03*
%TO.P,U1,27,PB4*%
%TO.N,NRF_MISO*%
X90797918Y-124537258D03*
%TO.P,U1,28,PB5*%
%TO.N,NRF_MOSI*%
X90444365Y-124890812D03*
%TO.P,U1,29,PB6*%
%TO.N,NRF_CSN*%
X90090812Y-125244365D03*
%TO.P,U1,30,PB7*%
%TO.N,NRF_CE*%
X89737258Y-125597918D03*
%TO.P,U1,31,PF3-BOOT0*%
%TO.N,/BOOT0*%
X89383705Y-125951472D03*
%TO.P,U1,32,VSS*%
%TO.N,GND*%
X89030152Y-126305025D03*
D23*
%TO.P,U1,33,EPAD*%
X92000000Y-126800000D03*
%TD*%
D24*
%TO.P,C14,1*%
%TO.N,VDD*%
X78760000Y-111710000D03*
%TO.P,C14,2*%
%TO.N,GND*%
X78760000Y-110750000D03*
%TD*%
D25*
%TO.P,C2,1*%
%TO.N,VDD*%
X89389411Y-130010589D03*
%TO.P,C2,2*%
%TO.N,GND*%
X88710589Y-130689411D03*
%TD*%
D26*
%TO.P,C3,1*%
%TO.N,VDD*%
X88079411Y-128129411D03*
%TO.P,C3,2*%
%TO.N,GND*%
X87400589Y-127450589D03*
%TD*%
D27*
%TO.P,S4,1,COM_1*%
%TO.N,/NRST*%
X76835000Y-125910000D03*
%TO.P,S4,2,COM_2*%
X80085000Y-125910000D03*
%TO.P,S4,3,NO_1*%
%TO.N,GND*%
X76835000Y-127910000D03*
%TO.P,S4,4,NO_2*%
X80085000Y-127910000D03*
D28*
%TO.P,S4,MP1,MP1*%
X78460000Y-125260000D03*
%TO.P,S4,MP2,MP2*%
X78460000Y-128560000D03*
%TD*%
D29*
%TO.P,U2,1,CE*%
%TO.N,NRF_CE*%
X82450000Y-113337500D03*
%TO.P,U2,2,CSN*%
%TO.N,NRF_CSN*%
X82950000Y-113337500D03*
%TO.P,U2,3,SCK*%
%TO.N,NRF_SCK*%
X83450000Y-113337500D03*
%TO.P,U2,4,MOSI*%
%TO.N,NRF_MOSI*%
X83950000Y-113337500D03*
%TO.P,U2,5,MISO*%
%TO.N,NRF_MISO*%
X84450000Y-113337500D03*
D30*
%TO.P,U2,6,IRQ*%
%TO.N,NRF_IRQ*%
X85387500Y-112400000D03*
%TO.P,U2,7,VDD*%
%TO.N,VDD*%
X85387500Y-111900000D03*
%TO.P,U2,8,VSS*%
%TO.N,GND*%
X85387500Y-111400000D03*
%TO.P,U2,9,XC2*%
%TO.N,Net-(U2-XC2)*%
X85387500Y-110900000D03*
%TO.P,U2,10,XC1*%
%TO.N,Net-(U2-XC1)*%
X85387500Y-110400000D03*
D29*
%TO.P,U2,11,VDD_PA*%
%TO.N,Net-(U2-VDD_PA)*%
X84450000Y-109462500D03*
%TO.P,U2,12,ANT1*%
%TO.N,Net-(U2-ANT1)*%
X83950000Y-109462500D03*
%TO.P,U2,13,ANT2*%
%TO.N,Net-(U2-ANT2)*%
X83450000Y-109462500D03*
%TO.P,U2,14,VSS*%
%TO.N,GND*%
X82950000Y-109462500D03*
%TO.P,U2,15,VDD*%
%TO.N,VDD*%
X82450000Y-109462500D03*
D30*
%TO.P,U2,16,IREF*%
%TO.N,Net-(U2-IREF)*%
X81512500Y-110400000D03*
%TO.P,U2,17,VSS*%
%TO.N,GND*%
X81512500Y-110900000D03*
%TO.P,U2,18,VDD*%
%TO.N,VDD*%
X81512500Y-111400000D03*
%TO.P,U2,19,DVDD*%
%TO.N,Net-(U2-DVDD)*%
X81512500Y-111900000D03*
%TO.P,U2,20,VSS*%
%TO.N,GND*%
X81512500Y-112400000D03*
D31*
%TO.P,U2,21,EPAD*%
X83450000Y-111400000D03*
%TD*%
D12*
%TO.P,C23,1*%
%TO.N,VDD*%
X88480000Y-137500000D03*
%TO.P,C23,2*%
%TO.N,GND*%
X87520000Y-137500000D03*
%TD*%
D24*
%TO.P,C24,1*%
%TO.N,VDD*%
X83050000Y-129780000D03*
%TO.P,C24,2*%
%TO.N,GND*%
X83050000Y-128820000D03*
%TD*%
D15*
%TO.P,JP5,1,A*%
%TO.N,P2110B_INT*%
X101550000Y-125100000D03*
D16*
%TO.P,JP5,2,B*%
%TO.N,Net-(JP5-B)*%
X102850000Y-125100000D03*
%TD*%
D18*
%TO.P,R1,1*%
%TO.N,/BOOT0*%
X86535000Y-125775000D03*
%TO.P,R1,2*%
%TO.N,Net-(JP2-C)*%
X85515000Y-125775000D03*
%TD*%
D17*
%TO.P,TP6,1,1*%
%TO.N,NRF_CSN*%
X81300000Y-118650000D03*
%TD*%
%TO.P,TP9,1,1*%
%TO.N,PSENSE_OUT*%
X76600000Y-132500000D03*
%TD*%
%TO.P,TP3,1,1*%
%TO.N,NRF_MISO*%
X94800000Y-114475000D03*
%TD*%
D32*
%TO.P,D1,1,K*%
%TO.N,POWER_LED_EN*%
X98835000Y-121800000D03*
%TO.P,D1,2,A*%
%TO.N,Net-(D1-A)*%
X97865000Y-121800000D03*
%TD*%
D33*
%TO.P,IC2,1,-IN*%
%TO.N,PSENSE_PLUS*%
X83050000Y-135815000D03*
%TO.P,IC2,2,RG_1*%
%TO.N,Net-(IC2-RG_1)*%
X83700000Y-135815000D03*
%TO.P,IC2,3,RG_2*%
%TO.N,Net-(IC2-RG_2)*%
X84350000Y-135815000D03*
%TO.P,IC2,4,+IN*%
%TO.N,PSENSE_MINUS*%
X85000000Y-135815000D03*
%TO.P,IC2,5,-VS*%
%TO.N,GND*%
X85000000Y-131365000D03*
%TO.P,IC2,6,REF*%
%TO.N,PSENSE_VREF*%
X84350000Y-131365000D03*
%TO.P,IC2,7,VOUT*%
%TO.N,PSENSE_OUT*%
X83700000Y-131365000D03*
%TO.P,IC2,8,+VS*%
%TO.N,VDD*%
X83050000Y-131365000D03*
%TD*%
D34*
%TO.P,R2,1*%
%TO.N,/P2110B_VOUT*%
X101290000Y-121400000D03*
%TO.P,R2,2*%
%TO.N,/VSET*%
X102310000Y-121400000D03*
%TD*%
D17*
%TO.P,TP12,1,1*%
%TO.N,PSENSE_VREF*%
X79950000Y-132500000D03*
%TD*%
D35*
%TO.P,Y1,1,1*%
%TO.N,Net-(U2-XC2)*%
X89627500Y-112837500D03*
%TO.P,Y1,2,2*%
%TO.N,GND*%
X89627500Y-110637500D03*
%TO.P,Y1,3,3*%
%TO.N,Net-(U2-XC1)*%
X88027500Y-110637500D03*
%TO.P,Y1,4,4*%
%TO.N,GND*%
X88027500Y-112837500D03*
%TD*%
D17*
%TO.P,TP5,1,1*%
%TO.N,NRF_CE*%
X77550000Y-117750000D03*
%TD*%
D34*
%TO.P,R4,1*%
%TO.N,VDD*%
X96840000Y-120650000D03*
%TO.P,R4,2*%
%TO.N,Net-(D1-A)*%
X97860000Y-120650000D03*
%TD*%
D36*
%TO.P,AE2,1,FEED*%
%TO.N,GND*%
X81230000Y-102150000D03*
D37*
%TO.P,AE2,2,PCB_Trace*%
%TO.N,/NRF_ANT*%
X83330000Y-102150000D03*
%TD*%
D18*
%TO.P,R8,1*%
%TO.N,Net-(U2-IREF)*%
X80140000Y-109250000D03*
%TO.P,R8,2*%
%TO.N,GND*%
X79120000Y-109250000D03*
%TD*%
D38*
%TO.P,C12,1*%
%TO.N,Net-(U2-XC1)*%
X88270000Y-108350000D03*
%TO.P,C12,2*%
%TO.N,GND*%
X89230000Y-108350000D03*
%TD*%
D39*
%TO.P,L3,1,1*%
%TO.N,Net-(U2-ANT2)*%
X83327500Y-107122500D03*
%TO.P,L3,2,2*%
%TO.N,Net-(C15-Pad1)*%
X83327500Y-106152500D03*
%TD*%
D40*
%TO.P,D2,1,K*%
%TO.N,Net-(D2-K)*%
X80565000Y-121750000D03*
%TO.P,D2,2,A*%
%TO.N,Net-(D2-A)*%
X81535000Y-121750000D03*
%TD*%
D10*
%TO.P,TP16,1,1*%
%TO.N,/P2110B_VOUT*%
X120700000Y-129500000D03*
%TD*%
D41*
%TO.P,C8,1*%
%TO.N,VCAP*%
X113900000Y-115700000D03*
%TO.P,C8,2*%
%TO.N,GND*%
X120100000Y-115700000D03*
%TD*%
D15*
%TO.P,JP6,1,A*%
%TO.N,P2110B_DSET*%
X101550000Y-127700000D03*
D16*
%TO.P,JP6,2,B*%
%TO.N,Net-(JP6-B)*%
X102850000Y-127700000D03*
%TD*%
D40*
%TO.P,L2,1,1*%
%TO.N,Net-(U2-ANT1)*%
X84342500Y-107137500D03*
%TO.P,L2,2,2*%
%TO.N,Net-(U2-VDD_PA)*%
X85312500Y-107137500D03*
%TD*%
D42*
%TO.P,R3,1*%
%TO.N,GND*%
X102300000Y-119490000D03*
%TO.P,R3,2*%
%TO.N,/VSET*%
X102300000Y-120510000D03*
%TD*%
D10*
%TO.P,TP14,1,1*%
%TO.N,USART1_RX*%
X96300000Y-134800000D03*
%TD*%
D24*
%TO.P,C18,1*%
%TO.N,Net-(U2-VDD_PA)*%
X86427500Y-106117500D03*
%TO.P,C18,2*%
%TO.N,GND*%
X86427500Y-105157500D03*
%TD*%
D43*
%TO.P,J2,1,Pin_1*%
%TO.N,GND*%
X105000000Y-100500000D03*
D44*
%TO.P,J2,2,Pin_2*%
%TO.N,SWCLK*%
X107540000Y-100500000D03*
%TO.P,J2,3,Pin_3*%
%TO.N,SWDIO*%
X110080000Y-100500000D03*
%TO.P,J2,4,Pin_4*%
%TO.N,+3.3V*%
X112620000Y-100500000D03*
%TD*%
D34*
%TO.P,R10,1*%
%TO.N,P2110B_RESET*%
X94590000Y-122500000D03*
%TO.P,R10,2*%
%TO.N,GND*%
X95610000Y-122500000D03*
%TD*%
D41*
%TO.P,C6,1*%
%TO.N,VCAP*%
X111100000Y-115700000D03*
%TO.P,C6,2*%
%TO.N,GND*%
X104900000Y-115700000D03*
%TD*%
D18*
%TO.P,R6,1*%
%TO.N,Net-(J4-Pin_1)*%
X93810000Y-137400000D03*
%TO.P,R6,2*%
%TO.N,USART1_TX*%
X92790000Y-137400000D03*
%TD*%
D41*
%TO.P,C5,1*%
%TO.N,VCAP*%
X111100000Y-108700000D03*
%TO.P,C5,2*%
%TO.N,GND*%
X104900000Y-108700000D03*
%TD*%
D17*
%TO.P,TP2,1,1*%
%TO.N,NRF_SCK*%
X90700000Y-120850000D03*
%TD*%
D20*
%TO.P,C17,1*%
%TO.N,GND*%
X85327500Y-105157500D03*
%TO.P,C17,2*%
%TO.N,Net-(U2-VDD_PA)*%
X85327500Y-106117500D03*
%TD*%
D24*
%TO.P,C15,1*%
%TO.N,Net-(C15-Pad1)*%
X83320000Y-105170000D03*
%TO.P,C15,2*%
%TO.N,/NRF_ANT*%
X83320000Y-104210000D03*
%TD*%
D45*
%TO.P,H3,1,1*%
%TO.N,GND*%
X118500000Y-100500000D03*
%TD*%
D24*
%TO.P,C22,1*%
%TO.N,/NRST*%
X82300000Y-124930000D03*
%TO.P,C22,2*%
%TO.N,GND*%
X82300000Y-123970000D03*
%TD*%
D17*
%TO.P,TP4,1,1*%
%TO.N,NRF_MOSI*%
X94800000Y-111750000D03*
%TD*%
D45*
%TO.P,H4,1,1*%
%TO.N,GND*%
X118500000Y-140500000D03*
%TD*%
D46*
%TO.P,J3,1,1*%
%TO.N,/RFIN*%
X109875000Y-141235600D03*
D47*
%TO.P,J3,2,2*%
%TO.N,GND*%
X114256500Y-141235600D03*
%TO.P,J3,3,3*%
X105493500Y-141235600D03*
%TD*%
D41*
%TO.P,C1,1*%
%TO.N,VCAP*%
X113900000Y-108700000D03*
%TO.P,C1,2*%
%TO.N,GND*%
X120100000Y-108700000D03*
%TD*%
D26*
%TO.P,C7,1*%
%TO.N,VDD*%
X86339411Y-127839411D03*
%TO.P,C7,2*%
%TO.N,GND*%
X85660589Y-127160589D03*
%TD*%
D48*
%TO.P,JP2,1,A*%
%TO.N,VDD*%
X84125000Y-123825000D03*
D49*
%TO.P,JP2,2,C*%
%TO.N,Net-(JP2-C)*%
X85425000Y-123825000D03*
D50*
%TO.P,JP2,3,B*%
%TO.N,GND*%
X86725000Y-123825000D03*
%TD*%
D17*
%TO.P,TP10,1,1*%
%TO.N,PSENSE_PLUS*%
X79900000Y-136400000D03*
%TD*%
D43*
%TO.P,J4,1,Pin_1*%
%TO.N,Net-(J4-Pin_1)*%
X94920000Y-142000000D03*
D44*
%TO.P,J4,2,Pin_2*%
%TO.N,Net-(J4-Pin_2)*%
X97460000Y-142000000D03*
%TO.P,J4,3,Pin_3*%
%TO.N,GND*%
X100000000Y-142000000D03*
%TD*%
D24*
%TO.P,C13,1*%
%TO.N,VDD*%
X79890000Y-111710000D03*
%TO.P,C13,2*%
%TO.N,GND*%
X79890000Y-110750000D03*
%TD*%
D10*
%TO.P,TP13,1,1*%
%TO.N,USART1_TX*%
X93300000Y-134800000D03*
%TD*%
D51*
%TO.P,S1,1,NO*%
%TO.N,unconnected-(S1-NO-Pad1)*%
X101950000Y-137850000D03*
%TO.P,S1,2,COM*%
%TO.N,POWER_LED_EN*%
X99650000Y-136100000D03*
%TO.P,S1,3,NC*%
%TO.N,GND*%
X101950000Y-134350000D03*
%TD*%
D45*
%TO.P,H2,1,1*%
%TO.N,GND*%
X78500000Y-140500000D03*
%TD*%
D10*
%TO.P,TP15,1,1*%
%TO.N,VDD*%
X98900000Y-108100000D03*
%TD*%
D52*
%TO.P,IC1,1,N/C_1*%
%TO.N,unconnected-(IC1-N{slash}C_1-Pad1)*%
X84100000Y-139045000D03*
%TO.P,IC1,2,+OUT*%
%TO.N,PSENSE_PLUS*%
X84100000Y-140315000D03*
%TO.P,IC1,3,N/C_2*%
%TO.N,unconnected-(IC1-N{slash}C_2-Pad3)*%
X84100000Y-141585000D03*
%TO.P,IC1,4,-IN_1*%
%TO.N,GND*%
X84100000Y-142855000D03*
%TO.P,IC1,5,-IN_2*%
X89700000Y-142855000D03*
%TO.P,IC1,6,-OUT*%
%TO.N,PSENSE_MINUS*%
X89700000Y-141585000D03*
%TO.P,IC1,7,N/C_3*%
%TO.N,unconnected-(IC1-N{slash}C_3-Pad7)*%
X89700000Y-140315000D03*
%TO.P,IC1,8,+IN*%
%TO.N,VDD*%
X89700000Y-139045000D03*
%TD*%
D51*
%TO.P,S5,1,NO*%
%TO.N,/P2110B_VOUT*%
X100450000Y-117050000D03*
%TO.P,S5,2,COM*%
%TO.N,VDD*%
X98150000Y-115300000D03*
%TO.P,S5,3,NC*%
%TO.N,+3.3V*%
X100450000Y-113550000D03*
%TD*%
D40*
%TO.P,L1,1,1*%
%TO.N,Net-(U2-ANT2)*%
X83342500Y-108190000D03*
%TO.P,L1,2,2*%
%TO.N,Net-(U2-ANT1)*%
X84312500Y-108190000D03*
%TD*%
D12*
%TO.P,C16,1*%
%TO.N,/NRF_ANT*%
X83330000Y-103210000D03*
%TO.P,C16,2*%
%TO.N,GND*%
X82370000Y-103210000D03*
%TD*%
D15*
%TO.P,JP1,1,A*%
%TO.N,GND*%
X77450000Y-122200000D03*
D16*
%TO.P,JP1,2,B*%
%TO.N,Net-(D2-K)*%
X78750000Y-122200000D03*
%TD*%
D18*
%TO.P,R7,1*%
%TO.N,Net-(J4-Pin_2)*%
X95910000Y-137400000D03*
%TO.P,R7,2*%
%TO.N,USART1_RX*%
X94890000Y-137400000D03*
%TD*%
D53*
%TO.N,GND*%
X86300000Y-132300000D03*
X92400000Y-107200000D03*
X82750000Y-110700000D03*
X80600000Y-105200000D03*
X85350000Y-104250000D03*
X97400000Y-137200000D03*
X82190000Y-142830000D03*
X89300000Y-102800000D03*
X116880000Y-128800000D03*
X80000000Y-124400000D03*
X84150000Y-112100000D03*
X87100000Y-130700000D03*
X88200000Y-133200000D03*
X100070000Y-132410000D03*
X117580000Y-123520000D03*
X100150000Y-139600000D03*
X88000000Y-140000000D03*
X98700000Y-138200000D03*
X81400000Y-115600000D03*
X102880000Y-112260000D03*
X78900000Y-102800000D03*
X81460000Y-114360000D03*
X81950000Y-141150000D03*
X92260000Y-110820000D03*
X84150000Y-110700000D03*
D54*
X104750000Y-140700000D03*
D53*
X115710000Y-123890000D03*
X85900000Y-102800000D03*
X78410000Y-127050000D03*
X77000000Y-124000000D03*
X75490000Y-107420000D03*
X81420000Y-103410000D03*
X84972120Y-126602880D03*
X87740000Y-125740000D03*
X93800000Y-126800000D03*
X95500000Y-121000000D03*
X80480000Y-123040000D03*
X92000000Y-128600000D03*
X90300000Y-126800000D03*
X92030000Y-114680000D03*
X87870000Y-131390000D03*
X88000000Y-139000000D03*
X82025000Y-127275000D03*
D54*
X104750000Y-142100000D03*
D53*
X92700000Y-102800000D03*
X100000000Y-129000000D03*
X116420000Y-130870000D03*
D54*
X115000000Y-142100000D03*
D53*
X99900000Y-120750000D03*
X96100000Y-102800000D03*
X77200000Y-105200000D03*
X99820000Y-134220000D03*
X102560000Y-109460000D03*
X95864873Y-128190000D03*
D54*
X111500000Y-123000000D03*
D53*
X92960000Y-118340000D03*
X91100000Y-142500000D03*
X90800000Y-105600000D03*
X100200000Y-122450000D03*
X82750000Y-112100000D03*
X81840000Y-128240000D03*
X97500000Y-127500000D03*
X100000000Y-127500000D03*
X78800000Y-114200000D03*
X75470000Y-110280000D03*
X86427500Y-104277500D03*
X102130000Y-132410000D03*
X107900000Y-131410000D03*
X87700000Y-124400000D03*
X87000000Y-139000000D03*
X81230000Y-102390000D03*
X92000000Y-125000000D03*
D54*
X115000000Y-140700000D03*
D53*
X78070000Y-109240000D03*
X89900000Y-133500000D03*
X101500000Y-97500000D03*
X101500000Y-100900000D03*
X99500000Y-102800000D03*
X114920000Y-128260000D03*
X77600000Y-113200000D03*
X75500000Y-102800000D03*
X97500000Y-129000000D03*
%TO.N,USART1_RX*%
X95800000Y-129600000D03*
X95800000Y-131000000D03*
%TO.N,NRF_SCK*%
X84489810Y-120280190D03*
X90100000Y-122650000D03*
%TO.N,NRF_MISO*%
X86125000Y-117075000D03*
X92100000Y-117075000D03*
%TO.N,Net-(JP9-B)*%
X107500000Y-128500000D03*
X109100000Y-126900000D03*
%TO.N,NRF_MOSI*%
X91400000Y-116425000D03*
X84525000Y-116425000D03*
%TO.N,VDD*%
X89575000Y-131370000D03*
X96840000Y-122800000D03*
X94250000Y-120750000D03*
X79400000Y-116000000D03*
X96840000Y-125000000D03*
X90900000Y-132680000D03*
X89150000Y-117825000D03*
%TO.N,POWER_LED_EN*%
X98850000Y-131150000D03*
X98850000Y-122800000D03*
%TD*%
D55*
%TO.N,GND*%
X89900000Y-134370000D02*
X89900000Y-133500000D01*
D56*
X85327500Y-105157500D02*
X85327500Y-104272500D01*
D55*
X86725000Y-123825000D02*
X87125000Y-123825000D01*
D56*
X87975000Y-125975000D02*
X88700127Y-125975000D01*
X87850000Y-133550000D02*
X88200000Y-133200000D01*
D55*
X90745000Y-142855000D02*
X89700000Y-142855000D01*
D56*
X82950000Y-109462500D02*
X82950000Y-110950000D01*
X82600000Y-112400000D02*
X83000000Y-112000000D01*
D55*
X85102880Y-126602880D02*
X85660589Y-127160589D01*
D57*
X86300000Y-132300000D02*
X85365000Y-131365000D01*
D56*
X86427500Y-105157500D02*
X86427500Y-104277500D01*
D55*
X87125000Y-123825000D02*
X87700000Y-124400000D01*
D56*
X85327500Y-104272500D02*
X85350000Y-104250000D01*
X87850000Y-134115000D02*
X87850000Y-133550000D01*
X81420000Y-103410000D02*
X81770000Y-103060000D01*
D55*
X78070000Y-110130000D02*
X78070000Y-109240000D01*
X111500000Y-121314000D02*
X111500000Y-123000000D01*
D56*
X82950000Y-110950000D02*
X83000000Y-111000000D01*
D57*
X81460000Y-112452500D02*
X81512500Y-112400000D01*
D56*
X81512500Y-112400000D02*
X82600000Y-112400000D01*
X88700127Y-125975000D02*
X89030152Y-126305025D01*
X81770000Y-103060000D02*
X82220000Y-103060000D01*
D55*
X78760000Y-110750000D02*
X78690000Y-110750000D01*
D56*
X84972120Y-126602880D02*
X85102880Y-126602880D01*
D57*
X81460000Y-114360000D02*
X81460000Y-112452500D01*
D56*
X83450000Y-111400000D02*
X85387500Y-111400000D01*
D55*
X91100000Y-142500000D02*
X90745000Y-142855000D01*
D56*
X81512500Y-110900000D02*
X82900000Y-110900000D01*
D55*
X78690000Y-110750000D02*
X78070000Y-110130000D01*
D57*
X85365000Y-131365000D02*
X85000000Y-131365000D01*
D56*
X82900000Y-110900000D02*
X83000000Y-111000000D01*
X95864873Y-128190000D02*
X94969848Y-127294975D01*
D55*
X111530000Y-121284000D02*
X111500000Y-121314000D01*
D56*
X87740000Y-125740000D02*
X87975000Y-125975000D01*
X82220000Y-103060000D02*
X82370000Y-103210000D01*
D55*
%TO.N,+3.3V*%
X112620000Y-100500000D02*
X112620000Y-102680000D01*
X112620000Y-102680000D02*
X110400000Y-104900000D01*
X101100000Y-112900000D02*
X100450000Y-113550000D01*
X110400000Y-104900000D02*
X103100000Y-104900000D01*
X101100000Y-106900000D02*
X101100000Y-112900000D01*
X103100000Y-104900000D02*
X101100000Y-106900000D01*
D56*
%TO.N,/NRST*%
X90090812Y-128355635D02*
X89046447Y-129400000D01*
X82300000Y-126055686D02*
X82300000Y-124930000D01*
X85636396Y-129400000D02*
X84626396Y-128390000D01*
X84626396Y-128390000D02*
X84626396Y-128382082D01*
X89046447Y-129400000D02*
X85636396Y-129400000D01*
X76835000Y-125910000D02*
X80085000Y-125910000D01*
X81065000Y-124930000D02*
X82300000Y-124930000D01*
X80085000Y-125910000D02*
X81065000Y-124930000D01*
X84626396Y-128382082D02*
X82300000Y-126055686D01*
%TO.N,Net-(U2-DVDD)*%
X81512500Y-111900000D02*
X80980000Y-111900000D01*
X80980000Y-111900000D02*
X80250000Y-112630000D01*
X80250000Y-112630000D02*
X80250000Y-113390000D01*
%TO.N,PSENSE_PLUS*%
X92000000Y-133150000D02*
X92000000Y-142800000D01*
X93550000Y-130117767D02*
X93550000Y-131600000D01*
X93550000Y-131600000D02*
X92000000Y-133150000D01*
X92848528Y-129416295D02*
X93550000Y-130117767D01*
X82300000Y-137800000D02*
X82300000Y-139440000D01*
X83050000Y-135815000D02*
X83050000Y-137050000D01*
X79900000Y-136400000D02*
X81870000Y-136400000D01*
X85515000Y-140315000D02*
X84100000Y-140315000D01*
X81870000Y-136400000D02*
X82300000Y-136830000D01*
X82300000Y-139440000D02*
X83175000Y-140315000D01*
X91295000Y-143505000D02*
X88705000Y-143505000D01*
X88705000Y-143505000D02*
X85515000Y-140315000D01*
X92000000Y-142800000D02*
X91295000Y-143505000D01*
X83050000Y-137050000D02*
X82300000Y-137800000D01*
X82300000Y-136830000D02*
X82300000Y-137800000D01*
X83175000Y-140315000D02*
X84100000Y-140315000D01*
D57*
%TO.N,Net-(U2-XC2)*%
X89625000Y-114655000D02*
X89625000Y-112840000D01*
X89180000Y-115100000D02*
X89625000Y-114655000D01*
D56*
X89625000Y-112840000D02*
X89627500Y-112837500D01*
X88690000Y-111775000D02*
X86689386Y-111775000D01*
X85814386Y-110900000D02*
X85387500Y-110900000D01*
X89627500Y-112837500D02*
X89627500Y-112712500D01*
X86689386Y-111775000D02*
X85814386Y-110900000D01*
X89627500Y-112712500D02*
X88690000Y-111775000D01*
%TO.N,PSENSE_MINUS*%
X86000000Y-139600000D02*
X86000000Y-136815000D01*
X90415000Y-141585000D02*
X91600000Y-140400000D01*
X85000000Y-134790000D02*
X85000000Y-135815000D01*
X89700000Y-141585000D02*
X87985000Y-141585000D01*
X84610000Y-134400000D02*
X85000000Y-134790000D01*
X86000000Y-136815000D02*
X85000000Y-135815000D01*
X76600000Y-136400000D02*
X76600000Y-135450000D01*
X76600000Y-135450000D02*
X77650000Y-134400000D01*
X77650000Y-134400000D02*
X84610000Y-134400000D01*
X87985000Y-141585000D02*
X86000000Y-139600000D01*
X93150000Y-130424873D02*
X92494975Y-129769848D01*
X89700000Y-141585000D02*
X90415000Y-141585000D01*
X91600000Y-132984314D02*
X93150000Y-131434314D01*
X91600000Y-140400000D02*
X91600000Y-132984314D01*
X93150000Y-131434314D02*
X93150000Y-130424873D01*
%TO.N,Net-(D2-K)*%
X78750000Y-122200000D02*
X80115000Y-122200000D01*
X80115000Y-122200000D02*
X80565000Y-121750000D01*
%TO.N,/BOOT0*%
X87260000Y-125050000D02*
X88482233Y-125050000D01*
X86535000Y-125775000D02*
X87260000Y-125050000D01*
X88482233Y-125050000D02*
X89383705Y-125951472D01*
%TO.N,NRF_CSN*%
X84100000Y-121000000D02*
X85940686Y-121000000D01*
X82600000Y-117350000D02*
X81300000Y-118650000D01*
X89000000Y-124153553D02*
X90090812Y-125244365D01*
X82950000Y-119850000D02*
X84100000Y-121000000D01*
X82950000Y-113337500D02*
X82950000Y-117350000D01*
X89000000Y-124059314D02*
X89000000Y-124153553D01*
X85940686Y-121000000D02*
X89000000Y-124059314D01*
X82950000Y-117350000D02*
X82600000Y-117350000D01*
X82950000Y-117350000D02*
X82950000Y-119850000D01*
D57*
%TO.N,USART1_RX*%
X95800000Y-129600000D02*
X95153553Y-129600000D01*
X96300000Y-131500000D02*
X96300000Y-134800000D01*
X94890000Y-137400000D02*
X94890000Y-137010000D01*
X94890000Y-137010000D02*
X96300000Y-135600000D01*
X96300000Y-135600000D02*
X96300000Y-134800000D01*
X95153553Y-129600000D02*
X93909188Y-128355635D01*
X95800000Y-131000000D02*
X96300000Y-131500000D01*
D56*
%TO.N,Net-(U2-XC1)*%
X88027500Y-110637500D02*
X87790000Y-110400000D01*
D57*
X88025000Y-108595000D02*
X88025000Y-110635000D01*
X88270000Y-108350000D02*
X88025000Y-108595000D01*
X88025000Y-110635000D02*
X88027500Y-110637500D01*
D56*
X87790000Y-110400000D02*
X85387500Y-110400000D01*
D55*
%TO.N,Net-(C15-Pad1)*%
X83327500Y-105177500D02*
X83320000Y-105170000D01*
X83327500Y-106152500D02*
X83327500Y-105177500D01*
D56*
%TO.N,NRF_IRQ*%
X86125000Y-112600000D02*
X86125000Y-116155761D01*
X91100000Y-123100000D02*
X91100000Y-123425127D01*
X88050000Y-119125000D02*
X88050000Y-120030000D01*
X88475000Y-118700000D02*
X88050000Y-119125000D01*
X85925000Y-112400000D02*
X86125000Y-112600000D01*
X89011078Y-118700000D02*
X88475000Y-118700000D01*
X89011078Y-118700000D02*
X91550000Y-118700000D01*
X88669239Y-118700000D02*
X89011078Y-118700000D01*
X85387500Y-112400000D02*
X85925000Y-112400000D01*
X92225000Y-119375000D02*
X92225000Y-121975000D01*
X91550000Y-118700000D02*
X92225000Y-119375000D01*
X91100000Y-123425127D02*
X91505025Y-123830152D01*
X86125000Y-116155761D02*
X88669239Y-118700000D01*
X92225000Y-121975000D02*
X91100000Y-123100000D01*
%TO.N,NRF_SCK*%
X90100000Y-122650000D02*
X90100000Y-123132233D01*
X90100000Y-122650000D02*
X90700000Y-122050000D01*
X90700000Y-122050000D02*
X90700000Y-120850000D01*
X84489810Y-120280190D02*
X83450000Y-119240380D01*
X83450000Y-119240380D02*
X83450000Y-113337500D01*
X90100000Y-123132233D02*
X91151472Y-124183705D01*
%TO.N,NRF_MISO*%
X85175000Y-119102942D02*
X89497058Y-123425000D01*
X85175000Y-117025000D02*
X85175000Y-119102942D01*
X85175000Y-117025000D02*
X86075000Y-117025000D01*
X89497058Y-123425000D02*
X89685660Y-123425000D01*
X84450000Y-113337500D02*
X84450000Y-115150000D01*
X93665000Y-117075000D02*
X94800000Y-115940000D01*
X86075000Y-117025000D02*
X86125000Y-117075000D01*
X94800000Y-115940000D02*
X94800000Y-114475000D01*
X89685660Y-123425000D02*
X90797918Y-124537258D01*
X85175000Y-115875000D02*
X85175000Y-117025000D01*
X92100000Y-117075000D02*
X93665000Y-117075000D01*
X84450000Y-115150000D02*
X85175000Y-115875000D01*
%TO.N,Net-(JP5-B)*%
X114832000Y-134131500D02*
X105800500Y-125100000D01*
X105800500Y-125100000D02*
X102850000Y-125100000D01*
X114832000Y-135254000D02*
X114832000Y-134131500D01*
%TO.N,Net-(JP6-B)*%
X113181000Y-133156250D02*
X106784750Y-126760000D01*
X106784750Y-126760000D02*
X103790000Y-126760000D01*
X103790000Y-126760000D02*
X102850000Y-127700000D01*
X113181000Y-135254000D02*
X113181000Y-133156250D01*
%TO.N,SWCLK*%
X107540000Y-103060000D02*
X106550000Y-104050000D01*
X106550000Y-104050000D02*
X102747920Y-104050000D01*
X96650000Y-106555026D02*
X96650000Y-116355026D01*
X93100000Y-119905026D02*
X93100000Y-123225127D01*
X102747920Y-104050000D02*
X100947920Y-105850000D01*
X97355026Y-105850000D02*
X96650000Y-106555026D01*
X100947920Y-105850000D02*
X97355026Y-105850000D01*
X93100000Y-123225127D02*
X92494975Y-123830152D01*
X96650000Y-116355026D02*
X93100000Y-119905026D01*
X107540000Y-100500000D02*
X107540000Y-103060000D01*
%TO.N,Net-(JP9-B)*%
X108198000Y-125998000D02*
X108198000Y-121314000D01*
X107500000Y-128500000D02*
X105700000Y-130300000D01*
X108198000Y-121314000D02*
X108228000Y-121284000D01*
X109100000Y-126900000D02*
X108198000Y-125998000D01*
X105700000Y-130300000D02*
X102850000Y-130300000D01*
D57*
%TO.N,USART1_TX*%
X94000000Y-129860660D02*
X93202082Y-129062742D01*
X93090000Y-135010000D02*
X93090000Y-137100000D01*
X94000000Y-134100000D02*
X94000000Y-129860660D01*
X93300000Y-134800000D02*
X93090000Y-135010000D01*
X93300000Y-134800000D02*
X94000000Y-134100000D01*
X93090000Y-137100000D02*
X92790000Y-137400000D01*
D55*
%TO.N,/NRF_ANT*%
X83330000Y-103210000D02*
X83330000Y-102160000D01*
X83320000Y-104210000D02*
X83327500Y-104202500D01*
D56*
X83330000Y-103005000D02*
X83330000Y-103210000D01*
X83327500Y-103002500D02*
X83330000Y-103005000D01*
X83330000Y-102160000D02*
X83320000Y-102150000D01*
D55*
X83327500Y-104202500D02*
X83327500Y-103002500D01*
D56*
%TO.N,SWDIO*%
X97000000Y-106700000D02*
X97500000Y-106200000D01*
X97000000Y-116500000D02*
X97000000Y-106700000D01*
X97500000Y-106200000D02*
X101092894Y-106200000D01*
X102892893Y-104400000D02*
X108700000Y-104400000D01*
X110080000Y-103020000D02*
X110080000Y-100500000D01*
X93450000Y-123582233D02*
X93450000Y-120050000D01*
X108700000Y-104400000D02*
X110080000Y-103020000D01*
X102600000Y-104692894D02*
X102600000Y-104692893D01*
X101092894Y-106200000D02*
X102600000Y-104692894D01*
X102600000Y-104692893D02*
X102892893Y-104400000D01*
X92848528Y-124183705D02*
X93450000Y-123582233D01*
X93450000Y-120050000D02*
X97000000Y-116500000D01*
%TO.N,NRF_MOSI*%
X93200000Y-113350000D02*
X94800000Y-111750000D01*
X83950000Y-113337500D02*
X83950000Y-118443628D01*
X83950000Y-118443628D02*
X90397184Y-124890812D01*
X90397184Y-124890812D02*
X90444365Y-124890812D01*
X91400000Y-116425000D02*
X92675000Y-116425000D01*
X93200000Y-115900000D02*
X93200000Y-113350000D01*
X92675000Y-116425000D02*
X93200000Y-115900000D01*
X84525000Y-116425000D02*
X83950000Y-116425000D01*
%TO.N,VDD*%
X86525000Y-115772633D02*
X86525000Y-112434314D01*
D57*
X84200000Y-126750000D02*
X85672536Y-128222536D01*
D56*
X95824284Y-125450589D02*
X94969848Y-126305025D01*
D57*
X83050000Y-129780000D02*
X83050000Y-131365000D01*
D55*
X76600000Y-129300000D02*
X81199339Y-129300000D01*
X77000000Y-120500000D02*
X80950000Y-120500000D01*
X76100000Y-112500000D02*
X76982500Y-111617500D01*
D57*
X86339411Y-127839411D02*
X86848614Y-128348614D01*
D56*
X82060000Y-108520000D02*
X82450000Y-108910000D01*
X89900000Y-138845000D02*
X89700000Y-139045000D01*
X80200000Y-111400000D02*
X81512500Y-111400000D01*
X88480000Y-136035000D02*
X88500000Y-136015000D01*
D55*
X81040000Y-107500000D02*
X82060000Y-108520000D01*
D57*
X89228822Y-129850000D02*
X89389411Y-130010589D01*
D55*
X95900000Y-118975000D02*
X95900000Y-119710000D01*
D57*
X86848614Y-128348614D02*
X87860208Y-128348614D01*
D55*
X77160000Y-108870000D02*
X78530000Y-107500000D01*
D57*
X85672536Y-128222536D02*
X85956286Y-128222536D01*
D55*
X75650000Y-119150000D02*
X75500000Y-119000000D01*
X81679339Y-129780000D02*
X83050000Y-129780000D01*
X98150000Y-115300000D02*
X98150000Y-116725000D01*
X96840000Y-120650000D02*
X96840000Y-122800000D01*
X78530000Y-107500000D02*
X81040000Y-107500000D01*
X75510000Y-128210000D02*
X76600000Y-129300000D01*
X82300000Y-120800000D02*
X84125000Y-122625000D01*
X78022500Y-111617500D02*
X77617500Y-111617500D01*
D57*
X84125000Y-123825000D02*
X84200000Y-123900000D01*
X83050000Y-129780000D02*
X83120000Y-129850000D01*
X88195716Y-128129411D02*
X89030152Y-127294975D01*
D55*
X95900000Y-119710000D02*
X95290000Y-119710000D01*
D56*
X79890000Y-111710000D02*
X80200000Y-111400000D01*
X89900000Y-137410000D02*
X88570000Y-137410000D01*
D55*
X78590000Y-116000000D02*
X76100000Y-113510000D01*
X76100000Y-113510000D02*
X76100000Y-112500000D01*
X95290000Y-119710000D02*
X94250000Y-120750000D01*
X75500000Y-119000000D02*
X75500000Y-114110000D01*
X76982500Y-111617500D02*
X78022500Y-111617500D01*
D56*
X90900000Y-136410000D02*
X89900000Y-137410000D01*
X89150000Y-117825000D02*
X88577367Y-117825000D01*
D55*
X75650000Y-119150000D02*
X77000000Y-120500000D01*
X98150000Y-109700000D02*
X98900000Y-108950000D01*
D57*
X89575000Y-130196178D02*
X89389411Y-130010589D01*
D56*
X79890000Y-111710000D02*
X78760000Y-111710000D01*
D55*
X96351178Y-125000000D02*
X95900589Y-125450589D01*
X79400000Y-116000000D02*
X78590000Y-116000000D01*
X75650000Y-119150000D02*
X75510000Y-119290000D01*
X77160000Y-111160000D02*
X77160000Y-108870000D01*
D57*
X89389411Y-129764142D02*
X90444365Y-128709188D01*
D55*
X96840000Y-125000000D02*
X96351178Y-125000000D01*
X80950000Y-120500000D02*
X81250000Y-120800000D01*
D56*
X90900000Y-132680000D02*
X90900000Y-136410000D01*
X85990686Y-111900000D02*
X85387500Y-111900000D01*
X88570000Y-137410000D02*
X88480000Y-137500000D01*
X95900589Y-125450589D02*
X95824284Y-125450589D01*
D55*
X81250000Y-120800000D02*
X82300000Y-120800000D01*
D57*
X84200000Y-123900000D02*
X84200000Y-126750000D01*
D56*
X82450000Y-108910000D02*
X82450000Y-109462500D01*
D55*
X95900000Y-119710000D02*
X96840000Y-120650000D01*
X84125000Y-122625000D02*
X84125000Y-123825000D01*
D57*
X89389411Y-130010589D02*
X89389411Y-129764142D01*
X89575000Y-131370000D02*
X89575000Y-130196178D01*
D56*
X86525000Y-112434314D02*
X85990686Y-111900000D01*
D55*
X98900000Y-108950000D02*
X98900000Y-108100000D01*
X77617500Y-111617500D02*
X77160000Y-111160000D01*
X75500000Y-114110000D02*
X76100000Y-113510000D01*
X81199339Y-129300000D02*
X81679339Y-129780000D01*
D57*
X87860208Y-128348614D02*
X88079411Y-128129411D01*
X83120000Y-129850000D02*
X89228822Y-129850000D01*
X85956286Y-128222536D02*
X86339411Y-127839411D01*
D55*
X98150000Y-115300000D02*
X98150000Y-109700000D01*
D57*
X88079411Y-128129411D02*
X88195716Y-128129411D01*
D56*
X89900000Y-137410000D02*
X89900000Y-138845000D01*
D55*
X75510000Y-119290000D02*
X75510000Y-128210000D01*
X78022500Y-111617500D02*
X78667500Y-111617500D01*
D56*
X88480000Y-137500000D02*
X88480000Y-136035000D01*
D55*
X78667500Y-111617500D02*
X78760000Y-111710000D01*
D56*
X88577367Y-117825000D02*
X86525000Y-115772633D01*
D55*
X98150000Y-116725000D02*
X95900000Y-118975000D01*
D56*
%TO.N,Net-(U2-VDD_PA)*%
X85312500Y-108600000D02*
X85312500Y-107137500D01*
X85312500Y-107137500D02*
X85312500Y-106132500D01*
X85327500Y-106117500D02*
X86427500Y-106117500D01*
X85312500Y-106132500D02*
X85327500Y-106117500D01*
X84450000Y-109462500D02*
X85312500Y-108600000D01*
D57*
%TO.N,Net-(D1-A)*%
X97860000Y-120650000D02*
X97860000Y-121755000D01*
D56*
%TO.N,P2110B_RESET*%
X94590000Y-123140000D02*
X94590000Y-122500000D01*
X95000000Y-123550000D02*
X94896447Y-123550000D01*
X116483000Y-135254000D02*
X116483000Y-134053000D01*
X95000000Y-123550000D02*
X94590000Y-123140000D01*
X94896447Y-123550000D02*
X93555635Y-124890812D01*
X116483000Y-134053000D02*
X115380000Y-132950000D01*
X104816186Y-123550000D02*
X95000000Y-123550000D01*
X115380000Y-132950000D02*
X114216186Y-132950000D01*
X114216186Y-132950000D02*
X104816186Y-123550000D01*
%TO.N,P2110B_DOUT*%
X95146447Y-130300000D02*
X93555635Y-128709188D01*
X101550000Y-130300000D02*
X95146447Y-130300000D01*
%TO.N,P2110B_DSET*%
X101550000Y-126655686D02*
X99244314Y-124350000D01*
X95510660Y-124350000D02*
X94262742Y-125597918D01*
X99244314Y-124350000D02*
X95510660Y-124350000D01*
X101550000Y-127700000D02*
X101550000Y-126655686D01*
%TO.N,P2110B_INT*%
X101550000Y-125100000D02*
X100630000Y-125100000D01*
X95203553Y-123950000D02*
X93909188Y-125244365D01*
X99480000Y-123950000D02*
X95203553Y-123950000D01*
X100630000Y-125100000D02*
X99480000Y-123950000D01*
D57*
%TO.N,POWER_LED_EN*%
X98835000Y-121800000D02*
X98835000Y-122785000D01*
X98850000Y-122800000D02*
X98835000Y-122815000D01*
X98850000Y-131150000D02*
X98850000Y-135300000D01*
X98850000Y-135300000D02*
X99650000Y-136100000D01*
X98835000Y-122785000D02*
X98850000Y-122800000D01*
X98835000Y-122815000D02*
X98835000Y-122965000D01*
D58*
%TO.N,/RFIN*%
X109875000Y-141235600D02*
X109875000Y-135258000D01*
X109875000Y-135258000D02*
X109879000Y-135254000D01*
D56*
%TO.N,NRF_CE*%
X88600000Y-124460660D02*
X89737258Y-125597918D01*
X78300000Y-118500000D02*
X79650000Y-118500000D01*
X79650000Y-117550000D02*
X79650000Y-118500000D01*
X82227818Y-119950000D02*
X83627818Y-121350000D01*
X80100000Y-117100000D02*
X79650000Y-117550000D01*
X83627818Y-121350000D02*
X85725000Y-121350000D01*
X79650000Y-119400000D02*
X80200000Y-119950000D01*
X80200000Y-119950000D02*
X82227818Y-119950000D01*
X82450000Y-116750000D02*
X82100000Y-117100000D01*
X85725000Y-121350000D02*
X88600000Y-124225000D01*
X79650000Y-118500000D02*
X79650000Y-119400000D01*
X88600000Y-124225000D02*
X88600000Y-124460660D01*
X78300000Y-118500000D02*
X77550000Y-117750000D01*
X82450000Y-113337500D02*
X82450000Y-116750000D01*
X82100000Y-117100000D02*
X80100000Y-117100000D01*
%TO.N,Net-(D2-A)*%
X81535000Y-121750000D02*
X81535000Y-122945000D01*
X81535000Y-122945000D02*
X81540000Y-122950000D01*
%TO.N,/USER_LED*%
X82950000Y-123683866D02*
X82950000Y-126140000D01*
X82950000Y-126140000D02*
X85810000Y-129000000D01*
X88739340Y-129000000D02*
X89737258Y-128002082D01*
X82560000Y-123293866D02*
X82950000Y-123683866D01*
X85810000Y-129000000D02*
X88739340Y-129000000D01*
%TO.N,Net-(J4-Pin_1)*%
X93810000Y-140890000D02*
X94920000Y-142000000D01*
X93810000Y-137400000D02*
X93810000Y-140890000D01*
%TO.N,Net-(J4-Pin_2)*%
X95910000Y-137400000D02*
X95910000Y-140450000D01*
X95910000Y-140450000D02*
X97460000Y-142000000D01*
%TO.N,/VSET*%
X104425000Y-119330000D02*
X103245000Y-120510000D01*
X102310000Y-120520000D02*
X102310000Y-121400000D01*
X102300000Y-120510000D02*
X102310000Y-120520000D01*
X113181000Y-121284000D02*
X113181000Y-120221000D01*
X112290000Y-119330000D02*
X104425000Y-119330000D01*
X113181000Y-120221000D02*
X112290000Y-119330000D01*
X103245000Y-120510000D02*
X102300000Y-120510000D01*
D59*
%TO.N,VCAP*%
X116483000Y-121284000D02*
X116483000Y-119727500D01*
X116483000Y-119727500D02*
X115091676Y-118336176D01*
X116483000Y-121284000D02*
X120784000Y-121284000D01*
X111100000Y-116772352D02*
X111100000Y-108700000D01*
X115091676Y-118336176D02*
X112663824Y-118336176D01*
X112663824Y-118336176D02*
X111100000Y-116772352D01*
D60*
X111100000Y-108700000D02*
X113900000Y-108700000D01*
X111100000Y-115700000D02*
X113900000Y-115700000D01*
D55*
%TO.N,/P2110B_VOUT*%
X116950000Y-125750000D02*
X120700000Y-129500000D01*
X101290000Y-121400000D02*
X101290000Y-117890000D01*
X105618500Y-119881500D02*
X103300000Y-122200000D01*
X109879000Y-120477500D02*
X109283000Y-119881500D01*
X109283000Y-119881500D02*
X105618500Y-119881500D01*
X101290000Y-117890000D02*
X100450000Y-117050000D01*
X109879000Y-121284000D02*
X109879000Y-122766500D01*
X109879000Y-121284000D02*
X109879000Y-120477500D01*
X101770001Y-122200000D02*
X101290000Y-121719999D01*
X101290000Y-121719999D02*
X101290000Y-121400000D01*
X109879000Y-122766500D02*
X112862500Y-125750000D01*
X112862500Y-125750000D02*
X116950000Y-125750000D01*
X103300000Y-122200000D02*
X101770001Y-122200000D01*
D56*
X101390000Y-121580000D02*
X101400000Y-121590000D01*
%TO.N,Net-(JP2-C)*%
X85515000Y-125775000D02*
X85515000Y-123915000D01*
X85515000Y-123915000D02*
X85425000Y-123825000D01*
%TO.N,Net-(U2-ANT1)*%
X83950000Y-108875000D02*
X84312500Y-108512500D01*
X84312500Y-108512500D02*
X84312500Y-108137500D01*
X84312500Y-107167500D02*
X84342500Y-107137500D01*
X83950000Y-109462500D02*
X83950000Y-108875000D01*
X84312500Y-108137500D02*
X84312500Y-107167500D01*
%TO.N,Net-(U2-ANT2)*%
X83450000Y-109462500D02*
X83450000Y-108245000D01*
X83342500Y-107137500D02*
X83327500Y-107122500D01*
D55*
X83342500Y-108137500D02*
X83342500Y-107137500D01*
D56*
X83450000Y-108245000D02*
X83342500Y-108137500D01*
%TO.N,Net-(U2-IREF)*%
X80140000Y-109690000D02*
X80850000Y-110400000D01*
X80850000Y-110400000D02*
X81512500Y-110400000D01*
X80140000Y-109250000D02*
X80140000Y-109690000D01*
%TO.N,Net-(U4-+)*%
X89900000Y-135390000D02*
X89130000Y-135390000D01*
X89900000Y-135390000D02*
X89900000Y-136390000D01*
X88500000Y-134760000D02*
X88500000Y-134115000D01*
X89130000Y-135390000D02*
X88500000Y-134760000D01*
%TO.N,Net-(IC2-RG_2)*%
X84350000Y-137085000D02*
X84350000Y-135815000D01*
X84710000Y-137445000D02*
X84350000Y-137085000D01*
%TO.N,Net-(IC2-RG_1)*%
X83690000Y-137445000D02*
X83690000Y-135825000D01*
X83690000Y-135825000D02*
X83700000Y-135815000D01*
%TO.N,PSENSE_OUT*%
X78160000Y-130940000D02*
X76600000Y-132500000D01*
X87362500Y-132200000D02*
X89664239Y-132200000D01*
X82120000Y-132850000D02*
X81710000Y-132440000D01*
X85462500Y-130300000D02*
X87362500Y-132200000D01*
X81710000Y-131330000D02*
X81320000Y-130940000D01*
X89664239Y-132200000D02*
X90175000Y-131689239D01*
X81710000Y-132440000D02*
X81710000Y-131330000D01*
X90175000Y-129685660D02*
X90797918Y-129062742D01*
X83700000Y-131365000D02*
X83700000Y-130440000D01*
X81320000Y-130940000D02*
X78160000Y-130940000D01*
X83840000Y-130300000D02*
X85462500Y-130300000D01*
X83140000Y-132850000D02*
X82120000Y-132850000D01*
X83700000Y-130440000D02*
X83840000Y-130300000D01*
X83700000Y-132290000D02*
X83140000Y-132850000D01*
X90175000Y-131689239D02*
X90175000Y-129685660D01*
X83700000Y-131365000D02*
X83700000Y-132290000D01*
%TO.N,PSENSE_VREF*%
X84350000Y-131365000D02*
X84350000Y-132290000D01*
X90550000Y-131879925D02*
X90550000Y-130017767D01*
X87200000Y-133100000D02*
X87700000Y-132600000D01*
X80700000Y-133250000D02*
X83350000Y-133250000D01*
X87200000Y-136015000D02*
X87200000Y-134115000D01*
X87700000Y-132600000D02*
X89829925Y-132600000D01*
X87200000Y-134115000D02*
X87200000Y-133100000D01*
X90550000Y-130017767D02*
X91151472Y-129416295D01*
X86175000Y-134115000D02*
X87200000Y-134115000D01*
X84350000Y-132250000D02*
X84350000Y-131365000D01*
X79950000Y-132500000D02*
X80700000Y-133250000D01*
X83350000Y-133250000D02*
X84350000Y-132250000D01*
X84350000Y-132290000D02*
X86175000Y-134115000D01*
X89829925Y-132600000D02*
X90550000Y-131879925D01*
%TD*%
%TA.AperFunction,Conductor*%
%TO.N,Net-(JP9-B)*%
G36*
X108234345Y-121294579D02*
G01*
X108237682Y-121297960D01*
X108840345Y-122229143D01*
X108841964Y-122237950D01*
X108839387Y-122243137D01*
X108301501Y-122867437D01*
X108293505Y-122871468D01*
X108292637Y-122871500D01*
X108103644Y-122871500D01*
X108095371Y-122868073D01*
X108094487Y-122867083D01*
X107598306Y-122243172D01*
X107595838Y-122234563D01*
X107597724Y-122229406D01*
X108218122Y-121297831D01*
X108225560Y-121292845D01*
X108234345Y-121294579D01*
G37*
%TD.AperFunction*%
%TD*%
%TA.AperFunction,Conductor*%
%TO.N,+3.3V*%
G36*
X112624489Y-100500865D02*
G01*
X113394732Y-100820891D01*
X113401057Y-100827230D01*
X113401146Y-100835941D01*
X112872903Y-102192545D01*
X112866707Y-102199011D01*
X112862000Y-102200000D01*
X112378000Y-102200000D01*
X112369727Y-102196573D01*
X112367097Y-102192545D01*
X111838853Y-100835941D01*
X111839045Y-100826989D01*
X111845266Y-100820891D01*
X112615511Y-100500864D01*
X112624466Y-100500856D01*
X112624489Y-100500865D01*
G37*
%TD.AperFunction*%
%TD*%
%TA.AperFunction,Conductor*%
%TO.N,GND*%
G36*
X80193039Y-101919685D02*
G01*
X80238794Y-101972489D01*
X80250000Y-102024000D01*
X80250000Y-104150000D01*
X82276000Y-104150000D01*
X82343039Y-104169685D01*
X82388794Y-104222489D01*
X82400000Y-104274000D01*
X82400000Y-107852824D01*
X82380315Y-107919863D01*
X82327511Y-107965618D01*
X82258353Y-107975562D01*
X82194797Y-107946537D01*
X82188319Y-107940505D01*
X81347316Y-107099502D01*
X81347314Y-107099500D01*
X81265340Y-107052172D01*
X81233187Y-107033608D01*
X81116207Y-107002264D01*
X81105892Y-106999500D01*
X78595893Y-106999500D01*
X78464108Y-106999500D01*
X78336812Y-107033608D01*
X78222686Y-107099500D01*
X78222683Y-107099502D01*
X76759502Y-108562683D01*
X76759500Y-108562686D01*
X76693608Y-108676812D01*
X76659500Y-108804108D01*
X76659500Y-111181323D01*
X76639815Y-111248362D01*
X76623181Y-111269004D01*
X75792686Y-112099500D01*
X75699502Y-112192683D01*
X75699500Y-112192686D01*
X75633608Y-112306812D01*
X75599500Y-112434108D01*
X75599500Y-113251324D01*
X75579815Y-113318363D01*
X75563181Y-113339005D01*
X75099502Y-113802683D01*
X75099500Y-113802686D01*
X75033608Y-113916812D01*
X74999500Y-114044108D01*
X74999500Y-119065893D01*
X75017097Y-119131567D01*
X75017097Y-119195751D01*
X75009500Y-119224102D01*
X75009500Y-119224107D01*
X75009500Y-119224108D01*
X75009500Y-128144108D01*
X75009500Y-128275892D01*
X75020616Y-128317379D01*
X75043608Y-128403187D01*
X75076554Y-128460250D01*
X75109500Y-128517314D01*
X76292686Y-129700500D01*
X76406814Y-129766392D01*
X76534108Y-129800500D01*
X76665893Y-129800500D01*
X80940663Y-129800500D01*
X81007702Y-129820185D01*
X81028344Y-129836819D01*
X81278839Y-130087314D01*
X81372025Y-130180500D01*
X81486153Y-130246392D01*
X81613447Y-130280500D01*
X81745232Y-130280500D01*
X82525500Y-130280500D01*
X82592539Y-130300185D01*
X82638294Y-130352989D01*
X82649500Y-130404500D01*
X82649500Y-130414150D01*
X82629815Y-130481189D01*
X82628603Y-130483040D01*
X82589033Y-130542260D01*
X82589032Y-130542264D01*
X82574500Y-130615321D01*
X82574500Y-132114678D01*
X82589032Y-132187735D01*
X82589033Y-132187739D01*
X82589034Y-132187740D01*
X82644399Y-132270601D01*
X82647089Y-132272398D01*
X82651631Y-132277833D01*
X82653035Y-132279237D01*
X82652909Y-132279362D01*
X82691894Y-132326009D01*
X82700601Y-132395334D01*
X82670447Y-132458362D01*
X82611004Y-132495082D01*
X82578198Y-132499500D01*
X82316544Y-132499500D01*
X82249505Y-132479815D01*
X82228863Y-132463181D01*
X82096819Y-132331137D01*
X82063334Y-132269814D01*
X82060500Y-132243456D01*
X82060500Y-131283858D01*
X82060500Y-131283856D01*
X82036614Y-131194712D01*
X82025995Y-131176319D01*
X81990473Y-131114794D01*
X81990470Y-131114791D01*
X81990469Y-131114788D01*
X81925212Y-131049531D01*
X81535212Y-130659530D01*
X81535211Y-130659529D01*
X81535208Y-130659527D01*
X81455290Y-130613387D01*
X81455289Y-130613386D01*
X81455288Y-130613386D01*
X81366144Y-130589500D01*
X78113856Y-130589500D01*
X78024712Y-130613386D01*
X78024709Y-130613387D01*
X77944791Y-130659527D01*
X77944786Y-130659531D01*
X77141137Y-131463181D01*
X77079814Y-131496666D01*
X77053456Y-131499500D01*
X75825323Y-131499500D01*
X75752264Y-131514032D01*
X75752260Y-131514033D01*
X75669399Y-131569399D01*
X75614033Y-131652260D01*
X75614032Y-131652264D01*
X75599500Y-131725321D01*
X75599500Y-133274678D01*
X75614032Y-133347735D01*
X75614033Y-133347739D01*
X75614034Y-133347740D01*
X75669399Y-133430601D01*
X75738858Y-133477011D01*
X75752260Y-133485966D01*
X75752264Y-133485967D01*
X75825321Y-133500499D01*
X75825324Y-133500500D01*
X75825326Y-133500500D01*
X77374676Y-133500500D01*
X77374677Y-133500499D01*
X77447740Y-133485966D01*
X77530601Y-133430601D01*
X77585966Y-133347740D01*
X77600500Y-133274674D01*
X77600500Y-132046544D01*
X77620185Y-131979505D01*
X77636819Y-131958863D01*
X78268863Y-131326819D01*
X78330186Y-131293334D01*
X78356544Y-131290500D01*
X79028029Y-131290500D01*
X79095068Y-131310185D01*
X79140823Y-131362989D01*
X79150767Y-131432147D01*
X79121742Y-131495703D01*
X79096920Y-131517601D01*
X79019399Y-131569399D01*
X78964033Y-131652260D01*
X78964032Y-131652264D01*
X78949500Y-131725321D01*
X78949500Y-133274678D01*
X78964032Y-133347735D01*
X78964033Y-133347739D01*
X78964034Y-133347740D01*
X79019399Y-133430601D01*
X79088858Y-133477011D01*
X79102260Y-133485966D01*
X79102264Y-133485967D01*
X79175321Y-133500499D01*
X79175324Y-133500500D01*
X79175326Y-133500500D01*
X80403638Y-133500500D01*
X80470677Y-133520185D01*
X80479125Y-133526125D01*
X80484785Y-133530468D01*
X80484787Y-133530469D01*
X80484788Y-133530470D01*
X80542923Y-133564034D01*
X80564712Y-133576614D01*
X80653856Y-133600500D01*
X80653858Y-133600500D01*
X83396142Y-133600500D01*
X83396144Y-133600500D01*
X83485288Y-133576614D01*
X83507077Y-133564034D01*
X83565212Y-133530470D01*
X84242319Y-132853363D01*
X84303642Y-132819878D01*
X84373334Y-132824862D01*
X84417681Y-132853363D01*
X85959788Y-134395470D01*
X85959789Y-134395471D01*
X85959791Y-134395472D01*
X86039318Y-134441387D01*
X86039319Y-134441387D01*
X86039329Y-134441393D01*
X86039712Y-134441614D01*
X86128856Y-134465500D01*
X86128857Y-134465500D01*
X86221144Y-134465500D01*
X86693807Y-134465500D01*
X86760846Y-134485185D01*
X86805207Y-134535039D01*
X86810800Y-134546480D01*
X86810801Y-134546481D01*
X86810802Y-134546483D01*
X86813178Y-134548859D01*
X86815391Y-134552911D01*
X86816773Y-134554847D01*
X86816539Y-134555013D01*
X86846665Y-134610179D01*
X86849500Y-134636543D01*
X86849500Y-135493456D01*
X86829815Y-135560495D01*
X86813181Y-135581137D01*
X86810803Y-135583514D01*
X86759426Y-135688608D01*
X86749500Y-135756739D01*
X86749500Y-136273260D01*
X86759426Y-136341391D01*
X86810803Y-136446485D01*
X86893514Y-136529196D01*
X86893515Y-136529196D01*
X86893517Y-136529198D01*
X86998607Y-136580573D01*
X86998608Y-136580573D01*
X87006181Y-136584275D01*
X87057763Y-136631403D01*
X87075678Y-136698937D01*
X87054237Y-136765435D01*
X87014844Y-136802407D01*
X86984624Y-136820279D01*
X86984616Y-136820285D01*
X86870285Y-136934616D01*
X86870278Y-136934625D01*
X86787968Y-137073804D01*
X86787966Y-137073809D01*
X86742855Y-137229081D01*
X86742854Y-137229087D01*
X86741209Y-137249999D01*
X86741210Y-137250000D01*
X87646000Y-137250000D01*
X87713039Y-137269685D01*
X87758794Y-137322489D01*
X87770000Y-137374000D01*
X87770000Y-138304503D01*
X87916195Y-138262031D01*
X88055374Y-138179721D01*
X88055379Y-138179717D01*
X88148333Y-138086763D01*
X88209656Y-138053278D01*
X88255410Y-138051970D01*
X88309265Y-138060500D01*
X88650734Y-138060499D01*
X88650739Y-138060499D01*
X88650739Y-138060498D01*
X88704587Y-138051970D01*
X88742170Y-138046018D01*
X88742171Y-138046018D01*
X88742172Y-138046017D01*
X88742175Y-138046017D01*
X88852391Y-137989859D01*
X88939859Y-137902391D01*
X88977659Y-137828203D01*
X89025633Y-137777409D01*
X89088143Y-137760500D01*
X89333959Y-137760500D01*
X89400998Y-137780185D01*
X89421640Y-137796819D01*
X89487896Y-137863075D01*
X89496259Y-137869046D01*
X89494080Y-137872097D01*
X89531538Y-137906316D01*
X89549500Y-137970596D01*
X89549500Y-138320500D01*
X89529815Y-138387539D01*
X89477011Y-138433294D01*
X89425500Y-138444500D01*
X88950323Y-138444500D01*
X88877264Y-138459032D01*
X88877260Y-138459033D01*
X88794399Y-138514399D01*
X88739033Y-138597260D01*
X88739032Y-138597264D01*
X88724500Y-138670321D01*
X88724500Y-139419678D01*
X88739032Y-139492735D01*
X88739033Y-139492739D01*
X88794399Y-139575601D01*
X88796342Y-139576899D01*
X88799622Y-139580824D01*
X88803035Y-139584237D01*
X88802729Y-139584542D01*
X88841146Y-139630512D01*
X88849852Y-139699838D01*
X88819696Y-139762864D01*
X88796342Y-139783101D01*
X88794399Y-139784398D01*
X88739033Y-139867260D01*
X88739032Y-139867264D01*
X88724500Y-139940321D01*
X88724500Y-140689678D01*
X88739032Y-140762735D01*
X88739033Y-140762739D01*
X88794399Y-140845601D01*
X88796342Y-140846899D01*
X88799622Y-140850824D01*
X88803035Y-140854237D01*
X88802729Y-140854542D01*
X88841146Y-140900512D01*
X88849852Y-140969838D01*
X88819696Y-141032864D01*
X88796342Y-141053101D01*
X88794399Y-141054398D01*
X88739033Y-141137260D01*
X88734360Y-141148544D01*
X88732665Y-141147842D01*
X88707157Y-141196604D01*
X88646441Y-141231177D01*
X88617927Y-141234500D01*
X88181544Y-141234500D01*
X88114505Y-141214815D01*
X88093863Y-141198181D01*
X86386819Y-139491137D01*
X86353334Y-139429814D01*
X86350500Y-139403456D01*
X86350500Y-137750000D01*
X86741210Y-137750000D01*
X86742854Y-137770910D01*
X86787968Y-137926195D01*
X86870278Y-138065374D01*
X86870285Y-138065383D01*
X86984616Y-138179714D01*
X86984625Y-138179721D01*
X87123804Y-138262031D01*
X87270000Y-138304504D01*
X87270000Y-137750000D01*
X86741210Y-137750000D01*
X86350500Y-137750000D01*
X86350500Y-136768858D01*
X86350500Y-136768856D01*
X86326614Y-136679712D01*
X86280470Y-136599788D01*
X85511819Y-135831137D01*
X85478334Y-135769814D01*
X85475500Y-135743456D01*
X85475500Y-135065323D01*
X85475499Y-135065321D01*
X85460967Y-134992264D01*
X85460966Y-134992263D01*
X85460966Y-134992260D01*
X85405601Y-134909399D01*
X85405597Y-134909396D01*
X85396967Y-134900766D01*
X85397741Y-134899991D01*
X85360802Y-134855787D01*
X85350500Y-134806302D01*
X85350500Y-134743858D01*
X85350500Y-134743856D01*
X85326614Y-134654712D01*
X85303581Y-134614818D01*
X85280473Y-134574794D01*
X85280470Y-134574791D01*
X85280469Y-134574788D01*
X85215212Y-134509531D01*
X84825212Y-134119530D01*
X84825211Y-134119529D01*
X84825208Y-134119527D01*
X84745286Y-134073385D01*
X84745284Y-134073384D01*
X84728387Y-134068857D01*
X84728386Y-134068856D01*
X84728386Y-134068857D01*
X84692264Y-134059178D01*
X84656144Y-134049500D01*
X77603856Y-134049500D01*
X77531614Y-134068857D01*
X77531613Y-134068856D01*
X77514711Y-134073386D01*
X77514706Y-134073388D01*
X77434794Y-134119526D01*
X77434785Y-134119533D01*
X76319533Y-135234783D01*
X76319532Y-135234784D01*
X76307334Y-135255913D01*
X76273385Y-135314712D01*
X76270278Y-135322216D01*
X76267162Y-135320925D01*
X76238945Y-135367239D01*
X76176104Y-135397779D01*
X76155519Y-135399500D01*
X75825323Y-135399500D01*
X75752264Y-135414032D01*
X75752260Y-135414033D01*
X75669399Y-135469399D01*
X75614033Y-135552260D01*
X75614032Y-135552264D01*
X75599500Y-135625321D01*
X75599500Y-137174678D01*
X75614032Y-137247735D01*
X75614033Y-137247739D01*
X75614034Y-137247740D01*
X75669399Y-137330601D01*
X75752260Y-137385966D01*
X75752264Y-137385967D01*
X75825321Y-137400499D01*
X75825324Y-137400500D01*
X75825326Y-137400500D01*
X77374676Y-137400500D01*
X77374677Y-137400499D01*
X77447740Y-137385966D01*
X77530601Y-137330601D01*
X77585966Y-137247740D01*
X77600500Y-137174674D01*
X77600500Y-135625326D01*
X77600500Y-135625323D01*
X77600499Y-135625321D01*
X77585967Y-135552264D01*
X77585966Y-135552260D01*
X77580994Y-135544819D01*
X77530601Y-135469399D01*
X77475235Y-135432405D01*
X77447739Y-135414033D01*
X77447736Y-135414032D01*
X77411619Y-135406848D01*
X77349708Y-135374462D01*
X77315135Y-135313746D01*
X77318876Y-135243976D01*
X77348129Y-135197551D01*
X77758862Y-134786818D01*
X77820185Y-134753334D01*
X77846543Y-134750500D01*
X82518585Y-134750500D01*
X82585624Y-134770185D01*
X82631379Y-134822989D01*
X82641323Y-134892147D01*
X82621687Y-134943390D01*
X82589035Y-134992256D01*
X82589032Y-134992264D01*
X82574500Y-135065321D01*
X82574500Y-136309455D01*
X82554815Y-136376494D01*
X82502011Y-136422249D01*
X82432853Y-136432193D01*
X82369297Y-136403168D01*
X82362819Y-136397136D01*
X82085213Y-136119531D01*
X82085208Y-136119527D01*
X82005290Y-136073387D01*
X82005289Y-136073386D01*
X82005288Y-136073386D01*
X81916144Y-136049500D01*
X81916143Y-136049500D01*
X81024500Y-136049500D01*
X80957461Y-136029815D01*
X80911706Y-135977011D01*
X80900500Y-135925500D01*
X80900500Y-135625323D01*
X80900499Y-135625321D01*
X80885967Y-135552264D01*
X80885966Y-135552260D01*
X80880994Y-135544819D01*
X80830601Y-135469399D01*
X80775235Y-135432405D01*
X80747739Y-135414033D01*
X80747735Y-135414032D01*
X80674677Y-135399500D01*
X80674674Y-135399500D01*
X79125326Y-135399500D01*
X79125323Y-135399500D01*
X79052264Y-135414032D01*
X79052260Y-135414033D01*
X78969399Y-135469399D01*
X78914033Y-135552260D01*
X78914032Y-135552264D01*
X78899500Y-135625321D01*
X78899500Y-137174678D01*
X78914032Y-137247735D01*
X78914033Y-137247739D01*
X78914034Y-137247740D01*
X78969399Y-137330601D01*
X79052260Y-137385966D01*
X79052264Y-137385967D01*
X79125321Y-137400499D01*
X79125324Y-137400500D01*
X79125326Y-137400500D01*
X80674676Y-137400500D01*
X80674677Y-137400499D01*
X80747740Y-137385966D01*
X80830601Y-137330601D01*
X80885966Y-137247740D01*
X80900500Y-137174674D01*
X80900500Y-136874500D01*
X80920185Y-136807461D01*
X80972989Y-136761706D01*
X81024500Y-136750500D01*
X81673456Y-136750500D01*
X81740495Y-136770185D01*
X81761137Y-136786819D01*
X81913181Y-136938863D01*
X81946666Y-137000186D01*
X81949500Y-137026544D01*
X81949500Y-137753856D01*
X81949500Y-139486144D01*
X81964155Y-139540835D01*
X81973386Y-139575287D01*
X81973387Y-139575290D01*
X82019527Y-139655208D01*
X82019529Y-139655211D01*
X82019530Y-139655212D01*
X82959788Y-140595470D01*
X82959789Y-140595471D01*
X82959791Y-140595472D01*
X83039710Y-140641613D01*
X83039712Y-140641614D01*
X83044692Y-140642948D01*
X83104353Y-140679312D01*
X83134218Y-140738532D01*
X83139032Y-140762736D01*
X83139033Y-140762739D01*
X83194399Y-140845601D01*
X83196342Y-140846899D01*
X83199622Y-140850824D01*
X83203035Y-140854237D01*
X83202729Y-140854542D01*
X83241146Y-140900512D01*
X83249852Y-140969838D01*
X83219696Y-141032864D01*
X83196342Y-141053101D01*
X83194399Y-141054398D01*
X83139033Y-141137260D01*
X83139032Y-141137264D01*
X83124500Y-141210321D01*
X83124500Y-141959678D01*
X83128001Y-141977278D01*
X83121774Y-142046869D01*
X83080696Y-142100735D01*
X83017809Y-142147812D01*
X82931649Y-142262906D01*
X82931645Y-142262913D01*
X82881403Y-142397620D01*
X82881401Y-142397627D01*
X82875000Y-142457155D01*
X82875000Y-142605000D01*
X85325000Y-142605000D01*
X85325000Y-142457172D01*
X85324999Y-142457155D01*
X85318598Y-142397627D01*
X85318596Y-142397620D01*
X85268354Y-142262913D01*
X85268350Y-142262906D01*
X85182190Y-142147813D01*
X85119304Y-142100736D01*
X85077433Y-142044802D01*
X85071999Y-141977273D01*
X85075500Y-141959676D01*
X85075500Y-141210323D01*
X85075499Y-141210321D01*
X85060967Y-141137264D01*
X85060966Y-141137260D01*
X85055393Y-141128920D01*
X85005601Y-141054399D01*
X85003660Y-141053102D01*
X85000383Y-141049181D01*
X84996965Y-141045763D01*
X84997270Y-141045457D01*
X84958855Y-140999492D01*
X84950146Y-140930167D01*
X84980300Y-140867139D01*
X85003661Y-140846897D01*
X85005601Y-140845601D01*
X85060966Y-140762740D01*
X85060967Y-140762736D01*
X85065640Y-140751456D01*
X85067334Y-140752157D01*
X85092843Y-140703396D01*
X85153559Y-140668823D01*
X85182073Y-140665500D01*
X85318456Y-140665500D01*
X85385495Y-140685185D01*
X85406137Y-140701819D01*
X86929287Y-142224968D01*
X88424531Y-143720212D01*
X88489788Y-143785469D01*
X88489791Y-143785470D01*
X88489794Y-143785473D01*
X88569706Y-143831611D01*
X88569707Y-143831611D01*
X88569712Y-143831614D01*
X88658856Y-143855500D01*
X88658858Y-143855500D01*
X91341142Y-143855500D01*
X91341144Y-143855500D01*
X91430288Y-143831614D01*
X91510212Y-143785470D01*
X92280470Y-143015212D01*
X92326614Y-142935288D01*
X92350500Y-142846144D01*
X92350500Y-138063883D01*
X92370185Y-137996844D01*
X92422989Y-137951089D01*
X92492147Y-137941145D01*
X92528958Y-137952482D01*
X92543482Y-137959582D01*
X92618418Y-137970500D01*
X92618423Y-137970500D01*
X92961577Y-137970500D01*
X92961582Y-137970500D01*
X93036518Y-137959582D01*
X93140265Y-137908863D01*
X93152099Y-137903078D01*
X93152100Y-137903076D01*
X93152102Y-137903076D01*
X93212320Y-137842857D01*
X93273641Y-137809374D01*
X93343333Y-137814358D01*
X93387681Y-137842859D01*
X93423181Y-137878359D01*
X93456666Y-137939682D01*
X93459500Y-137966040D01*
X93459500Y-140936145D01*
X93479463Y-141010651D01*
X93483383Y-141025282D01*
X93483387Y-141025291D01*
X93529527Y-141105208D01*
X93529531Y-141105213D01*
X93571151Y-141146833D01*
X93604636Y-141208156D01*
X93605211Y-141210954D01*
X93764993Y-142036576D01*
X93806296Y-142250000D01*
X93816997Y-142305291D01*
X93816788Y-142305331D01*
X93819500Y-142329945D01*
X93819500Y-142874678D01*
X93834032Y-142947735D01*
X93834033Y-142947739D01*
X93852405Y-142975235D01*
X93889399Y-143030601D01*
X93971286Y-143085315D01*
X93972260Y-143085966D01*
X93972264Y-143085967D01*
X94045321Y-143100499D01*
X94045324Y-143100500D01*
X94045326Y-143100500D01*
X95794676Y-143100500D01*
X95794677Y-143100499D01*
X95867740Y-143085966D01*
X95950601Y-143030601D01*
X96005966Y-142947740D01*
X96020500Y-142874674D01*
X96020500Y-141936795D01*
X96040185Y-141869756D01*
X96092989Y-141824001D01*
X96162147Y-141814057D01*
X96225703Y-141843082D01*
X96262089Y-141897441D01*
X96308653Y-142036576D01*
X96324404Y-142083640D01*
X96425055Y-142384390D01*
X96426730Y-142389805D01*
X96429416Y-142399245D01*
X96429417Y-142399247D01*
X96429610Y-142399635D01*
X96434002Y-142409520D01*
X96434840Y-142411653D01*
X96436481Y-142414795D01*
X96441306Y-142423126D01*
X96520327Y-142581821D01*
X96643237Y-142744581D01*
X96793958Y-142881980D01*
X96793960Y-142881982D01*
X96880051Y-142935287D01*
X96967363Y-142989348D01*
X97157544Y-143063024D01*
X97358024Y-143100500D01*
X97358026Y-143100500D01*
X97561974Y-143100500D01*
X97561976Y-143100500D01*
X97762456Y-143063024D01*
X97952637Y-142989348D01*
X98126041Y-142881981D01*
X98276764Y-142744579D01*
X98399673Y-142581821D01*
X98475276Y-142429989D01*
X98486817Y-142406812D01*
X98534319Y-142355575D01*
X98601982Y-142338153D01*
X98668323Y-142360078D01*
X98712278Y-142414389D01*
X98717592Y-142429989D01*
X98726567Y-142463485D01*
X98726570Y-142463492D01*
X98826399Y-142677578D01*
X98961894Y-142871082D01*
X99128917Y-143038105D01*
X99322421Y-143173600D01*
X99536507Y-143273429D01*
X99536516Y-143273433D01*
X99750000Y-143330634D01*
X99750000Y-142433012D01*
X99807007Y-142465925D01*
X99934174Y-142500000D01*
X100065826Y-142500000D01*
X100192993Y-142465925D01*
X100250000Y-142433012D01*
X100250000Y-143330633D01*
X100463483Y-143273433D01*
X100463492Y-143273429D01*
X100677578Y-143173600D01*
X100871082Y-143038105D01*
X101038105Y-142871082D01*
X101173600Y-142677578D01*
X101273429Y-142463492D01*
X101273432Y-142463486D01*
X101330636Y-142250000D01*
X100433012Y-142250000D01*
X100465925Y-142192993D01*
X100500000Y-142065826D01*
X100500000Y-141934174D01*
X100465925Y-141807007D01*
X100433012Y-141750000D01*
X101330636Y-141750000D01*
X101330635Y-141749999D01*
X101273432Y-141536513D01*
X101273429Y-141536507D01*
X101173600Y-141322422D01*
X101173599Y-141322420D01*
X101038113Y-141128926D01*
X101038108Y-141128920D01*
X100871082Y-140961894D01*
X100677578Y-140826399D01*
X100463492Y-140726570D01*
X100463486Y-140726567D01*
X100250000Y-140669364D01*
X100250000Y-141566988D01*
X100192993Y-141534075D01*
X100065826Y-141500000D01*
X99934174Y-141500000D01*
X99807007Y-141534075D01*
X99750000Y-141566988D01*
X99750000Y-140669364D01*
X99749999Y-140669364D01*
X99536513Y-140726567D01*
X99536507Y-140726570D01*
X99322422Y-140826399D01*
X99322420Y-140826400D01*
X99128926Y-140961886D01*
X99128920Y-140961891D01*
X98961891Y-141128920D01*
X98961886Y-141128926D01*
X98826400Y-141322420D01*
X98826399Y-141322422D01*
X98726570Y-141536507D01*
X98726568Y-141536511D01*
X98717592Y-141570011D01*
X98681226Y-141629671D01*
X98618379Y-141660199D01*
X98549003Y-141651904D01*
X98495126Y-141607418D01*
X98486817Y-141593188D01*
X98420081Y-141459164D01*
X98399673Y-141418179D01*
X98276764Y-141255421D01*
X98276762Y-141255418D01*
X98126041Y-141118019D01*
X98126039Y-141118017D01*
X97952640Y-141010653D01*
X97952634Y-141010651D01*
X97885922Y-140984806D01*
X97869184Y-140976836D01*
X97854481Y-140968432D01*
X97777687Y-140942731D01*
X97772253Y-140940771D01*
X97762455Y-140936975D01*
X97756946Y-140935408D01*
X97756985Y-140935269D01*
X97749874Y-140933423D01*
X96483816Y-140509715D01*
X96435488Y-140479806D01*
X96296819Y-140341137D01*
X96263334Y-140279814D01*
X96260500Y-140253456D01*
X96260500Y-137966040D01*
X96280185Y-137899001D01*
X96296814Y-137878363D01*
X96363076Y-137812102D01*
X96363076Y-137812100D01*
X96363078Y-137812099D01*
X96398985Y-137738649D01*
X96419582Y-137696518D01*
X96430500Y-137621582D01*
X96430500Y-137178418D01*
X96419582Y-137103482D01*
X96398454Y-137060264D01*
X96363078Y-136987900D01*
X96363076Y-136987897D01*
X96272102Y-136896923D01*
X96272099Y-136896921D01*
X96156521Y-136840419D01*
X96156519Y-136840418D01*
X96156518Y-136840418D01*
X96081582Y-136829500D01*
X95936254Y-136829500D01*
X95869215Y-136809815D01*
X95823460Y-136757011D01*
X95813516Y-136687853D01*
X95842541Y-136624297D01*
X95848573Y-136617819D01*
X96006517Y-136459876D01*
X96379574Y-136086819D01*
X96440897Y-136053334D01*
X96467255Y-136050500D01*
X97324676Y-136050500D01*
X97324677Y-136050499D01*
X97397740Y-136035966D01*
X97480601Y-135980601D01*
X97535966Y-135897740D01*
X97550500Y-135824674D01*
X97550500Y-133775326D01*
X97550500Y-133775323D01*
X97550499Y-133775321D01*
X97535967Y-133702264D01*
X97535966Y-133702260D01*
X97531089Y-133694961D01*
X97480601Y-133619399D01*
X97400500Y-133565878D01*
X97397739Y-133564033D01*
X97397735Y-133564032D01*
X97324677Y-133549500D01*
X97324674Y-133549500D01*
X96824500Y-133549500D01*
X96757461Y-133529815D01*
X96711706Y-133477011D01*
X96700500Y-133425500D01*
X96700500Y-131447275D01*
X96700500Y-131447273D01*
X96686567Y-131395275D01*
X96673207Y-131345412D01*
X96627712Y-131266614D01*
X96627712Y-131266612D01*
X96620482Y-131254089D01*
X96620478Y-131254084D01*
X96541599Y-131175205D01*
X96541576Y-131175184D01*
X96441401Y-131075008D01*
X96407917Y-131013684D01*
X96406144Y-131003512D01*
X96405681Y-130999998D01*
X96385044Y-130843238D01*
X96376226Y-130821951D01*
X96368758Y-130752484D01*
X96400033Y-130690005D01*
X96460122Y-130654352D01*
X96490788Y-130650500D01*
X98224918Y-130650500D01*
X98291957Y-130670185D01*
X98337712Y-130722989D01*
X98347656Y-130792147D01*
X98327858Y-130839154D01*
X98329528Y-130840119D01*
X98325465Y-130847156D01*
X98264956Y-130993237D01*
X98264955Y-130993239D01*
X98244318Y-131149998D01*
X98244318Y-131150001D01*
X98264955Y-131306760D01*
X98264956Y-131306762D01*
X98323157Y-131447273D01*
X98325464Y-131452841D01*
X98421718Y-131578282D01*
X98421720Y-131578283D01*
X98423876Y-131581093D01*
X98449070Y-131646263D01*
X98449500Y-131656580D01*
X98449500Y-135247273D01*
X98449500Y-135352727D01*
X98455324Y-135374462D01*
X98476793Y-135454589D01*
X98483560Y-135466309D01*
X98529520Y-135545913D01*
X98529522Y-135545915D01*
X98563181Y-135579574D01*
X98596666Y-135640897D01*
X98599500Y-135667255D01*
X98599500Y-136624678D01*
X98614032Y-136697735D01*
X98614033Y-136697739D01*
X98620821Y-136707898D01*
X98669399Y-136780601D01*
X98742583Y-136829500D01*
X98752260Y-136835966D01*
X98752264Y-136835967D01*
X98825321Y-136850499D01*
X98825324Y-136850500D01*
X98825326Y-136850500D01*
X100474676Y-136850500D01*
X100474677Y-136850499D01*
X100547740Y-136835966D01*
X100630601Y-136780601D01*
X100685966Y-136697740D01*
X100700500Y-136624674D01*
X100700500Y-135575326D01*
X100700500Y-135575323D01*
X100700499Y-135575321D01*
X100685967Y-135502264D01*
X100685966Y-135502260D01*
X100664009Y-135469399D01*
X100630601Y-135419399D01*
X100547740Y-135364034D01*
X100547739Y-135364033D01*
X100547735Y-135364032D01*
X100474677Y-135349500D01*
X100474674Y-135349500D01*
X99517255Y-135349500D01*
X99450216Y-135329815D01*
X99429574Y-135313181D01*
X99286819Y-135170426D01*
X99253334Y-135109103D01*
X99250500Y-135082745D01*
X99250500Y-134897844D01*
X100650000Y-134897844D01*
X100656401Y-134957372D01*
X100656403Y-134957379D01*
X100706645Y-135092086D01*
X100706649Y-135092093D01*
X100792809Y-135207187D01*
X100792812Y-135207190D01*
X100907906Y-135293350D01*
X100907913Y-135293354D01*
X101042620Y-135343596D01*
X101042627Y-135343598D01*
X101102155Y-135349999D01*
X101102172Y-135350000D01*
X101700000Y-135350000D01*
X101700000Y-134600000D01*
X100650000Y-134600000D01*
X100650000Y-134897844D01*
X99250500Y-134897844D01*
X99250500Y-133802155D01*
X100650000Y-133802155D01*
X100650000Y-134100000D01*
X101700000Y-134100000D01*
X101700000Y-133350000D01*
X101102155Y-133350000D01*
X101042627Y-133356401D01*
X101042620Y-133356403D01*
X100907913Y-133406645D01*
X100907906Y-133406649D01*
X100792812Y-133492809D01*
X100792809Y-133492812D01*
X100706649Y-133607906D01*
X100706645Y-133607913D01*
X100656403Y-133742620D01*
X100656401Y-133742627D01*
X100650000Y-133802155D01*
X99250500Y-133802155D01*
X99250500Y-131656580D01*
X99270185Y-131589541D01*
X99276124Y-131581093D01*
X99278279Y-131578283D01*
X99278282Y-131578282D01*
X99374536Y-131452841D01*
X99435044Y-131306762D01*
X99448802Y-131202254D01*
X99455682Y-131150001D01*
X99455682Y-131149998D01*
X99437736Y-131013684D01*
X99435044Y-130993238D01*
X99374536Y-130847159D01*
X99374534Y-130847156D01*
X99370472Y-130840119D01*
X99372448Y-130838977D01*
X99351511Y-130784807D01*
X99365555Y-130716363D01*
X99414373Y-130666377D01*
X99475082Y-130650500D01*
X100696641Y-130650500D01*
X100763680Y-130670185D01*
X100809435Y-130722989D01*
X100815616Y-130739561D01*
X100828902Y-130784807D01*
X100832909Y-130798454D01*
X100832910Y-130798457D01*
X100892630Y-130929227D01*
X100892639Y-130929243D01*
X100931950Y-130990411D01*
X100931961Y-130990427D01*
X101026106Y-131099077D01*
X101081069Y-131146702D01*
X101202017Y-131224431D01*
X101202020Y-131224432D01*
X101202023Y-131224434D01*
X101268174Y-131254644D01*
X101406129Y-131295151D01*
X101478111Y-131305500D01*
X101478113Y-131305500D01*
X102050002Y-131305500D01*
X102050003Y-131305499D01*
X102147776Y-131286051D01*
X102147781Y-131286047D01*
X102152540Y-131284077D01*
X102222009Y-131276604D01*
X102247460Y-131284077D01*
X102252219Y-131286048D01*
X102252224Y-131286051D01*
X102252228Y-131286051D01*
X102252229Y-131286052D01*
X102349995Y-131305499D01*
X102349998Y-131305500D01*
X102350000Y-131305500D01*
X102921887Y-131305500D01*
X102921889Y-131305500D01*
X102993871Y-131295151D01*
X103131826Y-131254644D01*
X103197977Y-131224434D01*
X103215399Y-131213238D01*
X103240726Y-131196961D01*
X103318931Y-131146702D01*
X103373893Y-131099077D01*
X103404874Y-131063323D01*
X103468038Y-130990427D01*
X103468040Y-130990424D01*
X103468047Y-130990416D01*
X103507363Y-130929239D01*
X103507366Y-130929231D01*
X103507369Y-130929227D01*
X103546638Y-130843239D01*
X103567091Y-130798454D01*
X103584381Y-130739565D01*
X103622155Y-130680788D01*
X103685710Y-130651762D01*
X103703359Y-130650500D01*
X105746142Y-130650500D01*
X105746144Y-130650500D01*
X105835288Y-130626614D01*
X105854839Y-130615326D01*
X105915212Y-130580470D01*
X107359557Y-129136122D01*
X107420878Y-129102639D01*
X107463421Y-129100866D01*
X107500000Y-129105682D01*
X107656762Y-129085044D01*
X107802841Y-129024536D01*
X107928282Y-128928282D01*
X108024536Y-128802841D01*
X108043546Y-128756946D01*
X108087385Y-128702545D01*
X108153679Y-128680479D01*
X108221378Y-128697757D01*
X108245787Y-128716719D01*
X112317387Y-132788319D01*
X112350872Y-132849642D01*
X112345888Y-132919334D01*
X112304016Y-132975267D01*
X112238552Y-132999684D01*
X112229706Y-133000000D01*
X103000000Y-133000000D01*
X103000000Y-133233690D01*
X102980315Y-133300729D01*
X102927511Y-133346484D01*
X102862744Y-133356979D01*
X102797844Y-133350000D01*
X102200000Y-133350000D01*
X102200000Y-135350000D01*
X102797828Y-135350000D01*
X102797839Y-135349999D01*
X102862742Y-135343020D01*
X102931502Y-135355424D01*
X102982640Y-135403033D01*
X103000000Y-135466309D01*
X103000000Y-136993225D01*
X102980315Y-137060264D01*
X102927511Y-137106019D01*
X102858353Y-137115963D01*
X102851809Y-137114842D01*
X102774678Y-137099500D01*
X102774674Y-137099500D01*
X101125326Y-137099500D01*
X101125323Y-137099500D01*
X101052264Y-137114032D01*
X101052260Y-137114033D01*
X100969399Y-137169399D01*
X100914033Y-137252260D01*
X100914032Y-137252264D01*
X100899500Y-137325321D01*
X100899500Y-138374678D01*
X100914032Y-138447735D01*
X100914033Y-138447739D01*
X100921580Y-138459034D01*
X100969399Y-138530601D01*
X101051049Y-138585157D01*
X101052260Y-138585966D01*
X101052264Y-138585967D01*
X101125321Y-138600499D01*
X101125324Y-138600500D01*
X101125326Y-138600500D01*
X102774676Y-138600500D01*
X102851808Y-138585157D01*
X102921400Y-138591384D01*
X102976577Y-138634247D01*
X102999822Y-138700136D01*
X103000000Y-138706774D01*
X103000000Y-144375499D01*
X102980315Y-144442538D01*
X102927511Y-144488293D01*
X102876000Y-144499499D01*
X80002562Y-144499499D01*
X79997438Y-144499393D01*
X79550984Y-144480927D01*
X79540770Y-144480081D01*
X79099901Y-144425127D01*
X79089792Y-144423440D01*
X78654971Y-144332268D01*
X78645036Y-144329752D01*
X78219227Y-144202983D01*
X78209534Y-144199655D01*
X77795651Y-144038157D01*
X77786266Y-144034040D01*
X77387146Y-143838922D01*
X77378132Y-143834045D01*
X76996455Y-143606615D01*
X76987876Y-143601009D01*
X76626313Y-143342859D01*
X76618225Y-143336564D01*
X76611223Y-143330634D01*
X76519377Y-143252844D01*
X82875000Y-143252844D01*
X82881401Y-143312372D01*
X82881403Y-143312379D01*
X82931645Y-143447086D01*
X82931649Y-143447093D01*
X83017809Y-143562187D01*
X83017812Y-143562190D01*
X83132906Y-143648350D01*
X83132913Y-143648354D01*
X83267620Y-143698596D01*
X83267627Y-143698598D01*
X83327155Y-143704999D01*
X83327172Y-143705000D01*
X83850000Y-143705000D01*
X84350000Y-143705000D01*
X84872828Y-143705000D01*
X84872844Y-143704999D01*
X84932372Y-143698598D01*
X84932379Y-143698596D01*
X85067086Y-143648354D01*
X85067093Y-143648350D01*
X85182187Y-143562190D01*
X85182190Y-143562187D01*
X85268350Y-143447093D01*
X85268354Y-143447086D01*
X85318596Y-143312379D01*
X85318598Y-143312372D01*
X85324999Y-143252844D01*
X85325000Y-143252827D01*
X85325000Y-143105000D01*
X84350000Y-143105000D01*
X84350000Y-143705000D01*
X83850000Y-143705000D01*
X83850000Y-143105000D01*
X82875000Y-143105000D01*
X82875000Y-143252844D01*
X76519377Y-143252844D01*
X76344819Y-143105000D01*
X76279204Y-143049427D01*
X76271664Y-143042486D01*
X75957513Y-142728335D01*
X75950572Y-142720795D01*
X75832865Y-142581819D01*
X75663431Y-142381769D01*
X75657140Y-142373686D01*
X75609532Y-142307007D01*
X75398990Y-142012123D01*
X75393384Y-142003544D01*
X75165954Y-141621867D01*
X75161077Y-141612853D01*
X74965959Y-141213733D01*
X74961842Y-141204348D01*
X74891974Y-141025291D01*
X74800339Y-140790453D01*
X74797020Y-140780785D01*
X74713426Y-140500000D01*
X75795065Y-140500000D01*
X75814786Y-140826038D01*
X75873667Y-141147341D01*
X75970835Y-141459164D01*
X75970839Y-141459175D01*
X76104897Y-141757041D01*
X76104898Y-141757043D01*
X76273881Y-142036576D01*
X76421476Y-142224968D01*
X77563708Y-141082736D01*
X77660967Y-141216602D01*
X77783398Y-141339033D01*
X77917262Y-141436290D01*
X76775030Y-142578522D01*
X76775030Y-142578523D01*
X76963423Y-142726118D01*
X77242956Y-142895101D01*
X77242958Y-142895102D01*
X77540824Y-143029160D01*
X77540835Y-143029164D01*
X77852658Y-143126332D01*
X78173961Y-143185213D01*
X78500000Y-143204934D01*
X78826038Y-143185213D01*
X79147341Y-143126332D01*
X79459164Y-143029164D01*
X79459175Y-143029160D01*
X79757041Y-142895102D01*
X79757043Y-142895101D01*
X80036586Y-142726112D01*
X80224968Y-142578523D01*
X80224968Y-142578522D01*
X79082737Y-141436290D01*
X79216602Y-141339033D01*
X79339033Y-141216602D01*
X79436290Y-141082737D01*
X80578522Y-142224968D01*
X80578523Y-142224968D01*
X80726112Y-142036586D01*
X80895101Y-141757043D01*
X80895102Y-141757041D01*
X81029160Y-141459175D01*
X81029164Y-141459164D01*
X81126332Y-141147341D01*
X81185213Y-140826038D01*
X81204934Y-140500000D01*
X81185213Y-140173961D01*
X81126332Y-139852658D01*
X81029164Y-139540835D01*
X81029160Y-139540824D01*
X80895102Y-139242958D01*
X80895101Y-139242956D01*
X80726118Y-138963423D01*
X80578522Y-138775030D01*
X79436290Y-139917262D01*
X79339033Y-139783398D01*
X79216602Y-139660967D01*
X79082736Y-139563709D01*
X80224968Y-138421476D01*
X80036576Y-138273881D01*
X79757043Y-138104898D01*
X79757041Y-138104897D01*
X79459175Y-137970839D01*
X79459164Y-137970835D01*
X79147341Y-137873667D01*
X78826038Y-137814786D01*
X78500000Y-137795065D01*
X78173961Y-137814786D01*
X77852658Y-137873667D01*
X77540835Y-137970835D01*
X77540824Y-137970839D01*
X77242958Y-138104897D01*
X77242956Y-138104898D01*
X76963422Y-138273881D01*
X76963416Y-138273886D01*
X76775030Y-138421474D01*
X76775029Y-138421476D01*
X77917262Y-139563709D01*
X77783398Y-139660967D01*
X77660967Y-139783398D01*
X77563709Y-139917262D01*
X76421476Y-138775029D01*
X76421474Y-138775030D01*
X76273886Y-138963416D01*
X76273881Y-138963422D01*
X76104898Y-139242956D01*
X76104897Y-139242958D01*
X75970839Y-139540824D01*
X75970835Y-139540835D01*
X75873667Y-139852658D01*
X75814786Y-140173961D01*
X75795065Y-140500000D01*
X74713426Y-140500000D01*
X74670243Y-140354950D01*
X74667734Y-140345042D01*
X74576556Y-139910193D01*
X74574874Y-139900113D01*
X74519916Y-139459208D01*
X74519073Y-139449035D01*
X74500607Y-139002561D01*
X74500501Y-138997437D01*
X74500501Y-138926512D01*
X74500500Y-138926494D01*
X74500500Y-102075895D01*
X74500501Y-102075882D01*
X74500501Y-102024000D01*
X74520186Y-101956961D01*
X74572990Y-101911206D01*
X74624501Y-101900000D01*
X80126000Y-101900000D01*
X80193039Y-101919685D01*
G37*
%TD.AperFunction*%
%TA.AperFunction,Conductor*%
G36*
X117002562Y-96500605D02*
G01*
X117449036Y-96519072D01*
X117459209Y-96519915D01*
X117900114Y-96574873D01*
X117910194Y-96576555D01*
X118345042Y-96667733D01*
X118354950Y-96670242D01*
X118780786Y-96797019D01*
X118790454Y-96800338D01*
X119077190Y-96912224D01*
X119204339Y-96961838D01*
X119213724Y-96965954D01*
X119612869Y-97161083D01*
X119621877Y-97165958D01*
X120003544Y-97393383D01*
X120012123Y-97398989D01*
X120373693Y-97657144D01*
X120381770Y-97663431D01*
X120720796Y-97950571D01*
X120728336Y-97957512D01*
X121042487Y-98271663D01*
X121049428Y-98279203D01*
X121269554Y-98539106D01*
X121336564Y-98618224D01*
X121342859Y-98626312D01*
X121601010Y-98987876D01*
X121606616Y-98996455D01*
X121834041Y-99378122D01*
X121838919Y-99387136D01*
X122034045Y-99786275D01*
X122038161Y-99795660D01*
X122199656Y-100209533D01*
X122202984Y-100219226D01*
X122329753Y-100645036D01*
X122332269Y-100654971D01*
X122423441Y-101089791D01*
X122425128Y-101099900D01*
X122480082Y-101540769D01*
X122480928Y-101550983D01*
X122499393Y-101997436D01*
X122499499Y-102002560D01*
X122499499Y-138997437D01*
X122499393Y-139002561D01*
X122480927Y-139449015D01*
X122480081Y-139459229D01*
X122425127Y-139900098D01*
X122423440Y-139910207D01*
X122332268Y-140345028D01*
X122329752Y-140354963D01*
X122202983Y-140780772D01*
X122199655Y-140790465D01*
X122038157Y-141204348D01*
X122034040Y-141213733D01*
X121838922Y-141612853D01*
X121834045Y-141621867D01*
X121606615Y-142003544D01*
X121601009Y-142012123D01*
X121342859Y-142373686D01*
X121336564Y-142381774D01*
X121049427Y-142720795D01*
X121042486Y-142728335D01*
X120728335Y-143042486D01*
X120720795Y-143049427D01*
X120381774Y-143336564D01*
X120373686Y-143342859D01*
X120012123Y-143601009D01*
X120003544Y-143606615D01*
X119621867Y-143834045D01*
X119612853Y-143838922D01*
X119213733Y-144034040D01*
X119204348Y-144038157D01*
X118790465Y-144199655D01*
X118780772Y-144202983D01*
X118354963Y-144329752D01*
X118345028Y-144332268D01*
X117910207Y-144423440D01*
X117900098Y-144425127D01*
X117459229Y-144480081D01*
X117449015Y-144480927D01*
X117129123Y-144494158D01*
X117061328Y-144477261D01*
X117013430Y-144426393D01*
X116999999Y-144370264D01*
X116999999Y-142968086D01*
X117019684Y-142901047D01*
X117072488Y-142855292D01*
X117141646Y-142845348D01*
X117188150Y-142861970D01*
X117242952Y-142895099D01*
X117242958Y-142895102D01*
X117540824Y-143029160D01*
X117540835Y-143029164D01*
X117852658Y-143126332D01*
X118173961Y-143185213D01*
X118500000Y-143204934D01*
X118826038Y-143185213D01*
X119147341Y-143126332D01*
X119459164Y-143029164D01*
X119459175Y-143029160D01*
X119757041Y-142895102D01*
X119757043Y-142895101D01*
X120036586Y-142726112D01*
X120224968Y-142578523D01*
X120224968Y-142578522D01*
X119082736Y-141436290D01*
X119216602Y-141339033D01*
X119339033Y-141216602D01*
X119436290Y-141082737D01*
X120578522Y-142224968D01*
X120578523Y-142224968D01*
X120726112Y-142036586D01*
X120895101Y-141757043D01*
X120895102Y-141757041D01*
X121029160Y-141459175D01*
X121029164Y-141459164D01*
X121126332Y-141147341D01*
X121185213Y-140826038D01*
X121204934Y-140500000D01*
X121185213Y-140173961D01*
X121126332Y-139852658D01*
X121029164Y-139540835D01*
X121029160Y-139540824D01*
X120895102Y-139242958D01*
X120895101Y-139242956D01*
X120726118Y-138963423D01*
X120578522Y-138775030D01*
X119436290Y-139917262D01*
X119339033Y-139783398D01*
X119216602Y-139660967D01*
X119082736Y-139563709D01*
X120224968Y-138421476D01*
X120036576Y-138273881D01*
X119757043Y-138104898D01*
X119757041Y-138104897D01*
X119459175Y-137970839D01*
X119459164Y-137970835D01*
X119147341Y-137873667D01*
X118826038Y-137814786D01*
X118500000Y-137795065D01*
X118173961Y-137814786D01*
X117852658Y-137873667D01*
X117540835Y-137970835D01*
X117540824Y-137970839D01*
X117242958Y-138104897D01*
X117242948Y-138104902D01*
X117188148Y-138138030D01*
X117120593Y-138155866D01*
X117054120Y-138134348D01*
X117009832Y-138080307D01*
X116999999Y-138031915D01*
X116999999Y-136580997D01*
X117019684Y-136513961D01*
X117072488Y-136468206D01*
X117123999Y-136457000D01*
X117142676Y-136457000D01*
X117142677Y-136456999D01*
X117215740Y-136442466D01*
X117298601Y-136387101D01*
X117353966Y-136304240D01*
X117368500Y-136231174D01*
X117368500Y-134276826D01*
X117368500Y-134276823D01*
X117368499Y-134276821D01*
X117353967Y-134203764D01*
X117353966Y-134203760D01*
X117340705Y-134183913D01*
X117298601Y-134120899D01*
X117227489Y-134073384D01*
X117215739Y-134065533D01*
X117215735Y-134065532D01*
X117142677Y-134051000D01*
X117142674Y-134051000D01*
X117123999Y-134051000D01*
X117056960Y-134031315D01*
X117011205Y-133978511D01*
X116999999Y-133927004D01*
X117000000Y-133000000D01*
X115977044Y-133000000D01*
X115910005Y-132980315D01*
X115889363Y-132963681D01*
X115595213Y-132669531D01*
X115595208Y-132669527D01*
X115515290Y-132623387D01*
X115515289Y-132623386D01*
X115515288Y-132623386D01*
X115426144Y-132599500D01*
X115426143Y-132599500D01*
X114412730Y-132599500D01*
X114345691Y-132579815D01*
X114325049Y-132563181D01*
X109379893Y-127618025D01*
X109346408Y-127556702D01*
X109351392Y-127487010D01*
X109393264Y-127431077D01*
X109400744Y-127426143D01*
X109402835Y-127424538D01*
X109402841Y-127424536D01*
X109528282Y-127328282D01*
X109624536Y-127202841D01*
X109685044Y-127056762D01*
X109705432Y-126901899D01*
X109705682Y-126900001D01*
X109705682Y-126899998D01*
X109689300Y-126775566D01*
X109685044Y-126743238D01*
X109624536Y-126597159D01*
X109528282Y-126471718D01*
X109402841Y-126375464D01*
X109357765Y-126356793D01*
X109256762Y-126314956D01*
X109256760Y-126314955D01*
X109100002Y-126294318D01*
X109099998Y-126294318D01*
X109063422Y-126299133D01*
X108994387Y-126288367D01*
X108959557Y-126263875D01*
X108584819Y-125889137D01*
X108551334Y-125827814D01*
X108548500Y-125801456D01*
X108548500Y-123018239D01*
X108568185Y-122951200D01*
X108578554Y-122937307D01*
X108959324Y-122495363D01*
X109017995Y-122457424D01*
X109087864Y-122457227D01*
X109146749Y-122494835D01*
X109158421Y-122510590D01*
X109338869Y-122799365D01*
X109364009Y-122839598D01*
X109382937Y-122869888D01*
X109397553Y-122903503D01*
X109412607Y-122959685D01*
X109423388Y-122978358D01*
X109478500Y-123073814D01*
X109478502Y-123073816D01*
X109563988Y-123159302D01*
X109569144Y-123164915D01*
X109569200Y-123164866D01*
X109589652Y-123187781D01*
X109594900Y-123192343D01*
X109606774Y-123202088D01*
X112555186Y-126150500D01*
X112669314Y-126216392D01*
X112796607Y-126250500D01*
X112796608Y-126250500D01*
X116691324Y-126250500D01*
X116758363Y-126270185D01*
X116779005Y-126286819D01*
X119413181Y-128920995D01*
X119446666Y-128982318D01*
X119449500Y-129008676D01*
X119449500Y-130524678D01*
X119464032Y-130597735D01*
X119464033Y-130597739D01*
X119464034Y-130597740D01*
X119519399Y-130680601D01*
X119591351Y-130728677D01*
X119602260Y-130735966D01*
X119602264Y-130735967D01*
X119675321Y-130750499D01*
X119675324Y-130750500D01*
X119675326Y-130750500D01*
X121724676Y-130750500D01*
X121724677Y-130750499D01*
X121797740Y-130735966D01*
X121880601Y-130680601D01*
X121935966Y-130597740D01*
X121950500Y-130524674D01*
X121950500Y-128475326D01*
X121950500Y-128475323D01*
X121950499Y-128475321D01*
X121935967Y-128402264D01*
X121935966Y-128402260D01*
X121880601Y-128319399D01*
X121797740Y-128264034D01*
X121797739Y-128264033D01*
X121797735Y-128264032D01*
X121724677Y-128249500D01*
X121724674Y-128249500D01*
X120208676Y-128249500D01*
X120141637Y-128229815D01*
X120120995Y-128213181D01*
X117257316Y-125349502D01*
X117257314Y-125349500D01*
X117198781Y-125315706D01*
X117143187Y-125283608D01*
X117078412Y-125266252D01*
X117015892Y-125249500D01*
X117015891Y-125249500D01*
X113121176Y-125249500D01*
X113054137Y-125229815D01*
X113033495Y-125213181D01*
X110768495Y-122948181D01*
X110735010Y-122886858D01*
X110739994Y-122817166D01*
X110781866Y-122761233D01*
X110847330Y-122736816D01*
X110856176Y-122736500D01*
X111280000Y-122736500D01*
X111280000Y-121158000D01*
X111299685Y-121090961D01*
X111352489Y-121045206D01*
X111404000Y-121034000D01*
X111656000Y-121034000D01*
X111723039Y-121053685D01*
X111768794Y-121106489D01*
X111780000Y-121158000D01*
X111780000Y-122736500D01*
X112212828Y-122736500D01*
X112212844Y-122736499D01*
X112272372Y-122730098D01*
X112272379Y-122730096D01*
X112407086Y-122679854D01*
X112407093Y-122679850D01*
X112522185Y-122593691D01*
X112522190Y-122593686D01*
X112564859Y-122536689D01*
X112620793Y-122494818D01*
X112664126Y-122487000D01*
X113840676Y-122487000D01*
X113840677Y-122486999D01*
X113913740Y-122472466D01*
X113937610Y-122456516D01*
X114004286Y-122435639D01*
X114071666Y-122454123D01*
X114075370Y-122456503D01*
X114099260Y-122472466D01*
X114099262Y-122472466D01*
X114099264Y-122472467D01*
X114172321Y-122486999D01*
X114172324Y-122487000D01*
X114172326Y-122487000D01*
X115491676Y-122487000D01*
X115491677Y-122486999D01*
X115564740Y-122472466D01*
X115588610Y-122456516D01*
X115655286Y-122435639D01*
X115722666Y-122454123D01*
X115726370Y-122456503D01*
X115750260Y-122472466D01*
X115750262Y-122472466D01*
X115750264Y-122472467D01*
X115823321Y-122486999D01*
X115823324Y-122487000D01*
X115823326Y-122487000D01*
X117142676Y-122487000D01*
X117142677Y-122486999D01*
X117215740Y-122472466D01*
X117298601Y-122417101D01*
X117353966Y-122334240D01*
X117353967Y-122334235D01*
X117368872Y-122259308D01*
X117401257Y-122197397D01*
X117461973Y-122162823D01*
X117490489Y-122159500D01*
X119275500Y-122159500D01*
X119342539Y-122179185D01*
X119388294Y-122231989D01*
X119399500Y-122283500D01*
X119399500Y-122424678D01*
X119414032Y-122497735D01*
X119414033Y-122497739D01*
X119418239Y-122504034D01*
X119469399Y-122580601D01*
X119537345Y-122626000D01*
X119552260Y-122635966D01*
X119552264Y-122635967D01*
X119625321Y-122650499D01*
X119625324Y-122650500D01*
X119625326Y-122650500D01*
X121674676Y-122650500D01*
X121674677Y-122650499D01*
X121747740Y-122635966D01*
X121830601Y-122580601D01*
X121885966Y-122497740D01*
X121900500Y-122424674D01*
X121900500Y-120375326D01*
X121900500Y-120375323D01*
X121900499Y-120375321D01*
X121885967Y-120302264D01*
X121885966Y-120302260D01*
X121877572Y-120289697D01*
X121830601Y-120219399D01*
X121775224Y-120182398D01*
X121747739Y-120164033D01*
X121747735Y-120164032D01*
X121674677Y-120149500D01*
X121674674Y-120149500D01*
X119625326Y-120149500D01*
X119625323Y-120149500D01*
X119552264Y-120164032D01*
X119552260Y-120164033D01*
X119469399Y-120219399D01*
X119414033Y-120302260D01*
X119414032Y-120302264D01*
X119412754Y-120308691D01*
X119380369Y-120370602D01*
X119319653Y-120405176D01*
X119291137Y-120408500D01*
X117490489Y-120408500D01*
X117423450Y-120388815D01*
X117377695Y-120336011D01*
X117368872Y-120308694D01*
X117362390Y-120276111D01*
X117360882Y-120268531D01*
X117358500Y-120244341D01*
X117358500Y-119641268D01*
X117358499Y-119641266D01*
X117353317Y-119615213D01*
X117324855Y-119472126D01*
X117314093Y-119446144D01*
X117258861Y-119312801D01*
X117258854Y-119312788D01*
X117163046Y-119169402D01*
X117122744Y-119129100D01*
X117041099Y-119047455D01*
X116367030Y-118373386D01*
X115649778Y-117656133D01*
X115649774Y-117656130D01*
X115506387Y-117560321D01*
X115506374Y-117560314D01*
X115376513Y-117506525D01*
X115366884Y-117502536D01*
X115312481Y-117458696D01*
X115290416Y-117392402D01*
X115292719Y-117363788D01*
X115295891Y-117347844D01*
X118450000Y-117347844D01*
X118456401Y-117407372D01*
X118456403Y-117407379D01*
X118506645Y-117542086D01*
X118506649Y-117542093D01*
X118592809Y-117657187D01*
X118592812Y-117657190D01*
X118707906Y-117743350D01*
X118707913Y-117743354D01*
X118842620Y-117793596D01*
X118842627Y-117793598D01*
X118902155Y-117799999D01*
X118902172Y-117800000D01*
X119850000Y-117800000D01*
X120350000Y-117800000D01*
X121297828Y-117800000D01*
X121297844Y-117799999D01*
X121357372Y-117793598D01*
X121357379Y-117793596D01*
X121492086Y-117743354D01*
X121492093Y-117743350D01*
X121607187Y-117657190D01*
X121607190Y-117657187D01*
X121693350Y-117542093D01*
X121693354Y-117542086D01*
X121743596Y-117407379D01*
X121743598Y-117407372D01*
X121749999Y-117347844D01*
X121750000Y-117347827D01*
X121750000Y-115950000D01*
X120350000Y-115950000D01*
X120350000Y-117800000D01*
X119850000Y-117800000D01*
X119850000Y-115950000D01*
X118450000Y-115950000D01*
X118450000Y-117347844D01*
X115295891Y-117347844D01*
X115300500Y-117324674D01*
X115300500Y-114075326D01*
X115300500Y-114075323D01*
X115300499Y-114075321D01*
X115295891Y-114052155D01*
X118450000Y-114052155D01*
X118450000Y-115450000D01*
X119850000Y-115450000D01*
X120350000Y-115450000D01*
X121750000Y-115450000D01*
X121750000Y-114052168D01*
X121749999Y-114052155D01*
X121743598Y-113992627D01*
X121743596Y-113992620D01*
X121693354Y-113857913D01*
X121693350Y-113857906D01*
X121607190Y-113742812D01*
X121607187Y-113742809D01*
X121492093Y-113656649D01*
X121492086Y-113656645D01*
X121357379Y-113606403D01*
X121357372Y-113606401D01*
X121297844Y-113600000D01*
X120350000Y-113600000D01*
X120350000Y-115450000D01*
X119850000Y-115450000D01*
X119850000Y-113600000D01*
X118902155Y-113600000D01*
X118842627Y-113606401D01*
X118842620Y-113606403D01*
X118707913Y-113656645D01*
X118707906Y-113656649D01*
X118592812Y-113742809D01*
X118592809Y-113742812D01*
X118506649Y-113857906D01*
X118506645Y-113857913D01*
X118456403Y-113992620D01*
X118456401Y-113992627D01*
X118450000Y-114052155D01*
X115295891Y-114052155D01*
X115285967Y-114002264D01*
X115285966Y-114002260D01*
X115230601Y-113919399D01*
X115147740Y-113864034D01*
X115147739Y-113864033D01*
X115147735Y-113864032D01*
X115074677Y-113849500D01*
X115074674Y-113849500D01*
X112725326Y-113849500D01*
X112725323Y-113849500D01*
X112652264Y-113864032D01*
X112652260Y-113864033D01*
X112568890Y-113919739D01*
X112502212Y-113940616D01*
X112434832Y-113922131D01*
X112431110Y-113919739D01*
X112347739Y-113864033D01*
X112347735Y-113864032D01*
X112274677Y-113849500D01*
X112274674Y-113849500D01*
X112099500Y-113849500D01*
X112032461Y-113829815D01*
X111986706Y-113777011D01*
X111975500Y-113725500D01*
X111975500Y-110674500D01*
X111995185Y-110607461D01*
X112047989Y-110561706D01*
X112099500Y-110550500D01*
X112274676Y-110550500D01*
X112274677Y-110550499D01*
X112347740Y-110535966D01*
X112430601Y-110480601D01*
X112430600Y-110480601D01*
X112431110Y-110480261D01*
X112497787Y-110459383D01*
X112565167Y-110477868D01*
X112568890Y-110480261D01*
X112652256Y-110535964D01*
X112652258Y-110535964D01*
X112652260Y-110535966D01*
X112652262Y-110535966D01*
X112652264Y-110535967D01*
X112725321Y-110550499D01*
X112725324Y-110550500D01*
X112725326Y-110550500D01*
X115074676Y-110550500D01*
X115074677Y-110550499D01*
X115147740Y-110535966D01*
X115230601Y-110480601D01*
X115285966Y-110397740D01*
X115295891Y-110347844D01*
X118450000Y-110347844D01*
X118456401Y-110407372D01*
X118456403Y-110407379D01*
X118506645Y-110542086D01*
X118506649Y-110542093D01*
X118592809Y-110657187D01*
X118592812Y-110657190D01*
X118707906Y-110743350D01*
X118707913Y-110743354D01*
X118842620Y-110793596D01*
X118842627Y-110793598D01*
X118902155Y-110799999D01*
X118902172Y-110800000D01*
X119850000Y-110800000D01*
X120350000Y-110800000D01*
X121297828Y-110800000D01*
X121297844Y-110799999D01*
X121357372Y-110793598D01*
X121357379Y-110793596D01*
X121492086Y-110743354D01*
X121492093Y-110743350D01*
X121607187Y-110657190D01*
X121607190Y-110657187D01*
X121693350Y-110542093D01*
X121693354Y-110542086D01*
X121743596Y-110407379D01*
X121743598Y-110407372D01*
X121749999Y-110347844D01*
X121750000Y-110347827D01*
X121750000Y-108950000D01*
X120350000Y-108950000D01*
X120350000Y-110800000D01*
X119850000Y-110800000D01*
X119850000Y-108950000D01*
X118450000Y-108950000D01*
X118450000Y-110347844D01*
X115295891Y-110347844D01*
X115300500Y-110324674D01*
X115300500Y-107075326D01*
X115300500Y-107075323D01*
X115300499Y-107075321D01*
X115295891Y-107052155D01*
X118450000Y-107052155D01*
X118450000Y-108450000D01*
X119850000Y-108450000D01*
X120350000Y-108450000D01*
X121750000Y-108450000D01*
X121750000Y-107052172D01*
X121749999Y-107052155D01*
X121743598Y-106992627D01*
X121743596Y-106992620D01*
X121693354Y-106857913D01*
X121693350Y-106857906D01*
X121607190Y-106742812D01*
X121607187Y-106742809D01*
X121492093Y-106656649D01*
X121492086Y-106656645D01*
X121357379Y-106606403D01*
X121357372Y-106606401D01*
X121297844Y-106600000D01*
X120350000Y-106600000D01*
X120350000Y-108450000D01*
X119850000Y-108450000D01*
X119850000Y-106600000D01*
X118902155Y-106600000D01*
X118842627Y-106606401D01*
X118842620Y-106606403D01*
X118707913Y-106656645D01*
X118707906Y-106656649D01*
X118592812Y-106742809D01*
X118592809Y-106742812D01*
X118506649Y-106857906D01*
X118506645Y-106857913D01*
X118456403Y-106992620D01*
X118456401Y-106992627D01*
X118450000Y-107052155D01*
X115295891Y-107052155D01*
X115285967Y-107002264D01*
X115285966Y-107002260D01*
X115284122Y-106999500D01*
X115230601Y-106919399D01*
X115147740Y-106864034D01*
X115147739Y-106864033D01*
X115147735Y-106864032D01*
X115074677Y-106849500D01*
X115074674Y-106849500D01*
X112725326Y-106849500D01*
X112725323Y-106849500D01*
X112652264Y-106864032D01*
X112652260Y-106864033D01*
X112568890Y-106919739D01*
X112502212Y-106940616D01*
X112434832Y-106922131D01*
X112431110Y-106919739D01*
X112347739Y-106864033D01*
X112347735Y-106864032D01*
X112274677Y-106849500D01*
X112274674Y-106849500D01*
X109925326Y-106849500D01*
X109925323Y-106849500D01*
X109852264Y-106864032D01*
X109852260Y-106864033D01*
X109769399Y-106919399D01*
X109714033Y-107002260D01*
X109714032Y-107002264D01*
X109699500Y-107075321D01*
X109699500Y-110324678D01*
X109714032Y-110397735D01*
X109714033Y-110397739D01*
X109714034Y-110397740D01*
X109769399Y-110480601D01*
X109852257Y-110535964D01*
X109852260Y-110535966D01*
X109852264Y-110535967D01*
X109925321Y-110550499D01*
X109925324Y-110550500D01*
X109925326Y-110550500D01*
X110100500Y-110550500D01*
X110167539Y-110570185D01*
X110213294Y-110622989D01*
X110224500Y-110674500D01*
X110224500Y-113725500D01*
X110204815Y-113792539D01*
X110152011Y-113838294D01*
X110100500Y-113849500D01*
X109925323Y-113849500D01*
X109852264Y-113864032D01*
X109852260Y-113864033D01*
X109769399Y-113919399D01*
X109714033Y-114002260D01*
X109714032Y-114002264D01*
X109699500Y-114075321D01*
X109699500Y-117324678D01*
X109714032Y-117397735D01*
X109714033Y-117397739D01*
X109714034Y-117397740D01*
X109769399Y-117480601D01*
X109835808Y-117524973D01*
X109852260Y-117535966D01*
X109852264Y-117535967D01*
X109925321Y-117550499D01*
X109925324Y-117550500D01*
X109925326Y-117550500D01*
X110588642Y-117550500D01*
X110655681Y-117570185D01*
X110676323Y-117586819D01*
X111857323Y-118767819D01*
X111890808Y-118829142D01*
X111885824Y-118898834D01*
X111843952Y-118954767D01*
X111778488Y-118979184D01*
X111769642Y-118979500D01*
X104378856Y-118979500D01*
X104289712Y-119003386D01*
X104289709Y-119003387D01*
X104209791Y-119049527D01*
X104209786Y-119049531D01*
X103287891Y-119971426D01*
X103226568Y-120004911D01*
X103156876Y-119999927D01*
X103100943Y-119958055D01*
X103076526Y-119892591D01*
X103081134Y-119849150D01*
X103112844Y-119740000D01*
X102174000Y-119740000D01*
X102106961Y-119720315D01*
X102061206Y-119667511D01*
X102050000Y-119616000D01*
X102050000Y-119240000D01*
X102550000Y-119240000D01*
X103112844Y-119240000D01*
X103072404Y-119100805D01*
X102990738Y-118962714D01*
X102990731Y-118962705D01*
X102877294Y-118849268D01*
X102877285Y-118849261D01*
X102739191Y-118767593D01*
X102739188Y-118767592D01*
X102585130Y-118722834D01*
X102550000Y-118720068D01*
X102550000Y-119240000D01*
X102050000Y-119240000D01*
X102050000Y-118720068D01*
X102049999Y-118720068D01*
X102014872Y-118722833D01*
X101949094Y-118741944D01*
X101879225Y-118741744D01*
X101820555Y-118703801D01*
X101791712Y-118640163D01*
X101790500Y-118622867D01*
X101790500Y-117824109D01*
X101790500Y-117824108D01*
X101784174Y-117800500D01*
X101756392Y-117696814D01*
X101744729Y-117676614D01*
X101737466Y-117664034D01*
X101690502Y-117582689D01*
X101690498Y-117582684D01*
X101536819Y-117429005D01*
X101503334Y-117367682D01*
X101501201Y-117347844D01*
X103250000Y-117347844D01*
X103256401Y-117407372D01*
X103256403Y-117407379D01*
X103306645Y-117542086D01*
X103306649Y-117542093D01*
X103392809Y-117657187D01*
X103392812Y-117657190D01*
X103507906Y-117743350D01*
X103507913Y-117743354D01*
X103642620Y-117793596D01*
X103642627Y-117793598D01*
X103702155Y-117799999D01*
X103702172Y-117800000D01*
X104650000Y-117800000D01*
X105150000Y-117800000D01*
X106097828Y-117800000D01*
X106097844Y-117799999D01*
X106157372Y-117793598D01*
X106157379Y-117793596D01*
X106292086Y-117743354D01*
X106292093Y-117743350D01*
X106407187Y-117657190D01*
X106407190Y-117657187D01*
X106493350Y-117542093D01*
X106493354Y-117542086D01*
X106543596Y-117407379D01*
X106543598Y-117407372D01*
X106549999Y-117347844D01*
X106550000Y-117347827D01*
X106550000Y-115950000D01*
X105150000Y-115950000D01*
X105150000Y-117800000D01*
X104650000Y-117800000D01*
X104650000Y-115950000D01*
X103250000Y-115950000D01*
X103250000Y-117347844D01*
X101501201Y-117347844D01*
X101500500Y-117341324D01*
X101500500Y-116525323D01*
X101500499Y-116525321D01*
X101485967Y-116452264D01*
X101485966Y-116452260D01*
X101477727Y-116439929D01*
X101430601Y-116369399D01*
X101347740Y-116314034D01*
X101347739Y-116314033D01*
X101347735Y-116314032D01*
X101274677Y-116299500D01*
X101274674Y-116299500D01*
X99625326Y-116299500D01*
X99625323Y-116299500D01*
X99552264Y-116314032D01*
X99552260Y-116314033D01*
X99469399Y-116369399D01*
X99414033Y-116452260D01*
X99414032Y-116452264D01*
X99399500Y-116525321D01*
X99399500Y-117574678D01*
X99414032Y-117647735D01*
X99414033Y-117647739D01*
X99419642Y-117656133D01*
X99469399Y-117730601D01*
X99552260Y-117785966D01*
X99552264Y-117785967D01*
X99625321Y-117800499D01*
X99625324Y-117800500D01*
X99625326Y-117800500D01*
X100441324Y-117800500D01*
X100508363Y-117820185D01*
X100529005Y-117836819D01*
X100753181Y-118060995D01*
X100786666Y-118122318D01*
X100789500Y-118148676D01*
X100789500Y-121056217D01*
X100780867Y-121093543D01*
X100783261Y-121094283D01*
X100780418Y-121103481D01*
X100780418Y-121103482D01*
X100769500Y-121178418D01*
X100769500Y-121621582D01*
X100779054Y-121687153D01*
X100780419Y-121696524D01*
X100783261Y-121705721D01*
X100780863Y-121706461D01*
X100789500Y-121743784D01*
X100789500Y-121785891D01*
X100795762Y-121809261D01*
X100823608Y-121913186D01*
X100839529Y-121940761D01*
X100889500Y-122027313D01*
X101369501Y-122507314D01*
X101462687Y-122600500D01*
X101576815Y-122666392D01*
X101704109Y-122700500D01*
X101704111Y-122700500D01*
X103365890Y-122700500D01*
X103365892Y-122700500D01*
X103493186Y-122666392D01*
X103607314Y-122600500D01*
X105479819Y-120727995D01*
X105541142Y-120694510D01*
X105610834Y-120699494D01*
X105666767Y-120741366D01*
X105691184Y-120806830D01*
X105691500Y-120815676D01*
X105691500Y-122261178D01*
X105706032Y-122334235D01*
X105706033Y-122334239D01*
X105718039Y-122352207D01*
X105761399Y-122417101D01*
X105835541Y-122466640D01*
X105844260Y-122472466D01*
X105844264Y-122472467D01*
X105917321Y-122486999D01*
X105917324Y-122487000D01*
X105917326Y-122487000D01*
X107236676Y-122487000D01*
X107236677Y-122486999D01*
X107309740Y-122472466D01*
X107309744Y-122472463D01*
X107321021Y-122467793D01*
X107321512Y-122468979D01*
X107375856Y-122451962D01*
X107443237Y-122470446D01*
X107475122Y-122498760D01*
X107803840Y-122912099D01*
X107820551Y-122933111D01*
X107846872Y-122997833D01*
X107847500Y-123010293D01*
X107847500Y-125786270D01*
X107827815Y-125853309D01*
X107775011Y-125899064D01*
X107705853Y-125909008D01*
X107642297Y-125879983D01*
X107635819Y-125873951D01*
X105031399Y-123269531D01*
X105031394Y-123269527D01*
X104951476Y-123223387D01*
X104951475Y-123223386D01*
X104951474Y-123223386D01*
X104862330Y-123199500D01*
X104862329Y-123199500D01*
X99520078Y-123199500D01*
X99453039Y-123179815D01*
X99407284Y-123127011D01*
X99397340Y-123057853D01*
X99405517Y-123028048D01*
X99419434Y-122994446D01*
X99435044Y-122956762D01*
X99451428Y-122832314D01*
X99455682Y-122800001D01*
X99455682Y-122799998D01*
X99435044Y-122643239D01*
X99435044Y-122643238D01*
X99374536Y-122497159D01*
X99287106Y-122383218D01*
X99261914Y-122318053D01*
X99275952Y-122249608D01*
X99297802Y-122220054D01*
X99308502Y-122209355D01*
X99365739Y-122097022D01*
X99365739Y-122097020D01*
X99365740Y-122097019D01*
X99380218Y-122005604D01*
X99380500Y-122003823D01*
X99380499Y-121596178D01*
X99365739Y-121502978D01*
X99308502Y-121390645D01*
X99308498Y-121390641D01*
X99308497Y-121390639D01*
X99219360Y-121301502D01*
X99219357Y-121301500D01*
X99219355Y-121301498D01*
X99107022Y-121244261D01*
X99107021Y-121244260D01*
X99107018Y-121244259D01*
X99107019Y-121244259D01*
X99013828Y-121229500D01*
X98656178Y-121229500D01*
X98567928Y-121243477D01*
X98562978Y-121244261D01*
X98450645Y-121301498D01*
X98450643Y-121301499D01*
X98441950Y-121305929D01*
X98440303Y-121302697D01*
X98391568Y-121320081D01*
X98323516Y-121304250D01*
X98274825Y-121254140D01*
X98260500Y-121196283D01*
X98260500Y-121166040D01*
X98280185Y-121099001D01*
X98296821Y-121078357D01*
X98313077Y-121062101D01*
X98313078Y-121062099D01*
X98349352Y-120987898D01*
X98369582Y-120946518D01*
X98380500Y-120871582D01*
X98380500Y-120428418D01*
X98369582Y-120353482D01*
X98361041Y-120336011D01*
X98313078Y-120237900D01*
X98313076Y-120237897D01*
X98222102Y-120146923D01*
X98222099Y-120146921D01*
X98106521Y-120090419D01*
X98106519Y-120090418D01*
X98106518Y-120090418D01*
X98031582Y-120079500D01*
X97688418Y-120079500D01*
X97613482Y-120090418D01*
X97613480Y-120090418D01*
X97613478Y-120090419D01*
X97497900Y-120146921D01*
X97497897Y-120146923D01*
X97437681Y-120207140D01*
X97376358Y-120240625D01*
X97306666Y-120235641D01*
X97262319Y-120207140D01*
X97202102Y-120146923D01*
X97202099Y-120146921D01*
X97086520Y-120090418D01*
X97086517Y-120090417D01*
X97012181Y-120079587D01*
X96948680Y-120050443D01*
X96942378Y-120044564D01*
X96436819Y-119539005D01*
X96403334Y-119477682D01*
X96400500Y-119451324D01*
X96400500Y-119233676D01*
X96420185Y-119166637D01*
X96436819Y-119145995D01*
X97490275Y-118092539D01*
X98550500Y-117032314D01*
X98600006Y-116946567D01*
X98616392Y-116918186D01*
X98650500Y-116790892D01*
X98650500Y-116174500D01*
X98670185Y-116107461D01*
X98722989Y-116061706D01*
X98774500Y-116050500D01*
X98974676Y-116050500D01*
X98974677Y-116050499D01*
X99047740Y-116035966D01*
X99130601Y-115980601D01*
X99185966Y-115897740D01*
X99200500Y-115824674D01*
X99200500Y-114775326D01*
X99200500Y-114775323D01*
X99200499Y-114775321D01*
X99185967Y-114702264D01*
X99185966Y-114702260D01*
X99166956Y-114673809D01*
X99130601Y-114619399D01*
X99047740Y-114564034D01*
X99047739Y-114564033D01*
X99047735Y-114564032D01*
X98974677Y-114549500D01*
X98974674Y-114549500D01*
X98774500Y-114549500D01*
X98707461Y-114529815D01*
X98661706Y-114477011D01*
X98650500Y-114425500D01*
X98650500Y-109958676D01*
X98670185Y-109891637D01*
X98686819Y-109870995D01*
X99170995Y-109386819D01*
X99232318Y-109353334D01*
X99258676Y-109350500D01*
X99924676Y-109350500D01*
X99924677Y-109350499D01*
X99997740Y-109335966D01*
X100080601Y-109280601D01*
X100135966Y-109197740D01*
X100150500Y-109124674D01*
X100150500Y-107075326D01*
X100150500Y-107075323D01*
X100150499Y-107075321D01*
X100135967Y-107002264D01*
X100135966Y-107002260D01*
X100134122Y-106999500D01*
X100080601Y-106919399D01*
X99997740Y-106864034D01*
X99997739Y-106864033D01*
X99997735Y-106864032D01*
X99924677Y-106849500D01*
X99924674Y-106849500D01*
X97875326Y-106849500D01*
X97875323Y-106849500D01*
X97802264Y-106864032D01*
X97802260Y-106864033D01*
X97719399Y-106919399D01*
X97664033Y-107002260D01*
X97664032Y-107002264D01*
X97649500Y-107075321D01*
X97649500Y-109124678D01*
X97664032Y-109197735D01*
X97664033Y-109197739D01*
X97664034Y-109197740D01*
X97719399Y-109280601D01*
X97719400Y-109280601D01*
X97726185Y-109290756D01*
X97722890Y-109292957D01*
X97745712Y-109334752D01*
X97740728Y-109404444D01*
X97731934Y-109423109D01*
X97683608Y-109506812D01*
X97649500Y-109634108D01*
X97649500Y-114425500D01*
X97629815Y-114492539D01*
X97577011Y-114538294D01*
X97525500Y-114549500D01*
X97474500Y-114549500D01*
X97407461Y-114529815D01*
X97361706Y-114477011D01*
X97350500Y-114425500D01*
X97350500Y-106896544D01*
X97370185Y-106829505D01*
X97386819Y-106808863D01*
X97608863Y-106586819D01*
X97670186Y-106553334D01*
X97696544Y-106550500D01*
X100513893Y-106550500D01*
X100580932Y-106570185D01*
X100626687Y-106622989D01*
X100636631Y-106692147D01*
X100633668Y-106706594D01*
X100633609Y-106706810D01*
X100633608Y-106706814D01*
X100599500Y-106834108D01*
X100599500Y-106834110D01*
X100599500Y-112641324D01*
X100579815Y-112708363D01*
X100563181Y-112729005D01*
X100529005Y-112763181D01*
X100467682Y-112796666D01*
X100441324Y-112799500D01*
X99625323Y-112799500D01*
X99552264Y-112814032D01*
X99552260Y-112814033D01*
X99469399Y-112869399D01*
X99414033Y-112952260D01*
X99414032Y-112952264D01*
X99399500Y-113025321D01*
X99399500Y-114074678D01*
X99414032Y-114147735D01*
X99414033Y-114147739D01*
X99414034Y-114147740D01*
X99469399Y-114230601D01*
X99552260Y-114285966D01*
X99552264Y-114285967D01*
X99625321Y-114300499D01*
X99625324Y-114300500D01*
X99625326Y-114300500D01*
X101274676Y-114300500D01*
X101274677Y-114300499D01*
X101347740Y-114285966D01*
X101430601Y-114230601D01*
X101485966Y-114147740D01*
X101500500Y-114074674D01*
X101500500Y-114052155D01*
X103250000Y-114052155D01*
X103250000Y-115450000D01*
X104650000Y-115450000D01*
X105150000Y-115450000D01*
X106550000Y-115450000D01*
X106550000Y-114052168D01*
X106549999Y-114052155D01*
X106543598Y-113992627D01*
X106543596Y-113992620D01*
X106493354Y-113857913D01*
X106493350Y-113857906D01*
X106407190Y-113742812D01*
X106407187Y-113742809D01*
X106292093Y-113656649D01*
X106292086Y-113656645D01*
X106157379Y-113606403D01*
X106157372Y-113606401D01*
X106097844Y-113600000D01*
X105150000Y-113600000D01*
X105150000Y-115450000D01*
X104650000Y-115450000D01*
X104650000Y-113600000D01*
X103702155Y-113600000D01*
X103642627Y-113606401D01*
X103642620Y-113606403D01*
X103507913Y-113656645D01*
X103507906Y-113656649D01*
X103392812Y-113742809D01*
X103392809Y-113742812D01*
X103306649Y-113857906D01*
X103306645Y-113857913D01*
X103256403Y-113992620D01*
X103256401Y-113992627D01*
X103250000Y-114052155D01*
X101500500Y-114052155D01*
X101500500Y-113240539D01*
X101517112Y-113178540D01*
X101566392Y-113093186D01*
X101600500Y-112965892D01*
X101600500Y-112834107D01*
X101600500Y-110347844D01*
X103250000Y-110347844D01*
X103256401Y-110407372D01*
X103256403Y-110407379D01*
X103306645Y-110542086D01*
X103306649Y-110542093D01*
X103392809Y-110657187D01*
X103392812Y-110657190D01*
X103507906Y-110743350D01*
X103507913Y-110743354D01*
X103642620Y-110793596D01*
X103642627Y-110793598D01*
X103702155Y-110799999D01*
X103702172Y-110800000D01*
X104650000Y-110800000D01*
X105150000Y-110800000D01*
X106097828Y-110800000D01*
X106097844Y-110799999D01*
X106157372Y-110793598D01*
X106157379Y-110793596D01*
X106292086Y-110743354D01*
X106292093Y-110743350D01*
X106407187Y-110657190D01*
X106407190Y-110657187D01*
X106493350Y-110542093D01*
X106493354Y-110542086D01*
X106543596Y-110407379D01*
X106543598Y-110407372D01*
X106549999Y-110347844D01*
X106550000Y-110347827D01*
X106550000Y-108950000D01*
X105150000Y-108950000D01*
X105150000Y-110800000D01*
X104650000Y-110800000D01*
X104650000Y-108950000D01*
X103250000Y-108950000D01*
X103250000Y-110347844D01*
X101600500Y-110347844D01*
X101600500Y-107158676D01*
X101620185Y-107091637D01*
X101636819Y-107070995D01*
X101655659Y-107052155D01*
X103250000Y-107052155D01*
X103250000Y-108450000D01*
X104650000Y-108450000D01*
X105150000Y-108450000D01*
X106550000Y-108450000D01*
X106550000Y-107052172D01*
X106549999Y-107052155D01*
X106543598Y-106992627D01*
X106543596Y-106992620D01*
X106493354Y-106857913D01*
X106493350Y-106857906D01*
X106407190Y-106742812D01*
X106407187Y-106742809D01*
X106292093Y-106656649D01*
X106292086Y-106656645D01*
X106157379Y-106606403D01*
X106157372Y-106606401D01*
X106097844Y-106600000D01*
X105150000Y-106600000D01*
X105150000Y-108450000D01*
X104650000Y-108450000D01*
X104650000Y-106600000D01*
X103702155Y-106600000D01*
X103642627Y-106606401D01*
X103642620Y-106606403D01*
X103507913Y-106656645D01*
X103507906Y-106656649D01*
X103392812Y-106742809D01*
X103392809Y-106742812D01*
X103306649Y-106857906D01*
X103306645Y-106857913D01*
X103256403Y-106992620D01*
X103256401Y-106992627D01*
X103250000Y-107052155D01*
X101655659Y-107052155D01*
X103270995Y-105436819D01*
X103332318Y-105403334D01*
X103358676Y-105400500D01*
X110465890Y-105400500D01*
X110465892Y-105400500D01*
X110593186Y-105366392D01*
X110707314Y-105300500D01*
X113020500Y-102987314D01*
X113086392Y-102873186D01*
X113120500Y-102745893D01*
X113120500Y-102614108D01*
X113120500Y-102284118D01*
X113128951Y-102239125D01*
X113222064Y-101999999D01*
X113639233Y-100928649D01*
X113639234Y-100928643D01*
X113640416Y-100924470D01*
X113648728Y-100902972D01*
X113650582Y-100899250D01*
X113706397Y-100703083D01*
X113725215Y-100500000D01*
X115795065Y-100500000D01*
X115814786Y-100826038D01*
X115873667Y-101147341D01*
X115970835Y-101459164D01*
X115970839Y-101459175D01*
X116104897Y-101757041D01*
X116104898Y-101757043D01*
X116273881Y-102036576D01*
X116421476Y-102224968D01*
X117563708Y-101082736D01*
X117660967Y-101216602D01*
X117783398Y-101339033D01*
X117917262Y-101436290D01*
X116775030Y-102578522D01*
X116775030Y-102578523D01*
X116963423Y-102726118D01*
X117242956Y-102895101D01*
X117242958Y-102895102D01*
X117540824Y-103029160D01*
X117540835Y-103029164D01*
X117852658Y-103126332D01*
X118173961Y-103185213D01*
X118500000Y-103204934D01*
X118826038Y-103185213D01*
X119147341Y-103126332D01*
X119459164Y-103029164D01*
X119459175Y-103029160D01*
X119757041Y-102895102D01*
X119757043Y-102895101D01*
X120036586Y-102726112D01*
X120224968Y-102578523D01*
X120224968Y-102578522D01*
X119082737Y-101436290D01*
X119216602Y-101339033D01*
X119339033Y-101216602D01*
X119436290Y-101082737D01*
X120578522Y-102224968D01*
X120578523Y-102224968D01*
X120726112Y-102036586D01*
X120895101Y-101757043D01*
X120895102Y-101757041D01*
X121029160Y-101459175D01*
X121029164Y-101459164D01*
X121126332Y-101147341D01*
X121185213Y-100826038D01*
X121204934Y-100500000D01*
X121185213Y-100173961D01*
X121126332Y-99852658D01*
X121029164Y-99540835D01*
X121029160Y-99540824D01*
X120895102Y-99242958D01*
X120895101Y-99242956D01*
X120726118Y-98963423D01*
X120578522Y-98775030D01*
X119436290Y-99917262D01*
X119339033Y-99783398D01*
X119216602Y-99660967D01*
X119082736Y-99563709D01*
X120224968Y-98421476D01*
X120036576Y-98273881D01*
X119757043Y-98104898D01*
X119757041Y-98104897D01*
X119459175Y-97970839D01*
X119459164Y-97970835D01*
X119147341Y-97873667D01*
X118826038Y-97814786D01*
X118500000Y-97795065D01*
X118173961Y-97814786D01*
X117852658Y-97873667D01*
X117540835Y-97970835D01*
X117540824Y-97970839D01*
X117242958Y-98104897D01*
X117242956Y-98104898D01*
X116963422Y-98273881D01*
X116963416Y-98273886D01*
X116775030Y-98421474D01*
X116775029Y-98421476D01*
X117917262Y-99563709D01*
X117783398Y-99660967D01*
X117660967Y-99783398D01*
X117563709Y-99917262D01*
X116421476Y-98775029D01*
X116421474Y-98775030D01*
X116273886Y-98963416D01*
X116273881Y-98963422D01*
X116104898Y-99242956D01*
X116104897Y-99242958D01*
X115970839Y-99540824D01*
X115970835Y-99540835D01*
X115873667Y-99852658D01*
X115814786Y-100173961D01*
X115795065Y-100500000D01*
X113725215Y-100500000D01*
X113719115Y-100434174D01*
X113706397Y-100296917D01*
X113684292Y-100219226D01*
X113650582Y-100100750D01*
X113650159Y-100099901D01*
X113562310Y-99923475D01*
X113559673Y-99918179D01*
X113436764Y-99755421D01*
X113436762Y-99755418D01*
X113286041Y-99618019D01*
X113286039Y-99618017D01*
X113112642Y-99510655D01*
X113112635Y-99510651D01*
X113017546Y-99473814D01*
X112922456Y-99436976D01*
X112721976Y-99399500D01*
X112518024Y-99399500D01*
X112317544Y-99436976D01*
X112317541Y-99436976D01*
X112317541Y-99436977D01*
X112127364Y-99510651D01*
X112127357Y-99510655D01*
X111953960Y-99618017D01*
X111953958Y-99618019D01*
X111803237Y-99755418D01*
X111680327Y-99918178D01*
X111589422Y-100100739D01*
X111589417Y-100100752D01*
X111533602Y-100296917D01*
X111514785Y-100499999D01*
X111514785Y-100500000D01*
X111533602Y-100703082D01*
X111589417Y-100899247D01*
X111589423Y-100899261D01*
X111591299Y-100903029D01*
X111599699Y-100924842D01*
X111600765Y-100928648D01*
X111874121Y-101630662D01*
X112043594Y-102065893D01*
X112111049Y-102239125D01*
X112119500Y-102284118D01*
X112119500Y-102421324D01*
X112099815Y-102488363D01*
X112083181Y-102509005D01*
X110229005Y-104363181D01*
X110167682Y-104396666D01*
X110141324Y-104399500D01*
X109495544Y-104399500D01*
X109428505Y-104379815D01*
X109382750Y-104327011D01*
X109372806Y-104257853D01*
X109401831Y-104194297D01*
X109407863Y-104187819D01*
X109872296Y-103723386D01*
X110360470Y-103235212D01*
X110406614Y-103155288D01*
X110430500Y-103066143D01*
X110430500Y-102973856D01*
X110430500Y-102299375D01*
X110443525Y-102244054D01*
X110445982Y-102239125D01*
X111088369Y-100950486D01*
X111092097Y-100942679D01*
X111092431Y-100941948D01*
X111095993Y-100933779D01*
X111095995Y-100933764D01*
X111097502Y-100928971D01*
X111104805Y-100910850D01*
X111110582Y-100899250D01*
X111166397Y-100703083D01*
X111185215Y-100500000D01*
X111179115Y-100434174D01*
X111166397Y-100296917D01*
X111144292Y-100219226D01*
X111110582Y-100100750D01*
X111110159Y-100099901D01*
X111022310Y-99923475D01*
X111019673Y-99918179D01*
X110896764Y-99755421D01*
X110896762Y-99755418D01*
X110746041Y-99618019D01*
X110746039Y-99618017D01*
X110572642Y-99510655D01*
X110572635Y-99510651D01*
X110477546Y-99473814D01*
X110382456Y-99436976D01*
X110181976Y-99399500D01*
X109978024Y-99399500D01*
X109777544Y-99436976D01*
X109777541Y-99436976D01*
X109777541Y-99436977D01*
X109587364Y-99510651D01*
X109587357Y-99510655D01*
X109413960Y-99618017D01*
X109413958Y-99618019D01*
X109263237Y-99755418D01*
X109140327Y-99918178D01*
X109049422Y-100100739D01*
X109049417Y-100100752D01*
X108993602Y-100296917D01*
X108974785Y-100499999D01*
X108974785Y-100500000D01*
X108993602Y-100703082D01*
X108993603Y-100703084D01*
X109049413Y-100899238D01*
X109049420Y-100899254D01*
X109062208Y-100924937D01*
X109070842Y-100947597D01*
X109071629Y-100950484D01*
X109071632Y-100950492D01*
X109473562Y-101756768D01*
X109706960Y-102224968D01*
X109716475Y-102244054D01*
X109729500Y-102299375D01*
X109729500Y-102823456D01*
X109709815Y-102890495D01*
X109693181Y-102911137D01*
X108591137Y-104013181D01*
X108529814Y-104046666D01*
X108503456Y-104049500D01*
X107345544Y-104049500D01*
X107278505Y-104029815D01*
X107232750Y-103977011D01*
X107222806Y-103907853D01*
X107251831Y-103844297D01*
X107257863Y-103837819D01*
X107396182Y-103699500D01*
X107820469Y-103275212D01*
X107866614Y-103195288D01*
X107866615Y-103195285D01*
X107870576Y-103180502D01*
X107870576Y-103180500D01*
X107877331Y-103155290D01*
X107890500Y-103106144D01*
X107890500Y-102299375D01*
X107903525Y-102244054D01*
X107905982Y-102239125D01*
X108548369Y-100950486D01*
X108552097Y-100942679D01*
X108552431Y-100941948D01*
X108555993Y-100933779D01*
X108555995Y-100933764D01*
X108557502Y-100928971D01*
X108564805Y-100910850D01*
X108570582Y-100899250D01*
X108626397Y-100703083D01*
X108645215Y-100500000D01*
X108639115Y-100434174D01*
X108626397Y-100296917D01*
X108604292Y-100219226D01*
X108570582Y-100100750D01*
X108570159Y-100099901D01*
X108482310Y-99923475D01*
X108479673Y-99918179D01*
X108356764Y-99755421D01*
X108356762Y-99755418D01*
X108206041Y-99618019D01*
X108206039Y-99618017D01*
X108032642Y-99510655D01*
X108032635Y-99510651D01*
X107937546Y-99473814D01*
X107842456Y-99436976D01*
X107641976Y-99399500D01*
X107438024Y-99399500D01*
X107237544Y-99436976D01*
X107237541Y-99436976D01*
X107237541Y-99436977D01*
X107047364Y-99510651D01*
X107047357Y-99510655D01*
X106873960Y-99618017D01*
X106873958Y-99618019D01*
X106723237Y-99755418D01*
X106600328Y-99918176D01*
X106585000Y-99948960D01*
X106537496Y-100000196D01*
X106469833Y-100017617D01*
X106403493Y-99995691D01*
X106359538Y-99941379D01*
X106350000Y-99893687D01*
X106350000Y-99602172D01*
X106349999Y-99602155D01*
X106343598Y-99542627D01*
X106343596Y-99542620D01*
X106293354Y-99407913D01*
X106293350Y-99407906D01*
X106207190Y-99292812D01*
X106207187Y-99292809D01*
X106092093Y-99206649D01*
X106092086Y-99206645D01*
X105957379Y-99156403D01*
X105957372Y-99156401D01*
X105897844Y-99150000D01*
X105250000Y-99150000D01*
X105250000Y-100066988D01*
X105192993Y-100034075D01*
X105065826Y-100000000D01*
X104934174Y-100000000D01*
X104807007Y-100034075D01*
X104750000Y-100066988D01*
X104750000Y-99150000D01*
X104102155Y-99150000D01*
X104042627Y-99156401D01*
X104042620Y-99156403D01*
X103907913Y-99206645D01*
X103907906Y-99206649D01*
X103792812Y-99292809D01*
X103792809Y-99292812D01*
X103706649Y-99407906D01*
X103706645Y-99407913D01*
X103656403Y-99542620D01*
X103656401Y-99542627D01*
X103650000Y-99602155D01*
X103650000Y-100250000D01*
X104566988Y-100250000D01*
X104534075Y-100307007D01*
X104500000Y-100434174D01*
X104500000Y-100565826D01*
X104534075Y-100692993D01*
X104566988Y-100750000D01*
X103650000Y-100750000D01*
X103650000Y-101397844D01*
X103656401Y-101457372D01*
X103656403Y-101457379D01*
X103706645Y-101592086D01*
X103706649Y-101592093D01*
X103792809Y-101707187D01*
X103792812Y-101707190D01*
X103907906Y-101793350D01*
X103907913Y-101793354D01*
X104042620Y-101843596D01*
X104042627Y-101843598D01*
X104102155Y-101849999D01*
X104102172Y-101850000D01*
X104750000Y-101850000D01*
X104750000Y-100933012D01*
X104807007Y-100965925D01*
X104934174Y-101000000D01*
X105065826Y-101000000D01*
X105192993Y-100965925D01*
X105250000Y-100933012D01*
X105250000Y-101850000D01*
X105897828Y-101850000D01*
X105897844Y-101849999D01*
X105957372Y-101843598D01*
X105957379Y-101843596D01*
X106092086Y-101793354D01*
X106092093Y-101793350D01*
X106207187Y-101707190D01*
X106207190Y-101707187D01*
X106293350Y-101592093D01*
X106293354Y-101592086D01*
X106343596Y-101457379D01*
X106343598Y-101457372D01*
X106349999Y-101397844D01*
X106350000Y-101397827D01*
X106350000Y-101112820D01*
X106369685Y-101045781D01*
X106422489Y-101000026D01*
X106491647Y-100990082D01*
X106555203Y-101019107D01*
X106584975Y-101057499D01*
X106933562Y-101756768D01*
X107166960Y-102224968D01*
X107176475Y-102244054D01*
X107189500Y-102299375D01*
X107189500Y-102863456D01*
X107169815Y-102930495D01*
X107153181Y-102951137D01*
X106441137Y-103663181D01*
X106379814Y-103696666D01*
X106353456Y-103699500D01*
X102701776Y-103699500D01*
X102612632Y-103723386D01*
X102612631Y-103723386D01*
X102612629Y-103723387D01*
X102612626Y-103723388D01*
X102532714Y-103769526D01*
X102532705Y-103769533D01*
X100839057Y-105463181D01*
X100777734Y-105496666D01*
X100751376Y-105499500D01*
X97308882Y-105499500D01*
X97219738Y-105523386D01*
X97219737Y-105523386D01*
X97219735Y-105523387D01*
X97219732Y-105523388D01*
X97139820Y-105569526D01*
X97139811Y-105569533D01*
X96431681Y-106277663D01*
X96370358Y-106311148D01*
X96300666Y-106306164D01*
X96244733Y-106264292D01*
X96220316Y-106198828D01*
X96220000Y-106189982D01*
X96220000Y-106062172D01*
X96219999Y-106062155D01*
X96213598Y-106002627D01*
X96213596Y-106002620D01*
X96163354Y-105867913D01*
X96163350Y-105867906D01*
X96077190Y-105752812D01*
X96077187Y-105752809D01*
X95962093Y-105666649D01*
X95962086Y-105666645D01*
X95827379Y-105616403D01*
X95827372Y-105616401D01*
X95767844Y-105610000D01*
X94970000Y-105610000D01*
X94970000Y-108610000D01*
X95767828Y-108610000D01*
X95767844Y-108609999D01*
X95827372Y-108603598D01*
X95827379Y-108603596D01*
X95962086Y-108553354D01*
X95962093Y-108553350D01*
X96077187Y-108467190D01*
X96083460Y-108460918D01*
X96084682Y-108462140D01*
X96132166Y-108426594D01*
X96201858Y-108421610D01*
X96263181Y-108455094D01*
X96296666Y-108516417D01*
X96299500Y-108542776D01*
X96299500Y-116158482D01*
X96279815Y-116225521D01*
X96263181Y-116246163D01*
X92819532Y-119689811D01*
X92819527Y-119689817D01*
X92806886Y-119711713D01*
X92756318Y-119759928D01*
X92687711Y-119773149D01*
X92622846Y-119747180D01*
X92582319Y-119690265D01*
X92575500Y-119649711D01*
X92575500Y-119328858D01*
X92575500Y-119328856D01*
X92551614Y-119239712D01*
X92542605Y-119224108D01*
X92505470Y-119159788D01*
X91765212Y-118419530D01*
X91765211Y-118419529D01*
X91765208Y-118419527D01*
X91685290Y-118373387D01*
X91685289Y-118373386D01*
X91685288Y-118373386D01*
X91596144Y-118349500D01*
X91596143Y-118349500D01*
X89755898Y-118349500D01*
X89688859Y-118329815D01*
X89643104Y-118277011D01*
X89633160Y-118207853D01*
X89657523Y-118150013D01*
X89674535Y-118127842D01*
X89674534Y-118127842D01*
X89674536Y-118127841D01*
X89735044Y-117981762D01*
X89755682Y-117825000D01*
X89755564Y-117824107D01*
X89735044Y-117668239D01*
X89735044Y-117668238D01*
X89674536Y-117522159D01*
X89578282Y-117396718D01*
X89452841Y-117300464D01*
X89306762Y-117239956D01*
X89306760Y-117239955D01*
X89150001Y-117219318D01*
X89149999Y-117219318D01*
X88993239Y-117239955D01*
X88993237Y-117239956D01*
X88847157Y-117300464D01*
X88764449Y-117363929D01*
X88699280Y-117389123D01*
X88630835Y-117375085D01*
X88601282Y-117353234D01*
X87781411Y-116533363D01*
X87673046Y-116424998D01*
X90794318Y-116424998D01*
X90794318Y-116425001D01*
X90814955Y-116581760D01*
X90814956Y-116581762D01*
X90869391Y-116713181D01*
X90875464Y-116727841D01*
X90971718Y-116853282D01*
X91097159Y-116949536D01*
X91243238Y-117010044D01*
X91395709Y-117030117D01*
X91459606Y-117058383D01*
X91498077Y-117116708D01*
X91502463Y-117136870D01*
X91514956Y-117231761D01*
X91514956Y-117231762D01*
X91569640Y-117363782D01*
X91575464Y-117377841D01*
X91671718Y-117503282D01*
X91797159Y-117599536D01*
X91943238Y-117660044D01*
X92005478Y-117668238D01*
X92099999Y-117680682D01*
X92100000Y-117680682D01*
X92100001Y-117680682D01*
X92194514Y-117668239D01*
X92256762Y-117660044D01*
X92402841Y-117599536D01*
X92528282Y-117503282D01*
X92550741Y-117474011D01*
X92607168Y-117432811D01*
X92649116Y-117425500D01*
X93711142Y-117425500D01*
X93711144Y-117425500D01*
X93800288Y-117401614D01*
X93821270Y-117389500D01*
X93880212Y-117355470D01*
X95080469Y-116155212D01*
X95126614Y-116075288D01*
X95129132Y-116065892D01*
X95150500Y-115986144D01*
X95150500Y-115599500D01*
X95170185Y-115532461D01*
X95222989Y-115486706D01*
X95274500Y-115475500D01*
X95574676Y-115475500D01*
X95574677Y-115475499D01*
X95647740Y-115460966D01*
X95730601Y-115405601D01*
X95785966Y-115322740D01*
X95800500Y-115249674D01*
X95800500Y-113700326D01*
X95800500Y-113700323D01*
X95800499Y-113700321D01*
X95785967Y-113627264D01*
X95785966Y-113627260D01*
X95772030Y-113606403D01*
X95730601Y-113544399D01*
X95675235Y-113507405D01*
X95647739Y-113489033D01*
X95647735Y-113489032D01*
X95574677Y-113474500D01*
X95574674Y-113474500D01*
X94025326Y-113474500D01*
X94025323Y-113474500D01*
X93952264Y-113489032D01*
X93952260Y-113489033D01*
X93869399Y-113544399D01*
X93814033Y-113627260D01*
X93814032Y-113627264D01*
X93799500Y-113700321D01*
X93799500Y-115249678D01*
X93814032Y-115322735D01*
X93814033Y-115322739D01*
X93814034Y-115322740D01*
X93869399Y-115405601D01*
X93935848Y-115450000D01*
X93952260Y-115460966D01*
X93952264Y-115460967D01*
X94025321Y-115475499D01*
X94025324Y-115475500D01*
X94025326Y-115475500D01*
X94325500Y-115475500D01*
X94392539Y-115495185D01*
X94438294Y-115547989D01*
X94449500Y-115599500D01*
X94449500Y-115743456D01*
X94429815Y-115810495D01*
X94413181Y-115831137D01*
X93556137Y-116688181D01*
X93494814Y-116721666D01*
X93468456Y-116724500D01*
X93170544Y-116724500D01*
X93103505Y-116704815D01*
X93057750Y-116652011D01*
X93047806Y-116582853D01*
X93076831Y-116519297D01*
X93082863Y-116512819D01*
X93281650Y-116314032D01*
X93480470Y-116115212D01*
X93526614Y-116035288D01*
X93528456Y-116028412D01*
X93550500Y-115946144D01*
X93550500Y-113546544D01*
X93570185Y-113479505D01*
X93586819Y-113458863D01*
X94258863Y-112786819D01*
X94320186Y-112753334D01*
X94346544Y-112750500D01*
X95574676Y-112750500D01*
X95574677Y-112750499D01*
X95647740Y-112735966D01*
X95730601Y-112680601D01*
X95785966Y-112597740D01*
X95800500Y-112524674D01*
X95800500Y-110975326D01*
X95800500Y-110975323D01*
X95800499Y-110975321D01*
X95785967Y-110902264D01*
X95785966Y-110902260D01*
X95767448Y-110874546D01*
X95730601Y-110819399D01*
X95675235Y-110782405D01*
X95647739Y-110764033D01*
X95647735Y-110764032D01*
X95574677Y-110749500D01*
X95574674Y-110749500D01*
X94025326Y-110749500D01*
X94025323Y-110749500D01*
X93952264Y-110764032D01*
X93952260Y-110764033D01*
X93869399Y-110819399D01*
X93814033Y-110902260D01*
X93814032Y-110902264D01*
X93799500Y-110975321D01*
X93799500Y-112203456D01*
X93779815Y-112270495D01*
X93763181Y-112291137D01*
X92919531Y-113134786D01*
X92919527Y-113134791D01*
X92880603Y-113202211D01*
X92880603Y-113202212D01*
X92873386Y-113214710D01*
X92849500Y-113303856D01*
X92849500Y-115703456D01*
X92829815Y-115770495D01*
X92813181Y-115791137D01*
X92566137Y-116038181D01*
X92504814Y-116071666D01*
X92478456Y-116074500D01*
X91949116Y-116074500D01*
X91882077Y-116054815D01*
X91850742Y-116025989D01*
X91828282Y-115996718D01*
X91702841Y-115900464D01*
X91696262Y-115897739D01*
X91556762Y-115839956D01*
X91556760Y-115839955D01*
X91400001Y-115819318D01*
X91399999Y-115819318D01*
X91243239Y-115839955D01*
X91243237Y-115839956D01*
X91097160Y-115900463D01*
X90971718Y-115996718D01*
X90875463Y-116122160D01*
X90814956Y-116268237D01*
X90814955Y-116268239D01*
X90794318Y-116424998D01*
X87673046Y-116424998D01*
X86911819Y-115663770D01*
X86878334Y-115602447D01*
X86875500Y-115576089D01*
X86875500Y-115350000D01*
X87441210Y-115350000D01*
X87442854Y-115370910D01*
X87487968Y-115526195D01*
X87570278Y-115665374D01*
X87570285Y-115665383D01*
X87684616Y-115779714D01*
X87684625Y-115779721D01*
X87823804Y-115862031D01*
X87970000Y-115904504D01*
X87970000Y-115350000D01*
X87441210Y-115350000D01*
X86875500Y-115350000D01*
X86875500Y-114849999D01*
X87441209Y-114849999D01*
X87441210Y-114850000D01*
X87970000Y-114850000D01*
X87970000Y-114295494D01*
X87969998Y-114295493D01*
X87823809Y-114337965D01*
X87823806Y-114337967D01*
X87684625Y-114420278D01*
X87684616Y-114420285D01*
X87570285Y-114534616D01*
X87570278Y-114534625D01*
X87487968Y-114673804D01*
X87487966Y-114673809D01*
X87442855Y-114829081D01*
X87442854Y-114829087D01*
X87441209Y-114849999D01*
X86875500Y-114849999D01*
X86875500Y-113973615D01*
X86895185Y-113906576D01*
X86947989Y-113860821D01*
X87017147Y-113850877D01*
X87080703Y-113879902D01*
X87088828Y-113888629D01*
X87089040Y-113888418D01*
X87095312Y-113894690D01*
X87210406Y-113980850D01*
X87210413Y-113980854D01*
X87345120Y-114031096D01*
X87345127Y-114031098D01*
X87404655Y-114037499D01*
X87404672Y-114037500D01*
X87777500Y-114037500D01*
X87777500Y-112711500D01*
X87797185Y-112644461D01*
X87849989Y-112598706D01*
X87901500Y-112587500D01*
X88153500Y-112587500D01*
X88220539Y-112607185D01*
X88266294Y-112659989D01*
X88277500Y-112711500D01*
X88277500Y-114037500D01*
X88441941Y-114037500D01*
X88447448Y-114039117D01*
X88452896Y-114037501D01*
X88453250Y-114037500D01*
X88650328Y-114037500D01*
X88650344Y-114037499D01*
X88709872Y-114031098D01*
X88709879Y-114031096D01*
X88844586Y-113980854D01*
X88844593Y-113980850D01*
X88959685Y-113894691D01*
X88959690Y-113894686D01*
X89001233Y-113839193D01*
X89057167Y-113797322D01*
X89126858Y-113792338D01*
X89188181Y-113825823D01*
X89221666Y-113887146D01*
X89224500Y-113913504D01*
X89224500Y-114415500D01*
X89204815Y-114482539D01*
X89152011Y-114528294D01*
X89100501Y-114539500D01*
X89009266Y-114539500D01*
X88955413Y-114548030D01*
X88886119Y-114539074D01*
X88848335Y-114513237D01*
X88755383Y-114420285D01*
X88755374Y-114420278D01*
X88616193Y-114337967D01*
X88616190Y-114337965D01*
X88470000Y-114295493D01*
X88470000Y-115904503D01*
X88616195Y-115862031D01*
X88755374Y-115779721D01*
X88755379Y-115779717D01*
X88848333Y-115686763D01*
X88909656Y-115653278D01*
X88955410Y-115651970D01*
X89009265Y-115660500D01*
X89350734Y-115660499D01*
X89350739Y-115660499D01*
X89350739Y-115660498D01*
X89404587Y-115651970D01*
X89442170Y-115646018D01*
X89442171Y-115646018D01*
X89442172Y-115646017D01*
X89442175Y-115646017D01*
X89552391Y-115589859D01*
X89639859Y-115502391D01*
X89696017Y-115392175D01*
X89696017Y-115392173D01*
X89696018Y-115392172D01*
X89696018Y-115392171D01*
X89702697Y-115350000D01*
X89710500Y-115300735D01*
X89710499Y-115187253D01*
X89730183Y-115120215D01*
X89746809Y-115099583D01*
X89945480Y-114900913D01*
X89998207Y-114809588D01*
X90025500Y-114707727D01*
X90025500Y-114602273D01*
X90025500Y-113912000D01*
X90045185Y-113844961D01*
X90097989Y-113799206D01*
X90149500Y-113788000D01*
X90227176Y-113788000D01*
X90227177Y-113787999D01*
X90300240Y-113773466D01*
X90383101Y-113718101D01*
X90438466Y-113635240D01*
X90453000Y-113562174D01*
X90453000Y-112112826D01*
X90453000Y-112112823D01*
X90452999Y-112112821D01*
X90438467Y-112039764D01*
X90438466Y-112039760D01*
X90388271Y-111964637D01*
X90367394Y-111897959D01*
X90385879Y-111830579D01*
X90437858Y-111783890D01*
X90443115Y-111781657D01*
X90444593Y-111780850D01*
X90559687Y-111694690D01*
X90559690Y-111694687D01*
X90645850Y-111579593D01*
X90645854Y-111579586D01*
X90696096Y-111444879D01*
X90696098Y-111444872D01*
X90702499Y-111385344D01*
X90702500Y-111385327D01*
X90702500Y-110887500D01*
X89501500Y-110887500D01*
X89434461Y-110867815D01*
X89388706Y-110815011D01*
X89377500Y-110763500D01*
X89377500Y-110387500D01*
X89877500Y-110387500D01*
X90702500Y-110387500D01*
X90702500Y-109889672D01*
X90702499Y-109889655D01*
X90696098Y-109830127D01*
X90696096Y-109830120D01*
X90645854Y-109695413D01*
X90645850Y-109695406D01*
X90559690Y-109580312D01*
X90559687Y-109580309D01*
X90444593Y-109494149D01*
X90444586Y-109494145D01*
X90309879Y-109443903D01*
X90309872Y-109443901D01*
X90250344Y-109437500D01*
X89877500Y-109437500D01*
X89877500Y-110387500D01*
X89377500Y-110387500D01*
X89377500Y-109437500D01*
X89004655Y-109437500D01*
X88945127Y-109443901D01*
X88945120Y-109443903D01*
X88810413Y-109494145D01*
X88810406Y-109494149D01*
X88695314Y-109580308D01*
X88695309Y-109580313D01*
X88652641Y-109637311D01*
X88596707Y-109679182D01*
X88553374Y-109687000D01*
X88549500Y-109687000D01*
X88482461Y-109667315D01*
X88436706Y-109614511D01*
X88425500Y-109563000D01*
X88425500Y-109059959D01*
X88445185Y-108992920D01*
X88497989Y-108947165D01*
X88567147Y-108937221D01*
X88630703Y-108966246D01*
X88637182Y-108972278D01*
X88694620Y-109029717D01*
X88694625Y-109029721D01*
X88833804Y-109112031D01*
X88980000Y-109154504D01*
X88980000Y-109154503D01*
X89480000Y-109154503D01*
X89626195Y-109112031D01*
X89765374Y-109029721D01*
X89765383Y-109029714D01*
X89879714Y-108915383D01*
X89879721Y-108915374D01*
X89962031Y-108776195D01*
X89962033Y-108776190D01*
X90007144Y-108620918D01*
X90007145Y-108620912D01*
X90008790Y-108600000D01*
X89480000Y-108600000D01*
X89480000Y-109154503D01*
X88980000Y-109154503D01*
X88980000Y-108157844D01*
X93220000Y-108157844D01*
X93226401Y-108217372D01*
X93226403Y-108217379D01*
X93276645Y-108352086D01*
X93276649Y-108352093D01*
X93362809Y-108467187D01*
X93362812Y-108467190D01*
X93477906Y-108553350D01*
X93477913Y-108553354D01*
X93612620Y-108603596D01*
X93612627Y-108603598D01*
X93672155Y-108609999D01*
X93672172Y-108610000D01*
X94470000Y-108610000D01*
X94470000Y-107360000D01*
X93220000Y-107360000D01*
X93220000Y-108157844D01*
X88980000Y-108157844D01*
X88980000Y-107545494D01*
X89480000Y-107545494D01*
X89480000Y-108100000D01*
X90008790Y-108100000D01*
X90007145Y-108079089D01*
X89962031Y-107923804D01*
X89879721Y-107784625D01*
X89879714Y-107784616D01*
X89765383Y-107670285D01*
X89765374Y-107670278D01*
X89626193Y-107587967D01*
X89626190Y-107587965D01*
X89480001Y-107545493D01*
X89480000Y-107545494D01*
X88980000Y-107545494D01*
X88979998Y-107545493D01*
X88833809Y-107587965D01*
X88833806Y-107587967D01*
X88694625Y-107670278D01*
X88694616Y-107670285D01*
X88601665Y-107763237D01*
X88540342Y-107796722D01*
X88494587Y-107798029D01*
X88440735Y-107789500D01*
X88099260Y-107789500D01*
X88099260Y-107789501D01*
X88007829Y-107803981D01*
X88007828Y-107803981D01*
X87897607Y-107860142D01*
X87897603Y-107860145D01*
X87810145Y-107947603D01*
X87810142Y-107947608D01*
X87753981Y-108057827D01*
X87753981Y-108057828D01*
X87739500Y-108149264D01*
X87739500Y-108262744D01*
X87719815Y-108329783D01*
X87709462Y-108342631D01*
X87709469Y-108342637D01*
X87704520Y-108349087D01*
X87651795Y-108440406D01*
X87651794Y-108440407D01*
X87629262Y-108524501D01*
X87624500Y-108542272D01*
X87624500Y-109563000D01*
X87604815Y-109630039D01*
X87552011Y-109675794D01*
X87500500Y-109687000D01*
X87427823Y-109687000D01*
X87354764Y-109701532D01*
X87354760Y-109701533D01*
X87271899Y-109756899D01*
X87216533Y-109839760D01*
X87216532Y-109839764D01*
X87202000Y-109912821D01*
X87202000Y-109925500D01*
X87182315Y-109992539D01*
X87129511Y-110038294D01*
X87078000Y-110049500D01*
X85887993Y-110049500D01*
X85835588Y-110037882D01*
X85834514Y-110037381D01*
X85819760Y-110030501D01*
X85819758Y-110030500D01*
X85774188Y-110024501D01*
X85774185Y-110024500D01*
X85774179Y-110024500D01*
X85774172Y-110024500D01*
X85000826Y-110024500D01*
X84979194Y-110027347D01*
X84959131Y-110029988D01*
X84890098Y-110019221D01*
X84837844Y-109972840D01*
X84818960Y-109905571D01*
X84820012Y-109890863D01*
X84825499Y-109849186D01*
X84825500Y-109849179D01*
X84825499Y-109634043D01*
X84845183Y-109567004D01*
X84861813Y-109546367D01*
X85371863Y-109036319D01*
X85433186Y-109002834D01*
X85459544Y-109000000D01*
X86100000Y-109000000D01*
X86100000Y-107000000D01*
X85974410Y-107000000D01*
X85907371Y-106980315D01*
X85861616Y-106927511D01*
X85851936Y-106895396D01*
X85843239Y-106840478D01*
X85786002Y-106728145D01*
X85785998Y-106728141D01*
X85785997Y-106728139D01*
X85770235Y-106712377D01*
X85736750Y-106651054D01*
X85741734Y-106581362D01*
X85770233Y-106537017D01*
X85789818Y-106517431D01*
X85851138Y-106483946D01*
X85920830Y-106488929D01*
X85965180Y-106517431D01*
X86025103Y-106577354D01*
X86025105Y-106577355D01*
X86025109Y-106577359D01*
X86135325Y-106633517D01*
X86135326Y-106633517D01*
X86135328Y-106633518D01*
X86169930Y-106638998D01*
X86226765Y-106648000D01*
X86628234Y-106647999D01*
X86628239Y-106647999D01*
X86628239Y-106647998D01*
X86673954Y-106640758D01*
X86719670Y-106633518D01*
X86719671Y-106633518D01*
X86719672Y-106633517D01*
X86719675Y-106633517D01*
X86829891Y-106577359D01*
X86917359Y-106489891D01*
X86973517Y-106379675D01*
X86973517Y-106379673D01*
X86973518Y-106379672D01*
X86973518Y-106379671D01*
X86977401Y-106355150D01*
X86988000Y-106288235D01*
X86987999Y-106062155D01*
X93220000Y-106062155D01*
X93220000Y-106860000D01*
X94470000Y-106860000D01*
X94470000Y-105610000D01*
X93672155Y-105610000D01*
X93612627Y-105616401D01*
X93612620Y-105616403D01*
X93477913Y-105666645D01*
X93477906Y-105666649D01*
X93362812Y-105752809D01*
X93362809Y-105752812D01*
X93276649Y-105867906D01*
X93276645Y-105867913D01*
X93226403Y-106002620D01*
X93226401Y-106002627D01*
X93220000Y-106062155D01*
X86987999Y-106062155D01*
X86987999Y-105946766D01*
X86987999Y-105946764D01*
X86987999Y-105946762D01*
X86979470Y-105892915D01*
X86988424Y-105823621D01*
X87014262Y-105785834D01*
X87107217Y-105692879D01*
X87107221Y-105692874D01*
X87189531Y-105553695D01*
X87232004Y-105407500D01*
X85201500Y-105407500D01*
X85134461Y-105387815D01*
X85088706Y-105335011D01*
X85077500Y-105283500D01*
X85077500Y-104378710D01*
X85077499Y-104378709D01*
X85577500Y-104378709D01*
X85577500Y-104907500D01*
X86177500Y-104907500D01*
X86677500Y-104907500D01*
X87232004Y-104907500D01*
X87189531Y-104761304D01*
X87107221Y-104622125D01*
X87107214Y-104622116D01*
X86992883Y-104507785D01*
X86992874Y-104507778D01*
X86853695Y-104425468D01*
X86853690Y-104425466D01*
X86698418Y-104380355D01*
X86698412Y-104380354D01*
X86677500Y-104378709D01*
X86677500Y-104907500D01*
X86177500Y-104907500D01*
X86177500Y-104378710D01*
X86177499Y-104378709D01*
X86156587Y-104380354D01*
X86156581Y-104380355D01*
X86001309Y-104425466D01*
X86001300Y-104425470D01*
X85940620Y-104461356D01*
X85872896Y-104478539D01*
X85814380Y-104461356D01*
X85753699Y-104425470D01*
X85753690Y-104425466D01*
X85598418Y-104380355D01*
X85598412Y-104380354D01*
X85577500Y-104378709D01*
X85077499Y-104378709D01*
X85056587Y-104380354D01*
X85056581Y-104380355D01*
X84901309Y-104425466D01*
X84901304Y-104425468D01*
X84762125Y-104507778D01*
X84762116Y-104507785D01*
X84647785Y-104622116D01*
X84647778Y-104622125D01*
X84565468Y-104761304D01*
X84565466Y-104761310D01*
X84553076Y-104803957D01*
X84515470Y-104862843D01*
X84451997Y-104892049D01*
X84382811Y-104882303D01*
X84329876Y-104836699D01*
X84310001Y-104769716D01*
X84310000Y-104769362D01*
X84310000Y-102024000D01*
X84329685Y-101956961D01*
X84382489Y-101911206D01*
X84434000Y-101900000D01*
X100600000Y-101900000D01*
X100600000Y-96624500D01*
X100619685Y-96557461D01*
X100672489Y-96511706D01*
X100724000Y-96500500D01*
X116997439Y-96500500D01*
X117002562Y-96500605D01*
G37*
%TD.AperFunction*%
%TA.AperFunction,Conductor*%
G36*
X91568834Y-141029362D02*
G01*
X91624767Y-141071234D01*
X91649184Y-141136698D01*
X91649500Y-141145544D01*
X91649500Y-142603456D01*
X91629815Y-142670495D01*
X91613181Y-142691137D01*
X91186137Y-143118181D01*
X91124814Y-143151666D01*
X91098456Y-143154500D01*
X91025862Y-143154500D01*
X90958823Y-143134815D01*
X90938181Y-143118181D01*
X90925000Y-143105000D01*
X89574000Y-143105000D01*
X89506961Y-143085315D01*
X89461206Y-143032511D01*
X89450000Y-142981000D01*
X89450000Y-142729000D01*
X89469685Y-142661961D01*
X89522489Y-142616206D01*
X89574000Y-142605000D01*
X90925000Y-142605000D01*
X90925000Y-142457172D01*
X90924999Y-142457155D01*
X90918598Y-142397627D01*
X90918596Y-142397620D01*
X90868354Y-142262913D01*
X90868350Y-142262906D01*
X90782190Y-142147813D01*
X90719304Y-142100736D01*
X90677433Y-142044802D01*
X90671999Y-141977273D01*
X90675500Y-141959676D01*
X90675500Y-141871544D01*
X90695185Y-141804505D01*
X90711819Y-141783863D01*
X91437819Y-141057863D01*
X91499142Y-141024378D01*
X91568834Y-141029362D01*
G37*
%TD.AperFunction*%
%TA.AperFunction,Conductor*%
G36*
X90248519Y-132779600D02*
G01*
X90304453Y-132821471D01*
X90319747Y-132848329D01*
X90367952Y-132964706D01*
X90375464Y-132982841D01*
X90471718Y-133108282D01*
X90500987Y-133130740D01*
X90542189Y-133187165D01*
X90549500Y-133229115D01*
X90549500Y-133554574D01*
X90529815Y-133621613D01*
X90477011Y-133667368D01*
X90407853Y-133677312D01*
X90362380Y-133661307D01*
X90339189Y-133647592D01*
X90185130Y-133602834D01*
X90150000Y-133600068D01*
X90150000Y-134496000D01*
X90130315Y-134563039D01*
X90077511Y-134608794D01*
X90026000Y-134620000D01*
X89774000Y-134620000D01*
X89706961Y-134600315D01*
X89661206Y-134547511D01*
X89650000Y-134496000D01*
X89650000Y-133600068D01*
X89649999Y-133600068D01*
X89614869Y-133602834D01*
X89614868Y-133602834D01*
X89460811Y-133647592D01*
X89460808Y-133647593D01*
X89322714Y-133729261D01*
X89322705Y-133729268D01*
X89209268Y-133842705D01*
X89209264Y-133842711D01*
X89178804Y-133894216D01*
X89127734Y-133941899D01*
X89058992Y-133954402D01*
X88994403Y-133927756D01*
X88954473Y-133870421D01*
X88949369Y-133848982D01*
X88940573Y-133788607D01*
X88889198Y-133683517D01*
X88889196Y-133683515D01*
X88889196Y-133683514D01*
X88806485Y-133600803D01*
X88701391Y-133549426D01*
X88633261Y-133539500D01*
X88633260Y-133539500D01*
X88498485Y-133539500D01*
X88431446Y-133519815D01*
X88400109Y-133490987D01*
X88377924Y-133462075D01*
X88252586Y-133365899D01*
X88106631Y-133305444D01*
X88050000Y-133297987D01*
X88050000Y-133845357D01*
X88049675Y-133854324D01*
X88049500Y-133856737D01*
X88049500Y-134373265D01*
X88049675Y-134375679D01*
X88050000Y-134384645D01*
X88050000Y-134932010D01*
X88050001Y-134932011D01*
X88102890Y-134925049D01*
X88171926Y-134935815D01*
X88213739Y-134969508D01*
X88213783Y-134969465D01*
X88214191Y-134969873D01*
X88217446Y-134972496D01*
X88219531Y-134975213D01*
X88472137Y-135227819D01*
X88505622Y-135289142D01*
X88500638Y-135358834D01*
X88458766Y-135414767D01*
X88393302Y-135439184D01*
X88384456Y-135439500D01*
X88366739Y-135439500D01*
X88298608Y-135449426D01*
X88193514Y-135500803D01*
X88110803Y-135583514D01*
X88059426Y-135688608D01*
X88049500Y-135756739D01*
X88049500Y-136273260D01*
X88059426Y-136341391D01*
X88115315Y-136455714D01*
X88112274Y-136457200D01*
X88129352Y-136506331D01*
X88129500Y-136512395D01*
X88129500Y-136646721D01*
X88109815Y-136713760D01*
X88057011Y-136759515D01*
X87987853Y-136769459D01*
X87942380Y-136753454D01*
X87916195Y-136737968D01*
X87760909Y-136692854D01*
X87724644Y-136690000D01*
X87645043Y-136690000D01*
X87578004Y-136670315D01*
X87532249Y-136617511D01*
X87522305Y-136548353D01*
X87551330Y-136484797D01*
X87557363Y-136478318D01*
X87589196Y-136446485D01*
X87589198Y-136446483D01*
X87640573Y-136341393D01*
X87650500Y-136273260D01*
X87650500Y-135756740D01*
X87640573Y-135688607D01*
X87589198Y-135583517D01*
X87589196Y-135583515D01*
X87589196Y-135583514D01*
X87586819Y-135581137D01*
X87584606Y-135577085D01*
X87583227Y-135575153D01*
X87583460Y-135574986D01*
X87553334Y-135519814D01*
X87550500Y-135493456D01*
X87550500Y-135060305D01*
X87570185Y-134993266D01*
X87622989Y-134947511D01*
X87634248Y-134945823D01*
X87650000Y-134932010D01*
X87650000Y-134384645D01*
X87650325Y-134375679D01*
X87650500Y-134373265D01*
X87650500Y-133856737D01*
X87650325Y-133854324D01*
X87650000Y-133845357D01*
X87650000Y-133285118D01*
X87630970Y-133255114D01*
X87631386Y-133185246D01*
X87662469Y-133133212D01*
X87808865Y-132986816D01*
X87870186Y-132953334D01*
X87896544Y-132950500D01*
X89876067Y-132950500D01*
X89876069Y-132950500D01*
X89965213Y-132926614D01*
X89970801Y-132923387D01*
X89970805Y-132923386D01*
X90045130Y-132880474D01*
X90045129Y-132880474D01*
X90045137Y-132880470D01*
X90117507Y-132808098D01*
X90178827Y-132774616D01*
X90248519Y-132779600D01*
G37*
%TD.AperFunction*%
%TA.AperFunction,Conductor*%
G36*
X85822495Y-131159685D02*
G01*
X85843137Y-131176319D01*
X87147886Y-132481068D01*
X87181371Y-132542391D01*
X87176387Y-132612083D01*
X87147887Y-132656430D01*
X86919528Y-132884789D01*
X86895383Y-132926613D01*
X86895381Y-132926615D01*
X86873388Y-132964706D01*
X86873387Y-132964709D01*
X86873386Y-132964711D01*
X86873386Y-132964712D01*
X86867463Y-132986818D01*
X86849500Y-133053856D01*
X86849500Y-133593456D01*
X86829815Y-133660495D01*
X86813181Y-133681137D01*
X86810802Y-133683515D01*
X86805207Y-133694961D01*
X86758079Y-133746543D01*
X86693807Y-133764500D01*
X86371544Y-133764500D01*
X86304505Y-133744815D01*
X86283863Y-133728181D01*
X85328170Y-132772488D01*
X85294685Y-132711165D01*
X85299669Y-132641473D01*
X85341541Y-132585540D01*
X85372519Y-132568625D01*
X85467084Y-132533355D01*
X85467093Y-132533350D01*
X85582187Y-132447190D01*
X85582190Y-132447187D01*
X85668350Y-132332093D01*
X85668354Y-132332086D01*
X85718596Y-132197379D01*
X85718598Y-132197372D01*
X85724999Y-132137844D01*
X85725000Y-132137827D01*
X85725000Y-131590000D01*
X84949500Y-131590000D01*
X84882461Y-131570315D01*
X84836706Y-131517511D01*
X84825500Y-131466000D01*
X84825500Y-131264000D01*
X84845185Y-131196961D01*
X84897989Y-131151206D01*
X84949500Y-131140000D01*
X85755456Y-131140000D01*
X85822495Y-131159685D01*
G37*
%TD.AperFunction*%
%TA.AperFunction,Conductor*%
G36*
X87848044Y-130270185D02*
G01*
X87893799Y-130322989D01*
X87903743Y-130392147D01*
X87893411Y-130423043D01*
X87894473Y-130423464D01*
X87891600Y-130430721D01*
X87851386Y-130587341D01*
X87851386Y-130749052D01*
X87891597Y-130905663D01*
X87891600Y-130905673D01*
X87969497Y-131047366D01*
X87969503Y-131047375D01*
X87983123Y-131063323D01*
X88622908Y-130423539D01*
X88684231Y-130390054D01*
X88753923Y-130395038D01*
X88798270Y-130423539D01*
X88976460Y-130601729D01*
X89009945Y-130663052D01*
X89004961Y-130732744D01*
X88976460Y-130777091D01*
X88336676Y-131416874D01*
X88352625Y-131430496D01*
X88352635Y-131430503D01*
X88494326Y-131508399D01*
X88494336Y-131508402D01*
X88650947Y-131548613D01*
X88650955Y-131548614D01*
X88812653Y-131548614D01*
X88812658Y-131548613D01*
X88876872Y-131532126D01*
X88946701Y-131534520D01*
X89004150Y-131574286D01*
X89022271Y-131604778D01*
X89052620Y-131678048D01*
X89060089Y-131747517D01*
X89028813Y-131809996D01*
X88968724Y-131845648D01*
X88938059Y-131849500D01*
X87559044Y-131849500D01*
X87492005Y-131829815D01*
X87471363Y-131813181D01*
X86120363Y-130462181D01*
X86086878Y-130400858D01*
X86091862Y-130331166D01*
X86133734Y-130275233D01*
X86199198Y-130250816D01*
X86208044Y-130250500D01*
X87781005Y-130250500D01*
X87848044Y-130270185D01*
G37*
%TD.AperFunction*%
%TA.AperFunction,Conductor*%
G36*
X99114809Y-124720185D02*
G01*
X99135451Y-124736819D01*
X100135947Y-125737315D01*
X101078433Y-126679800D01*
X101111918Y-126741123D01*
X101106934Y-126810815D01*
X101071956Y-126861193D01*
X101026107Y-126900921D01*
X100931961Y-127009572D01*
X100931950Y-127009588D01*
X100892639Y-127070756D01*
X100892630Y-127070772D01*
X100832910Y-127201542D01*
X100812419Y-127271328D01*
X100791959Y-127413638D01*
X100791959Y-127486361D01*
X100793238Y-127495256D01*
X100794500Y-127512902D01*
X100794500Y-127887097D01*
X100793238Y-127904742D01*
X100791959Y-127913635D01*
X100791959Y-127986361D01*
X100812419Y-128128671D01*
X100812421Y-128128677D01*
X100832817Y-128198142D01*
X100832910Y-128198457D01*
X100892630Y-128329227D01*
X100892639Y-128329243D01*
X100931950Y-128390411D01*
X100931961Y-128390427D01*
X101026106Y-128499077D01*
X101081069Y-128546702D01*
X101202017Y-128624431D01*
X101202020Y-128624432D01*
X101202023Y-128624434D01*
X101268174Y-128654644D01*
X101406129Y-128695151D01*
X101478111Y-128705500D01*
X101478113Y-128705500D01*
X102050002Y-128705500D01*
X102050003Y-128705499D01*
X102147776Y-128686051D01*
X102147781Y-128686047D01*
X102152540Y-128684077D01*
X102222009Y-128676604D01*
X102247460Y-128684077D01*
X102252219Y-128686048D01*
X102252224Y-128686051D01*
X102252228Y-128686051D01*
X102252229Y-128686052D01*
X102349995Y-128705499D01*
X102349998Y-128705500D01*
X102350000Y-128705500D01*
X102921887Y-128705500D01*
X102921889Y-128705500D01*
X102993871Y-128695151D01*
X103131826Y-128654644D01*
X103197977Y-128624434D01*
X103200153Y-128623036D01*
X103244871Y-128594297D01*
X103318931Y-128546702D01*
X103373893Y-128499077D01*
X103394476Y-128475323D01*
X103468038Y-128390427D01*
X103468040Y-128390424D01*
X103468047Y-128390416D01*
X103507363Y-128329239D01*
X103507366Y-128329231D01*
X103507369Y-128329227D01*
X103543779Y-128249500D01*
X103567091Y-128198454D01*
X103587579Y-128128677D01*
X103608041Y-127986362D01*
X103608041Y-127913639D01*
X103606762Y-127904742D01*
X103605500Y-127887097D01*
X103605500Y-127512902D01*
X103606762Y-127495256D01*
X103608041Y-127486361D01*
X103608041Y-127486347D01*
X103608357Y-127481941D01*
X103610078Y-127482064D01*
X103627726Y-127421964D01*
X103644360Y-127401322D01*
X103898863Y-127146819D01*
X103960186Y-127113334D01*
X103986544Y-127110500D01*
X106588206Y-127110500D01*
X106655245Y-127130185D01*
X106675887Y-127146819D01*
X107283280Y-127754212D01*
X107316765Y-127815535D01*
X107311781Y-127885227D01*
X107269909Y-127941160D01*
X107243053Y-127956454D01*
X107197159Y-127975464D01*
X107071718Y-128071718D01*
X106975463Y-128197160D01*
X106914956Y-128343237D01*
X106914955Y-128343239D01*
X106894318Y-128499998D01*
X106894318Y-128500001D01*
X106899133Y-128536576D01*
X106888367Y-128605611D01*
X106863875Y-128640442D01*
X105591137Y-129913181D01*
X105529814Y-129946666D01*
X105503456Y-129949500D01*
X103703359Y-129949500D01*
X103636320Y-129929815D01*
X103590565Y-129877011D01*
X103584381Y-129860433D01*
X103567091Y-129801546D01*
X103546638Y-129756760D01*
X103507369Y-129670772D01*
X103507360Y-129670756D01*
X103496664Y-129654113D01*
X103468047Y-129609584D01*
X103468043Y-129609579D01*
X103468038Y-129609572D01*
X103373893Y-129500922D01*
X103318930Y-129453297D01*
X103197982Y-129375568D01*
X103197977Y-129375566D01*
X103131826Y-129345356D01*
X103004102Y-129307853D01*
X102993875Y-129304850D01*
X102993863Y-129304847D01*
X102921889Y-129294500D01*
X102350000Y-129294500D01*
X102349997Y-129294500D01*
X102252228Y-129313947D01*
X102247452Y-129315926D01*
X102177982Y-129323394D01*
X102152548Y-129315926D01*
X102147771Y-129313947D01*
X102050003Y-129294500D01*
X102050000Y-129294500D01*
X101478111Y-129294500D01*
X101478110Y-129294500D01*
X101406136Y-129304847D01*
X101406124Y-129304850D01*
X101268174Y-129345356D01*
X101202022Y-129375566D01*
X101202017Y-129375568D01*
X101081069Y-129453297D01*
X101026106Y-129500922D01*
X100931961Y-129609572D01*
X100931950Y-129609588D01*
X100892639Y-129670756D01*
X100892630Y-129670772D01*
X100832910Y-129801542D01*
X100832909Y-129801545D01*
X100832909Y-129801546D01*
X100821247Y-129841266D01*
X100815619Y-129860433D01*
X100777845Y-129919212D01*
X100714290Y-129948238D01*
X100696641Y-129949500D01*
X96490788Y-129949500D01*
X96423749Y-129929815D01*
X96377994Y-129877011D01*
X96368050Y-129807853D01*
X96376227Y-129778047D01*
X96385044Y-129756762D01*
X96405682Y-129600000D01*
X96385044Y-129443238D01*
X96324536Y-129297159D01*
X96228282Y-129171718D01*
X96102841Y-129075464D01*
X95956762Y-129014956D01*
X95956760Y-129014955D01*
X95800001Y-128994318D01*
X95799999Y-128994318D01*
X95643239Y-129014955D01*
X95643237Y-129014956D01*
X95497157Y-129075464D01*
X95412694Y-129140276D01*
X95347525Y-129165470D01*
X95279080Y-129151432D01*
X95249527Y-129129581D01*
X94757716Y-128637770D01*
X94724231Y-128576447D01*
X94729215Y-128506755D01*
X94757717Y-128462407D01*
X94768032Y-128452093D01*
X94863906Y-128356219D01*
X94892872Y-128312868D01*
X94927084Y-128278655D01*
X94970432Y-128249692D01*
X94988496Y-128231627D01*
X95049816Y-128198142D01*
X95093823Y-128196570D01*
X95164302Y-128206702D01*
X95306616Y-128186242D01*
X95306621Y-128186241D01*
X95437399Y-128126515D01*
X95437401Y-128126514D01*
X95484032Y-128088936D01*
X95484038Y-128088931D01*
X95517855Y-128055114D01*
X95517855Y-128055113D01*
X95298074Y-127835333D01*
X95264589Y-127774010D01*
X95264163Y-127771970D01*
X95258847Y-127745242D01*
X95217459Y-127683299D01*
X94881106Y-127346946D01*
X94847621Y-127285623D01*
X94852605Y-127215931D01*
X94881064Y-127171625D01*
X94882124Y-127170564D01*
X94943432Y-127137050D01*
X95013126Y-127142002D01*
X95057528Y-127170523D01*
X95729986Y-127842982D01*
X95729987Y-127842982D01*
X95763804Y-127809165D01*
X95763809Y-127809159D01*
X95801387Y-127762528D01*
X95801388Y-127762526D01*
X95861114Y-127631748D01*
X95861115Y-127631743D01*
X95881575Y-127489429D01*
X95861115Y-127347115D01*
X95861114Y-127347110D01*
X95801388Y-127216331D01*
X95763808Y-127169696D01*
X95469171Y-126875059D01*
X96187315Y-126875059D01*
X96320721Y-126948399D01*
X96477341Y-126988613D01*
X96477347Y-126988614D01*
X96639045Y-126988614D01*
X96639052Y-126988613D01*
X96795663Y-126948402D01*
X96795673Y-126948399D01*
X96937366Y-126870503D01*
X96953323Y-126856875D01*
X96579412Y-126482964D01*
X96579411Y-126482964D01*
X96187315Y-126875059D01*
X95469171Y-126875059D01*
X95305370Y-126711258D01*
X95271885Y-126649935D01*
X95276869Y-126580243D01*
X95305370Y-126535896D01*
X95416939Y-126424327D01*
X95543930Y-126297335D01*
X95605251Y-126263852D01*
X95674942Y-126268836D01*
X95730876Y-126310707D01*
X95751713Y-126354181D01*
X95760421Y-126388098D01*
X95833761Y-126521505D01*
X95833762Y-126521505D01*
X96225858Y-126129410D01*
X96932964Y-126129410D01*
X96932964Y-126129411D01*
X97306874Y-126503321D01*
X97306876Y-126503321D01*
X97320498Y-126487373D01*
X97320501Y-126487368D01*
X97398399Y-126345673D01*
X97398402Y-126345663D01*
X97438613Y-126189052D01*
X97438614Y-126189045D01*
X97438614Y-126027346D01*
X97438613Y-126027341D01*
X97398399Y-125870721D01*
X97398399Y-125870720D01*
X97325059Y-125737315D01*
X96932964Y-126129410D01*
X96225858Y-126129410D01*
X96579410Y-125775858D01*
X96716864Y-125638403D01*
X96778187Y-125604918D01*
X96820730Y-125603145D01*
X96840000Y-125605682D01*
X96996762Y-125585044D01*
X97142841Y-125524536D01*
X97268282Y-125428282D01*
X97364536Y-125302841D01*
X97425044Y-125156762D01*
X97438802Y-125052254D01*
X97445682Y-125000001D01*
X97445682Y-124999998D01*
X97424708Y-124840685D01*
X97435474Y-124771650D01*
X97481854Y-124719394D01*
X97547647Y-124700500D01*
X99047770Y-124700500D01*
X99114809Y-124720185D01*
G37*
%TD.AperFunction*%
%TA.AperFunction,Conductor*%
G36*
X81803926Y-125300185D02*
G01*
X81824568Y-125316818D01*
X81897609Y-125389859D01*
X81897616Y-125389862D01*
X81898379Y-125390417D01*
X81899090Y-125391339D01*
X81904510Y-125396759D01*
X81903809Y-125397459D01*
X81941048Y-125445744D01*
X81949500Y-125490740D01*
X81949500Y-126101830D01*
X81966878Y-126166684D01*
X81966877Y-126166684D01*
X81966878Y-126166686D01*
X81973385Y-126190972D01*
X82019527Y-126270894D01*
X82019531Y-126270899D01*
X83664173Y-127915541D01*
X83697658Y-127976864D01*
X83692674Y-128046556D01*
X83650802Y-128102489D01*
X83585338Y-128126906D01*
X83517065Y-128112054D01*
X83513371Y-128109954D01*
X83476195Y-128087968D01*
X83476190Y-128087966D01*
X83320918Y-128042855D01*
X83320912Y-128042854D01*
X83300000Y-128041209D01*
X83300000Y-128570000D01*
X83854504Y-128570000D01*
X83812032Y-128423806D01*
X83790045Y-128386629D01*
X83772862Y-128318905D01*
X83795022Y-128252642D01*
X83849487Y-128208879D01*
X83918967Y-128201509D01*
X83981402Y-128232872D01*
X83984458Y-128235826D01*
X84323565Y-128574933D01*
X84343272Y-128600615D01*
X84345926Y-128605212D01*
X84345928Y-128605215D01*
X84978533Y-129237819D01*
X85012018Y-129299142D01*
X85007034Y-129368833D01*
X84965163Y-129424767D01*
X84899698Y-129449184D01*
X84890852Y-129449500D01*
X83891451Y-129449500D01*
X83824412Y-129429815D01*
X83778657Y-129377011D01*
X83768713Y-129307853D01*
X83784719Y-129262379D01*
X83812031Y-129216196D01*
X83812031Y-129216195D01*
X83854504Y-129070000D01*
X82245496Y-129070000D01*
X82260285Y-129120906D01*
X82260085Y-129190775D01*
X82222142Y-129249445D01*
X82158504Y-129278288D01*
X82141208Y-129279500D01*
X81938015Y-129279500D01*
X81870976Y-129259815D01*
X81850334Y-129243181D01*
X81506655Y-128899502D01*
X81506653Y-128899500D01*
X81449589Y-128866554D01*
X81392526Y-128833608D01*
X81323567Y-128815131D01*
X81265231Y-128799500D01*
X81265230Y-128799500D01*
X81129418Y-128799500D01*
X81062379Y-128779815D01*
X81016624Y-128727011D01*
X81006680Y-128657853D01*
X81035705Y-128594297D01*
X81055107Y-128576234D01*
X81063434Y-128570000D01*
X82245496Y-128570000D01*
X82800000Y-128570000D01*
X82800000Y-128041210D01*
X82799999Y-128041209D01*
X82779087Y-128042854D01*
X82779081Y-128042855D01*
X82623809Y-128087966D01*
X82623804Y-128087968D01*
X82484625Y-128170278D01*
X82484616Y-128170285D01*
X82370285Y-128284616D01*
X82370278Y-128284625D01*
X82287968Y-128423804D01*
X82245496Y-128570000D01*
X81063434Y-128570000D01*
X81067187Y-128567190D01*
X81067190Y-128567187D01*
X81153350Y-128452093D01*
X81153354Y-128452086D01*
X81203596Y-128317379D01*
X81203598Y-128317372D01*
X81209999Y-128257844D01*
X81210000Y-128257827D01*
X81210000Y-128160000D01*
X79959000Y-128160000D01*
X79891961Y-128140315D01*
X79846206Y-128087511D01*
X79835000Y-128036000D01*
X79835000Y-127660000D01*
X80335000Y-127660000D01*
X81210000Y-127660000D01*
X81210000Y-127562172D01*
X81209999Y-127562155D01*
X81203598Y-127502627D01*
X81203596Y-127502620D01*
X81153354Y-127367913D01*
X81153350Y-127367906D01*
X81067190Y-127252812D01*
X81067187Y-127252809D01*
X80952093Y-127166649D01*
X80952086Y-127166645D01*
X80817379Y-127116403D01*
X80817372Y-127116401D01*
X80757844Y-127110000D01*
X80335000Y-127110000D01*
X80335000Y-127660000D01*
X79835000Y-127660000D01*
X79835000Y-127110000D01*
X79412155Y-127110000D01*
X79352627Y-127116401D01*
X79352620Y-127116403D01*
X79217913Y-127166645D01*
X79217906Y-127166649D01*
X79102812Y-127252809D01*
X79102809Y-127252812D01*
X79016649Y-127367906D01*
X79016645Y-127367913D01*
X78966403Y-127502620D01*
X78966401Y-127502627D01*
X78960000Y-127562155D01*
X78960000Y-127686000D01*
X78940315Y-127753039D01*
X78887511Y-127798794D01*
X78836000Y-127810000D01*
X78710000Y-127810000D01*
X78710000Y-128675500D01*
X78690315Y-128742539D01*
X78637511Y-128788294D01*
X78586000Y-128799500D01*
X78334000Y-128799500D01*
X78266961Y-128779815D01*
X78221206Y-128727011D01*
X78210000Y-128675500D01*
X78210000Y-127810000D01*
X78084000Y-127810000D01*
X78016961Y-127790315D01*
X77971206Y-127737511D01*
X77960000Y-127686000D01*
X77960000Y-127562172D01*
X77959999Y-127562155D01*
X77953598Y-127502627D01*
X77953596Y-127502620D01*
X77903354Y-127367913D01*
X77903350Y-127367906D01*
X77817190Y-127252812D01*
X77817187Y-127252809D01*
X77702093Y-127166649D01*
X77702086Y-127166645D01*
X77567379Y-127116403D01*
X77567372Y-127116401D01*
X77507844Y-127110000D01*
X77085000Y-127110000D01*
X77085000Y-128036000D01*
X77065315Y-128103039D01*
X77012511Y-128148794D01*
X76961000Y-128160000D01*
X76709000Y-128160000D01*
X76641961Y-128140315D01*
X76596206Y-128087511D01*
X76585000Y-128036000D01*
X76585000Y-127110000D01*
X76162172Y-127110000D01*
X76147755Y-127111550D01*
X76078996Y-127099144D01*
X76027858Y-127051534D01*
X76010500Y-126988260D01*
X76010500Y-126576819D01*
X76030185Y-126509780D01*
X76082989Y-126464025D01*
X76152147Y-126454081D01*
X76158677Y-126455199D01*
X76185326Y-126460500D01*
X77484676Y-126460500D01*
X77484677Y-126460499D01*
X77557740Y-126445966D01*
X77640601Y-126390601D01*
X77664936Y-126354181D01*
X77690709Y-126315609D01*
X77744321Y-126270804D01*
X77793811Y-126260500D01*
X79126189Y-126260500D01*
X79193228Y-126280185D01*
X79229291Y-126315609D01*
X79279398Y-126390600D01*
X79279399Y-126390601D01*
X79362260Y-126445966D01*
X79362264Y-126445967D01*
X79435321Y-126460499D01*
X79435324Y-126460500D01*
X79435326Y-126460500D01*
X80734676Y-126460500D01*
X80734677Y-126460499D01*
X80807740Y-126445966D01*
X80890601Y-126390601D01*
X80945966Y-126307740D01*
X80960500Y-126234674D01*
X80960500Y-125585326D01*
X80960500Y-125581542D01*
X80980185Y-125514503D01*
X80996819Y-125493861D01*
X81173862Y-125316819D01*
X81235185Y-125283334D01*
X81261543Y-125280500D01*
X81736887Y-125280500D01*
X81803926Y-125300185D01*
G37*
%TD.AperFunction*%
%TA.AperFunction,Conductor*%
G36*
X88352728Y-125420185D02*
G01*
X88373370Y-125436819D01*
X88394109Y-125457558D01*
X88427594Y-125518881D01*
X88422610Y-125588573D01*
X88394110Y-125632920D01*
X88236189Y-125790841D01*
X88198612Y-125837471D01*
X88198611Y-125837473D01*
X88138885Y-125968251D01*
X88138884Y-125968256D01*
X88118424Y-126110570D01*
X88138884Y-126252884D01*
X88138885Y-126252889D01*
X88198611Y-126383668D01*
X88236191Y-126430303D01*
X88694630Y-126888742D01*
X88728115Y-126950065D01*
X88723131Y-127019757D01*
X88694630Y-127064104D01*
X88444244Y-127314489D01*
X88382921Y-127347974D01*
X88313229Y-127342990D01*
X88257296Y-127301118D01*
X88236459Y-127257646D01*
X88219577Y-127191899D01*
X88219577Y-127191898D01*
X88146237Y-127058493D01*
X87488270Y-127716460D01*
X87426947Y-127749945D01*
X87357255Y-127744961D01*
X87312908Y-127716460D01*
X86673123Y-127076675D01*
X86626004Y-127078527D01*
X86558244Y-127061490D01*
X86510452Y-127010522D01*
X86501033Y-126985461D01*
X86479577Y-126901899D01*
X86401683Y-126760209D01*
X86401678Y-126760202D01*
X86378047Y-126732534D01*
X86378043Y-126732530D01*
X86368636Y-126723123D01*
X87026675Y-126723123D01*
X87400589Y-127097036D01*
X87400590Y-127097036D01*
X87792683Y-126704940D01*
X87792683Y-126704939D01*
X87659277Y-126631599D01*
X87502658Y-126591386D01*
X87340947Y-126591386D01*
X87184336Y-126631597D01*
X87184326Y-126631600D01*
X87042632Y-126709497D01*
X87026675Y-126723123D01*
X86368636Y-126723123D01*
X86191768Y-126546257D01*
X86158283Y-126484934D01*
X86163267Y-126415242D01*
X86205138Y-126359308D01*
X86270602Y-126334891D01*
X86297320Y-126335869D01*
X86363418Y-126345500D01*
X86363423Y-126345500D01*
X86706577Y-126345500D01*
X86706582Y-126345500D01*
X86781518Y-126334582D01*
X86854030Y-126299133D01*
X86897099Y-126278078D01*
X86897102Y-126278076D01*
X86988076Y-126187102D01*
X86988078Y-126187099D01*
X87025490Y-126110570D01*
X87044582Y-126071518D01*
X87055500Y-125996582D01*
X87055500Y-125801544D01*
X87075185Y-125734505D01*
X87091819Y-125713863D01*
X87368863Y-125436819D01*
X87430186Y-125403334D01*
X87456544Y-125400500D01*
X88285689Y-125400500D01*
X88352728Y-125420185D01*
G37*
%TD.AperFunction*%
%TA.AperFunction,Conductor*%
G36*
X84900323Y-124825500D02*
G01*
X84900326Y-124825500D01*
X85040500Y-124825500D01*
X85107539Y-124845185D01*
X85153294Y-124897989D01*
X85164500Y-124949500D01*
X85164500Y-125208959D01*
X85144815Y-125275998D01*
X85128181Y-125296640D01*
X85061923Y-125362897D01*
X85061921Y-125362900D01*
X85005419Y-125478478D01*
X85005418Y-125478480D01*
X85005418Y-125478482D01*
X84994500Y-125553418D01*
X84994500Y-125996582D01*
X85005418Y-126071518D01*
X85005418Y-126071519D01*
X85005419Y-126071521D01*
X85061921Y-126187099D01*
X85061923Y-126187102D01*
X85152896Y-126278075D01*
X85152897Y-126278075D01*
X85152898Y-126278076D01*
X85195970Y-126299133D01*
X85217514Y-126309665D01*
X85269097Y-126356793D01*
X85287011Y-126424327D01*
X85286958Y-126425939D01*
X85286675Y-126433123D01*
X85926460Y-127072908D01*
X85959945Y-127134231D01*
X85954961Y-127203923D01*
X85926460Y-127248270D01*
X85748270Y-127426460D01*
X85686947Y-127459945D01*
X85617255Y-127454961D01*
X85572908Y-127426460D01*
X84933124Y-126786676D01*
X84910146Y-126787579D01*
X84901822Y-126793013D01*
X84831954Y-126793510D01*
X84778361Y-126761968D01*
X84636819Y-126620426D01*
X84603334Y-126559103D01*
X84600500Y-126532745D01*
X84600500Y-124947083D01*
X84620185Y-124880044D01*
X84672989Y-124834289D01*
X84700309Y-124825466D01*
X84776041Y-124810402D01*
X84824424Y-124810402D01*
X84900323Y-124825500D01*
G37*
%TD.AperFunction*%
%TA.AperFunction,Conductor*%
G36*
X76215703Y-120423962D02*
G01*
X76222181Y-120429994D01*
X76595159Y-120802972D01*
X76595169Y-120802983D01*
X76599499Y-120807313D01*
X76599500Y-120807314D01*
X76692686Y-120900500D01*
X76791215Y-120957386D01*
X76806814Y-120966392D01*
X76934107Y-121000500D01*
X76934108Y-121000500D01*
X78062900Y-121000500D01*
X78129939Y-121020185D01*
X78175694Y-121072989D01*
X78185638Y-121142147D01*
X78156613Y-121205703D01*
X78131791Y-121227602D01*
X78069333Y-121269334D01*
X78013950Y-121352221D01*
X78013947Y-121352228D01*
X77994500Y-121449995D01*
X77994500Y-121887096D01*
X77993238Y-121904741D01*
X77991959Y-121913634D01*
X77991959Y-121986361D01*
X77993238Y-121995256D01*
X77994500Y-122012902D01*
X77994500Y-122387097D01*
X77993238Y-122404742D01*
X77991959Y-122413635D01*
X77991959Y-122486363D01*
X77993238Y-122495258D01*
X77994500Y-122512904D01*
X77994500Y-122950004D01*
X78013947Y-123047771D01*
X78013950Y-123047778D01*
X78069333Y-123130665D01*
X78069334Y-123130666D01*
X78130560Y-123171576D01*
X78152224Y-123186051D01*
X78152227Y-123186051D01*
X78152228Y-123186052D01*
X78249995Y-123205499D01*
X78249998Y-123205500D01*
X78250000Y-123205500D01*
X78821887Y-123205500D01*
X78821889Y-123205500D01*
X78893871Y-123195151D01*
X79031826Y-123154644D01*
X79097977Y-123124434D01*
X79218931Y-123046702D01*
X79273893Y-122999077D01*
X79292797Y-122977260D01*
X79368038Y-122890427D01*
X79368040Y-122890424D01*
X79368047Y-122890416D01*
X79407363Y-122829239D01*
X79407366Y-122829231D01*
X79407369Y-122829227D01*
X79434366Y-122770109D01*
X79467091Y-122698454D01*
X79484381Y-122639565D01*
X79522155Y-122580788D01*
X79585710Y-122551762D01*
X79603359Y-122550500D01*
X80161142Y-122550500D01*
X80161144Y-122550500D01*
X80250288Y-122526614D01*
X80330212Y-122480470D01*
X80453863Y-122356817D01*
X80515186Y-122323333D01*
X80541545Y-122320499D01*
X80743821Y-122320499D01*
X80743822Y-122320499D01*
X80837022Y-122305739D01*
X80949355Y-122248502D01*
X80951818Y-122246039D01*
X80962319Y-122235539D01*
X81023642Y-122202054D01*
X81093334Y-122207038D01*
X81137681Y-122235539D01*
X81148181Y-122246039D01*
X81181666Y-122307362D01*
X81184500Y-122333720D01*
X81184500Y-122388959D01*
X81164815Y-122455998D01*
X81148181Y-122476640D01*
X81086923Y-122537897D01*
X81086921Y-122537900D01*
X81030419Y-122653478D01*
X81030419Y-122653479D01*
X81030418Y-122653482D01*
X81019500Y-122728418D01*
X81019500Y-123171582D01*
X81030418Y-123246518D01*
X81030418Y-123246519D01*
X81030419Y-123246521D01*
X81086921Y-123362099D01*
X81086923Y-123362102D01*
X81177897Y-123453076D01*
X81177900Y-123453078D01*
X81246582Y-123486654D01*
X81293482Y-123509582D01*
X81368418Y-123520500D01*
X81368423Y-123520500D01*
X81388303Y-123520500D01*
X81455342Y-123540185D01*
X81501097Y-123592989D01*
X81511041Y-123662147D01*
X81507380Y-123679095D01*
X81495496Y-123720000D01*
X82426000Y-123720000D01*
X82493039Y-123739685D01*
X82538794Y-123792489D01*
X82550000Y-123844000D01*
X82550000Y-124096000D01*
X82530315Y-124163039D01*
X82477511Y-124208794D01*
X82426000Y-124220000D01*
X81495496Y-124220000D01*
X81537968Y-124366194D01*
X81553454Y-124392380D01*
X81570636Y-124460104D01*
X81548475Y-124526366D01*
X81494009Y-124570129D01*
X81446721Y-124579500D01*
X81018856Y-124579500D01*
X80936579Y-124601546D01*
X80936578Y-124601545D01*
X80929711Y-124603386D01*
X80929706Y-124603388D01*
X80849794Y-124649526D01*
X80849785Y-124649533D01*
X80176137Y-125323181D01*
X80114814Y-125356666D01*
X80088456Y-125359500D01*
X79435323Y-125359500D01*
X79362264Y-125374032D01*
X79362260Y-125374033D01*
X79279398Y-125429399D01*
X79262366Y-125454891D01*
X79208754Y-125499696D01*
X79159264Y-125510000D01*
X77760736Y-125510000D01*
X77693697Y-125490315D01*
X77657634Y-125454891D01*
X77640601Y-125429399D01*
X77557739Y-125374033D01*
X77557735Y-125374032D01*
X77484677Y-125359500D01*
X77484674Y-125359500D01*
X76185326Y-125359500D01*
X76158690Y-125364798D01*
X76089098Y-125358569D01*
X76033922Y-125315706D01*
X76010678Y-125249816D01*
X76010500Y-125243180D01*
X76010500Y-124962155D01*
X77460000Y-124962155D01*
X77460000Y-125010000D01*
X78210000Y-125010000D01*
X78710000Y-125010000D01*
X79460000Y-125010000D01*
X79460000Y-124962172D01*
X79459999Y-124962155D01*
X79453598Y-124902627D01*
X79453596Y-124902620D01*
X79403354Y-124767913D01*
X79403350Y-124767906D01*
X79317190Y-124652812D01*
X79317187Y-124652809D01*
X79202093Y-124566649D01*
X79202086Y-124566645D01*
X79067379Y-124516403D01*
X79067372Y-124516401D01*
X79007844Y-124510000D01*
X78710000Y-124510000D01*
X78710000Y-125010000D01*
X78210000Y-125010000D01*
X78210000Y-124510000D01*
X77912155Y-124510000D01*
X77852627Y-124516401D01*
X77852620Y-124516403D01*
X77717913Y-124566645D01*
X77717906Y-124566649D01*
X77602812Y-124652809D01*
X77602809Y-124652812D01*
X77516649Y-124767906D01*
X77516645Y-124767913D01*
X77466403Y-124902620D01*
X77466401Y-124902627D01*
X77460000Y-124962155D01*
X76010500Y-124962155D01*
X76010500Y-120517675D01*
X76030185Y-120450636D01*
X76082989Y-120404881D01*
X76152147Y-120394937D01*
X76215703Y-120423962D01*
G37*
%TD.AperFunction*%
%TA.AperFunction,Conductor*%
G36*
X85595495Y-121720185D02*
G01*
X85616137Y-121736819D01*
X88213181Y-124333863D01*
X88246666Y-124395186D01*
X88249500Y-124421544D01*
X88249500Y-124506804D01*
X88254742Y-124526366D01*
X88259308Y-124543406D01*
X88257645Y-124613256D01*
X88218483Y-124671119D01*
X88154254Y-124698623D01*
X88139533Y-124699500D01*
X87213856Y-124699500D01*
X87124712Y-124723386D01*
X87124709Y-124723387D01*
X87044791Y-124769527D01*
X87044786Y-124769531D01*
X86646137Y-125168181D01*
X86584814Y-125201666D01*
X86558456Y-125204500D01*
X86363418Y-125204500D01*
X86288482Y-125215418D01*
X86288480Y-125215418D01*
X86288478Y-125215419D01*
X86172900Y-125271921D01*
X86172897Y-125271923D01*
X86112681Y-125332140D01*
X86051358Y-125365625D01*
X85981666Y-125360641D01*
X85937319Y-125332140D01*
X85901819Y-125296640D01*
X85868334Y-125235317D01*
X85865500Y-125208959D01*
X85865500Y-124944007D01*
X85885185Y-124876968D01*
X85937989Y-124831213D01*
X85965303Y-124822390D01*
X86022740Y-124810966D01*
X86105601Y-124755601D01*
X86160966Y-124672740D01*
X86175500Y-124599674D01*
X86175500Y-123050326D01*
X86175500Y-123050323D01*
X86175499Y-123050321D01*
X86160967Y-122977264D01*
X86160966Y-122977260D01*
X86152582Y-122964712D01*
X86105601Y-122894399D01*
X86049917Y-122857193D01*
X86022739Y-122839033D01*
X86022735Y-122839032D01*
X85949677Y-122824500D01*
X85949674Y-122824500D01*
X84900326Y-122824500D01*
X84824421Y-122839598D01*
X84776040Y-122839597D01*
X84725309Y-122829506D01*
X84663398Y-122797121D01*
X84628824Y-122736406D01*
X84625500Y-122707889D01*
X84625500Y-122559110D01*
X84625500Y-122559108D01*
X84591392Y-122431814D01*
X84525500Y-122317686D01*
X84432314Y-122224500D01*
X84119995Y-121912181D01*
X84086510Y-121850858D01*
X84091494Y-121781166D01*
X84133366Y-121725233D01*
X84198830Y-121700816D01*
X84207676Y-121700500D01*
X85528456Y-121700500D01*
X85595495Y-121720185D01*
G37*
%TD.AperFunction*%
%TA.AperFunction,Conductor*%
G36*
X95708363Y-120230185D02*
G01*
X95729005Y-120246819D01*
X96284564Y-120802378D01*
X96318049Y-120863701D01*
X96319585Y-120872165D01*
X96324484Y-120905790D01*
X96330419Y-120946524D01*
X96333261Y-120955721D01*
X96330863Y-120956461D01*
X96339500Y-120993784D01*
X96339500Y-121712999D01*
X96319815Y-121780038D01*
X96267011Y-121825793D01*
X96197853Y-121835737D01*
X96144167Y-121812959D01*
X96144004Y-121813235D01*
X96141940Y-121812014D01*
X96139502Y-121810980D01*
X96137290Y-121809264D01*
X95999191Y-121727593D01*
X95999188Y-121727591D01*
X95860001Y-121687153D01*
X95860000Y-121687154D01*
X95860000Y-122626000D01*
X95840315Y-122693039D01*
X95787511Y-122738794D01*
X95736000Y-122750000D01*
X95484000Y-122750000D01*
X95416961Y-122730315D01*
X95371206Y-122677511D01*
X95360000Y-122626000D01*
X95360000Y-121687154D01*
X95359998Y-121687153D01*
X95220811Y-121727591D01*
X95220808Y-121727593D01*
X95082714Y-121809261D01*
X95082705Y-121809268D01*
X94976387Y-121915587D01*
X94915064Y-121949072D01*
X94845372Y-121944088D01*
X94837631Y-121940761D01*
X94836523Y-121940419D01*
X94836518Y-121940418D01*
X94761582Y-121929500D01*
X94418418Y-121929500D01*
X94343482Y-121940418D01*
X94343480Y-121940418D01*
X94343478Y-121940419D01*
X94227900Y-121996921D01*
X94227897Y-121996923D01*
X94136923Y-122087897D01*
X94136921Y-122087900D01*
X94080419Y-122203478D01*
X94080418Y-122203480D01*
X94080418Y-122203482D01*
X94069500Y-122278418D01*
X94069500Y-122721582D01*
X94080418Y-122796518D01*
X94080418Y-122796519D01*
X94080419Y-122796521D01*
X94136921Y-122912099D01*
X94136923Y-122912101D01*
X94136924Y-122912102D01*
X94203182Y-122978360D01*
X94236666Y-123039681D01*
X94239500Y-123066040D01*
X94239500Y-123186144D01*
X94247750Y-123216933D01*
X94256000Y-123247723D01*
X94256000Y-123247724D01*
X94263384Y-123275284D01*
X94263385Y-123275286D01*
X94309527Y-123355208D01*
X94309531Y-123355213D01*
X94364860Y-123410542D01*
X94398345Y-123471865D01*
X94393361Y-123541557D01*
X94364860Y-123585904D01*
X93873125Y-124077638D01*
X93811802Y-124111123D01*
X93742110Y-124106139D01*
X93697763Y-124077638D01*
X93661701Y-124041576D01*
X93628216Y-123980253D01*
X93633200Y-123910561D01*
X93661701Y-123866214D01*
X93683915Y-123844000D01*
X93730470Y-123797445D01*
X93776614Y-123717521D01*
X93779843Y-123705469D01*
X93800500Y-123628377D01*
X93800500Y-121399366D01*
X93820185Y-121332327D01*
X93872989Y-121286572D01*
X93942147Y-121276628D01*
X93971945Y-121284802D01*
X94093238Y-121335044D01*
X94171619Y-121345363D01*
X94249999Y-121355682D01*
X94250000Y-121355682D01*
X94250001Y-121355682D01*
X94302254Y-121348802D01*
X94406762Y-121335044D01*
X94552841Y-121274536D01*
X94678282Y-121178282D01*
X94774536Y-121052841D01*
X94835044Y-120906762D01*
X94835044Y-120906754D01*
X94837149Y-120898906D01*
X94839094Y-120899427D01*
X94862963Y-120845458D01*
X94869949Y-120837863D01*
X95460995Y-120246819D01*
X95522318Y-120213334D01*
X95548676Y-120210500D01*
X95641324Y-120210500D01*
X95708363Y-120230185D01*
G37*
%TD.AperFunction*%
%TA.AperFunction,Conductor*%
G36*
X83017539Y-109357185D02*
G01*
X83063294Y-109409989D01*
X83074500Y-109461500D01*
X83074500Y-109849186D01*
X83074734Y-109852741D01*
X83075000Y-109860851D01*
X83075000Y-110371624D01*
X83075001Y-110371625D01*
X83159334Y-110360523D01*
X83159342Y-110360521D01*
X83296175Y-110303843D01*
X83413681Y-110213678D01*
X83444117Y-110174013D01*
X83500545Y-110132810D01*
X83542492Y-110125499D01*
X83549178Y-110125499D01*
X83549180Y-110125499D01*
X83564372Y-110123499D01*
X83594760Y-110119499D01*
X83647597Y-110094860D01*
X83716671Y-110084369D01*
X83752401Y-110094859D01*
X83805240Y-110119499D01*
X83850821Y-110125500D01*
X84049178Y-110125499D01*
X84049180Y-110125499D01*
X84064372Y-110123499D01*
X84094760Y-110119499D01*
X84147597Y-110094860D01*
X84216671Y-110084369D01*
X84252401Y-110094859D01*
X84305240Y-110119499D01*
X84350821Y-110125500D01*
X84549178Y-110125499D01*
X84590866Y-110120011D01*
X84659898Y-110130777D01*
X84712154Y-110177157D01*
X84731039Y-110244425D01*
X84729987Y-110259133D01*
X84724501Y-110300805D01*
X84724500Y-110300827D01*
X84724500Y-110499180D01*
X84730500Y-110544756D01*
X84730503Y-110544766D01*
X84755138Y-110597596D01*
X84765630Y-110666673D01*
X84755139Y-110702403D01*
X84732712Y-110750500D01*
X84730500Y-110755243D01*
X84724501Y-110800811D01*
X84724500Y-110800827D01*
X84724500Y-110807507D01*
X84704815Y-110874546D01*
X84675987Y-110905882D01*
X84636322Y-110936318D01*
X84546156Y-111053824D01*
X84489478Y-111190657D01*
X84489478Y-111190659D01*
X84478373Y-111275000D01*
X84989134Y-111275000D01*
X84997245Y-111275266D01*
X85000812Y-111275498D01*
X85000821Y-111275500D01*
X85388501Y-111275499D01*
X85455539Y-111295183D01*
X85501294Y-111347987D01*
X85512500Y-111399499D01*
X85512500Y-111400500D01*
X85492815Y-111467539D01*
X85440011Y-111513294D01*
X85388500Y-111524500D01*
X85000817Y-111524500D01*
X84997264Y-111524734D01*
X84989152Y-111525000D01*
X84478374Y-111525000D01*
X84489478Y-111609340D01*
X84489478Y-111609342D01*
X84546156Y-111746175D01*
X84636322Y-111863681D01*
X84675987Y-111894118D01*
X84717189Y-111950546D01*
X84724500Y-111992481D01*
X84724500Y-111999177D01*
X84730500Y-112044756D01*
X84730503Y-112044766D01*
X84755138Y-112097596D01*
X84765630Y-112166673D01*
X84755139Y-112202403D01*
X84737375Y-112240500D01*
X84730500Y-112255243D01*
X84724501Y-112300811D01*
X84724500Y-112300827D01*
X84724500Y-112499180D01*
X84729988Y-112540865D01*
X84719221Y-112609900D01*
X84672840Y-112662155D01*
X84605571Y-112681039D01*
X84590866Y-112679987D01*
X84549193Y-112674501D01*
X84549182Y-112674500D01*
X84549179Y-112674500D01*
X84549172Y-112674500D01*
X84350819Y-112674500D01*
X84305243Y-112680500D01*
X84305238Y-112680501D01*
X84252403Y-112705139D01*
X84183325Y-112715630D01*
X84147595Y-112705138D01*
X84094759Y-112680500D01*
X84049188Y-112674501D01*
X84049185Y-112674500D01*
X84049179Y-112674500D01*
X84049172Y-112674500D01*
X83850819Y-112674500D01*
X83805243Y-112680500D01*
X83805238Y-112680501D01*
X83752403Y-112705139D01*
X83683325Y-112715630D01*
X83647595Y-112705138D01*
X83594759Y-112680500D01*
X83549188Y-112674501D01*
X83549185Y-112674500D01*
X83549179Y-112674500D01*
X83549172Y-112674500D01*
X83350819Y-112674500D01*
X83305243Y-112680500D01*
X83305238Y-112680501D01*
X83252403Y-112705139D01*
X83183325Y-112715630D01*
X83147595Y-112705138D01*
X83094759Y-112680500D01*
X83049188Y-112674501D01*
X83049185Y-112674500D01*
X83049179Y-112674500D01*
X83049172Y-112674500D01*
X82850819Y-112674500D01*
X82805243Y-112680500D01*
X82805238Y-112680501D01*
X82752403Y-112705139D01*
X82683325Y-112715630D01*
X82647595Y-112705138D01*
X82594759Y-112680500D01*
X82549188Y-112674501D01*
X82549185Y-112674500D01*
X82549179Y-112674500D01*
X82549172Y-112674500D01*
X82543339Y-112674500D01*
X82476300Y-112654815D01*
X82430545Y-112602011D01*
X82420400Y-112534314D01*
X82421626Y-112525000D01*
X81637500Y-112525000D01*
X81637500Y-113025000D01*
X81899363Y-113025000D01*
X81899375Y-113024999D01*
X81934313Y-113020399D01*
X82003348Y-113031164D01*
X82055605Y-113077543D01*
X82074500Y-113143338D01*
X82074500Y-113724180D01*
X82080500Y-113769756D01*
X82080502Y-113769763D01*
X82087881Y-113785586D01*
X82099500Y-113837993D01*
X82099500Y-116553456D01*
X82079815Y-116620495D01*
X82063181Y-116641137D01*
X81991137Y-116713181D01*
X81929814Y-116746666D01*
X81903456Y-116749500D01*
X80053856Y-116749500D01*
X79969293Y-116772157D01*
X79969294Y-116772158D01*
X79964712Y-116773385D01*
X79964708Y-116773387D01*
X79884791Y-116819527D01*
X79884786Y-116819531D01*
X79369531Y-117334786D01*
X79369525Y-117334794D01*
X79343156Y-117380468D01*
X79343156Y-117380470D01*
X79323386Y-117414711D01*
X79299500Y-117503856D01*
X79299500Y-118025500D01*
X79279815Y-118092539D01*
X79227011Y-118138294D01*
X79175500Y-118149500D01*
X78674500Y-118149500D01*
X78607461Y-118129815D01*
X78561706Y-118077011D01*
X78550500Y-118025500D01*
X78550500Y-116975323D01*
X78550499Y-116975321D01*
X78535967Y-116902264D01*
X78535966Y-116902260D01*
X78480601Y-116819399D01*
X78411738Y-116773387D01*
X78397739Y-116764033D01*
X78397735Y-116764032D01*
X78324677Y-116749500D01*
X78324674Y-116749500D01*
X76775326Y-116749500D01*
X76775323Y-116749500D01*
X76702264Y-116764032D01*
X76702260Y-116764033D01*
X76619399Y-116819399D01*
X76564033Y-116902260D01*
X76564032Y-116902264D01*
X76549500Y-116975321D01*
X76549500Y-118524678D01*
X76564032Y-118597735D01*
X76564033Y-118597739D01*
X76564034Y-118597740D01*
X76619399Y-118680601D01*
X76702260Y-118735966D01*
X76702264Y-118735967D01*
X76775321Y-118750499D01*
X76775324Y-118750500D01*
X76775326Y-118750500D01*
X78003638Y-118750500D01*
X78070677Y-118770185D01*
X78079125Y-118776125D01*
X78084787Y-118780470D01*
X78139374Y-118811985D01*
X78164712Y-118826614D01*
X78253856Y-118850500D01*
X79175500Y-118850500D01*
X79242539Y-118870185D01*
X79288294Y-118922989D01*
X79299500Y-118974500D01*
X79299500Y-119446143D01*
X79318435Y-119516812D01*
X79323385Y-119535285D01*
X79323387Y-119535290D01*
X79369527Y-119615208D01*
X79369531Y-119615213D01*
X79542137Y-119787819D01*
X79575622Y-119849142D01*
X79570638Y-119918834D01*
X79528766Y-119974767D01*
X79463302Y-119999184D01*
X79454456Y-119999500D01*
X77258675Y-119999500D01*
X77191636Y-119979815D01*
X77170994Y-119963181D01*
X76036819Y-118829005D01*
X76003334Y-118767682D01*
X76000500Y-118741324D01*
X76000500Y-114417676D01*
X76020185Y-114350637D01*
X76072989Y-114304882D01*
X76142147Y-114294938D01*
X76205703Y-114323963D01*
X76212181Y-114329995D01*
X78189500Y-116307314D01*
X78282686Y-116400500D01*
X78396814Y-116466392D01*
X78524108Y-116500500D01*
X79023743Y-116500500D01*
X79090782Y-116520185D01*
X79096099Y-116523924D01*
X79097157Y-116524534D01*
X79097159Y-116524536D01*
X79097160Y-116524536D01*
X79097163Y-116524538D01*
X79118469Y-116533363D01*
X79243238Y-116585044D01*
X79321619Y-116595363D01*
X79399999Y-116605682D01*
X79400000Y-116605682D01*
X79400001Y-116605682D01*
X79452254Y-116598802D01*
X79556762Y-116585044D01*
X79702841Y-116524536D01*
X79828282Y-116428282D01*
X79924536Y-116302841D01*
X79985044Y-116156762D01*
X80005682Y-116000000D01*
X79999099Y-115950000D01*
X79985044Y-115843239D01*
X79985044Y-115843238D01*
X79924536Y-115697159D01*
X79828282Y-115571718D01*
X79702841Y-115475464D01*
X79673187Y-115463181D01*
X79556762Y-115414956D01*
X79556760Y-115414955D01*
X79400001Y-115394318D01*
X79399999Y-115394318D01*
X79243239Y-115414955D01*
X79243234Y-115414957D01*
X79097163Y-115475461D01*
X79090124Y-115479526D01*
X79089117Y-115477783D01*
X79034068Y-115499069D01*
X79023743Y-115499500D01*
X78848676Y-115499500D01*
X78781637Y-115479815D01*
X78760995Y-115463181D01*
X77897814Y-114600000D01*
X79445496Y-114600000D01*
X79487968Y-114746195D01*
X79570278Y-114885374D01*
X79570285Y-114885383D01*
X79684616Y-114999714D01*
X79684625Y-114999721D01*
X79823804Y-115082031D01*
X79979089Y-115127145D01*
X80000000Y-115128789D01*
X80500000Y-115128789D01*
X80520910Y-115127145D01*
X80676195Y-115082031D01*
X80815374Y-114999721D01*
X80815383Y-114999714D01*
X80929714Y-114885383D01*
X80929721Y-114885374D01*
X81012031Y-114746195D01*
X81054504Y-114600000D01*
X80500000Y-114600000D01*
X80500000Y-115128789D01*
X80000000Y-115128789D01*
X80000000Y-114600000D01*
X79445496Y-114600000D01*
X77897814Y-114600000D01*
X76636819Y-113339005D01*
X76603334Y-113277682D01*
X76600500Y-113251324D01*
X76600500Y-112758676D01*
X76620185Y-112691637D01*
X76636819Y-112670995D01*
X77153495Y-112154319D01*
X77214818Y-112120834D01*
X77241176Y-112118000D01*
X77551608Y-112118000D01*
X77683393Y-112118000D01*
X77956608Y-112118000D01*
X78254387Y-112118000D01*
X78321426Y-112137685D01*
X78342068Y-112154319D01*
X78357603Y-112169854D01*
X78357605Y-112169855D01*
X78357609Y-112169859D01*
X78467825Y-112226017D01*
X78467826Y-112226017D01*
X78467828Y-112226018D01*
X78502947Y-112231579D01*
X78559265Y-112240500D01*
X78960734Y-112240499D01*
X78960739Y-112240499D01*
X78960739Y-112240498D01*
X79023812Y-112230509D01*
X79052170Y-112226018D01*
X79052171Y-112226018D01*
X79052172Y-112226017D01*
X79052175Y-112226017D01*
X79162391Y-112169859D01*
X79194565Y-112137685D01*
X79235432Y-112096819D01*
X79296755Y-112063334D01*
X79323113Y-112060500D01*
X79326887Y-112060500D01*
X79393926Y-112080185D01*
X79414568Y-112096819D01*
X79487603Y-112169854D01*
X79487605Y-112169855D01*
X79487609Y-112169859D01*
X79597825Y-112226017D01*
X79597826Y-112226017D01*
X79597828Y-112226018D01*
X79632947Y-112231579D01*
X79689265Y-112240500D01*
X79855381Y-112240499D01*
X79922420Y-112260183D01*
X79968175Y-112312987D01*
X79978119Y-112382145D01*
X79962769Y-112426497D01*
X79939506Y-112466791D01*
X79939505Y-112466793D01*
X79923387Y-112494709D01*
X79923386Y-112494712D01*
X79899500Y-112583856D01*
X79899500Y-112829258D01*
X79879815Y-112896297D01*
X79854437Y-112923168D01*
X79854509Y-112923240D01*
X79852022Y-112925726D01*
X79848389Y-112929574D01*
X79847606Y-112930142D01*
X79760145Y-113017603D01*
X79760142Y-113017608D01*
X79760141Y-113017609D01*
X79741437Y-113054317D01*
X79703981Y-113127827D01*
X79703981Y-113127828D01*
X79689500Y-113219264D01*
X79689500Y-113560733D01*
X79698030Y-113614587D01*
X79689074Y-113683881D01*
X79663237Y-113721665D01*
X79570285Y-113814616D01*
X79570278Y-113814625D01*
X79487968Y-113953804D01*
X79445496Y-114100000D01*
X81054504Y-114100000D01*
X81012031Y-113953804D01*
X80929721Y-113814625D01*
X80929717Y-113814620D01*
X80836762Y-113721666D01*
X80803277Y-113660343D01*
X80801970Y-113614587D01*
X80810500Y-113560735D01*
X80810499Y-113219266D01*
X80810499Y-113219264D01*
X80810499Y-113219260D01*
X80795350Y-113123610D01*
X80804305Y-113054317D01*
X80849301Y-113000865D01*
X80916053Y-112980226D01*
X80965277Y-112989652D01*
X81015660Y-113010522D01*
X81125622Y-113024999D01*
X81125637Y-113025000D01*
X81387500Y-113025000D01*
X81387500Y-112399499D01*
X81407185Y-112332460D01*
X81459989Y-112286705D01*
X81511497Y-112275499D01*
X81899178Y-112275499D01*
X81899182Y-112275499D01*
X81902736Y-112275266D01*
X81910848Y-112275000D01*
X82421626Y-112275000D01*
X82410521Y-112190659D01*
X82410521Y-112190657D01*
X82353843Y-112053824D01*
X82263677Y-111936317D01*
X82224011Y-111905880D01*
X82182809Y-111849451D01*
X82175499Y-111807505D01*
X82175499Y-111800819D01*
X82169499Y-111755243D01*
X82169499Y-111755240D01*
X82144860Y-111702403D01*
X82134369Y-111633327D01*
X82144858Y-111597601D01*
X82169499Y-111544760D01*
X82175500Y-111499179D01*
X82175499Y-111492500D01*
X82195177Y-111425462D01*
X82224016Y-111394114D01*
X82263679Y-111363680D01*
X82353842Y-111246178D01*
X82410521Y-111109342D01*
X82410521Y-111109340D01*
X82421626Y-111025000D01*
X81910866Y-111025000D01*
X81902755Y-111024734D01*
X81899185Y-111024500D01*
X81511500Y-111024500D01*
X81444461Y-111004815D01*
X81398706Y-110952011D01*
X81387500Y-110900500D01*
X81387500Y-110899499D01*
X81407185Y-110832460D01*
X81459989Y-110786705D01*
X81511497Y-110775499D01*
X81899178Y-110775499D01*
X81899182Y-110775499D01*
X81902736Y-110775266D01*
X81910848Y-110775000D01*
X82421626Y-110775000D01*
X82410521Y-110690659D01*
X82410521Y-110690657D01*
X82353843Y-110553824D01*
X82263677Y-110436317D01*
X82224011Y-110405880D01*
X82182809Y-110349451D01*
X82175499Y-110307505D01*
X82175499Y-110300822D01*
X82175497Y-110300805D01*
X82170011Y-110259133D01*
X82180777Y-110190101D01*
X82227157Y-110137845D01*
X82294426Y-110118960D01*
X82309135Y-110120012D01*
X82318603Y-110121258D01*
X82350821Y-110125500D01*
X82357498Y-110125499D01*
X82424537Y-110145177D01*
X82455883Y-110174013D01*
X82486318Y-110213678D01*
X82603824Y-110303843D01*
X82740657Y-110360521D01*
X82740665Y-110360523D01*
X82824998Y-110371625D01*
X82825000Y-110371624D01*
X82825000Y-109860868D01*
X82825265Y-109852759D01*
X82825497Y-109849199D01*
X82825500Y-109849179D01*
X82825499Y-109461498D01*
X82845183Y-109394461D01*
X82897987Y-109348706D01*
X82949499Y-109337500D01*
X82950500Y-109337500D01*
X83017539Y-109357185D01*
G37*
%TD.AperFunction*%
%TA.AperFunction,Conductor*%
G36*
X80848363Y-108020185D02*
G01*
X80869005Y-108036819D01*
X81752686Y-108920500D01*
X81866814Y-108986392D01*
X81982594Y-109017415D01*
X82042254Y-109053779D01*
X82072783Y-109116626D01*
X82074500Y-109137189D01*
X82074500Y-109849180D01*
X82079988Y-109890865D01*
X82069221Y-109959900D01*
X82022840Y-110012155D01*
X81955571Y-110031039D01*
X81940866Y-110029987D01*
X81899193Y-110024501D01*
X81899182Y-110024500D01*
X81899179Y-110024500D01*
X81899172Y-110024500D01*
X81125819Y-110024500D01*
X81080243Y-110030500D01*
X81071128Y-110033157D01*
X81070097Y-110029620D01*
X81018823Y-110037381D01*
X80955054Y-110008828D01*
X80947879Y-110002197D01*
X80660508Y-109714826D01*
X80627023Y-109653503D01*
X80632007Y-109583811D01*
X80636779Y-109572705D01*
X80649582Y-109546518D01*
X80660500Y-109471582D01*
X80660500Y-109028418D01*
X80649582Y-108953482D01*
X80646494Y-108947165D01*
X80593078Y-108837900D01*
X80593076Y-108837897D01*
X80502102Y-108746923D01*
X80502099Y-108746921D01*
X80386521Y-108690419D01*
X80386519Y-108690418D01*
X80386518Y-108690418D01*
X80311582Y-108679500D01*
X79968418Y-108679500D01*
X79893482Y-108690418D01*
X79893481Y-108690418D01*
X79893476Y-108690419D01*
X79884280Y-108693261D01*
X79883694Y-108691367D01*
X79826873Y-108701065D01*
X79762578Y-108673717D01*
X79753613Y-108665587D01*
X79647294Y-108559268D01*
X79647285Y-108559261D01*
X79509191Y-108477593D01*
X79509188Y-108477591D01*
X79370001Y-108437153D01*
X79370000Y-108437154D01*
X79370000Y-109376000D01*
X79350315Y-109443039D01*
X79297511Y-109488794D01*
X79246000Y-109500000D01*
X78350069Y-109500000D01*
X78352832Y-109535122D01*
X78352833Y-109535128D01*
X78397592Y-109689188D01*
X78397593Y-109689191D01*
X78472793Y-109816348D01*
X78489976Y-109884072D01*
X78467816Y-109950335D01*
X78413350Y-109994098D01*
X78400657Y-109998545D01*
X78333808Y-110017966D01*
X78333804Y-110017968D01*
X78194625Y-110100278D01*
X78194616Y-110100285D01*
X78080285Y-110214616D01*
X78080278Y-110214625D01*
X77997968Y-110353804D01*
X77955496Y-110500000D01*
X80016000Y-110500000D01*
X80083039Y-110519685D01*
X80128794Y-110572489D01*
X80140000Y-110624000D01*
X80140000Y-110876000D01*
X80120315Y-110943039D01*
X80067511Y-110988794D01*
X80016000Y-111000000D01*
X77955495Y-111000000D01*
X77935076Y-111027194D01*
X77879082Y-111068984D01*
X77809383Y-111073868D01*
X77748235Y-111040421D01*
X77696819Y-110989005D01*
X77663334Y-110927682D01*
X77660500Y-110901324D01*
X77660500Y-109128676D01*
X77680185Y-109061637D01*
X77696819Y-109040995D01*
X77737814Y-109000000D01*
X78350069Y-109000000D01*
X78870000Y-109000000D01*
X78870000Y-108437154D01*
X78869998Y-108437153D01*
X78730811Y-108477591D01*
X78730808Y-108477593D01*
X78592714Y-108559261D01*
X78592705Y-108559268D01*
X78479268Y-108672705D01*
X78479261Y-108672714D01*
X78397593Y-108810808D01*
X78397592Y-108810811D01*
X78352833Y-108964871D01*
X78352832Y-108964877D01*
X78350069Y-109000000D01*
X77737814Y-109000000D01*
X78700995Y-108036819D01*
X78762318Y-108003334D01*
X78788676Y-108000500D01*
X80781324Y-108000500D01*
X80848363Y-108020185D01*
G37*
%TD.AperFunction*%
%TD*%
%TA.AperFunction,Conductor*%
%TO.N,GND*%
G36*
X111915746Y-122827792D02*
G01*
X111500000Y-123001000D01*
X111084254Y-122827792D01*
X111250000Y-122100000D01*
X111750000Y-122100000D01*
X111915746Y-122827792D01*
G37*
%TD.AperFunction*%
%TD*%
%TA.AperFunction,Conductor*%
%TO.N,GND*%
G36*
X108943039Y-134119685D02*
G01*
X108988794Y-134172489D01*
X109000000Y-134224000D01*
X109000000Y-137926000D01*
X108980315Y-137993039D01*
X108927511Y-138038794D01*
X108876000Y-138050000D01*
X108450000Y-138050000D01*
X108450000Y-144126000D01*
X108430315Y-144193039D01*
X108377511Y-144238794D01*
X108326000Y-144250000D01*
X104124000Y-144250000D01*
X104056961Y-144230315D01*
X104011206Y-144177511D01*
X104000000Y-144126000D01*
X104000000Y-136774000D01*
X104019685Y-136706961D01*
X104072489Y-136661206D01*
X104124000Y-136650000D01*
X107450000Y-136650000D01*
X107450000Y-134224000D01*
X107469685Y-134156961D01*
X107522489Y-134111206D01*
X107574000Y-134100000D01*
X108876000Y-134100000D01*
X108943039Y-134119685D01*
G37*
%TD.AperFunction*%
%TD*%
%TA.AperFunction,Conductor*%
%TO.N,/VSET*%
G36*
X112888984Y-119785750D02*
G01*
X112890224Y-119786714D01*
X113583630Y-120325952D01*
X113588058Y-120333736D01*
X113587200Y-120339802D01*
X113190218Y-121264873D01*
X113183806Y-121271124D01*
X113174852Y-121271011D01*
X113169732Y-121266751D01*
X113087413Y-121143319D01*
X112549665Y-120336996D01*
X112547927Y-120328213D01*
X112548812Y-120325527D01*
X112738544Y-119922675D01*
X112740852Y-119919393D01*
X112873532Y-119786713D01*
X112881804Y-119783287D01*
X112888984Y-119785750D01*
G37*
%TD.AperFunction*%
%TD*%
%TA.AperFunction,Conductor*%
%TO.N,P2110B_RESET*%
G36*
X116288654Y-133716257D02*
G01*
X116442017Y-133851462D01*
X116945789Y-134295585D01*
X116949729Y-134303626D01*
X116948551Y-134309524D01*
X116492670Y-135236480D01*
X116485944Y-135242392D01*
X116477008Y-135241816D01*
X116472437Y-135237809D01*
X115852258Y-134307884D01*
X115850519Y-134299099D01*
X115852158Y-134295053D01*
X116138320Y-133851456D01*
X116139870Y-133849536D01*
X116272646Y-133716760D01*
X116280918Y-133713334D01*
X116288654Y-133716257D01*
G37*
%TD.AperFunction*%
%TD*%
%TA.AperFunction,Conductor*%
%TO.N,SWDIO*%
G36*
X110084489Y-100500865D02*
G01*
X110853724Y-100820472D01*
X110860049Y-100826811D01*
X110860040Y-100835766D01*
X110859706Y-100836497D01*
X110183230Y-102193520D01*
X110176472Y-102199395D01*
X110172759Y-102200000D01*
X109987241Y-102200000D01*
X109978968Y-102196573D01*
X109976770Y-102193520D01*
X109300293Y-100836497D01*
X109299669Y-100827564D01*
X109305544Y-100820806D01*
X109306261Y-100820478D01*
X110075511Y-100500864D01*
X110084466Y-100500856D01*
X110084489Y-100500865D01*
G37*
%TD.AperFunction*%
%TD*%
%TA.AperFunction,Conductor*%
%TO.N,Net-(JP6-B)*%
G36*
X113283831Y-133669927D02*
G01*
X113284506Y-133670661D01*
X113810342Y-134294784D01*
X113813051Y-134303319D01*
X113811132Y-134308808D01*
X113190738Y-135240377D01*
X113183300Y-135245364D01*
X113174515Y-135243630D01*
X113171262Y-135240377D01*
X112550867Y-134308808D01*
X112549133Y-134300023D01*
X112551655Y-134294787D01*
X113077494Y-133670660D01*
X113085446Y-133666543D01*
X113086442Y-133666500D01*
X113275558Y-133666500D01*
X113283831Y-133669927D01*
G37*
%TD.AperFunction*%
%TD*%
%TA.AperFunction,Conductor*%
%TO.N,SWCLK*%
G36*
X107544489Y-100500865D02*
G01*
X108313724Y-100820472D01*
X108320049Y-100826811D01*
X108320040Y-100835766D01*
X108319706Y-100836497D01*
X107643230Y-102193520D01*
X107636472Y-102199395D01*
X107632759Y-102200000D01*
X107447241Y-102200000D01*
X107438968Y-102196573D01*
X107436770Y-102193520D01*
X106760293Y-100836497D01*
X106759669Y-100827564D01*
X106765544Y-100820806D01*
X106766261Y-100820478D01*
X107535511Y-100500864D01*
X107544466Y-100500856D01*
X107544489Y-100500865D01*
G37*
%TD.AperFunction*%
%TD*%
%TA.AperFunction,Conductor*%
%TO.N,/P2110B_VOUT*%
G36*
X109469009Y-119713041D02*
G01*
X110159104Y-120326547D01*
X110163010Y-120334605D01*
X110162540Y-120338642D01*
X109881720Y-121277970D01*
X109876067Y-121284915D01*
X109872813Y-121286090D01*
X109256646Y-121409797D01*
X109247860Y-121408066D01*
X109242872Y-121400629D01*
X109242703Y-121399513D01*
X109107769Y-120064786D01*
X109110347Y-120056211D01*
X109111127Y-120055347D01*
X109452963Y-119713511D01*
X109461235Y-119710085D01*
X109469009Y-119713041D01*
G37*
%TD.AperFunction*%
%TD*%
%TA.AperFunction,Conductor*%
%TO.N,Net-(J4-Pin_1)*%
G36*
X93912507Y-140408975D02*
G01*
X95352572Y-141144636D01*
X95358380Y-141151451D01*
X95357668Y-141160378D01*
X95357627Y-141160458D01*
X94922241Y-141996694D01*
X94915381Y-142002450D01*
X94915368Y-142002454D01*
X94082502Y-142263965D01*
X94073582Y-142263174D01*
X94067834Y-142256307D01*
X94067510Y-142255025D01*
X93712694Y-140421616D01*
X93714487Y-140412844D01*
X93721958Y-140407908D01*
X93724181Y-140407695D01*
X93907185Y-140407695D01*
X93912507Y-140408975D01*
G37*
%TD.AperFunction*%
%TD*%
%TA.AperFunction,Conductor*%
%TO.N,/P2110B_VOUT*%
G36*
X109884818Y-121294983D02*
G01*
X109888395Y-121298440D01*
X110508961Y-122228944D01*
X110510700Y-122237729D01*
X110507931Y-122243254D01*
X110130225Y-122663742D01*
X110129794Y-122664197D01*
X109786870Y-123007121D01*
X109778597Y-123010548D01*
X109770324Y-123007121D01*
X109768675Y-123005048D01*
X109555545Y-122663970D01*
X109292285Y-122242668D01*
X109290808Y-122233838D01*
X109292257Y-122230316D01*
X109868712Y-121298774D01*
X109875979Y-121293543D01*
X109884818Y-121294983D01*
G37*
%TD.AperFunction*%
%TD*%
%TA.AperFunction,Conductor*%
%TO.N,GND*%
G36*
X112243039Y-134119685D02*
G01*
X112288794Y-134172489D01*
X112300000Y-134224000D01*
X112300000Y-136650000D01*
X115576000Y-136650000D01*
X115643039Y-136669685D01*
X115688794Y-136722489D01*
X115700000Y-136774000D01*
X115700000Y-144126000D01*
X115680315Y-144193039D01*
X115627511Y-144238794D01*
X115576000Y-144250000D01*
X111424000Y-144250000D01*
X111356961Y-144230315D01*
X111311206Y-144177511D01*
X111300000Y-144126000D01*
X111300000Y-138050000D01*
X110864000Y-138050000D01*
X110796961Y-138030315D01*
X110751206Y-137977511D01*
X110740000Y-137926000D01*
X110740000Y-134224000D01*
X110759685Y-134156961D01*
X110812489Y-134111206D01*
X110864000Y-134100000D01*
X112176000Y-134100000D01*
X112243039Y-134119685D01*
G37*
%TD.AperFunction*%
%TD*%
%TA.AperFunction,Conductor*%
%TO.N,Net-(J4-Pin_2)*%
G36*
X96335490Y-140729504D02*
G01*
X97773396Y-141210724D01*
X97780154Y-141216599D01*
X97780778Y-141225532D01*
X97780497Y-141226285D01*
X97462562Y-141996214D01*
X97456237Y-142002553D01*
X97456214Y-142002562D01*
X96686285Y-142320497D01*
X96677330Y-142320488D01*
X96671005Y-142314149D01*
X96670724Y-142313396D01*
X96566695Y-142002553D01*
X96189505Y-140875492D01*
X96190129Y-140866562D01*
X96192324Y-140863512D01*
X96323510Y-140732326D01*
X96331782Y-140728900D01*
X96335490Y-140729504D01*
G37*
%TD.AperFunction*%
%TD*%
%TA.AperFunction,Conductor*%
%TO.N,Net-(JP5-B)*%
G36*
X114582103Y-133738715D02*
G01*
X115260581Y-134295788D01*
X115264801Y-134303687D01*
X115263802Y-134309687D01*
X114841427Y-135235590D01*
X114834875Y-135241695D01*
X114825926Y-135241379D01*
X114821049Y-135237227D01*
X114200939Y-134307407D01*
X114199201Y-134298623D01*
X114200423Y-134295277D01*
X114431685Y-133874860D01*
X114433656Y-133872235D01*
X114566407Y-133739484D01*
X114574679Y-133736058D01*
X114582103Y-133738715D01*
G37*
%TD.AperFunction*%
%TD*%
M02*
