%TF.GenerationSoftware,KiCad,Pcbnew,8.0.2*%
%TF.CreationDate,2024-07-16T11:33:13-07:00*%
%TF.ProjectId,sensor-node-rev-2,73656e73-6f72-42d6-9e6f-64652d726576,rev?*%
%TF.SameCoordinates,Original*%
%TF.FileFunction,Paste,Top*%
%TF.FilePolarity,Positive*%
%FSLAX46Y46*%
G04 Gerber Fmt 4.6, Leading zero omitted, Abs format (unit mm)*
G04 Created by KiCad (PCBNEW 8.0.2) date 2024-07-16 11:33:13*
%MOMM*%
%LPD*%
G01*
G04 APERTURE LIST*
G04 Aperture macros list*
%AMRoundRect*
0 Rectangle with rounded corners*
0 $1 Rounding radius*
0 $2 $3 $4 $5 $6 $7 $8 $9 X,Y pos of 4 corners*
0 Add a 4 corners polygon primitive as box body*
4,1,4,$2,$3,$4,$5,$6,$7,$8,$9,$2,$3,0*
0 Add four circle primitives for the rounded corners*
1,1,$1+$1,$2,$3*
1,1,$1+$1,$4,$5*
1,1,$1+$1,$6,$7*
1,1,$1+$1,$8,$9*
0 Add four rect primitives between the rounded corners*
20,1,$1+$1,$2,$3,$4,$5,0*
20,1,$1+$1,$4,$5,$6,$7,0*
20,1,$1+$1,$6,$7,$8,$9,0*
20,1,$1+$1,$8,$9,$2,$3,0*%
%AMRotRect*
0 Rectangle, with rotation*
0 The origin of the aperture is its center*
0 $1 length*
0 $2 width*
0 $3 Rotation angle, in degrees counterclockwise*
0 Add horizontal line*
21,1,$1,$2,0,0,$3*%
G04 Aperture macros list end*
%ADD10RoundRect,0.135000X0.185000X-0.135000X0.185000X0.135000X-0.185000X0.135000X-0.185000X-0.135000X0*%
%ADD11RoundRect,0.140000X0.140000X0.170000X-0.140000X0.170000X-0.140000X-0.170000X0.140000X-0.170000X0*%
%ADD12RoundRect,0.100000X-0.100000X0.225000X-0.100000X-0.225000X0.100000X-0.225000X0.100000X0.225000X0*%
%ADD13R,1.270000X1.905000*%
%ADD14RoundRect,0.135000X0.135000X0.185000X-0.135000X0.185000X-0.135000X-0.185000X0.135000X-0.185000X0*%
%ADD15RoundRect,0.140000X-0.219203X-0.021213X-0.021213X-0.219203X0.219203X0.021213X0.021213X0.219203X0*%
%ADD16RoundRect,0.140000X-0.170000X0.140000X-0.170000X-0.140000X0.170000X-0.140000X0.170000X0.140000X0*%
%ADD17RotRect,0.300000X0.850000X135.000000*%
%ADD18RotRect,0.300000X0.850000X45.000000*%
%ADD19RotRect,3.700000X3.700000X45.000000*%
%ADD20RoundRect,0.140000X0.170000X-0.140000X0.170000X0.140000X-0.170000X0.140000X-0.170000X-0.140000X0*%
%ADD21RoundRect,0.140000X-0.021213X0.219203X-0.219203X0.021213X0.021213X-0.219203X0.219203X-0.021213X0*%
%ADD22RoundRect,0.140000X0.219203X0.021213X0.021213X0.219203X-0.219203X-0.021213X-0.021213X-0.219203X0*%
%ADD23R,1.250000X0.600000*%
%ADD24R,1.000000X0.500000*%
%ADD25RoundRect,0.250000X0.255000X-0.255000X0.255000X0.255000X-0.255000X0.255000X-0.255000X-0.255000X0*%
%ADD26RoundRect,0.062500X0.062500X-0.350000X0.062500X0.350000X-0.062500X0.350000X-0.062500X-0.350000X0*%
%ADD27RoundRect,0.062500X0.350000X-0.062500X0.350000X0.062500X-0.350000X0.062500X-0.350000X-0.062500X0*%
%ADD28RoundRect,0.147500X0.147500X0.172500X-0.147500X0.172500X-0.147500X-0.172500X0.147500X-0.172500X0*%
%ADD29R,0.450000X1.450000*%
%ADD30RoundRect,0.135000X-0.135000X-0.185000X0.135000X-0.185000X0.135000X0.185000X-0.135000X0.185000X0*%
%ADD31R,1.150000X1.400000*%
%ADD32RoundRect,0.140000X-0.140000X-0.170000X0.140000X-0.170000X0.140000X0.170000X-0.140000X0.170000X0*%
%ADD33RoundRect,0.147500X0.172500X-0.147500X0.172500X0.147500X-0.172500X0.147500X-0.172500X-0.147500X0*%
%ADD34RoundRect,0.147500X-0.147500X-0.172500X0.147500X-0.172500X0.147500X0.172500X-0.147500X0.172500X0*%
%ADD35R,2.300000X3.200000*%
%ADD36RoundRect,0.135000X-0.185000X0.135000X-0.185000X-0.135000X0.185000X-0.135000X0.185000X0.135000X0*%
%ADD37R,2.286000X5.842000*%
%ADD38R,2.413000X5.842000*%
%ADD39R,1.600000X1.000000*%
%ADD40R,1.450000X0.700000*%
G04 APERTURE END LIST*
D10*
%TO.C,R11*%
X89900000Y-137410000D03*
X89900000Y-136390000D03*
%TD*%
D11*
%TO.C,C10*%
X89180000Y-115100000D03*
X88220000Y-115100000D03*
%TD*%
D12*
%TO.C,U4*%
X88500000Y-134115000D03*
X87850000Y-134115000D03*
X87200000Y-134115000D03*
X87200000Y-136015000D03*
X88500000Y-136015000D03*
%TD*%
D13*
%TO.C,PS1*%
X106577000Y-135254000D03*
X108228000Y-135254000D03*
X109879000Y-135254000D03*
X111530000Y-135254000D03*
X113181000Y-135254000D03*
X114832000Y-135254000D03*
X116483000Y-135254000D03*
X116483000Y-121284000D03*
X114832000Y-121284000D03*
X113181000Y-121284000D03*
X111530000Y-121284000D03*
X109879000Y-121284000D03*
X108228000Y-121284000D03*
X106577000Y-121284000D03*
%TD*%
D14*
%TO.C,R13*%
X84710000Y-137445000D03*
X83690000Y-137445000D03*
%TD*%
D15*
%TO.C,C4*%
X95900589Y-125450589D03*
X96579411Y-126129411D03*
%TD*%
D14*
%TO.C,R5*%
X82560000Y-122950000D03*
X81540000Y-122950000D03*
%TD*%
D16*
%TO.C,C9*%
X80250000Y-113390000D03*
X80250000Y-114350000D03*
%TD*%
D10*
%TO.C,R14*%
X89900000Y-135390000D03*
X89900000Y-134370000D03*
%TD*%
D17*
%TO.C,U1*%
X89030152Y-127294975D03*
X89383705Y-127648528D03*
X89737258Y-128002082D03*
X90090812Y-128355635D03*
X90444365Y-128709188D03*
X90797918Y-129062742D03*
X91151472Y-129416295D03*
X91505025Y-129769848D03*
D18*
X92494975Y-129769848D03*
X92848528Y-129416295D03*
X93202082Y-129062742D03*
X93555635Y-128709188D03*
X93909188Y-128355635D03*
X94262742Y-128002082D03*
X94616295Y-127648528D03*
X94969848Y-127294975D03*
D17*
X94969848Y-126305025D03*
X94616295Y-125951472D03*
X94262742Y-125597918D03*
X93909188Y-125244365D03*
X93555635Y-124890812D03*
X93202082Y-124537258D03*
X92848528Y-124183705D03*
X92494975Y-123830152D03*
D18*
X91505025Y-123830152D03*
X91151472Y-124183705D03*
X90797918Y-124537258D03*
X90444365Y-124890812D03*
X90090812Y-125244365D03*
X89737258Y-125597918D03*
X89383705Y-125951472D03*
X89030152Y-126305025D03*
D19*
X92000000Y-126800000D03*
%TD*%
D20*
%TO.C,C14*%
X78760000Y-111710000D03*
X78760000Y-110750000D03*
%TD*%
D21*
%TO.C,C2*%
X89389411Y-130010589D03*
X88710589Y-130689411D03*
%TD*%
D22*
%TO.C,C3*%
X88079411Y-128129411D03*
X87400589Y-127450589D03*
%TD*%
D23*
%TO.C,S4*%
X76835000Y-125910000D03*
X80085000Y-125910000D03*
X76835000Y-127910000D03*
X80085000Y-127910000D03*
D24*
X78460000Y-125260000D03*
X78460000Y-128560000D03*
%TD*%
D25*
%TO.C,U2*%
X82825000Y-112025000D03*
X84075000Y-112025000D03*
X82825000Y-110775000D03*
X84075000Y-110775000D03*
D26*
X82450000Y-113337500D03*
X82950000Y-113337500D03*
X83450000Y-113337500D03*
X83950000Y-113337500D03*
X84450000Y-113337500D03*
D27*
X85387500Y-112400000D03*
X85387500Y-111900000D03*
X85387500Y-111400000D03*
X85387500Y-110900000D03*
X85387500Y-110400000D03*
D26*
X84450000Y-109462500D03*
X83950000Y-109462500D03*
X83450000Y-109462500D03*
X82950000Y-109462500D03*
X82450000Y-109462500D03*
D27*
X81512500Y-110400000D03*
X81512500Y-110900000D03*
X81512500Y-111400000D03*
X81512500Y-111900000D03*
X81512500Y-112400000D03*
%TD*%
D11*
%TO.C,C23*%
X88480000Y-137500000D03*
X87520000Y-137500000D03*
%TD*%
D20*
%TO.C,C24*%
X83050000Y-129780000D03*
X83050000Y-128820000D03*
%TD*%
D14*
%TO.C,R1*%
X86535000Y-125775000D03*
X85515000Y-125775000D03*
%TD*%
D28*
%TO.C,D1*%
X98835000Y-121800000D03*
X97865000Y-121800000D03*
%TD*%
D29*
%TO.C,IC2*%
X83050000Y-135815000D03*
X83700000Y-135815000D03*
X84350000Y-135815000D03*
X85000000Y-135815000D03*
X85000000Y-131365000D03*
X84350000Y-131365000D03*
X83700000Y-131365000D03*
X83050000Y-131365000D03*
%TD*%
D30*
%TO.C,R2*%
X101290000Y-121400000D03*
X102310000Y-121400000D03*
%TD*%
D31*
%TO.C,Y1*%
X89627500Y-112837500D03*
X89627500Y-110637500D03*
X88027500Y-110637500D03*
X88027500Y-112837500D03*
%TD*%
D30*
%TO.C,R4*%
X96840000Y-120650000D03*
X97860000Y-120650000D03*
%TD*%
D14*
%TO.C,R8*%
X80140000Y-109250000D03*
X79120000Y-109250000D03*
%TD*%
D32*
%TO.C,C12*%
X88270000Y-108350000D03*
X89230000Y-108350000D03*
%TD*%
D33*
%TO.C,L3*%
X83327500Y-107122500D03*
X83327500Y-106152500D03*
%TD*%
D34*
%TO.C,D2*%
X80565000Y-121750000D03*
X81535000Y-121750000D03*
%TD*%
D35*
%TO.C,C8*%
X113900000Y-115700000D03*
X120100000Y-115700000D03*
%TD*%
D34*
%TO.C,L2*%
X84342500Y-107137500D03*
X85312500Y-107137500D03*
%TD*%
D36*
%TO.C,R3*%
X102300000Y-119490000D03*
X102300000Y-120510000D03*
%TD*%
D20*
%TO.C,C18*%
X86427500Y-106117500D03*
X86427500Y-105157500D03*
%TD*%
D30*
%TO.C,R10*%
X94590000Y-122500000D03*
X95610000Y-122500000D03*
%TD*%
D35*
%TO.C,C6*%
X111100000Y-115700000D03*
X104900000Y-115700000D03*
%TD*%
D14*
%TO.C,R6*%
X93810000Y-137400000D03*
X92790000Y-137400000D03*
%TD*%
D35*
%TO.C,C5*%
X111100000Y-108700000D03*
X104900000Y-108700000D03*
%TD*%
D16*
%TO.C,C17*%
X85327500Y-105157500D03*
X85327500Y-106117500D03*
%TD*%
D20*
%TO.C,C15*%
X83320000Y-105170000D03*
X83320000Y-104210000D03*
%TD*%
%TO.C,C22*%
X82300000Y-124930000D03*
X82300000Y-123970000D03*
%TD*%
D37*
%TO.C,J3*%
X109875000Y-141235600D03*
D38*
X114256500Y-141235600D03*
X105493500Y-141235600D03*
%TD*%
D35*
%TO.C,C1*%
X113900000Y-108700000D03*
X120100000Y-108700000D03*
%TD*%
D22*
%TO.C,C7*%
X86339411Y-127839411D03*
X85660589Y-127160589D03*
%TD*%
D20*
%TO.C,C13*%
X79890000Y-111710000D03*
X79890000Y-110750000D03*
%TD*%
D39*
%TO.C,S1*%
X101950000Y-137850000D03*
X99650000Y-136100000D03*
X101950000Y-134350000D03*
%TD*%
D40*
%TO.C,IC1*%
X84100000Y-139045000D03*
X84100000Y-140315000D03*
X84100000Y-141585000D03*
X84100000Y-142855000D03*
X89700000Y-142855000D03*
X89700000Y-141585000D03*
X89700000Y-140315000D03*
X89700000Y-139045000D03*
%TD*%
D39*
%TO.C,S5*%
X100450000Y-117050000D03*
X98150000Y-115300000D03*
X100450000Y-113550000D03*
%TD*%
D34*
%TO.C,L1*%
X83342500Y-108190000D03*
X84312500Y-108190000D03*
%TD*%
D11*
%TO.C,C16*%
X83330000Y-103210000D03*
X82370000Y-103210000D03*
%TD*%
D14*
%TO.C,R7*%
X95910000Y-137400000D03*
X94890000Y-137400000D03*
%TD*%
M02*
