%TF.GenerationSoftware,KiCad,Pcbnew,8.0.2*%
%TF.CreationDate,2024-07-16T13:24:56-07:00*%
%TF.ProjectId,sensor-node-rev-2,73656e73-6f72-42d6-9e6f-64652d726576,rev?*%
%TF.SameCoordinates,Original*%
%TF.FileFunction,Copper,L2,Bot*%
%TF.FilePolarity,Positive*%
%FSLAX46Y46*%
G04 Gerber Fmt 4.6, Leading zero omitted, Abs format (unit mm)*
G04 Created by KiCad (PCBNEW 8.0.2) date 2024-07-16 13:24:56*
%MOMM*%
%LPD*%
G01*
G04 APERTURE LIST*
%TA.AperFunction,ComponentPad*%
%ADD10R,1.700000X1.700000*%
%TD*%
%TA.AperFunction,ComponentPad*%
%ADD11O,1.700000X1.700000*%
%TD*%
%TA.AperFunction,ComponentPad*%
%ADD12C,4.400000*%
%TD*%
%TA.AperFunction,ViaPad*%
%ADD13C,0.700000*%
%TD*%
%TA.AperFunction,ViaPad*%
%ADD14C,0.900000*%
%TD*%
%TA.AperFunction,Conductor*%
%ADD15C,0.300000*%
%TD*%
%TA.AperFunction,Conductor*%
%ADD16C,0.200000*%
%TD*%
%TA.AperFunction,Conductor*%
%ADD17C,0.500000*%
%TD*%
G04 APERTURE END LIST*
D10*
%TO.P,J2,1,Pin_1*%
%TO.N,GND*%
X105000000Y-100500000D03*
D11*
%TO.P,J2,2,Pin_2*%
%TO.N,SWCLK*%
X107540000Y-100500000D03*
%TO.P,J2,3,Pin_3*%
%TO.N,SWDIO*%
X110080000Y-100500000D03*
%TO.P,J2,4,Pin_4*%
%TO.N,+3.3V*%
X112620000Y-100500000D03*
%TD*%
D12*
%TO.P,H3,1,1*%
%TO.N,GND*%
X118500000Y-100500000D03*
%TD*%
%TO.P,H4,1,1*%
%TO.N,GND*%
X118500000Y-140500000D03*
%TD*%
D10*
%TO.P,J4,1,Pin_1*%
%TO.N,Net-(J4-Pin_1)*%
X94920000Y-142000000D03*
D11*
%TO.P,J4,2,Pin_2*%
%TO.N,Net-(J4-Pin_2)*%
X97460000Y-142000000D03*
%TO.P,J4,3,Pin_3*%
%TO.N,GND*%
X100000000Y-142000000D03*
%TD*%
D12*
%TO.P,H2,1,1*%
%TO.N,GND*%
X78500000Y-140500000D03*
%TD*%
D13*
%TO.N,GND*%
X86300000Y-132300000D03*
X92400000Y-107200000D03*
X82750000Y-110700000D03*
X80600000Y-105200000D03*
X85350000Y-104250000D03*
X97400000Y-137200000D03*
X82190000Y-142830000D03*
X89300000Y-102800000D03*
X116880000Y-128800000D03*
X80000000Y-124400000D03*
X84150000Y-112100000D03*
X87100000Y-130700000D03*
X88200000Y-133200000D03*
X100070000Y-132410000D03*
X117580000Y-123520000D03*
X100150000Y-139600000D03*
X88000000Y-140000000D03*
X98700000Y-138200000D03*
X81400000Y-115600000D03*
X102880000Y-112260000D03*
X78900000Y-102800000D03*
X81460000Y-114360000D03*
X81950000Y-141150000D03*
X92260000Y-110820000D03*
X84150000Y-110700000D03*
D14*
X104750000Y-140700000D03*
D13*
X115710000Y-123890000D03*
X85900000Y-102800000D03*
X78410000Y-127050000D03*
X77000000Y-124000000D03*
X75490000Y-107420000D03*
X81420000Y-103410000D03*
X84972120Y-126602880D03*
X87740000Y-125740000D03*
X93800000Y-126800000D03*
X95500000Y-121000000D03*
X80480000Y-123040000D03*
X92000000Y-128600000D03*
X90300000Y-126800000D03*
X92030000Y-114680000D03*
X87870000Y-131390000D03*
X88000000Y-139000000D03*
X82025000Y-127275000D03*
D14*
X104750000Y-142100000D03*
D13*
X92700000Y-102800000D03*
X100000000Y-129000000D03*
X116420000Y-130870000D03*
D14*
X115000000Y-142100000D03*
D13*
X99900000Y-120750000D03*
X96100000Y-102800000D03*
X77200000Y-105200000D03*
X99820000Y-134220000D03*
X102560000Y-109460000D03*
X95864873Y-128190000D03*
D14*
X111500000Y-123000000D03*
D13*
X92960000Y-118340000D03*
X91100000Y-142500000D03*
X90800000Y-105600000D03*
X100200000Y-122450000D03*
X82750000Y-112100000D03*
X81840000Y-128240000D03*
X97500000Y-127500000D03*
X100000000Y-127500000D03*
X78800000Y-114200000D03*
X75470000Y-110280000D03*
X86427500Y-104277500D03*
X102130000Y-132410000D03*
X107900000Y-131410000D03*
X87700000Y-124400000D03*
X87000000Y-139000000D03*
X81230000Y-102390000D03*
X92000000Y-125000000D03*
D14*
X115000000Y-140700000D03*
D13*
X78070000Y-109240000D03*
X89900000Y-133500000D03*
X101500000Y-97500000D03*
X101500000Y-100900000D03*
X99500000Y-102800000D03*
X114920000Y-128260000D03*
X77600000Y-113200000D03*
X75500000Y-102800000D03*
X97500000Y-129000000D03*
%TO.N,USART1_RX*%
X95800000Y-129600000D03*
X95800000Y-131000000D03*
%TO.N,NRF_SCK*%
X84489810Y-120280190D03*
X90100000Y-122650000D03*
%TO.N,NRF_MISO*%
X86125000Y-117075000D03*
X92100000Y-117075000D03*
%TO.N,Net-(JP9-B)*%
X107500000Y-128500000D03*
X109100000Y-126900000D03*
%TO.N,NRF_MOSI*%
X91400000Y-116425000D03*
X84525000Y-116425000D03*
%TO.N,VDD*%
X89575000Y-131370000D03*
X96840000Y-122800000D03*
X94250000Y-120750000D03*
X79400000Y-116000000D03*
X96840000Y-125000000D03*
X90900000Y-132680000D03*
X89150000Y-117825000D03*
%TO.N,POWER_LED_EN*%
X98850000Y-131150000D03*
X98850000Y-122800000D03*
%TD*%
D15*
%TO.N,USART1_RX*%
X95800000Y-131000000D02*
X95800000Y-129600000D01*
D16*
%TO.N,NRF_SCK*%
X84490000Y-120280000D02*
X86930000Y-120280000D01*
X84489810Y-120280190D02*
X84490000Y-120280000D01*
X89300000Y-122650000D02*
X90100000Y-122650000D01*
X86930000Y-120280000D02*
X89300000Y-122650000D01*
%TO.N,NRF_MISO*%
X92100000Y-117075000D02*
X86125000Y-117075000D01*
%TO.N,Net-(JP9-B)*%
X109100000Y-126900000D02*
X107500000Y-128500000D01*
%TO.N,NRF_MOSI*%
X91400000Y-116425000D02*
X84525000Y-116425000D01*
D17*
%TO.N,VDD*%
X92150000Y-120750000D02*
X94250000Y-120750000D01*
X81825000Y-117825000D02*
X89150000Y-117825000D01*
D15*
X90885000Y-132680000D02*
X89575000Y-131370000D01*
D17*
X96840000Y-122800000D02*
X96840000Y-125000000D01*
D15*
X90900000Y-132680000D02*
X90885000Y-132680000D01*
D17*
X79400000Y-116000000D02*
X80000000Y-116000000D01*
X89225000Y-117825000D02*
X92150000Y-120750000D01*
X80000000Y-116000000D02*
X81825000Y-117825000D01*
D15*
%TO.N,POWER_LED_EN*%
X98850000Y-122800000D02*
X98850000Y-131150000D01*
%TD*%
%TA.AperFunction,Conductor*%
%TO.N,GND*%
G36*
X117002562Y-96500605D02*
G01*
X117449036Y-96519072D01*
X117459209Y-96519915D01*
X117900114Y-96574873D01*
X117910194Y-96576555D01*
X118345042Y-96667733D01*
X118354950Y-96670242D01*
X118780786Y-96797019D01*
X118790454Y-96800338D01*
X119131430Y-96933388D01*
X119204339Y-96961838D01*
X119213724Y-96965954D01*
X119612869Y-97161083D01*
X119621877Y-97165958D01*
X120003544Y-97393383D01*
X120012123Y-97398989D01*
X120373693Y-97657144D01*
X120381770Y-97663431D01*
X120720796Y-97950571D01*
X120728336Y-97957512D01*
X121042487Y-98271663D01*
X121049428Y-98279203D01*
X121269554Y-98539106D01*
X121336564Y-98618224D01*
X121342859Y-98626312D01*
X121601010Y-98987876D01*
X121606616Y-98996455D01*
X121834041Y-99378122D01*
X121838919Y-99387136D01*
X122034045Y-99786275D01*
X122038161Y-99795660D01*
X122199656Y-100209533D01*
X122202984Y-100219226D01*
X122329753Y-100645036D01*
X122332269Y-100654971D01*
X122423441Y-101089791D01*
X122425128Y-101099900D01*
X122480082Y-101540769D01*
X122480928Y-101550983D01*
X122499393Y-101997436D01*
X122499499Y-102002560D01*
X122499499Y-138997437D01*
X122499393Y-139002561D01*
X122480927Y-139449015D01*
X122480081Y-139459229D01*
X122425127Y-139900098D01*
X122423440Y-139910207D01*
X122332268Y-140345028D01*
X122329752Y-140354963D01*
X122202983Y-140780772D01*
X122199655Y-140790465D01*
X122038157Y-141204348D01*
X122034040Y-141213733D01*
X121838922Y-141612853D01*
X121834045Y-141621867D01*
X121606615Y-142003544D01*
X121601009Y-142012123D01*
X121342859Y-142373686D01*
X121336564Y-142381774D01*
X121049427Y-142720795D01*
X121042486Y-142728335D01*
X120728335Y-143042486D01*
X120720795Y-143049427D01*
X120381774Y-143336564D01*
X120373686Y-143342859D01*
X120012123Y-143601009D01*
X120003544Y-143606615D01*
X119621867Y-143834045D01*
X119612853Y-143838922D01*
X119213733Y-144034040D01*
X119204348Y-144038157D01*
X118790465Y-144199655D01*
X118780772Y-144202983D01*
X118354963Y-144329752D01*
X118345028Y-144332268D01*
X117910207Y-144423440D01*
X117900098Y-144425127D01*
X117459229Y-144480081D01*
X117449015Y-144480927D01*
X117002562Y-144499393D01*
X116997438Y-144499499D01*
X80002562Y-144499499D01*
X79997438Y-144499393D01*
X79550984Y-144480927D01*
X79540770Y-144480081D01*
X79099901Y-144425127D01*
X79089792Y-144423440D01*
X78654971Y-144332268D01*
X78645036Y-144329752D01*
X78219227Y-144202983D01*
X78209534Y-144199655D01*
X77795651Y-144038157D01*
X77786266Y-144034040D01*
X77387146Y-143838922D01*
X77378132Y-143834045D01*
X76996455Y-143606615D01*
X76987876Y-143601009D01*
X76626313Y-143342859D01*
X76618225Y-143336564D01*
X76611223Y-143330634D01*
X76370005Y-143126332D01*
X76279204Y-143049427D01*
X76271664Y-143042486D01*
X75957513Y-142728335D01*
X75950572Y-142720795D01*
X75843295Y-142594134D01*
X75663431Y-142381769D01*
X75657140Y-142373686D01*
X75609532Y-142307007D01*
X75398990Y-142012123D01*
X75393384Y-142003544D01*
X75165954Y-141621867D01*
X75161077Y-141612853D01*
X74965959Y-141213733D01*
X74961842Y-141204348D01*
X74891742Y-141024697D01*
X74800339Y-140790453D01*
X74797020Y-140780785D01*
X74713426Y-140500000D01*
X75795065Y-140500000D01*
X75814786Y-140826038D01*
X75873667Y-141147341D01*
X75970835Y-141459164D01*
X75970839Y-141459175D01*
X76104897Y-141757041D01*
X76104898Y-141757043D01*
X76273881Y-142036576D01*
X76421476Y-142224968D01*
X77563708Y-141082736D01*
X77660967Y-141216602D01*
X77783398Y-141339033D01*
X77917262Y-141436290D01*
X76775030Y-142578522D01*
X76775030Y-142578523D01*
X76963423Y-142726118D01*
X77242956Y-142895101D01*
X77242958Y-142895102D01*
X77540824Y-143029160D01*
X77540835Y-143029164D01*
X77852658Y-143126332D01*
X78173961Y-143185213D01*
X78500000Y-143204934D01*
X78826038Y-143185213D01*
X79147341Y-143126332D01*
X79459164Y-143029164D01*
X79459175Y-143029160D01*
X79757041Y-142895102D01*
X79757043Y-142895101D01*
X80036586Y-142726112D01*
X80224968Y-142578523D01*
X80224968Y-142578522D01*
X79082737Y-141436290D01*
X79216602Y-141339033D01*
X79339033Y-141216602D01*
X79436290Y-141082737D01*
X80578522Y-142224968D01*
X80578523Y-142224968D01*
X80726112Y-142036586D01*
X80895101Y-141757043D01*
X80895102Y-141757041D01*
X81029160Y-141459175D01*
X81029164Y-141459164D01*
X81126332Y-141147341D01*
X81131622Y-141118475D01*
X93669500Y-141118475D01*
X93669500Y-142881517D01*
X93671652Y-142895102D01*
X93684354Y-142975304D01*
X93741950Y-143088342D01*
X93741952Y-143088344D01*
X93741954Y-143088347D01*
X93831652Y-143178045D01*
X93831654Y-143178046D01*
X93831658Y-143178050D01*
X93944694Y-143235645D01*
X93944698Y-143235647D01*
X94038475Y-143250499D01*
X94038481Y-143250500D01*
X95801518Y-143250499D01*
X95895304Y-143235646D01*
X96008342Y-143178050D01*
X96098050Y-143088342D01*
X96155646Y-142975304D01*
X96155646Y-142975302D01*
X96155647Y-142975301D01*
X96170499Y-142881524D01*
X96170500Y-142881519D01*
X96170499Y-142731859D01*
X96190183Y-142664823D01*
X96242987Y-142619068D01*
X96312145Y-142609124D01*
X96375701Y-142638149D01*
X96396073Y-142660738D01*
X96498402Y-142806877D01*
X96653123Y-142961598D01*
X96832361Y-143087102D01*
X97030670Y-143179575D01*
X97242023Y-143236207D01*
X97424926Y-143252208D01*
X97459998Y-143255277D01*
X97460000Y-143255277D01*
X97460002Y-143255277D01*
X97488254Y-143252805D01*
X97677977Y-143236207D01*
X97889330Y-143179575D01*
X98087639Y-143087102D01*
X98266877Y-142961598D01*
X98421598Y-142806877D01*
X98547102Y-142627639D01*
X98562726Y-142594132D01*
X98608896Y-142541695D01*
X98676090Y-142522543D01*
X98742971Y-142542758D01*
X98787489Y-142594134D01*
X98826399Y-142677578D01*
X98961894Y-142871082D01*
X99128917Y-143038105D01*
X99322421Y-143173600D01*
X99536507Y-143273429D01*
X99536516Y-143273433D01*
X99750000Y-143330634D01*
X99750000Y-142433012D01*
X99807007Y-142465925D01*
X99934174Y-142500000D01*
X100065826Y-142500000D01*
X100192993Y-142465925D01*
X100250000Y-142433012D01*
X100250000Y-143330633D01*
X100463483Y-143273433D01*
X100463492Y-143273429D01*
X100677578Y-143173600D01*
X100871082Y-143038105D01*
X101038105Y-142871082D01*
X101173600Y-142677578D01*
X101273429Y-142463492D01*
X101273432Y-142463486D01*
X101330636Y-142250000D01*
X100433012Y-142250000D01*
X100465925Y-142192993D01*
X100500000Y-142065826D01*
X100500000Y-141934174D01*
X100465925Y-141807007D01*
X100433012Y-141750000D01*
X101330636Y-141750000D01*
X101330635Y-141749999D01*
X101273432Y-141536513D01*
X101273429Y-141536507D01*
X101173600Y-141322422D01*
X101173599Y-141322420D01*
X101038113Y-141128926D01*
X101038108Y-141128920D01*
X100871082Y-140961894D01*
X100677578Y-140826399D01*
X100463492Y-140726570D01*
X100463486Y-140726567D01*
X100250000Y-140669364D01*
X100250000Y-141566988D01*
X100192993Y-141534075D01*
X100065826Y-141500000D01*
X99934174Y-141500000D01*
X99807007Y-141534075D01*
X99750000Y-141566988D01*
X99750000Y-140669364D01*
X99749999Y-140669364D01*
X99536513Y-140726567D01*
X99536507Y-140726570D01*
X99322422Y-140826399D01*
X99322420Y-140826400D01*
X99128926Y-140961886D01*
X99128920Y-140961891D01*
X98961891Y-141128920D01*
X98961886Y-141128926D01*
X98826400Y-141322420D01*
X98826399Y-141322422D01*
X98787489Y-141405866D01*
X98741317Y-141458305D01*
X98674123Y-141477457D01*
X98607242Y-141457241D01*
X98562725Y-141405866D01*
X98547102Y-141372362D01*
X98547100Y-141372359D01*
X98547099Y-141372357D01*
X98421599Y-141193124D01*
X98346950Y-141118475D01*
X98266877Y-141038402D01*
X98128978Y-140941844D01*
X98087638Y-140912897D01*
X97960373Y-140853553D01*
X97889330Y-140820425D01*
X97889326Y-140820424D01*
X97889322Y-140820422D01*
X97677977Y-140763793D01*
X97460002Y-140744723D01*
X97459998Y-140744723D01*
X97314682Y-140757436D01*
X97242023Y-140763793D01*
X97242020Y-140763793D01*
X97030677Y-140820422D01*
X97030670Y-140820424D01*
X97030670Y-140820425D01*
X97027391Y-140821954D01*
X96832361Y-140912898D01*
X96832357Y-140912900D01*
X96653121Y-141038402D01*
X96498402Y-141193121D01*
X96396074Y-141339262D01*
X96341497Y-141382887D01*
X96271999Y-141390081D01*
X96209644Y-141358558D01*
X96174230Y-141298328D01*
X96170499Y-141268139D01*
X96170499Y-141118482D01*
X96163854Y-141076525D01*
X96155646Y-141024696D01*
X96098050Y-140911658D01*
X96098046Y-140911654D01*
X96098045Y-140911652D01*
X96008347Y-140821954D01*
X96008344Y-140821952D01*
X96008342Y-140821950D01*
X95927526Y-140780772D01*
X95895301Y-140764352D01*
X95801524Y-140749500D01*
X94038482Y-140749500D01*
X93957519Y-140762323D01*
X93944696Y-140764354D01*
X93831658Y-140821950D01*
X93831657Y-140821951D01*
X93831652Y-140821954D01*
X93741954Y-140911652D01*
X93741951Y-140911657D01*
X93741950Y-140911658D01*
X93736552Y-140922253D01*
X93684352Y-141024698D01*
X93669500Y-141118475D01*
X81131622Y-141118475D01*
X81185213Y-140826038D01*
X81204934Y-140500000D01*
X115795065Y-140500000D01*
X115814786Y-140826038D01*
X115873667Y-141147341D01*
X115970835Y-141459164D01*
X115970839Y-141459175D01*
X116104897Y-141757041D01*
X116104898Y-141757043D01*
X116273881Y-142036576D01*
X116421476Y-142224968D01*
X117563708Y-141082736D01*
X117660967Y-141216602D01*
X117783398Y-141339033D01*
X117917262Y-141436290D01*
X116775030Y-142578522D01*
X116775030Y-142578523D01*
X116963423Y-142726118D01*
X117242956Y-142895101D01*
X117242958Y-142895102D01*
X117540824Y-143029160D01*
X117540835Y-143029164D01*
X117852658Y-143126332D01*
X118173961Y-143185213D01*
X118500000Y-143204934D01*
X118826038Y-143185213D01*
X119147341Y-143126332D01*
X119459164Y-143029164D01*
X119459175Y-143029160D01*
X119757041Y-142895102D01*
X119757043Y-142895101D01*
X120036586Y-142726112D01*
X120224968Y-142578523D01*
X120224968Y-142578522D01*
X119082737Y-141436290D01*
X119216602Y-141339033D01*
X119339033Y-141216602D01*
X119436290Y-141082737D01*
X120578522Y-142224968D01*
X120578523Y-142224968D01*
X120726112Y-142036586D01*
X120895101Y-141757043D01*
X120895102Y-141757041D01*
X121029160Y-141459175D01*
X121029164Y-141459164D01*
X121126332Y-141147341D01*
X121185213Y-140826038D01*
X121204934Y-140500000D01*
X121185213Y-140173961D01*
X121126332Y-139852658D01*
X121029164Y-139540835D01*
X121029160Y-139540824D01*
X120895102Y-139242958D01*
X120895101Y-139242956D01*
X120726118Y-138963423D01*
X120578522Y-138775030D01*
X119436290Y-139917262D01*
X119339033Y-139783398D01*
X119216602Y-139660967D01*
X119082736Y-139563709D01*
X120224968Y-138421476D01*
X120036576Y-138273881D01*
X119757043Y-138104898D01*
X119757041Y-138104897D01*
X119459175Y-137970839D01*
X119459164Y-137970835D01*
X119147341Y-137873667D01*
X118826038Y-137814786D01*
X118500000Y-137795065D01*
X118173961Y-137814786D01*
X117852658Y-137873667D01*
X117540835Y-137970835D01*
X117540824Y-137970839D01*
X117242958Y-138104897D01*
X117242956Y-138104898D01*
X116963422Y-138273881D01*
X116963416Y-138273886D01*
X116775030Y-138421474D01*
X116775029Y-138421476D01*
X117917262Y-139563709D01*
X117783398Y-139660967D01*
X117660967Y-139783398D01*
X117563709Y-139917262D01*
X116421476Y-138775029D01*
X116421474Y-138775030D01*
X116273886Y-138963416D01*
X116273881Y-138963422D01*
X116104898Y-139242956D01*
X116104897Y-139242958D01*
X115970839Y-139540824D01*
X115970835Y-139540835D01*
X115873667Y-139852658D01*
X115814786Y-140173961D01*
X115795065Y-140500000D01*
X81204934Y-140500000D01*
X81185213Y-140173961D01*
X81126332Y-139852658D01*
X81029164Y-139540835D01*
X81029160Y-139540824D01*
X80895102Y-139242958D01*
X80895101Y-139242956D01*
X80726118Y-138963423D01*
X80578522Y-138775030D01*
X79436290Y-139917262D01*
X79339033Y-139783398D01*
X79216602Y-139660967D01*
X79082736Y-139563709D01*
X80224968Y-138421476D01*
X80036576Y-138273881D01*
X79757043Y-138104898D01*
X79757041Y-138104897D01*
X79459175Y-137970839D01*
X79459164Y-137970835D01*
X79147341Y-137873667D01*
X78826038Y-137814786D01*
X78500000Y-137795065D01*
X78173961Y-137814786D01*
X77852658Y-137873667D01*
X77540835Y-137970835D01*
X77540824Y-137970839D01*
X77242958Y-138104897D01*
X77242956Y-138104898D01*
X76963422Y-138273881D01*
X76963416Y-138273886D01*
X76775030Y-138421474D01*
X76775029Y-138421476D01*
X77917262Y-139563709D01*
X77783398Y-139660967D01*
X77660967Y-139783398D01*
X77563709Y-139917262D01*
X76421476Y-138775029D01*
X76421474Y-138775030D01*
X76273886Y-138963416D01*
X76273881Y-138963422D01*
X76104898Y-139242956D01*
X76104897Y-139242958D01*
X75970839Y-139540824D01*
X75970835Y-139540835D01*
X75873667Y-139852658D01*
X75814786Y-140173961D01*
X75795065Y-140500000D01*
X74713426Y-140500000D01*
X74670243Y-140354950D01*
X74667734Y-140345042D01*
X74576556Y-139910193D01*
X74574874Y-139900113D01*
X74519916Y-139459208D01*
X74519073Y-139449035D01*
X74500607Y-139002561D01*
X74500501Y-138997437D01*
X74500501Y-138926512D01*
X74500500Y-138926494D01*
X74500500Y-131369997D01*
X88819751Y-131369997D01*
X88819751Y-131370002D01*
X88838685Y-131538056D01*
X88894545Y-131697694D01*
X88894547Y-131697697D01*
X88984518Y-131840884D01*
X88984523Y-131840890D01*
X89104109Y-131960476D01*
X89104115Y-131960481D01*
X89247302Y-132050452D01*
X89247305Y-132050454D01*
X89247309Y-132050455D01*
X89247310Y-132050456D01*
X89358958Y-132089523D01*
X89406941Y-132106313D01*
X89406946Y-132106314D01*
X89505651Y-132117435D01*
X89570065Y-132144501D01*
X89579449Y-132152974D01*
X90118929Y-132692454D01*
X90152414Y-132753777D01*
X90154468Y-132766250D01*
X90163685Y-132848053D01*
X90219544Y-133007692D01*
X90219547Y-133007697D01*
X90309518Y-133150884D01*
X90309523Y-133150890D01*
X90429109Y-133270476D01*
X90429115Y-133270481D01*
X90572302Y-133360452D01*
X90572305Y-133360454D01*
X90572309Y-133360455D01*
X90572310Y-133360456D01*
X90644913Y-133385860D01*
X90731943Y-133416314D01*
X90899997Y-133435249D01*
X90900000Y-133435249D01*
X90900003Y-133435249D01*
X91068056Y-133416314D01*
X91068059Y-133416313D01*
X91227690Y-133360456D01*
X91227692Y-133360454D01*
X91227694Y-133360454D01*
X91227697Y-133360452D01*
X91370884Y-133270481D01*
X91370885Y-133270480D01*
X91370890Y-133270477D01*
X91490477Y-133150890D01*
X91580452Y-133007697D01*
X91580454Y-133007694D01*
X91580454Y-133007692D01*
X91580456Y-133007690D01*
X91636313Y-132848059D01*
X91636313Y-132848058D01*
X91636314Y-132848056D01*
X91655249Y-132680002D01*
X91655249Y-132679997D01*
X91636314Y-132511943D01*
X91580454Y-132352305D01*
X91580452Y-132352302D01*
X91490481Y-132209115D01*
X91490476Y-132209109D01*
X91370890Y-132089523D01*
X91370884Y-132089518D01*
X91227697Y-131999547D01*
X91227692Y-131999544D01*
X91068053Y-131943685D01*
X90952442Y-131930659D01*
X90888028Y-131903592D01*
X90878645Y-131895120D01*
X90357974Y-131374449D01*
X90324489Y-131313126D01*
X90322435Y-131300651D01*
X90311314Y-131201946D01*
X90311313Y-131201941D01*
X90255454Y-131042305D01*
X90255452Y-131042302D01*
X90165481Y-130899115D01*
X90165476Y-130899109D01*
X90045890Y-130779523D01*
X90045884Y-130779518D01*
X89902697Y-130689547D01*
X89902694Y-130689545D01*
X89743056Y-130633685D01*
X89575003Y-130614751D01*
X89574997Y-130614751D01*
X89406943Y-130633685D01*
X89247305Y-130689545D01*
X89247302Y-130689547D01*
X89104115Y-130779518D01*
X89104109Y-130779523D01*
X88984523Y-130899109D01*
X88984518Y-130899115D01*
X88894547Y-131042302D01*
X88894545Y-131042305D01*
X88838685Y-131201943D01*
X88819751Y-131369997D01*
X74500500Y-131369997D01*
X74500500Y-129599997D01*
X95044751Y-129599997D01*
X95044751Y-129600002D01*
X95063685Y-129768056D01*
X95119545Y-129927694D01*
X95119547Y-129927697D01*
X95209518Y-130070884D01*
X95209523Y-130070890D01*
X95213181Y-130074548D01*
X95246666Y-130135871D01*
X95249500Y-130162229D01*
X95249500Y-130437771D01*
X95229815Y-130504810D01*
X95213181Y-130525452D01*
X95209523Y-130529109D01*
X95209518Y-130529115D01*
X95119547Y-130672302D01*
X95119545Y-130672305D01*
X95063685Y-130831943D01*
X95044751Y-130999997D01*
X95044751Y-131000002D01*
X95063685Y-131168056D01*
X95119545Y-131327694D01*
X95119547Y-131327697D01*
X95209518Y-131470884D01*
X95209523Y-131470890D01*
X95329109Y-131590476D01*
X95329115Y-131590481D01*
X95472302Y-131680452D01*
X95472305Y-131680454D01*
X95472309Y-131680455D01*
X95472310Y-131680456D01*
X95521562Y-131697690D01*
X95631943Y-131736314D01*
X95799997Y-131755249D01*
X95800000Y-131755249D01*
X95800003Y-131755249D01*
X95968056Y-131736314D01*
X95968059Y-131736313D01*
X96127690Y-131680456D01*
X96127692Y-131680454D01*
X96127694Y-131680454D01*
X96127697Y-131680452D01*
X96270884Y-131590481D01*
X96270885Y-131590480D01*
X96270890Y-131590477D01*
X96390477Y-131470890D01*
X96390481Y-131470884D01*
X96480452Y-131327697D01*
X96480454Y-131327694D01*
X96480454Y-131327692D01*
X96480456Y-131327690D01*
X96536313Y-131168059D01*
X96536313Y-131168058D01*
X96536314Y-131168056D01*
X96555249Y-131000002D01*
X96555249Y-130999997D01*
X96536314Y-130831943D01*
X96480454Y-130672305D01*
X96480452Y-130672302D01*
X96390481Y-130529115D01*
X96390476Y-130529109D01*
X96386819Y-130525452D01*
X96353334Y-130464129D01*
X96350500Y-130437771D01*
X96350500Y-130162229D01*
X96370185Y-130095190D01*
X96386819Y-130074548D01*
X96390477Y-130070890D01*
X96480452Y-129927697D01*
X96480454Y-129927694D01*
X96480454Y-129927692D01*
X96480456Y-129927690D01*
X96536313Y-129768059D01*
X96536313Y-129768058D01*
X96536314Y-129768056D01*
X96555249Y-129600002D01*
X96555249Y-129599997D01*
X96536314Y-129431943D01*
X96480454Y-129272305D01*
X96480452Y-129272302D01*
X96390481Y-129129115D01*
X96390476Y-129129109D01*
X96270890Y-129009523D01*
X96270884Y-129009518D01*
X96127697Y-128919547D01*
X96127694Y-128919545D01*
X95968056Y-128863685D01*
X95800003Y-128844751D01*
X95799997Y-128844751D01*
X95631943Y-128863685D01*
X95472305Y-128919545D01*
X95472302Y-128919547D01*
X95329115Y-129009518D01*
X95329109Y-129009523D01*
X95209523Y-129129109D01*
X95209518Y-129129115D01*
X95119547Y-129272302D01*
X95119545Y-129272305D01*
X95063685Y-129431943D01*
X95044751Y-129599997D01*
X74500500Y-129599997D01*
X74500500Y-120280187D01*
X83734561Y-120280187D01*
X83734561Y-120280192D01*
X83753495Y-120448246D01*
X83809355Y-120607884D01*
X83809357Y-120607887D01*
X83899328Y-120751074D01*
X83899333Y-120751080D01*
X84018919Y-120870666D01*
X84018925Y-120870671D01*
X84162112Y-120960642D01*
X84162115Y-120960644D01*
X84162119Y-120960645D01*
X84162120Y-120960646D01*
X84234723Y-120986050D01*
X84321753Y-121016504D01*
X84489807Y-121035439D01*
X84489810Y-121035439D01*
X84489813Y-121035439D01*
X84657866Y-121016504D01*
X84657869Y-121016503D01*
X84817500Y-120960646D01*
X84817502Y-120960644D01*
X84817504Y-120960644D01*
X84817507Y-120960642D01*
X84960694Y-120870671D01*
X84960695Y-120870670D01*
X84960700Y-120870667D01*
X85014548Y-120816819D01*
X85075871Y-120783334D01*
X85102229Y-120780500D01*
X86671324Y-120780500D01*
X86738363Y-120800185D01*
X86759005Y-120816819D01*
X88992686Y-123050500D01*
X89106814Y-123116392D01*
X89234107Y-123150500D01*
X89234108Y-123150500D01*
X89487771Y-123150500D01*
X89554810Y-123170185D01*
X89575452Y-123186819D01*
X89629109Y-123240476D01*
X89629115Y-123240481D01*
X89772302Y-123330452D01*
X89772305Y-123330454D01*
X89772309Y-123330455D01*
X89772310Y-123330456D01*
X89844913Y-123355860D01*
X89931943Y-123386314D01*
X90099997Y-123405249D01*
X90100000Y-123405249D01*
X90100003Y-123405249D01*
X90268056Y-123386314D01*
X90336887Y-123362229D01*
X90427690Y-123330456D01*
X90427692Y-123330454D01*
X90427694Y-123330454D01*
X90427697Y-123330452D01*
X90570884Y-123240481D01*
X90570885Y-123240480D01*
X90570890Y-123240477D01*
X90690477Y-123120890D01*
X90690481Y-123120884D01*
X90780452Y-122977697D01*
X90780454Y-122977694D01*
X90780454Y-122977692D01*
X90780456Y-122977690D01*
X90836313Y-122818059D01*
X90836313Y-122818058D01*
X90836314Y-122818056D01*
X90838349Y-122799997D01*
X96084751Y-122799997D01*
X96084751Y-122800002D01*
X96103686Y-122968057D01*
X96159542Y-123127687D01*
X96159548Y-123127697D01*
X96170493Y-123145115D01*
X96189500Y-123211087D01*
X96189500Y-124588911D01*
X96170495Y-124654882D01*
X96159544Y-124672310D01*
X96103685Y-124831943D01*
X96084751Y-124999997D01*
X96084751Y-125000002D01*
X96103685Y-125168056D01*
X96159545Y-125327694D01*
X96159547Y-125327697D01*
X96249518Y-125470884D01*
X96249523Y-125470890D01*
X96369109Y-125590476D01*
X96369115Y-125590481D01*
X96512302Y-125680452D01*
X96512305Y-125680454D01*
X96512309Y-125680455D01*
X96512310Y-125680456D01*
X96584913Y-125705860D01*
X96671943Y-125736314D01*
X96839997Y-125755249D01*
X96840000Y-125755249D01*
X96840003Y-125755249D01*
X97008056Y-125736314D01*
X97008059Y-125736313D01*
X97167690Y-125680456D01*
X97167692Y-125680454D01*
X97167694Y-125680454D01*
X97167697Y-125680452D01*
X97310884Y-125590481D01*
X97310885Y-125590480D01*
X97310890Y-125590477D01*
X97430477Y-125470890D01*
X97520452Y-125327697D01*
X97520454Y-125327694D01*
X97520454Y-125327692D01*
X97520456Y-125327690D01*
X97576313Y-125168059D01*
X97576313Y-125168058D01*
X97576314Y-125168056D01*
X97595249Y-125000002D01*
X97595249Y-124999997D01*
X97576314Y-124831943D01*
X97563417Y-124795088D01*
X97520456Y-124672310D01*
X97509504Y-124654881D01*
X97490500Y-124588911D01*
X97490500Y-123211087D01*
X97509506Y-123145115D01*
X97520456Y-123127690D01*
X97576313Y-122968059D01*
X97595249Y-122800000D01*
X97595249Y-122799997D01*
X98094751Y-122799997D01*
X98094751Y-122800002D01*
X98113685Y-122968056D01*
X98169545Y-123127694D01*
X98169547Y-123127697D01*
X98259518Y-123270884D01*
X98259523Y-123270890D01*
X98263181Y-123274548D01*
X98296666Y-123335871D01*
X98299500Y-123362229D01*
X98299500Y-130587771D01*
X98279815Y-130654810D01*
X98263181Y-130675452D01*
X98259523Y-130679109D01*
X98259518Y-130679115D01*
X98169547Y-130822302D01*
X98169545Y-130822305D01*
X98113685Y-130981943D01*
X98094751Y-131149997D01*
X98094751Y-131150002D01*
X98113685Y-131318056D01*
X98169545Y-131477694D01*
X98169547Y-131477697D01*
X98259518Y-131620884D01*
X98259523Y-131620890D01*
X98379109Y-131740476D01*
X98379115Y-131740481D01*
X98522302Y-131830452D01*
X98522305Y-131830454D01*
X98522309Y-131830455D01*
X98522310Y-131830456D01*
X98552112Y-131840884D01*
X98681943Y-131886314D01*
X98849997Y-131905249D01*
X98850000Y-131905249D01*
X98850003Y-131905249D01*
X99018056Y-131886314D01*
X99018059Y-131886313D01*
X99177690Y-131830456D01*
X99177692Y-131830454D01*
X99177694Y-131830454D01*
X99177697Y-131830452D01*
X99320884Y-131740481D01*
X99320885Y-131740480D01*
X99320890Y-131740477D01*
X99440477Y-131620890D01*
X99440481Y-131620884D01*
X99530452Y-131477697D01*
X99530454Y-131477694D01*
X99530454Y-131477692D01*
X99530456Y-131477690D01*
X99586313Y-131318059D01*
X99586313Y-131318058D01*
X99586314Y-131318056D01*
X99605249Y-131150002D01*
X99605249Y-131149997D01*
X99586314Y-130981943D01*
X99555860Y-130894913D01*
X99530456Y-130822310D01*
X99530455Y-130822309D01*
X99530454Y-130822305D01*
X99530452Y-130822302D01*
X99440481Y-130679115D01*
X99440476Y-130679109D01*
X99436819Y-130675452D01*
X99403334Y-130614129D01*
X99400500Y-130587771D01*
X99400500Y-128499997D01*
X106744751Y-128499997D01*
X106744751Y-128500002D01*
X106763685Y-128668056D01*
X106819545Y-128827694D01*
X106819547Y-128827697D01*
X106909518Y-128970884D01*
X106909523Y-128970890D01*
X107029109Y-129090476D01*
X107029115Y-129090481D01*
X107172302Y-129180452D01*
X107172305Y-129180454D01*
X107172309Y-129180455D01*
X107172310Y-129180456D01*
X107244913Y-129205860D01*
X107331943Y-129236314D01*
X107499997Y-129255249D01*
X107500000Y-129255249D01*
X107500003Y-129255249D01*
X107668056Y-129236314D01*
X107668059Y-129236313D01*
X107827690Y-129180456D01*
X107827692Y-129180454D01*
X107827694Y-129180454D01*
X107827697Y-129180452D01*
X107970884Y-129090481D01*
X107970885Y-129090480D01*
X107970890Y-129090477D01*
X108090477Y-128970890D01*
X108122738Y-128919547D01*
X108180452Y-128827697D01*
X108180454Y-128827694D01*
X108180454Y-128827692D01*
X108180456Y-128827690D01*
X108236313Y-128668059D01*
X108236313Y-128668057D01*
X108236314Y-128668055D01*
X108256029Y-128493080D01*
X108258356Y-128493342D01*
X108274934Y-128436887D01*
X108291568Y-128416245D01*
X109016245Y-127691568D01*
X109077568Y-127658083D01*
X109093122Y-127656410D01*
X109093080Y-127656029D01*
X109268055Y-127636314D01*
X109268057Y-127636313D01*
X109268059Y-127636313D01*
X109427690Y-127580456D01*
X109427692Y-127580454D01*
X109427694Y-127580454D01*
X109427697Y-127580452D01*
X109570884Y-127490481D01*
X109570885Y-127490480D01*
X109570890Y-127490477D01*
X109690477Y-127370890D01*
X109780452Y-127227697D01*
X109780454Y-127227694D01*
X109780454Y-127227692D01*
X109780456Y-127227690D01*
X109836313Y-127068059D01*
X109836313Y-127068058D01*
X109836314Y-127068056D01*
X109855249Y-126900002D01*
X109855249Y-126899997D01*
X109836314Y-126731943D01*
X109780454Y-126572305D01*
X109780452Y-126572302D01*
X109690481Y-126429115D01*
X109690476Y-126429109D01*
X109570890Y-126309523D01*
X109570884Y-126309518D01*
X109427697Y-126219547D01*
X109427694Y-126219545D01*
X109268056Y-126163685D01*
X109100003Y-126144751D01*
X109099997Y-126144751D01*
X108931943Y-126163685D01*
X108772305Y-126219545D01*
X108772302Y-126219547D01*
X108629115Y-126309518D01*
X108629109Y-126309523D01*
X108509523Y-126429109D01*
X108509518Y-126429115D01*
X108419547Y-126572302D01*
X108419545Y-126572305D01*
X108363685Y-126731943D01*
X108343971Y-126906920D01*
X108341642Y-126906657D01*
X108325066Y-126963111D01*
X108308432Y-126983753D01*
X107583753Y-127708432D01*
X107522430Y-127741917D01*
X107506876Y-127743589D01*
X107506920Y-127743971D01*
X107331943Y-127763685D01*
X107172305Y-127819545D01*
X107172302Y-127819547D01*
X107029115Y-127909518D01*
X107029109Y-127909523D01*
X106909523Y-128029109D01*
X106909518Y-128029115D01*
X106819547Y-128172302D01*
X106819545Y-128172305D01*
X106763685Y-128331943D01*
X106744751Y-128499997D01*
X99400500Y-128499997D01*
X99400500Y-123362229D01*
X99420185Y-123295190D01*
X99436819Y-123274548D01*
X99440477Y-123270890D01*
X99440481Y-123270884D01*
X99530452Y-123127697D01*
X99530454Y-123127694D01*
X99530454Y-123127692D01*
X99530456Y-123127690D01*
X99586313Y-122968059D01*
X99586313Y-122968058D01*
X99586314Y-122968056D01*
X99605249Y-122800002D01*
X99605249Y-122799997D01*
X99586314Y-122631943D01*
X99555860Y-122544913D01*
X99530456Y-122472310D01*
X99530455Y-122472309D01*
X99530454Y-122472305D01*
X99530452Y-122472302D01*
X99440481Y-122329115D01*
X99440476Y-122329109D01*
X99320890Y-122209523D01*
X99320884Y-122209518D01*
X99177697Y-122119547D01*
X99177694Y-122119545D01*
X99018056Y-122063685D01*
X98850003Y-122044751D01*
X98849997Y-122044751D01*
X98681943Y-122063685D01*
X98522305Y-122119545D01*
X98522302Y-122119547D01*
X98379115Y-122209518D01*
X98379109Y-122209523D01*
X98259523Y-122329109D01*
X98259518Y-122329115D01*
X98169547Y-122472302D01*
X98169545Y-122472305D01*
X98113685Y-122631943D01*
X98094751Y-122799997D01*
X97595249Y-122799997D01*
X97576314Y-122631943D01*
X97545860Y-122544913D01*
X97520456Y-122472310D01*
X97520455Y-122472309D01*
X97520454Y-122472305D01*
X97520452Y-122472302D01*
X97430481Y-122329115D01*
X97430476Y-122329109D01*
X97310890Y-122209523D01*
X97310884Y-122209518D01*
X97167697Y-122119547D01*
X97167694Y-122119545D01*
X97008056Y-122063685D01*
X96840003Y-122044751D01*
X96839997Y-122044751D01*
X96671943Y-122063685D01*
X96512305Y-122119545D01*
X96512302Y-122119547D01*
X96369115Y-122209518D01*
X96369109Y-122209523D01*
X96249523Y-122329109D01*
X96249518Y-122329115D01*
X96159547Y-122472302D01*
X96159545Y-122472305D01*
X96103685Y-122631943D01*
X96084751Y-122799997D01*
X90838349Y-122799997D01*
X90855249Y-122650002D01*
X90855249Y-122649997D01*
X90836314Y-122481943D01*
X90780454Y-122322305D01*
X90780452Y-122322302D01*
X90690481Y-122179115D01*
X90690476Y-122179109D01*
X90570890Y-122059523D01*
X90570884Y-122059518D01*
X90427697Y-121969547D01*
X90427694Y-121969545D01*
X90268056Y-121913685D01*
X90100003Y-121894751D01*
X90099997Y-121894751D01*
X89931943Y-121913685D01*
X89772305Y-121969545D01*
X89772302Y-121969547D01*
X89629115Y-122059518D01*
X89629107Y-122059524D01*
X89610902Y-122077730D01*
X89549578Y-122111214D01*
X89479887Y-122106228D01*
X89435542Y-122077728D01*
X87237316Y-119879502D01*
X87237314Y-119879500D01*
X87180250Y-119846554D01*
X87123187Y-119813608D01*
X87059539Y-119796554D01*
X86995892Y-119779500D01*
X86995891Y-119779500D01*
X85101849Y-119779500D01*
X85034810Y-119759815D01*
X85014168Y-119743181D01*
X84960700Y-119689713D01*
X84960694Y-119689708D01*
X84817507Y-119599737D01*
X84817504Y-119599735D01*
X84657866Y-119543875D01*
X84489813Y-119524941D01*
X84489807Y-119524941D01*
X84321753Y-119543875D01*
X84162115Y-119599735D01*
X84162112Y-119599737D01*
X84018925Y-119689708D01*
X84018919Y-119689713D01*
X83899333Y-119809299D01*
X83899328Y-119809305D01*
X83809357Y-119952492D01*
X83809355Y-119952495D01*
X83753495Y-120112133D01*
X83734561Y-120280187D01*
X74500500Y-120280187D01*
X74500500Y-115999997D01*
X78644751Y-115999997D01*
X78644751Y-116000002D01*
X78663685Y-116168056D01*
X78719545Y-116327694D01*
X78719547Y-116327697D01*
X78809518Y-116470884D01*
X78809523Y-116470890D01*
X78929109Y-116590476D01*
X78929115Y-116590481D01*
X79072302Y-116680452D01*
X79072305Y-116680454D01*
X79072309Y-116680455D01*
X79072310Y-116680456D01*
X79144913Y-116705860D01*
X79231943Y-116736314D01*
X79399997Y-116755249D01*
X79400000Y-116755249D01*
X79400003Y-116755249D01*
X79526044Y-116741047D01*
X79568059Y-116736313D01*
X79678460Y-116697681D01*
X79748238Y-116694119D01*
X79807096Y-116727042D01*
X81410325Y-118330272D01*
X81410328Y-118330275D01*
X81485123Y-118380251D01*
X81485122Y-118380251D01*
X81508961Y-118396178D01*
X81516873Y-118401465D01*
X81635256Y-118450501D01*
X81635260Y-118450501D01*
X81635261Y-118450502D01*
X81760928Y-118475500D01*
X81760931Y-118475500D01*
X81889069Y-118475500D01*
X88738912Y-118475500D01*
X88804883Y-118494506D01*
X88822310Y-118505456D01*
X88981941Y-118561313D01*
X89005795Y-118564000D01*
X89070209Y-118591066D01*
X89079594Y-118599540D01*
X91735325Y-121255272D01*
X91735331Y-121255277D01*
X91841874Y-121326466D01*
X91911221Y-121355189D01*
X91960256Y-121375501D01*
X91960259Y-121375501D01*
X91960260Y-121375502D01*
X92085928Y-121400500D01*
X92085931Y-121400500D01*
X92214069Y-121400500D01*
X93838912Y-121400500D01*
X93904883Y-121419506D01*
X93922310Y-121430456D01*
X94081941Y-121486313D01*
X94123955Y-121491047D01*
X94249997Y-121505249D01*
X94250000Y-121505249D01*
X94250003Y-121505249D01*
X94418056Y-121486314D01*
X94418059Y-121486313D01*
X94577690Y-121430456D01*
X94577692Y-121430454D01*
X94577694Y-121430454D01*
X94577697Y-121430452D01*
X94720884Y-121340481D01*
X94720885Y-121340480D01*
X94720890Y-121340477D01*
X94840477Y-121220890D01*
X94930452Y-121077697D01*
X94930454Y-121077694D01*
X94930454Y-121077692D01*
X94930456Y-121077690D01*
X94986313Y-120918059D01*
X94986313Y-120918058D01*
X94986314Y-120918056D01*
X95005249Y-120750002D01*
X95005249Y-120749997D01*
X94986314Y-120581943D01*
X94930454Y-120422305D01*
X94930452Y-120422302D01*
X94840481Y-120279115D01*
X94840476Y-120279109D01*
X94720890Y-120159523D01*
X94720884Y-120159518D01*
X94577697Y-120069547D01*
X94577694Y-120069545D01*
X94418056Y-120013685D01*
X94250003Y-119994751D01*
X94249997Y-119994751D01*
X94081942Y-120013686D01*
X93922311Y-120069543D01*
X93904883Y-120080494D01*
X93838912Y-120099500D01*
X92470808Y-120099500D01*
X92403769Y-120079815D01*
X92383127Y-120063181D01*
X90107127Y-117787181D01*
X90073642Y-117725858D01*
X90078626Y-117656166D01*
X90120498Y-117600233D01*
X90185962Y-117575816D01*
X90194808Y-117575500D01*
X91487771Y-117575500D01*
X91554810Y-117595185D01*
X91575452Y-117611819D01*
X91629109Y-117665476D01*
X91629115Y-117665481D01*
X91772302Y-117755452D01*
X91772305Y-117755454D01*
X91772309Y-117755455D01*
X91772310Y-117755456D01*
X91844913Y-117780860D01*
X91931943Y-117811314D01*
X92099997Y-117830249D01*
X92100000Y-117830249D01*
X92100003Y-117830249D01*
X92268056Y-117811314D01*
X92268059Y-117811313D01*
X92427690Y-117755456D01*
X92427692Y-117755454D01*
X92427694Y-117755454D01*
X92427697Y-117755452D01*
X92570884Y-117665481D01*
X92570885Y-117665480D01*
X92570890Y-117665477D01*
X92690477Y-117545890D01*
X92780452Y-117402697D01*
X92780454Y-117402694D01*
X92780454Y-117402692D01*
X92780456Y-117402690D01*
X92836313Y-117243059D01*
X92836313Y-117243058D01*
X92836314Y-117243056D01*
X92855249Y-117075002D01*
X92855249Y-117074997D01*
X92836314Y-116906943D01*
X92782340Y-116752694D01*
X92780456Y-116747310D01*
X92780455Y-116747309D01*
X92780454Y-116747305D01*
X92780452Y-116747302D01*
X92690481Y-116604115D01*
X92690476Y-116604109D01*
X92570890Y-116484523D01*
X92570884Y-116484518D01*
X92427697Y-116394547D01*
X92427692Y-116394544D01*
X92321269Y-116357306D01*
X92268059Y-116338687D01*
X92238105Y-116335311D01*
X92173693Y-116308244D01*
X92134950Y-116253046D01*
X92080455Y-116097308D01*
X92080452Y-116097302D01*
X91990481Y-115954115D01*
X91990476Y-115954109D01*
X91870890Y-115834523D01*
X91870884Y-115834518D01*
X91727697Y-115744547D01*
X91727694Y-115744545D01*
X91568056Y-115688685D01*
X91400003Y-115669751D01*
X91399997Y-115669751D01*
X91231943Y-115688685D01*
X91072305Y-115744545D01*
X91072302Y-115744547D01*
X90929115Y-115834518D01*
X90929109Y-115834523D01*
X90875452Y-115888181D01*
X90814129Y-115921666D01*
X90787771Y-115924500D01*
X85137229Y-115924500D01*
X85070190Y-115904815D01*
X85049548Y-115888181D01*
X84995890Y-115834523D01*
X84995884Y-115834518D01*
X84852697Y-115744547D01*
X84852694Y-115744545D01*
X84693056Y-115688685D01*
X84525003Y-115669751D01*
X84524997Y-115669751D01*
X84356943Y-115688685D01*
X84197305Y-115744545D01*
X84197302Y-115744547D01*
X84054115Y-115834518D01*
X84054109Y-115834523D01*
X83934523Y-115954109D01*
X83934518Y-115954115D01*
X83844547Y-116097302D01*
X83844545Y-116097305D01*
X83788685Y-116256943D01*
X83769751Y-116424997D01*
X83769751Y-116425002D01*
X83788685Y-116593056D01*
X83844545Y-116752694D01*
X83844547Y-116752697D01*
X83934518Y-116895884D01*
X83934523Y-116895890D01*
X84001452Y-116962819D01*
X84034937Y-117024142D01*
X84029953Y-117093834D01*
X83988081Y-117149767D01*
X83922617Y-117174184D01*
X83913771Y-117174500D01*
X82145808Y-117174500D01*
X82078769Y-117154815D01*
X82058127Y-117138181D01*
X80414674Y-115494727D01*
X80414673Y-115494726D01*
X80414669Y-115494723D01*
X80308127Y-115423535D01*
X80189744Y-115374499D01*
X80189738Y-115374497D01*
X80064071Y-115349500D01*
X80064069Y-115349500D01*
X79811088Y-115349500D01*
X79745117Y-115330494D01*
X79736168Y-115324871D01*
X79727690Y-115319544D01*
X79727689Y-115319543D01*
X79727688Y-115319543D01*
X79568057Y-115263686D01*
X79400003Y-115244751D01*
X79399997Y-115244751D01*
X79231943Y-115263685D01*
X79072305Y-115319545D01*
X79072302Y-115319547D01*
X78929115Y-115409518D01*
X78929109Y-115409523D01*
X78809523Y-115529109D01*
X78809518Y-115529115D01*
X78719547Y-115672302D01*
X78719545Y-115672305D01*
X78663685Y-115831943D01*
X78644751Y-115999997D01*
X74500500Y-115999997D01*
X74500500Y-102075895D01*
X74500501Y-102075882D01*
X74500501Y-102024000D01*
X74520186Y-101956961D01*
X74572990Y-101911206D01*
X74624501Y-101900000D01*
X100600000Y-101900000D01*
X100600000Y-99602155D01*
X103650000Y-99602155D01*
X103650000Y-100250000D01*
X104566988Y-100250000D01*
X104534075Y-100307007D01*
X104500000Y-100434174D01*
X104500000Y-100565826D01*
X104534075Y-100692993D01*
X104566988Y-100750000D01*
X103650000Y-100750000D01*
X103650000Y-101397844D01*
X103656401Y-101457372D01*
X103656403Y-101457379D01*
X103706645Y-101592086D01*
X103706649Y-101592093D01*
X103792809Y-101707187D01*
X103792812Y-101707190D01*
X103907906Y-101793350D01*
X103907913Y-101793354D01*
X104042620Y-101843596D01*
X104042627Y-101843598D01*
X104102155Y-101849999D01*
X104102172Y-101850000D01*
X104750000Y-101850000D01*
X104750000Y-100933012D01*
X104807007Y-100965925D01*
X104934174Y-101000000D01*
X105065826Y-101000000D01*
X105192993Y-100965925D01*
X105250000Y-100933012D01*
X105250000Y-101850000D01*
X105897828Y-101850000D01*
X105897844Y-101849999D01*
X105957372Y-101843598D01*
X105957379Y-101843596D01*
X106092086Y-101793354D01*
X106092093Y-101793350D01*
X106207187Y-101707190D01*
X106207190Y-101707187D01*
X106293350Y-101592093D01*
X106293354Y-101592086D01*
X106343596Y-101457379D01*
X106343598Y-101457372D01*
X106349999Y-101397844D01*
X106350000Y-101397827D01*
X106350000Y-101373961D01*
X106369685Y-101306922D01*
X106422489Y-101261167D01*
X106491647Y-101251223D01*
X106555203Y-101280248D01*
X106575571Y-101302835D01*
X106578402Y-101306877D01*
X106733123Y-101461598D01*
X106912361Y-101587102D01*
X107110670Y-101679575D01*
X107322023Y-101736207D01*
X107504926Y-101752208D01*
X107539998Y-101755277D01*
X107540000Y-101755277D01*
X107540002Y-101755277D01*
X107568254Y-101752805D01*
X107757977Y-101736207D01*
X107969330Y-101679575D01*
X108167639Y-101587102D01*
X108346877Y-101461598D01*
X108501598Y-101306877D01*
X108627102Y-101127639D01*
X108697618Y-100976414D01*
X108743790Y-100923977D01*
X108810984Y-100904825D01*
X108877865Y-100925041D01*
X108922381Y-100976414D01*
X108992898Y-101127639D01*
X109118402Y-101306877D01*
X109273123Y-101461598D01*
X109452361Y-101587102D01*
X109650670Y-101679575D01*
X109862023Y-101736207D01*
X110044926Y-101752208D01*
X110079998Y-101755277D01*
X110080000Y-101755277D01*
X110080002Y-101755277D01*
X110108254Y-101752805D01*
X110297977Y-101736207D01*
X110509330Y-101679575D01*
X110707639Y-101587102D01*
X110886877Y-101461598D01*
X111041598Y-101306877D01*
X111167102Y-101127639D01*
X111237618Y-100976414D01*
X111283790Y-100923977D01*
X111350984Y-100904825D01*
X111417865Y-100925041D01*
X111462381Y-100976414D01*
X111532898Y-101127639D01*
X111658402Y-101306877D01*
X111813123Y-101461598D01*
X111992361Y-101587102D01*
X112190670Y-101679575D01*
X112402023Y-101736207D01*
X112584926Y-101752208D01*
X112619998Y-101755277D01*
X112620000Y-101755277D01*
X112620002Y-101755277D01*
X112648254Y-101752805D01*
X112837977Y-101736207D01*
X113049330Y-101679575D01*
X113247639Y-101587102D01*
X113426877Y-101461598D01*
X113581598Y-101306877D01*
X113707102Y-101127639D01*
X113799575Y-100929330D01*
X113856207Y-100717977D01*
X113875277Y-100500000D01*
X115795065Y-100500000D01*
X115814786Y-100826038D01*
X115873667Y-101147341D01*
X115970835Y-101459164D01*
X115970839Y-101459175D01*
X116104897Y-101757041D01*
X116104898Y-101757043D01*
X116273881Y-102036576D01*
X116421476Y-102224968D01*
X117563708Y-101082736D01*
X117660967Y-101216602D01*
X117783398Y-101339033D01*
X117917262Y-101436290D01*
X116775030Y-102578522D01*
X116775030Y-102578523D01*
X116963423Y-102726118D01*
X117242956Y-102895101D01*
X117242958Y-102895102D01*
X117540824Y-103029160D01*
X117540835Y-103029164D01*
X117852658Y-103126332D01*
X118173961Y-103185213D01*
X118500000Y-103204934D01*
X118826038Y-103185213D01*
X119147341Y-103126332D01*
X119459164Y-103029164D01*
X119459175Y-103029160D01*
X119757041Y-102895102D01*
X119757043Y-102895101D01*
X120036586Y-102726112D01*
X120224968Y-102578523D01*
X120224968Y-102578522D01*
X119082737Y-101436290D01*
X119216602Y-101339033D01*
X119339033Y-101216602D01*
X119436290Y-101082737D01*
X120578522Y-102224968D01*
X120578523Y-102224968D01*
X120726112Y-102036586D01*
X120895101Y-101757043D01*
X120895102Y-101757041D01*
X121029160Y-101459175D01*
X121029164Y-101459164D01*
X121126332Y-101147341D01*
X121185213Y-100826038D01*
X121204934Y-100500000D01*
X121185213Y-100173961D01*
X121126332Y-99852658D01*
X121029164Y-99540835D01*
X121029160Y-99540824D01*
X120895102Y-99242958D01*
X120895101Y-99242956D01*
X120726118Y-98963423D01*
X120578522Y-98775030D01*
X119436290Y-99917262D01*
X119339033Y-99783398D01*
X119216602Y-99660967D01*
X119082736Y-99563709D01*
X120224968Y-98421476D01*
X120036576Y-98273881D01*
X119757043Y-98104898D01*
X119757041Y-98104897D01*
X119459175Y-97970839D01*
X119459164Y-97970835D01*
X119147341Y-97873667D01*
X118826038Y-97814786D01*
X118500000Y-97795065D01*
X118173961Y-97814786D01*
X117852658Y-97873667D01*
X117540835Y-97970835D01*
X117540824Y-97970839D01*
X117242958Y-98104897D01*
X117242956Y-98104898D01*
X116963422Y-98273881D01*
X116963416Y-98273886D01*
X116775030Y-98421474D01*
X116775029Y-98421476D01*
X117917262Y-99563709D01*
X117783398Y-99660967D01*
X117660967Y-99783398D01*
X117563709Y-99917262D01*
X116421476Y-98775029D01*
X116421474Y-98775030D01*
X116273886Y-98963416D01*
X116273881Y-98963422D01*
X116104898Y-99242956D01*
X116104897Y-99242958D01*
X115970839Y-99540824D01*
X115970835Y-99540835D01*
X115873667Y-99852658D01*
X115814786Y-100173961D01*
X115795065Y-100500000D01*
X113875277Y-100500000D01*
X113856207Y-100282023D01*
X113819879Y-100146446D01*
X113799577Y-100070677D01*
X113799576Y-100070676D01*
X113799575Y-100070670D01*
X113707102Y-99872362D01*
X113707100Y-99872359D01*
X113707099Y-99872357D01*
X113581599Y-99693124D01*
X113514511Y-99626036D01*
X113426877Y-99538402D01*
X113247639Y-99412898D01*
X113247640Y-99412898D01*
X113247638Y-99412897D01*
X113148484Y-99366661D01*
X113049330Y-99320425D01*
X113049326Y-99320424D01*
X113049322Y-99320422D01*
X112837977Y-99263793D01*
X112620002Y-99244723D01*
X112619998Y-99244723D01*
X112474682Y-99257436D01*
X112402023Y-99263793D01*
X112402020Y-99263793D01*
X112190677Y-99320422D01*
X112190668Y-99320426D01*
X111992361Y-99412898D01*
X111992357Y-99412900D01*
X111813121Y-99538402D01*
X111658402Y-99693121D01*
X111532900Y-99872357D01*
X111532898Y-99872361D01*
X111462382Y-100023583D01*
X111416209Y-100076022D01*
X111349016Y-100095174D01*
X111282135Y-100074958D01*
X111237618Y-100023583D01*
X111223118Y-99992488D01*
X111167102Y-99872362D01*
X111167100Y-99872359D01*
X111167099Y-99872357D01*
X111041599Y-99693124D01*
X110974511Y-99626036D01*
X110886877Y-99538402D01*
X110707639Y-99412898D01*
X110707640Y-99412898D01*
X110707638Y-99412897D01*
X110608484Y-99366661D01*
X110509330Y-99320425D01*
X110509326Y-99320424D01*
X110509322Y-99320422D01*
X110297977Y-99263793D01*
X110080002Y-99244723D01*
X110079998Y-99244723D01*
X109934682Y-99257436D01*
X109862023Y-99263793D01*
X109862020Y-99263793D01*
X109650677Y-99320422D01*
X109650668Y-99320426D01*
X109452361Y-99412898D01*
X109452357Y-99412900D01*
X109273121Y-99538402D01*
X109118402Y-99693121D01*
X108992900Y-99872357D01*
X108992898Y-99872361D01*
X108922382Y-100023583D01*
X108876209Y-100076022D01*
X108809016Y-100095174D01*
X108742135Y-100074958D01*
X108697618Y-100023583D01*
X108683118Y-99992488D01*
X108627102Y-99872362D01*
X108627100Y-99872359D01*
X108627099Y-99872357D01*
X108501599Y-99693124D01*
X108434511Y-99626036D01*
X108346877Y-99538402D01*
X108167639Y-99412898D01*
X108167640Y-99412898D01*
X108167638Y-99412897D01*
X108068484Y-99366661D01*
X107969330Y-99320425D01*
X107969326Y-99320424D01*
X107969322Y-99320422D01*
X107757977Y-99263793D01*
X107540002Y-99244723D01*
X107539998Y-99244723D01*
X107394682Y-99257436D01*
X107322023Y-99263793D01*
X107322020Y-99263793D01*
X107110677Y-99320422D01*
X107110668Y-99320426D01*
X106912361Y-99412898D01*
X106912357Y-99412900D01*
X106733121Y-99538402D01*
X106578403Y-99693120D01*
X106575572Y-99697164D01*
X106520993Y-99740786D01*
X106451494Y-99747977D01*
X106389141Y-99716451D01*
X106353730Y-99656220D01*
X106350000Y-99626036D01*
X106350000Y-99602172D01*
X106349999Y-99602155D01*
X106343598Y-99542627D01*
X106343596Y-99542620D01*
X106293354Y-99407913D01*
X106293350Y-99407906D01*
X106207190Y-99292812D01*
X106207187Y-99292809D01*
X106092093Y-99206649D01*
X106092086Y-99206645D01*
X105957379Y-99156403D01*
X105957372Y-99156401D01*
X105897844Y-99150000D01*
X105250000Y-99150000D01*
X105250000Y-100066988D01*
X105192993Y-100034075D01*
X105065826Y-100000000D01*
X104934174Y-100000000D01*
X104807007Y-100034075D01*
X104750000Y-100066988D01*
X104750000Y-99150000D01*
X104102155Y-99150000D01*
X104042627Y-99156401D01*
X104042620Y-99156403D01*
X103907913Y-99206645D01*
X103907906Y-99206649D01*
X103792812Y-99292809D01*
X103792809Y-99292812D01*
X103706649Y-99407906D01*
X103706645Y-99407913D01*
X103656403Y-99542620D01*
X103656401Y-99542627D01*
X103650000Y-99602155D01*
X100600000Y-99602155D01*
X100600000Y-96624500D01*
X100619685Y-96557461D01*
X100672489Y-96511706D01*
X100724000Y-96500500D01*
X116997439Y-96500500D01*
X117002562Y-96500605D01*
G37*
%TD.AperFunction*%
%TD*%
M02*
