M48
; DRILL file {KiCad 8.0.2} date 2024-06-06T20:45:00-0700
; FORMAT={-:-/ absolute / metric / decimal}
; #@! TF.CreationDate,2024-06-06T20:45:00-07:00
; #@! TF.GenerationSoftware,Kicad,Pcbnew,8.0.2
; #@! TF.FileFunction,Plated,1,2,PTH
FMAT,2
METRIC
; #@! TA.AperFunction,Plated,PTH,ViaDrill
T1C0.300
; #@! TA.AperFunction,Plated,PTH,ViaDrill
T2C0.400
; #@! TA.AperFunction,Plated,PTH,ComponentDrill
T3C1.000
; #@! TA.AperFunction,Plated,PTH,ComponentDrill
T4C1.850
; #@! TA.AperFunction,Plated,PTH,ComponentDrill
T5C2.200
%
G90
G05
T1
X43.3Y-101.0
X54.8Y-101.05
X56.7Y-122.8
X56.7Y-127.3
X59.3Y-119.25
X59.51Y-121.1
X60.77Y-112.72
X61.89Y-113.28
X63.49Y-109.67
X64.76Y-108.37
X65.4Y-128.4
X73.75Y-110.25
X77.6Y-122.307
X89.2Y-120.8
X92.2Y-120.8
T2
X60.89Y-98.75
X104.75Y-140.7
X104.75Y-142.1
X111.5Y-119.204
X115.0Y-140.7
X115.0Y-142.1
T3
X43.96Y-126.96
X43.96Y-129.5
X43.96Y-132.04
X43.96Y-134.58
X44.04Y-105.14
X44.04Y-112.66
X46.5Y-126.96
X46.5Y-129.5
X46.5Y-132.04
X46.5Y-134.58
X46.58Y-105.14
X46.58Y-112.66
X49.12Y-105.14
X49.12Y-112.66
X50.4Y-90.4
X51.66Y-105.14
X51.66Y-112.66
X52.94Y-90.4
X55.48Y-90.4
X58.02Y-90.4
X59.8Y-137.235
X59.8Y-139.775
X60.87Y-101.04
X63.41Y-101.04
X65.95Y-101.04
X75.0Y-130.2
X75.0Y-132.74
X75.0Y-137.8
X75.0Y-140.34
X82.135Y-105.5
X82.6Y-127.46
X82.6Y-130.0
X82.6Y-135.2
X82.6Y-137.74
X84.675Y-105.5
X86.4Y-112.745
X86.4Y-115.285
X86.4Y-117.825
X90.7Y-126.26
X90.7Y-128.8
X94.5Y-126.26
X94.5Y-128.8
X98.4Y-126.235
X98.4Y-128.775
X123.375Y-128.51
X123.375Y-131.05
X123.4Y-118.725
X123.4Y-121.265
X123.4Y-123.805
T4
X65.895Y-82.821
X67.8Y-92.351
X72.5Y-92.351
X77.2Y-92.351
X79.105Y-82.821
T5
X44.4Y-84.4
X44.4Y-140.6
X101.1Y-99.3
X111.1Y-99.3
X123.6Y-84.4
X123.6Y-140.6
M30
