%TF.GenerationSoftware,KiCad,Pcbnew,8.0.2*%
%TF.CreationDate,2024-06-06T20:45:53-07:00*%
%TF.ProjectId,tpms-sn-flex,74706d73-2d73-46e2-9d66-6c65782e6b69,rev?*%
%TF.SameCoordinates,Original*%
%TF.FileFunction,Soldermask,Bot*%
%TF.FilePolarity,Negative*%
%FSLAX46Y46*%
G04 Gerber Fmt 4.6, Leading zero omitted, Abs format (unit mm)*
G04 Created by KiCad (PCBNEW 8.0.2) date 2024-06-06 20:45:53*
%MOMM*%
%LPD*%
G01*
G04 APERTURE LIST*
%ADD10C,4.400000*%
%ADD11O,1.500000X2.200000*%
%ADD12R,1.700000X1.700000*%
%ADD13O,1.700000X1.700000*%
%ADD14C,2.775000*%
%ADD15R,3.300000X3.300000*%
%ADD16C,3.300000*%
G04 APERTURE END LIST*
D10*
%TO.C,H4*%
X123600000Y-140600000D03*
%TD*%
%TO.C,H3*%
X123600000Y-84400000D03*
%TD*%
%TO.C,H2*%
X44400000Y-140600000D03*
%TD*%
%TO.C,H1*%
X44400000Y-84400000D03*
%TD*%
D11*
%TO.C,J6*%
X44040000Y-112660000D03*
X46580000Y-112660000D03*
X49120000Y-112660000D03*
X51660000Y-112660000D03*
X51660000Y-105140000D03*
X49120000Y-105140000D03*
X46580000Y-105140000D03*
X44040000Y-105140000D03*
%TD*%
D12*
%TO.C,JP1*%
X65950000Y-101040000D03*
D13*
X63410000Y-101040000D03*
X60870000Y-101040000D03*
%TD*%
D12*
%TO.C,JP2*%
X98400000Y-128775000D03*
D13*
X98400000Y-126235000D03*
%TD*%
%TO.C,JP9*%
X75000000Y-140340000D03*
D12*
X75000000Y-137800000D03*
%TD*%
%TO.C,JP11*%
X123400000Y-118725000D03*
D13*
X123400000Y-121265000D03*
X123400000Y-123805000D03*
%TD*%
D12*
%TO.C,JP4*%
X90700000Y-128800000D03*
D13*
X90700000Y-126260000D03*
%TD*%
D12*
%TO.C,J2*%
X50400000Y-90400000D03*
D13*
X52940000Y-90400000D03*
X55480000Y-90400000D03*
X58020000Y-90400000D03*
%TD*%
D12*
%TO.C,JP10*%
X82600000Y-130000000D03*
D13*
X82600000Y-127460000D03*
%TD*%
D12*
%TO.C,JP6*%
X75000000Y-130200000D03*
D13*
X75000000Y-132740000D03*
%TD*%
D12*
%TO.C,J5*%
X123375000Y-131050000D03*
D13*
X123375000Y-128510000D03*
%TD*%
D12*
%TO.C,JP5*%
X82600000Y-135200000D03*
D13*
X82600000Y-137740000D03*
%TD*%
D12*
%TO.C,JP3*%
X94500000Y-128800000D03*
D13*
X94500000Y-126260000D03*
%TD*%
D14*
%TO.C,S1*%
X67800000Y-92351100D03*
X72500000Y-92351100D03*
X77200000Y-92351100D03*
X65895000Y-82821100D03*
X79105000Y-82821100D03*
%TD*%
D13*
%TO.C,JP8*%
X59800000Y-137235000D03*
D12*
X59800000Y-139775000D03*
%TD*%
%TO.C,J4*%
X86400000Y-117825000D03*
D13*
X86400000Y-115285000D03*
X86400000Y-112745000D03*
%TD*%
%TO.C,JP7*%
X82135000Y-105500000D03*
D12*
X84675000Y-105500000D03*
%TD*%
D15*
%TO.C,C11*%
X101100000Y-99300000D03*
D16*
X111100000Y-99300000D03*
%TD*%
D13*
%TO.C,J1*%
X43960000Y-134580000D03*
X46500000Y-134580000D03*
X43960000Y-132040000D03*
X46500000Y-132040000D03*
X43960000Y-129500000D03*
X46500000Y-129500000D03*
X43960000Y-126960000D03*
D12*
X46500000Y-126960000D03*
%TD*%
M02*
