%TF.GenerationSoftware,KiCad,Pcbnew,8.0.2*%
%TF.CreationDate,2024-07-16T02:57:23-07:00*%
%TF.ProjectId,sensor-node-rev-2s,73656e73-6f72-42d6-9e6f-64652d726576,rev?*%
%TF.SameCoordinates,Original*%
%TF.FileFunction,Legend,Top*%
%TF.FilePolarity,Positive*%
%FSLAX46Y46*%
G04 Gerber Fmt 4.6, Leading zero omitted, Abs format (unit mm)*
G04 Created by KiCad (PCBNEW 8.0.2) date 2024-07-16 02:57:23*
%MOMM*%
%LPD*%
G01*
G04 APERTURE LIST*
%ADD10C,0.150000*%
%ADD11C,0.120000*%
%ADD12C,0.100000*%
%ADD13C,0.200000*%
%ADD14C,0.250000*%
%ADD15C,0.152400*%
G04 APERTURE END LIST*
D10*
X93286779Y-109799819D02*
X93286779Y-108799819D01*
X93286779Y-108799819D02*
X93620112Y-109514104D01*
X93620112Y-109514104D02*
X93953445Y-108799819D01*
X93953445Y-108799819D02*
X93953445Y-109799819D01*
X94620112Y-108799819D02*
X94810588Y-108799819D01*
X94810588Y-108799819D02*
X94905826Y-108847438D01*
X94905826Y-108847438D02*
X95001064Y-108942676D01*
X95001064Y-108942676D02*
X95048683Y-109133152D01*
X95048683Y-109133152D02*
X95048683Y-109466485D01*
X95048683Y-109466485D02*
X95001064Y-109656961D01*
X95001064Y-109656961D02*
X94905826Y-109752200D01*
X94905826Y-109752200D02*
X94810588Y-109799819D01*
X94810588Y-109799819D02*
X94620112Y-109799819D01*
X94620112Y-109799819D02*
X94524874Y-109752200D01*
X94524874Y-109752200D02*
X94429636Y-109656961D01*
X94429636Y-109656961D02*
X94382017Y-109466485D01*
X94382017Y-109466485D02*
X94382017Y-109133152D01*
X94382017Y-109133152D02*
X94429636Y-108942676D01*
X94429636Y-108942676D02*
X94524874Y-108847438D01*
X94524874Y-108847438D02*
X94620112Y-108799819D01*
X95429636Y-109752200D02*
X95572493Y-109799819D01*
X95572493Y-109799819D02*
X95810588Y-109799819D01*
X95810588Y-109799819D02*
X95905826Y-109752200D01*
X95905826Y-109752200D02*
X95953445Y-109704580D01*
X95953445Y-109704580D02*
X96001064Y-109609342D01*
X96001064Y-109609342D02*
X96001064Y-109514104D01*
X96001064Y-109514104D02*
X95953445Y-109418866D01*
X95953445Y-109418866D02*
X95905826Y-109371247D01*
X95905826Y-109371247D02*
X95810588Y-109323628D01*
X95810588Y-109323628D02*
X95620112Y-109276009D01*
X95620112Y-109276009D02*
X95524874Y-109228390D01*
X95524874Y-109228390D02*
X95477255Y-109180771D01*
X95477255Y-109180771D02*
X95429636Y-109085533D01*
X95429636Y-109085533D02*
X95429636Y-108990295D01*
X95429636Y-108990295D02*
X95477255Y-108895057D01*
X95477255Y-108895057D02*
X95524874Y-108847438D01*
X95524874Y-108847438D02*
X95620112Y-108799819D01*
X95620112Y-108799819D02*
X95858207Y-108799819D01*
X95858207Y-108799819D02*
X96001064Y-108847438D01*
X96429636Y-109799819D02*
X96429636Y-108799819D01*
X94093922Y-138869819D02*
X94665350Y-138869819D01*
X94379636Y-139869819D02*
X94379636Y-138869819D01*
X94903446Y-138869819D02*
X95570112Y-139869819D01*
X95570112Y-138869819D02*
X94903446Y-139869819D01*
X96108207Y-133069819D02*
X95774874Y-132593628D01*
X95536779Y-133069819D02*
X95536779Y-132069819D01*
X95536779Y-132069819D02*
X95917731Y-132069819D01*
X95917731Y-132069819D02*
X96012969Y-132117438D01*
X96012969Y-132117438D02*
X96060588Y-132165057D01*
X96060588Y-132165057D02*
X96108207Y-132260295D01*
X96108207Y-132260295D02*
X96108207Y-132403152D01*
X96108207Y-132403152D02*
X96060588Y-132498390D01*
X96060588Y-132498390D02*
X96012969Y-132546009D01*
X96012969Y-132546009D02*
X95917731Y-132593628D01*
X95917731Y-132593628D02*
X95536779Y-132593628D01*
X96441541Y-132069819D02*
X97108207Y-133069819D01*
X97108207Y-132069819D02*
X96441541Y-133069819D01*
X109536779Y-98169819D02*
X109536779Y-97169819D01*
X109536779Y-97169819D02*
X109774874Y-97169819D01*
X109774874Y-97169819D02*
X109917731Y-97217438D01*
X109917731Y-97217438D02*
X110012969Y-97312676D01*
X110012969Y-97312676D02*
X110060588Y-97407914D01*
X110060588Y-97407914D02*
X110108207Y-97598390D01*
X110108207Y-97598390D02*
X110108207Y-97741247D01*
X110108207Y-97741247D02*
X110060588Y-97931723D01*
X110060588Y-97931723D02*
X110012969Y-98026961D01*
X110012969Y-98026961D02*
X109917731Y-98122200D01*
X109917731Y-98122200D02*
X109774874Y-98169819D01*
X109774874Y-98169819D02*
X109536779Y-98169819D01*
X110536779Y-98169819D02*
X110536779Y-97169819D01*
X111203445Y-97169819D02*
X111393921Y-97169819D01*
X111393921Y-97169819D02*
X111489159Y-97217438D01*
X111489159Y-97217438D02*
X111584397Y-97312676D01*
X111584397Y-97312676D02*
X111632016Y-97503152D01*
X111632016Y-97503152D02*
X111632016Y-97836485D01*
X111632016Y-97836485D02*
X111584397Y-98026961D01*
X111584397Y-98026961D02*
X111489159Y-98122200D01*
X111489159Y-98122200D02*
X111393921Y-98169819D01*
X111393921Y-98169819D02*
X111203445Y-98169819D01*
X111203445Y-98169819D02*
X111108207Y-98122200D01*
X111108207Y-98122200D02*
X111012969Y-98026961D01*
X111012969Y-98026961D02*
X110965350Y-97836485D01*
X110965350Y-97836485D02*
X110965350Y-97503152D01*
X110965350Y-97503152D02*
X111012969Y-97312676D01*
X111012969Y-97312676D02*
X111108207Y-97217438D01*
X111108207Y-97217438D02*
X111203445Y-97169819D01*
X83999160Y-117482200D02*
X84142017Y-117529819D01*
X84142017Y-117529819D02*
X84380112Y-117529819D01*
X84380112Y-117529819D02*
X84475350Y-117482200D01*
X84475350Y-117482200D02*
X84522969Y-117434580D01*
X84522969Y-117434580D02*
X84570588Y-117339342D01*
X84570588Y-117339342D02*
X84570588Y-117244104D01*
X84570588Y-117244104D02*
X84522969Y-117148866D01*
X84522969Y-117148866D02*
X84475350Y-117101247D01*
X84475350Y-117101247D02*
X84380112Y-117053628D01*
X84380112Y-117053628D02*
X84189636Y-117006009D01*
X84189636Y-117006009D02*
X84094398Y-116958390D01*
X84094398Y-116958390D02*
X84046779Y-116910771D01*
X84046779Y-116910771D02*
X83999160Y-116815533D01*
X83999160Y-116815533D02*
X83999160Y-116720295D01*
X83999160Y-116720295D02*
X84046779Y-116625057D01*
X84046779Y-116625057D02*
X84094398Y-116577438D01*
X84094398Y-116577438D02*
X84189636Y-116529819D01*
X84189636Y-116529819D02*
X84427731Y-116529819D01*
X84427731Y-116529819D02*
X84570588Y-116577438D01*
X85570588Y-117434580D02*
X85522969Y-117482200D01*
X85522969Y-117482200D02*
X85380112Y-117529819D01*
X85380112Y-117529819D02*
X85284874Y-117529819D01*
X85284874Y-117529819D02*
X85142017Y-117482200D01*
X85142017Y-117482200D02*
X85046779Y-117386961D01*
X85046779Y-117386961D02*
X84999160Y-117291723D01*
X84999160Y-117291723D02*
X84951541Y-117101247D01*
X84951541Y-117101247D02*
X84951541Y-116958390D01*
X84951541Y-116958390D02*
X84999160Y-116767914D01*
X84999160Y-116767914D02*
X85046779Y-116672676D01*
X85046779Y-116672676D02*
X85142017Y-116577438D01*
X85142017Y-116577438D02*
X85284874Y-116529819D01*
X85284874Y-116529819D02*
X85380112Y-116529819D01*
X85380112Y-116529819D02*
X85522969Y-116577438D01*
X85522969Y-116577438D02*
X85570588Y-116625057D01*
X85999160Y-117529819D02*
X85999160Y-116529819D01*
X86570588Y-117529819D02*
X86142017Y-116958390D01*
X86570588Y-116529819D02*
X85999160Y-117101247D01*
X75793922Y-133969819D02*
X76127255Y-134969819D01*
X76127255Y-134969819D02*
X76460588Y-133969819D01*
X76793922Y-134588866D02*
X77555827Y-134588866D01*
X120219819Y-134856077D02*
X121219819Y-134522744D01*
X121219819Y-134522744D02*
X120219819Y-134189411D01*
X120219819Y-133665601D02*
X120219819Y-133475125D01*
X120219819Y-133475125D02*
X120267438Y-133379887D01*
X120267438Y-133379887D02*
X120362676Y-133284649D01*
X120362676Y-133284649D02*
X120553152Y-133237030D01*
X120553152Y-133237030D02*
X120886485Y-133237030D01*
X120886485Y-133237030D02*
X121076961Y-133284649D01*
X121076961Y-133284649D02*
X121172200Y-133379887D01*
X121172200Y-133379887D02*
X121219819Y-133475125D01*
X121219819Y-133475125D02*
X121219819Y-133665601D01*
X121219819Y-133665601D02*
X121172200Y-133760839D01*
X121172200Y-133760839D02*
X121076961Y-133856077D01*
X121076961Y-133856077D02*
X120886485Y-133903696D01*
X120886485Y-133903696D02*
X120553152Y-133903696D01*
X120553152Y-133903696D02*
X120362676Y-133856077D01*
X120362676Y-133856077D02*
X120267438Y-133760839D01*
X120267438Y-133760839D02*
X120219819Y-133665601D01*
X120219819Y-132808458D02*
X121029342Y-132808458D01*
X121029342Y-132808458D02*
X121124580Y-132760839D01*
X121124580Y-132760839D02*
X121172200Y-132713220D01*
X121172200Y-132713220D02*
X121219819Y-132617982D01*
X121219819Y-132617982D02*
X121219819Y-132427506D01*
X121219819Y-132427506D02*
X121172200Y-132332268D01*
X121172200Y-132332268D02*
X121124580Y-132284649D01*
X121124580Y-132284649D02*
X121029342Y-132237030D01*
X121029342Y-132237030D02*
X120219819Y-132237030D01*
X120219819Y-131903696D02*
X120219819Y-131332268D01*
X121219819Y-131617982D02*
X120219819Y-131617982D01*
X92393922Y-132069819D02*
X92965350Y-132069819D01*
X92679636Y-133069819D02*
X92679636Y-132069819D01*
X93203446Y-132069819D02*
X93870112Y-133069819D01*
X93870112Y-132069819D02*
X93203446Y-133069819D01*
X112441541Y-97169819D02*
X113060588Y-97169819D01*
X113060588Y-97169819D02*
X112727255Y-97550771D01*
X112727255Y-97550771D02*
X112870112Y-97550771D01*
X112870112Y-97550771D02*
X112965350Y-97598390D01*
X112965350Y-97598390D02*
X113012969Y-97646009D01*
X113012969Y-97646009D02*
X113060588Y-97741247D01*
X113060588Y-97741247D02*
X113060588Y-97979342D01*
X113060588Y-97979342D02*
X113012969Y-98074580D01*
X113012969Y-98074580D02*
X112965350Y-98122200D01*
X112965350Y-98122200D02*
X112870112Y-98169819D01*
X112870112Y-98169819D02*
X112584398Y-98169819D01*
X112584398Y-98169819D02*
X112489160Y-98122200D01*
X112489160Y-98122200D02*
X112441541Y-98074580D01*
X113346303Y-97169819D02*
X113679636Y-98169819D01*
X113679636Y-98169819D02*
X114012969Y-97169819D01*
X114251065Y-97169819D02*
X114870112Y-97169819D01*
X114870112Y-97169819D02*
X114536779Y-97550771D01*
X114536779Y-97550771D02*
X114679636Y-97550771D01*
X114679636Y-97550771D02*
X114774874Y-97598390D01*
X114774874Y-97598390D02*
X114822493Y-97646009D01*
X114822493Y-97646009D02*
X114870112Y-97741247D01*
X114870112Y-97741247D02*
X114870112Y-97979342D01*
X114870112Y-97979342D02*
X114822493Y-98074580D01*
X114822493Y-98074580D02*
X114774874Y-98122200D01*
X114774874Y-98122200D02*
X114679636Y-98169819D01*
X114679636Y-98169819D02*
X114393922Y-98169819D01*
X114393922Y-98169819D02*
X114298684Y-98122200D01*
X114298684Y-98122200D02*
X114251065Y-98074580D01*
X98286779Y-111396009D02*
X98620112Y-111396009D01*
X98762969Y-111919819D02*
X98286779Y-111919819D01*
X98286779Y-111919819D02*
X98286779Y-110919819D01*
X98286779Y-110919819D02*
X98762969Y-110919819D01*
X99096303Y-110919819D02*
X99762969Y-111919819D01*
X99762969Y-110919819D02*
X99096303Y-111919819D01*
X100001065Y-110919819D02*
X100572493Y-110919819D01*
X100286779Y-111919819D02*
X100286779Y-110919819D01*
X97308207Y-139869819D02*
X96974874Y-139393628D01*
X96736779Y-139869819D02*
X96736779Y-138869819D01*
X96736779Y-138869819D02*
X97117731Y-138869819D01*
X97117731Y-138869819D02*
X97212969Y-138917438D01*
X97212969Y-138917438D02*
X97260588Y-138965057D01*
X97260588Y-138965057D02*
X97308207Y-139060295D01*
X97308207Y-139060295D02*
X97308207Y-139203152D01*
X97308207Y-139203152D02*
X97260588Y-139298390D01*
X97260588Y-139298390D02*
X97212969Y-139346009D01*
X97212969Y-139346009D02*
X97117731Y-139393628D01*
X97117731Y-139393628D02*
X96736779Y-139393628D01*
X97641541Y-138869819D02*
X98308207Y-139869819D01*
X98308207Y-138869819D02*
X97641541Y-139869819D01*
X120169819Y-126656077D02*
X121169819Y-126322744D01*
X121169819Y-126322744D02*
X120169819Y-125989411D01*
X121074580Y-125084649D02*
X121122200Y-125132268D01*
X121122200Y-125132268D02*
X121169819Y-125275125D01*
X121169819Y-125275125D02*
X121169819Y-125370363D01*
X121169819Y-125370363D02*
X121122200Y-125513220D01*
X121122200Y-125513220D02*
X121026961Y-125608458D01*
X121026961Y-125608458D02*
X120931723Y-125656077D01*
X120931723Y-125656077D02*
X120741247Y-125703696D01*
X120741247Y-125703696D02*
X120598390Y-125703696D01*
X120598390Y-125703696D02*
X120407914Y-125656077D01*
X120407914Y-125656077D02*
X120312676Y-125608458D01*
X120312676Y-125608458D02*
X120217438Y-125513220D01*
X120217438Y-125513220D02*
X120169819Y-125370363D01*
X120169819Y-125370363D02*
X120169819Y-125275125D01*
X120169819Y-125275125D02*
X120217438Y-125132268D01*
X120217438Y-125132268D02*
X120265057Y-125084649D01*
X120884104Y-124703696D02*
X120884104Y-124227506D01*
X121169819Y-124798934D02*
X120169819Y-124465601D01*
X120169819Y-124465601D02*
X121169819Y-124132268D01*
X121169819Y-123798934D02*
X120169819Y-123798934D01*
X120169819Y-123798934D02*
X120169819Y-123417982D01*
X120169819Y-123417982D02*
X120217438Y-123322744D01*
X120217438Y-123322744D02*
X120265057Y-123275125D01*
X120265057Y-123275125D02*
X120360295Y-123227506D01*
X120360295Y-123227506D02*
X120503152Y-123227506D01*
X120503152Y-123227506D02*
X120598390Y-123275125D01*
X120598390Y-123275125D02*
X120646009Y-123322744D01*
X120646009Y-123322744D02*
X120693628Y-123417982D01*
X120693628Y-123417982D02*
X120693628Y-123798934D01*
X77338207Y-116534580D02*
X77290588Y-116582200D01*
X77290588Y-116582200D02*
X77147731Y-116629819D01*
X77147731Y-116629819D02*
X77052493Y-116629819D01*
X77052493Y-116629819D02*
X76909636Y-116582200D01*
X76909636Y-116582200D02*
X76814398Y-116486961D01*
X76814398Y-116486961D02*
X76766779Y-116391723D01*
X76766779Y-116391723D02*
X76719160Y-116201247D01*
X76719160Y-116201247D02*
X76719160Y-116058390D01*
X76719160Y-116058390D02*
X76766779Y-115867914D01*
X76766779Y-115867914D02*
X76814398Y-115772676D01*
X76814398Y-115772676D02*
X76909636Y-115677438D01*
X76909636Y-115677438D02*
X77052493Y-115629819D01*
X77052493Y-115629819D02*
X77147731Y-115629819D01*
X77147731Y-115629819D02*
X77290588Y-115677438D01*
X77290588Y-115677438D02*
X77338207Y-115725057D01*
X77719160Y-116582200D02*
X77862017Y-116629819D01*
X77862017Y-116629819D02*
X78100112Y-116629819D01*
X78100112Y-116629819D02*
X78195350Y-116582200D01*
X78195350Y-116582200D02*
X78242969Y-116534580D01*
X78242969Y-116534580D02*
X78290588Y-116439342D01*
X78290588Y-116439342D02*
X78290588Y-116344104D01*
X78290588Y-116344104D02*
X78242969Y-116248866D01*
X78242969Y-116248866D02*
X78195350Y-116201247D01*
X78195350Y-116201247D02*
X78100112Y-116153628D01*
X78100112Y-116153628D02*
X77909636Y-116106009D01*
X77909636Y-116106009D02*
X77814398Y-116058390D01*
X77814398Y-116058390D02*
X77766779Y-116010771D01*
X77766779Y-116010771D02*
X77719160Y-115915533D01*
X77719160Y-115915533D02*
X77719160Y-115820295D01*
X77719160Y-115820295D02*
X77766779Y-115725057D01*
X77766779Y-115725057D02*
X77814398Y-115677438D01*
X77814398Y-115677438D02*
X77909636Y-115629819D01*
X77909636Y-115629819D02*
X78147731Y-115629819D01*
X78147731Y-115629819D02*
X78290588Y-115677438D01*
X78719160Y-116629819D02*
X78719160Y-115629819D01*
X78719160Y-115629819D02*
X79290588Y-116629819D01*
X79290588Y-116629819D02*
X79290588Y-115629819D01*
X98019819Y-134072744D02*
X98019819Y-133882268D01*
X98019819Y-133882268D02*
X98067438Y-133787030D01*
X98067438Y-133787030D02*
X98162676Y-133691792D01*
X98162676Y-133691792D02*
X98353152Y-133644173D01*
X98353152Y-133644173D02*
X98686485Y-133644173D01*
X98686485Y-133644173D02*
X98876961Y-133691792D01*
X98876961Y-133691792D02*
X98972200Y-133787030D01*
X98972200Y-133787030D02*
X99019819Y-133882268D01*
X99019819Y-133882268D02*
X99019819Y-134072744D01*
X99019819Y-134072744D02*
X98972200Y-134167982D01*
X98972200Y-134167982D02*
X98876961Y-134263220D01*
X98876961Y-134263220D02*
X98686485Y-134310839D01*
X98686485Y-134310839D02*
X98353152Y-134310839D01*
X98353152Y-134310839D02*
X98162676Y-134263220D01*
X98162676Y-134263220D02*
X98067438Y-134167982D01*
X98067438Y-134167982D02*
X98019819Y-134072744D01*
X99019819Y-133215601D02*
X98019819Y-133215601D01*
X98019819Y-133215601D02*
X99019819Y-132644173D01*
X99019819Y-132644173D02*
X98019819Y-132644173D01*
X75577255Y-130119819D02*
X75767731Y-130119819D01*
X75767731Y-130119819D02*
X75862969Y-130167438D01*
X75862969Y-130167438D02*
X75958207Y-130262676D01*
X75958207Y-130262676D02*
X76005826Y-130453152D01*
X76005826Y-130453152D02*
X76005826Y-130786485D01*
X76005826Y-130786485D02*
X75958207Y-130976961D01*
X75958207Y-130976961D02*
X75862969Y-131072200D01*
X75862969Y-131072200D02*
X75767731Y-131119819D01*
X75767731Y-131119819D02*
X75577255Y-131119819D01*
X75577255Y-131119819D02*
X75482017Y-131072200D01*
X75482017Y-131072200D02*
X75386779Y-130976961D01*
X75386779Y-130976961D02*
X75339160Y-130786485D01*
X75339160Y-130786485D02*
X75339160Y-130453152D01*
X75339160Y-130453152D02*
X75386779Y-130262676D01*
X75386779Y-130262676D02*
X75482017Y-130167438D01*
X75482017Y-130167438D02*
X75577255Y-130119819D01*
X76434398Y-130119819D02*
X76434398Y-130929342D01*
X76434398Y-130929342D02*
X76482017Y-131024580D01*
X76482017Y-131024580D02*
X76529636Y-131072200D01*
X76529636Y-131072200D02*
X76624874Y-131119819D01*
X76624874Y-131119819D02*
X76815350Y-131119819D01*
X76815350Y-131119819D02*
X76910588Y-131072200D01*
X76910588Y-131072200D02*
X76958207Y-131024580D01*
X76958207Y-131024580D02*
X77005826Y-130929342D01*
X77005826Y-130929342D02*
X77005826Y-130119819D01*
X77339160Y-130119819D02*
X77910588Y-130119819D01*
X77624874Y-131119819D02*
X77624874Y-130119819D01*
X81298207Y-116874580D02*
X81250588Y-116922200D01*
X81250588Y-116922200D02*
X81107731Y-116969819D01*
X81107731Y-116969819D02*
X81012493Y-116969819D01*
X81012493Y-116969819D02*
X80869636Y-116922200D01*
X80869636Y-116922200D02*
X80774398Y-116826961D01*
X80774398Y-116826961D02*
X80726779Y-116731723D01*
X80726779Y-116731723D02*
X80679160Y-116541247D01*
X80679160Y-116541247D02*
X80679160Y-116398390D01*
X80679160Y-116398390D02*
X80726779Y-116207914D01*
X80726779Y-116207914D02*
X80774398Y-116112676D01*
X80774398Y-116112676D02*
X80869636Y-116017438D01*
X80869636Y-116017438D02*
X81012493Y-115969819D01*
X81012493Y-115969819D02*
X81107731Y-115969819D01*
X81107731Y-115969819D02*
X81250588Y-116017438D01*
X81250588Y-116017438D02*
X81298207Y-116065057D01*
X81726779Y-116446009D02*
X82060112Y-116446009D01*
X82202969Y-116969819D02*
X81726779Y-116969819D01*
X81726779Y-116969819D02*
X81726779Y-115969819D01*
X81726779Y-115969819D02*
X82202969Y-115969819D01*
X91136779Y-118609819D02*
X91136779Y-117609819D01*
X92184397Y-118609819D02*
X91851064Y-118133628D01*
X91612969Y-118609819D02*
X91612969Y-117609819D01*
X91612969Y-117609819D02*
X91993921Y-117609819D01*
X91993921Y-117609819D02*
X92089159Y-117657438D01*
X92089159Y-117657438D02*
X92136778Y-117705057D01*
X92136778Y-117705057D02*
X92184397Y-117800295D01*
X92184397Y-117800295D02*
X92184397Y-117943152D01*
X92184397Y-117943152D02*
X92136778Y-118038390D01*
X92136778Y-118038390D02*
X92089159Y-118086009D01*
X92089159Y-118086009D02*
X91993921Y-118133628D01*
X91993921Y-118133628D02*
X91612969Y-118133628D01*
X93279635Y-118705057D02*
X93184397Y-118657438D01*
X93184397Y-118657438D02*
X93089159Y-118562200D01*
X93089159Y-118562200D02*
X92946302Y-118419342D01*
X92946302Y-118419342D02*
X92851064Y-118371723D01*
X92851064Y-118371723D02*
X92755826Y-118371723D01*
X92803445Y-118609819D02*
X92708207Y-118562200D01*
X92708207Y-118562200D02*
X92612969Y-118466961D01*
X92612969Y-118466961D02*
X92565350Y-118276485D01*
X92565350Y-118276485D02*
X92565350Y-117943152D01*
X92565350Y-117943152D02*
X92612969Y-117752676D01*
X92612969Y-117752676D02*
X92708207Y-117657438D01*
X92708207Y-117657438D02*
X92803445Y-117609819D01*
X92803445Y-117609819D02*
X92993921Y-117609819D01*
X92993921Y-117609819D02*
X93089159Y-117657438D01*
X93089159Y-117657438D02*
X93184397Y-117752676D01*
X93184397Y-117752676D02*
X93232016Y-117943152D01*
X93232016Y-117943152D02*
X93232016Y-118276485D01*
X93232016Y-118276485D02*
X93184397Y-118466961D01*
X93184397Y-118466961D02*
X93089159Y-118562200D01*
X93089159Y-118562200D02*
X92993921Y-118609819D01*
X92993921Y-118609819D02*
X92803445Y-118609819D01*
X93685588Y-103942438D02*
X93590350Y-103894819D01*
X93590350Y-103894819D02*
X93447493Y-103894819D01*
X93447493Y-103894819D02*
X93304636Y-103942438D01*
X93304636Y-103942438D02*
X93209398Y-104037676D01*
X93209398Y-104037676D02*
X93161779Y-104132914D01*
X93161779Y-104132914D02*
X93114160Y-104323390D01*
X93114160Y-104323390D02*
X93114160Y-104466247D01*
X93114160Y-104466247D02*
X93161779Y-104656723D01*
X93161779Y-104656723D02*
X93209398Y-104751961D01*
X93209398Y-104751961D02*
X93304636Y-104847200D01*
X93304636Y-104847200D02*
X93447493Y-104894819D01*
X93447493Y-104894819D02*
X93542731Y-104894819D01*
X93542731Y-104894819D02*
X93685588Y-104847200D01*
X93685588Y-104847200D02*
X93733207Y-104799580D01*
X93733207Y-104799580D02*
X93733207Y-104466247D01*
X93733207Y-104466247D02*
X93542731Y-104466247D01*
X94161779Y-104894819D02*
X94161779Y-103894819D01*
X94161779Y-103894819D02*
X94733207Y-104894819D01*
X94733207Y-104894819D02*
X94733207Y-103894819D01*
X95209398Y-104894819D02*
X95209398Y-103894819D01*
X95209398Y-103894819D02*
X95447493Y-103894819D01*
X95447493Y-103894819D02*
X95590350Y-103942438D01*
X95590350Y-103942438D02*
X95685588Y-104037676D01*
X95685588Y-104037676D02*
X95733207Y-104132914D01*
X95733207Y-104132914D02*
X95780826Y-104323390D01*
X95780826Y-104323390D02*
X95780826Y-104466247D01*
X95780826Y-104466247D02*
X95733207Y-104656723D01*
X95733207Y-104656723D02*
X95685588Y-104751961D01*
X95685588Y-104751961D02*
X95590350Y-104847200D01*
X95590350Y-104847200D02*
X95447493Y-104894819D01*
X95447493Y-104894819D02*
X95209398Y-104894819D01*
X76486779Y-119669819D02*
X76486779Y-120479342D01*
X76486779Y-120479342D02*
X76534398Y-120574580D01*
X76534398Y-120574580D02*
X76582017Y-120622200D01*
X76582017Y-120622200D02*
X76677255Y-120669819D01*
X76677255Y-120669819D02*
X76867731Y-120669819D01*
X76867731Y-120669819D02*
X76962969Y-120622200D01*
X76962969Y-120622200D02*
X77010588Y-120574580D01*
X77010588Y-120574580D02*
X77058207Y-120479342D01*
X77058207Y-120479342D02*
X77058207Y-119669819D01*
X78010588Y-120669819D02*
X77534398Y-120669819D01*
X77534398Y-120669819D02*
X77534398Y-119669819D01*
X78343922Y-120146009D02*
X78677255Y-120146009D01*
X78820112Y-120669819D02*
X78343922Y-120669819D01*
X78343922Y-120669819D02*
X78343922Y-119669819D01*
X78343922Y-119669819D02*
X78820112Y-119669819D01*
X79248684Y-120669819D02*
X79248684Y-119669819D01*
X79248684Y-119669819D02*
X79486779Y-119669819D01*
X79486779Y-119669819D02*
X79629636Y-119717438D01*
X79629636Y-119717438D02*
X79724874Y-119812676D01*
X79724874Y-119812676D02*
X79772493Y-119907914D01*
X79772493Y-119907914D02*
X79820112Y-120098390D01*
X79820112Y-120098390D02*
X79820112Y-120241247D01*
X79820112Y-120241247D02*
X79772493Y-120431723D01*
X79772493Y-120431723D02*
X79724874Y-120526961D01*
X79724874Y-120526961D02*
X79629636Y-120622200D01*
X79629636Y-120622200D02*
X79486779Y-120669819D01*
X79486779Y-120669819D02*
X79248684Y-120669819D01*
X106708207Y-98074580D02*
X106660588Y-98122200D01*
X106660588Y-98122200D02*
X106517731Y-98169819D01*
X106517731Y-98169819D02*
X106422493Y-98169819D01*
X106422493Y-98169819D02*
X106279636Y-98122200D01*
X106279636Y-98122200D02*
X106184398Y-98026961D01*
X106184398Y-98026961D02*
X106136779Y-97931723D01*
X106136779Y-97931723D02*
X106089160Y-97741247D01*
X106089160Y-97741247D02*
X106089160Y-97598390D01*
X106089160Y-97598390D02*
X106136779Y-97407914D01*
X106136779Y-97407914D02*
X106184398Y-97312676D01*
X106184398Y-97312676D02*
X106279636Y-97217438D01*
X106279636Y-97217438D02*
X106422493Y-97169819D01*
X106422493Y-97169819D02*
X106517731Y-97169819D01*
X106517731Y-97169819D02*
X106660588Y-97217438D01*
X106660588Y-97217438D02*
X106708207Y-97265057D01*
X107612969Y-98169819D02*
X107136779Y-98169819D01*
X107136779Y-98169819D02*
X107136779Y-97169819D01*
X107946303Y-98169819D02*
X107946303Y-97169819D01*
X108517731Y-98169819D02*
X108089160Y-97598390D01*
X108517731Y-97169819D02*
X107946303Y-97741247D01*
X93246779Y-116944819D02*
X93246779Y-115944819D01*
X93246779Y-115944819D02*
X93580112Y-116659104D01*
X93580112Y-116659104D02*
X93913445Y-115944819D01*
X93913445Y-115944819D02*
X93913445Y-116944819D01*
X94389636Y-116944819D02*
X94389636Y-115944819D01*
X94818207Y-116897200D02*
X94961064Y-116944819D01*
X94961064Y-116944819D02*
X95199159Y-116944819D01*
X95199159Y-116944819D02*
X95294397Y-116897200D01*
X95294397Y-116897200D02*
X95342016Y-116849580D01*
X95342016Y-116849580D02*
X95389635Y-116754342D01*
X95389635Y-116754342D02*
X95389635Y-116659104D01*
X95389635Y-116659104D02*
X95342016Y-116563866D01*
X95342016Y-116563866D02*
X95294397Y-116516247D01*
X95294397Y-116516247D02*
X95199159Y-116468628D01*
X95199159Y-116468628D02*
X95008683Y-116421009D01*
X95008683Y-116421009D02*
X94913445Y-116373390D01*
X94913445Y-116373390D02*
X94865826Y-116325771D01*
X94865826Y-116325771D02*
X94818207Y-116230533D01*
X94818207Y-116230533D02*
X94818207Y-116135295D01*
X94818207Y-116135295D02*
X94865826Y-116040057D01*
X94865826Y-116040057D02*
X94913445Y-115992438D01*
X94913445Y-115992438D02*
X95008683Y-115944819D01*
X95008683Y-115944819D02*
X95246778Y-115944819D01*
X95246778Y-115944819D02*
X95389635Y-115992438D01*
X96008683Y-115944819D02*
X96199159Y-115944819D01*
X96199159Y-115944819D02*
X96294397Y-115992438D01*
X96294397Y-115992438D02*
X96389635Y-116087676D01*
X96389635Y-116087676D02*
X96437254Y-116278152D01*
X96437254Y-116278152D02*
X96437254Y-116611485D01*
X96437254Y-116611485D02*
X96389635Y-116801961D01*
X96389635Y-116801961D02*
X96294397Y-116897200D01*
X96294397Y-116897200D02*
X96199159Y-116944819D01*
X96199159Y-116944819D02*
X96008683Y-116944819D01*
X96008683Y-116944819D02*
X95913445Y-116897200D01*
X95913445Y-116897200D02*
X95818207Y-116801961D01*
X95818207Y-116801961D02*
X95770588Y-116611485D01*
X95770588Y-116611485D02*
X95770588Y-116278152D01*
X95770588Y-116278152D02*
X95818207Y-116087676D01*
X95818207Y-116087676D02*
X95913445Y-115992438D01*
X95913445Y-115992438D02*
X96008683Y-115944819D01*
X79093922Y-133969819D02*
X79427255Y-134969819D01*
X79427255Y-134969819D02*
X79760588Y-133969819D01*
X80093922Y-134588866D02*
X80855827Y-134588866D01*
X80474874Y-134969819D02*
X80474874Y-134207914D01*
X100671427Y-103469819D02*
X101242855Y-103469819D01*
X100957141Y-104469819D02*
X100957141Y-103469819D01*
X102052379Y-104469819D02*
X101576189Y-104469819D01*
X101576189Y-104469819D02*
X101576189Y-103469819D01*
X102385713Y-104088866D02*
X103147618Y-104088866D01*
X103766665Y-103898390D02*
X103671427Y-103850771D01*
X103671427Y-103850771D02*
X103623808Y-103803152D01*
X103623808Y-103803152D02*
X103576189Y-103707914D01*
X103576189Y-103707914D02*
X103576189Y-103660295D01*
X103576189Y-103660295D02*
X103623808Y-103565057D01*
X103623808Y-103565057D02*
X103671427Y-103517438D01*
X103671427Y-103517438D02*
X103766665Y-103469819D01*
X103766665Y-103469819D02*
X103957141Y-103469819D01*
X103957141Y-103469819D02*
X104052379Y-103517438D01*
X104052379Y-103517438D02*
X104099998Y-103565057D01*
X104099998Y-103565057D02*
X104147617Y-103660295D01*
X104147617Y-103660295D02*
X104147617Y-103707914D01*
X104147617Y-103707914D02*
X104099998Y-103803152D01*
X104099998Y-103803152D02*
X104052379Y-103850771D01*
X104052379Y-103850771D02*
X103957141Y-103898390D01*
X103957141Y-103898390D02*
X103766665Y-103898390D01*
X103766665Y-103898390D02*
X103671427Y-103946009D01*
X103671427Y-103946009D02*
X103623808Y-103993628D01*
X103623808Y-103993628D02*
X103576189Y-104088866D01*
X103576189Y-104088866D02*
X103576189Y-104279342D01*
X103576189Y-104279342D02*
X103623808Y-104374580D01*
X103623808Y-104374580D02*
X103671427Y-104422200D01*
X103671427Y-104422200D02*
X103766665Y-104469819D01*
X103766665Y-104469819D02*
X103957141Y-104469819D01*
X103957141Y-104469819D02*
X104052379Y-104422200D01*
X104052379Y-104422200D02*
X104099998Y-104374580D01*
X104099998Y-104374580D02*
X104147617Y-104279342D01*
X104147617Y-104279342D02*
X104147617Y-104088866D01*
X104147617Y-104088866D02*
X104099998Y-103993628D01*
X104099998Y-103993628D02*
X104052379Y-103946009D01*
X104052379Y-103946009D02*
X103957141Y-103898390D01*
X105099998Y-104469819D02*
X104528570Y-104469819D01*
X104814284Y-104469819D02*
X104814284Y-103469819D01*
X104814284Y-103469819D02*
X104719046Y-103612676D01*
X104719046Y-103612676D02*
X104623808Y-103707914D01*
X104623808Y-103707914D02*
X104528570Y-103755533D01*
X106242856Y-104422200D02*
X106385713Y-104469819D01*
X106385713Y-104469819D02*
X106623808Y-104469819D01*
X106623808Y-104469819D02*
X106719046Y-104422200D01*
X106719046Y-104422200D02*
X106766665Y-104374580D01*
X106766665Y-104374580D02*
X106814284Y-104279342D01*
X106814284Y-104279342D02*
X106814284Y-104184104D01*
X106814284Y-104184104D02*
X106766665Y-104088866D01*
X106766665Y-104088866D02*
X106719046Y-104041247D01*
X106719046Y-104041247D02*
X106623808Y-103993628D01*
X106623808Y-103993628D02*
X106433332Y-103946009D01*
X106433332Y-103946009D02*
X106338094Y-103898390D01*
X106338094Y-103898390D02*
X106290475Y-103850771D01*
X106290475Y-103850771D02*
X106242856Y-103755533D01*
X106242856Y-103755533D02*
X106242856Y-103660295D01*
X106242856Y-103660295D02*
X106290475Y-103565057D01*
X106290475Y-103565057D02*
X106338094Y-103517438D01*
X106338094Y-103517438D02*
X106433332Y-103469819D01*
X106433332Y-103469819D02*
X106671427Y-103469819D01*
X106671427Y-103469819D02*
X106814284Y-103517438D01*
X107623808Y-104422200D02*
X107528570Y-104469819D01*
X107528570Y-104469819D02*
X107338094Y-104469819D01*
X107338094Y-104469819D02*
X107242856Y-104422200D01*
X107242856Y-104422200D02*
X107195237Y-104326961D01*
X107195237Y-104326961D02*
X107195237Y-103946009D01*
X107195237Y-103946009D02*
X107242856Y-103850771D01*
X107242856Y-103850771D02*
X107338094Y-103803152D01*
X107338094Y-103803152D02*
X107528570Y-103803152D01*
X107528570Y-103803152D02*
X107623808Y-103850771D01*
X107623808Y-103850771D02*
X107671427Y-103946009D01*
X107671427Y-103946009D02*
X107671427Y-104041247D01*
X107671427Y-104041247D02*
X107195237Y-104136485D01*
X108099999Y-103803152D02*
X108099999Y-104469819D01*
X108099999Y-103898390D02*
X108147618Y-103850771D01*
X108147618Y-103850771D02*
X108242856Y-103803152D01*
X108242856Y-103803152D02*
X108385713Y-103803152D01*
X108385713Y-103803152D02*
X108480951Y-103850771D01*
X108480951Y-103850771D02*
X108528570Y-103946009D01*
X108528570Y-103946009D02*
X108528570Y-104469819D01*
X108957142Y-104422200D02*
X109052380Y-104469819D01*
X109052380Y-104469819D02*
X109242856Y-104469819D01*
X109242856Y-104469819D02*
X109338094Y-104422200D01*
X109338094Y-104422200D02*
X109385713Y-104326961D01*
X109385713Y-104326961D02*
X109385713Y-104279342D01*
X109385713Y-104279342D02*
X109338094Y-104184104D01*
X109338094Y-104184104D02*
X109242856Y-104136485D01*
X109242856Y-104136485D02*
X109099999Y-104136485D01*
X109099999Y-104136485D02*
X109004761Y-104088866D01*
X109004761Y-104088866D02*
X108957142Y-103993628D01*
X108957142Y-103993628D02*
X108957142Y-103946009D01*
X108957142Y-103946009D02*
X109004761Y-103850771D01*
X109004761Y-103850771D02*
X109099999Y-103803152D01*
X109099999Y-103803152D02*
X109242856Y-103803152D01*
X109242856Y-103803152D02*
X109338094Y-103850771D01*
X109957142Y-104469819D02*
X109861904Y-104422200D01*
X109861904Y-104422200D02*
X109814285Y-104374580D01*
X109814285Y-104374580D02*
X109766666Y-104279342D01*
X109766666Y-104279342D02*
X109766666Y-103993628D01*
X109766666Y-103993628D02*
X109814285Y-103898390D01*
X109814285Y-103898390D02*
X109861904Y-103850771D01*
X109861904Y-103850771D02*
X109957142Y-103803152D01*
X109957142Y-103803152D02*
X110099999Y-103803152D01*
X110099999Y-103803152D02*
X110195237Y-103850771D01*
X110195237Y-103850771D02*
X110242856Y-103898390D01*
X110242856Y-103898390D02*
X110290475Y-103993628D01*
X110290475Y-103993628D02*
X110290475Y-104279342D01*
X110290475Y-104279342D02*
X110242856Y-104374580D01*
X110242856Y-104374580D02*
X110195237Y-104422200D01*
X110195237Y-104422200D02*
X110099999Y-104469819D01*
X110099999Y-104469819D02*
X109957142Y-104469819D01*
X110719047Y-104469819D02*
X110719047Y-103803152D01*
X110719047Y-103993628D02*
X110766666Y-103898390D01*
X110766666Y-103898390D02*
X110814285Y-103850771D01*
X110814285Y-103850771D02*
X110909523Y-103803152D01*
X110909523Y-103803152D02*
X111004761Y-103803152D01*
X112100000Y-104469819D02*
X112100000Y-103469819D01*
X112100000Y-103469819D02*
X112671428Y-104469819D01*
X112671428Y-104469819D02*
X112671428Y-103469819D01*
X113290476Y-104469819D02*
X113195238Y-104422200D01*
X113195238Y-104422200D02*
X113147619Y-104374580D01*
X113147619Y-104374580D02*
X113100000Y-104279342D01*
X113100000Y-104279342D02*
X113100000Y-103993628D01*
X113100000Y-103993628D02*
X113147619Y-103898390D01*
X113147619Y-103898390D02*
X113195238Y-103850771D01*
X113195238Y-103850771D02*
X113290476Y-103803152D01*
X113290476Y-103803152D02*
X113433333Y-103803152D01*
X113433333Y-103803152D02*
X113528571Y-103850771D01*
X113528571Y-103850771D02*
X113576190Y-103898390D01*
X113576190Y-103898390D02*
X113623809Y-103993628D01*
X113623809Y-103993628D02*
X113623809Y-104279342D01*
X113623809Y-104279342D02*
X113576190Y-104374580D01*
X113576190Y-104374580D02*
X113528571Y-104422200D01*
X113528571Y-104422200D02*
X113433333Y-104469819D01*
X113433333Y-104469819D02*
X113290476Y-104469819D01*
X114480952Y-104469819D02*
X114480952Y-103469819D01*
X114480952Y-104422200D02*
X114385714Y-104469819D01*
X114385714Y-104469819D02*
X114195238Y-104469819D01*
X114195238Y-104469819D02*
X114100000Y-104422200D01*
X114100000Y-104422200D02*
X114052381Y-104374580D01*
X114052381Y-104374580D02*
X114004762Y-104279342D01*
X114004762Y-104279342D02*
X114004762Y-103993628D01*
X114004762Y-103993628D02*
X114052381Y-103898390D01*
X114052381Y-103898390D02*
X114100000Y-103850771D01*
X114100000Y-103850771D02*
X114195238Y-103803152D01*
X114195238Y-103803152D02*
X114385714Y-103803152D01*
X114385714Y-103803152D02*
X114480952Y-103850771D01*
X115338095Y-104422200D02*
X115242857Y-104469819D01*
X115242857Y-104469819D02*
X115052381Y-104469819D01*
X115052381Y-104469819D02*
X114957143Y-104422200D01*
X114957143Y-104422200D02*
X114909524Y-104326961D01*
X114909524Y-104326961D02*
X114909524Y-103946009D01*
X114909524Y-103946009D02*
X114957143Y-103850771D01*
X114957143Y-103850771D02*
X115052381Y-103803152D01*
X115052381Y-103803152D02*
X115242857Y-103803152D01*
X115242857Y-103803152D02*
X115338095Y-103850771D01*
X115338095Y-103850771D02*
X115385714Y-103946009D01*
X115385714Y-103946009D02*
X115385714Y-104041247D01*
X115385714Y-104041247D02*
X114909524Y-104136485D01*
X116861905Y-104850771D02*
X116814286Y-104803152D01*
X116814286Y-104803152D02*
X116719048Y-104660295D01*
X116719048Y-104660295D02*
X116671429Y-104565057D01*
X116671429Y-104565057D02*
X116623810Y-104422200D01*
X116623810Y-104422200D02*
X116576191Y-104184104D01*
X116576191Y-104184104D02*
X116576191Y-103993628D01*
X116576191Y-103993628D02*
X116623810Y-103755533D01*
X116623810Y-103755533D02*
X116671429Y-103612676D01*
X116671429Y-103612676D02*
X116719048Y-103517438D01*
X116719048Y-103517438D02*
X116814286Y-103374580D01*
X116814286Y-103374580D02*
X116861905Y-103326961D01*
X117242858Y-104469819D02*
X117242858Y-103803152D01*
X117242858Y-103993628D02*
X117290477Y-103898390D01*
X117290477Y-103898390D02*
X117338096Y-103850771D01*
X117338096Y-103850771D02*
X117433334Y-103803152D01*
X117433334Y-103803152D02*
X117528572Y-103803152D01*
X118242858Y-104422200D02*
X118147620Y-104469819D01*
X118147620Y-104469819D02*
X117957144Y-104469819D01*
X117957144Y-104469819D02*
X117861906Y-104422200D01*
X117861906Y-104422200D02*
X117814287Y-104326961D01*
X117814287Y-104326961D02*
X117814287Y-103946009D01*
X117814287Y-103946009D02*
X117861906Y-103850771D01*
X117861906Y-103850771D02*
X117957144Y-103803152D01*
X117957144Y-103803152D02*
X118147620Y-103803152D01*
X118147620Y-103803152D02*
X118242858Y-103850771D01*
X118242858Y-103850771D02*
X118290477Y-103946009D01*
X118290477Y-103946009D02*
X118290477Y-104041247D01*
X118290477Y-104041247D02*
X117814287Y-104136485D01*
X118623811Y-103803152D02*
X118861906Y-104469819D01*
X118861906Y-104469819D02*
X119100001Y-103803152D01*
X120195240Y-103565057D02*
X120242859Y-103517438D01*
X120242859Y-103517438D02*
X120338097Y-103469819D01*
X120338097Y-103469819D02*
X120576192Y-103469819D01*
X120576192Y-103469819D02*
X120671430Y-103517438D01*
X120671430Y-103517438D02*
X120719049Y-103565057D01*
X120719049Y-103565057D02*
X120766668Y-103660295D01*
X120766668Y-103660295D02*
X120766668Y-103755533D01*
X120766668Y-103755533D02*
X120719049Y-103898390D01*
X120719049Y-103898390D02*
X120147621Y-104469819D01*
X120147621Y-104469819D02*
X120766668Y-104469819D01*
X121100002Y-104850771D02*
X121147621Y-104803152D01*
X121147621Y-104803152D02*
X121242859Y-104660295D01*
X121242859Y-104660295D02*
X121290478Y-104565057D01*
X121290478Y-104565057D02*
X121338097Y-104422200D01*
X121338097Y-104422200D02*
X121385716Y-104184104D01*
X121385716Y-104184104D02*
X121385716Y-103993628D01*
X121385716Y-103993628D02*
X121338097Y-103755533D01*
X121338097Y-103755533D02*
X121290478Y-103612676D01*
X121290478Y-103612676D02*
X121242859Y-103517438D01*
X121242859Y-103517438D02*
X121147621Y-103374580D01*
X121147621Y-103374580D02*
X121100002Y-103326961D01*
X100989160Y-123622200D02*
X101132017Y-123669819D01*
X101132017Y-123669819D02*
X101370112Y-123669819D01*
X101370112Y-123669819D02*
X101465350Y-123622200D01*
X101465350Y-123622200D02*
X101512969Y-123574580D01*
X101512969Y-123574580D02*
X101560588Y-123479342D01*
X101560588Y-123479342D02*
X101560588Y-123384104D01*
X101560588Y-123384104D02*
X101512969Y-123288866D01*
X101512969Y-123288866D02*
X101465350Y-123241247D01*
X101465350Y-123241247D02*
X101370112Y-123193628D01*
X101370112Y-123193628D02*
X101179636Y-123146009D01*
X101179636Y-123146009D02*
X101084398Y-123098390D01*
X101084398Y-123098390D02*
X101036779Y-123050771D01*
X101036779Y-123050771D02*
X100989160Y-122955533D01*
X100989160Y-122955533D02*
X100989160Y-122860295D01*
X100989160Y-122860295D02*
X101036779Y-122765057D01*
X101036779Y-122765057D02*
X101084398Y-122717438D01*
X101084398Y-122717438D02*
X101179636Y-122669819D01*
X101179636Y-122669819D02*
X101417731Y-122669819D01*
X101417731Y-122669819D02*
X101560588Y-122717438D01*
X102322493Y-123146009D02*
X102465350Y-123193628D01*
X102465350Y-123193628D02*
X102512969Y-123241247D01*
X102512969Y-123241247D02*
X102560588Y-123336485D01*
X102560588Y-123336485D02*
X102560588Y-123479342D01*
X102560588Y-123479342D02*
X102512969Y-123574580D01*
X102512969Y-123574580D02*
X102465350Y-123622200D01*
X102465350Y-123622200D02*
X102370112Y-123669819D01*
X102370112Y-123669819D02*
X101989160Y-123669819D01*
X101989160Y-123669819D02*
X101989160Y-122669819D01*
X101989160Y-122669819D02*
X102322493Y-122669819D01*
X102322493Y-122669819D02*
X102417731Y-122717438D01*
X102417731Y-122717438D02*
X102465350Y-122765057D01*
X102465350Y-122765057D02*
X102512969Y-122860295D01*
X102512969Y-122860295D02*
X102512969Y-122955533D01*
X102512969Y-122955533D02*
X102465350Y-123050771D01*
X102465350Y-123050771D02*
X102417731Y-123098390D01*
X102417731Y-123098390D02*
X102322493Y-123146009D01*
X102322493Y-123146009D02*
X101989160Y-123146009D01*
X103512969Y-123669819D02*
X102941541Y-123669819D01*
X103227255Y-123669819D02*
X103227255Y-122669819D01*
X103227255Y-122669819D02*
X103132017Y-122812676D01*
X103132017Y-122812676D02*
X103036779Y-122907914D01*
X103036779Y-122907914D02*
X102941541Y-122955533D01*
X83650112Y-121826009D02*
X83792969Y-121873628D01*
X83792969Y-121873628D02*
X83840588Y-121921247D01*
X83840588Y-121921247D02*
X83888207Y-122016485D01*
X83888207Y-122016485D02*
X83888207Y-122159342D01*
X83888207Y-122159342D02*
X83840588Y-122254580D01*
X83840588Y-122254580D02*
X83792969Y-122302200D01*
X83792969Y-122302200D02*
X83697731Y-122349819D01*
X83697731Y-122349819D02*
X83316779Y-122349819D01*
X83316779Y-122349819D02*
X83316779Y-121349819D01*
X83316779Y-121349819D02*
X83650112Y-121349819D01*
X83650112Y-121349819D02*
X83745350Y-121397438D01*
X83745350Y-121397438D02*
X83792969Y-121445057D01*
X83792969Y-121445057D02*
X83840588Y-121540295D01*
X83840588Y-121540295D02*
X83840588Y-121635533D01*
X83840588Y-121635533D02*
X83792969Y-121730771D01*
X83792969Y-121730771D02*
X83745350Y-121778390D01*
X83745350Y-121778390D02*
X83650112Y-121826009D01*
X83650112Y-121826009D02*
X83316779Y-121826009D01*
X84507255Y-121349819D02*
X84697731Y-121349819D01*
X84697731Y-121349819D02*
X84792969Y-121397438D01*
X84792969Y-121397438D02*
X84888207Y-121492676D01*
X84888207Y-121492676D02*
X84935826Y-121683152D01*
X84935826Y-121683152D02*
X84935826Y-122016485D01*
X84935826Y-122016485D02*
X84888207Y-122206961D01*
X84888207Y-122206961D02*
X84792969Y-122302200D01*
X84792969Y-122302200D02*
X84697731Y-122349819D01*
X84697731Y-122349819D02*
X84507255Y-122349819D01*
X84507255Y-122349819D02*
X84412017Y-122302200D01*
X84412017Y-122302200D02*
X84316779Y-122206961D01*
X84316779Y-122206961D02*
X84269160Y-122016485D01*
X84269160Y-122016485D02*
X84269160Y-121683152D01*
X84269160Y-121683152D02*
X84316779Y-121492676D01*
X84316779Y-121492676D02*
X84412017Y-121397438D01*
X84412017Y-121397438D02*
X84507255Y-121349819D01*
X85554874Y-121349819D02*
X85745350Y-121349819D01*
X85745350Y-121349819D02*
X85840588Y-121397438D01*
X85840588Y-121397438D02*
X85935826Y-121492676D01*
X85935826Y-121492676D02*
X85983445Y-121683152D01*
X85983445Y-121683152D02*
X85983445Y-122016485D01*
X85983445Y-122016485D02*
X85935826Y-122206961D01*
X85935826Y-122206961D02*
X85840588Y-122302200D01*
X85840588Y-122302200D02*
X85745350Y-122349819D01*
X85745350Y-122349819D02*
X85554874Y-122349819D01*
X85554874Y-122349819D02*
X85459636Y-122302200D01*
X85459636Y-122302200D02*
X85364398Y-122206961D01*
X85364398Y-122206961D02*
X85316779Y-122016485D01*
X85316779Y-122016485D02*
X85316779Y-121683152D01*
X85316779Y-121683152D02*
X85364398Y-121492676D01*
X85364398Y-121492676D02*
X85459636Y-121397438D01*
X85459636Y-121397438D02*
X85554874Y-121349819D01*
X86269160Y-121349819D02*
X86840588Y-121349819D01*
X86554874Y-122349819D02*
X86554874Y-121349819D01*
X87364398Y-121349819D02*
X87459636Y-121349819D01*
X87459636Y-121349819D02*
X87554874Y-121397438D01*
X87554874Y-121397438D02*
X87602493Y-121445057D01*
X87602493Y-121445057D02*
X87650112Y-121540295D01*
X87650112Y-121540295D02*
X87697731Y-121730771D01*
X87697731Y-121730771D02*
X87697731Y-121968866D01*
X87697731Y-121968866D02*
X87650112Y-122159342D01*
X87650112Y-122159342D02*
X87602493Y-122254580D01*
X87602493Y-122254580D02*
X87554874Y-122302200D01*
X87554874Y-122302200D02*
X87459636Y-122349819D01*
X87459636Y-122349819D02*
X87364398Y-122349819D01*
X87364398Y-122349819D02*
X87269160Y-122302200D01*
X87269160Y-122302200D02*
X87221541Y-122254580D01*
X87221541Y-122254580D02*
X87173922Y-122159342D01*
X87173922Y-122159342D02*
X87126303Y-121968866D01*
X87126303Y-121968866D02*
X87126303Y-121730771D01*
X87126303Y-121730771D02*
X87173922Y-121540295D01*
X87173922Y-121540295D02*
X87221541Y-121445057D01*
X87221541Y-121445057D02*
X87269160Y-121397438D01*
X87269160Y-121397438D02*
X87364398Y-121349819D01*
X78393922Y-130119819D02*
X78727255Y-131119819D01*
X78727255Y-131119819D02*
X79060588Y-130119819D01*
X79965350Y-131119819D02*
X79632017Y-130643628D01*
X79393922Y-131119819D02*
X79393922Y-130119819D01*
X79393922Y-130119819D02*
X79774874Y-130119819D01*
X79774874Y-130119819D02*
X79870112Y-130167438D01*
X79870112Y-130167438D02*
X79917731Y-130215057D01*
X79917731Y-130215057D02*
X79965350Y-130310295D01*
X79965350Y-130310295D02*
X79965350Y-130453152D01*
X79965350Y-130453152D02*
X79917731Y-130548390D01*
X79917731Y-130548390D02*
X79870112Y-130596009D01*
X79870112Y-130596009D02*
X79774874Y-130643628D01*
X79774874Y-130643628D02*
X79393922Y-130643628D01*
X80393922Y-130596009D02*
X80727255Y-130596009D01*
X80870112Y-131119819D02*
X80393922Y-131119819D01*
X80393922Y-131119819D02*
X80393922Y-130119819D01*
X80393922Y-130119819D02*
X80870112Y-130119819D01*
X81632017Y-130596009D02*
X81298684Y-130596009D01*
X81298684Y-131119819D02*
X81298684Y-130119819D01*
X81298684Y-130119819D02*
X81774874Y-130119819D01*
X111209875Y-131947619D02*
X110209875Y-131947619D01*
X110209875Y-131947619D02*
X110209875Y-131566667D01*
X110209875Y-131566667D02*
X110257494Y-131471429D01*
X110257494Y-131471429D02*
X110305113Y-131423810D01*
X110305113Y-131423810D02*
X110400351Y-131376191D01*
X110400351Y-131376191D02*
X110543208Y-131376191D01*
X110543208Y-131376191D02*
X110638446Y-131423810D01*
X110638446Y-131423810D02*
X110686065Y-131471429D01*
X110686065Y-131471429D02*
X110733684Y-131566667D01*
X110733684Y-131566667D02*
X110733684Y-131947619D01*
X111209875Y-130804762D02*
X111162256Y-130900000D01*
X111162256Y-130900000D02*
X111114636Y-130947619D01*
X111114636Y-130947619D02*
X111019398Y-130995238D01*
X111019398Y-130995238D02*
X110733684Y-130995238D01*
X110733684Y-130995238D02*
X110638446Y-130947619D01*
X110638446Y-130947619D02*
X110590827Y-130900000D01*
X110590827Y-130900000D02*
X110543208Y-130804762D01*
X110543208Y-130804762D02*
X110543208Y-130661905D01*
X110543208Y-130661905D02*
X110590827Y-130566667D01*
X110590827Y-130566667D02*
X110638446Y-130519048D01*
X110638446Y-130519048D02*
X110733684Y-130471429D01*
X110733684Y-130471429D02*
X111019398Y-130471429D01*
X111019398Y-130471429D02*
X111114636Y-130519048D01*
X111114636Y-130519048D02*
X111162256Y-130566667D01*
X111162256Y-130566667D02*
X111209875Y-130661905D01*
X111209875Y-130661905D02*
X111209875Y-130804762D01*
X110543208Y-130138095D02*
X111209875Y-129947619D01*
X111209875Y-129947619D02*
X110733684Y-129757143D01*
X110733684Y-129757143D02*
X111209875Y-129566667D01*
X111209875Y-129566667D02*
X110543208Y-129376191D01*
X111162256Y-128614286D02*
X111209875Y-128709524D01*
X111209875Y-128709524D02*
X111209875Y-128900000D01*
X111209875Y-128900000D02*
X111162256Y-128995238D01*
X111162256Y-128995238D02*
X111067017Y-129042857D01*
X111067017Y-129042857D02*
X110686065Y-129042857D01*
X110686065Y-129042857D02*
X110590827Y-128995238D01*
X110590827Y-128995238D02*
X110543208Y-128900000D01*
X110543208Y-128900000D02*
X110543208Y-128709524D01*
X110543208Y-128709524D02*
X110590827Y-128614286D01*
X110590827Y-128614286D02*
X110686065Y-128566667D01*
X110686065Y-128566667D02*
X110781303Y-128566667D01*
X110781303Y-128566667D02*
X110876541Y-129042857D01*
X111209875Y-128138095D02*
X110543208Y-128138095D01*
X110733684Y-128138095D02*
X110638446Y-128090476D01*
X110638446Y-128090476D02*
X110590827Y-128042857D01*
X110590827Y-128042857D02*
X110543208Y-127947619D01*
X110543208Y-127947619D02*
X110543208Y-127852381D01*
X111162256Y-127090476D02*
X111209875Y-127185714D01*
X111209875Y-127185714D02*
X111209875Y-127376190D01*
X111209875Y-127376190D02*
X111162256Y-127471428D01*
X111162256Y-127471428D02*
X111114636Y-127519047D01*
X111114636Y-127519047D02*
X111019398Y-127566666D01*
X111019398Y-127566666D02*
X110733684Y-127566666D01*
X110733684Y-127566666D02*
X110638446Y-127519047D01*
X110638446Y-127519047D02*
X110590827Y-127471428D01*
X110590827Y-127471428D02*
X110543208Y-127376190D01*
X110543208Y-127376190D02*
X110543208Y-127185714D01*
X110543208Y-127185714D02*
X110590827Y-127090476D01*
X111209875Y-126233333D02*
X110686065Y-126233333D01*
X110686065Y-126233333D02*
X110590827Y-126280952D01*
X110590827Y-126280952D02*
X110543208Y-126376190D01*
X110543208Y-126376190D02*
X110543208Y-126566666D01*
X110543208Y-126566666D02*
X110590827Y-126661904D01*
X111162256Y-126233333D02*
X111209875Y-126328571D01*
X111209875Y-126328571D02*
X111209875Y-126566666D01*
X111209875Y-126566666D02*
X111162256Y-126661904D01*
X111162256Y-126661904D02*
X111067017Y-126709523D01*
X111067017Y-126709523D02*
X110971779Y-126709523D01*
X110971779Y-126709523D02*
X110876541Y-126661904D01*
X110876541Y-126661904D02*
X110828922Y-126566666D01*
X110828922Y-126566666D02*
X110828922Y-126328571D01*
X110828922Y-126328571D02*
X110781303Y-126233333D01*
X111162256Y-125804761D02*
X111209875Y-125709523D01*
X111209875Y-125709523D02*
X111209875Y-125519047D01*
X111209875Y-125519047D02*
X111162256Y-125423809D01*
X111162256Y-125423809D02*
X111067017Y-125376190D01*
X111067017Y-125376190D02*
X111019398Y-125376190D01*
X111019398Y-125376190D02*
X110924160Y-125423809D01*
X110924160Y-125423809D02*
X110876541Y-125519047D01*
X110876541Y-125519047D02*
X110876541Y-125661904D01*
X110876541Y-125661904D02*
X110828922Y-125757142D01*
X110828922Y-125757142D02*
X110733684Y-125804761D01*
X110733684Y-125804761D02*
X110686065Y-125804761D01*
X110686065Y-125804761D02*
X110590827Y-125757142D01*
X110590827Y-125757142D02*
X110543208Y-125661904D01*
X110543208Y-125661904D02*
X110543208Y-125519047D01*
X110543208Y-125519047D02*
X110590827Y-125423809D01*
X110543208Y-125090475D02*
X110543208Y-124709523D01*
X110209875Y-124947618D02*
X111067017Y-124947618D01*
X111067017Y-124947618D02*
X111162256Y-124899999D01*
X111162256Y-124899999D02*
X111209875Y-124804761D01*
X111209875Y-124804761D02*
X111209875Y-124709523D01*
X112819819Y-131019047D02*
X111819819Y-131019047D01*
X111819819Y-131019047D02*
X111819819Y-130638095D01*
X111819819Y-130638095D02*
X111867438Y-130542857D01*
X111867438Y-130542857D02*
X111915057Y-130495238D01*
X111915057Y-130495238D02*
X112010295Y-130447619D01*
X112010295Y-130447619D02*
X112153152Y-130447619D01*
X112153152Y-130447619D02*
X112248390Y-130495238D01*
X112248390Y-130495238D02*
X112296009Y-130542857D01*
X112296009Y-130542857D02*
X112343628Y-130638095D01*
X112343628Y-130638095D02*
X112343628Y-131019047D01*
X111915057Y-130066666D02*
X111867438Y-130019047D01*
X111867438Y-130019047D02*
X111819819Y-129923809D01*
X111819819Y-129923809D02*
X111819819Y-129685714D01*
X111819819Y-129685714D02*
X111867438Y-129590476D01*
X111867438Y-129590476D02*
X111915057Y-129542857D01*
X111915057Y-129542857D02*
X112010295Y-129495238D01*
X112010295Y-129495238D02*
X112105533Y-129495238D01*
X112105533Y-129495238D02*
X112248390Y-129542857D01*
X112248390Y-129542857D02*
X112819819Y-130114285D01*
X112819819Y-130114285D02*
X112819819Y-129495238D01*
X112819819Y-128542857D02*
X112819819Y-129114285D01*
X112819819Y-128828571D02*
X111819819Y-128828571D01*
X111819819Y-128828571D02*
X111962676Y-128923809D01*
X111962676Y-128923809D02*
X112057914Y-129019047D01*
X112057914Y-129019047D02*
X112105533Y-129114285D01*
X112819819Y-127590476D02*
X112819819Y-128161904D01*
X112819819Y-127876190D02*
X111819819Y-127876190D01*
X111819819Y-127876190D02*
X111962676Y-127971428D01*
X111962676Y-127971428D02*
X112057914Y-128066666D01*
X112057914Y-128066666D02*
X112105533Y-128161904D01*
X111819819Y-126971428D02*
X111819819Y-126876190D01*
X111819819Y-126876190D02*
X111867438Y-126780952D01*
X111867438Y-126780952D02*
X111915057Y-126733333D01*
X111915057Y-126733333D02*
X112010295Y-126685714D01*
X112010295Y-126685714D02*
X112200771Y-126638095D01*
X112200771Y-126638095D02*
X112438866Y-126638095D01*
X112438866Y-126638095D02*
X112629342Y-126685714D01*
X112629342Y-126685714D02*
X112724580Y-126733333D01*
X112724580Y-126733333D02*
X112772200Y-126780952D01*
X112772200Y-126780952D02*
X112819819Y-126876190D01*
X112819819Y-126876190D02*
X112819819Y-126971428D01*
X112819819Y-126971428D02*
X112772200Y-127066666D01*
X112772200Y-127066666D02*
X112724580Y-127114285D01*
X112724580Y-127114285D02*
X112629342Y-127161904D01*
X112629342Y-127161904D02*
X112438866Y-127209523D01*
X112438866Y-127209523D02*
X112200771Y-127209523D01*
X112200771Y-127209523D02*
X112010295Y-127161904D01*
X112010295Y-127161904D02*
X111915057Y-127114285D01*
X111915057Y-127114285D02*
X111867438Y-127066666D01*
X111867438Y-127066666D02*
X111819819Y-126971428D01*
X112819819Y-126209523D02*
X111819819Y-126209523D01*
X112200771Y-126209523D02*
X112153152Y-126114285D01*
X112153152Y-126114285D02*
X112153152Y-125923809D01*
X112153152Y-125923809D02*
X112200771Y-125828571D01*
X112200771Y-125828571D02*
X112248390Y-125780952D01*
X112248390Y-125780952D02*
X112343628Y-125733333D01*
X112343628Y-125733333D02*
X112629342Y-125733333D01*
X112629342Y-125733333D02*
X112724580Y-125780952D01*
X112724580Y-125780952D02*
X112772200Y-125828571D01*
X112772200Y-125828571D02*
X112819819Y-125923809D01*
X112819819Y-125923809D02*
X112819819Y-126114285D01*
X112819819Y-126114285D02*
X112772200Y-126209523D01*
X97593922Y-105409819D02*
X97927255Y-106409819D01*
X97927255Y-106409819D02*
X98260588Y-105409819D01*
X98593922Y-106409819D02*
X98593922Y-105409819D01*
X98593922Y-105409819D02*
X98832017Y-105409819D01*
X98832017Y-105409819D02*
X98974874Y-105457438D01*
X98974874Y-105457438D02*
X99070112Y-105552676D01*
X99070112Y-105552676D02*
X99117731Y-105647914D01*
X99117731Y-105647914D02*
X99165350Y-105838390D01*
X99165350Y-105838390D02*
X99165350Y-105981247D01*
X99165350Y-105981247D02*
X99117731Y-106171723D01*
X99117731Y-106171723D02*
X99070112Y-106266961D01*
X99070112Y-106266961D02*
X98974874Y-106362200D01*
X98974874Y-106362200D02*
X98832017Y-106409819D01*
X98832017Y-106409819D02*
X98593922Y-106409819D01*
X99593922Y-106409819D02*
X99593922Y-105409819D01*
X99593922Y-105409819D02*
X99832017Y-105409819D01*
X99832017Y-105409819D02*
X99974874Y-105457438D01*
X99974874Y-105457438D02*
X100070112Y-105552676D01*
X100070112Y-105552676D02*
X100117731Y-105647914D01*
X100117731Y-105647914D02*
X100165350Y-105838390D01*
X100165350Y-105838390D02*
X100165350Y-105981247D01*
X100165350Y-105981247D02*
X100117731Y-106171723D01*
X100117731Y-106171723D02*
X100070112Y-106266961D01*
X100070112Y-106266961D02*
X99974874Y-106362200D01*
X99974874Y-106362200D02*
X99832017Y-106409819D01*
X99832017Y-106409819D02*
X99593922Y-106409819D01*
X103260588Y-97217438D02*
X103165350Y-97169819D01*
X103165350Y-97169819D02*
X103022493Y-97169819D01*
X103022493Y-97169819D02*
X102879636Y-97217438D01*
X102879636Y-97217438D02*
X102784398Y-97312676D01*
X102784398Y-97312676D02*
X102736779Y-97407914D01*
X102736779Y-97407914D02*
X102689160Y-97598390D01*
X102689160Y-97598390D02*
X102689160Y-97741247D01*
X102689160Y-97741247D02*
X102736779Y-97931723D01*
X102736779Y-97931723D02*
X102784398Y-98026961D01*
X102784398Y-98026961D02*
X102879636Y-98122200D01*
X102879636Y-98122200D02*
X103022493Y-98169819D01*
X103022493Y-98169819D02*
X103117731Y-98169819D01*
X103117731Y-98169819D02*
X103260588Y-98122200D01*
X103260588Y-98122200D02*
X103308207Y-98074580D01*
X103308207Y-98074580D02*
X103308207Y-97741247D01*
X103308207Y-97741247D02*
X103117731Y-97741247D01*
X103736779Y-98169819D02*
X103736779Y-97169819D01*
X103736779Y-97169819D02*
X104308207Y-98169819D01*
X104308207Y-98169819D02*
X104308207Y-97169819D01*
X104784398Y-98169819D02*
X104784398Y-97169819D01*
X104784398Y-97169819D02*
X105022493Y-97169819D01*
X105022493Y-97169819D02*
X105165350Y-97217438D01*
X105165350Y-97217438D02*
X105260588Y-97312676D01*
X105260588Y-97312676D02*
X105308207Y-97407914D01*
X105308207Y-97407914D02*
X105355826Y-97598390D01*
X105355826Y-97598390D02*
X105355826Y-97741247D01*
X105355826Y-97741247D02*
X105308207Y-97931723D01*
X105308207Y-97931723D02*
X105260588Y-98026961D01*
X105260588Y-98026961D02*
X105165350Y-98122200D01*
X105165350Y-98122200D02*
X105022493Y-98169819D01*
X105022493Y-98169819D02*
X104784398Y-98169819D01*
X97686779Y-119669819D02*
X97686779Y-118669819D01*
X97686779Y-119146009D02*
X98258207Y-119146009D01*
X98258207Y-119669819D02*
X98258207Y-118669819D01*
X98686779Y-119384104D02*
X99162969Y-119384104D01*
X98591541Y-119669819D02*
X98924874Y-118669819D01*
X98924874Y-118669819D02*
X99258207Y-119669819D01*
X100162969Y-119669819D02*
X99829636Y-119193628D01*
X99591541Y-119669819D02*
X99591541Y-118669819D01*
X99591541Y-118669819D02*
X99972493Y-118669819D01*
X99972493Y-118669819D02*
X100067731Y-118717438D01*
X100067731Y-118717438D02*
X100115350Y-118765057D01*
X100115350Y-118765057D02*
X100162969Y-118860295D01*
X100162969Y-118860295D02*
X100162969Y-119003152D01*
X100162969Y-119003152D02*
X100115350Y-119098390D01*
X100115350Y-119098390D02*
X100067731Y-119146009D01*
X100067731Y-119146009D02*
X99972493Y-119193628D01*
X99972493Y-119193628D02*
X99591541Y-119193628D01*
X100448684Y-118669819D02*
X100782017Y-119669819D01*
X100782017Y-119669819D02*
X101115350Y-118669819D01*
X112414999Y-141780780D02*
X112414999Y-141542685D01*
X112653094Y-141637923D02*
X112414999Y-141542685D01*
X112414999Y-141542685D02*
X112176904Y-141637923D01*
X112557856Y-141352209D02*
X112414999Y-141542685D01*
X112414999Y-141542685D02*
X112272142Y-141352209D01*
X112415000Y-140690419D02*
X112415000Y-140928514D01*
X112176905Y-140833276D02*
X112415000Y-140928514D01*
X112415000Y-140928514D02*
X112653095Y-140833276D01*
X112272143Y-141118990D02*
X112415000Y-140928514D01*
X112415000Y-140928514D02*
X112557857Y-141118990D01*
D11*
%TO.C,TP18*%
X119450000Y-120200000D02*
X121850000Y-120200000D01*
X119450000Y-122600000D02*
X119450000Y-120200000D01*
X121850000Y-120200000D02*
X121850000Y-122600000D01*
X121850000Y-122600000D02*
X119450000Y-122600000D01*
%TO.C,R11*%
X89520000Y-137053641D02*
X89520000Y-136746359D01*
X90280000Y-137053641D02*
X90280000Y-136746359D01*
%TO.C,U4*%
X86690000Y-134365000D02*
X86690000Y-135765000D01*
X89010000Y-134355000D02*
X89010000Y-135765000D01*
X89290000Y-134225000D02*
X88960000Y-133985000D01*
X89290000Y-133745000D01*
X89290000Y-134225000D01*
G36*
X89290000Y-134225000D02*
G01*
X88960000Y-133985000D01*
X89290000Y-133745000D01*
X89290000Y-134225000D01*
G37*
D12*
%TO.C,PS1*%
X104799000Y-121269000D02*
X105530000Y-121269000D01*
X104799000Y-135254000D02*
X104799000Y-121269000D01*
X105530000Y-135269000D02*
X104799000Y-135254000D01*
D13*
X106430000Y-136969000D02*
X106430000Y-136969000D01*
X106630000Y-136969000D02*
X106630000Y-136969000D01*
D12*
X117530000Y-135269000D02*
X118261000Y-135269000D01*
X118261000Y-121284000D02*
X117530000Y-121284000D01*
X118261000Y-135269000D02*
X118261000Y-121284000D01*
D13*
X106430000Y-136969000D02*
G75*
G02*
X106630000Y-136969000I100000J0D01*
G01*
X106630000Y-136969000D02*
G75*
G02*
X106430000Y-136969000I-100000J0D01*
G01*
D11*
%TO.C,JP9*%
X100800000Y-130600000D02*
X100800000Y-130000000D01*
X101500000Y-129300000D02*
X102900000Y-129300000D01*
X102900000Y-131300000D02*
X101500000Y-131300000D01*
X103600000Y-130000000D02*
X103600000Y-130600000D01*
X100800000Y-130000000D02*
G75*
G02*
X101500000Y-129300000I699999J1D01*
G01*
X101500000Y-131300000D02*
G75*
G02*
X100800000Y-130600000I-1J699999D01*
G01*
X102900000Y-129300000D02*
G75*
G02*
X103600000Y-130000000I0J-700000D01*
G01*
X103600000Y-130600000D02*
G75*
G02*
X102900000Y-131300000I-700000J0D01*
G01*
%TO.C,TP17*%
X93125000Y-105325000D02*
X95525000Y-105325000D01*
X93125000Y-107725000D02*
X93125000Y-105325000D01*
X95525000Y-105325000D02*
X95525000Y-107725000D01*
X95525000Y-107725000D02*
X93125000Y-107725000D01*
%TO.C,TP11*%
X75650000Y-135450000D02*
X77550000Y-135450000D01*
X75650000Y-137350000D02*
X75650000Y-135450000D01*
X77550000Y-135450000D02*
X77550000Y-137350000D01*
X77550000Y-137350000D02*
X75650000Y-137350000D01*
%TO.C,R13*%
X84353641Y-137065000D02*
X84046359Y-137065000D01*
X84353641Y-137825000D02*
X84046359Y-137825000D01*
%TO.C,TP1*%
X91110000Y-119110000D02*
X93010000Y-119110000D01*
X91110000Y-121010000D02*
X91110000Y-119110000D01*
X93010000Y-119110000D02*
X93010000Y-121010000D01*
X93010000Y-121010000D02*
X91110000Y-121010000D01*
%TO.C,C4*%
X95909190Y-125968307D02*
X96061693Y-126120810D01*
X96418307Y-125459190D02*
X96570810Y-125611693D01*
%TO.C,R5*%
X82203641Y-122570000D02*
X81896359Y-122570000D01*
X82203641Y-123330000D02*
X81896359Y-123330000D01*
%TO.C,R14*%
X89520000Y-135033641D02*
X89520000Y-134726359D01*
X90280000Y-135033641D02*
X90280000Y-134726359D01*
D14*
%TO.C,U1*%
X88324301Y-127065165D02*
G75*
G02*
X88074301Y-127065165I-125000J0D01*
G01*
X88074301Y-127065165D02*
G75*
G02*
X88324301Y-127065165I125000J0D01*
G01*
D11*
%TO.C,C2*%
X88871693Y-130019190D02*
X88719190Y-130171693D01*
X89380810Y-130528307D02*
X89228307Y-130680810D01*
%TO.C,C3*%
X87561693Y-128120810D02*
X87409190Y-127968307D01*
X88070810Y-127611693D02*
X87918307Y-127459190D01*
D12*
%TO.C,S4*%
X75698000Y-125910000D02*
X75698000Y-125910000D01*
X75798000Y-125910000D02*
X75798000Y-125910000D01*
X75698000Y-125910000D02*
G75*
G02*
X75798000Y-125910000I50000J0D01*
G01*
X75798000Y-125910000D02*
G75*
G02*
X75698000Y-125910000I-50000J0D01*
G01*
D11*
%TO.C,C23*%
X88107836Y-137140000D02*
X87892164Y-137140000D01*
X88107836Y-137860000D02*
X87892164Y-137860000D01*
%TO.C,C24*%
X82690000Y-129407836D02*
X82690000Y-129192164D01*
X83410000Y-129407836D02*
X83410000Y-129192164D01*
%TO.C,JP5*%
X100800000Y-125400000D02*
X100800000Y-124800000D01*
X101500000Y-124100000D02*
X102900000Y-124100000D01*
X102900000Y-126100000D02*
X101500000Y-126100000D01*
X103600000Y-124800000D02*
X103600000Y-125400000D01*
X100800000Y-124800000D02*
G75*
G02*
X101500000Y-124100000I699999J1D01*
G01*
X101500000Y-126100000D02*
G75*
G02*
X100800000Y-125400000I-1J699999D01*
G01*
X102900000Y-124100000D02*
G75*
G02*
X103600000Y-124800000I0J-700000D01*
G01*
X103600000Y-125400000D02*
G75*
G02*
X102900000Y-126100000I-700000J0D01*
G01*
%TO.C,R1*%
X86178641Y-125395000D02*
X85871359Y-125395000D01*
X86178641Y-126155000D02*
X85871359Y-126155000D01*
%TO.C,TP6*%
X77050000Y-117050000D02*
X78950000Y-117050000D01*
X77050000Y-118950000D02*
X77050000Y-117050000D01*
X78950000Y-117050000D02*
X78950000Y-118950000D01*
X78950000Y-118950000D02*
X77050000Y-118950000D01*
%TO.C,TP9*%
X75650000Y-131550000D02*
X77550000Y-131550000D01*
X75650000Y-133450000D02*
X75650000Y-131550000D01*
X77550000Y-131550000D02*
X77550000Y-133450000D01*
X77550000Y-133450000D02*
X75650000Y-133450000D01*
%TO.C,TP3*%
X93810000Y-113350000D02*
X95710000Y-113350000D01*
X93810000Y-115250000D02*
X93810000Y-113350000D01*
X95710000Y-113350000D02*
X95710000Y-115250000D01*
X95710000Y-115250000D02*
X93810000Y-115250000D01*
D12*
%TO.C,D1*%
X99490000Y-121800000D02*
G75*
G02*
X99390000Y-121800000I-50000J0D01*
G01*
X99390000Y-121800000D02*
G75*
G02*
X99490000Y-121800000I50000J0D01*
G01*
D13*
%TO.C,IC2*%
X82475000Y-136540000D02*
X82475000Y-135090000D01*
X82525000Y-132440000D02*
X85525000Y-132440000D01*
X82525000Y-134740000D02*
X82525000Y-132440000D01*
X85525000Y-132440000D02*
X85525000Y-134740000D01*
X85525000Y-134740000D02*
X82525000Y-134740000D01*
D11*
%TO.C,R2*%
X101646359Y-121020000D02*
X101953641Y-121020000D01*
X101646359Y-121780000D02*
X101953641Y-121780000D01*
%TO.C,TP12*%
X79000000Y-131550000D02*
X80900000Y-131550000D01*
X79000000Y-133450000D02*
X79000000Y-131550000D01*
X80900000Y-131550000D02*
X80900000Y-133450000D01*
X80900000Y-133450000D02*
X79000000Y-133450000D01*
%TO.C,TP5*%
X80400000Y-117575000D02*
X82300000Y-117575000D01*
X80400000Y-119475000D02*
X80400000Y-117575000D01*
X82300000Y-117575000D02*
X82300000Y-119475000D01*
X82300000Y-119475000D02*
X80400000Y-119475000D01*
%TO.C,R4*%
X97196359Y-120270000D02*
X97503641Y-120270000D01*
X97196359Y-121030000D02*
X97503641Y-121030000D01*
D12*
%TO.C,D2*%
X80010000Y-121750000D02*
G75*
G02*
X79910000Y-121750000I-50000J0D01*
G01*
X79910000Y-121750000D02*
G75*
G02*
X80010000Y-121750000I50000J0D01*
G01*
D11*
%TO.C,TP16*%
X119500000Y-128300000D02*
X121900000Y-128300000D01*
X119500000Y-130700000D02*
X119500000Y-128300000D01*
X121900000Y-128300000D02*
X121900000Y-130700000D01*
X121900000Y-130700000D02*
X119500000Y-130700000D01*
D13*
%TO.C,C8*%
X113350000Y-118775000D02*
X120650000Y-118775000D01*
X120650000Y-112625000D02*
X112750000Y-112625000D01*
D11*
%TO.C,JP6*%
X100800000Y-128000000D02*
X100800000Y-127400000D01*
X101500000Y-126700000D02*
X102900000Y-126700000D01*
X102900000Y-128700000D02*
X101500000Y-128700000D01*
X103600000Y-127400000D02*
X103600000Y-128000000D01*
X100800000Y-127400000D02*
G75*
G02*
X101500000Y-126700000I699999J1D01*
G01*
X101500000Y-128700000D02*
G75*
G02*
X100800000Y-128000000I-1J699999D01*
G01*
X102900000Y-126700000D02*
G75*
G02*
X103600000Y-127400000I0J-700000D01*
G01*
X103600000Y-128000000D02*
G75*
G02*
X102900000Y-128700000I-700000J0D01*
G01*
%TO.C,R3*%
X101920000Y-119846359D02*
X101920000Y-120153641D01*
X102680000Y-119846359D02*
X102680000Y-120153641D01*
%TO.C,TP14*%
X95100000Y-133600000D02*
X97500000Y-133600000D01*
X95100000Y-136000000D02*
X95100000Y-133600000D01*
X97500000Y-133600000D02*
X97500000Y-136000000D01*
X97500000Y-136000000D02*
X95100000Y-136000000D01*
%TO.C,J2*%
X103670000Y-101830000D02*
X103670000Y-100500000D01*
X105000000Y-101830000D02*
X103670000Y-101830000D01*
X106270000Y-99170000D02*
X113950000Y-99170000D01*
X106270000Y-101830000D02*
X106270000Y-99170000D01*
X106270000Y-101830000D02*
X113950000Y-101830000D01*
X113950000Y-101830000D02*
X113950000Y-99170000D01*
%TO.C,R10*%
X94946359Y-122120000D02*
X95253641Y-122120000D01*
X94946359Y-122880000D02*
X95253641Y-122880000D01*
D13*
%TO.C,C6*%
X104350000Y-118775000D02*
X112250000Y-118775000D01*
X111650000Y-112625000D02*
X104350000Y-112625000D01*
D11*
%TO.C,R6*%
X93453641Y-137020000D02*
X93146359Y-137020000D01*
X93453641Y-137780000D02*
X93146359Y-137780000D01*
D13*
%TO.C,C5*%
X104350000Y-111775000D02*
X112250000Y-111775000D01*
X111650000Y-105625000D02*
X104350000Y-105625000D01*
D11*
%TO.C,TP2*%
X84300000Y-118080000D02*
X86200000Y-118080000D01*
X84300000Y-119980000D02*
X84300000Y-118080000D01*
X86200000Y-118080000D02*
X86200000Y-119980000D01*
X86200000Y-119980000D02*
X84300000Y-119980000D01*
%TO.C,C22*%
X81940000Y-124557836D02*
X81940000Y-124342164D01*
X82660000Y-124557836D02*
X82660000Y-124342164D01*
%TO.C,TP4*%
X93800000Y-110430000D02*
X95700000Y-110430000D01*
X93800000Y-112330000D02*
X93800000Y-110430000D01*
X95700000Y-110430000D02*
X95700000Y-112330000D01*
X95700000Y-112330000D02*
X93800000Y-112330000D01*
D15*
%TO.C,J3*%
X104883900Y-144489340D02*
X104883900Y-145934600D01*
X104883900Y-145680600D02*
X104883900Y-153935600D01*
X104883900Y-145934600D02*
X114866100Y-145934600D01*
X104883900Y-153935600D02*
X114866100Y-153935600D01*
X108399260Y-138873400D02*
X107032740Y-138873400D01*
X112717260Y-138873400D02*
X111350740Y-138873400D01*
X114866100Y-145680600D02*
X104883900Y-145680600D01*
X114866100Y-145934600D02*
X114866100Y-144489340D01*
X114866100Y-153935600D02*
X114866100Y-145680600D01*
D13*
%TO.C,C1*%
X113350000Y-111775000D02*
X120650000Y-111775000D01*
X120650000Y-105625000D02*
X112750000Y-105625000D01*
D11*
%TO.C,nRF24L01+*%
X80330000Y-109440000D02*
X80330000Y-114640000D01*
X88010000Y-112040000D02*
X88010000Y-114640000D01*
X88010000Y-114640000D02*
X80330000Y-114640000D01*
X90610000Y-109440000D02*
X80330000Y-109440000D01*
X90610000Y-109440000D02*
X90610000Y-112040000D01*
X90610000Y-112040000D02*
X88010000Y-112040000D01*
X90610000Y-113310000D02*
X90610000Y-114640000D01*
X90610000Y-114640000D02*
X89280000Y-114640000D01*
%TO.C,C7*%
X85821693Y-127830810D02*
X85669190Y-127678307D01*
X86330810Y-127321693D02*
X86178307Y-127169190D01*
%TO.C,JP2*%
X83375000Y-124125000D02*
X83375000Y-123525000D01*
X83925000Y-125325000D02*
X84525000Y-125325000D01*
X84025000Y-122825000D02*
X86825000Y-122825000D01*
X84225000Y-125025000D02*
X83925000Y-125325000D01*
X84225000Y-125025000D02*
X84525000Y-125325000D01*
X86825000Y-124825000D02*
X84025000Y-124825000D01*
X87475000Y-123525000D02*
X87475000Y-124125000D01*
X83375000Y-123525000D02*
G75*
G02*
X84075000Y-122825000I699999J1D01*
G01*
X84075000Y-124825000D02*
G75*
G02*
X83375000Y-124125000I-1J699999D01*
G01*
X86775000Y-122825000D02*
G75*
G02*
X87475000Y-123525000I0J-700000D01*
G01*
X87475000Y-124125000D02*
G75*
G02*
X86775000Y-124825000I-700000J0D01*
G01*
%TO.C,TP10*%
X78950000Y-135450000D02*
X80850000Y-135450000D01*
X78950000Y-137350000D02*
X78950000Y-135450000D01*
X80850000Y-135450000D02*
X80850000Y-137350000D01*
X80850000Y-137350000D02*
X78950000Y-137350000D01*
%TO.C,J4*%
X93590000Y-143330000D02*
X93590000Y-142000000D01*
X94920000Y-143330000D02*
X93590000Y-143330000D01*
X96190000Y-140670000D02*
X101330000Y-140670000D01*
X96190000Y-143330000D02*
X96190000Y-140670000D01*
X96190000Y-143330000D02*
X101330000Y-143330000D01*
X101330000Y-143330000D02*
X101330000Y-140670000D01*
%TO.C,TP13*%
X92100000Y-133600000D02*
X94500000Y-133600000D01*
X92100000Y-136000000D02*
X92100000Y-133600000D01*
X94500000Y-133600000D02*
X94500000Y-136000000D01*
X94500000Y-136000000D02*
X92100000Y-136000000D01*
D12*
%TO.C,S1*%
X99550000Y-133400000D02*
X101800000Y-133400000D01*
X99550000Y-135100000D02*
X99550000Y-133400000D01*
X99550000Y-138800000D02*
X99550000Y-137100000D01*
X101950000Y-138800000D02*
X99550000Y-138800000D01*
X101950000Y-138800000D02*
X101950000Y-138800000D01*
X102050000Y-136600000D02*
X102050000Y-135600000D01*
D13*
X103300000Y-137800000D02*
X103300000Y-137800000D01*
X103500000Y-137800000D02*
X103500000Y-137800000D01*
X103300000Y-137800000D02*
G75*
G02*
X103500000Y-137800000I100000J0D01*
G01*
X103500000Y-137800000D02*
G75*
G02*
X103300000Y-137800000I-100000J0D01*
G01*
D11*
%TO.C,TP15*%
X97700000Y-106900000D02*
X100100000Y-106900000D01*
X97700000Y-109300000D02*
X97700000Y-106900000D01*
X100100000Y-106900000D02*
X100100000Y-109300000D01*
X100100000Y-109300000D02*
X97700000Y-109300000D01*
D13*
%TO.C,IC1*%
X83375000Y-138345000D02*
X84825000Y-138345000D01*
X85175000Y-138400000D02*
X88625000Y-138400000D01*
X85175000Y-143500000D02*
X85175000Y-138400000D01*
X88625000Y-138400000D02*
X88625000Y-143500000D01*
X88625000Y-143500000D02*
X85175000Y-143500000D01*
D12*
%TO.C,S5*%
X98050000Y-112600000D02*
X100300000Y-112600000D01*
X98050000Y-114300000D02*
X98050000Y-112600000D01*
X98050000Y-118000000D02*
X98050000Y-116300000D01*
X100450000Y-118000000D02*
X98050000Y-118000000D01*
X100450000Y-118000000D02*
X100450000Y-118000000D01*
X100550000Y-115800000D02*
X100550000Y-114800000D01*
D13*
X101800000Y-117000000D02*
X101800000Y-117000000D01*
X102000000Y-117000000D02*
X102000000Y-117000000D01*
X101800000Y-117000000D02*
G75*
G02*
X102000000Y-117000000I100000J0D01*
G01*
X102000000Y-117000000D02*
G75*
G02*
X101800000Y-117000000I-100000J0D01*
G01*
D11*
%TO.C,JP1*%
X76700000Y-122500000D02*
X76700000Y-121900000D01*
X77400000Y-121200000D02*
X78800000Y-121200000D01*
X78800000Y-123200000D02*
X77400000Y-123200000D01*
X79500000Y-121900000D02*
X79500000Y-122500000D01*
X76700000Y-121900000D02*
G75*
G02*
X77400000Y-121200000I699999J1D01*
G01*
X77400000Y-123200000D02*
G75*
G02*
X76700000Y-122500000I-1J699999D01*
G01*
X78800000Y-121200000D02*
G75*
G02*
X79500000Y-121900000I0J-700000D01*
G01*
X79500000Y-122500000D02*
G75*
G02*
X78800000Y-123200000I-700000J0D01*
G01*
%TO.C,R7*%
X95553641Y-137020000D02*
X95246359Y-137020000D01*
X95553641Y-137780000D02*
X95246359Y-137780000D01*
%TD*%
M02*
