M48
; DRILL file {KiCad 8.0.2} date 2024-07-16T02:57:15-0700
; FORMAT={-:-/ absolute / metric / decimal}
; #@! TF.CreationDate,2024-07-16T02:57:15-07:00
; #@! TF.GenerationSoftware,Kicad,Pcbnew,8.0.2
; #@! TF.FileFunction,Plated,1,2,PTH
FMAT,2
METRIC
; #@! TA.AperFunction,Plated,PTH,ViaDrill
T1C0.300
; #@! TA.AperFunction,Plated,PTH,ViaDrill
T2C0.400
; #@! TA.AperFunction,Plated,PTH,ComponentDrill
T3C1.000
; #@! TA.AperFunction,Plated,PTH,ComponentDrill
T4C2.200
%
G90
G05
T1
X75.5Y-102.8
X75.5Y-106.2
X76.025Y-113.825
X77.0Y-124.0
X78.41Y-127.05
X78.9Y-102.8
X78.9Y-106.2
X80.0Y-124.4
X80.2Y-115.4
X80.48Y-123.04
X81.84Y-128.24
X81.95Y-141.15
X82.025Y-127.275
X82.19Y-142.83
X82.3Y-102.8
X82.3Y-106.2
X84.972Y-126.603
X85.9Y-102.8
X85.9Y-106.2
X86.3Y-132.3
X87.0Y-139.0
X87.1Y-130.7
X87.425Y-119.35
X87.7Y-124.4
X87.74Y-125.74
X87.87Y-131.39
X88.0Y-139.0
X88.0Y-140.0
X88.2Y-133.2
X88.975Y-119.35
X89.3Y-102.8
X89.3Y-106.2
X89.575Y-131.37
X89.9Y-133.5
X90.35Y-126.8
X90.9Y-132.68
X91.1Y-142.5
X91.475Y-116.0
X92.0Y-125.35
X92.0Y-128.5
X92.15Y-113.75
X92.175Y-108.575
X92.7Y-102.8
X93.6Y-126.8
X94.1Y-117.9
X95.5Y-121.0
X95.8Y-129.6
X95.8Y-131.0
X95.865Y-128.19
X95.9Y-119.71
X96.1Y-102.8
X96.84Y-122.8
X96.84Y-125.0
X97.4Y-137.2
X97.5Y-127.5
X97.5Y-129.0
X98.0Y-97.5
X98.0Y-100.9
X98.7Y-138.2
X98.85Y-122.8
X98.85Y-131.15
X99.82Y-134.22
X99.9Y-120.75
X100.0Y-127.5
X100.0Y-129.0
X100.07Y-132.41
X100.15Y-139.6
X100.2Y-122.45
X101.4Y-97.5
X101.4Y-100.9
X102.13Y-132.41
X102.5Y-109.925
X102.88Y-112.26
X107.5Y-128.5
X107.9Y-131.41
X109.1Y-126.9
X114.92Y-128.26
X115.71Y-123.89
X116.42Y-130.87
X116.88Y-128.8
X117.58Y-123.52
T2
X104.75Y-140.7
X104.75Y-142.1
X111.5Y-123.0
X115.0Y-140.7
X115.0Y-142.1
T3
X81.66Y-110.77
X81.66Y-113.31
X84.2Y-110.77
X84.2Y-113.31
X86.74Y-110.77
X86.74Y-113.31
X89.28Y-110.77
X89.28Y-113.31
X94.92Y-142.0
X97.46Y-142.0
X100.0Y-142.0
X105.0Y-100.5
X107.54Y-100.5
X110.08Y-100.5
X112.62Y-100.5
T4
X78.5Y-140.5
X118.5Y-100.5
X118.5Y-140.5
M30
