%TF.GenerationSoftware,KiCad,Pcbnew,8.0.2*%
%TF.CreationDate,2024-07-16T02:57:23-07:00*%
%TF.ProjectId,sensor-node-rev-2s,73656e73-6f72-42d6-9e6f-64652d726576,rev?*%
%TF.SameCoordinates,Original*%
%TF.FileFunction,Legend,Bot*%
%TF.FilePolarity,Positive*%
%FSLAX46Y46*%
G04 Gerber Fmt 4.6, Leading zero omitted, Abs format (unit mm)*
G04 Created by KiCad (PCBNEW 8.0.2) date 2024-07-16 02:57:23*
%MOMM*%
%LPD*%
G01*
G04 APERTURE LIST*
%ADD10C,0.150000*%
G04 APERTURE END LIST*
D10*
X119699875Y-103856779D02*
X118699875Y-103856779D01*
X118699875Y-103856779D02*
X119414160Y-104190112D01*
X119414160Y-104190112D02*
X118699875Y-104523445D01*
X118699875Y-104523445D02*
X119699875Y-104523445D01*
X119699875Y-104999636D02*
X119033208Y-104999636D01*
X118699875Y-104999636D02*
X118747494Y-104952017D01*
X118747494Y-104952017D02*
X118795113Y-104999636D01*
X118795113Y-104999636D02*
X118747494Y-105047255D01*
X118747494Y-105047255D02*
X118699875Y-104999636D01*
X118699875Y-104999636D02*
X118795113Y-104999636D01*
X119699875Y-105475826D02*
X118699875Y-105475826D01*
X119699875Y-105904397D02*
X119176065Y-105904397D01*
X119176065Y-105904397D02*
X119080827Y-105856778D01*
X119080827Y-105856778D02*
X119033208Y-105761540D01*
X119033208Y-105761540D02*
X119033208Y-105618683D01*
X119033208Y-105618683D02*
X119080827Y-105523445D01*
X119080827Y-105523445D02*
X119128446Y-105475826D01*
X119699875Y-106380588D02*
X119033208Y-106380588D01*
X118699875Y-106380588D02*
X118747494Y-106332969D01*
X118747494Y-106332969D02*
X118795113Y-106380588D01*
X118795113Y-106380588D02*
X118747494Y-106428207D01*
X118747494Y-106428207D02*
X118699875Y-106380588D01*
X118699875Y-106380588D02*
X118795113Y-106380588D01*
X119699875Y-106856778D02*
X119033208Y-106856778D01*
X119223684Y-106856778D02*
X119128446Y-106904397D01*
X119128446Y-106904397D02*
X119080827Y-106952016D01*
X119080827Y-106952016D02*
X119033208Y-107047254D01*
X119033208Y-107047254D02*
X119033208Y-107142492D01*
X119699875Y-108237731D02*
X118699875Y-108237731D01*
X118699875Y-108237731D02*
X119699875Y-108809159D01*
X119699875Y-108809159D02*
X118699875Y-108809159D01*
X119699875Y-109285350D02*
X119033208Y-109285350D01*
X118699875Y-109285350D02*
X118747494Y-109237731D01*
X118747494Y-109237731D02*
X118795113Y-109285350D01*
X118795113Y-109285350D02*
X118747494Y-109332969D01*
X118747494Y-109332969D02*
X118699875Y-109285350D01*
X118699875Y-109285350D02*
X118795113Y-109285350D01*
X119699875Y-109761540D02*
X119033208Y-109761540D01*
X119128446Y-109761540D02*
X119080827Y-109809159D01*
X119080827Y-109809159D02*
X119033208Y-109904397D01*
X119033208Y-109904397D02*
X119033208Y-110047254D01*
X119033208Y-110047254D02*
X119080827Y-110142492D01*
X119080827Y-110142492D02*
X119176065Y-110190111D01*
X119176065Y-110190111D02*
X119699875Y-110190111D01*
X119176065Y-110190111D02*
X119080827Y-110237730D01*
X119080827Y-110237730D02*
X119033208Y-110332968D01*
X119033208Y-110332968D02*
X119033208Y-110475825D01*
X119033208Y-110475825D02*
X119080827Y-110571064D01*
X119080827Y-110571064D02*
X119176065Y-110618683D01*
X119176065Y-110618683D02*
X119699875Y-110618683D01*
X119033208Y-111523444D02*
X119842732Y-111523444D01*
X119842732Y-111523444D02*
X119937970Y-111475825D01*
X119937970Y-111475825D02*
X119985589Y-111428206D01*
X119985589Y-111428206D02*
X120033208Y-111332968D01*
X120033208Y-111332968D02*
X120033208Y-111190111D01*
X120033208Y-111190111D02*
X119985589Y-111094873D01*
X119652256Y-111523444D02*
X119699875Y-111428206D01*
X119699875Y-111428206D02*
X119699875Y-111237730D01*
X119699875Y-111237730D02*
X119652256Y-111142492D01*
X119652256Y-111142492D02*
X119604636Y-111094873D01*
X119604636Y-111094873D02*
X119509398Y-111047254D01*
X119509398Y-111047254D02*
X119223684Y-111047254D01*
X119223684Y-111047254D02*
X119128446Y-111094873D01*
X119128446Y-111094873D02*
X119080827Y-111142492D01*
X119080827Y-111142492D02*
X119033208Y-111237730D01*
X119033208Y-111237730D02*
X119033208Y-111428206D01*
X119033208Y-111428206D02*
X119080827Y-111523444D01*
X119699875Y-112428206D02*
X119176065Y-112428206D01*
X119176065Y-112428206D02*
X119080827Y-112380587D01*
X119080827Y-112380587D02*
X119033208Y-112285349D01*
X119033208Y-112285349D02*
X119033208Y-112094873D01*
X119033208Y-112094873D02*
X119080827Y-111999635D01*
X119652256Y-112428206D02*
X119699875Y-112332968D01*
X119699875Y-112332968D02*
X119699875Y-112094873D01*
X119699875Y-112094873D02*
X119652256Y-111999635D01*
X119652256Y-111999635D02*
X119557017Y-111952016D01*
X119557017Y-111952016D02*
X119461779Y-111952016D01*
X119461779Y-111952016D02*
X119366541Y-111999635D01*
X119366541Y-111999635D02*
X119318922Y-112094873D01*
X119318922Y-112094873D02*
X119318922Y-112332968D01*
X119318922Y-112332968D02*
X119271303Y-112428206D01*
X119699875Y-113332968D02*
X118699875Y-113332968D01*
X119652256Y-113332968D02*
X119699875Y-113237730D01*
X119699875Y-113237730D02*
X119699875Y-113047254D01*
X119699875Y-113047254D02*
X119652256Y-112952016D01*
X119652256Y-112952016D02*
X119604636Y-112904397D01*
X119604636Y-112904397D02*
X119509398Y-112856778D01*
X119509398Y-112856778D02*
X119223684Y-112856778D01*
X119223684Y-112856778D02*
X119128446Y-112904397D01*
X119128446Y-112904397D02*
X119080827Y-112952016D01*
X119080827Y-112952016D02*
X119033208Y-113047254D01*
X119033208Y-113047254D02*
X119033208Y-113237730D01*
X119033208Y-113237730D02*
X119080827Y-113332968D01*
X119652256Y-114190111D02*
X119699875Y-114094873D01*
X119699875Y-114094873D02*
X119699875Y-113904397D01*
X119699875Y-113904397D02*
X119652256Y-113809159D01*
X119652256Y-113809159D02*
X119557017Y-113761540D01*
X119557017Y-113761540D02*
X119176065Y-113761540D01*
X119176065Y-113761540D02*
X119080827Y-113809159D01*
X119080827Y-113809159D02*
X119033208Y-113904397D01*
X119033208Y-113904397D02*
X119033208Y-114094873D01*
X119033208Y-114094873D02*
X119080827Y-114190111D01*
X119080827Y-114190111D02*
X119176065Y-114237730D01*
X119176065Y-114237730D02*
X119271303Y-114237730D01*
X119271303Y-114237730D02*
X119366541Y-113761540D01*
X120405057Y-103809160D02*
X120357438Y-103856779D01*
X120357438Y-103856779D02*
X120309819Y-103952017D01*
X120309819Y-103952017D02*
X120309819Y-104190112D01*
X120309819Y-104190112D02*
X120357438Y-104285350D01*
X120357438Y-104285350D02*
X120405057Y-104332969D01*
X120405057Y-104332969D02*
X120500295Y-104380588D01*
X120500295Y-104380588D02*
X120595533Y-104380588D01*
X120595533Y-104380588D02*
X120738390Y-104332969D01*
X120738390Y-104332969D02*
X121309819Y-103761541D01*
X121309819Y-103761541D02*
X121309819Y-104380588D01*
X120309819Y-104999636D02*
X120309819Y-105094874D01*
X120309819Y-105094874D02*
X120357438Y-105190112D01*
X120357438Y-105190112D02*
X120405057Y-105237731D01*
X120405057Y-105237731D02*
X120500295Y-105285350D01*
X120500295Y-105285350D02*
X120690771Y-105332969D01*
X120690771Y-105332969D02*
X120928866Y-105332969D01*
X120928866Y-105332969D02*
X121119342Y-105285350D01*
X121119342Y-105285350D02*
X121214580Y-105237731D01*
X121214580Y-105237731D02*
X121262200Y-105190112D01*
X121262200Y-105190112D02*
X121309819Y-105094874D01*
X121309819Y-105094874D02*
X121309819Y-104999636D01*
X121309819Y-104999636D02*
X121262200Y-104904398D01*
X121262200Y-104904398D02*
X121214580Y-104856779D01*
X121214580Y-104856779D02*
X121119342Y-104809160D01*
X121119342Y-104809160D02*
X120928866Y-104761541D01*
X120928866Y-104761541D02*
X120690771Y-104761541D01*
X120690771Y-104761541D02*
X120500295Y-104809160D01*
X120500295Y-104809160D02*
X120405057Y-104856779D01*
X120405057Y-104856779D02*
X120357438Y-104904398D01*
X120357438Y-104904398D02*
X120309819Y-104999636D01*
X120405057Y-105713922D02*
X120357438Y-105761541D01*
X120357438Y-105761541D02*
X120309819Y-105856779D01*
X120309819Y-105856779D02*
X120309819Y-106094874D01*
X120309819Y-106094874D02*
X120357438Y-106190112D01*
X120357438Y-106190112D02*
X120405057Y-106237731D01*
X120405057Y-106237731D02*
X120500295Y-106285350D01*
X120500295Y-106285350D02*
X120595533Y-106285350D01*
X120595533Y-106285350D02*
X120738390Y-106237731D01*
X120738390Y-106237731D02*
X121309819Y-105666303D01*
X121309819Y-105666303D02*
X121309819Y-106285350D01*
X120643152Y-107142493D02*
X121309819Y-107142493D01*
X120262200Y-106904398D02*
X120976485Y-106666303D01*
X120976485Y-106666303D02*
X120976485Y-107285350D01*
X120928866Y-107666303D02*
X120928866Y-108428208D01*
X120309819Y-109094874D02*
X120309819Y-109190112D01*
X120309819Y-109190112D02*
X120357438Y-109285350D01*
X120357438Y-109285350D02*
X120405057Y-109332969D01*
X120405057Y-109332969D02*
X120500295Y-109380588D01*
X120500295Y-109380588D02*
X120690771Y-109428207D01*
X120690771Y-109428207D02*
X120928866Y-109428207D01*
X120928866Y-109428207D02*
X121119342Y-109380588D01*
X121119342Y-109380588D02*
X121214580Y-109332969D01*
X121214580Y-109332969D02*
X121262200Y-109285350D01*
X121262200Y-109285350D02*
X121309819Y-109190112D01*
X121309819Y-109190112D02*
X121309819Y-109094874D01*
X121309819Y-109094874D02*
X121262200Y-108999636D01*
X121262200Y-108999636D02*
X121214580Y-108952017D01*
X121214580Y-108952017D02*
X121119342Y-108904398D01*
X121119342Y-108904398D02*
X120928866Y-108856779D01*
X120928866Y-108856779D02*
X120690771Y-108856779D01*
X120690771Y-108856779D02*
X120500295Y-108904398D01*
X120500295Y-108904398D02*
X120405057Y-108952017D01*
X120405057Y-108952017D02*
X120357438Y-108999636D01*
X120357438Y-108999636D02*
X120309819Y-109094874D01*
X120309819Y-109761541D02*
X120309819Y-110428207D01*
X120309819Y-110428207D02*
X121309819Y-109999636D01*
M02*
