%TF.GenerationSoftware,KiCad,Pcbnew,8.0.2*%
%TF.CreationDate,2024-07-16T11:47:38-07:00*%
%TF.ProjectId,sensor-node-rev-2s,73656e73-6f72-42d6-9e6f-64652d726576,rev?*%
%TF.SameCoordinates,Original*%
%TF.FileFunction,Copper,L2,Bot*%
%TF.FilePolarity,Positive*%
%FSLAX46Y46*%
G04 Gerber Fmt 4.6, Leading zero omitted, Abs format (unit mm)*
G04 Created by KiCad (PCBNEW 8.0.2) date 2024-07-16 11:47:38*
%MOMM*%
%LPD*%
G01*
G04 APERTURE LIST*
%TA.AperFunction,ComponentPad*%
%ADD10R,1.700000X1.700000*%
%TD*%
%TA.AperFunction,ComponentPad*%
%ADD11O,1.700000X1.700000*%
%TD*%
%TA.AperFunction,ComponentPad*%
%ADD12C,4.400000*%
%TD*%
%TA.AperFunction,ViaPad*%
%ADD13C,0.700000*%
%TD*%
%TA.AperFunction,ViaPad*%
%ADD14C,0.900000*%
%TD*%
%TA.AperFunction,Conductor*%
%ADD15C,0.300000*%
%TD*%
%TA.AperFunction,Conductor*%
%ADD16C,0.200000*%
%TD*%
%TA.AperFunction,Conductor*%
%ADD17C,0.500000*%
%TD*%
G04 APERTURE END LIST*
D10*
%TO.P,J2,1,Pin_1*%
%TO.N,GND*%
X105000000Y-100500000D03*
D11*
%TO.P,J2,2,Pin_2*%
%TO.N,SWCLK*%
X107540000Y-100500000D03*
%TO.P,J2,3,Pin_3*%
%TO.N,SWDIO*%
X110080000Y-100500000D03*
%TO.P,J2,4,Pin_4*%
%TO.N,+3.3V*%
X112620000Y-100500000D03*
%TD*%
D12*
%TO.P,H3,1,1*%
%TO.N,GND*%
X118500000Y-100500000D03*
%TD*%
%TO.P,H4,1,1*%
%TO.N,GND*%
X118500000Y-140500000D03*
%TD*%
D11*
%TO.P,nRF24L01+,1,Pin_1*%
%TO.N,NRF_IRQ*%
X89280000Y-110770000D03*
%TO.P,nRF24L01+,2,Pin_2*%
%TO.N,NRF_MOSI*%
X86740000Y-110770000D03*
%TO.P,nRF24L01+,3,Pin_3*%
%TO.N,NRF_CSN*%
X84200000Y-110770000D03*
%TO.P,nRF24L01+,4,Pin_4*%
%TO.N,VDD*%
X81660000Y-110770000D03*
%TO.P,nRF24L01+,5,Pin_5*%
%TO.N,GND*%
X81660000Y-113310000D03*
%TO.P,nRF24L01+,6,Pin_6*%
%TO.N,NRF_CE*%
X84200000Y-113310000D03*
%TO.P,nRF24L01+,7,Pin_7*%
%TO.N,NRF_SCK*%
X86740000Y-113310000D03*
D10*
%TO.P,nRF24L01+,8,Pin_8*%
%TO.N,NRF_MISO*%
X89280000Y-113310000D03*
%TD*%
%TO.P,J4,1,Pin_1*%
%TO.N,Net-(J4-Pin_1)*%
X94920000Y-142000000D03*
D11*
%TO.P,J4,2,Pin_2*%
%TO.N,Net-(J4-Pin_2)*%
X97460000Y-142000000D03*
%TO.P,J4,3,Pin_3*%
%TO.N,GND*%
X100000000Y-142000000D03*
%TD*%
D12*
%TO.P,H2,1,1*%
%TO.N,GND*%
X78500000Y-140500000D03*
%TD*%
D13*
%TO.N,GND*%
X86300000Y-132300000D03*
X92175000Y-108575000D03*
X97400000Y-137200000D03*
X82190000Y-142830000D03*
X116880000Y-128800000D03*
X80000000Y-124400000D03*
X87100000Y-130700000D03*
X88200000Y-133200000D03*
X100070000Y-132410000D03*
X91475000Y-116000000D03*
X117580000Y-123520000D03*
X100150000Y-139600000D03*
X94100000Y-117900000D03*
X88000000Y-140000000D03*
X78900000Y-106200000D03*
X98700000Y-138200000D03*
X102880000Y-112260000D03*
X89300000Y-102800000D03*
X82300000Y-102800000D03*
X81950000Y-141150000D03*
D14*
X104750000Y-140700000D03*
D13*
X115710000Y-123890000D03*
X85900000Y-102800000D03*
X82300000Y-106200000D03*
X78410000Y-127050000D03*
X77000000Y-124000000D03*
X84972120Y-126602880D03*
X87740000Y-125740000D03*
X95500000Y-121000000D03*
X80480000Y-123040000D03*
X92000000Y-128500000D03*
X75500000Y-106200000D03*
X87870000Y-131390000D03*
X88000000Y-139000000D03*
X92150000Y-113750000D03*
X82025000Y-127275000D03*
D14*
X104750000Y-142100000D03*
D13*
X92700000Y-102800000D03*
X100000000Y-129000000D03*
X78900000Y-102800000D03*
X116420000Y-130870000D03*
D14*
X115000000Y-142100000D03*
D13*
X102500000Y-109925000D03*
X99900000Y-120750000D03*
X96100000Y-102800000D03*
X89300000Y-106200000D03*
X99820000Y-134220000D03*
X95864873Y-128190000D03*
D14*
X111500000Y-123000000D03*
D13*
X91100000Y-142500000D03*
X100200000Y-122450000D03*
X81840000Y-128240000D03*
X97500000Y-127500000D03*
X100000000Y-127500000D03*
X102130000Y-132410000D03*
X107900000Y-131410000D03*
X87700000Y-124400000D03*
X87000000Y-139000000D03*
X92000000Y-125350000D03*
D14*
X115000000Y-140700000D03*
D13*
X93600000Y-126800000D03*
X89900000Y-133500000D03*
X98000000Y-97500000D03*
X98000000Y-100900000D03*
X90350000Y-126800000D03*
X101400000Y-97500000D03*
X114920000Y-128260000D03*
X80200000Y-115400000D03*
X85900000Y-106200000D03*
X75500000Y-102800000D03*
X97500000Y-129000000D03*
X101400000Y-100900000D03*
%TO.N,USART1_RX*%
X95800000Y-129600000D03*
X95800000Y-131000000D03*
%TO.N,NRF_SCK*%
X88975000Y-119350000D03*
X87425000Y-119350000D03*
%TO.N,Net-(JP9-B)*%
X107500000Y-128500000D03*
X109100000Y-126900000D03*
%TO.N,VDD*%
X89575000Y-131370000D03*
X96840000Y-122800000D03*
X95900000Y-119710000D03*
X76025000Y-113825000D03*
X96840000Y-125000000D03*
X90900000Y-132680000D03*
%TO.N,POWER_LED_EN*%
X98850000Y-131150000D03*
X98850000Y-122800000D03*
%TD*%
D15*
%TO.N,USART1_RX*%
X95800000Y-131000000D02*
X95800000Y-129600000D01*
D16*
%TO.N,NRF_SCK*%
X87425000Y-119350000D02*
X88975000Y-119350000D01*
%TO.N,Net-(JP9-B)*%
X109100000Y-126900000D02*
X107500000Y-128500000D01*
D17*
%TO.N,VDD*%
X89690000Y-117000000D02*
X92400000Y-119710000D01*
X79200000Y-117000000D02*
X89690000Y-117000000D01*
D15*
X90885000Y-132680000D02*
X89575000Y-131370000D01*
D17*
X96840000Y-122800000D02*
X96840000Y-125000000D01*
D15*
X90900000Y-132680000D02*
X90885000Y-132680000D01*
D17*
X76025000Y-113825000D02*
X79200000Y-117000000D01*
X92400000Y-119710000D02*
X95900000Y-119710000D01*
D15*
%TO.N,POWER_LED_EN*%
X98850000Y-122800000D02*
X98850000Y-131150000D01*
%TD*%
%TA.AperFunction,Conductor*%
%TO.N,GND*%
G36*
X117002562Y-96500605D02*
G01*
X117449036Y-96519072D01*
X117459209Y-96519915D01*
X117900114Y-96574873D01*
X117910194Y-96576555D01*
X118345042Y-96667733D01*
X118354950Y-96670242D01*
X118780786Y-96797019D01*
X118790454Y-96800338D01*
X119131430Y-96933388D01*
X119204339Y-96961838D01*
X119213724Y-96965954D01*
X119612869Y-97161083D01*
X119621877Y-97165958D01*
X120003544Y-97393383D01*
X120012123Y-97398989D01*
X120373693Y-97657144D01*
X120381770Y-97663431D01*
X120720796Y-97950571D01*
X120728336Y-97957512D01*
X121042487Y-98271663D01*
X121049428Y-98279203D01*
X121269554Y-98539106D01*
X121336564Y-98618224D01*
X121342859Y-98626312D01*
X121601010Y-98987876D01*
X121606616Y-98996455D01*
X121834041Y-99378122D01*
X121838919Y-99387136D01*
X122034045Y-99786275D01*
X122038161Y-99795660D01*
X122199656Y-100209533D01*
X122202984Y-100219226D01*
X122329753Y-100645036D01*
X122332269Y-100654971D01*
X122423441Y-101089791D01*
X122425128Y-101099900D01*
X122480082Y-101540769D01*
X122480928Y-101550983D01*
X122499393Y-101997436D01*
X122499499Y-102002560D01*
X122499499Y-138997437D01*
X122499393Y-139002561D01*
X122480927Y-139449015D01*
X122480081Y-139459229D01*
X122425127Y-139900098D01*
X122423440Y-139910207D01*
X122332268Y-140345028D01*
X122329752Y-140354963D01*
X122202983Y-140780772D01*
X122199655Y-140790465D01*
X122038157Y-141204348D01*
X122034040Y-141213733D01*
X121838922Y-141612853D01*
X121834045Y-141621867D01*
X121606615Y-142003544D01*
X121601009Y-142012123D01*
X121342859Y-142373686D01*
X121336564Y-142381774D01*
X121049427Y-142720795D01*
X121042486Y-142728335D01*
X120728335Y-143042486D01*
X120720795Y-143049427D01*
X120381774Y-143336564D01*
X120373686Y-143342859D01*
X120012123Y-143601009D01*
X120003544Y-143606615D01*
X119621867Y-143834045D01*
X119612853Y-143838922D01*
X119213733Y-144034040D01*
X119204348Y-144038157D01*
X118790465Y-144199655D01*
X118780772Y-144202983D01*
X118354963Y-144329752D01*
X118345028Y-144332268D01*
X117910207Y-144423440D01*
X117900098Y-144425127D01*
X117459229Y-144480081D01*
X117449015Y-144480927D01*
X117002562Y-144499393D01*
X116997438Y-144499499D01*
X80002562Y-144499499D01*
X79997438Y-144499393D01*
X79550984Y-144480927D01*
X79540770Y-144480081D01*
X79099901Y-144425127D01*
X79089792Y-144423440D01*
X78654971Y-144332268D01*
X78645036Y-144329752D01*
X78219227Y-144202983D01*
X78209534Y-144199655D01*
X77795651Y-144038157D01*
X77786266Y-144034040D01*
X77387146Y-143838922D01*
X77378132Y-143834045D01*
X76996455Y-143606615D01*
X76987876Y-143601009D01*
X76626313Y-143342859D01*
X76618225Y-143336564D01*
X76611223Y-143330634D01*
X76370005Y-143126332D01*
X76279204Y-143049427D01*
X76271664Y-143042486D01*
X75957513Y-142728335D01*
X75950572Y-142720795D01*
X75843295Y-142594134D01*
X75663431Y-142381769D01*
X75657140Y-142373686D01*
X75609532Y-142307007D01*
X75398990Y-142012123D01*
X75393384Y-142003544D01*
X75165954Y-141621867D01*
X75161077Y-141612853D01*
X74965959Y-141213733D01*
X74961842Y-141204348D01*
X74891742Y-141024697D01*
X74800339Y-140790453D01*
X74797020Y-140780785D01*
X74713426Y-140500000D01*
X75795065Y-140500000D01*
X75814786Y-140826038D01*
X75873667Y-141147341D01*
X75970835Y-141459164D01*
X75970839Y-141459175D01*
X76104897Y-141757041D01*
X76104898Y-141757043D01*
X76273881Y-142036576D01*
X76421476Y-142224968D01*
X77563708Y-141082736D01*
X77660967Y-141216602D01*
X77783398Y-141339033D01*
X77917262Y-141436290D01*
X76775030Y-142578522D01*
X76775030Y-142578523D01*
X76963423Y-142726118D01*
X77242956Y-142895101D01*
X77242958Y-142895102D01*
X77540824Y-143029160D01*
X77540835Y-143029164D01*
X77852658Y-143126332D01*
X78173961Y-143185213D01*
X78500000Y-143204934D01*
X78826038Y-143185213D01*
X79147341Y-143126332D01*
X79459164Y-143029164D01*
X79459175Y-143029160D01*
X79757041Y-142895102D01*
X79757043Y-142895101D01*
X80036586Y-142726112D01*
X80224968Y-142578523D01*
X80224968Y-142578522D01*
X79082737Y-141436290D01*
X79216602Y-141339033D01*
X79339033Y-141216602D01*
X79436290Y-141082737D01*
X80578522Y-142224968D01*
X80578523Y-142224968D01*
X80726112Y-142036586D01*
X80895101Y-141757043D01*
X80895102Y-141757041D01*
X81029160Y-141459175D01*
X81029164Y-141459164D01*
X81126332Y-141147341D01*
X81131622Y-141118475D01*
X93669500Y-141118475D01*
X93669500Y-142881517D01*
X93671652Y-142895102D01*
X93684354Y-142975304D01*
X93741950Y-143088342D01*
X93741952Y-143088344D01*
X93741954Y-143088347D01*
X93831652Y-143178045D01*
X93831654Y-143178046D01*
X93831658Y-143178050D01*
X93944694Y-143235645D01*
X93944698Y-143235647D01*
X94038475Y-143250499D01*
X94038481Y-143250500D01*
X95801518Y-143250499D01*
X95895304Y-143235646D01*
X96008342Y-143178050D01*
X96098050Y-143088342D01*
X96155646Y-142975304D01*
X96155646Y-142975302D01*
X96155647Y-142975301D01*
X96170499Y-142881524D01*
X96170500Y-142881519D01*
X96170499Y-142731859D01*
X96190183Y-142664823D01*
X96242987Y-142619068D01*
X96312145Y-142609124D01*
X96375701Y-142638149D01*
X96396073Y-142660738D01*
X96498402Y-142806877D01*
X96653123Y-142961598D01*
X96832361Y-143087102D01*
X97030670Y-143179575D01*
X97242023Y-143236207D01*
X97424926Y-143252208D01*
X97459998Y-143255277D01*
X97460000Y-143255277D01*
X97460002Y-143255277D01*
X97488254Y-143252805D01*
X97677977Y-143236207D01*
X97889330Y-143179575D01*
X98087639Y-143087102D01*
X98266877Y-142961598D01*
X98421598Y-142806877D01*
X98547102Y-142627639D01*
X98562726Y-142594132D01*
X98608896Y-142541695D01*
X98676090Y-142522543D01*
X98742971Y-142542758D01*
X98787489Y-142594134D01*
X98826399Y-142677578D01*
X98961894Y-142871082D01*
X99128917Y-143038105D01*
X99322421Y-143173600D01*
X99536507Y-143273429D01*
X99536516Y-143273433D01*
X99750000Y-143330634D01*
X99750000Y-142433012D01*
X99807007Y-142465925D01*
X99934174Y-142500000D01*
X100065826Y-142500000D01*
X100192993Y-142465925D01*
X100250000Y-142433012D01*
X100250000Y-143330633D01*
X100463483Y-143273433D01*
X100463492Y-143273429D01*
X100677578Y-143173600D01*
X100871082Y-143038105D01*
X101038105Y-142871082D01*
X101173600Y-142677578D01*
X101273429Y-142463492D01*
X101273432Y-142463486D01*
X101330636Y-142250000D01*
X100433012Y-142250000D01*
X100465925Y-142192993D01*
X100500000Y-142065826D01*
X100500000Y-141934174D01*
X100465925Y-141807007D01*
X100433012Y-141750000D01*
X101330636Y-141750000D01*
X101330635Y-141749999D01*
X101273432Y-141536513D01*
X101273429Y-141536507D01*
X101173600Y-141322422D01*
X101173599Y-141322420D01*
X101038113Y-141128926D01*
X101038108Y-141128920D01*
X100871082Y-140961894D01*
X100677578Y-140826399D01*
X100463492Y-140726570D01*
X100463486Y-140726567D01*
X100250000Y-140669364D01*
X100250000Y-141566988D01*
X100192993Y-141534075D01*
X100065826Y-141500000D01*
X99934174Y-141500000D01*
X99807007Y-141534075D01*
X99750000Y-141566988D01*
X99750000Y-140669364D01*
X99749999Y-140669364D01*
X99536513Y-140726567D01*
X99536507Y-140726570D01*
X99322422Y-140826399D01*
X99322420Y-140826400D01*
X99128926Y-140961886D01*
X99128920Y-140961891D01*
X98961891Y-141128920D01*
X98961886Y-141128926D01*
X98826400Y-141322420D01*
X98826399Y-141322422D01*
X98787489Y-141405866D01*
X98741317Y-141458305D01*
X98674123Y-141477457D01*
X98607242Y-141457241D01*
X98562725Y-141405866D01*
X98547102Y-141372362D01*
X98547100Y-141372359D01*
X98547099Y-141372357D01*
X98421599Y-141193124D01*
X98346950Y-141118475D01*
X98266877Y-141038402D01*
X98128978Y-140941844D01*
X98087638Y-140912897D01*
X97960373Y-140853553D01*
X97889330Y-140820425D01*
X97889326Y-140820424D01*
X97889322Y-140820422D01*
X97677977Y-140763793D01*
X97460002Y-140744723D01*
X97459998Y-140744723D01*
X97314682Y-140757436D01*
X97242023Y-140763793D01*
X97242020Y-140763793D01*
X97030677Y-140820422D01*
X97030670Y-140820424D01*
X97030670Y-140820425D01*
X97027391Y-140821954D01*
X96832361Y-140912898D01*
X96832357Y-140912900D01*
X96653121Y-141038402D01*
X96498402Y-141193121D01*
X96396074Y-141339262D01*
X96341497Y-141382887D01*
X96271999Y-141390081D01*
X96209644Y-141358558D01*
X96174230Y-141298328D01*
X96170499Y-141268139D01*
X96170499Y-141118482D01*
X96163854Y-141076525D01*
X96155646Y-141024696D01*
X96098050Y-140911658D01*
X96098046Y-140911654D01*
X96098045Y-140911652D01*
X96008347Y-140821954D01*
X96008344Y-140821952D01*
X96008342Y-140821950D01*
X95927526Y-140780772D01*
X95895301Y-140764352D01*
X95801524Y-140749500D01*
X94038482Y-140749500D01*
X93957519Y-140762323D01*
X93944696Y-140764354D01*
X93831658Y-140821950D01*
X93831657Y-140821951D01*
X93831652Y-140821954D01*
X93741954Y-140911652D01*
X93741951Y-140911657D01*
X93741950Y-140911658D01*
X93736552Y-140922253D01*
X93684352Y-141024698D01*
X93669500Y-141118475D01*
X81131622Y-141118475D01*
X81185213Y-140826038D01*
X81204934Y-140500000D01*
X115795065Y-140500000D01*
X115814786Y-140826038D01*
X115873667Y-141147341D01*
X115970835Y-141459164D01*
X115970839Y-141459175D01*
X116104897Y-141757041D01*
X116104898Y-141757043D01*
X116273881Y-142036576D01*
X116421476Y-142224968D01*
X117563708Y-141082736D01*
X117660967Y-141216602D01*
X117783398Y-141339033D01*
X117917262Y-141436290D01*
X116775030Y-142578522D01*
X116775030Y-142578523D01*
X116963423Y-142726118D01*
X117242956Y-142895101D01*
X117242958Y-142895102D01*
X117540824Y-143029160D01*
X117540835Y-143029164D01*
X117852658Y-143126332D01*
X118173961Y-143185213D01*
X118500000Y-143204934D01*
X118826038Y-143185213D01*
X119147341Y-143126332D01*
X119459164Y-143029164D01*
X119459175Y-143029160D01*
X119757041Y-142895102D01*
X119757043Y-142895101D01*
X120036586Y-142726112D01*
X120224968Y-142578523D01*
X120224968Y-142578522D01*
X119082737Y-141436290D01*
X119216602Y-141339033D01*
X119339033Y-141216602D01*
X119436290Y-141082737D01*
X120578522Y-142224968D01*
X120578523Y-142224968D01*
X120726112Y-142036586D01*
X120895101Y-141757043D01*
X120895102Y-141757041D01*
X121029160Y-141459175D01*
X121029164Y-141459164D01*
X121126332Y-141147341D01*
X121185213Y-140826038D01*
X121204934Y-140500000D01*
X121185213Y-140173961D01*
X121126332Y-139852658D01*
X121029164Y-139540835D01*
X121029160Y-139540824D01*
X120895102Y-139242958D01*
X120895101Y-139242956D01*
X120726118Y-138963423D01*
X120578522Y-138775030D01*
X119436290Y-139917262D01*
X119339033Y-139783398D01*
X119216602Y-139660967D01*
X119082736Y-139563709D01*
X120224968Y-138421476D01*
X120036576Y-138273881D01*
X119757043Y-138104898D01*
X119757041Y-138104897D01*
X119459175Y-137970839D01*
X119459164Y-137970835D01*
X119147341Y-137873667D01*
X118826038Y-137814786D01*
X118500000Y-137795065D01*
X118173961Y-137814786D01*
X117852658Y-137873667D01*
X117540835Y-137970835D01*
X117540824Y-137970839D01*
X117242958Y-138104897D01*
X117242956Y-138104898D01*
X116963422Y-138273881D01*
X116963416Y-138273886D01*
X116775030Y-138421474D01*
X116775029Y-138421476D01*
X117917262Y-139563709D01*
X117783398Y-139660967D01*
X117660967Y-139783398D01*
X117563709Y-139917262D01*
X116421476Y-138775029D01*
X116421474Y-138775030D01*
X116273886Y-138963416D01*
X116273881Y-138963422D01*
X116104898Y-139242956D01*
X116104897Y-139242958D01*
X115970839Y-139540824D01*
X115970835Y-139540835D01*
X115873667Y-139852658D01*
X115814786Y-140173961D01*
X115795065Y-140500000D01*
X81204934Y-140500000D01*
X81185213Y-140173961D01*
X81126332Y-139852658D01*
X81029164Y-139540835D01*
X81029160Y-139540824D01*
X80895102Y-139242958D01*
X80895101Y-139242956D01*
X80726118Y-138963423D01*
X80578522Y-138775030D01*
X79436290Y-139917262D01*
X79339033Y-139783398D01*
X79216602Y-139660967D01*
X79082736Y-139563709D01*
X80224968Y-138421476D01*
X80036576Y-138273881D01*
X79757043Y-138104898D01*
X79757041Y-138104897D01*
X79459175Y-137970839D01*
X79459164Y-137970835D01*
X79147341Y-137873667D01*
X78826038Y-137814786D01*
X78500000Y-137795065D01*
X78173961Y-137814786D01*
X77852658Y-137873667D01*
X77540835Y-137970835D01*
X77540824Y-137970839D01*
X77242958Y-138104897D01*
X77242956Y-138104898D01*
X76963422Y-138273881D01*
X76963416Y-138273886D01*
X76775030Y-138421474D01*
X76775029Y-138421476D01*
X77917262Y-139563709D01*
X77783398Y-139660967D01*
X77660967Y-139783398D01*
X77563709Y-139917262D01*
X76421476Y-138775029D01*
X76421474Y-138775030D01*
X76273886Y-138963416D01*
X76273881Y-138963422D01*
X76104898Y-139242956D01*
X76104897Y-139242958D01*
X75970839Y-139540824D01*
X75970835Y-139540835D01*
X75873667Y-139852658D01*
X75814786Y-140173961D01*
X75795065Y-140500000D01*
X74713426Y-140500000D01*
X74670243Y-140354950D01*
X74667734Y-140345042D01*
X74576556Y-139910193D01*
X74574874Y-139900113D01*
X74519916Y-139459208D01*
X74519073Y-139449035D01*
X74500607Y-139002561D01*
X74500501Y-138997437D01*
X74500501Y-138926512D01*
X74500500Y-138926494D01*
X74500500Y-131369997D01*
X88819751Y-131369997D01*
X88819751Y-131370002D01*
X88838685Y-131538056D01*
X88894545Y-131697694D01*
X88894547Y-131697697D01*
X88984518Y-131840884D01*
X88984523Y-131840890D01*
X89104109Y-131960476D01*
X89104115Y-131960481D01*
X89247302Y-132050452D01*
X89247305Y-132050454D01*
X89247309Y-132050455D01*
X89247310Y-132050456D01*
X89358958Y-132089523D01*
X89406941Y-132106313D01*
X89406946Y-132106314D01*
X89505651Y-132117435D01*
X89570065Y-132144501D01*
X89579449Y-132152974D01*
X90118929Y-132692454D01*
X90152414Y-132753777D01*
X90154468Y-132766250D01*
X90163685Y-132848053D01*
X90219544Y-133007692D01*
X90219547Y-133007697D01*
X90309518Y-133150884D01*
X90309523Y-133150890D01*
X90429109Y-133270476D01*
X90429115Y-133270481D01*
X90572302Y-133360452D01*
X90572305Y-133360454D01*
X90572309Y-133360455D01*
X90572310Y-133360456D01*
X90644913Y-133385860D01*
X90731943Y-133416314D01*
X90899997Y-133435249D01*
X90900000Y-133435249D01*
X90900003Y-133435249D01*
X91068056Y-133416314D01*
X91068059Y-133416313D01*
X91227690Y-133360456D01*
X91227692Y-133360454D01*
X91227694Y-133360454D01*
X91227697Y-133360452D01*
X91370884Y-133270481D01*
X91370885Y-133270480D01*
X91370890Y-133270477D01*
X91490477Y-133150890D01*
X91580452Y-133007697D01*
X91580454Y-133007694D01*
X91580454Y-133007692D01*
X91580456Y-133007690D01*
X91636313Y-132848059D01*
X91636313Y-132848058D01*
X91636314Y-132848056D01*
X91655249Y-132680002D01*
X91655249Y-132679997D01*
X91636314Y-132511943D01*
X91580454Y-132352305D01*
X91580452Y-132352302D01*
X91490481Y-132209115D01*
X91490476Y-132209109D01*
X91370890Y-132089523D01*
X91370884Y-132089518D01*
X91227697Y-131999547D01*
X91227692Y-131999544D01*
X91068053Y-131943685D01*
X90952442Y-131930659D01*
X90888028Y-131903592D01*
X90878645Y-131895120D01*
X90357974Y-131374449D01*
X90324489Y-131313126D01*
X90322435Y-131300651D01*
X90311314Y-131201946D01*
X90311313Y-131201941D01*
X90255454Y-131042305D01*
X90255452Y-131042302D01*
X90165481Y-130899115D01*
X90165476Y-130899109D01*
X90045890Y-130779523D01*
X90045884Y-130779518D01*
X89902697Y-130689547D01*
X89902694Y-130689545D01*
X89743056Y-130633685D01*
X89575003Y-130614751D01*
X89574997Y-130614751D01*
X89406943Y-130633685D01*
X89247305Y-130689545D01*
X89247302Y-130689547D01*
X89104115Y-130779518D01*
X89104109Y-130779523D01*
X88984523Y-130899109D01*
X88984518Y-130899115D01*
X88894547Y-131042302D01*
X88894545Y-131042305D01*
X88838685Y-131201943D01*
X88819751Y-131369997D01*
X74500500Y-131369997D01*
X74500500Y-129599997D01*
X95044751Y-129599997D01*
X95044751Y-129600002D01*
X95063685Y-129768056D01*
X95119545Y-129927694D01*
X95119547Y-129927697D01*
X95209518Y-130070884D01*
X95209523Y-130070890D01*
X95213181Y-130074548D01*
X95246666Y-130135871D01*
X95249500Y-130162229D01*
X95249500Y-130437771D01*
X95229815Y-130504810D01*
X95213181Y-130525452D01*
X95209523Y-130529109D01*
X95209518Y-130529115D01*
X95119547Y-130672302D01*
X95119545Y-130672305D01*
X95063685Y-130831943D01*
X95044751Y-130999997D01*
X95044751Y-131000002D01*
X95063685Y-131168056D01*
X95119545Y-131327694D01*
X95119547Y-131327697D01*
X95209518Y-131470884D01*
X95209523Y-131470890D01*
X95329109Y-131590476D01*
X95329115Y-131590481D01*
X95472302Y-131680452D01*
X95472305Y-131680454D01*
X95472309Y-131680455D01*
X95472310Y-131680456D01*
X95521562Y-131697690D01*
X95631943Y-131736314D01*
X95799997Y-131755249D01*
X95800000Y-131755249D01*
X95800003Y-131755249D01*
X95968056Y-131736314D01*
X95968059Y-131736313D01*
X96127690Y-131680456D01*
X96127692Y-131680454D01*
X96127694Y-131680454D01*
X96127697Y-131680452D01*
X96270884Y-131590481D01*
X96270885Y-131590480D01*
X96270890Y-131590477D01*
X96390477Y-131470890D01*
X96390481Y-131470884D01*
X96480452Y-131327697D01*
X96480454Y-131327694D01*
X96480454Y-131327692D01*
X96480456Y-131327690D01*
X96536313Y-131168059D01*
X96536313Y-131168058D01*
X96536314Y-131168056D01*
X96555249Y-131000002D01*
X96555249Y-130999997D01*
X96536314Y-130831943D01*
X96480454Y-130672305D01*
X96480452Y-130672302D01*
X96390481Y-130529115D01*
X96390476Y-130529109D01*
X96386819Y-130525452D01*
X96353334Y-130464129D01*
X96350500Y-130437771D01*
X96350500Y-130162229D01*
X96370185Y-130095190D01*
X96386819Y-130074548D01*
X96390477Y-130070890D01*
X96480452Y-129927697D01*
X96480454Y-129927694D01*
X96480454Y-129927692D01*
X96480456Y-129927690D01*
X96536313Y-129768059D01*
X96536313Y-129768058D01*
X96536314Y-129768056D01*
X96555249Y-129600002D01*
X96555249Y-129599997D01*
X96536314Y-129431943D01*
X96480454Y-129272305D01*
X96480452Y-129272302D01*
X96390481Y-129129115D01*
X96390476Y-129129109D01*
X96270890Y-129009523D01*
X96270884Y-129009518D01*
X96127697Y-128919547D01*
X96127694Y-128919545D01*
X95968056Y-128863685D01*
X95800003Y-128844751D01*
X95799997Y-128844751D01*
X95631943Y-128863685D01*
X95472305Y-128919545D01*
X95472302Y-128919547D01*
X95329115Y-129009518D01*
X95329109Y-129009523D01*
X95209523Y-129129109D01*
X95209518Y-129129115D01*
X95119547Y-129272302D01*
X95119545Y-129272305D01*
X95063685Y-129431943D01*
X95044751Y-129599997D01*
X74500500Y-129599997D01*
X74500500Y-122799997D01*
X96084751Y-122799997D01*
X96084751Y-122800002D01*
X96103686Y-122968057D01*
X96159542Y-123127687D01*
X96159548Y-123127697D01*
X96170493Y-123145115D01*
X96189500Y-123211087D01*
X96189500Y-124588911D01*
X96170495Y-124654882D01*
X96159544Y-124672310D01*
X96103685Y-124831943D01*
X96084751Y-124999997D01*
X96084751Y-125000002D01*
X96103685Y-125168056D01*
X96159545Y-125327694D01*
X96159547Y-125327697D01*
X96249518Y-125470884D01*
X96249523Y-125470890D01*
X96369109Y-125590476D01*
X96369115Y-125590481D01*
X96512302Y-125680452D01*
X96512305Y-125680454D01*
X96512309Y-125680455D01*
X96512310Y-125680456D01*
X96584913Y-125705860D01*
X96671943Y-125736314D01*
X96839997Y-125755249D01*
X96840000Y-125755249D01*
X96840003Y-125755249D01*
X97008056Y-125736314D01*
X97008059Y-125736313D01*
X97167690Y-125680456D01*
X97167692Y-125680454D01*
X97167694Y-125680454D01*
X97167697Y-125680452D01*
X97310884Y-125590481D01*
X97310885Y-125590480D01*
X97310890Y-125590477D01*
X97430477Y-125470890D01*
X97520452Y-125327697D01*
X97520454Y-125327694D01*
X97520454Y-125327692D01*
X97520456Y-125327690D01*
X97576313Y-125168059D01*
X97576313Y-125168058D01*
X97576314Y-125168056D01*
X97595249Y-125000002D01*
X97595249Y-124999997D01*
X97576314Y-124831943D01*
X97563417Y-124795088D01*
X97520456Y-124672310D01*
X97509504Y-124654881D01*
X97490500Y-124588911D01*
X97490500Y-123211087D01*
X97509506Y-123145115D01*
X97520456Y-123127690D01*
X97576313Y-122968059D01*
X97595249Y-122800000D01*
X97595249Y-122799997D01*
X98094751Y-122799997D01*
X98094751Y-122800002D01*
X98113685Y-122968056D01*
X98169545Y-123127694D01*
X98169547Y-123127697D01*
X98259518Y-123270884D01*
X98259523Y-123270890D01*
X98263181Y-123274548D01*
X98296666Y-123335871D01*
X98299500Y-123362229D01*
X98299500Y-130587771D01*
X98279815Y-130654810D01*
X98263181Y-130675452D01*
X98259523Y-130679109D01*
X98259518Y-130679115D01*
X98169547Y-130822302D01*
X98169545Y-130822305D01*
X98113685Y-130981943D01*
X98094751Y-131149997D01*
X98094751Y-131150002D01*
X98113685Y-131318056D01*
X98169545Y-131477694D01*
X98169547Y-131477697D01*
X98259518Y-131620884D01*
X98259523Y-131620890D01*
X98379109Y-131740476D01*
X98379115Y-131740481D01*
X98522302Y-131830452D01*
X98522305Y-131830454D01*
X98522309Y-131830455D01*
X98522310Y-131830456D01*
X98552112Y-131840884D01*
X98681943Y-131886314D01*
X98849997Y-131905249D01*
X98850000Y-131905249D01*
X98850003Y-131905249D01*
X99018056Y-131886314D01*
X99018059Y-131886313D01*
X99177690Y-131830456D01*
X99177692Y-131830454D01*
X99177694Y-131830454D01*
X99177697Y-131830452D01*
X99320884Y-131740481D01*
X99320885Y-131740480D01*
X99320890Y-131740477D01*
X99440477Y-131620890D01*
X99440481Y-131620884D01*
X99530452Y-131477697D01*
X99530454Y-131477694D01*
X99530454Y-131477692D01*
X99530456Y-131477690D01*
X99586313Y-131318059D01*
X99586313Y-131318058D01*
X99586314Y-131318056D01*
X99605249Y-131150002D01*
X99605249Y-131149997D01*
X99586314Y-130981943D01*
X99555860Y-130894913D01*
X99530456Y-130822310D01*
X99530455Y-130822309D01*
X99530454Y-130822305D01*
X99530452Y-130822302D01*
X99440481Y-130679115D01*
X99440476Y-130679109D01*
X99436819Y-130675452D01*
X99403334Y-130614129D01*
X99400500Y-130587771D01*
X99400500Y-128499997D01*
X106744751Y-128499997D01*
X106744751Y-128500002D01*
X106763685Y-128668056D01*
X106819545Y-128827694D01*
X106819547Y-128827697D01*
X106909518Y-128970884D01*
X106909523Y-128970890D01*
X107029109Y-129090476D01*
X107029115Y-129090481D01*
X107172302Y-129180452D01*
X107172305Y-129180454D01*
X107172309Y-129180455D01*
X107172310Y-129180456D01*
X107244913Y-129205860D01*
X107331943Y-129236314D01*
X107499997Y-129255249D01*
X107500000Y-129255249D01*
X107500003Y-129255249D01*
X107668056Y-129236314D01*
X107668059Y-129236313D01*
X107827690Y-129180456D01*
X107827692Y-129180454D01*
X107827694Y-129180454D01*
X107827697Y-129180452D01*
X107970884Y-129090481D01*
X107970885Y-129090480D01*
X107970890Y-129090477D01*
X108090477Y-128970890D01*
X108122738Y-128919547D01*
X108180452Y-128827697D01*
X108180454Y-128827694D01*
X108180454Y-128827692D01*
X108180456Y-128827690D01*
X108236313Y-128668059D01*
X108236313Y-128668057D01*
X108236314Y-128668055D01*
X108256029Y-128493080D01*
X108258356Y-128493342D01*
X108274934Y-128436887D01*
X108291568Y-128416245D01*
X109016245Y-127691568D01*
X109077568Y-127658083D01*
X109093122Y-127656410D01*
X109093080Y-127656029D01*
X109268055Y-127636314D01*
X109268057Y-127636313D01*
X109268059Y-127636313D01*
X109427690Y-127580456D01*
X109427692Y-127580454D01*
X109427694Y-127580454D01*
X109427697Y-127580452D01*
X109570884Y-127490481D01*
X109570885Y-127490480D01*
X109570890Y-127490477D01*
X109690477Y-127370890D01*
X109780452Y-127227697D01*
X109780454Y-127227694D01*
X109780454Y-127227692D01*
X109780456Y-127227690D01*
X109836313Y-127068059D01*
X109836313Y-127068058D01*
X109836314Y-127068056D01*
X109855249Y-126900002D01*
X109855249Y-126899997D01*
X109836314Y-126731943D01*
X109780454Y-126572305D01*
X109780452Y-126572302D01*
X109690481Y-126429115D01*
X109690476Y-126429109D01*
X109570890Y-126309523D01*
X109570884Y-126309518D01*
X109427697Y-126219547D01*
X109427694Y-126219545D01*
X109268056Y-126163685D01*
X109100003Y-126144751D01*
X109099997Y-126144751D01*
X108931943Y-126163685D01*
X108772305Y-126219545D01*
X108772302Y-126219547D01*
X108629115Y-126309518D01*
X108629109Y-126309523D01*
X108509523Y-126429109D01*
X108509518Y-126429115D01*
X108419547Y-126572302D01*
X108419545Y-126572305D01*
X108363685Y-126731943D01*
X108343971Y-126906920D01*
X108341642Y-126906657D01*
X108325066Y-126963111D01*
X108308432Y-126983753D01*
X107583753Y-127708432D01*
X107522430Y-127741917D01*
X107506876Y-127743589D01*
X107506920Y-127743971D01*
X107331943Y-127763685D01*
X107172305Y-127819545D01*
X107172302Y-127819547D01*
X107029115Y-127909518D01*
X107029109Y-127909523D01*
X106909523Y-128029109D01*
X106909518Y-128029115D01*
X106819547Y-128172302D01*
X106819545Y-128172305D01*
X106763685Y-128331943D01*
X106744751Y-128499997D01*
X99400500Y-128499997D01*
X99400500Y-123362229D01*
X99420185Y-123295190D01*
X99436819Y-123274548D01*
X99440477Y-123270890D01*
X99478054Y-123211087D01*
X99530452Y-123127697D01*
X99530454Y-123127694D01*
X99530454Y-123127692D01*
X99530456Y-123127690D01*
X99586313Y-122968059D01*
X99586313Y-122968058D01*
X99586314Y-122968056D01*
X99605249Y-122800002D01*
X99605249Y-122799997D01*
X99586314Y-122631943D01*
X99530454Y-122472305D01*
X99530452Y-122472302D01*
X99440481Y-122329115D01*
X99440476Y-122329109D01*
X99320890Y-122209523D01*
X99320884Y-122209518D01*
X99177697Y-122119547D01*
X99177694Y-122119545D01*
X99018056Y-122063685D01*
X98850003Y-122044751D01*
X98849997Y-122044751D01*
X98681943Y-122063685D01*
X98522305Y-122119545D01*
X98522302Y-122119547D01*
X98379115Y-122209518D01*
X98379109Y-122209523D01*
X98259523Y-122329109D01*
X98259518Y-122329115D01*
X98169547Y-122472302D01*
X98169545Y-122472305D01*
X98113685Y-122631943D01*
X98094751Y-122799997D01*
X97595249Y-122799997D01*
X97576314Y-122631943D01*
X97520454Y-122472305D01*
X97520452Y-122472302D01*
X97430481Y-122329115D01*
X97430476Y-122329109D01*
X97310890Y-122209523D01*
X97310884Y-122209518D01*
X97167697Y-122119547D01*
X97167694Y-122119545D01*
X97008056Y-122063685D01*
X96840003Y-122044751D01*
X96839997Y-122044751D01*
X96671943Y-122063685D01*
X96512305Y-122119545D01*
X96512302Y-122119547D01*
X96369115Y-122209518D01*
X96369109Y-122209523D01*
X96249523Y-122329109D01*
X96249518Y-122329115D01*
X96159547Y-122472302D01*
X96159545Y-122472305D01*
X96103685Y-122631943D01*
X96084751Y-122799997D01*
X74500500Y-122799997D01*
X74500500Y-119349997D01*
X86669751Y-119349997D01*
X86669751Y-119350002D01*
X86688685Y-119518056D01*
X86744545Y-119677694D01*
X86744547Y-119677697D01*
X86834518Y-119820884D01*
X86834523Y-119820890D01*
X86954109Y-119940476D01*
X86954115Y-119940481D01*
X87097302Y-120030452D01*
X87097305Y-120030454D01*
X87097309Y-120030455D01*
X87097310Y-120030456D01*
X87118004Y-120037697D01*
X87256943Y-120086314D01*
X87424997Y-120105249D01*
X87425000Y-120105249D01*
X87425003Y-120105249D01*
X87593056Y-120086314D01*
X87593059Y-120086313D01*
X87752690Y-120030456D01*
X87752692Y-120030454D01*
X87752694Y-120030454D01*
X87752697Y-120030452D01*
X87895884Y-119940481D01*
X87895885Y-119940480D01*
X87895890Y-119940477D01*
X87949548Y-119886819D01*
X88010871Y-119853334D01*
X88037229Y-119850500D01*
X88362771Y-119850500D01*
X88429810Y-119870185D01*
X88450452Y-119886819D01*
X88504109Y-119940476D01*
X88504115Y-119940481D01*
X88647302Y-120030452D01*
X88647305Y-120030454D01*
X88647309Y-120030455D01*
X88647310Y-120030456D01*
X88668004Y-120037697D01*
X88806943Y-120086314D01*
X88974997Y-120105249D01*
X88975000Y-120105249D01*
X88975003Y-120105249D01*
X89143056Y-120086314D01*
X89143059Y-120086313D01*
X89302690Y-120030456D01*
X89302692Y-120030454D01*
X89302694Y-120030454D01*
X89302697Y-120030452D01*
X89445884Y-119940481D01*
X89445885Y-119940480D01*
X89445890Y-119940477D01*
X89565477Y-119820890D01*
X89635153Y-119710002D01*
X89655452Y-119677697D01*
X89655454Y-119677694D01*
X89655454Y-119677692D01*
X89655456Y-119677690D01*
X89711313Y-119518059D01*
X89711313Y-119518058D01*
X89711314Y-119518056D01*
X89730249Y-119350002D01*
X89730249Y-119349997D01*
X89711314Y-119181943D01*
X89657988Y-119029547D01*
X89655456Y-119022310D01*
X89655455Y-119022309D01*
X89655454Y-119022305D01*
X89655452Y-119022302D01*
X89565481Y-118879115D01*
X89565476Y-118879109D01*
X89445890Y-118759523D01*
X89445884Y-118759518D01*
X89302697Y-118669547D01*
X89302694Y-118669545D01*
X89143056Y-118613685D01*
X88975003Y-118594751D01*
X88974997Y-118594751D01*
X88806943Y-118613685D01*
X88647305Y-118669545D01*
X88647302Y-118669547D01*
X88504115Y-118759518D01*
X88504109Y-118759523D01*
X88450452Y-118813181D01*
X88389129Y-118846666D01*
X88362771Y-118849500D01*
X88037229Y-118849500D01*
X87970190Y-118829815D01*
X87949548Y-118813181D01*
X87895890Y-118759523D01*
X87895884Y-118759518D01*
X87752697Y-118669547D01*
X87752694Y-118669545D01*
X87593056Y-118613685D01*
X87425003Y-118594751D01*
X87424997Y-118594751D01*
X87256943Y-118613685D01*
X87097305Y-118669545D01*
X87097302Y-118669547D01*
X86954115Y-118759518D01*
X86954109Y-118759523D01*
X86834523Y-118879109D01*
X86834518Y-118879115D01*
X86744547Y-119022302D01*
X86744545Y-119022305D01*
X86688685Y-119181943D01*
X86669751Y-119349997D01*
X74500500Y-119349997D01*
X74500500Y-113824997D01*
X75269751Y-113824997D01*
X75269751Y-113825002D01*
X75288685Y-113993056D01*
X75344545Y-114152694D01*
X75344547Y-114152697D01*
X75434518Y-114295884D01*
X75434523Y-114295890D01*
X75554109Y-114415476D01*
X75554115Y-114415481D01*
X75697302Y-114505452D01*
X75697307Y-114505455D01*
X75697310Y-114505456D01*
X75806271Y-114543582D01*
X75852997Y-114572943D01*
X78785325Y-117505272D01*
X78785326Y-117505273D01*
X78785329Y-117505275D01*
X78785331Y-117505277D01*
X78891873Y-117576465D01*
X79010256Y-117625501D01*
X79010260Y-117625501D01*
X79010261Y-117625502D01*
X79135928Y-117650500D01*
X79135931Y-117650500D01*
X89369192Y-117650500D01*
X89436231Y-117670185D01*
X89456873Y-117686819D01*
X91985325Y-120215272D01*
X91985328Y-120215275D01*
X92060123Y-120265251D01*
X92060122Y-120265251D01*
X92083961Y-120281178D01*
X92091873Y-120286465D01*
X92210256Y-120335501D01*
X92210260Y-120335501D01*
X92210261Y-120335502D01*
X92335928Y-120360500D01*
X92335931Y-120360500D01*
X95488912Y-120360500D01*
X95554883Y-120379506D01*
X95572310Y-120390456D01*
X95731941Y-120446313D01*
X95773955Y-120451047D01*
X95899997Y-120465249D01*
X95900000Y-120465249D01*
X95900003Y-120465249D01*
X96068056Y-120446314D01*
X96068059Y-120446313D01*
X96227690Y-120390456D01*
X96227692Y-120390454D01*
X96227694Y-120390454D01*
X96227697Y-120390452D01*
X96370884Y-120300481D01*
X96370885Y-120300480D01*
X96370890Y-120300477D01*
X96490477Y-120180890D01*
X96538006Y-120105249D01*
X96580452Y-120037697D01*
X96580454Y-120037694D01*
X96580454Y-120037692D01*
X96580456Y-120037690D01*
X96636313Y-119878059D01*
X96636313Y-119878058D01*
X96636314Y-119878056D01*
X96655249Y-119710002D01*
X96655249Y-119709997D01*
X96636314Y-119541943D01*
X96580454Y-119382305D01*
X96580452Y-119382302D01*
X96490481Y-119239115D01*
X96490476Y-119239109D01*
X96370890Y-119119523D01*
X96370884Y-119119518D01*
X96227697Y-119029547D01*
X96227694Y-119029545D01*
X96068056Y-118973685D01*
X95900003Y-118954751D01*
X95899997Y-118954751D01*
X95731942Y-118973686D01*
X95572311Y-119029543D01*
X95554883Y-119040494D01*
X95488912Y-119059500D01*
X92720808Y-119059500D01*
X92653769Y-119039815D01*
X92633127Y-119023181D01*
X90104674Y-116494727D01*
X90104673Y-116494726D01*
X90104669Y-116494723D01*
X89998127Y-116423535D01*
X89879744Y-116374499D01*
X89879738Y-116374497D01*
X89754071Y-116349500D01*
X89754069Y-116349500D01*
X79520808Y-116349500D01*
X79453769Y-116329815D01*
X79433127Y-116313181D01*
X76772943Y-113652997D01*
X76743582Y-113606270D01*
X76705455Y-113497307D01*
X76705452Y-113497302D01*
X76615481Y-113354115D01*
X76615476Y-113354109D01*
X76495890Y-113234523D01*
X76495884Y-113234518D01*
X76352697Y-113144547D01*
X76352694Y-113144545D01*
X76193056Y-113088685D01*
X76025003Y-113069751D01*
X76024997Y-113069751D01*
X75856943Y-113088685D01*
X75697305Y-113144545D01*
X75697302Y-113144547D01*
X75554115Y-113234518D01*
X75554109Y-113234523D01*
X75434523Y-113354109D01*
X75434518Y-113354115D01*
X75344547Y-113497302D01*
X75344545Y-113497305D01*
X75288685Y-113656943D01*
X75269751Y-113824997D01*
X74500500Y-113824997D01*
X74500500Y-113059999D01*
X80329364Y-113059999D01*
X80329364Y-113060000D01*
X81226988Y-113060000D01*
X81194075Y-113117007D01*
X81160000Y-113244174D01*
X81160000Y-113375826D01*
X81194075Y-113502993D01*
X81226988Y-113560000D01*
X80329364Y-113560000D01*
X80386567Y-113773486D01*
X80386570Y-113773492D01*
X80486399Y-113987578D01*
X80621894Y-114181082D01*
X80788917Y-114348105D01*
X80982421Y-114483600D01*
X81196507Y-114583429D01*
X81196516Y-114583433D01*
X81410000Y-114640634D01*
X81410000Y-113743012D01*
X81467007Y-113775925D01*
X81594174Y-113810000D01*
X81725826Y-113810000D01*
X81852993Y-113775925D01*
X81910000Y-113743012D01*
X81910000Y-114640633D01*
X82123483Y-114583433D01*
X82123492Y-114583429D01*
X82337578Y-114483600D01*
X82531082Y-114348105D01*
X82698105Y-114181082D01*
X82833598Y-113987580D01*
X82872509Y-113904135D01*
X82918681Y-113851695D01*
X82985875Y-113832543D01*
X83052756Y-113852758D01*
X83097273Y-113904133D01*
X83107989Y-113927112D01*
X83112898Y-113937639D01*
X83238402Y-114116877D01*
X83393123Y-114271598D01*
X83572361Y-114397102D01*
X83770670Y-114489575D01*
X83982023Y-114546207D01*
X84164926Y-114562208D01*
X84199998Y-114565277D01*
X84200000Y-114565277D01*
X84200002Y-114565277D01*
X84228254Y-114562805D01*
X84417977Y-114546207D01*
X84629330Y-114489575D01*
X84827639Y-114397102D01*
X85006877Y-114271598D01*
X85161598Y-114116877D01*
X85287102Y-113937639D01*
X85357618Y-113786414D01*
X85403790Y-113733977D01*
X85470984Y-113714825D01*
X85537865Y-113735041D01*
X85582381Y-113786414D01*
X85652898Y-113937639D01*
X85778402Y-114116877D01*
X85933123Y-114271598D01*
X86112361Y-114397102D01*
X86310670Y-114489575D01*
X86522023Y-114546207D01*
X86704926Y-114562208D01*
X86739998Y-114565277D01*
X86740000Y-114565277D01*
X86740002Y-114565277D01*
X86768254Y-114562805D01*
X86957977Y-114546207D01*
X87169330Y-114489575D01*
X87367639Y-114397102D01*
X87546877Y-114271598D01*
X87701598Y-114116877D01*
X87803928Y-113970734D01*
X87858502Y-113927112D01*
X87928000Y-113919918D01*
X87990355Y-113951441D01*
X88025769Y-114011670D01*
X88029500Y-114041859D01*
X88029500Y-114191517D01*
X88040292Y-114259657D01*
X88044354Y-114285304D01*
X88101950Y-114398342D01*
X88101952Y-114398344D01*
X88101954Y-114398347D01*
X88191652Y-114488045D01*
X88191654Y-114488046D01*
X88191658Y-114488050D01*
X88300645Y-114543582D01*
X88304698Y-114545647D01*
X88398475Y-114560499D01*
X88398481Y-114560500D01*
X90161518Y-114560499D01*
X90255304Y-114545646D01*
X90368342Y-114488050D01*
X90458050Y-114398342D01*
X90515646Y-114285304D01*
X90515646Y-114285302D01*
X90515647Y-114285301D01*
X90530499Y-114191524D01*
X90530500Y-114191519D01*
X90530499Y-112428482D01*
X90515646Y-112334696D01*
X90458050Y-112221658D01*
X90458046Y-112221654D01*
X90458045Y-112221652D01*
X90368347Y-112131954D01*
X90368344Y-112131952D01*
X90368342Y-112131950D01*
X90291517Y-112092805D01*
X90255301Y-112074352D01*
X90161524Y-112059500D01*
X90011862Y-112059500D01*
X89944823Y-112039815D01*
X89899068Y-111987011D01*
X89889124Y-111917853D01*
X89918149Y-111854297D01*
X89940734Y-111833928D01*
X90086877Y-111731598D01*
X90241598Y-111576877D01*
X90367102Y-111397639D01*
X90459575Y-111199330D01*
X90516207Y-110987977D01*
X90535277Y-110770000D01*
X90516207Y-110552023D01*
X90459575Y-110340670D01*
X90367102Y-110142362D01*
X90367100Y-110142359D01*
X90367099Y-110142357D01*
X90241599Y-109963124D01*
X90241596Y-109963121D01*
X90086877Y-109808402D01*
X89907639Y-109682898D01*
X89907640Y-109682898D01*
X89907638Y-109682897D01*
X89808484Y-109636661D01*
X89709330Y-109590425D01*
X89709326Y-109590424D01*
X89709322Y-109590422D01*
X89497977Y-109533793D01*
X89280002Y-109514723D01*
X89279998Y-109514723D01*
X89134682Y-109527436D01*
X89062023Y-109533793D01*
X89062020Y-109533793D01*
X88850677Y-109590422D01*
X88850668Y-109590426D01*
X88652361Y-109682898D01*
X88652357Y-109682900D01*
X88473121Y-109808402D01*
X88318402Y-109963121D01*
X88192900Y-110142357D01*
X88192898Y-110142361D01*
X88122382Y-110293583D01*
X88076209Y-110346022D01*
X88009016Y-110365174D01*
X87942135Y-110344958D01*
X87897618Y-110293583D01*
X87883118Y-110262488D01*
X87827102Y-110142362D01*
X87827100Y-110142359D01*
X87827099Y-110142357D01*
X87701599Y-109963124D01*
X87701596Y-109963121D01*
X87546877Y-109808402D01*
X87367639Y-109682898D01*
X87367640Y-109682898D01*
X87367638Y-109682897D01*
X87268484Y-109636661D01*
X87169330Y-109590425D01*
X87169326Y-109590424D01*
X87169322Y-109590422D01*
X86957977Y-109533793D01*
X86740002Y-109514723D01*
X86739998Y-109514723D01*
X86594682Y-109527436D01*
X86522023Y-109533793D01*
X86522020Y-109533793D01*
X86310677Y-109590422D01*
X86310668Y-109590426D01*
X86112361Y-109682898D01*
X86112357Y-109682900D01*
X85933121Y-109808402D01*
X85778402Y-109963121D01*
X85652900Y-110142357D01*
X85652898Y-110142361D01*
X85582382Y-110293583D01*
X85536209Y-110346022D01*
X85469016Y-110365174D01*
X85402135Y-110344958D01*
X85357618Y-110293583D01*
X85343118Y-110262488D01*
X85287102Y-110142362D01*
X85287100Y-110142359D01*
X85287099Y-110142357D01*
X85161599Y-109963124D01*
X85161596Y-109963121D01*
X85006877Y-109808402D01*
X84827639Y-109682898D01*
X84827640Y-109682898D01*
X84827638Y-109682897D01*
X84728484Y-109636661D01*
X84629330Y-109590425D01*
X84629326Y-109590424D01*
X84629322Y-109590422D01*
X84417977Y-109533793D01*
X84200002Y-109514723D01*
X84199998Y-109514723D01*
X84054682Y-109527436D01*
X83982023Y-109533793D01*
X83982020Y-109533793D01*
X83770677Y-109590422D01*
X83770668Y-109590426D01*
X83572361Y-109682898D01*
X83572357Y-109682900D01*
X83393121Y-109808402D01*
X83238402Y-109963121D01*
X83112900Y-110142357D01*
X83112898Y-110142361D01*
X83042382Y-110293583D01*
X82996209Y-110346022D01*
X82929016Y-110365174D01*
X82862135Y-110344958D01*
X82817618Y-110293583D01*
X82803118Y-110262488D01*
X82747102Y-110142362D01*
X82747100Y-110142359D01*
X82747099Y-110142357D01*
X82621599Y-109963124D01*
X82621596Y-109963121D01*
X82466877Y-109808402D01*
X82287639Y-109682898D01*
X82287640Y-109682898D01*
X82287638Y-109682897D01*
X82188484Y-109636661D01*
X82089330Y-109590425D01*
X82089326Y-109590424D01*
X82089322Y-109590422D01*
X81877977Y-109533793D01*
X81660002Y-109514723D01*
X81659998Y-109514723D01*
X81514682Y-109527436D01*
X81442023Y-109533793D01*
X81442020Y-109533793D01*
X81230677Y-109590422D01*
X81230668Y-109590426D01*
X81032361Y-109682898D01*
X81032357Y-109682900D01*
X80853121Y-109808402D01*
X80698402Y-109963121D01*
X80572900Y-110142357D01*
X80572898Y-110142361D01*
X80480426Y-110340668D01*
X80480422Y-110340677D01*
X80423793Y-110552020D01*
X80423793Y-110552024D01*
X80404723Y-110769997D01*
X80404723Y-110770002D01*
X80423793Y-110987975D01*
X80423793Y-110987979D01*
X80480422Y-111199322D01*
X80480424Y-111199326D01*
X80480425Y-111199330D01*
X80502382Y-111246416D01*
X80572897Y-111397638D01*
X80572898Y-111397639D01*
X80698402Y-111576877D01*
X80853123Y-111731598D01*
X81032361Y-111857102D01*
X81065862Y-111872724D01*
X81065865Y-111872725D01*
X81118304Y-111918897D01*
X81137456Y-111986091D01*
X81117240Y-112052972D01*
X81065865Y-112097489D01*
X80982422Y-112136399D01*
X80982420Y-112136400D01*
X80788926Y-112271886D01*
X80788920Y-112271891D01*
X80621891Y-112438920D01*
X80621886Y-112438926D01*
X80486400Y-112632420D01*
X80486399Y-112632422D01*
X80386570Y-112846507D01*
X80386567Y-112846513D01*
X80329364Y-113059999D01*
X74500500Y-113059999D01*
X74500500Y-102075895D01*
X74500501Y-102075882D01*
X74500501Y-102024000D01*
X74520186Y-101956961D01*
X74572990Y-101911206D01*
X74624501Y-101900000D01*
X96600000Y-101900000D01*
X96600000Y-99602155D01*
X103650000Y-99602155D01*
X103650000Y-100250000D01*
X104566988Y-100250000D01*
X104534075Y-100307007D01*
X104500000Y-100434174D01*
X104500000Y-100565826D01*
X104534075Y-100692993D01*
X104566988Y-100750000D01*
X103650000Y-100750000D01*
X103650000Y-101397844D01*
X103656401Y-101457372D01*
X103656403Y-101457379D01*
X103706645Y-101592086D01*
X103706649Y-101592093D01*
X103792809Y-101707187D01*
X103792812Y-101707190D01*
X103907906Y-101793350D01*
X103907913Y-101793354D01*
X104042620Y-101843596D01*
X104042627Y-101843598D01*
X104102155Y-101849999D01*
X104102172Y-101850000D01*
X104750000Y-101850000D01*
X104750000Y-100933012D01*
X104807007Y-100965925D01*
X104934174Y-101000000D01*
X105065826Y-101000000D01*
X105192993Y-100965925D01*
X105250000Y-100933012D01*
X105250000Y-101850000D01*
X105897828Y-101850000D01*
X105897844Y-101849999D01*
X105957372Y-101843598D01*
X105957379Y-101843596D01*
X106092086Y-101793354D01*
X106092093Y-101793350D01*
X106207187Y-101707190D01*
X106207190Y-101707187D01*
X106293350Y-101592093D01*
X106293354Y-101592086D01*
X106343596Y-101457379D01*
X106343598Y-101457372D01*
X106349999Y-101397844D01*
X106350000Y-101397827D01*
X106350000Y-101373961D01*
X106369685Y-101306922D01*
X106422489Y-101261167D01*
X106491647Y-101251223D01*
X106555203Y-101280248D01*
X106575571Y-101302835D01*
X106578402Y-101306877D01*
X106733123Y-101461598D01*
X106912361Y-101587102D01*
X107110670Y-101679575D01*
X107322023Y-101736207D01*
X107504926Y-101752208D01*
X107539998Y-101755277D01*
X107540000Y-101755277D01*
X107540002Y-101755277D01*
X107568254Y-101752805D01*
X107757977Y-101736207D01*
X107969330Y-101679575D01*
X108167639Y-101587102D01*
X108346877Y-101461598D01*
X108501598Y-101306877D01*
X108627102Y-101127639D01*
X108697618Y-100976414D01*
X108743790Y-100923977D01*
X108810984Y-100904825D01*
X108877865Y-100925041D01*
X108922381Y-100976414D01*
X108992898Y-101127639D01*
X109118402Y-101306877D01*
X109273123Y-101461598D01*
X109452361Y-101587102D01*
X109650670Y-101679575D01*
X109862023Y-101736207D01*
X110044926Y-101752208D01*
X110079998Y-101755277D01*
X110080000Y-101755277D01*
X110080002Y-101755277D01*
X110108254Y-101752805D01*
X110297977Y-101736207D01*
X110509330Y-101679575D01*
X110707639Y-101587102D01*
X110886877Y-101461598D01*
X111041598Y-101306877D01*
X111167102Y-101127639D01*
X111237618Y-100976414D01*
X111283790Y-100923977D01*
X111350984Y-100904825D01*
X111417865Y-100925041D01*
X111462381Y-100976414D01*
X111532898Y-101127639D01*
X111658402Y-101306877D01*
X111813123Y-101461598D01*
X111992361Y-101587102D01*
X112190670Y-101679575D01*
X112402023Y-101736207D01*
X112584926Y-101752208D01*
X112619998Y-101755277D01*
X112620000Y-101755277D01*
X112620002Y-101755277D01*
X112648254Y-101752805D01*
X112837977Y-101736207D01*
X113049330Y-101679575D01*
X113247639Y-101587102D01*
X113426877Y-101461598D01*
X113581598Y-101306877D01*
X113707102Y-101127639D01*
X113799575Y-100929330D01*
X113856207Y-100717977D01*
X113875277Y-100500000D01*
X115795065Y-100500000D01*
X115814786Y-100826038D01*
X115873667Y-101147341D01*
X115970835Y-101459164D01*
X115970839Y-101459175D01*
X116104897Y-101757041D01*
X116104898Y-101757043D01*
X116273881Y-102036576D01*
X116421476Y-102224968D01*
X117563708Y-101082736D01*
X117660967Y-101216602D01*
X117783398Y-101339033D01*
X117917262Y-101436290D01*
X116775030Y-102578522D01*
X116775030Y-102578523D01*
X116963423Y-102726118D01*
X117242956Y-102895101D01*
X117242958Y-102895102D01*
X117540824Y-103029160D01*
X117540835Y-103029164D01*
X117852658Y-103126332D01*
X118173961Y-103185213D01*
X118500000Y-103204934D01*
X118826038Y-103185213D01*
X119147341Y-103126332D01*
X119459164Y-103029164D01*
X119459175Y-103029160D01*
X119757041Y-102895102D01*
X119757043Y-102895101D01*
X120036586Y-102726112D01*
X120224968Y-102578523D01*
X120224968Y-102578522D01*
X119082737Y-101436290D01*
X119216602Y-101339033D01*
X119339033Y-101216602D01*
X119436290Y-101082737D01*
X120578522Y-102224968D01*
X120578523Y-102224968D01*
X120726112Y-102036586D01*
X120895101Y-101757043D01*
X120895102Y-101757041D01*
X121029160Y-101459175D01*
X121029164Y-101459164D01*
X121126332Y-101147341D01*
X121185213Y-100826038D01*
X121204934Y-100500000D01*
X121185213Y-100173961D01*
X121126332Y-99852658D01*
X121029164Y-99540835D01*
X121029160Y-99540824D01*
X120895102Y-99242958D01*
X120895101Y-99242956D01*
X120726118Y-98963423D01*
X120578522Y-98775030D01*
X119436290Y-99917262D01*
X119339033Y-99783398D01*
X119216602Y-99660967D01*
X119082736Y-99563709D01*
X120224968Y-98421476D01*
X120036576Y-98273881D01*
X119757043Y-98104898D01*
X119757041Y-98104897D01*
X119459175Y-97970839D01*
X119459164Y-97970835D01*
X119147341Y-97873667D01*
X118826038Y-97814786D01*
X118500000Y-97795065D01*
X118173961Y-97814786D01*
X117852658Y-97873667D01*
X117540835Y-97970835D01*
X117540824Y-97970839D01*
X117242958Y-98104897D01*
X117242956Y-98104898D01*
X116963422Y-98273881D01*
X116963416Y-98273886D01*
X116775030Y-98421474D01*
X116775029Y-98421476D01*
X117917262Y-99563709D01*
X117783398Y-99660967D01*
X117660967Y-99783398D01*
X117563709Y-99917262D01*
X116421476Y-98775029D01*
X116421474Y-98775030D01*
X116273886Y-98963416D01*
X116273881Y-98963422D01*
X116104898Y-99242956D01*
X116104897Y-99242958D01*
X115970839Y-99540824D01*
X115970835Y-99540835D01*
X115873667Y-99852658D01*
X115814786Y-100173961D01*
X115795065Y-100500000D01*
X113875277Y-100500000D01*
X113856207Y-100282023D01*
X113819879Y-100146446D01*
X113799577Y-100070677D01*
X113799576Y-100070676D01*
X113799575Y-100070670D01*
X113707102Y-99872362D01*
X113707100Y-99872359D01*
X113707099Y-99872357D01*
X113581599Y-99693124D01*
X113514511Y-99626036D01*
X113426877Y-99538402D01*
X113247639Y-99412898D01*
X113247640Y-99412898D01*
X113247638Y-99412897D01*
X113148484Y-99366661D01*
X113049330Y-99320425D01*
X113049326Y-99320424D01*
X113049322Y-99320422D01*
X112837977Y-99263793D01*
X112620002Y-99244723D01*
X112619998Y-99244723D01*
X112474682Y-99257436D01*
X112402023Y-99263793D01*
X112402020Y-99263793D01*
X112190677Y-99320422D01*
X112190668Y-99320426D01*
X111992361Y-99412898D01*
X111992357Y-99412900D01*
X111813121Y-99538402D01*
X111658402Y-99693121D01*
X111532900Y-99872357D01*
X111532898Y-99872361D01*
X111462382Y-100023583D01*
X111416209Y-100076022D01*
X111349016Y-100095174D01*
X111282135Y-100074958D01*
X111237618Y-100023583D01*
X111223118Y-99992488D01*
X111167102Y-99872362D01*
X111167100Y-99872359D01*
X111167099Y-99872357D01*
X111041599Y-99693124D01*
X110974511Y-99626036D01*
X110886877Y-99538402D01*
X110707639Y-99412898D01*
X110707640Y-99412898D01*
X110707638Y-99412897D01*
X110608484Y-99366661D01*
X110509330Y-99320425D01*
X110509326Y-99320424D01*
X110509322Y-99320422D01*
X110297977Y-99263793D01*
X110080002Y-99244723D01*
X110079998Y-99244723D01*
X109934682Y-99257436D01*
X109862023Y-99263793D01*
X109862020Y-99263793D01*
X109650677Y-99320422D01*
X109650668Y-99320426D01*
X109452361Y-99412898D01*
X109452357Y-99412900D01*
X109273121Y-99538402D01*
X109118402Y-99693121D01*
X108992900Y-99872357D01*
X108992898Y-99872361D01*
X108922382Y-100023583D01*
X108876209Y-100076022D01*
X108809016Y-100095174D01*
X108742135Y-100074958D01*
X108697618Y-100023583D01*
X108683118Y-99992488D01*
X108627102Y-99872362D01*
X108627100Y-99872359D01*
X108627099Y-99872357D01*
X108501599Y-99693124D01*
X108434511Y-99626036D01*
X108346877Y-99538402D01*
X108167639Y-99412898D01*
X108167640Y-99412898D01*
X108167638Y-99412897D01*
X108068484Y-99366661D01*
X107969330Y-99320425D01*
X107969326Y-99320424D01*
X107969322Y-99320422D01*
X107757977Y-99263793D01*
X107540002Y-99244723D01*
X107539998Y-99244723D01*
X107394682Y-99257436D01*
X107322023Y-99263793D01*
X107322020Y-99263793D01*
X107110677Y-99320422D01*
X107110668Y-99320426D01*
X106912361Y-99412898D01*
X106912357Y-99412900D01*
X106733121Y-99538402D01*
X106578403Y-99693120D01*
X106575572Y-99697164D01*
X106520993Y-99740786D01*
X106451494Y-99747977D01*
X106389141Y-99716451D01*
X106353730Y-99656220D01*
X106350000Y-99626036D01*
X106350000Y-99602172D01*
X106349999Y-99602155D01*
X106343598Y-99542627D01*
X106343596Y-99542620D01*
X106293354Y-99407913D01*
X106293350Y-99407906D01*
X106207190Y-99292812D01*
X106207187Y-99292809D01*
X106092093Y-99206649D01*
X106092086Y-99206645D01*
X105957379Y-99156403D01*
X105957372Y-99156401D01*
X105897844Y-99150000D01*
X105250000Y-99150000D01*
X105250000Y-100066988D01*
X105192993Y-100034075D01*
X105065826Y-100000000D01*
X104934174Y-100000000D01*
X104807007Y-100034075D01*
X104750000Y-100066988D01*
X104750000Y-99150000D01*
X104102155Y-99150000D01*
X104042627Y-99156401D01*
X104042620Y-99156403D01*
X103907913Y-99206645D01*
X103907906Y-99206649D01*
X103792812Y-99292809D01*
X103792809Y-99292812D01*
X103706649Y-99407906D01*
X103706645Y-99407913D01*
X103656403Y-99542620D01*
X103656401Y-99542627D01*
X103650000Y-99602155D01*
X96600000Y-99602155D01*
X96600000Y-96624500D01*
X96619685Y-96557461D01*
X96672489Y-96511706D01*
X96724000Y-96500500D01*
X116997439Y-96500500D01*
X117002562Y-96500605D01*
G37*
%TD.AperFunction*%
%TD*%
M02*
