%TF.GenerationSoftware,KiCad,Pcbnew,8.0.2*%
%TF.CreationDate,2024-07-16T14:47:51-07:00*%
%TF.ProjectId,sensor-node-rev-2s,73656e73-6f72-42d6-9e6f-64652d726576,rev?*%
%TF.SameCoordinates,Original*%
%TF.FileFunction,Soldermask,Top*%
%TF.FilePolarity,Negative*%
%FSLAX46Y46*%
G04 Gerber Fmt 4.6, Leading zero omitted, Abs format (unit mm)*
G04 Created by KiCad (PCBNEW 8.0.2) date 2024-07-16 14:47:51*
%MOMM*%
%LPD*%
G01*
G04 APERTURE LIST*
G04 Aperture macros list*
%AMRoundRect*
0 Rectangle with rounded corners*
0 $1 Rounding radius*
0 $2 $3 $4 $5 $6 $7 $8 $9 X,Y pos of 4 corners*
0 Add a 4 corners polygon primitive as box body*
4,1,4,$2,$3,$4,$5,$6,$7,$8,$9,$2,$3,0*
0 Add four circle primitives for the rounded corners*
1,1,$1+$1,$2,$3*
1,1,$1+$1,$4,$5*
1,1,$1+$1,$6,$7*
1,1,$1+$1,$8,$9*
0 Add four rect primitives between the rounded corners*
20,1,$1+$1,$2,$3,$4,$5,0*
20,1,$1+$1,$4,$5,$6,$7,0*
20,1,$1+$1,$6,$7,$8,$9,0*
20,1,$1+$1,$8,$9,$2,$3,0*%
%AMRotRect*
0 Rectangle, with rotation*
0 The origin of the aperture is its center*
0 $1 length*
0 $2 width*
0 $3 Rotation angle, in degrees counterclockwise*
0 Add horizontal line*
21,1,$1,$2,0,0,$3*%
%AMFreePoly0*
4,1,19,0.500000,-0.750000,0.000000,-0.750000,0.000000,-0.744911,-0.071157,-0.744911,-0.207708,-0.704816,-0.327430,-0.627875,-0.420627,-0.520320,-0.479746,-0.390866,-0.500000,-0.250000,-0.500000,0.250000,-0.479746,0.390866,-0.420627,0.520320,-0.327430,0.627875,-0.207708,0.704816,-0.071157,0.744911,0.000000,0.744911,0.000000,0.750000,0.500000,0.750000,0.500000,-0.750000,0.500000,-0.750000,
$1*%
%AMFreePoly1*
4,1,19,0.000000,0.744911,0.071157,0.744911,0.207708,0.704816,0.327430,0.627875,0.420627,0.520320,0.479746,0.390866,0.500000,0.250000,0.500000,-0.250000,0.479746,-0.390866,0.420627,-0.520320,0.327430,-0.627875,0.207708,-0.704816,0.071157,-0.744911,0.000000,-0.744911,0.000000,-0.750000,-0.500000,-0.750000,-0.500000,0.750000,0.000000,0.750000,0.000000,0.744911,0.000000,0.744911,
$1*%
%AMFreePoly2*
4,1,19,0.550000,-0.750000,0.000000,-0.750000,0.000000,-0.744911,-0.071157,-0.744911,-0.207708,-0.704816,-0.327430,-0.627875,-0.420627,-0.520320,-0.479746,-0.390866,-0.500000,-0.250000,-0.500000,0.250000,-0.479746,0.390866,-0.420627,0.520320,-0.327430,0.627875,-0.207708,0.704816,-0.071157,0.744911,0.000000,0.744911,0.000000,0.750000,0.550000,0.750000,0.550000,-0.750000,0.550000,-0.750000,
$1*%
%AMFreePoly3*
4,1,19,0.000000,0.744911,0.071157,0.744911,0.207708,0.704816,0.327430,0.627875,0.420627,0.520320,0.479746,0.390866,0.500000,0.250000,0.500000,-0.250000,0.479746,-0.390866,0.420627,-0.520320,0.327430,-0.627875,0.207708,-0.704816,0.071157,-0.744911,0.000000,-0.744911,0.000000,-0.750000,-0.550000,-0.750000,-0.550000,0.750000,0.000000,0.750000,0.000000,0.744911,0.000000,0.744911,
$1*%
G04 Aperture macros list end*
%ADD10R,2.000000X2.000000*%
%ADD11RoundRect,0.135000X0.185000X-0.135000X0.185000X0.135000X-0.185000X0.135000X-0.185000X-0.135000X0*%
%ADD12RoundRect,0.100000X-0.100000X0.225000X-0.100000X-0.225000X0.100000X-0.225000X0.100000X0.225000X0*%
%ADD13R,1.270000X1.905000*%
%ADD14FreePoly0,0.000000*%
%ADD15FreePoly1,0.000000*%
%ADD16R,1.500000X1.500000*%
%ADD17RoundRect,0.135000X0.135000X0.185000X-0.135000X0.185000X-0.135000X-0.185000X0.135000X-0.185000X0*%
%ADD18RoundRect,0.140000X-0.219203X-0.021213X-0.021213X-0.219203X0.219203X0.021213X0.021213X0.219203X0*%
%ADD19RotRect,0.300000X0.850000X135.000000*%
%ADD20RotRect,0.300000X0.850000X45.000000*%
%ADD21RotRect,3.700000X3.700000X45.000000*%
%ADD22RoundRect,0.140000X-0.021213X0.219203X-0.219203X0.021213X0.021213X-0.219203X0.219203X-0.021213X0*%
%ADD23RoundRect,0.140000X0.219203X0.021213X0.021213X0.219203X-0.219203X-0.021213X-0.021213X-0.219203X0*%
%ADD24R,1.250000X0.600000*%
%ADD25R,1.000000X0.500000*%
%ADD26RoundRect,0.140000X0.140000X0.170000X-0.140000X0.170000X-0.140000X-0.170000X0.140000X-0.170000X0*%
%ADD27RoundRect,0.140000X0.170000X-0.140000X0.170000X0.140000X-0.170000X0.140000X-0.170000X-0.140000X0*%
%ADD28RoundRect,0.147500X0.147500X0.172500X-0.147500X0.172500X-0.147500X-0.172500X0.147500X-0.172500X0*%
%ADD29R,0.450000X1.450000*%
%ADD30RoundRect,0.135000X-0.135000X-0.185000X0.135000X-0.185000X0.135000X0.185000X-0.135000X0.185000X0*%
%ADD31RoundRect,0.147500X-0.147500X-0.172500X0.147500X-0.172500X0.147500X0.172500X-0.147500X0.172500X0*%
%ADD32R,2.300000X3.200000*%
%ADD33RoundRect,0.135000X-0.185000X0.135000X-0.185000X-0.135000X0.185000X-0.135000X0.185000X0.135000X0*%
%ADD34R,1.700000X1.700000*%
%ADD35O,1.700000X1.700000*%
%ADD36C,4.400000*%
%ADD37R,2.286000X5.842000*%
%ADD38R,2.413000X5.842000*%
%ADD39FreePoly2,0.000000*%
%ADD40R,1.000000X1.500000*%
%ADD41FreePoly3,0.000000*%
%ADD42R,1.600000X1.000000*%
%ADD43R,1.450000X0.700000*%
G04 APERTURE END LIST*
D10*
%TO.C,TP18*%
X120650000Y-121400000D03*
%TD*%
D11*
%TO.C,R11*%
X89900000Y-137410000D03*
X89900000Y-136390000D03*
%TD*%
D12*
%TO.C,U4*%
X88500000Y-134115000D03*
X87850000Y-134115000D03*
X87200000Y-134115000D03*
X87200000Y-136015000D03*
X88500000Y-136015000D03*
%TD*%
D13*
%TO.C,PS1*%
X106577000Y-135254000D03*
X108228000Y-135254000D03*
X109879000Y-135254000D03*
X111530000Y-135254000D03*
X113181000Y-135254000D03*
X114832000Y-135254000D03*
X116483000Y-135254000D03*
X116483000Y-121284000D03*
X114832000Y-121284000D03*
X113181000Y-121284000D03*
X111530000Y-121284000D03*
X109879000Y-121284000D03*
X108228000Y-121284000D03*
X106577000Y-121284000D03*
%TD*%
D14*
%TO.C,JP9*%
X101550000Y-130300000D03*
D15*
X102850000Y-130300000D03*
%TD*%
D10*
%TO.C,TP17*%
X94325000Y-106525000D03*
%TD*%
D16*
%TO.C,TP11*%
X76600000Y-136400000D03*
%TD*%
D17*
%TO.C,R13*%
X84710000Y-137445000D03*
X83690000Y-137445000D03*
%TD*%
D16*
%TO.C,TP1*%
X92060000Y-120060000D03*
%TD*%
D18*
%TO.C,C4*%
X95900589Y-125450589D03*
X96579411Y-126129411D03*
%TD*%
D17*
%TO.C,R5*%
X82560000Y-122950000D03*
X81540000Y-122950000D03*
%TD*%
D11*
%TO.C,R14*%
X89900000Y-135390000D03*
X89900000Y-134370000D03*
%TD*%
D19*
%TO.C,U1*%
X89030152Y-127294975D03*
X89383705Y-127648528D03*
X89737258Y-128002082D03*
X90090812Y-128355635D03*
X90444365Y-128709188D03*
X90797918Y-129062742D03*
X91151472Y-129416295D03*
X91505025Y-129769848D03*
D20*
X92494975Y-129769848D03*
X92848528Y-129416295D03*
X93202082Y-129062742D03*
X93555635Y-128709188D03*
X93909188Y-128355635D03*
X94262742Y-128002082D03*
X94616295Y-127648528D03*
X94969848Y-127294975D03*
D19*
X94969848Y-126305025D03*
X94616295Y-125951472D03*
X94262742Y-125597918D03*
X93909188Y-125244365D03*
X93555635Y-124890812D03*
X93202082Y-124537258D03*
X92848528Y-124183705D03*
X92494975Y-123830152D03*
D20*
X91505025Y-123830152D03*
X91151472Y-124183705D03*
X90797918Y-124537258D03*
X90444365Y-124890812D03*
X90090812Y-125244365D03*
X89737258Y-125597918D03*
X89383705Y-125951472D03*
X89030152Y-126305025D03*
D21*
X92000000Y-126800000D03*
%TD*%
D22*
%TO.C,C2*%
X89389411Y-130010589D03*
X88710589Y-130689411D03*
%TD*%
D23*
%TO.C,C3*%
X88079411Y-128129411D03*
X87400589Y-127450589D03*
%TD*%
D24*
%TO.C,S4*%
X76835000Y-125910000D03*
X80085000Y-125910000D03*
X76835000Y-127910000D03*
X80085000Y-127910000D03*
D25*
X78460000Y-125260000D03*
X78460000Y-128560000D03*
%TD*%
D26*
%TO.C,C23*%
X88480000Y-137500000D03*
X87520000Y-137500000D03*
%TD*%
D27*
%TO.C,C24*%
X83050000Y-129780000D03*
X83050000Y-128820000D03*
%TD*%
D14*
%TO.C,JP5*%
X101550000Y-125100000D03*
D15*
X102850000Y-125100000D03*
%TD*%
D17*
%TO.C,R1*%
X86535000Y-125775000D03*
X85515000Y-125775000D03*
%TD*%
D16*
%TO.C,TP6*%
X78000000Y-118000000D03*
%TD*%
%TO.C,TP9*%
X76600000Y-132500000D03*
%TD*%
%TO.C,TP3*%
X94760000Y-114300000D03*
%TD*%
D28*
%TO.C,D1*%
X98835000Y-121800000D03*
X97865000Y-121800000D03*
%TD*%
D29*
%TO.C,IC2*%
X83050000Y-135815000D03*
X83700000Y-135815000D03*
X84350000Y-135815000D03*
X85000000Y-135815000D03*
X85000000Y-131365000D03*
X84350000Y-131365000D03*
X83700000Y-131365000D03*
X83050000Y-131365000D03*
%TD*%
D30*
%TO.C,R2*%
X101290000Y-121400000D03*
X102310000Y-121400000D03*
%TD*%
D16*
%TO.C,TP12*%
X79950000Y-132500000D03*
%TD*%
%TO.C,TP5*%
X81350000Y-118525000D03*
%TD*%
D30*
%TO.C,R4*%
X96840000Y-120650000D03*
X97860000Y-120650000D03*
%TD*%
D31*
%TO.C,D2*%
X80565000Y-121750000D03*
X81535000Y-121750000D03*
%TD*%
D10*
%TO.C,TP16*%
X120700000Y-129500000D03*
%TD*%
D32*
%TO.C,C8*%
X113900000Y-115700000D03*
X120100000Y-115700000D03*
%TD*%
D14*
%TO.C,JP6*%
X101550000Y-127700000D03*
D15*
X102850000Y-127700000D03*
%TD*%
D33*
%TO.C,R3*%
X102300000Y-119490000D03*
X102300000Y-120510000D03*
%TD*%
D10*
%TO.C,TP14*%
X96300000Y-134800000D03*
%TD*%
D34*
%TO.C,J2*%
X105000000Y-100500000D03*
D35*
X107540000Y-100500000D03*
X110080000Y-100500000D03*
X112620000Y-100500000D03*
%TD*%
D30*
%TO.C,R10*%
X94590000Y-122500000D03*
X95610000Y-122500000D03*
%TD*%
D32*
%TO.C,C6*%
X111100000Y-115700000D03*
X104900000Y-115700000D03*
%TD*%
D17*
%TO.C,R6*%
X93810000Y-137400000D03*
X92790000Y-137400000D03*
%TD*%
D32*
%TO.C,C5*%
X111100000Y-108700000D03*
X104900000Y-108700000D03*
%TD*%
D16*
%TO.C,TP2*%
X85250000Y-119030000D03*
%TD*%
D36*
%TO.C,H3*%
X118500000Y-100500000D03*
%TD*%
D27*
%TO.C,C22*%
X82300000Y-124930000D03*
X82300000Y-123970000D03*
%TD*%
D16*
%TO.C,TP4*%
X94750000Y-111380000D03*
%TD*%
D36*
%TO.C,H4*%
X118500000Y-140500000D03*
%TD*%
D37*
%TO.C,J3*%
X109875000Y-141235600D03*
D38*
X114256500Y-141235600D03*
X105493500Y-141235600D03*
%TD*%
D32*
%TO.C,C1*%
X113900000Y-108700000D03*
X120100000Y-108700000D03*
%TD*%
D35*
%TO.C,nRF24L01+*%
X89280000Y-110770000D03*
X86740000Y-110770000D03*
X84200000Y-110770000D03*
X81660000Y-110770000D03*
X81660000Y-113310000D03*
X84200000Y-113310000D03*
X86740000Y-113310000D03*
D34*
X89280000Y-113310000D03*
%TD*%
D23*
%TO.C,C7*%
X86339411Y-127839411D03*
X85660589Y-127160589D03*
%TD*%
D39*
%TO.C,JP2*%
X84125000Y-123825000D03*
D40*
X85425000Y-123825000D03*
D41*
X86725000Y-123825000D03*
%TD*%
D16*
%TO.C,TP10*%
X79900000Y-136400000D03*
%TD*%
D34*
%TO.C,J4*%
X94920000Y-142000000D03*
D35*
X97460000Y-142000000D03*
X100000000Y-142000000D03*
%TD*%
D10*
%TO.C,TP13*%
X93300000Y-134800000D03*
%TD*%
D42*
%TO.C,S1*%
X101950000Y-137850000D03*
X99650000Y-136100000D03*
X101950000Y-134350000D03*
%TD*%
D36*
%TO.C,H2*%
X78500000Y-140500000D03*
%TD*%
D10*
%TO.C,TP15*%
X98900000Y-108100000D03*
%TD*%
D43*
%TO.C,IC1*%
X84100000Y-139045000D03*
X84100000Y-140315000D03*
X84100000Y-141585000D03*
X84100000Y-142855000D03*
X89700000Y-142855000D03*
X89700000Y-141585000D03*
X89700000Y-140315000D03*
X89700000Y-139045000D03*
%TD*%
D42*
%TO.C,S5*%
X100450000Y-117050000D03*
X98150000Y-115300000D03*
X100450000Y-113550000D03*
%TD*%
D14*
%TO.C,JP1*%
X77450000Y-122200000D03*
D15*
X78750000Y-122200000D03*
%TD*%
D17*
%TO.C,R7*%
X95910000Y-137400000D03*
X94890000Y-137400000D03*
%TD*%
M02*
